<?xml version="1.0" encoding="UTF-8" standalone="no"?>
<svg
   xmlns:dc="http://purl.org/dc/elements/1.1/"
   xmlns:cc="http://creativecommons.org/ns#"
   xmlns:rdf="http://www.w3.org/1999/02/22-rdf-syntax-ns#"
   xmlns:svg="http://www.w3.org/2000/svg"
   xmlns="http://www.w3.org/2000/svg"
   xmlns:sodipodi="http://sodipodi.sourceforge.net/DTD/sodipodi-0.dtd"
   xmlns:inkscape="http://www.inkscape.org/namespaces/inkscape"
   version="1.1"
   viewBox="0 0 652.54718 600.18384"
   fill="none"
   stroke="none"
   stroke-linecap="square"
   stroke-miterlimit="10"
   id="svg3769"
   sodipodi:docname="flowchart-while-continue.svg"
   width="652.54718"
   height="600.18384"
   inkscape:version="1.0.2-2 (e86c870879, 2021-01-15)">
  <metadata
     id="metadata3775">
    <rdf:RDF>
      <cc:Work
         rdf:about="">
        <dc:format>image/svg+xml</dc:format>
        <dc:type
           rdf:resource="http://purl.org/dc/dcmitype/StillImage" />
        <dc:title></dc:title>
      </cc:Work>
    </rdf:RDF>
  </metadata>
  <defs
     id="defs3773" />
  <sodipodi:namedview
     pagecolor="#ffffff"
     bordercolor="#666666"
     borderopacity="1"
     objecttolerance="10"
     gridtolerance="10"
     guidetolerance="10"
     inkscape:pageopacity="0"
     inkscape:pageshadow="2"
     inkscape:window-width="1920"
     inkscape:window-height="1017"
     id="namedview3771"
     showgrid="false"
     fit-margin-top="0"
     fit-margin-left="0"
     fit-margin-right="0"
     fit-margin-bottom="0"
     inkscape:zoom="0.57126853"
     inkscape:cx="118.25859"
     inkscape:cy="40.125191"
     inkscape:window-x="-8"
     inkscape:window-y="-8"
     inkscape:window-maximized="1"
     inkscape:current-layer="svg3769" />
  <clipPath
     id="p.0">
    <path
       d="M 0,0 H 960 V 720 H 0 Z"
       clip-rule="nonzero"
       id="path3576" />
  </clipPath>
  <path
     fill="#000000"
     fill-opacity="0"
     d="m -72.49344,-117.23755 h 960 v 720 h -960 z"
     fill-rule="evenodd"
     id="path3579" />
  <path
     fill="#cfe2f3"
     d="m 147.14816,0.5 h 82.58987 v 0 c 10.81949,0 19.59043,7.92435 19.59043,17.69953 0,9.77518 -8.77094,17.69953 -19.59043,17.69953 h -82.58987 v 0 c -10.81949,0 -19.59042,-7.92435 -19.59042,-17.69953 0,-9.77518 8.77093,-17.69953 19.59042,-17.69953 z"
     fill-rule="evenodd"
     id="path3581" />
  <path
     stroke="#000000"
     stroke-width="1"
     stroke-linejoin="round"
     stroke-linecap="butt"
     d="m 147.14816,0.5 h 82.58987 v 0 c 10.81949,0 19.59043,7.92435 19.59043,17.69953 0,9.77518 -8.77094,17.69953 -19.59043,17.69953 h -82.58987 v 0 c -10.81949,0 -19.59042,-7.92435 -19.59042,-17.69953 0,-9.77518 8.77093,-17.69953 19.59042,-17.69953 z"
     fill-rule="evenodd"
     id="path3583" />
  <path
     fill="#000000"
     d="M 150.50169,27.79953 V 8.72141 h 6.5625 q 2.23437,0 3.40625,0.26562 1.64062,0.375 2.79687,1.375 1.5,1.26562 2.25,3.25 0.75,1.98437 0.75,4.54687 0,2.17188 -0.51562,3.85938 -0.5,1.67187 -1.29688,2.78125 -0.78125,1.09375 -1.73437,1.71875 -0.9375,0.625 -2.28125,0.95312 -1.32813,0.32813 -3.0625,0.32813 z m 2.51562,-2.25 h 4.07813 q 1.89062,0 2.95312,-0.34375 1.07813,-0.35938 1.71875,-1 0.89063,-0.89063 1.39063,-2.40625 0.51562,-1.51563 0.51562,-3.6875 0,-2.98438 -0.98437,-4.59375 -0.98438,-1.60938 -2.39063,-2.15625 -1.01562,-0.39063 -3.26562,-0.39063 h -4.01563 z m 25.89092,-2.20313 2.42187,0.29688 q -0.57812,2.125 -2.125,3.29687 -1.54687,1.17188 -3.95312,1.17188 -3.03125,0 -4.8125,-1.85938 -1.78125,-1.875 -1.78125,-5.25 0,-3.48437 1.79687,-5.40625 1.79688,-1.9375 4.67188,-1.9375 2.76562,0 4.51562,1.89063 1.76563,1.89062 1.76563,5.3125 0,0.20312 -0.0156,0.625 h -10.3125 q 0.14063,2.28125 1.29688,3.5 1.15625,1.20312 2.89062,1.20312 1.28125,0 2.1875,-0.67187 0.92188,-0.6875 1.45313,-2.17188 z m -7.6875,-3.78125 h 7.71875 q -0.15625,-1.75 -0.89063,-2.625 -1.125,-1.34375 -2.90625,-1.34375 -1.60937,0 -2.71875,1.07813 -1.09375,1.07812 -1.20312,2.89062 z m 2.51562,-7.3125 1.73438,-3.64062 h 3.0625 l -2.85938,3.64062 z m 10.52808,20.84375 v -19.125 h 2.14063 v 1.79688 q 0.75,-1.04688 1.70312,-1.57813 0.95313,-0.53125 2.3125,-0.53125 1.76563,0 3.10938,0.92188 1.35937,0.90625 2.04687,2.5625 0.6875,1.65625 0.6875,3.64062 0,2.125 -0.76562,3.82813 -0.75,1.6875 -2.20313,2.59375 -1.45312,0.90625 -3.04687,0.90625 -1.17188,0 -2.10938,-0.48438 -0.92187,-0.5 -1.53125,-1.26562 v 6.73437 z m 2.125,-12.125 q 0,2.65625 1.07813,3.9375 1.09375,1.28125 2.625,1.28125 1.5625,0 2.67187,-1.3125 1.10938,-1.32812 1.10938,-4.10937 0,-2.64063 -1.09375,-3.95313 -1.07813,-1.3125 -2.59375,-1.3125 -1.48438,0 -2.64063,1.40625 -1.15625,1.39063 -1.15625,4.0625 z m 21.73117,5.125 q -1.3125,1.10938 -2.51562,1.5625 -1.20313,0.45313 -2.57813,0.45313 -2.28125,0 -3.5,-1.10938 -1.21875,-1.10937 -1.21875,-2.84375 0,-1.01562 0.45313,-1.85937 0.46875,-0.84375 1.21875,-1.34375 0.75,-0.51563 1.6875,-0.76563 0.6875,-0.1875 2.07812,-0.35937 2.82813,-0.32813 4.17188,-0.79688 0.0156,-0.48437 0.0156,-0.625 0,-1.42187 -0.65625,-2.01562 -0.90625,-0.79688 -2.67187,-0.79688 -1.65625,0 -2.45313,0.59375 -0.78125,0.57813 -1.15625,2.04688 l -2.29687,-0.3125 q 0.3125,-1.46875 1.03125,-2.375 0.71875,-0.90625 2.0625,-1.39063 1.35937,-0.5 3.14062,-0.5 1.78125,0 2.875,0.42188 1.10938,0.42187 1.625,1.04687 0.53125,0.625 0.73438,1.59375 0.125,0.59375 0.125,2.15625 v 3.125 q 0,3.26563 0.14062,4.14063 0.15625,0.85937 0.59375,1.65625 h -2.4375 q -0.375,-0.73438 -0.46875,-1.70313 z m -0.20312,-5.23437 q -1.26563,0.51562 -3.82813,0.89062 -1.4375,0.20313 -2.04687,0.46875 -0.59375,0.25 -0.92188,0.75 -0.3125,0.5 -0.3125,1.125 0,0.9375 0.70313,1.5625 0.70312,0.625 2.07812,0.625 1.34375,0 2.39063,-0.59375 1.0625,-0.59375 1.5625,-1.625 0.375,-0.79687 0.375,-2.34375 z m 5.9812,6.9375 V 13.9714 h 2.10937 v 2.09375 q 0.79688,-1.46875 1.48438,-1.9375 0.6875,-0.46875 1.5,-0.46875 1.1875,0 2.40625,0.76563 l -0.79688,2.17187 q -0.85937,-0.51562 -1.71875,-0.51562 -0.76562,0 -1.39062,0.46875 -0.60938,0.45312 -0.85938,1.28125 -0.39062,1.25 -0.39062,2.73437 v 7.23438 z m 14.01736,-2.09375 0.32813,2.0625 q -0.98438,0.21875 -1.76563,0.21875 -1.26562,0 -1.96875,-0.40625 -0.70312,-0.40625 -1,-1.0625 -0.28125,-0.65625 -0.28125,-2.76563 v -7.95312 h -1.71875 V 13.9714 h 1.71875 v -3.42187 l 2.32813,-1.40625 v 4.82812 h 2.35937 v 1.82813 h -2.35937 v 8.07812 q 0,1 0.125,1.29688 0.125,0.28125 0.40625,0.45312 0.28125,0.17188 0.79687,0.17188 0.39063,0 1.03125,-0.0937 z"
     fill-rule="nonzero"
     id="path3585" />
  <path
     fill="#cfe2f3"
     d="m 143.93159,564.28479 h 89.14583 v 0 c 11.67834,0 21.14551,7.92432 21.14551,17.69952 0,9.77515 -9.46717,17.69953 -21.14551,17.69953 h -89.14583 v 0 c -11.67835,0 -21.14551,-7.92438 -21.14551,-17.69953 0,-9.7752 9.46716,-17.69952 21.14551,-17.69952 z"
     fill-rule="evenodd"
     id="path3587" />
  <path
     stroke="#000000"
     stroke-width="1"
     stroke-linejoin="round"
     stroke-linecap="butt"
     d="m 143.93159,564.28479 h 89.14583 v 0 c 11.67834,0 21.14551,7.92432 21.14551,17.69952 0,9.77515 -9.46717,17.69953 -21.14551,17.69953 h -89.14583 v 0 c -11.67835,0 -21.14551,-7.92438 -21.14551,-17.69953 0,-9.7752 9.46716,-17.69952 21.14551,-17.69952 z"
     fill-rule="evenodd"
     id="path3589" />
  <path
     fill="#000000"
     d="m 172.17711,591.58429 v -19.07813 h 12.87501 v 2.25 h -10.34376 v 5.90625 h 8.95314 v 2.25 h -8.95314 v 8.67188 z m 15.86082,-16.39063 v -2.6875 h 2.34375 v 2.6875 z m 0,16.39063 v -13.82813 h 2.34375 v 13.82813 z m 5.90656,0 v -13.82813 h 2.10937 v 1.96875 q 1.53125,-2.28125 4.40625,-2.28125 1.25,0 2.29688,0.45313 1.04687,0.45312 1.5625,1.1875 0.53125,0.71875 0.73437,1.71875 0.125,0.65625 0.125,2.28125 v 8.5 h -2.34375 v -8.40625 q 0,-1.4375 -0.28125,-2.14063 -0.26562,-0.71875 -0.96875,-1.14062 -0.6875,-0.42188 -1.625,-0.42188 -1.48437,0 -2.57812,0.95313 -1.09375,0.95312 -1.09375,3.60937 v 7.54688 z"
     fill-rule="nonzero"
     id="path3591" />
  <path
     fill="#000000"
     fill-opacity="0"
     d="m 188.44308,35.89906 v 27.1811"
     fill-rule="evenodd"
     id="path3593" />
  <path
     stroke="#000000"
     stroke-width="1"
     stroke-linejoin="round"
     stroke-linecap="butt"
     d="M 188.44308,35.89905 V 57.08016"
     fill-rule="evenodd"
     id="path3595" />
  <path
     fill="#000000"
     stroke="#000000"
     stroke-width="1"
     stroke-linecap="butt"
     d="m 186.79135,57.08016 1.65173,4.53809 1.65174,-4.53809 z"
     fill-rule="evenodd"
     id="path3597" />
  <path
     fill="#cfe2f3"
     d="m 81.64567,63.08005 h 213.58528 v 44.2441 H 81.64567 Z"
     fill-rule="evenodd"
     id="path3599" />
  <path
     fill="#000000"
     fill-opacity="0"
     d="m 108.34382,63.08005 v 44.2441 M 81.64567,68.61056 h 213.58528"
     fill-rule="evenodd"
     id="path3601" />
  <path
     fill="#000000"
     fill-opacity="0"
     d="m 81.64567,63.08005 h 213.58528 v 44.2441 H 81.64567 Z"
     fill-rule="evenodd"
     id="path3603" />
  <path
     stroke="#000000"
     stroke-width="1"
     stroke-linejoin="round"
     stroke-linecap="butt"
     d="m 108.34382,63.08005 v 44.2441 M 81.64567,68.61056 h 213.58528"
     fill-rule="evenodd"
     id="path3605" />
  <path
     stroke="#000000"
     stroke-width="1"
     stroke-linejoin="round"
     stroke-linecap="butt"
     d="m 81.64567,63.08005 h 213.58528 v 44.2441 H 81.64567 Z"
     fill-rule="evenodd"
     id="path3607" />
  <path
     fill="#000000"
     d="m 168.33526,96.47601 q -1.3125,1.10937 -2.51563,1.5625 -1.20312,0.45312 -2.57812,0.45312 -2.28125,0 -3.5,-1.10937 -1.21875,-1.10938 -1.21875,-2.84375 0,-1.01563 0.45312,-1.85938 0.46875,-0.84375 1.21875,-1.34375 0.75,-0.51562 1.6875,-0.76562 0.6875,-0.1875 2.07813,-0.35938 2.82812,-0.32812 4.17187,-0.79687 0.0156,-0.48438 0.0156,-0.625 0,-1.42188 -0.65625,-2.01563 -0.90625,-0.79687 -2.67188,-0.79687 -1.65625,0 -2.45312,0.59375 -0.78125,0.57812 -1.15625,2.04687 l -2.29688,-0.3125 q 0.3125,-1.46875 1.03125,-2.375 0.71875,-0.90625 2.0625,-1.39062 1.35938,-0.5 3.14063,-0.5 1.78125,0 2.875,0.42187 1.10937,0.42188 1.625,1.04688 0.53125,0.625 0.73437,1.59375 0.125,0.59375 0.125,2.15625 v 3.125 q 0,3.26562 0.14063,4.14062 0.15625,0.85938 0.59375,1.65625 h -2.4375 q -0.375,-0.73437 -0.46875,-1.70312 z m -0.20313,-5.23438 q -1.26562,0.51563 -3.82812,0.89063 -1.4375,0.20312 -2.04688,0.46875 -0.59375,0.25 -0.92187,0.75 -0.3125,0.5 -0.3125,1.125 0,0.9375 0.70312,1.5625 0.70313,0.625 2.07813,0.625 1.34375,0 2.39062,-0.59375 1.0625,-0.59375 1.5625,-1.625 0.375,-0.79688 0.375,-2.34375 z m 25.7309,-4.28125 h -12.59375 v -2.1875 h 12.59375 z m 0,5.79688 h -12.59375 v -2.1875 h 12.59375 z m 10.00403,-3.98438 q 0,-3.39062 0.6875,-5.45312 0.70312,-2.0625 2.07812,-3.17188 1.375,-1.125 3.45313,-1.125 1.53125,0 2.6875,0.625 1.17187,0.60938 1.92187,1.78125 0.75,1.15625 1.17188,2.82813 0.4375,1.67187 0.4375,4.51562 0,3.35938 -0.6875,5.42188 -0.6875,2.0625 -2.0625,3.1875 -1.375,1.125 -3.46875,1.125 -2.76563,0 -4.32813,-1.98438 -1.89062,-2.375 -1.89062,-7.75 z m 2.40625,0 q 0,4.6875 1.09375,6.25 1.10937,1.5625 2.71875,1.5625 1.60937,0 2.70312,-1.5625 1.10938,-1.5625 1.10938,-6.25 0,-4.71875 -1.10938,-6.26562 -1.09375,-1.54688 -2.73437,-1.54688 -1.60938,0 -2.57813,1.35938 -1.20312,1.75 -1.20312,6.45312 z"
     fill-rule="nonzero"
     id="path3615" />
  <path
     fill="#cfe2f3"
     d="M 81.65092,132.28476 H 295.2362 v 35.40158 H 81.65092 Z"
     fill-rule="evenodd"
     id="path3617" />
  <path
     fill="#000000"
     fill-opacity="0"
     d="m 108.34907,132.28476 v 35.40158 M 81.65092,136.70996 H 295.2362"
     fill-rule="evenodd"
     id="path3619" />
  <path
     fill="#000000"
     fill-opacity="0"
     d="M 81.65092,132.28476 H 295.2362 v 35.40158 H 81.65092 Z"
     fill-rule="evenodd"
     id="path3621" />
  <path
     stroke="#000000"
     stroke-width="1"
     stroke-linejoin="round"
     stroke-linecap="butt"
     d="m 108.34907,132.28476 v 35.40158 M 81.65092,136.70996 H 295.2362"
     fill-rule="evenodd"
     id="path3623" />
  <path
     stroke="#000000"
     stroke-width="1"
     stroke-linejoin="round"
     stroke-linecap="butt"
     d="M 81.65092,132.28476 H 295.2362 v 35.40158 H 81.65092 Z"
     fill-rule="evenodd"
     id="path3625" />
  <path
     fill="#000000"
     d="m 161.06013,161.55118 h -2.17188 v -19.07812 h 2.34375 v 6.79687 q 1.48438,-1.85937 3.78125,-1.85937 1.28125,0 2.40625,0.51562 1.14063,0.51563 1.875,1.45313 0.75,0.92187 1.15625,2.25 0.42188,1.3125 0.42188,2.79687 0,3.5625 -1.76563,5.5 -1.75,1.9375 -4.21875,1.9375 -2.4375,0 -3.82812,-2.04687 z m -0.0312,-7.01562 q 0,2.48437 0.67187,3.59375 1.10938,1.8125 3,1.8125 1.53125,0 2.65625,-1.32813 1.125,-1.34375 1.125,-3.98437 0,-2.70313 -1.07812,-3.98438 -1.07813,-1.29687 -2.59375,-1.29687 -1.54688,0 -2.67188,1.32812 -1.10937,1.32813 -1.10937,3.85938 z m 32.4184,-4.20313 h -12.59375 v -2.1875 h 12.59375 z m 0,5.79688 h -12.59375 v -2.1875 h 12.59375 z m 18.83218,5.42187 h -2.34375 v -14.92187 q -0.85937,0.79687 -2.23437,1.60937 -1.35938,0.79688 -2.45313,1.20313 v -2.26563 q 1.96875,-0.92187 3.4375,-2.23437 1.46875,-1.3125 2.07813,-2.54688 h 1.51562 z m 5.9968,-9.40625 q 0,-3.39062 0.6875,-5.45312 0.70312,-2.0625 2.07812,-3.17188 1.375,-1.125 3.45313,-1.125 1.53125,0 2.6875,0.625 1.17187,0.60938 1.92187,1.78125 0.75,1.15625 1.17188,2.82813 0.4375,1.67187 0.4375,4.51562 0,3.35938 -0.6875,5.42188 -0.6875,2.0625 -2.0625,3.1875 -1.375,1.125 -3.46875,1.125 -2.76563,0 -4.32813,-1.98438 -1.89062,-2.375 -1.89062,-7.75 z m 2.40625,0 q 0,4.6875 1.09375,6.25 1.10937,1.5625 2.71875,1.5625 1.60937,0 2.70312,-1.5625 1.10938,-1.5625 1.10938,-6.25 0,-4.71875 -1.10938,-6.26562 -1.09375,-1.54688 -2.73437,-1.54688 -1.60938,0 -2.57813,1.35938 -1.20312,1.75 -1.20312,6.45312 z"
     fill-rule="nonzero"
     id="path3633" />
  <path
     fill="#cfe2f3"
     d="m 99.04724,231.92648 89.39633,-37.56299 89.39633,37.56299 -89.39633,37.56299 z"
     fill-rule="evenodd"
     id="path3635" />
  <path
     stroke="#000000"
     stroke-width="1"
     stroke-linejoin="round"
     stroke-linecap="butt"
     d="m 99.04724,231.92648 89.39633,-37.56299 89.39633,37.56299 -89.39633,37.56299 z"
     fill-rule="evenodd"
     id="path3637" />
  <path
     fill="#000000"
     d="m 163.52666,239.82335 q -1.3125,1.10937 -2.51562,1.5625 -1.20313,0.45312 -2.57813,0.45312 -2.28125,0 -3.5,-1.10937 -1.21875,-1.10938 -1.21875,-2.84375 0,-1.01563 0.45313,-1.85938 0.46875,-0.84375 1.21875,-1.34375 0.75,-0.51562 1.6875,-0.76562 0.6875,-0.1875 2.07812,-0.35938 2.82813,-0.32812 4.17188,-0.79687 0.0156,-0.48438 0.0156,-0.625 0,-1.42188 -0.65625,-2.01563 -0.90625,-0.79687 -2.67187,-0.79687 -1.65625,0 -2.45313,0.59375 -0.78125,0.57812 -1.15625,2.04687 l -2.29687,-0.3125 q 0.3125,-1.46875 1.03125,-2.375 0.71875,-0.90625 2.0625,-1.39062 1.35937,-0.5 3.14062,-0.5 1.78125,0 2.875,0.42187 1.10938,0.42188 1.625,1.04688 0.53125,0.625 0.73438,1.59375 0.125,0.59375 0.125,2.15625 v 3.125 q 0,3.26562 0.14062,4.14062 0.15625,0.85938 0.59375,1.65625 h -2.4375 q -0.375,-0.73437 -0.46875,-1.70312 z m -0.20312,-5.23438 q -1.26563,0.51563 -3.82813,0.89063 -1.4375,0.20312 -2.04687,0.46875 -0.59375,0.25 -0.92188,0.75 -0.3125,0.5 -0.3125,1.125 0,0.9375 0.70313,1.5625 0.70312,0.625 2.07812,0.625 1.34375,0 2.39063,-0.59375 1.0625,-0.59375 1.5625,-1.625 0.375,-0.79688 0.375,-2.34375 z m 13.10589,-1.40625 v -2.1875 l 12.64061,-5.32812 v 2.32812 l -10.01561,4.10938 10.01561,4.15625 v 2.32812 z m 25.44154,8.34375 h -2.17187 v -19.07812 h 2.34375 v 6.79687 q 1.48437,-1.85937 3.78125,-1.85937 1.28125,0 2.40625,0.51562 1.14062,0.51563 1.875,1.45313 0.75,0.92187 1.15625,2.25 0.42187,1.3125 0.42187,2.79687 0,3.5625 -1.76562,5.5 -1.75,1.9375 -4.21875,1.9375 -2.4375,0 -3.82813,-2.04687 z m -0.0312,-7.01562 q 0,2.48437 0.67188,3.59375 1.10937,1.8125 3,1.8125 1.53125,0 2.65625,-1.32813 1.125,-1.34375 1.125,-3.98437 0,-2.70313 -1.07813,-3.98438 -1.07812,-1.29687 -2.59375,-1.29687 -1.54687,0 -2.67187,1.32812 -1.10938,1.32813 -1.10938,3.85938 z"
     fill-rule="nonzero"
     id="path3639" />
  <path
     fill="#cfe2f3"
     d="m 365.01312,394.99865 57.40683,-56.22308 h 229.62732 l -57.40686,56.22308 z"
     fill-rule="evenodd"
     id="path3641" />
  <path
     stroke="#000000"
     stroke-width="1"
     stroke-linejoin="round"
     stroke-linecap="butt"
     d="m 365.01312,394.99865 57.40683,-56.22308 h 229.62732 l -57.40686,56.22308 z"
     fill-rule="evenodd"
     id="path3643" />
  <path
     fill="#000000"
     d="m 431.3887,376.48712 7.3125,-19.07813 h 2.73437 l 7.79688,19.07813 h -2.875 l -2.21875,-5.78125 h -7.98438 l -2.09375,5.78125 z m 5.5,-7.82813 h 6.46875 l -2,-5.29687 q -0.90625,-2.40625 -1.34375,-3.95313 -0.375,1.84375 -1.03125,3.64063 z m 14.62323,7.82813 v -12 h -2.0625 v -1.82813 h 2.0625 v -1.46875 q 0,-1.39062 0.25,-2.0625 0.34375,-0.92187 1.1875,-1.48437 0.85937,-0.5625 2.39062,-0.5625 0.98438,0 2.1875,0.23437 l -0.34375,2.04688 q -0.73437,-0.14063 -1.39062,-0.14063 -1.0625,0 -1.51563,0.46875 -0.4375,0.45313 -0.4375,1.70313 v 1.26562 h 2.70313 v 1.82813 h -2.70313 v 12 z m 6.92419,0 v -12 h -2.0625 v -1.82813 h 2.0625 v -1.46875 q 0,-1.39062 0.25,-2.0625 0.34375,-0.92187 1.1875,-1.48437 0.85938,-0.5625 2.39063,-0.5625 0.98437,0 2.1875,0.23437 l -0.34375,2.04688 q -0.73438,-0.14063 -1.39063,-0.14063 -1.0625,0 -1.51562,0.46875 -0.4375,0.45313 -0.4375,1.70313 v 1.26562 h 2.70312 v 1.82813 h -2.70312 v 12 z m 6.85914,-16.39063 v -2.6875 h 2.34375 v 2.6875 z m 0,16.39063 v -13.82813 h 2.34375 v 13.82813 z m 14.93774,-5.0625 2.29687,0.29687 q -0.375,2.39063 -1.9375,3.73438 -1.54687,1.34375 -3.8125,1.34375 -2.84375,0 -4.5625,-1.84375 -1.71875,-1.85938 -1.71875,-5.32813 0,-2.23437 0.73438,-3.90625 0.75,-1.6875 2.26562,-2.53125 1.51563,-0.84375 3.29688,-0.84375 2.25,0 3.67187,1.14063 1.4375,1.14062 1.84375,3.23437 l -2.28125,0.35938 q -0.32812,-1.39063 -1.15625,-2.09375 -0.8125,-0.70313 -1.98437,-0.70313 -1.78125,0 -2.89063,1.26563 -1.09375,1.26562 -1.09375,4.01562 0,2.78125 1.0625,4.04688 1.0625,1.26562 2.78125,1.26562 1.39063,0 2.3125,-0.84375 0.92188,-0.85937 1.17188,-2.60937 z m 4.29687,5.0625 v -19.07813 h 2.34375 v 6.84375 q 1.64063,-1.90625 4.14063,-1.90625 1.54687,0 2.67187,0.60938 1.14063,0.60937 1.625,1.67187 0.48438,1.0625 0.48438,3.09375 v 8.76563 h -2.34375 v -8.76563 q 0,-1.75 -0.76563,-2.54687 -0.75,-0.8125 -2.15625,-0.8125 -1.03125,0 -1.95312,0.54687 -0.92188,0.54688 -1.3125,1.46875 -0.39063,0.92188 -0.39063,2.54688 v 7.5625 z m 23.85621,-1.70313 q -1.3125,1.10938 -2.51563,1.5625 -1.20312,0.45313 -2.57812,0.45313 -2.28125,0 -3.5,-1.10938 -1.21875,-1.10937 -1.21875,-2.84375 0,-1.01562 0.45312,-1.85937 0.46875,-0.84375 1.21875,-1.34375 0.75,-0.51563 1.6875,-0.76563 0.6875,-0.1875 2.07813,-0.35937 2.82812,-0.32813 4.17187,-0.79688 0.0156,-0.48437 0.0156,-0.625 0,-1.42187 -0.65625,-2.01562 -0.90625,-0.79688 -2.67188,-0.79688 -1.65625,0 -2.45312,0.59375 -0.78125,0.57813 -1.15625,2.04688 l -2.29688,-0.3125 q 0.3125,-1.46875 1.03125,-2.375 0.71875,-0.90625 2.0625,-1.39063 1.35938,-0.5 3.14063,-0.5 1.78125,0 2.875,0.42188 1.10937,0.42187 1.625,1.04687 0.53125,0.625 0.73437,1.59375 0.125,0.59375 0.125,2.15625 v 3.125 q 0,3.26563 0.14063,4.14063 0.15625,0.85937 0.59375,1.65625 h -2.4375 q -0.375,-0.73438 -0.46875,-1.70313 z m -0.20313,-5.23437 q -1.26562,0.51562 -3.82812,0.89062 -1.4375,0.20313 -2.04688,0.46875 -0.59375,0.25 -0.92187,0.75 -0.3125,0.5 -0.3125,1.125 0,0.9375 0.70312,1.5625 0.70313,0.625 2.07813,0.625 1.34375,0 2.39062,-0.59375 1.0625,-0.59375 1.5625,-1.625 0.375,-0.79687 0.375,-2.34375 z m 5.57495,8.07812 2.28125,0.34375 q 0.14063,1.04688 0.79688,1.53125 0.85937,0.65625 2.375,0.65625 1.625,0 2.5,-0.65625 0.89062,-0.64062 1.20312,-1.8125 0.1875,-0.71875 0.17188,-3.01562 -1.53125,1.8125 -3.82813,1.8125 -2.84375,0 -4.40625,-2.04688 -1.5625,-2.0625 -1.5625,-4.9375 0,-1.98437 0.71875,-3.65625 0.71875,-1.67187 2.07813,-2.57812 1.35937,-0.92188 3.1875,-0.92188 2.45312,0 4.03125,1.98438 v -1.67188 h 2.17187 v 11.95313 q 0,3.23437 -0.65625,4.57812 -0.65625,1.34375 -2.09375,2.125 -1.42187,0.78125 -3.5,0.78125 -2.46875,0 -4,-1.10937 -1.51562,-1.10938 -1.46875,-3.35938 z m 1.9375,-8.29687 q 0,2.71875 1.07813,3.96875 1.07812,1.25 2.70312,1.25 1.625,0 2.71875,-1.23438 1.09375,-1.25 1.09375,-3.90625 0,-2.54687 -1.125,-3.82812 -1.125,-1.29688 -2.71875,-1.29688 -1.5625,0 -2.65625,1.28125 -1.09375,1.26563 -1.09375,3.76563 z m 22.77808,2.70312 2.42187,0.29688 q -0.57812,2.125 -2.125,3.29687 -1.54687,1.17188 -3.95312,1.17188 -3.03125,0 -4.8125,-1.85938 -1.78125,-1.875 -1.78125,-5.25 0,-3.48437 1.79687,-5.40625 1.79688,-1.9375 4.67188,-1.9375 2.76562,0 4.51562,1.89063 1.76563,1.89062 1.76563,5.3125 0,0.20312 -0.0156,0.625 h -10.3125 q 0.14063,2.28125 1.29688,3.5 1.15625,1.20312 2.89062,1.20312 1.28125,0 2.1875,-0.67187 0.92188,-0.6875 1.45313,-2.17188 z m -7.6875,-3.78125 h 7.71875 q -0.15625,-1.75 -0.89063,-2.625 -1.125,-1.34375 -2.90625,-1.34375 -1.60937,0 -2.71875,1.07813 -1.09375,1.07812 -1.20312,2.89062 z m 21.10589,-2.92187 v -2.67188 h 2.67188 v 2.67188 z m 0,11.15625 v -2.67188 h 2.67188 v 2.67188 z m 23.18689,-1.70313 q -1.3125,1.10938 -2.51562,1.5625 -1.20313,0.45313 -2.57813,0.45313 -2.28125,0 -3.5,-1.10938 -1.21875,-1.10937 -1.21875,-2.84375 0,-1.01562 0.45313,-1.85937 0.46875,-0.84375 1.21875,-1.34375 0.75,-0.51563 1.6875,-0.76563 0.6875,-0.1875 2.07812,-0.35937 2.82813,-0.32813 4.17188,-0.79688 0.0156,-0.48437 0.0156,-0.625 0,-1.42187 -0.65625,-2.01562 -0.90625,-0.79688 -2.67187,-0.79688 -1.65625,0 -2.45313,0.59375 -0.78125,0.57813 -1.15625,2.04688 l -2.29687,-0.3125 q 0.3125,-1.46875 1.03125,-2.375 0.71875,-0.90625 2.0625,-1.39063 1.35937,-0.5 3.14062,-0.5 1.78125,0 2.875,0.42188 1.10938,0.42187 1.625,1.04687 0.53125,0.625 0.73438,1.59375 0.125,0.59375 0.125,2.15625 v 3.125 q 0,3.26563 0.14062,4.14063 0.15625,0.85937 0.59375,1.65625 h -2.4375 q -0.375,-0.73438 -0.46875,-1.70313 z m -0.20312,-5.23437 q -1.26563,0.51562 -3.82813,0.89062 -1.4375,0.20313 -2.04687,0.46875 -0.59375,0.25 -0.92188,0.75 -0.3125,0.5 -0.3125,1.125 0,0.9375 0.70313,1.5625 0.70312,0.625 2.07812,0.625 1.34375,0 2.39063,-0.59375 1.0625,-0.59375 1.5625,-1.625 0.375,-0.79687 0.375,-2.34375 z"
     fill-rule="nonzero"
     id="path3645" />
  <path
     fill="#cfe2f3"
     d="m 403.66928,214.22681 h 209.71918 v 35.39896 H 403.66928 Z"
     fill-rule="evenodd"
     id="path3647" />
  <path
     stroke="#000000"
     stroke-width="1"
     stroke-linejoin="round"
     stroke-linecap="butt"
     d="m 403.66928,214.22681 h 209.71918 v 35.39896 H 403.66928 Z"
     fill-rule="evenodd"
     id="path3649" />
  <path
     fill="#000000"
     d="m 474.09996,239.82315 q -1.3125,1.10937 -2.51563,1.5625 -1.20312,0.45312 -2.57812,0.45312 -2.28125,0 -3.5,-1.10937 -1.21875,-1.10938 -1.21875,-2.84375 0,-1.01563 0.45312,-1.85938 0.46875,-0.84375 1.21875,-1.34375 0.75,-0.51562 1.6875,-0.76562 0.6875,-0.1875 2.07813,-0.35938 2.82812,-0.32812 4.17187,-0.79687 0.0156,-0.48438 0.0156,-0.625 0,-1.42188 -0.65625,-2.01563 -0.90625,-0.79687 -2.67188,-0.79687 -1.65625,0 -2.45312,0.59375 -0.78125,0.57812 -1.15625,2.04687 l -2.29688,-0.3125 q 0.3125,-1.46875 1.03125,-2.375 0.71875,-0.90625 2.0625,-1.39062 1.35938,-0.5 3.14063,-0.5 1.78125,0 2.875,0.42187 1.10937,0.42188 1.625,1.04688 0.53125,0.625 0.73437,1.59375 0.125,0.59375 0.125,2.15625 v 3.125 q 0,3.26562 0.14063,4.14062 0.15625,0.85938 0.59375,1.65625 h -2.4375 q -0.375,-0.73437 -0.46875,-1.70312 z m -0.20313,-5.23438 q -1.26562,0.51563 -3.82812,0.89063 -1.4375,0.20312 -2.04688,0.46875 -0.59375,0.25 -0.92187,0.75 -0.3125,0.5 -0.3125,1.125 0,0.9375 0.70312,1.5625 0.70313,0.625 2.07813,0.625 1.34375,0 2.39062,-0.59375 1.0625,-0.59375 1.5625,-1.625 0.375,-0.79688 0.375,-2.34375 z m 25.7309,-4.28125 h -12.59375 v -2.1875 h 12.59375 z m 0,5.79688 h -12.59375 v -2.1875 h 12.59375 z m 19.6759,3.71875 q -1.3125,1.10937 -2.51562,1.5625 -1.20313,0.45312 -2.57813,0.45312 -2.28125,0 -3.5,-1.10937 -1.21875,-1.10938 -1.21875,-2.84375 0,-1.01563 0.45313,-1.85938 0.46875,-0.84375 1.21875,-1.34375 0.75,-0.51562 1.6875,-0.76562 0.6875,-0.1875 2.07812,-0.35938 2.82813,-0.32812 4.17188,-0.79687 0.0156,-0.48438 0.0156,-0.625 0,-1.42188 -0.65625,-2.01563 -0.90625,-0.79687 -2.67187,-0.79687 -1.65625,0 -2.45313,0.59375 -0.78125,0.57812 -1.15625,2.04687 l -2.29687,-0.3125 q 0.3125,-1.46875 1.03125,-2.375 0.71875,-0.90625 2.0625,-1.39062 1.35937,-0.5 3.14062,-0.5 1.78125,0 2.875,0.42187 1.10938,0.42188 1.625,1.04688 0.53125,0.625 0.73438,1.59375 0.125,0.59375 0.125,2.15625 v 3.125 q 0,3.26562 0.14062,4.14062 0.15625,0.85938 0.59375,1.65625 h -2.4375 q -0.375,-0.73437 -0.46875,-1.70312 z m -0.20312,-5.23438 q -1.26563,0.51563 -3.82813,0.89063 -1.4375,0.20312 -2.04687,0.46875 -0.59375,0.25 -0.92188,0.75 -0.3125,0.5 -0.3125,1.125 0,0.9375 0.70313,1.5625 0.70312,0.625 2.07812,0.625 1.34375,0 2.39063,-0.59375 1.0625,-0.59375 1.5625,-1.625 0.375,-0.79688 0.375,-2.34375 z m 10.9187,3.85938 v -5.23438 h -5.1875 v -2.1875 h 5.1875 v -5.20312 h 2.21875 v 5.20312 h 5.1875 v 2.1875 h -5.1875 v 5.23438 z m 18.83246,3.07812 h -2.34375 V 226.6044 q -0.85938,0.79687 -2.23438,1.60937 -1.35937,0.79688 -2.45312,1.20313 v -2.26563 q 1.96875,-0.92187 3.4375,-2.23437 1.46875,-1.3125 2.07812,-2.54688 h 1.51563 z"
     fill-rule="nonzero"
     id="path3651" />
  <path
     fill="#000000"
     fill-opacity="0"
     d="m 188.43832,107.32415 v 27.18111"
     fill-rule="evenodd"
     id="path3653" />
  <path
     stroke="#000000"
     stroke-width="1"
     stroke-linejoin="round"
     stroke-linecap="butt"
     d="m 188.43832,107.32415 v 21.18111"
     fill-rule="evenodd"
     id="path3655" />
  <path
     fill="#000000"
     fill-opacity="0"
     d="m 188.44357,161.68636 v 26.67715"
     fill-rule="evenodd"
     id="path3659" />
  <path
     fill="#000000"
     fill-opacity="0"
     d="m 188.44357,167.68634 v 26.67715"
     fill-rule="evenodd"
     id="path3665" />
  <path
     stroke="#000000"
     stroke-width="1"
     stroke-linejoin="round"
     stroke-linecap="butt"
     d="m 188.44357,167.68634 v 20.67717"
     fill-rule="evenodd"
     id="path3667" />
  <path
     fill="#000000"
     stroke="#000000"
     stroke-width="1"
     stroke-linecap="butt"
     d="m 186.79182,188.36351 1.65173,4.5381 1.65174,-4.5381 z"
     fill-rule="evenodd"
     id="path3669" />
  <path
     fill="#000000"
     fill-opacity="0"
     d="m 188.44356,267.28082 h 81.19684 v 42.01575 h -81.19684 z"
     fill-rule="evenodd"
     id="path3677" />
  <path
     fill="#000000"
     d="M 202.28732,294.20085 V 282.4196 h -4.40625 v -1.57813 h 10.57812 v 1.57813 h -4.40625 v 11.78125 z m 7.07828,0 v -9.67188 h 1.46875 v 1.46875 q 0.5625,-1.03125 1.03125,-1.35937 0.48437,-0.32813 1.0625,-0.32813 0.82812,0 1.6875,0.53125 l -0.5625,1.51563 q -0.60938,-0.35938 -1.20313,-0.35938 -0.54687,0 -0.96875,0.32813 -0.42187,0.32812 -0.60937,0.89062 -0.28125,0.875 -0.28125,1.92188 v 5.0625 z m 12.55642,0 v -1.42188 q -1.125,1.64063 -3.0625,1.64063 -0.85937,0 -1.60937,-0.32813 -0.73438,-0.32812 -1.09375,-0.82812 -0.35938,-0.5 -0.5,-1.21875 -0.10938,-0.46875 -0.10938,-1.53125 v -5.98438 h 1.64063 v 5.35938 q 0,1.28125 0.10937,1.73437 0.15625,0.64063 0.65625,1.01563 0.5,0.375 1.23438,0.375 0.73437,0 1.375,-0.375 0.65625,-0.39063 0.92187,-1.03125 0.26563,-0.65625 0.26563,-1.89063 v -5.1875 h 1.64062 v 9.67188 z m 10.67258,-3.10938 1.6875,0.20313 q -0.40625,1.48437 -1.48437,2.3125 -1.07813,0.8125 -2.76563,0.8125 -2.125,0 -3.375,-1.29688 -1.23437,-1.3125 -1.23437,-3.67187 0,-2.45313 1.25,-3.79688 1.26562,-1.34375 3.26562,-1.34375 1.9375,0 3.15625,1.32813 1.23438,1.3125 1.23438,3.70312 0,0.15625 0,0.4375 h -7.21875 q 0.0937,1.59375 0.90625,2.45313 0.8125,0.84375 2.01562,0.84375 0.90625,0 1.54688,-0.46875 0.64062,-0.48438 1.01562,-1.51563 z m -5.39062,-2.65625 h 5.40625 q -0.10938,-1.21875 -0.625,-1.82812 -0.78125,-0.95313 -2.03125,-0.95313 -1.125,0 -1.90625,0.76563 -0.76563,0.75 -0.84375,2.01562 z"
     fill-rule="nonzero"
     id="path3679" />
  <path
     fill="#000000"
     fill-opacity="0"
     d="M 99.04724,231.92648 H 69.57475 v 350.04727 h 53.22052"
     fill-rule="evenodd"
     id="path3681" />
  <path
     stroke="#000000"
     stroke-width="1"
     stroke-linejoin="round"
     stroke-linecap="butt"
     d="M 99.04724,231.92648 H 69.57475 v 350.04727 h 53.22052"
     fill-rule="evenodd"
     id="path3683" />
  <path
     fill="#000000"
     fill-opacity="0"
     d="m 0,266.1824 h 74.04724 v 42.01575 H 0 Z"
     fill-rule="evenodd"
     id="path3685" />
  <path
     fill="#000000"
     d="m 10.53125,293.10239 v -13.35937 h 9.015625 v 1.57812 h -7.25 v 4.14063 H 18.5625 v 1.57812 h -6.265625 v 6.0625 z m 17.41161,-1.1875 q -0.921879,0.76563 -1.765629,1.09375 -0.828125,0.3125 -1.796875,0.3125 -1.59375,0 -2.453125,-0.78125 -0.859375,-0.78125 -0.859375,-1.98437 0,-0.71875 0.328125,-1.29688 0.328125,-0.59375 0.84375,-0.9375 0.53125,-0.35937 1.1875,-0.54687 0.46875,-0.125 1.453125,-0.25 1.984375,-0.23438 2.921874,-0.5625 0.0156,-0.34375 0.0156,-0.42188 0,-1 -0.468754,-1.42187 -0.625,-0.54688 -1.875,-0.54688 -1.15625,0 -1.703125,0.40625 -0.546875,0.40625 -0.8125,1.42188 l -1.609375,-0.21875 q 0.21875,-1.01563 0.71875,-1.64063 0.5,-0.64062 1.453125,-0.98437 0.953125,-0.34375 2.1875,-0.34375 1.25,0 2.015629,0.29687 0.78125,0.28125 1.14062,0.73438 0.375,0.4375 0.51563,1.10937 0.0781,0.42188 0.0781,1.51563 v 2.1875 q 0,2.28125 0.10938,2.89062 0.10937,0.59375 0.40625,1.15625 h -1.70313 q -0.26562,-0.51562 -0.32812,-1.1875 z m -0.14063,-3.67187 q -0.890624,0.375 -2.671874,0.625 -1.015625,0.14062 -1.4375,0.32812 -0.421875,0.1875 -0.65625,0.53125 -0.21875,0.34375 -0.21875,0.78125 0,0.65625 0.5,1.09375 0.5,0.4375 1.453125,0.4375 0.9375,0 1.671875,-0.40625 0.75,-0.42187 1.093754,-1.14062 0.26562,-0.5625 0.26562,-1.64063 z m 4.15697,4.85937 v -13.35937 h 1.64062 v 13.35937 z m 3.53544,-2.89062 1.625,-0.25 q 0.125,0.96875 0.75,1.5 0.625,0.51562 1.75,0.51562 1.125,0 1.67188,-0.45312 0.54687,-0.46875 0.54687,-1.09375 0,-0.54688 -0.48437,-0.875 -0.32813,-0.21875 -1.67188,-0.54688 -1.8125,-0.46875 -2.51562,-0.79687 -0.6875,-0.32813 -1.04688,-0.90625 -0.35937,-0.59375 -0.35937,-1.3125 0,-0.64063 0.29687,-1.1875 0.29688,-0.5625 0.8125,-0.92188 0.375,-0.28125 1.03125,-0.46875 0.67188,-0.20312 1.42188,-0.20312 1.14062,0 2,0.32812 0.85937,0.32813 1.26562,0.89063 0.42188,0.5625 0.57813,1.5 l -1.60938,0.21875 q -0.10937,-0.75 -0.64062,-1.17188 -0.51563,-0.42187 -1.46875,-0.42187 -1.14063,0 -1.625,0.375 -0.46875,0.375 -0.46875,0.875 0,0.3125 0.1875,0.57812 0.20312,0.26563 0.64062,0.4375 0.23438,0.0937 1.4375,0.42188 1.75,0.45312 2.4375,0.75 0.6875,0.29687 1.07813,0.85937 0.39062,0.5625 0.39062,1.40625 0,0.82813 -0.48437,1.54688 -0.46875,0.71875 -1.375,1.125 -0.90625,0.39062 -2.04688,0.39062 -1.875,0 -2.875,-0.78125 -0.98437,-0.78125 -1.25,-2.32812 z m 16.60938,-0.21875 1.6875,0.20312 q -0.40625,1.48438 -1.48438,2.3125 -1.07812,0.8125 -2.76562,0.8125 -2.125,0 -3.375,-1.29687 -1.23438,-1.3125 -1.23438,-3.67188 0,-2.45312 1.25,-3.79687 1.26563,-1.34375 3.26563,-1.34375 1.9375,0 3.15625,1.32812 1.23437,1.3125 1.23437,3.70313 0,0.15625 0,0.4375 h -7.21875 q 0.0937,1.59375 0.90625,2.45312 0.8125,0.84375 2.01563,0.84375 0.90625,0 1.54687,-0.46875 0.64063,-0.48437 1.01563,-1.51562 z m -5.39063,-2.65625 h 5.40625 q -0.10937,-1.21875 -0.625,-1.82813 -0.78125,-0.95312 -2.03125,-0.95312 -1.125,0 -1.90625,0.76562 -0.76562,0.75 -0.84375,2.01563 z"
     fill-rule="nonzero"
     id="path3687" />
  <path
     fill="#000000"
     fill-opacity="0"
     d="m 69.62073,582.17325 53.16536,-0.18896"
     fill-rule="evenodd"
     id="path3689" />
  <path
     stroke="#000000"
     stroke-width="1"
     stroke-linejoin="round"
     stroke-linecap="butt"
     d="m 69.62073,582.17325 47.1654,-0.16766"
     fill-rule="evenodd"
     id="path3691" />
  <path
     fill="#000000"
     stroke="#000000"
     stroke-width="1"
     stroke-linecap="butt"
     d="m 116.79199,583.65735 4.5322,-1.66785 -4.54393,-1.63556 z"
     fill-rule="evenodd"
     id="path3693" />
  <path
     fill="#cfe2f3"
     d="m 93.01312,366.88711 95.42914,-46.61679 95.42914,46.61679 -95.42914,46.61679 z"
     fill-rule="evenodd"
     id="path3695" />
  <path
     stroke="#000000"
     stroke-width="1"
     stroke-linejoin="round"
     stroke-linecap="butt"
     d="m 93.01312,366.88711 95.42914,-46.61679 95.42914,46.61679 -95.42914,46.61679 z"
     fill-rule="evenodd"
     id="path3697" />
  <path
     fill="#000000"
     d="m 160.50894,374.784 q -1.3125,1.10937 -2.51563,1.5625 -1.20312,0.45312 -2.57812,0.45312 -2.28125,0 -3.5,-1.10937 -1.21875,-1.10938 -1.21875,-2.84375 0,-1.01563 0.45312,-1.85938 0.46875,-0.84375 1.21875,-1.34375 0.75,-0.51562 1.6875,-0.76562 0.6875,-0.1875 2.07813,-0.35938 2.82812,-0.32812 4.17187,-0.79687 0.0156,-0.48438 0.0156,-0.625 0,-1.42188 -0.65625,-2.01563 -0.90625,-0.79687 -2.67188,-0.79687 -1.65625,0 -2.45312,0.59375 -0.78125,0.57812 -1.15625,2.04687 l -2.29688,-0.3125 q 0.3125,-1.46875 1.03125,-2.375 0.71875,-0.90625 2.0625,-1.39062 1.35938,-0.5 3.14063,-0.5 1.78125,0 2.875,0.42187 1.10937,0.42188 1.625,1.04688 0.53125,0.625 0.73437,1.59375 0.125,0.59375 0.125,2.15625 v 3.125 q 0,3.26562 0.14063,4.14062 0.15625,0.85938 0.59375,1.65625 h -2.4375 q -0.375,-0.73437 -0.46875,-1.70312 z m -0.20313,-5.23438 q -1.26562,0.51563 -3.82812,0.89063 -1.4375,0.20312 -2.04688,0.46875 -0.59375,0.25 -0.92187,0.75 -0.3125,0.5 -0.3125,1.125 0,0.9375 0.70312,1.5625 0.70313,0.625 2.07813,0.625 1.34375,0 2.39062,-0.59375 1.0625,-0.59375 1.5625,-1.625 0.375,-0.79688 0.375,-2.34375 z m 25.7309,-4.28125 h -12.59375 v -2.1875 h 12.59375 z m 0,5.79688 h -12.59375 v -2.1875 h 12.59375 z m 15.56683,-5.79688 h -12.59375 v -2.1875 h 12.59375 z m 0,5.79688 h -12.59375 v -2.1875 h 12.59375 z M 211.76382,359.909 v -2.25 h 12.34375 v 1.8125 q -1.8125,1.9375 -3.60937,5.15625 -1.78125,3.21875 -2.76563,6.60937 -0.70312,2.40625 -0.89062,5.25 h -2.40625 q 0.0312,-2.25 0.875,-5.4375 0.84375,-3.1875 2.42187,-6.14062 1.59375,-2.96875 3.375,-5 z"
     fill-rule="nonzero"
     id="path3699" />
  <path
     fill="#000000"
     fill-opacity="0"
     d="m 188.44356,269.48947 v 50.77167"
     fill-rule="evenodd"
     id="path3701" />
  <path
     stroke="#000000"
     stroke-width="1"
     stroke-linejoin="round"
     stroke-linecap="butt"
     d="m 188.44356,269.48947 v 44.77167"
     fill-rule="evenodd"
     id="path3703" />
  <path
     fill="#000000"
     stroke="#000000"
     stroke-width="1"
     stroke-linecap="butt"
     d="m 186.79184,314.26115 1.65173,4.53809 1.65174,-4.53809 z"
     fill-rule="evenodd"
     id="path3705" />
  <path
     fill="#cfe2f3"
     d="m 93.07611,509.81105 h 190.85828 v 27.18109 H 93.07611 Z"
     fill-rule="evenodd"
     id="path3707" />
  <path
     stroke="#000000"
     stroke-width="1"
     stroke-linejoin="round"
     stroke-linecap="butt"
     d="m 93.07611,509.81105 h 190.85828 v 27.18109 H 93.07611 Z"
     fill-rule="evenodd"
     id="path3709" />
  <path
     fill="#000000"
     d="m 148.89603,527.93909 2.29687,0.29688 q -0.375,2.39062 -1.9375,3.73437 -1.54687,1.34375 -3.8125,1.34375 -2.84375,0 -4.5625,-1.84375 -1.71875,-1.85937 -1.71875,-5.32812 0,-2.23438 0.73438,-3.90625 0.75,-1.6875 2.26562,-2.53125 1.51563,-0.84375 3.29688,-0.84375 2.25,0 3.67187,1.14062 1.4375,1.14063 1.84375,3.23438 l -2.28125,0.35937 q -0.32812,-1.39062 -1.15625,-2.09375 -0.8125,-0.70312 -1.98437,-0.70312 -1.78125,0 -2.89063,1.26562 -1.09375,1.26563 -1.09375,4.01563 0,2.78125 1.0625,4.04687 1.0625,1.26563 2.78125,1.26563 1.39063,0 2.3125,-0.84375 0.92188,-0.85938 1.17188,-2.60938 z m 3.4375,-1.84375 q 0,-3.84375 2.125,-5.6875 1.78125,-1.54687 4.34375,-1.54687 2.85937,0 4.65625,1.875 1.8125,1.85937 1.8125,5.15625 0,2.67187 -0.79688,4.20312 -0.79687,1.53125 -2.32812,2.375 -1.53125,0.84375 -3.34375,0.84375 -2.89063,0 -4.6875,-1.85937 -1.78125,-1.85938 -1.78125,-5.35938 z m 2.40625,0 q 0,2.65625 1.15625,3.98438 1.15625,1.3125 2.90625,1.3125 1.75,0 2.90625,-1.32813 1.15625,-1.32812 1.15625,-4.04687 0,-2.5625 -1.17188,-3.89063 -1.15625,-1.32812 -2.89062,-1.32812 -1.75,0 -2.90625,1.32812 -1.15625,1.3125 -1.15625,3.96875 z m 13.27806,6.90625 v -13.82812 h 2.10938 v 1.96875 q 1.53125,-2.28125 4.40625,-2.28125 1.25,0 2.29687,0.45312 1.04688,0.45313 1.5625,1.1875 0.53125,0.71875 0.73438,1.71875 0.125,0.65625 0.125,2.28125 v 8.5 h -2.34375 v -8.40625 q 0,-1.4375 -0.28125,-2.14062 -0.26563,-0.71875 -0.96875,-1.14063 -0.6875,-0.42187 -1.625,-0.42187 -1.48438,0 -2.57813,0.95312 -1.09375,0.95313 -1.09375,3.60938 v 7.54687 z m 19.94994,-2.09375 0.32812,2.0625 q -0.98437,0.21875 -1.76562,0.21875 -1.26563,0 -1.96875,-0.40625 -0.70313,-0.40625 -1,-1.0625 -0.28125,-0.65625 -0.28125,-2.76562 v -7.95313 h -1.71875 v -1.82812 h 1.71875 v -3.42188 l 2.32812,-1.40625 v 4.82813 h 2.35938 v 1.82812 h -2.35938 v 8.07813 q 0,1 0.125,1.29687 0.125,0.28125 0.40625,0.45313 0.28125,0.17187 0.79688,0.17187 0.39062,0 1.03125,-0.0937 z m 2.2966,-14.29687 v -2.6875 h 2.34375 v 2.6875 z m 0,16.39062 v -13.82812 h 2.34375 v 13.82812 z m 5.90652,0 v -13.82812 h 2.10938 v 1.96875 q 1.53125,-2.28125 4.40625,-2.28125 1.25,0 2.29687,0.45312 1.04688,0.45313 1.5625,1.1875 0.53125,0.71875 0.73438,1.71875 0.125,0.65625 0.125,2.28125 v 8.5 h -2.34375 v -8.40625 q 0,-1.4375 -0.28125,-2.14062 -0.26563,-0.71875 -0.96875,-1.14063 -0.6875,-0.42187 -1.625,-0.42187 -1.48438,0 -2.57813,0.95312 -1.09375,0.95313 -1.09375,3.60938 v 7.54687 z m 23.88745,0 v -2.03125 q -1.60937,2.34375 -4.375,2.34375 -1.23437,0 -2.29687,-0.46875 -1.0625,-0.46875 -1.57813,-1.17187 -0.5,-0.71875 -0.71875,-1.75 -0.14062,-0.6875 -0.14062,-2.1875 v -8.5625 h 2.34375 v 7.67187 q 0,1.82813 0.14062,2.46875 0.21875,0.92188 0.9375,1.45313 0.71875,0.53125 1.76563,0.53125 1.0625,0 1.98437,-0.53125 0.92188,-0.54688 1.29688,-1.46875 0.39062,-0.9375 0.39062,-2.71875 v -7.40625 h 2.34375 v 13.82812 z m 15.23117,-4.45312 2.42188,0.29687 q -0.57813,2.125 -2.125,3.29688 -1.54688,1.17187 -3.95313,1.17187 -3.03125,0 -4.8125,-1.85937 -1.78125,-1.875 -1.78125,-5.25 0,-3.48438 1.79688,-5.40625 1.79687,-1.9375 4.67187,-1.9375 2.76563,0 4.51563,1.89062 1.76562,1.89063 1.76562,5.3125 0,0.20313 -0.0156,0.625 h -10.3125 q 0.14062,2.28125 1.29687,3.5 1.15625,1.20313 2.89063,1.20313 1.28125,0 2.1875,-0.67188 0.92187,-0.6875 1.45312,-2.17187 z m -7.6875,-3.78125 h 7.71875 q -0.15625,-1.75 -0.89062,-2.625 -1.125,-1.34375 -2.90625,-1.34375 -1.60938,0 -2.71875,1.07812 -1.09375,1.07813 -1.20313,2.89063 z"
     fill-rule="nonzero"
     id="path3711" />
  <path
     fill="#000000"
     fill-opacity="0"
     d="m 188.44226,413.50391 0.063,96.315"
     fill-rule="evenodd"
     id="path3713" />
  <path
     stroke="#000000"
     stroke-width="1"
     stroke-linejoin="round"
     stroke-linecap="butt"
     d="m 188.44226,413.50391 0.0591,90.315"
     fill-rule="evenodd"
     id="path3715" />
  <path
     fill="#000000"
     stroke="#000000"
     stroke-width="1"
     stroke-linecap="butt"
     d="m 186.84958,503.81995 1.65472,4.53705 1.64875,-4.53919 z"
     fill-rule="evenodd"
     id="path3717" />
  <path
     fill="#000000"
     fill-opacity="0"
     d="m 192.5433,407.97505 h 81.19684 V 449.9908 H 192.5433 Z"
     fill-rule="evenodd"
     id="path3719" />
  <path
     fill="#000000"
     d="m 206.38706,434.89502 v -11.78125 h -4.40625 v -1.57813 h 10.57812 v 1.57813 h -4.40625 v 11.78125 z m 7.07828,0 v -9.67188 h 1.46875 v 1.46875 q 0.5625,-1.03125 1.03125,-1.35937 0.48437,-0.32813 1.0625,-0.32813 0.82812,0 1.6875,0.53125 l -0.5625,1.51563 q -0.60938,-0.35938 -1.20313,-0.35938 -0.54687,0 -0.96875,0.32813 -0.42187,0.32812 -0.60937,0.89062 -0.28125,0.875 -0.28125,1.92188 v 5.0625 z m 12.55642,0 v -1.42188 q -1.125,1.64063 -3.0625,1.64063 -0.85937,0 -1.60937,-0.32813 -0.73438,-0.32812 -1.09375,-0.82812 -0.35938,-0.5 -0.5,-1.21875 -0.10938,-0.46875 -0.10938,-1.53125 v -5.98438 h 1.64063 v 5.35938 q 0,1.28125 0.10937,1.73437 0.15625,0.64063 0.65625,1.01563 0.5,0.375 1.23438,0.375 0.73437,0 1.375,-0.375 0.65625,-0.39063 0.92187,-1.03125 0.26563,-0.65625 0.26563,-1.89063 v -5.1875 h 1.64062 v 9.67188 z m 10.67261,-3.10938 1.6875,0.20313 q -0.40625,1.48437 -1.48437,2.3125 -1.07813,0.8125 -2.76563,0.8125 -2.125,0 -3.375,-1.29688 -1.23437,-1.3125 -1.23437,-3.67187 0,-2.45313 1.25,-3.79688 1.26562,-1.34375 3.26562,-1.34375 1.9375,0 3.15625,1.32813 1.23438,1.3125 1.23438,3.70312 0,0.15625 0,0.4375 H 231.21 q 0.0937,1.59375 0.90625,2.45313 0.8125,0.84375 2.01562,0.84375 0.90625,0 1.54688,-0.46875 0.64062,-0.48438 1.01562,-1.51563 z m -5.39062,-2.65625 H 236.71 q -0.10938,-1.21875 -0.625,-1.82812 -0.78125,-0.95313 -2.03125,-0.95313 -1.125,0 -1.90625,0.76563 -0.76563,0.75 -0.84375,2.01562 z"
     fill-rule="nonzero"
     id="path3721" />
  <path
     fill="#000000"
     fill-opacity="0"
     d="m 403.66928,231.92627 h -62.91464 v 0.063 h -62.91211"
     fill-rule="evenodd"
     id="path3723" />
  <path
     stroke="#000000"
     stroke-width="1"
     stroke-linejoin="round"
     stroke-linecap="butt"
     d="m 403.66928,231.9263 h -62.91464 v 0.063 h -56.91211"
     fill-rule="evenodd"
     id="path3725" />
  <path
     fill="#000000"
     stroke="#000000"
     stroke-width="1"
     stroke-linecap="butt"
     d="m 283.84253,230.33755 -4.53812,1.65173 4.53812,1.65174 z"
     fill-rule="evenodd"
     id="path3727" />
  <path
     fill="#000000"
     fill-opacity="0"
     d="M 283.8714,366.88711 H 393.72965"
     fill-rule="evenodd"
     id="path3729" />
  <path
     stroke="#000000"
     stroke-width="1"
     stroke-linejoin="round"
     stroke-linecap="butt"
     d="M 283.8714,366.88711 H 387.72965"
     fill-rule="evenodd"
     id="path3731" />
  <path
     fill="#000000"
     stroke="#000000"
     stroke-width="1"
     stroke-linecap="butt"
     d="m 387.72964,368.53885 4.53812,-1.65173 -4.53812,-1.65174 z"
     fill-rule="evenodd"
     id="path3733" />
  <path
     fill="#000000"
     fill-opacity="0"
     d="M 508.53016,338.77557 V 249.61023"
     fill-rule="evenodd"
     id="path3735" />
  <path
     stroke="#000000"
     stroke-width="1"
     stroke-linejoin="round"
     stroke-linecap="butt"
     d="M 508.53016,338.77557 V 255.61023"
     fill-rule="evenodd"
     id="path3737" />
  <path
     fill="#000000"
     stroke="#000000"
     stroke-width="1"
     stroke-linecap="butt"
     d="m 510.18191,255.61023 -1.65173,-4.53812 -1.65174,4.53812 z"
     fill-rule="evenodd"
     id="path3739" />
  <path
     fill="#000000"
     fill-opacity="0"
     d="m 319.6824,332.54199 h 74.04724 v 42.01575 H 319.6824 Z"
     fill-rule="evenodd"
     id="path3741" />
  <path
     fill="#000000"
     d="m 330.21366,359.46197 v -13.35938 h 9.01563 v 1.57813 h -7.25 v 4.14062 h 6.26562 v 1.57813 h -6.26562 v 6.0625 z m 17.41162,-1.1875 q -0.92187,0.76562 -1.76562,1.09375 -0.82813,0.3125 -1.79688,0.3125 -1.59375,0 -2.45312,-0.78125 -0.85938,-0.78125 -0.85938,-1.98438 0,-0.71875 0.32813,-1.29687 0.32812,-0.59375 0.84375,-0.9375 0.53125,-0.35938 1.1875,-0.54688 0.46875,-0.125 1.45312,-0.25 1.98438,-0.23437 2.92188,-0.5625 0.0156,-0.34375 0.0156,-0.42187 0,-1 -0.46875,-1.42188 -0.625,-0.54687 -1.875,-0.54687 -1.15625,0 -1.70312,0.40625 -0.54688,0.40625 -0.8125,1.42187 l -1.60938,-0.21875 q 0.21875,-1.01562 0.71875,-1.64062 0.5,-0.64063 1.45313,-0.98438 0.95312,-0.34375 2.1875,-0.34375 1.25,0 2.01562,0.29688 0.78125,0.28125 1.14063,0.73437 0.375,0.4375 0.51562,1.10938 0.0781,0.42187 0.0781,1.51562 v 2.1875 q 0,2.28125 0.10937,2.89063 0.10938,0.59375 0.40625,1.15625 h -1.70312 q -0.26563,-0.51563 -0.32813,-1.1875 z m -0.14062,-3.67188 q -0.89063,0.375 -2.67188,0.625 -1.01562,0.14063 -1.4375,0.32813 -0.42187,0.1875 -0.65625,0.53125 -0.21875,0.34375 -0.21875,0.78125 0,0.65625 0.5,1.09375 0.5,0.4375 1.45313,0.4375 0.9375,0 1.67187,-0.40625 0.75,-0.42188 1.09375,-1.14063 0.26563,-0.5625 0.26563,-1.64062 z m 4.15695,4.85938 v -13.35938 h 1.64062 v 13.35938 z m 3.53546,-2.89063 1.625,-0.25 q 0.125,0.96875 0.75,1.5 0.625,0.51563 1.75,0.51563 1.125,0 1.67187,-0.45313 0.54688,-0.46875 0.54688,-1.09375 0,-0.54687 -0.48438,-0.875 -0.32812,-0.21875 -1.67187,-0.54687 -1.8125,-0.46875 -2.51563,-0.79688 -0.6875,-0.32812 -1.04687,-0.90625 -0.35938,-0.59375 -0.35938,-1.3125 0,-0.64062 0.29688,-1.1875 0.29687,-0.5625 0.8125,-0.92187 0.375,-0.28125 1.03125,-0.46875 0.67187,-0.20313 1.42187,-0.20313 1.14063,0 2,0.32813 0.85938,0.32812 1.26563,0.89062 0.42187,0.5625 0.57812,1.5 l -1.60937,0.21875 q -0.10938,-0.75 -0.64063,-1.17187 -0.51562,-0.42188 -1.46875,-0.42188 -1.14062,0 -1.625,0.375 -0.46875,0.375 -0.46875,0.875 0,0.3125 0.1875,0.57813 0.20313,0.26562 0.64063,0.4375 0.23437,0.0937 1.4375,0.42187 1.75,0.45313 2.4375,0.75 0.6875,0.29688 1.07812,0.85938 0.39063,0.5625 0.39063,1.40625 0,0.82812 -0.48438,1.54687 -0.46875,0.71875 -1.375,1.125 -0.90625,0.39063 -2.04687,0.39063 -1.875,0 -2.875,-0.78125 -0.98438,-0.78125 -1.25,-2.32813 z m 16.60937,-0.21875 1.6875,0.20313 q -0.40625,1.48437 -1.48437,2.3125 -1.07813,0.8125 -2.76563,0.8125 -2.125,0 -3.375,-1.29688 -1.23437,-1.3125 -1.23437,-3.67187 0,-2.45313 1.25,-3.79688 1.26562,-1.34375 3.26562,-1.34375 1.9375,0 3.15625,1.32813 1.23438,1.3125 1.23438,3.70312 0,0.15625 0,0.4375 h -7.21875 q 0.0937,1.59375 0.90625,2.45313 0.8125,0.84375 2.01562,0.84375 0.90625,0 1.54688,-0.46875 0.64062,-0.48438 1.01562,-1.51563 z m -5.39062,-2.65625 h 5.40625 q -0.10938,-1.21875 -0.625,-1.82812 -0.78125,-0.95313 -2.03125,-0.95313 -1.125,0 -1.90625,0.76563 -0.76563,0.75 -0.84375,2.01562 z"
     fill-rule="nonzero"
     id="path3743" />
  <path
     fill="#000000"
     fill-opacity="0"
     d="m 277.8399,231.92648 h 31.09448 v 291.46457 h -24.98425"
     fill-rule="evenodd"
     id="path3745" />
  <path
     stroke="#000000"
     stroke-width="1"
     stroke-linejoin="round"
     stroke-linecap="butt"
     d="m 277.8399,231.92648 h 31.09448 v 291.46457 h -24.98425"
     fill-rule="evenodd"
     id="path3747" />
  <path
     fill="#000000"
     fill-opacity="0"
     d="M 308.30186,475.19285 V 231.63383"
     fill-rule="evenodd"
     id="path3749" />
  <path
     stroke="#000000"
     stroke-width="1"
     stroke-linejoin="round"
     stroke-linecap="butt"
     d="M 308.30186,475.19285 V 237.63383"
     fill-rule="evenodd"
     id="path3751" />
  <path
     fill="#000000"
     stroke="#000000"
     stroke-width="1"
     stroke-linecap="butt"
     d="m 309.95358,237.63385 -1.65173,-4.53812 -1.65174,4.53812 z"
     fill-rule="evenodd"
     id="path3753" />
  <path
     fill="#cfe2f3"
     d="m 83.58267,443.96039 h 209.71918 v 35.39899 H 83.58267 Z"
     fill-rule="evenodd"
     id="path3755" />
  <path
     stroke="#000000"
     stroke-width="1"
     stroke-linejoin="round"
     stroke-linecap="butt"
     d="m 83.58267,443.96039 h 209.71918 v 35.39899 H 83.58267 Z"
     fill-rule="evenodd"
     id="path3757" />
  <path
     fill="#000000"
     d="m 154.0133,469.55675 q -1.3125,1.10938 -2.51563,1.5625 -1.20312,0.45313 -2.57812,0.45313 -2.28125,0 -3.5,-1.10938 -1.21875,-1.10937 -1.21875,-2.84375 0,-1.01562 0.45312,-1.85937 0.46875,-0.84375 1.21875,-1.34375 0.75,-0.51563 1.6875,-0.76563 0.6875,-0.1875 2.07813,-0.35937 2.82812,-0.32813 4.17187,-0.79688 0.0156,-0.48437 0.0156,-0.625 0,-1.42187 -0.65625,-2.01562 -0.90625,-0.79688 -2.67188,-0.79688 -1.65625,0 -2.45312,0.59375 -0.78125,0.57813 -1.15625,2.04688 l -2.29688,-0.3125 q 0.3125,-1.46875 1.03125,-2.375 0.71875,-0.90625 2.0625,-1.39063 1.35938,-0.5 3.14063,-0.5 1.78125,0 2.875,0.42188 1.10937,0.42187 1.625,1.04687 0.53125,0.625 0.73437,1.59375 0.125,0.59375 0.125,2.15625 v 3.125 q 0,3.26563 0.14063,4.14063 0.15625,0.85937 0.59375,1.65625 h -2.4375 q -0.375,-0.73438 -0.46875,-1.70313 z m -0.20313,-5.23437 q -1.26562,0.51562 -3.82812,0.89062 -1.4375,0.20313 -2.04688,0.46875 -0.59375,0.25 -0.92187,0.75 -0.3125,0.5 -0.3125,1.125 0,0.9375 0.70312,1.5625 0.70313,0.625 2.07813,0.625 1.34375,0 2.39062,-0.59375 1.0625,-0.59375 1.5625,-1.625 0.375,-0.79687 0.375,-2.34375 z m 25.7309,-4.28125 h -12.59375 v -2.1875 h 12.59375 z m 0,5.79687 h -12.59375 v -2.1875 h 12.59375 z m 19.67593,3.71875 q -1.3125,1.10938 -2.51562,1.5625 -1.20313,0.45313 -2.57813,0.45313 -2.28125,0 -3.5,-1.10938 -1.21875,-1.10937 -1.21875,-2.84375 0,-1.01562 0.45313,-1.85937 0.46875,-0.84375 1.21875,-1.34375 0.75,-0.51563 1.6875,-0.76563 0.6875,-0.1875 2.07812,-0.35937 2.82813,-0.32813 4.17188,-0.79688 0.0156,-0.48437 0.0156,-0.625 0,-1.42187 -0.65625,-2.01562 -0.90625,-0.79688 -2.67187,-0.79688 -1.65625,0 -2.45313,0.59375 -0.78125,0.57813 -1.15625,2.04688 l -2.29687,-0.3125 q 0.3125,-1.46875 1.03125,-2.375 0.71875,-0.90625 2.0625,-1.39063 1.35937,-0.5 3.14062,-0.5 1.78125,0 2.875,0.42188 1.10938,0.42187 1.625,1.04687 0.53125,0.625 0.73438,1.59375 0.125,0.59375 0.125,2.15625 v 3.125 q 0,3.26563 0.14062,4.14063 0.15625,0.85937 0.59375,1.65625 h -2.4375 q -0.375,-0.73438 -0.46875,-1.70313 z m -0.20312,-5.23437 q -1.26563,0.51562 -3.82813,0.89062 -1.4375,0.20313 -2.04687,0.46875 -0.59375,0.25 -0.92188,0.75 -0.3125,0.5 -0.3125,1.125 0,0.9375 0.70313,1.5625 0.70312,0.625 2.07812,0.625 1.34375,0 2.39063,-0.59375 1.0625,-0.59375 1.5625,-1.625 0.375,-0.79687 0.375,-2.34375 z m 10.91867,3.85937 v -5.23437 h -5.1875 v -2.1875 h 5.1875 v -5.20313 h 2.21875 v 5.20313 h 5.1875 v 2.1875 h -5.1875 v 5.23437 z m 18.83246,3.07813 h -2.34375 V 456.338 q -0.85938,0.79688 -2.23438,1.60938 -1.35937,0.79687 -2.45312,1.20312 v -2.26562 q 1.96875,-0.92188 3.4375,-2.23438 1.46875,-1.3125 2.07812,-2.54687 h 1.51563 z"
     fill-rule="nonzero"
     id="path3759" />
  <path
     fill="#000000"
     fill-opacity="0"
     d="m 188.44226,413.50391 v 30.45673"
     fill-rule="evenodd"
     id="path3761" />
  <path
     stroke="#000000"
     stroke-width="1"
     stroke-linejoin="round"
     stroke-linecap="butt"
     d="m 188.44226,413.50391 v 24.45673"
     fill-rule="evenodd"
     id="path3763" />
  <path
     fill="#000000"
     stroke="#000000"
     stroke-width="1"
     stroke-linecap="butt"
     d="m 186.79053,437.96065 1.65173,4.53809 1.65174,-4.53809 z"
     fill-rule="evenodd"
     id="path3765" />
  <path
     fill="#000000"
     stroke="#000000"
     stroke-width="1"
     stroke-linecap="butt"
     d="m 186.86849,126.75526 1.65173,4.5381 1.65174,-4.5381 z"
     fill-rule="evenodd"
     id="path3669-3" />
</svg>
