<?xml version="1.0" encoding="UTF-8" standalone="no"?>
<svg
   xmlns:dc="http://purl.org/dc/elements/1.1/"
   xmlns:cc="http://creativecommons.org/ns#"
   xmlns:rdf="http://www.w3.org/1999/02/22-rdf-syntax-ns#"
   xmlns:svg="http://www.w3.org/2000/svg"
   xmlns="http://www.w3.org/2000/svg"
   xmlns:sodipodi="http://sodipodi.sourceforge.net/DTD/sodipodi-0.dtd"
   xmlns:inkscape="http://www.inkscape.org/namespaces/inkscape"
   version="1.1"
   viewBox="0 0 713.44074 381.23953"
   fill="none"
   stroke="none"
   stroke-linecap="square"
   stroke-miterlimit="10"
   id="svg1051"
   sodipodi:docname="Flowchart-comparison.svg"
   width="713.44073"
   height="381.23953"
   inkscape:version="1.0.2-2 (e86c870879, 2021-01-15)">
  <metadata
     id="metadata1057">
    <rdf:RDF>
      <cc:Work
         rdf:about="">
        <dc:format>image/svg+xml</dc:format>
        <dc:type
           rdf:resource="http://purl.org/dc/dcmitype/StillImage" />
        <dc:title></dc:title>
      </cc:Work>
    </rdf:RDF>
  </metadata>
  <defs
     id="defs1055" />
  <sodipodi:namedview
     pagecolor="#ffffff"
     bordercolor="#666666"
     borderopacity="1"
     objecttolerance="10"
     gridtolerance="10"
     guidetolerance="10"
     inkscape:pageopacity="0"
     inkscape:pageshadow="2"
     inkscape:window-width="1920"
     inkscape:window-height="1017"
     id="namedview1053"
     showgrid="false"
     fit-margin-top="0"
     fit-margin-left="0"
     fit-margin-right="0"
     fit-margin-bottom="0"
     inkscape:zoom="1.6167481"
     inkscape:cx="214.98301"
     inkscape:cy="156.66845"
     inkscape:window-x="-8"
     inkscape:window-y="-8"
     inkscape:window-maximized="1"
     inkscape:current-layer="svg1051"
     inkscape:document-rotation="0" />
  <clipPath
     id="p.0">
    <path
       d="M 0,0 H 960 V 720 H 0 Z"
       clip-rule="nonzero"
       id="path946" />
  </clipPath>
  <path
     fill="#000000"
     fill-opacity="0"
     d="M -29.287571,-9.1640415 H 930.71243 V 710.83596 H -29.287571 Z"
     fill-rule="evenodd"
     id="path949" />
  <path
     fill="#cfe2f3"
     d="m 101.44459,0.5 h 82.58986 v 0 c 10.81949,0 19.59042,12.763482 19.59042,28.508031 0,15.744553 -8.77093,28.508034 -19.59042,28.508034 h -82.58986 v 0 c -10.819501,0 -19.590431,-12.763481 -19.590431,-28.508034 C 81.854159,13.26348 90.625089,0.5 101.44459,0.5 Z"
     fill-rule="evenodd"
     id="path951" />
  <path
     stroke="#000000"
     stroke-width="1"
     stroke-linejoin="round"
     stroke-linecap="butt"
     d="m 101.44459,0.5 h 82.58986 v 0 c 10.81949,0 19.59042,12.763482 19.59042,28.508031 0,15.744553 -8.77093,28.508034 -19.59042,28.508034 h -82.58986 v 0 c -10.819501,0 -19.590431,-12.763481 -19.590431,-28.508034 C 81.854159,13.26348 90.625089,0.5 101.44459,0.5 Z"
     fill-rule="evenodd"
     id="path953" />
  <path
     fill="#000000"
     d="M 104.79813,38.608029 V 19.529903 h 6.5625 q 2.23437,0 3.40625,0.265625 1.64062,0.375 2.79687,1.375 1.5,1.265625 2.25,3.25 0.75,1.984375 0.75,4.546875 0,2.171875 -0.51562,3.859376 -0.5,1.671875 -1.29688,2.78125 -0.78125,1.09375 -1.73437,1.71875 -0.9375,0.625 -2.28125,0.953125 -1.32813,0.328125 -3.0625,0.328125 z m 2.51562,-2.25 h 4.07813 q 1.89062,0 2.95312,-0.34375 1.07813,-0.359375 1.71875,-1 0.89063,-0.890625 1.39063,-2.40625 0.51562,-1.515626 0.51562,-3.687501 0,-2.984375 -0.98437,-4.59375 -0.98438,-1.609375 -2.39063,-2.15625 -1.01562,-0.390625 -3.26562,-0.390625 h -4.01563 z m 25.89092,-2.203125 2.42187,0.296875 q -0.57812,2.125 -2.125,3.296875 -1.54687,1.171875 -3.95312,1.171875 -3.03125,0 -4.8125,-1.859375 -1.78125,-1.875 -1.78125,-5.250001 0,-3.484375 1.79687,-5.40625 1.79688,-1.9375 4.67188,-1.9375 2.76562,0 4.51562,1.890625 1.76563,1.890625 1.76563,5.3125 0,0.203125 -0.0156,0.625001 h -10.3125 q 0.14063,2.28125 1.29688,3.5 1.15625,1.203125 2.89062,1.203125 1.28125,0 2.1875,-0.671875 0.92188,-0.6875 1.45313,-2.171875 z m -7.6875,-3.781251 h 7.71875 q -0.15625,-1.75 -0.89063,-2.625 -1.125,-1.34375 -2.90625,-1.34375 -1.60937,0 -2.71875,1.078125 -1.09375,1.078125 -1.20312,2.890625 z m 2.51562,-7.3125 1.73438,-3.640625 h 3.0625 l -2.85938,3.640625 z m 10.52807,20.843751 V 24.779903 h 2.14062 v 1.796875 q 0.75,-1.046875 1.70313,-1.578125 0.95312,-0.53125 2.3125,-0.53125 1.76562,0 3.10937,0.921875 1.35938,0.90625 2.04688,2.5625 0.6875,1.65625 0.6875,3.640625 0,2.125001 -0.76563,3.828126 -0.75,1.6875 -2.20312,2.59375 -1.45313,0.90625 -3.04688,0.90625 -1.17187,0 -2.10937,-0.484375 -0.92188,-0.5 -1.53125,-1.265625 v 6.734375 z m 2.125,-12.125001 q 0,2.656251 1.07812,3.937501 1.09375,1.28125 2.625,1.28125 1.5625,0 2.67188,-1.3125 1.10937,-1.328125 1.10937,-4.109376 0,-2.640625 -1.09375,-3.953125 -1.07812,-1.3125 -2.59375,-1.3125 -1.48437,0 -2.64062,1.40625 -1.15625,1.390625 -1.15625,4.0625 z m 21.73118,5.125001 q -1.3125,1.109375 -2.51562,1.5625 -1.20313,0.453125 -2.57813,0.453125 -2.28125,0 -3.5,-1.109375 -1.21875,-1.109375 -1.21875,-2.84375 0,-1.015625 0.45313,-1.859375 0.46875,-0.84375 1.21875,-1.343751 0.75,-0.515625 1.6875,-0.765625 0.6875,-0.1875 2.07812,-0.359375 2.82813,-0.328125 4.17188,-0.796875 0.0156,-0.484375 0.0156,-0.625 0,-1.421875 -0.65625,-2.015625 -0.90625,-0.796875 -2.67187,-0.796875 -1.65625,0 -2.45313,0.59375 -0.78125,0.578125 -1.15625,2.046875 l -2.29687,-0.3125 q 0.3125,-1.46875 1.03125,-2.375 0.71875,-0.90625 2.0625,-1.390625 1.35937,-0.5 3.14062,-0.5 1.78125,0 2.875,0.421875 1.10938,0.421875 1.625,1.046875 0.53125,0.625 0.73438,1.59375 0.125,0.59375 0.125,2.15625 v 3.125001 q 0,3.265625 0.14062,4.140625 0.15625,0.859375 0.59375,1.65625 h -2.4375 q -0.375,-0.734375 -0.46875,-1.703125 z m -0.20312,-5.234376 q -1.26563,0.515626 -3.82813,0.890626 -1.4375,0.203125 -2.04687,0.46875 -0.59375,0.25 -0.92188,0.75 -0.3125,0.5 -0.3125,1.125 0,0.9375 0.70313,1.5625 0.70312,0.625 2.07812,0.625 1.34375,0 2.39063,-0.59375 1.0625,-0.59375 1.5625,-1.625 0.375,-0.796875 0.375,-2.34375 z m 5.98118,6.937501 V 24.779903 h 2.10938 v 2.09375 q 0.79687,-1.46875 1.48437,-1.9375 0.6875,-0.46875 1.5,-0.46875 1.1875,0 2.40625,0.765625 l -0.79687,2.171875 q -0.85938,-0.515625 -1.71875,-0.515625 -0.76563,0 -1.39063,0.46875 -0.60937,0.453125 -0.85937,1.28125 -0.39063,1.25 -0.39063,2.734375 v 7.234376 z m 14.01737,-2.09375 0.32812,2.0625 q -0.98437,0.21875 -1.76562,0.21875 -1.26563,0 -1.96875,-0.40625 -0.70313,-0.40625 -1,-1.0625 -0.28125,-0.65625 -0.28125,-2.765625 v -7.953126 h -1.71875 v -1.828125 h 1.71875 v -3.421875 l 2.32812,-1.40625 v 4.828125 h 2.35938 v 1.828125 h -2.35938 v 8.078126 q 0,1 0.125,1.296875 0.125,0.28125 0.40625,0.453125 0.28125,0.171875 0.79688,0.171875 0.39062,0 1.03125,-0.09375 z"
     fill-rule="nonzero"
     id="path955" />
  <path
     fill="#cfe2f3"
     d="M 97.508984,323.72348 H 186.6548 v 0 c 11.67834,0 21.14552,12.76349 21.14552,28.50803 0,15.74456 -9.46718,28.50802 -21.14552,28.50802 H 97.508984 v 0 c -11.67834,0 -21.14551,-12.76346 -21.14551,-28.50802 0,-15.74454 9.46717,-28.50803 21.14551,-28.50803 z"
     fill-rule="evenodd"
     id="path957" />
  <path
     stroke="#000000"
     stroke-width="1"
     stroke-linejoin="round"
     stroke-linecap="butt"
     d="M 97.508984,323.72348 H 186.6548 v 0 c 11.67834,0 21.14552,12.76349 21.14552,28.50803 0,15.74456 -9.46718,28.50802 -21.14552,28.50802 H 97.508984 v 0 c -11.67834,0 -21.14551,-12.76346 -21.14551,-28.50802 0,-15.74454 9.46717,-28.50803 21.14551,-28.50803 z"
     fill-rule="evenodd"
     id="path959" />
  <path
     fill="#000000"
     d="m 125.75448,361.83151 v -19.07813 h 12.875 v 2.25 h -10.34375 v 5.90625 h 8.95312 v 2.25 h -8.95312 v 8.67188 z m 15.86083,-16.39063 v -2.6875 h 2.34375 v 2.6875 z m 0,16.39063 v -13.82813 h 2.34375 v 13.82813 z m 5.90655,0 v -13.82813 h 2.10938 v 1.96875 q 1.53125,-2.28125 4.40625,-2.28125 1.25,0 2.29687,0.45313 1.04688,0.45312 1.5625,1.1875 0.53125,0.71875 0.73438,1.71875 0.125,0.65625 0.125,2.28125 v 8.5 h -2.34375 v -8.40625 q 0,-1.4375 -0.28125,-2.14063 -0.26563,-0.71875 -0.96875,-1.14062 -0.6875,-0.42188 -1.625,-0.42188 -1.48438,0 -2.57813,0.95313 -1.09375,0.95312 -1.09375,3.60937 v 7.54688 z"
     fill-rule="nonzero"
     id="path961" />
  <path
     fill="#000000"
     fill-opacity="0"
     d="M 142.73951,57.516069 V 84.697168"
     fill-rule="evenodd"
     id="path963" />
  <path
     stroke="#000000"
     stroke-width="1"
     stroke-linejoin="round"
     stroke-linecap="butt"
     d="M 142.73951,57.516058 V 78.697173"
     fill-rule="evenodd"
     id="path965" />
  <path
     fill="#000000"
     stroke="#000000"
     stroke-width="1"
     stroke-linecap="butt"
     d="m 141.08778,78.697169 1.65173,4.538094 1.65174,-4.538094 z"
     fill-rule="evenodd"
     id="path967" />
  <path
     fill="#000000"
     fill-opacity="0"
     d="m 142.73999,176.75329 v 27.18109"
     fill-rule="evenodd"
     id="path969" />
  <path
     stroke="#000000"
     stroke-width="1"
     stroke-linejoin="round"
     stroke-linecap="butt"
     d="m 142.73999,176.75329 v 21.18109"
     fill-rule="evenodd"
     id="path971" />
  <path
     fill="#000000"
     stroke="#000000"
     stroke-width="1"
     stroke-linecap="butt"
     d="m 141.08825,197.93438 1.65173,4.5381 1.65174,-4.5381 z"
     fill-rule="evenodd"
     id="path973" />
  <path
     fill="#000000"
     fill-opacity="0"
     d="m 142.08189,288.3219 v 35.40158"
     fill-rule="evenodd"
     id="path975" />
  <path
     stroke="#000000"
     stroke-width="1"
     stroke-linejoin="round"
     stroke-linecap="butt"
     d="m 142.08189,288.3219 v 29.40158"
     fill-rule="evenodd"
     id="path977" />
  <path
     fill="#000000"
     stroke="#000000"
     stroke-width="1"
     stroke-linecap="butt"
     d="m 140.43016,317.72348 1.65173,4.53809 1.65174,-4.53809 z"
     fill-rule="evenodd"
     id="path979" />
  <path
     fill="#cfe2f3"
     d="M 39.329229,84.696849 H 287.70457 V 176.7546 H 39.329229 Z"
     fill-rule="evenodd"
     id="path981" />
  <path
     fill="#000000"
     fill-opacity="0"
     d="M 70.376139,84.696849 V 176.7546 M 39.329226,96.204069 H 287.70457"
     fill-rule="evenodd"
     id="path983" />
  <path
     fill="#000000"
     fill-opacity="0"
     d="M 39.329229,84.696849 H 287.70457 V 176.7546 H 39.329229 Z"
     fill-rule="evenodd"
     id="path985" />
  <path
     stroke="#000000"
     stroke-width="1"
     stroke-linejoin="round"
     stroke-linecap="butt"
     d="M 70.376139,84.696849 V 176.7546 M 39.329226,96.204069 H 287.70457"
     fill-rule="evenodd"
     id="path987" />
  <path
     stroke="#000000"
     stroke-width="1"
     stroke-linejoin="round"
     stroke-linecap="butt"
     d="M 39.329229,84.696849 H 287.70457 V 176.7546 H 39.329229 Z"
     fill-rule="evenodd"
     id="path989" />
  <path
     fill="#000000"
     fill-opacity="0"
     d="M 349.55758,94.725718 H 648.18746 V 166.72573 H 349.55758 Z"
     fill-rule="evenodd"
     id="path999" />
  <path
     fill="#000000"
     fill-opacity="0"
     d="M 349.55758,177.74804 H 712.94076 V 301.15749 H 349.55758 Z"
     fill-rule="evenodd"
     id="path1007" />
  <path
     stroke="#000000"
     stroke-width="1"
     stroke-linejoin="round"
     stroke-linecap="butt"
     stroke-dasharray="1, 3"
     d="M 349.55758,69.021018 H 712.94076 V 192.43047 H 349.55758 Z"
     fill-rule="evenodd"
     id="path1009" />
  <path
     fill="#000000"
     d="M 360.66696,108.32574 V 89.247608 h 13.79687 v 2.25 h -11.26562 v 5.84375 h 10.54687 v 2.23438 h -10.54687 v 6.500002 h 11.70312 v 2.25 z m 17.42013,0 V 94.497608 h 2.10938 v 1.96875 q 1.53125,-2.28125 4.40625,-2.28125 1.25,0 2.29687,0.45313 1.04688,0.45312 1.5625,1.1875 0.53125,0.71875 0.73438,1.71875 0.125,0.65625 0.125,2.28125 v 8.500002 h -2.34375 v -8.406252 q 0,-1.4375 -0.28125,-2.14063 -0.26563,-0.71875 -0.96875,-1.14062 -0.6875,-0.42188 -1.625,-0.42188 -1.48438,0 -2.57813,0.95313 -1.09375,0.95312 -1.09375,3.609372 v 7.54688 z m 14.8093,0 V 94.497608 h 2.10938 v 2.09375 q 0.79687,-1.46875 1.48437,-1.9375 0.6875,-0.46875 1.5,-0.46875 1.1875,0 2.40625,0.76563 l -0.79687,2.17187 q -0.85938,-0.51562 -1.71875,-0.51562 -0.76563,0 -1.39063,0.46875 -0.60937,0.45312 -0.85937,1.28125 -0.39063,1.25 -0.39063,2.734372 v 7.23438 z m 18.36112,-4.45313 2.42187,0.29688 q -0.57812,2.125 -2.125,3.29687 -1.54687,1.17188 -3.95312,1.17188 -3.03125,0 -4.8125,-1.85938 -1.78125,-1.875 -1.78125,-5.25 0,-3.484372 1.79687,-5.406252 1.79688,-1.9375 4.67188,-1.9375 2.76562,0 4.51562,1.89063 1.76563,1.89062 1.76563,5.312502 0,0.20312 -0.0156,0.625 h -10.3125 q 0.14063,2.28125 1.29688,3.5 1.15625,1.20312 2.89062,1.20312 1.28125,0 2.1875,-0.67187 0.92188,-0.6875 1.45313,-2.17188 z m -7.6875,-3.78125 h 7.71875 q -0.15625,-1.750002 -0.89063,-2.625002 -1.125,-1.34375 -2.90625,-1.34375 -1.60937,0 -2.71875,1.07813 -1.09375,1.07812 -1.20312,2.890622 z m 12.62182,9.375 2.28125,0.34375 q 0.14063,1.04688 0.79688,1.53125 0.85937,0.65625 2.375,0.65625 1.625,0 2.5,-0.65625 0.89062,-0.64062 1.20312,-1.8125 0.1875,-0.71875 0.17188,-3.01562 -1.53125,1.8125 -3.82813,1.8125 -2.84375,0 -4.40625,-2.04688 -1.5625,-2.0625 -1.5625,-4.9375 0,-1.984372 0.71875,-3.656252 0.71875,-1.67187 2.07813,-2.57812 1.35937,-0.92188 3.1875,-0.92188 2.45312,0 4.03125,1.98438 v -1.67188 h 2.17187 v 11.953132 q 0,3.23437 -0.65625,4.57812 -0.65625,1.34375 -2.09375,2.125 -1.42187,0.78125 -3.5,0.78125 -2.46875,0 -4,-1.10937 -1.51562,-1.10938 -1.46875,-3.35938 z m 1.9375,-8.29687 q 0,2.71875 1.07813,3.96875 1.07812,1.25 2.70312,1.25 1.625,0 2.71875,-1.23438 1.09375,-1.25 1.09375,-3.90625 0,-2.546872 -1.125,-3.828122 -1.125,-1.29688 -2.71875,-1.29688 -1.5625,0 -2.65625,1.28125 -1.09375,1.26563 -1.09375,3.765632 z m 13.32492,-9.234382 v -2.6875 h 2.34375 v 2.6875 z m 0,16.390632 V 94.497608 h 2.34375 v 13.828132 z m 4.96906,-4.125 2.32812,-0.35938 q 0.1875,1.39063 1.07813,2.14063 0.89062,0.73437 2.5,0.73437 1.60937,0 2.39062,-0.65625 0.78125,-0.65625 0.78125,-1.54687 0,-0.79688 -0.6875,-1.25 -0.48437,-0.3125 -2.39062,-0.79688 -2.57813,-0.65625 -3.57813,-1.125 -1,-0.46875 -1.51562,-1.3125 -0.51563,-0.843752 -0.51563,-1.859372 0,-0.92188 0.42188,-1.70313 0.4375,-0.79687 1.15625,-1.3125 0.54687,-0.40625 1.48437,-0.6875 0.95313,-0.28125 2.03125,-0.28125 1.625,0 2.85938,0.46875 1.23437,0.46875 1.8125,1.28125 0.59375,0.79688 0.8125,2.14063 l -2.29688,0.3125 q -0.15625,-1.07813 -0.90625,-1.67188 -0.75,-0.59375 -2.10937,-0.59375 -1.60938,0 -2.3125,0.53125 -0.6875,0.53125 -0.6875,1.25 0,0.45313 0.29687,0.8125 0.28125,0.375 0.89063,0.625 0.35937,0.14063 2.07812,0.60938 2.48438,0.656252 3.46875,1.078122 0.98438,0.42188 1.53125,1.23438 0.5625,0.79687 0.5625,2 0,1.17187 -0.6875,2.21875 -0.67187,1.03125 -1.96875,1.59375 -1.28125,0.5625 -2.90625,0.5625 -2.70312,0 -4.125,-1.10938 -1.40625,-1.125 -1.79687,-3.32812 z m 19.39062,2.03125 0.32813,2.0625 q -0.98438,0.21875 -1.76563,0.21875 -1.26562,0 -1.96875,-0.40625 -0.70312,-0.40625 -1,-1.0625 -0.28125,-0.65625 -0.28125,-2.76563 v -7.953122 h -1.71875 v -1.82813 h 1.71875 v -3.42187 l 2.32813,-1.40625 v 4.82812 h 2.35937 v 1.82813 h -2.35937 v 8.078122 q 0,1 0.125,1.29688 0.125,0.28125 0.40625,0.45312 0.28125,0.17188 0.79687,0.17188 0.39063,0 1.03125,-0.0937 z m 2.26532,2.09375 V 94.497608 h 2.10938 v 2.09375 q 0.79687,-1.46875 1.48437,-1.9375 0.6875,-0.46875 1.5,-0.46875 1.1875,0 2.40625,0.76563 l -0.79687,2.17187 q -0.85938,-0.51562 -1.71875,-0.51562 -0.76563,0 -1.39063,0.46875 -0.60937,0.45312 -0.85937,1.28125 -0.39063,1.25 -0.39063,2.734372 v 7.23438 z m 18.36112,-4.45313 2.42187,0.29688 q -0.57812,2.125 -2.125,3.29687 -1.54687,1.17188 -3.95312,1.17188 -3.03125,0 -4.8125,-1.85938 -1.78125,-1.875 -1.78125,-5.25 0,-3.484372 1.79687,-5.406252 1.79688,-1.9375 4.67188,-1.9375 2.76562,0 4.51562,1.89063 1.76563,1.89062 1.76563,5.312502 0,0.20312 -0.0156,0.625 h -10.3125 q 0.14063,2.28125 1.29688,3.5 1.15625,1.20312 2.89062,1.20312 1.28125,0 2.1875,-0.67187 0.92188,-0.6875 1.45313,-2.17188 z m -7.6875,-3.78125 h 7.71875 q -0.15625,-1.750002 -0.89063,-2.625002 -1.125,-1.34375 -2.90625,-1.34375 -1.60937,0 -2.71875,1.07813 -1.09375,1.07812 -1.20312,2.890622 z m 13.02807,8.23438 V 94.497608 h 2.10935 v 2.09375 q 0.79687,-1.46875 1.48437,-1.9375 0.6875,-0.46875 1.5,-0.46875 1.1875,0 2.40625,0.76563 l -0.79687,2.17187 q -0.85938,-0.51562 -1.71875,-0.51562 -0.76563,0 -1.39063,0.46875 -0.60937,0.45312 -0.85937,1.28125 -0.39063,1.25 -0.39063,2.734372 v 7.23438 z m 16.25144,0 V 89.247608 h 2.34375 v 19.078132 z m 15.4378,-4.45313 2.42188,0.29688 q -0.57813,2.125 -2.125,3.29687 -1.54688,1.17188 -3.95313,1.17188 -3.03125,0 -4.8125,-1.85938 -1.78125,-1.875 -1.78125,-5.25 0,-3.484372 1.79688,-5.406252 1.79687,-1.9375 4.67187,-1.9375 2.76563,0 4.51563,1.89063 1.76562,1.89062 1.76562,5.312502 0,0.20312 -0.0156,0.625 h -10.3125 q 0.14062,2.28125 1.29687,3.5 1.15625,1.20312 2.89063,1.20312 1.28125,0 2.1875,-0.67187 0.92187,-0.6875 1.45312,-2.17188 z m -7.6875,-3.78125 h 7.71875 q -0.15625,-1.750002 -0.89062,-2.625002 -1.125,-1.34375 -2.90625,-1.34375 -1.60938,0 -2.71875,1.07813 -1.09375,1.07812 -1.20313,2.890622 z m 20.43402,8.23438 V 94.497608 h 2.10938 v 2.09375 q 0.79687,-1.46875 1.48437,-1.9375 0.6875,-0.46875 1.5,-0.46875 1.1875,0 2.40625,0.76563 l -0.79687,2.17187 q -0.85938,-0.51562 -1.71875,-0.51562 -0.76563,0 -1.39063,0.46875 -0.60937,0.45312 -0.85937,1.28125 -0.39063,1.25 -0.39063,2.734372 v 7.23438 z m 18.36109,-4.45313 2.42187,0.29688 q -0.57812,2.125 -2.125,3.29687 -1.54687,1.17188 -3.95312,1.17188 -3.03125,0 -4.8125,-1.85938 -1.78125,-1.875 -1.78125,-5.25 0,-3.484372 1.79687,-5.406252 1.79688,-1.9375 4.67188,-1.9375 2.76562,0 4.51562,1.89063 1.76563,1.89062 1.76563,5.312502 0,0.20312 -0.0156,0.625 h -10.3125 q 0.14063,2.28125 1.29688,3.5 1.15625,1.20312 2.89062,1.20312 1.28125,0 2.1875,-0.67187 0.92188,-0.6875 1.45313,-2.17188 z m -7.6875,-3.78125 h 7.71875 q -0.15625,-1.750002 -0.89063,-2.625002 -1.125,-1.34375 -2.90625,-1.34375 -1.60937,0 -2.71875,1.07813 -1.09375,1.07812 -1.20312,2.890622 z m 2.51562,-7.312502 1.73438,-3.64062 h 3.0625 l -2.85938,3.64062 z m 9.59058,11.421882 2.32812,-0.35938 q 0.1875,1.39063 1.07813,2.14063 0.89062,0.73437 2.5,0.73437 1.60937,0 2.39062,-0.65625 0.78125,-0.65625 0.78125,-1.54687 0,-0.79688 -0.6875,-1.25 -0.48437,-0.3125 -2.39062,-0.79688 -2.57813,-0.65625 -3.57813,-1.125 -1,-0.46875 -1.51562,-1.3125 -0.51563,-0.843752 -0.51563,-1.859372 0,-0.92188 0.42188,-1.70313 0.4375,-0.79687 1.15625,-1.3125 0.54687,-0.40625 1.48437,-0.6875 0.95313,-0.28125 2.03125,-0.28125 1.625,0 2.85938,0.46875 1.23437,0.46875 1.8125,1.28125 0.59375,0.79688 0.8125,2.14063 l -2.29688,0.3125 q -0.15625,-1.07813 -0.90625,-1.67188 -0.75,-0.59375 -2.10937,-0.59375 -1.60938,0 -2.3125,0.53125 -0.6875,0.53125 -0.6875,1.25 0,0.45313 0.29687,0.8125 0.28125,0.375 0.89063,0.625 0.35937,0.14063 2.07812,0.60938 2.48438,0.656252 3.46875,1.078122 0.98438,0.42188 1.53125,1.23438 0.5625,0.79687 0.5625,2 0,1.17187 -0.6875,2.21875 -0.67187,1.03125 -1.96875,1.59375 -1.28125,0.5625 -2.90625,0.5625 -2.70312,0 -4.125,-1.10938 -1.40625,-1.125 -1.79687,-3.32812 z m 23.32812,4.125 v -2.03125 q -1.60937,2.34375 -4.375,2.34375 -1.23437,0 -2.29687,-0.46875 -1.0625,-0.46875 -1.57813,-1.17188 -0.5,-0.71875 -0.71875,-1.75 -0.14062,-0.6875 -0.14062,-2.1875 v -8.562502 h 2.34375 v 7.671882 q 0,1.82812 0.14062,2.46875 0.21875,0.92187 0.9375,1.45312 0.71875,0.53125 1.76563,0.53125 1.0625,0 1.98437,-0.53125 0.92188,-0.54687 1.29688,-1.46875 0.39062,-0.9375 0.39062,-2.71875 v -7.406252 h 2.34375 v 13.828132 z m 5.71558,0 V 89.247608 h 2.34375 v 19.078132 z m 11.09405,-2.09375 0.32813,2.0625 q -0.98438,0.21875 -1.76563,0.21875 -1.26562,0 -1.96875,-0.40625 -0.70312,-0.40625 -1,-1.0625 -0.28125,-0.65625 -0.28125,-2.76563 v -7.953122 h -1.71875 v -1.82813 h 1.71875 v -3.42187 l 2.32813,-1.40625 v 4.82812 h 2.35937 v 1.82813 h -2.35937 v 8.078122 q 0,1 0.125,1.29688 0.125,0.28125 0.40625,0.45312 0.28125,0.17188 0.79687,0.17188 0.39063,0 1.03125,-0.0937 z m 11.3122,0.39062 q -1.3125,1.10938 -2.51563,1.5625 -1.20312,0.45313 -2.57812,0.45313 -2.28125,0 -3.5,-1.10938 -1.21875,-1.10937 -1.21875,-2.84375 0,-1.01562 0.45312,-1.85937 0.46875,-0.84375 1.21875,-1.34375 0.75,-0.51563 1.6875,-0.76563 0.6875,-0.1875 2.07813,-0.35937 2.82812,-0.32813 4.17187,-0.796882 0.0156,-0.48437 0.0156,-0.625 0,-1.42187 -0.65625,-2.01562 -0.90625,-0.79688 -2.67188,-0.79688 -1.65625,0 -2.45312,0.59375 -0.78125,0.57813 -1.15625,2.04688 l -2.29688,-0.3125 q 0.3125,-1.46875 1.03125,-2.375 0.71875,-0.90625 2.0625,-1.39063 1.35938,-0.5 3.14063,-0.5 1.78125,0 2.875,0.42188 1.10937,0.42187 1.625,1.04687 0.53125,0.625 0.73437,1.59375 0.125,0.59375 0.125,2.15625 v 3.125002 q 0,3.26563 0.14063,4.14063 0.15625,0.85937 0.59375,1.65625 h -2.4375 q -0.375,-0.73438 -0.46875,-1.70313 z m -0.20313,-5.23437 q -1.26562,0.51562 -3.82812,0.89062 -1.4375,0.20313 -2.04688,0.46875 -0.59375,0.25 -0.92187,0.75 -0.3125,0.5 -0.3125,1.125 0,0.9375 0.70312,1.5625 0.70313,0.625 2.07813,0.625 1.34375,0 2.39062,-0.59375 1.0625,-0.59375 1.5625,-1.625 0.375,-0.79687 0.375,-2.34375 z m 11.12183,4.84375 0.32813,2.0625 q -0.98438,0.21875 -1.76563,0.21875 -1.26562,0 -1.96875,-0.40625 -0.70312,-0.40625 -1,-1.0625 -0.28125,-0.65625 -0.28125,-2.76563 v -7.953122 h -1.71875 v -1.82813 h 1.71875 v -3.42187 l 2.32813,-1.40625 v 4.82812 h 2.35937 v 1.82813 h -2.35937 v 8.078122 q 0,1 0.125,1.29688 0.125,0.28125 0.40625,0.45312 0.28125,0.17188 0.79687,0.17188 0.39063,0 1.03125,-0.0937 z m 18.65564,2.09375 v -1.75 q -1.3125,2.0625 -3.85937,2.0625 -1.65625,0 -3.04688,-0.90625 -1.375,-0.92188 -2.14062,-2.54688 -0.76563,-1.64062 -0.76563,-3.75 0,-2.078122 0.6875,-3.765622 0.70313,-1.6875 2.07813,-2.57813 1.375,-0.90625 3.07812,-0.90625 1.25,0 2.21875,0.53125 0.98438,0.53125 1.59375,1.375 v -6.84375 h 2.34375 v 19.078132 z m -7.40625,-6.89063 q 0,2.64063 1.125,3.96875 1.125,1.3125 2.64063,1.3125 1.53125,0 2.60937,-1.25 1.07813,-1.26562 1.07813,-3.84375 0,-2.843752 -1.09375,-4.171872 -1.09375,-1.32813 -2.70313,-1.32813 -1.54687,0 -2.60937,1.28125 -1.04688,1.28125 -1.04688,4.031252 z m 22.7312,2.4375 2.42188,0.29688 q -0.57813,2.125 -2.125,3.29687 -1.54688,1.17188 -3.95313,1.17188 -3.03125,0 -4.8125,-1.85938 -1.78125,-1.875 -1.78125,-5.25 0,-3.484372 1.79688,-5.406252 1.79687,-1.9375 4.67187,-1.9375 2.76563,0 4.51563,1.89063 1.76562,1.89062 1.76562,5.312502 0,0.20312 -0.0156,0.625 h -10.3125 q 0.14062,2.28125 1.29687,3.5 1.15625,1.20312 2.89063,1.20312 1.28125,0 2.1875,-0.67187 0.92187,-0.6875 1.45312,-2.17188 z m -7.6875,-3.78125 h 7.71875 q -0.15625,-1.750002 -0.89062,-2.625002 -1.125,-1.34375 -2.90625,-1.34375 -1.60938,0 -2.71875,1.07813 -1.09375,1.07812 -1.20313,2.890622 z m 20.40277,8.23438 V 89.247608 h 2.34375 v 19.078132 z m 15.00031,-1.70313 q -1.3125,1.10938 -2.51563,1.5625 -1.20312,0.45313 -2.57812,0.45313 -2.28125,0 -3.5,-1.10938 -1.21875,-1.10937 -1.21875,-2.84375 0,-1.01562 0.45312,-1.85937 0.46875,-0.84375 1.21875,-1.34375 0.75,-0.51563 1.6875,-0.76563 0.6875,-0.1875 2.07813,-0.35937 2.82812,-0.32813 4.17187,-0.796882 0.0156,-0.48437 0.0156,-0.625 0,-1.42187 -0.65625,-2.01562 -0.90625,-0.79688 -2.67188,-0.79688 -1.65625,0 -2.45312,0.59375 -0.78125,0.57813 -1.15625,2.04688 l -2.29688,-0.3125 q 0.3125,-1.46875 1.03125,-2.375 0.71875,-0.90625 2.0625,-1.39063 1.35938,-0.5 3.14063,-0.5 1.78125,0 2.875,0.42188 1.10937,0.42187 1.625,1.04687 0.53125,0.625 0.73437,1.59375 0.125,0.59375 0.125,2.15625 v 3.125002 q 0,3.26563 0.14063,4.14063 0.15625,0.85937 0.59375,1.65625 h -2.4375 q -0.375,-0.73438 -0.46875,-1.70313 z m -0.20313,-5.23437 q -1.26562,0.51562 -3.82812,0.89062 -1.4375,0.20313 -2.04688,0.46875 -0.59375,0.25 -0.92187,0.75 -0.3125,0.5 -0.3125,1.125 0,0.9375 0.70312,1.5625 0.70313,0.625 2.07813,0.625 1.34375,0 2.39062,-0.59375 1.0625,-0.59375 1.5625,-1.625 0.375,-0.79687 0.375,-2.34375 z"
     fill-rule="nonzero"
     id="path1011" />
  <path
     fill="#000000"
     d="m 369.33883,135.26324 2.29687,0.29687 q -0.375,2.39063 -1.9375,3.73438 -1.54687,1.34375 -3.8125,1.34375 -2.84375,0 -4.5625,-1.84375 -1.71875,-1.85937 -1.71875,-5.32812 0,-2.23438 0.73438,-3.90625 0.75,-1.6875 2.26562,-2.53125 1.51563,-0.84375 3.29688,-0.84375 2.25,0 3.67187,1.14062 1.4375,1.14063 1.84375,3.23438 l -2.28125,0.35937 q -0.32812,-1.39062 -1.15625,-2.09375 -0.8125,-0.70312 -1.98437,-0.70312 -1.78125,0 -2.89063,1.26562 -1.09375,1.26563 -1.09375,4.01563 0,2.78125 1.0625,4.04687 1.0625,1.26563 2.78125,1.26563 1.39063,0 2.3125,-0.84375 0.92188,-0.85938 1.17188,-2.60938 z m 3.4375,-1.84375 q 0,-3.84375 2.125,-5.6875 1.78125,-1.54688 4.34375,-1.54688 2.85937,0 4.65625,1.875 1.8125,1.85938 1.8125,5.15625 0,2.67188 -0.79688,4.20313 -0.79687,1.53125 -2.32812,2.375 -1.53125,0.84375 -3.34375,0.84375 -2.89063,0 -4.6875,-1.85937 -1.78125,-1.85938 -1.78125,-5.35938 z m 2.40625,0 q 0,2.65625 1.15625,3.98437 1.15625,1.31251 2.90625,1.31251 1.75,0 2.90625,-1.32813 1.15625,-1.32812 1.15625,-4.04687 0,-2.5625 -1.17188,-3.89063 -1.15625,-1.32812 -2.89062,-1.32812 -1.75,0 -2.90625,1.32812 -1.15625,1.3125 -1.15625,3.96875 z m 13.27805,6.90625 V 126.49762 H 390.57 v 1.9375 q 0.64063,-1.01563 1.71875,-1.625 1.09375,-0.625 2.46875,-0.625 1.53125,0 2.51563,0.64062 0.98437,0.64063 1.39062,1.78125 1.64063,-2.42187 4.26563,-2.42187 2.0625,0 3.15625,1.14062 1.10937,1.14063 1.10937,3.51563 v 9.48437 h -2.32812 v -8.70312 q 0,-1.40625 -0.23438,-2.01563 -0.21875,-0.625 -0.82812,-1 -0.59375,-0.39062 -1.39063,-0.39062 -1.46875,0 -2.4375,0.96875 -0.95312,0.96875 -0.95312,3.10937 v 8.03125 h -2.34375 v -8.98437 q 0,-1.5625 -0.57813,-2.34375 -0.5625,-0.78125 -1.875,-0.78125 -0.98437,0 -1.82812,0.53125 -0.82813,0.51562 -1.21875,1.51562 -0.375,1 -0.375,2.89063 v 7.17187 z m 22.20486,5.29688 v -19.125 h 2.14063 v 1.79687 q 0.75,-1.04687 1.70312,-1.57812 0.95313,-0.53125 2.3125,-0.53125 1.76563,0 3.10938,0.92187 1.35937,0.90625 2.04687,2.5625 0.6875,1.65625 0.6875,3.64063 0,2.125 -0.76562,3.82812 -0.75,1.6875 -2.20313,2.59375 -1.45312,0.90625 -3.04687,0.90625 -1.17188,0 -2.10938,-0.48437 -0.92187,-0.5 -1.53125,-1.26563 v 6.73438 z m 2.125,-12.125 q 0,2.65625 1.07813,3.9375 1.09375,1.28125 2.625,1.28125 1.5625,0 2.67187,-1.3125 1.10938,-1.32813 1.10938,-4.10938 0,-2.64062 -1.09375,-3.95312 -1.07813,-1.3125 -2.59375,-1.3125 -1.48438,0 -2.64063,1.40625 -1.15625,1.39062 -1.15625,4.0625 z m 21.7312,5.125 q -1.3125,1.10937 -2.51562,1.5625 -1.20313,0.45312 -2.57813,0.45312 -2.28125,0 -3.5,-1.10937 -1.21875,-1.10938 -1.21875,-2.84375 0,-1.01563 0.45313,-1.85938 0.46875,-0.84375 1.21875,-1.34375 0.75,-0.51562 1.6875,-0.76562 0.6875,-0.1875 2.07812,-0.35938 2.82813,-0.32812 4.17188,-0.79687 0.0156,-0.48438 0.0156,-0.625 0,-1.42188 -0.65625,-2.01563 -0.90625,-0.79687 -2.67187,-0.79687 -1.65625,0 -2.45313,0.59375 -0.78125,0.57812 -1.15625,2.04687 l -2.29687,-0.3125 q 0.3125,-1.46875 1.03125,-2.375 0.71875,-0.90625 2.0625,-1.39062 1.35937,-0.5 3.14062,-0.5 1.78125,0 2.875,0.42187 1.10938,0.42188 1.625,1.04688 0.53125,0.625 0.73438,1.59375 0.125,0.59375 0.125,2.15625 v 3.125 q 0,3.26562 0.14062,4.14062 0.15625,0.85938 0.59375,1.65625 h -2.4375 q -0.375,-0.73437 -0.46875,-1.70312 z m -0.20312,-5.23438 q -1.26563,0.51563 -3.82813,0.89063 -1.4375,0.20312 -2.04687,0.46875 -0.59375,0.25 -0.92188,0.75 -0.3125,0.5 -0.3125,1.125 0,0.9375 0.70313,1.5625 0.70312,0.625 2.07812,0.625 1.34375,0 2.39063,-0.59375 1.0625,-0.59375 1.5625,-1.625 0.375,-0.79688 0.375,-2.34375 z m 5.98117,6.9375 v -13.82812 h 2.10937 v 2.09375 q 0.79688,-1.46875 1.48438,-1.9375 0.6875,-0.46875 1.5,-0.46875 1.1875,0 2.40625,0.76562 l -0.79688,2.17188 q -0.85937,-0.51563 -1.71875,-0.51563 -0.76562,0 -1.39062,0.46875 -0.60938,0.45313 -0.85938,1.28125 -0.39062,1.25 -0.39062,2.73438 v 7.23437 z m 17.92361,-1.70312 q -1.3125,1.10937 -2.51562,1.5625 -1.20313,0.45312 -2.57813,0.45312 -2.28125,0 -3.5,-1.10937 -1.21875,-1.10938 -1.21875,-2.84375 0,-1.01563 0.45313,-1.85938 0.46875,-0.84375 1.21875,-1.34375 0.75,-0.51562 1.6875,-0.76562 0.6875,-0.1875 2.07812,-0.35938 2.82813,-0.32812 4.17188,-0.79687 0.0156,-0.48438 0.0156,-0.625 0,-1.42188 -0.65625,-2.01563 -0.90625,-0.79687 -2.67187,-0.79687 -1.65625,0 -2.45313,0.59375 -0.78125,0.57812 -1.15625,2.04687 l -2.29687,-0.3125 q 0.3125,-1.46875 1.03125,-2.375 0.71875,-0.90625 2.0625,-1.39062 1.35937,-0.5 3.14062,-0.5 1.78125,0 2.875,0.42187 1.10938,0.42188 1.625,1.04688 0.53125,0.625 0.73438,1.59375 0.125,0.59375 0.125,2.15625 v 3.125 q 0,3.26562 0.14062,4.14062 0.15625,0.85938 0.59375,1.65625 h -2.4375 q -0.375,-0.73437 -0.46875,-1.70312 z m -0.20312,-5.23438 q -1.26563,0.51563 -3.82813,0.89063 -1.4375,0.20312 -2.04687,0.46875 -0.59375,0.25 -0.92188,0.75 -0.3125,0.5 -0.3125,1.125 0,0.9375 0.70313,1.5625 0.70312,0.625 2.07812,0.625 1.34375,0 2.39063,-0.59375 1.0625,-0.59375 1.5625,-1.625 0.375,-0.79688 0.375,-2.34375 z m 6.01245,-9.45312 v -2.6875 h 2.34375 v 2.6875 z m 0,16.39062 v -13.82812 h 2.34375 v 13.82812 z m 4.96902,-4.125 2.32813,-0.35937 q 0.1875,1.39062 1.07812,2.14062 0.89063,0.73438 2.5,0.73438 1.60938,0 2.39063,-0.65625 0.78125,-0.65625 0.78125,-1.54688 0,-0.79687 -0.6875,-1.25 -0.48438,-0.3125 -2.39063,-0.79687 -2.57812,-0.65625 -3.57812,-1.125 -1,-0.46875 -1.51563,-1.3125 -0.51562,-0.84375 -0.51562,-1.85938 0,-0.92187 0.42187,-1.70312 0.4375,-0.79688 1.15625,-1.3125 0.54688,-0.40625 1.48438,-0.6875 0.95312,-0.28125 2.03125,-0.28125 1.625,0 2.85937,0.46875 1.23438,0.46875 1.8125,1.28125 0.59375,0.79687 0.8125,2.14062 l -2.29687,0.3125 q -0.15625,-1.07812 -0.90625,-1.67187 -0.75,-0.59375 -2.10938,-0.59375 -1.60937,0 -2.3125,0.53125 -0.6875,0.53125 -0.6875,1.25 0,0.45312 0.29688,0.8125 0.28125,0.375 0.89062,0.625 0.35938,0.14062 2.07813,0.60937 2.48437,0.65625 3.46875,1.07813 0.98437,0.42187 1.53125,1.23437 0.5625,0.79688 0.5625,2 0,1.17188 -0.6875,2.21875 -0.67188,1.03125 -1.96875,1.59375 -1.28125,0.5625 -2.90625,0.5625 -2.70313,0 -4.125,-1.10937 -1.40625,-1.125 -1.79688,-3.32813 z m 13.40625,-2.78125 q 0,-3.84375 2.12503,-5.6875 1.78125,-1.54687 4.34375,-1.54687 2.85938,0 4.65625,1.875 1.8125,1.85937 1.8125,5.15625 0,2.67187 -0.79687,4.20312 -0.79688,1.53125 -2.32813,2.375 -1.53125,0.84375 -3.34375,0.84375 -2.89062,0 -4.6875,-1.85937 -1.78128,-1.85938 -1.78128,-5.35938 z m 2.40628,0 q 0,2.65625 1.15625,3.98438 1.15625,1.3125 2.90625,1.3125 1.75,0 2.90625,-1.32813 1.15625,-1.32812 1.15625,-4.04687 0,-2.5625 -1.17187,-3.89063 -1.15625,-1.32812 -2.89063,-1.32812 -1.75,0 -2.90625,1.32812 -1.15625,1.3125 -1.15625,3.96875 z m 13.27802,6.90625 v -13.82812 h 2.10937 v 1.96875 q 1.53125,-2.28125 4.40625,-2.28125 1.25,0 2.29688,0.45312 1.04687,0.45313 1.5625,1.1875 0.53125,0.71875 0.73437,1.71875 0.125,0.65625 0.125,2.28125 v 8.5 h -2.34375 v -8.40625 q 0,-1.4375 -0.28125,-2.14062 -0.26562,-0.71875 -0.96875,-1.14063 -0.6875,-0.42187 -1.625,-0.42187 -1.48437,0 -2.57812,0.95312 -1.09375,0.95313 -1.09375,3.60938 v 7.54687 z m 31.19964,0 v -1.75 q -1.3125,2.0625 -3.85937,2.0625 -1.65625,0 -3.04688,-0.90625 -1.375,-0.92187 -2.14062,-2.54687 -0.76563,-1.64063 -0.76563,-3.75 0,-2.07813 0.6875,-3.76563 0.70313,-1.6875 2.07813,-2.57812 1.375,-0.90625 3.07812,-0.90625 1.25,0 2.21875,0.53125 0.98438,0.53125 1.59375,1.375 v -6.84375 h 2.34375 v 19.07812 z m -7.40625,-6.89062 q 0,2.64062 1.125,3.96875 1.125,1.3125 2.64063,1.3125 1.53125,0 2.60937,-1.25 1.07813,-1.26563 1.07813,-3.84375 0,-2.84375 -1.09375,-4.17188 -1.09375,-1.32812 -2.70313,-1.32812 -1.54687,0 -2.60937,1.28125 -1.04688,1.28125 -1.04688,4.03125 z m 22.29371,5.1875 q -1.3125,1.10937 -2.51563,1.5625 -1.20312,0.45312 -2.57812,0.45312 -2.28125,0 -3.5,-1.10937 -1.21875,-1.10938 -1.21875,-2.84375 0,-1.01563 0.45312,-1.85938 0.46875,-0.84375 1.21875,-1.34375 0.75,-0.51562 1.6875,-0.76562 0.6875,-0.1875 2.07813,-0.35938 2.82812,-0.32812 4.17187,-0.79687 0.0156,-0.48438 0.0156,-0.625 0,-1.42188 -0.65625,-2.01563 -0.90625,-0.79687 -2.67188,-0.79687 -1.65625,0 -2.45312,0.59375 -0.78125,0.57812 -1.15625,2.04687 l -2.29688,-0.3125 q 0.3125,-1.46875 1.03125,-2.375 0.71875,-0.90625 2.0625,-1.39062 1.35938,-0.5 3.14063,-0.5 1.78125,0 2.875,0.42187 1.10937,0.42188 1.625,1.04688 0.53125,0.625 0.73437,1.59375 0.125,0.59375 0.125,2.15625 v 3.125 q 0,3.26562 0.14063,4.14062 0.15625,0.85938 0.59375,1.65625 h -2.4375 q -0.375,-0.73437 -0.46875,-1.70312 z m -0.20313,-5.23438 q -1.26562,0.51563 -3.82812,0.89063 -1.4375,0.20312 -2.04688,0.46875 -0.59375,0.25 -0.92187,0.75 -0.3125,0.5 -0.3125,1.125 0,0.9375 0.70312,1.5625 0.70313,0.625 2.07813,0.625 1.34375,0 2.39062,-0.59375 1.0625,-0.59375 1.5625,-1.625 0.375,-0.79688 0.375,-2.34375 z m 5.99683,6.9375 v -13.82812 h 2.10937 v 1.96875 q 1.53125,-2.28125 4.40625,-2.28125 1.25,0 2.29688,0.45312 1.04687,0.45313 1.5625,1.1875 0.53125,0.71875 0.73437,1.71875 0.125,0.65625 0.125,2.28125 v 8.5 h -2.34375 v -8.40625 q 0,-1.4375 -0.28125,-2.14062 -0.26562,-0.71875 -0.96875,-1.14063 -0.6875,-0.42187 -1.625,-0.42187 -1.48437,0 -2.57812,0.95312 -1.09375,0.95313 -1.09375,3.60938 v 7.54687 z m 13.88745,-4.125 2.32812,-0.35937 q 0.1875,1.39062 1.07813,2.14062 0.89062,0.73438 2.5,0.73438 1.60937,0 2.39062,-0.65625 0.78125,-0.65625 0.78125,-1.54688 0,-0.79687 -0.6875,-1.25 -0.48437,-0.3125 -2.39062,-0.79687 -2.57813,-0.65625 -3.57813,-1.125 -1,-0.46875 -1.51562,-1.3125 -0.51563,-0.84375 -0.51563,-1.85938 0,-0.92187 0.42188,-1.70312 0.4375,-0.79688 1.15625,-1.3125 0.54687,-0.40625 1.48437,-0.6875 0.95313,-0.28125 2.03125,-0.28125 1.625,0 2.85938,0.46875 1.23437,0.46875 1.8125,1.28125 0.59375,0.79687 0.8125,2.14062 l -2.29688,0.3125 q -0.15625,-1.07812 -0.90625,-1.67187 -0.75,-0.59375 -2.10937,-0.59375 -1.60938,0 -2.3125,0.53125 -0.6875,0.53125 -0.6875,1.25 0,0.45312 0.29687,0.8125 0.28125,0.375 0.89063,0.625 0.35937,0.14062 2.07812,0.60937 2.48438,0.65625 3.46875,1.07813 0.98438,0.42187 1.53125,1.23437 0.5625,0.79688 0.5625,2 0,1.17188 -0.6875,2.21875 -0.67187,1.03125 -1.96875,1.59375 -1.28125,0.5625 -2.90625,0.5625 -2.70312,0 -4.125,-1.10937 -1.40625,-1.125 -1.79687,-3.32813 z m 21.62469,4.125 v -19.07812 h 2.34375 v 19.07812 z m 15.00031,-1.70312 q -1.3125,1.10937 -2.51563,1.5625 -1.20312,0.45312 -2.57812,0.45312 -2.28125,0 -3.5,-1.10937 -1.21875,-1.10938 -1.21875,-2.84375 0,-1.01563 0.45312,-1.85938 0.46875,-0.84375 1.21875,-1.34375 0.75,-0.51562 1.6875,-0.76562 0.6875,-0.1875 2.07813,-0.35938 2.82812,-0.32812 4.17187,-0.79687 0.0156,-0.48438 0.0156,-0.625 0,-1.42188 -0.65625,-2.01563 -0.90625,-0.79687 -2.67188,-0.79687 -1.65625,0 -2.45312,0.59375 -0.78125,0.57812 -1.15625,2.04687 l -2.29688,-0.3125 q 0.3125,-1.46875 1.03125,-2.375 0.71875,-0.90625 2.0625,-1.39062 1.35938,-0.5 3.14063,-0.5 1.78125,0 2.875,0.42187 1.10937,0.42188 1.625,1.04688 0.53125,0.625 0.73437,1.59375 0.125,0.59375 0.125,2.15625 v 3.125 q 0,3.26562 0.14063,4.14062 0.15625,0.85938 0.59375,1.65625 h -2.4375 q -0.375,-0.73437 -0.46875,-1.70312 z m -0.20313,-5.23438 q -1.26562,0.51563 -3.82812,0.89063 -1.4375,0.20312 -2.04688,0.46875 -0.59375,0.25 -0.92187,0.75 -0.3125,0.5 -0.3125,1.125 0,0.9375 0.70312,1.5625 0.70313,0.625 2.07813,0.625 1.34375,0 2.39062,-0.59375 1.0625,-0.59375 1.5625,-1.625 0.375,-0.79688 0.375,-2.34375 z"
     fill-rule="nonzero"
     id="path1013" />
  <path
     fill="#000000"
     d="m 364.15133,172.32574 -5.25,-13.82813 h 2.46875 l 2.96875,8.28125 q 0.48437,1.34375 0.89062,2.78125 0.29688,-1.09375 0.85938,-2.625 l 3.07812,-8.4375 h 2.40625 l -5.23437,13.82813 z m 18.51562,-1.70313 q -1.3125,1.10938 -2.51562,1.5625 -1.20313,0.45313 -2.57813,0.45313 -2.28125,0 -3.5,-1.10938 -1.21875,-1.10937 -1.21875,-2.84375 0,-1.01562 0.45313,-1.85937 0.46875,-0.84375 1.21875,-1.34375 0.75,-0.51563 1.6875,-0.76563 0.6875,-0.1875 2.07812,-0.35937 2.82813,-0.32813 4.17188,-0.79688 0.0156,-0.48437 0.0156,-0.625 0,-1.42187 -0.65625,-2.01562 -0.90625,-0.79688 -2.67187,-0.79688 -1.65625,0 -2.45313,0.59375 -0.78125,0.57813 -1.15625,2.04688 l -2.29687,-0.3125 q 0.3125,-1.46875 1.03125,-2.375 0.71875,-0.90625 2.0625,-1.39063 1.35937,-0.5 3.14062,-0.5 1.78125,0 2.875,0.42188 1.10938,0.42187 1.625,1.04687 0.53125,0.625 0.73438,1.59375 0.125,0.59375 0.125,2.15625 v 3.125 q 0,3.26563 0.14062,4.14063 0.15625,0.85937 0.59375,1.65625 h -2.4375 q -0.375,-0.73438 -0.46875,-1.70313 z m -0.20312,-5.23437 q -1.26563,0.51562 -3.82813,0.89062 -1.4375,0.20313 -2.04687,0.46875 -0.59375,0.25 -0.92188,0.75 -0.3125,0.5 -0.3125,1.125 0,0.9375 0.70313,1.5625 0.70312,0.625 2.07812,0.625 1.34375,0 2.39063,-0.59375 1.0625,-0.59375 1.5625,-1.625 0.375,-0.79687 0.375,-2.34375 z m 5.98117,6.9375 v -13.82813 h 2.10938 v 2.09375 q 0.79687,-1.46875 1.48437,-1.9375 0.6875,-0.46875 1.5,-0.46875 1.1875,0 2.40625,0.76563 l -0.79687,2.17187 q -0.85938,-0.51562 -1.71875,-0.51562 -0.76563,0 -1.39063,0.46875 -0.60937,0.45312 -0.85937,1.28125 -0.39063,1.25 -0.39063,2.73437 v 7.23438 z m 8.90799,-16.39063 v -2.6875 h 2.34375 v 2.6875 z m 0,16.39063 v -13.82813 h 2.34375 v 13.82813 z m 14.93781,-1.70313 q -1.3125,1.10938 -2.51563,1.5625 -1.20312,0.45313 -2.57812,0.45313 -2.28125,0 -3.5,-1.10938 -1.21875,-1.10937 -1.21875,-2.84375 0,-1.01562 0.45312,-1.85937 0.46875,-0.84375 1.21875,-1.34375 0.75,-0.51563 1.6875,-0.76563 0.6875,-0.1875 2.07813,-0.35937 2.82812,-0.32813 4.17187,-0.79688 0.0156,-0.48437 0.0156,-0.625 0,-1.42187 -0.65625,-2.01562 -0.90625,-0.79688 -2.67188,-0.79688 -1.65625,0 -2.45312,0.59375 -0.78125,0.57813 -1.15625,2.04688 l -2.29688,-0.3125 q 0.3125,-1.46875 1.03125,-2.375 0.71875,-0.90625 2.0625,-1.39063 1.35938,-0.5 3.14063,-0.5 1.78125,0 2.875,0.42188 1.10937,0.42187 1.625,1.04687 0.53125,0.625 0.73437,1.59375 0.125,0.59375 0.125,2.15625 v 3.125 q 0,3.26563 0.14063,4.14063 0.15625,0.85937 0.59375,1.65625 h -2.4375 q -0.375,-0.73438 -0.46875,-1.70313 z m -0.20313,-5.23437 q -1.26562,0.51562 -3.82812,0.89062 -1.4375,0.20313 -2.04688,0.46875 -0.59375,0.25 -0.92187,0.75 -0.3125,0.5 -0.3125,1.125 0,0.9375 0.70312,1.5625 0.70313,0.625 2.07813,0.625 1.34375,0 2.39062,-0.59375 1.0625,-0.59375 1.5625,-1.625 0.375,-0.79687 0.375,-2.34375 z m 8.16867,6.9375 h -2.17187 v -19.07813 h 2.34375 v 6.79688 q 1.48437,-1.85938 3.78125,-1.85938 1.28125,0 2.40625,0.51563 1.14062,0.51562 1.875,1.45312 0.75,0.92188 1.15625,2.25 0.42187,1.3125 0.42187,2.79688 0,3.5625 -1.76562,5.5 -1.75,1.9375 -4.21875,1.9375 -2.4375,0 -3.82813,-2.04688 z m -0.0312,-7.01563 q 0,2.48438 0.67188,3.59375 1.10937,1.8125 3,1.8125 1.53125,0 2.65625,-1.32812 1.125,-1.34375 1.125,-3.98438 0,-2.70312 -1.07813,-3.98437 -1.07812,-1.29688 -2.59375,-1.29688 -1.54687,0 -2.67187,1.32813 -1.10938,1.32812 -1.10938,3.85937 z m 12.63745,7.01563 v -19.07813 h 2.34375 v 19.07813 z m 15.43778,-4.45313 2.42187,0.29688 q -0.57812,2.125 -2.125,3.29687 -1.54687,1.17188 -3.95312,1.17188 -3.03125,0 -4.8125,-1.85938 -1.78125,-1.875 -1.78125,-5.25 0,-3.48437 1.79687,-5.40625 1.79688,-1.9375 4.67188,-1.9375 2.76562,0 4.51562,1.89063 1.76563,1.89062 1.76563,5.3125 0,0.20312 -0.0156,0.625 h -10.3125 q 0.14063,2.28125 1.29688,3.5 1.15625,1.20312 2.89062,1.20312 1.28125,0 2.1875,-0.67187 0.92188,-0.6875 1.45313,-2.17188 z m -7.6875,-3.78125 h 7.71875 q -0.15625,-1.75 -0.89063,-2.625 -1.125,-1.34375 -2.90625,-1.34375 -1.60937,0 -2.71875,1.07813 -1.09375,1.07812 -1.20312,2.89062 z m 22.62152,8.23438 h -2.17188 v -19.07813 h 2.34375 v 6.79688 q 1.48438,-1.85938 3.78125,-1.85938 1.28125,0 2.40625,0.51563 1.14063,0.51562 1.875,1.45312 0.75,0.92188 1.15625,2.25 0.42188,1.3125 0.42188,2.79688 0,3.5625 -1.76563,5.5 -1.75,1.9375 -4.21875,1.9375 -2.4375,0 -3.82812,-2.04688 z m -0.0312,-7.01563 q 0,2.48438 0.67187,3.59375 1.10938,1.8125 3,1.8125 1.53125,0 2.65625,-1.32812 1.125,-1.34375 1.125,-3.98438 0,-2.70312 -1.07812,-3.98437 -1.07813,-1.29688 -2.59375,-1.29688 -1.54688,0 -2.67188,1.32813 -1.10937,1.32812 -1.10937,3.85937 z m 11.82495,0.10938 q 0,-3.84375 2.125,-5.6875 1.78125,-1.54688 4.34375,-1.54688 2.85937,0 4.65625,1.875 1.8125,1.85938 1.8125,5.15625 0,2.67188 -0.79688,4.20313 -0.79687,1.53125 -2.32812,2.375 -1.53125,0.84375 -3.34375,0.84375 -2.89063,0 -4.6875,-1.85938 -1.78125,-1.85937 -1.78125,-5.35937 z m 2.40625,0 q 0,2.65625 1.15625,3.98437 1.15625,1.3125 2.90625,1.3125 1.75,0 2.90625,-1.32812 1.15625,-1.32813 1.15625,-4.04688 0,-2.5625 -1.17188,-3.89062 -1.15625,-1.32813 -2.89062,-1.32813 -1.75,0 -2.90625,1.32813 -1.15625,1.3125 -1.15625,3.96875 z m 12.4187,0 q 0,-3.84375 2.125,-5.6875 1.78125,-1.54688 4.34375,-1.54688 2.85938,0 4.65625,1.875 1.8125,1.85938 1.8125,5.15625 0,2.67188 -0.79687,4.20313 -0.79688,1.53125 -2.32813,2.375 -1.53125,0.84375 -3.34375,0.84375 -2.89062,0 -4.6875,-1.85938 -1.78125,-1.85937 -1.78125,-5.35937 z m 2.40625,0 q 0,2.65625 1.15625,3.98437 1.15625,1.3125 2.90625,1.3125 1.75,0 2.90625,-1.32812 1.15625,-1.32813 1.15625,-4.04688 0,-2.5625 -1.17187,-3.89062 -1.15625,-1.32813 -2.89063,-1.32813 -1.75,0 -2.90625,1.32813 -1.15625,1.3125 -1.15625,3.96875 z m 13.23114,6.90625 v -19.07813 h 2.34375 v 19.07813 z m 15.43781,-4.45313 2.42187,0.29688 q -0.57812,2.125 -2.125,3.29687 -1.54687,1.17188 -3.95312,1.17188 -3.03125,0 -4.8125,-1.85938 -1.78125,-1.875 -1.78125,-5.25 0,-3.48437 1.79687,-5.40625 1.79688,-1.9375 4.67188,-1.9375 2.76562,0 4.51562,1.89063 1.76563,1.89062 1.76563,5.3125 0,0.20312 -0.0156,0.625 h -10.3125 q 0.14063,2.28125 1.29688,3.5 1.15625,1.20312 2.89062,1.20312 1.28125,0 2.1875,-0.67187 0.92188,-0.6875 1.45313,-2.17188 z m -7.6875,-3.78125 h 7.71875 q -0.15625,-1.75 -0.89063,-2.625 -1.125,-1.34375 -2.90625,-1.34375 -1.60937,0 -2.71875,1.07813 -1.09375,1.07812 -1.20312,2.89062 z m 2.51562,-7.3125 1.73438,-3.64062 h 3.0625 l -2.85938,3.64062 z m 19.99683,11.09375 2.42187,0.29688 q -0.57812,2.125 -2.125,3.29687 -1.54687,1.17188 -3.95312,1.17188 -3.03125,0 -4.8125,-1.85938 -1.78125,-1.875 -1.78125,-5.25 0,-3.48437 1.79687,-5.40625 1.79688,-1.9375 4.67188,-1.9375 2.76562,0 4.51562,1.89063 1.76563,1.89062 1.76563,5.3125 0,0.20312 -0.0156,0.625 h -10.3125 q 0.14063,2.28125 1.29688,3.5 1.15625,1.20312 2.89062,1.20312 1.28125,0 2.1875,-0.67187 0.92188,-0.6875 1.45313,-2.17188 z m -7.6875,-3.78125 h 7.71875 q -0.15625,-1.75 -0.89063,-2.625 -1.125,-1.34375 -2.90625,-1.34375 -1.60937,0 -2.71875,1.07813 -1.09375,1.07812 -1.20312,2.89062 z m 13.0437,8.23438 v -13.82813 h 2.10937 v 1.96875 q 1.53125,-2.28125 4.40625,-2.28125 1.25,0 2.29688,0.45313 1.04687,0.45312 1.5625,1.1875 0.53125,0.71875 0.73437,1.71875 0.125,0.65625 0.125,2.28125 v 8.5 h -2.34375 v -8.40625 q 0,-1.4375 -0.28125,-2.14063 -0.26562,-0.71875 -0.96875,-1.14062 -0.6875,-0.42188 -1.625,-0.42188 -1.48437,0 -2.57812,0.95313 -1.09375,0.95312 -1.09375,3.60937 v 7.54688 z m 14.82489,0 v -13.82813 h 2.10937 v 1.96875 q 1.53125,-2.28125 4.40625,-2.28125 1.25,0 2.29688,0.45313 1.04687,0.45312 1.5625,1.1875 0.53125,0.71875 0.73437,1.71875 0.125,0.65625 0.125,2.28125 v 8.5 h -2.34375 v -8.40625 q 0,-1.4375 -0.28125,-2.14063 -0.26562,-0.71875 -0.96875,-1.14062 -0.6875,-0.42188 -1.625,-0.42188 -1.48437,0 -2.57812,0.95313 -1.09375,0.95312 -1.09375,3.60937 v 7.54688 z m 24.2937,-4.45313 2.42187,0.29688 q -0.57812,2.125 -2.125,3.29687 -1.54687,1.17188 -3.95312,1.17188 -3.03125,0 -4.8125,-1.85938 -1.78125,-1.875 -1.78125,-5.25 0,-3.48437 1.79687,-5.40625 1.79688,-1.9375 4.67188,-1.9375 2.76562,0 4.51562,1.89063 1.76563,1.89062 1.76563,5.3125 0,0.20312 -0.0156,0.625 h -10.3125 q 0.14063,2.28125 1.29688,3.5 1.15625,1.20312 2.89062,1.20312 1.28125,0 2.1875,-0.67187 0.92188,-0.6875 1.45313,-2.17188 z m -7.6875,-3.78125 h 7.71875 q -0.15625,-1.75 -0.89063,-2.625 -1.125,-1.34375 -2.90625,-1.34375 -1.60937,0 -2.71875,1.07813 -1.09375,1.07812 -1.20312,2.89062 z"
     fill-rule="nonzero"
     id="path1015" />
  <path
     fill="#000000"
     fill-opacity="0"
     d="M 349.55758,239.45275 H 287.6993"
     fill-rule="evenodd"
     id="path1017" />
  <path
     stroke="#000000"
     stroke-width="1"
     stroke-linejoin="round"
     stroke-linecap="butt"
     d="M 349.55758,130.72573 H 293.6993"
     fill-rule="evenodd"
     id="path1019" />
  <path
     fill="#000000"
     stroke="#000000"
     stroke-width="1"
     stroke-linecap="butt"
     d="m 293.69931,129.07401 -4.53809,1.65172 4.53809,1.65173 z"
     fill-rule="evenodd"
     id="path1021" />
  <path
     fill="#000000"
     fill-opacity="0"
     d="M 349.55758,130.72573 H 287.6993"
     fill-rule="evenodd"
     id="path1023" />
  <path
     fill="#cfe2f3"
     d="M 0.49995405,296.78385 64.864774,204.72611 H 322.32412 l -64.36484,92.05774 z"
     fill-rule="evenodd"
     id="path1029" />
  <path
     stroke="#000000"
     stroke-width="1"
     stroke-linejoin="round"
     stroke-linecap="butt"
     d="M 0.49995405,296.78385 64.864774,204.72611 H 322.32412 l -64.36484,92.05774 z"
     fill-rule="evenodd"
     id="path1031" />
  <path
     fill="#000000"
     d="m 73.833534,244.35498 7.3125,-19.07813 h 2.73437 l 7.79688,19.07813 h -2.875 l -2.21875,-5.78125 h -7.98438 l -2.09375,5.78125 z m 5.5,-7.82813 h 6.46875 l -2,-5.29687 q -0.90625,-2.40625 -1.34375,-3.95313 -0.375,1.84375 -1.03125,3.64063 z m 14.62326,7.82813 v -12 h -2.0625 v -1.82813 h 2.0625 v -1.46875 q 0,-1.39062 0.25,-2.0625 0.34375,-0.92187 1.1875,-1.48437 0.85937,-0.5625 2.39062,-0.5625 0.98438,0 2.1875,0.23437 l -0.34375,2.04688 q -0.73437,-0.14063 -1.39062,-0.14063 -1.0625,0 -1.51563,0.46875 -0.4375,0.45313 -0.4375,1.70313 v 1.26562 h 2.70313 v 1.82813 h -2.70313 v 12 z m 6.924186,0 v -12 h -2.062496 v -1.82813 h 2.062496 v -1.46875 q 0,-1.39062 0.25,-2.0625 0.34375,-0.92187 1.1875,-1.48437 0.85937,-0.5625 2.39062,-0.5625 0.98438,0 2.1875,0.23437 l -0.34375,2.04688 q -0.73437,-0.14063 -1.39062,-0.14063 -1.0625,0 -1.51563,0.46875 -0.4375,0.45313 -0.4375,1.70313 v 1.26562 h 2.70313 v 1.82813 h -2.70313 v 12 z m 6.85908,-16.39063 v -2.6875 h 2.34375 v 2.6875 z m 0,16.39063 v -13.82813 h 2.34375 v 13.82813 z m 14.93779,-5.0625 2.29688,0.29687 q -0.375,2.39063 -1.9375,3.73438 -1.54688,1.34375 -3.8125,1.34375 -2.84375,0 -4.5625,-1.84375 -1.71875,-1.85938 -1.71875,-5.32813 0,-2.23437 0.73437,-3.90625 0.75,-1.6875 2.26563,-2.53125 1.51562,-0.84375 3.29687,-0.84375 2.25,0 3.67188,1.14063 1.4375,1.14062 1.84375,3.23437 l -2.28125,0.35938 q -0.32813,-1.39063 -1.15625,-2.09375 -0.8125,-0.70313 -1.98438,-0.70313 -1.78125,0 -2.89062,1.26563 -1.09375,1.26562 -1.09375,4.01562 0,2.78125 1.0625,4.04688 1.0625,1.26562 2.78125,1.26562 1.39062,0 2.3125,-0.84375 0.92187,-0.85937 1.17187,-2.60937 z m 4.29688,5.0625 v -19.07813 h 2.34375 v 6.84375 q 1.64062,-1.90625 4.14062,-1.90625 1.54688,0 2.67188,0.60938 1.14062,0.60937 1.625,1.67187 0.48437,1.0625 0.48437,3.09375 v 8.76563 h -2.34375 v -8.76563 q 0,-1.75 -0.76562,-2.54687 -0.75,-0.8125 -2.15625,-0.8125 -1.03125,0 -1.95313,0.54687 -0.92187,0.54688 -1.3125,1.46875 -0.39062,0.92188 -0.39062,2.54688 v 7.5625 z m 24.29369,-4.45313 2.42187,0.29688 q -0.57812,2.125 -2.125,3.29687 -1.54687,1.17188 -3.95312,1.17188 -3.03125,0 -4.8125,-1.85938 -1.78125,-1.875 -1.78125,-5.25 0,-3.48437 1.79687,-5.40625 1.79688,-1.9375 4.67188,-1.9375 2.76562,0 4.51562,1.89063 1.76563,1.89062 1.76563,5.3125 0,0.20312 -0.0156,0.625 h -10.3125 q 0.14063,2.28125 1.29688,3.5 1.15625,1.20312 2.89062,1.20312 1.28125,0 2.1875,-0.67187 0.92188,-0.6875 1.45313,-2.17188 z m -7.6875,-3.78125 h 7.71875 q -0.15625,-1.75 -0.89063,-2.625 -1.125,-1.34375 -2.90625,-1.34375 -1.60937,0 -2.71875,1.07813 -1.09375,1.07812 -1.20312,2.89062 z m 13.02806,8.23438 v -13.82813 h 2.10937 v 2.09375 q 0.79688,-1.46875 1.48438,-1.9375 0.6875,-0.46875 1.5,-0.46875 1.1875,0 2.40625,0.76563 l -0.79688,2.17187 q -0.85937,-0.51562 -1.71875,-0.51562 -0.76562,0 -1.39062,0.46875 -0.60938,0.45312 -0.85938,1.28125 -0.39062,1.25 -0.39062,2.73437 v 7.23438 z m 16.95457,-11.15625 v -2.67188 h 2.67188 v 2.67188 z m 0,11.15625 v -2.67188 h 2.67188 v 2.67188 z"
     fill-rule="nonzero"
     id="path1033" />
  <path
     fill="#000000"
     d="m 75.599154,276.35498 v -13.82813 h 2.10938 v 2.09375 q 0.79687,-1.46875 1.48437,-1.9375 0.6875,-0.46875 1.5,-0.46875 1.1875,0 2.40625,0.76563 l -0.79687,2.17187 q -0.85938,-0.51562 -1.71875,-0.51562 -0.76563,0 -1.39063,0.46875 -0.60937,0.45312 -0.85937,1.28125 -0.39063,1.25 -0.39063,2.73437 v 7.23438 z m 18.36112,-4.45313 2.42187,0.29688 q -0.57812,2.125 -2.125,3.29687 -1.54687,1.17188 -3.95312,1.17188 -3.03125,0 -4.8125,-1.85938 -1.78125,-1.875 -1.78125,-5.25 0,-3.48437 1.79687,-5.40625 1.79688,-1.9375 4.67188,-1.9375 2.76562,0 4.51562,1.89063 1.76563,1.89062 1.76563,5.3125 0,0.20312 -0.0156,0.625 h -10.3125 q 0.14063,2.28125 1.29688,3.5 1.15625,1.20312 2.89062,1.20312 1.28125,0 2.1875,-0.67187 0.92188,-0.6875 1.45313,-2.17188 z m -7.6875,-3.78125 h 7.71875 q -0.15625,-1.75 -0.89063,-2.625 -1.125,-1.34375 -2.90625,-1.34375 -1.60937,0 -2.71875,1.07813 -1.09375,1.07812 -1.20312,2.89062 z m 2.51562,-7.3125 1.73438,-3.64062 h 3.0625 l -2.85938,3.64062 z m 9.59056,11.42188 2.328126,-0.35938 q 0.1875,1.39063 1.07812,2.14063 0.89063,0.73437 2.5,0.73437 1.60938,0 2.39063,-0.65625 0.78125,-0.65625 0.78125,-1.54687 0,-0.79688 -0.6875,-1.25 -0.48438,-0.3125 -2.39063,-0.79688 -2.57812,-0.65625 -3.57812,-1.125 -0.999996,-0.46875 -1.515626,-1.3125 -0.51562,-0.84375 -0.51562,-1.85937 0,-0.92188 0.42187,-1.70313 0.4375,-0.79687 1.156246,-1.3125 0.54688,-0.40625 1.48438,-0.6875 0.95312,-0.28125 2.03125,-0.28125 1.625,0 2.85937,0.46875 1.23438,0.46875 1.8125,1.28125 0.59375,0.79688 0.8125,2.14063 l -2.29687,0.3125 q -0.15625,-1.07813 -0.90625,-1.67188 -0.75,-0.59375 -2.10938,-0.59375 -1.60937,0 -2.3125,0.53125 -0.6875,0.53125 -0.6875,1.25 0,0.45313 0.29688,0.8125 0.28125,0.375 0.89062,0.625 0.35938,0.14063 2.07813,0.60938 2.48437,0.65625 3.46875,1.07812 0.98437,0.42188 1.53125,1.23438 0.5625,0.79687 0.5625,2 0,1.17187 -0.6875,2.21875 -0.67188,1.03125 -1.96875,1.59375 -1.28125,0.5625 -2.90625,0.5625 -2.70313,0 -4.125,-1.10938 -1.406246,-1.125 -1.796876,-3.32812 z m 23.328126,4.125 v -2.03125 q -1.60938,2.34375 -4.375,2.34375 -1.23438,0 -2.29688,-0.46875 -1.0625,-0.46875 -1.57812,-1.17188 -0.5,-0.71875 -0.71875,-1.75 -0.14063,-0.6875 -0.14063,-2.1875 v -8.5625 h 2.34375 v 7.67188 q 0,1.82812 0.14063,2.46875 0.21875,0.92187 0.9375,1.45312 0.71875,0.53125 1.76562,0.53125 1.0625,0 1.98438,-0.53125 0.92187,-0.54687 1.29687,-1.46875 0.39063,-0.9375 0.39063,-2.71875 v -7.40625 h 2.34375 v 13.82813 z m 5.71556,0 v -19.07813 h 2.34375 v 19.07813 z m 11.09404,-2.09375 0.32812,2.0625 q -0.98437,0.21875 -1.76562,0.21875 -1.26563,0 -1.96875,-0.40625 -0.70313,-0.40625 -1,-1.0625 -0.28125,-0.65625 -0.28125,-2.76563 v -7.95312 h -1.71875 v -1.82813 h 1.71875 v -3.42187 l 2.32812,-1.40625 v 4.82812 h 2.35938 v 1.82813 h -2.35938 v 8.07812 q 0,1 0.125,1.29688 0.125,0.28125 0.40625,0.45312 0.28125,0.17188 0.79688,0.17188 0.39062,0 1.03125,-0.0937 z m 11.31221,0.39062 q -1.3125,1.10938 -2.51563,1.5625 -1.20312,0.45313 -2.57812,0.45313 -2.28125,0 -3.5,-1.10938 -1.21875,-1.10937 -1.21875,-2.84375 0,-1.01562 0.45312,-1.85937 0.46875,-0.84375 1.21875,-1.34375 0.75,-0.51563 1.6875,-0.76563 0.6875,-0.1875 2.07813,-0.35937 2.82812,-0.32813 4.17187,-0.79688 0.0156,-0.48437 0.0156,-0.625 0,-1.42187 -0.65625,-2.01562 -0.90625,-0.79688 -2.67188,-0.79688 -1.65625,0 -2.45312,0.59375 -0.78125,0.57813 -1.15625,2.04688 l -2.29688,-0.3125 q 0.3125,-1.46875 1.03125,-2.375 0.71875,-0.90625 2.0625,-1.39063 1.35938,-0.5 3.14063,-0.5 1.78125,0 2.875,0.42188 1.10937,0.42187 1.625,1.04687 0.53125,0.625 0.73437,1.59375 0.125,0.59375 0.125,2.15625 v 3.125 q 0,3.26563 0.14063,4.14063 0.15625,0.85937 0.59375,1.65625 h -2.4375 q -0.375,-0.73438 -0.46875,-1.70313 z m -0.20313,-5.23437 q -1.26562,0.51562 -3.82812,0.89062 -1.4375,0.20313 -2.04688,0.46875 -0.59375,0.25 -0.92187,0.75 -0.3125,0.5 -0.3125,1.125 0,0.9375 0.70312,1.5625 0.70313,0.625 2.07813,0.625 1.34375,0 2.39062,-0.59375 1.0625,-0.59375 1.5625,-1.625 0.375,-0.79687 0.375,-2.34375 z m 11.12181,4.84375 0.32813,2.0625 q -0.98438,0.21875 -1.76563,0.21875 -1.26562,0 -1.96875,-0.40625 -0.70312,-0.40625 -1,-1.0625 -0.28125,-0.65625 -0.28125,-2.76563 v -7.95312 h -1.71875 v -1.82813 h 1.71875 v -3.42187 l 2.32813,-1.40625 v 4.82812 h 2.35937 v 1.82813 h -2.35937 v 8.07812 q 0,1 0.125,1.29688 0.125,0.28125 0.40625,0.45312 0.28125,0.17188 0.79687,0.17188 0.39063,0 1.03125,-0.0937 z"
     fill-rule="nonzero"
     id="path1035" />
  <path
     fill="#000000"
     fill-opacity="0"
     d="m 161.41202,177.78648 v 26.92914"
     fill-rule="evenodd"
     id="path1037" />
  <path
     fill="#000000"
     fill-opacity="0"
     d="m 348.90153,224.78385 h 298.62988 v 72 H 348.90153 Z"
     fill-rule="evenodd"
     id="path1043" />
  <path
     stroke="#000000"
     stroke-width="1"
     stroke-linejoin="round"
     stroke-linecap="butt"
     stroke-dasharray="1, 3"
     d="m 348.90153,224.78385 h 298.62988 v 72 H 348.90153 Z"
     fill-rule="evenodd"
     id="path1045" />
  <path
     fill="#000000"
     d="m 357.87028,270.38385 7.3125,-19.07812 h 2.73437 l 7.79688,19.07812 h -2.875 l -2.21875,-5.78125 h -7.98438 l -2.09375,5.78125 z m 5.5,-7.82812 h 6.46875 l -2,-5.29688 q -0.90625,-2.40625 -1.34375,-3.95312 -0.375,1.84375 -1.03125,3.64062 z m 14.62326,7.82812 v -12 h -2.0625 v -1.82812 h 2.0625 v -1.46875 q 0,-1.39063 0.25,-2.0625 0.34375,-0.92188 1.1875,-1.48438 0.85938,-0.5625 2.39063,-0.5625 0.98437,0 2.1875,0.23438 l -0.34375,2.04687 q -0.73438,-0.14062 -1.39063,-0.14062 -1.0625,0 -1.51562,0.46875 -0.4375,0.45312 -0.4375,1.70312 v 1.26563 h 2.70312 v 1.82812 h -2.70312 v 12 z m 6.92419,0 v -12 h -2.0625 v -1.82812 h 2.0625 v -1.46875 q 0,-1.39063 0.25,-2.0625 0.34375,-0.92188 1.1875,-1.48438 0.85938,-0.5625 2.39063,-0.5625 0.98437,0 2.1875,0.23438 l -0.34375,2.04687 q -0.73438,-0.14062 -1.39063,-0.14062 -1.0625,0 -1.51562,0.46875 -0.4375,0.45312 -0.4375,1.70312 v 1.26563 h 2.70312 v 1.82812 h -2.70312 v 12 z m 6.85907,-16.39062 v -2.6875 h 2.34375 v 2.6875 z m 0,16.39062 v -13.82812 h 2.34375 v 13.82812 z m 14.93781,-5.0625 2.29687,0.29688 q -0.375,2.39062 -1.9375,3.73437 -1.54687,1.34375 -3.8125,1.34375 -2.84375,0 -4.5625,-1.84375 -1.71875,-1.85937 -1.71875,-5.32812 0,-2.23438 0.73438,-3.90625 0.75,-1.6875 2.26562,-2.53125 1.51563,-0.84375 3.29688,-0.84375 2.25,0 3.67187,1.14062 1.4375,1.14063 1.84375,3.23438 l -2.28125,0.35937 q -0.32812,-1.39062 -1.15625,-2.09375 -0.8125,-0.70312 -1.98437,-0.70312 -1.78125,0 -2.89063,1.26562 -1.09375,1.26563 -1.09375,4.01563 0,2.78125 1.0625,4.04687 1.0625,1.26563 2.78125,1.26563 1.39063,0 2.3125,-0.84375 0.92188,-0.85938 1.17188,-2.60938 z m 4.29687,5.0625 v -19.07812 h 2.34375 v 6.84375 q 1.64063,-1.90625 4.14063,-1.90625 1.54687,0 2.67187,0.60937 1.14063,0.60938 1.625,1.67188 0.48438,1.0625 0.48438,3.09375 v 8.76562 h -2.34375 v -8.76562 q 0,-1.75 -0.76563,-2.54688 -0.75,-0.8125 -2.15625,-0.8125 -1.03125,0 -1.95312,0.54688 -0.92188,0.54687 -1.3125,1.46875 -0.39063,0.92187 -0.39063,2.54687 v 7.5625 z m 24.29367,-4.45312 2.42188,0.29687 q -0.57813,2.125 -2.125,3.29688 -1.54688,1.17187 -3.95313,1.17187 -3.03125,0 -4.8125,-1.85937 -1.78125,-1.875 -1.78125,-5.25 0,-3.48438 1.79688,-5.40625 1.79687,-1.9375 4.67187,-1.9375 2.76563,0 4.51563,1.89062 1.76562,1.89063 1.76562,5.3125 0,0.20313 -0.0156,0.625 h -10.3125 q 0.14062,2.28125 1.29687,3.5 1.15625,1.20313 2.89063,1.20313 1.28125,0 2.1875,-0.67188 0.92187,-0.6875 1.45312,-2.17187 z m -7.6875,-3.78125 h 7.71875 q -0.15625,-1.75 -0.89062,-2.625 -1.125,-1.34375 -2.90625,-1.34375 -1.60938,0 -2.71875,1.07812 -1.09375,1.07813 -1.20313,2.89063 z m 25.12415,8.23437 v -16.82812 h -6.28125 v -2.25 h 15.125 v 2.25 h -6.3125 v 16.82812 z m 10.12125,0 v -13.82812 h 2.10937 v 2.09375 q 0.79688,-1.46875 1.48438,-1.9375 0.6875,-0.46875 1.5,-0.46875 1.1875,0 2.40625,0.76562 l -0.79688,2.17188 q -0.85937,-0.51563 -1.71875,-0.51563 -0.76562,0 -1.39062,0.46875 -0.60938,0.45313 -0.85938,1.28125 -0.39062,1.25 -0.39062,2.73438 v 7.23437 z m 17.95486,0 v -2.03125 q -1.60937,2.34375 -4.375,2.34375 -1.23437,0 -2.29687,-0.46875 -1.0625,-0.46875 -1.57813,-1.17187 -0.5,-0.71875 -0.71875,-1.75 -0.14062,-0.6875 -0.14062,-2.1875 v -8.5625 h 2.34375 v 7.67187 q 0,1.82813 0.14062,2.46875 0.21875,0.92188 0.9375,1.45313 0.71875,0.53125 1.76563,0.53125 1.0625,0 1.98437,-0.53125 0.92188,-0.54688 1.29688,-1.46875 0.39062,-0.9375 0.39062,-2.71875 v -7.40625 h 2.34375 v 13.82812 z m 15.2312,-4.45312 2.42188,0.29687 q -0.57813,2.125 -2.125,3.29688 -1.54688,1.17187 -3.95313,1.17187 -3.03125,0 -4.8125,-1.85937 -1.78125,-1.875 -1.78125,-5.25 0,-3.48438 1.79688,-5.40625 1.79687,-1.9375 4.67187,-1.9375 2.76563,0 4.51563,1.89062 1.76562,1.89063 1.76562,5.3125 0,0.20313 -0.0156,0.625 h -10.3125 q 0.14062,2.28125 1.29687,3.5 1.15625,1.20313 2.89063,1.20313 1.28125,0 2.1875,-0.67188 0.92187,-0.6875 1.45312,-2.17187 z m -7.6875,-3.78125 h 7.71875 q -0.15625,-1.75 -0.89062,-2.625 -1.125,-1.34375 -2.90625,-1.34375 -1.60938,0 -2.71875,1.07812 -1.09375,1.07813 -1.20313,2.89063 z"
     fill-rule="nonzero"
     id="path1047" />
  <path
     fill="#000000"
     d="m 88.878376,142.38041 v -13.82813 h 2.10937 v 2.09375 q 0.79688,-1.46875 1.48438,-1.9375 0.6875,-0.46875 1.5,-0.46875 1.1875,0 2.40625,0.76563 l -0.79688,2.17187 q -0.85937,-0.51562 -1.71875,-0.51562 -0.76562,0 -1.39062,0.46875 -0.60938,0.45312 -0.85938,1.28125 -0.39062,1.25 -0.39062,2.73437 v 7.23438 z m 18.361124,-4.45313 2.42187,0.29688 q -0.57812,2.125 -2.125,3.29687 -1.54687,1.17188 -3.95312,1.17188 -3.03126,0 -4.812514,-1.85938 -1.78125,-1.875 -1.78125,-5.25 0,-3.48437 1.79688,-5.40625 1.796874,-1.9375 4.671884,-1.9375 2.76562,0 4.51562,1.89063 1.76563,1.89062 1.76563,5.3125 0,0.20312 -0.0156,0.625 H 99.411401 q 0.14062,2.28125 1.296879,3.5 1.15625,1.20312 2.89062,1.20312 1.28125,0 2.1875,-0.67187 0.92187,-0.6875 1.45312,-2.17188 z m -7.687509,-3.78125 h 7.718759 q -0.15625,-1.75 -0.89063,-2.625 -1.125,-1.34375 -2.90625,-1.34375 -1.60937,0 -2.71874,1.07813 -1.093759,1.07812 -1.203139,2.89062 z m 12.106189,4.10938 2.32812,-0.35938 q 0.1875,1.39063 1.07813,2.14063 0.89062,0.73437 2.5,0.73437 1.60937,0 2.39062,-0.65625 0.78125,-0.65625 0.78125,-1.54687 0,-0.79688 -0.6875,-1.25 -0.48437,-0.3125 -2.39062,-0.79688 -2.57813,-0.65625 -3.57813,-1.125 -1,-0.46875 -1.51562,-1.3125 -0.51563,-0.84375 -0.51563,-1.85937 0,-0.92188 0.42188,-1.70313 0.4375,-0.79687 1.15625,-1.3125 0.54687,-0.40625 1.48437,-0.6875 0.95313,-0.28125 2.03125,-0.28125 1.625,0 2.85938,0.46875 1.23437,0.46875 1.8125,1.28125 0.59375,0.79688 0.8125,2.14063 l -2.29688,0.3125 q -0.15625,-1.07813 -0.90625,-1.67188 -0.75,-0.59375 -2.10937,-0.59375 -1.60938,0 -2.3125,0.53125 -0.6875,0.53125 -0.6875,1.25 0,0.45313 0.29687,0.8125 0.28125,0.375 0.89063,0.625 0.35937,0.14063 2.07812,0.60938 2.48438,0.65625 3.46875,1.07812 0.98438,0.42188 1.53125,1.23438 0.5625,0.79687 0.5625,2 0,1.17187 -0.6875,2.21875 -0.67187,1.03125 -1.96875,1.59375 -1.28125,0.5625 -2.90625,0.5625 -2.70312,0 -4.125,-1.10938 -1.40625,-1.125 -1.79687,-3.32812 z m 23.32813,4.125 v -2.03125 q -1.60938,2.34375 -4.375,2.34375 -1.23438,0 -2.29688,-0.46875 -1.0625,-0.46875 -1.57812,-1.17188 -0.5,-0.71875 -0.71875,-1.75 -0.14063,-0.6875 -0.14063,-2.1875 v -8.5625 h 2.34375 v 7.67188 q 0,1.82812 0.14063,2.46875 0.21875,0.92187 0.9375,1.45312 0.71875,0.53125 1.76562,0.53125 1.0625,0 1.98438,-0.53125 0.92187,-0.54687 1.29687,-1.46875 0.39063,-0.9375 0.39063,-2.71875 v -7.40625 h 2.34375 v 13.82813 z m 5.71556,0 v -19.07813 h 2.34375 v 19.07813 z m 11.09404,-2.09375 0.32812,2.0625 q -0.98437,0.21875 -1.76562,0.21875 -1.26563,0 -1.96875,-0.40625 -0.70313,-0.40625 -1,-1.0625 -0.28125,-0.65625 -0.28125,-2.76563 v -7.95312 h -1.71875 v -1.82813 h 1.71875 v -3.42187 l 2.32812,-1.40625 v 4.82812 h 2.35938 v 1.82813 h -2.35938 v 8.07812 q 0,1 0.125,1.29688 0.125,0.28125 0.40625,0.45312 0.28125,0.17188 0.79688,0.17188 0.39062,0 1.03125,-0.0937 z m 22.01504,-9.125 H 161.2172 v -2.1875 h 12.59375 z m 0,5.79687 H 161.2172 v -2.1875 h 12.59375 z m 18.83219,5.42188 h -2.34375 v -14.92188 q -0.85938,0.79688 -2.23438,1.60938 -1.35937,0.79687 -2.45312,1.20312 v -2.26562 q 1.96875,-0.92188 3.4375,-2.23438 1.46875,-1.3125 2.07812,-2.54687 h 1.51563 z m 13.74652,-8.34375 v -2.1875 l 12.64062,-5.32813 v 2.32813 l -10.01562,4.10937 10.01562,4.15625 v 2.32813 z m 34.94151,6.09375 v 2.25 h -12.60936 q -0.0312,-0.84375 0.26563,-1.625 0.48437,-1.29688 1.54686,-2.54688 1.0625,-1.25 3.0625,-2.875 3.10937,-2.5625 4.20312,-4.04687 1.09375,-1.5 1.09375,-2.8125 0,-1.40625 -1,-2.35938 -0.98437,-0.95312 -2.59375,-0.95312 -1.6875,0 -2.70312,1.01562 -1.01563,1.01563 -1.03125,2.8125 l -2.40624,-0.25 q 0.25,-2.6875 1.85936,-4.09375 1.60938,-1.42187 4.32813,-1.42187 2.75,0 4.34375,1.53125 1.60937,1.51562 1.60937,3.76562 0,1.14063 -0.46875,2.25 -0.46875,1.10938 -1.5625,2.32813 -1.07812,1.21875 -3.60937,3.35937 -2.09375,1.76563 -2.70313,2.40625 -0.59375,0.625 -0.98437,1.26563 z"
     fill-rule="nonzero"
     id="path997-3" />
  <path
     stroke="#000000"
     stroke-width="1"
     stroke-linejoin="round"
     stroke-linecap="butt"
     d="M 348.07812,257.77052 H 292.21984"
     fill-rule="evenodd"
     id="path1019-8" />
  <path
     fill="#000000"
     stroke="#000000"
     stroke-width="1"
     stroke-linecap="butt"
     d="m 292.21985,256.1188 -4.53809,1.65172 4.53809,1.65173 z"
     fill-rule="evenodd"
     id="path1021-0" />
</svg>
