<?xml version="1.0" encoding="UTF-8" standalone="no"?>
<svg
   xmlns:dc="http://purl.org/dc/elements/1.1/"
   xmlns:cc="http://creativecommons.org/ns#"
   xmlns:rdf="http://www.w3.org/1999/02/22-rdf-syntax-ns#"
   xmlns:svg="http://www.w3.org/2000/svg"
   xmlns="http://www.w3.org/2000/svg"
   xmlns:sodipodi="http://sodipodi.sourceforge.net/DTD/sodipodi-0.dtd"
   xmlns:inkscape="http://www.inkscape.org/namespaces/inkscape"
   version="1.1"
   viewBox="0 0 667.93243 396.1987"
   fill="none"
   stroke="none"
   stroke-linecap="square"
   stroke-miterlimit="10"
   id="svg2184"
   sodipodi:docname="flowchart-AND.svg"
   width="667.93243"
   height="396.1987"
   inkscape:version="1.0.2-2 (e86c870879, 2021-01-15)">
  <metadata
     id="metadata2190">
    <rdf:RDF>
      <cc:Work
         rdf:about="">
        <dc:format>image/svg+xml</dc:format>
        <dc:type
           rdf:resource="http://purl.org/dc/dcmitype/StillImage" />
        <dc:title></dc:title>
      </cc:Work>
    </rdf:RDF>
  </metadata>
  <defs
     id="defs2188" />
  <sodipodi:namedview
     pagecolor="#ffffff"
     bordercolor="#666666"
     borderopacity="1"
     objecttolerance="10"
     gridtolerance="10"
     guidetolerance="10"
     inkscape:pageopacity="0"
     inkscape:pageshadow="2"
     inkscape:window-width="1920"
     inkscape:window-height="1017"
     id="namedview2186"
     showgrid="false"
     fit-margin-top="0"
     fit-margin-left="0"
     fit-margin-right="0"
     fit-margin-bottom="0"
     inkscape:zoom="1.0841181"
     inkscape:cx="366.72953"
     inkscape:cy="109.06736"
     inkscape:window-x="-8"
     inkscape:window-y="-8"
     inkscape:window-maximized="1"
     inkscape:current-layer="svg2184"
     inkscape:document-rotation="0" />
  <clipPath
     id="p.0">
    <path
       d="M 0,0 H 960 V 720 H 0 Z"
       clip-rule="nonzero"
       id="path2019" />
  </clipPath>
  <path
     fill="#000000"
     fill-opacity="0"
     d="M -66.384545,-8.4722349 H 893.61546 V 711.52777 H -66.384545 Z"
     fill-rule="evenodd"
     id="path2022" />
  <path
     fill="#cfe2f3"
     d="m 85.332415,0.5 h 82.589865 v 0 c 10.81949,0 19.59042,12.763482 19.59042,28.508031 0,15.744553 -8.77093,28.508034 -19.59042,28.508034 H 85.332415 v 0 c -10.8195,0 -19.59043,-12.763481 -19.59043,-28.508034 C 65.741985,13.26348 74.512915,0.5 85.332415,0.5 Z"
     fill-rule="evenodd"
     id="path2024" />
  <path
     stroke="#000000"
     stroke-width="1"
     stroke-linejoin="round"
     stroke-linecap="butt"
     d="m 85.332415,0.5 h 82.589865 v 0 c 10.81949,0 19.59042,12.763482 19.59042,28.508031 0,15.744553 -8.77093,28.508034 -19.59042,28.508034 H 85.332415 v 0 c -10.8195,0 -19.59043,-12.763481 -19.59043,-28.508034 C 65.741985,13.26348 74.512915,0.5 85.332415,0.5 Z"
     fill-rule="evenodd"
     id="path2026" />
  <path
     fill="#000000"
     d="M 88.685955,38.608029 V 19.529903 h 6.5625 q 2.23437,0 3.40625,0.265625 1.640625,0.375 2.796875,1.375 1.5,1.265625 2.25,3.25 0.75,1.984375 0.75,4.546875 0,2.171875 -0.51562,3.859376 -0.5,1.671875 -1.29688,2.78125 -0.78125,1.09375 -1.73437,1.71875 -0.937505,0.625 -2.281255,0.953125 -1.32813,0.328125 -3.0625,0.328125 z m 2.51562,-2.25 h 4.07813 q 1.89062,0 2.95312,-0.34375 1.07813,-0.359375 1.71875,-1 0.890635,-0.890625 1.390635,-2.40625 0.51562,-1.515626 0.51562,-3.687501 0,-2.984375 -0.98437,-4.59375 -0.984385,-1.609375 -2.390635,-2.15625 -1.01562,-0.390625 -3.26562,-0.390625 h -4.01563 z m 25.890925,-2.203125 2.42187,0.296875 q -0.57812,2.125 -2.125,3.296875 -1.54687,1.171875 -3.95312,1.171875 -3.03125,0 -4.8125,-1.859375 -1.78125,-1.875 -1.78125,-5.250001 0,-3.484375 1.79687,-5.40625 1.79688,-1.9375 4.67188,-1.9375 2.76562,0 4.51562,1.890625 1.76563,1.890625 1.76563,5.3125 0,0.203125 -0.0156,0.625001 h -10.3125 q 0.14063,2.28125 1.29688,3.5 1.15625,1.203125 2.89062,1.203125 1.28125,0 2.1875,-0.671875 0.92188,-0.6875 1.45313,-2.171875 z m -7.6875,-3.781251 h 7.71875 q -0.15625,-1.75 -0.89063,-2.625 -1.125,-1.34375 -2.90625,-1.34375 -1.60937,0 -2.71875,1.078125 -1.09375,1.078125 -1.20312,2.890625 z m 2.51562,-7.3125 1.73438,-3.640625 h 3.0625 l -2.85938,3.640625 z m 10.52807,20.843751 V 24.779903 h 2.14062 v 1.796875 q 0.75,-1.046875 1.70313,-1.578125 0.95312,-0.53125 2.3125,-0.53125 1.76562,0 3.10937,0.921875 1.35938,0.90625 2.04688,2.5625 0.6875,1.65625 0.6875,3.640625 0,2.125001 -0.76563,3.828126 -0.75,1.6875 -2.20312,2.59375 -1.45313,0.90625 -3.04688,0.90625 -1.17187,0 -2.10937,-0.484375 -0.92188,-0.5 -1.53125,-1.265625 v 6.734375 z m 2.125,-12.125001 q 0,2.656251 1.07812,3.937501 1.09375,1.28125 2.625,1.28125 1.5625,0 2.67188,-1.3125 1.10937,-1.328125 1.10937,-4.109376 0,-2.640625 -1.09375,-3.953125 -1.07812,-1.3125 -2.59375,-1.3125 -1.48437,0 -2.64062,1.40625 -1.15625,1.390625 -1.15625,4.0625 z m 21.73118,5.125001 q -1.3125,1.109375 -2.51562,1.5625 -1.20313,0.453125 -2.57813,0.453125 -2.28125,0 -3.5,-1.109375 -1.21875,-1.109375 -1.21875,-2.84375 0,-1.015625 0.45313,-1.859375 0.46875,-0.84375 1.21875,-1.343751 0.75,-0.515625 1.6875,-0.765625 0.6875,-0.1875 2.07812,-0.359375 2.82813,-0.328125 4.17188,-0.796875 0.0156,-0.484375 0.0156,-0.625 0,-1.421875 -0.65625,-2.015625 -0.90625,-0.796875 -2.67187,-0.796875 -1.65625,0 -2.45313,0.59375 -0.78125,0.578125 -1.15625,2.046875 l -2.29687,-0.3125 q 0.3125,-1.46875 1.03125,-2.375 0.71875,-0.90625 2.0625,-1.390625 1.35937,-0.5 3.14062,-0.5 1.78125,0 2.875,0.421875 1.10938,0.421875 1.625,1.046875 0.53125,0.625 0.73438,1.59375 0.125,0.59375 0.125,2.15625 v 3.125001 q 0,3.265625 0.14062,4.140625 0.15625,0.859375 0.59375,1.65625 h -2.4375 q -0.375,-0.734375 -0.46875,-1.703125 z m -0.20312,-5.234376 q -1.26563,0.515626 -3.82813,0.890626 -1.4375,0.203125 -2.04687,0.46875 -0.59375,0.25 -0.92188,0.75 -0.3125,0.5 -0.3125,1.125 0,0.9375 0.70313,1.5625 0.70312,0.625 2.07812,0.625 1.34375,0 2.39063,-0.59375 1.0625,-0.59375 1.5625,-1.625 0.375,-0.796875 0.375,-2.34375 z m 5.98118,6.937501 V 24.779903 h 2.10938 v 2.09375 q 0.79687,-1.46875 1.48437,-1.9375 0.6875,-0.46875 1.5,-0.46875 1.1875,0 2.40625,0.765625 l -0.79687,2.171875 q -0.85938,-0.515625 -1.71875,-0.515625 -0.76563,0 -1.39063,0.46875 -0.60937,0.453125 -0.85937,1.28125 -0.39063,1.25 -0.39063,2.734375 v 7.234376 z m 14.01737,-2.09375 0.32812,2.0625 q -0.98437,0.21875 -1.76562,0.21875 -1.26563,0 -1.96875,-0.40625 -0.70313,-0.40625 -1,-1.0625 -0.28125,-0.65625 -0.28125,-2.765625 v -7.953126 h -1.71875 v -1.828125 h 1.71875 v -3.421875 l 2.32812,-1.40625 v 4.828125 h 2.35938 v 1.828125 h -2.35938 v 8.078126 q 0,1 0.125,1.296875 0.125,0.28125 0.40625,0.453125 0.28125,0.171875 0.79688,0.171875 0.39062,0 1.03125,-0.09375 z"
     fill-rule="nonzero"
     id="path2028" />
  <path
     fill="#cfe2f3"
     d="m 80.197905,338.68264 h 89.145835 v 0 c 11.67835,0 21.14551,12.76349 21.14551,28.50806 0,15.7445 -9.46716,28.50799 -21.14551,28.50799 H 80.197905 v 0 c -11.67834,0 -21.14551,-12.76349 -21.14551,-28.50799 0,-15.74457 9.46717,-28.50806 21.14551,-28.50806 z"
     fill-rule="evenodd"
     id="path2030" />
  <path
     stroke="#000000"
     stroke-width="1"
     stroke-linejoin="round"
     stroke-linecap="butt"
     d="m 80.197905,338.68264 h 89.145835 v 0 c 11.67835,0 21.14551,12.76349 21.14551,28.50806 0,15.7445 -9.46716,28.50799 -21.14551,28.50799 H 80.197905 v 0 c -11.67834,0 -21.14551,-12.76349 -21.14551,-28.50799 0,-15.74457 9.46717,-28.50806 21.14551,-28.50806 z"
     fill-rule="evenodd"
     id="path2032" />
  <path
     fill="#000000"
     d="m 108.44342,376.79069 v -19.07813 h 12.875 v 2.25 h -10.34375 v 5.90625 h 8.95312 v 2.25 h -8.95312 v 8.67188 z m 15.86082,-16.39063 v -2.6875 h 2.34375 v 2.6875 z m 0,16.39063 v -13.82813 h 2.34375 v 13.82813 z m 5.90654,0 v -13.82813 h 2.10938 v 1.96875 q 1.53125,-2.28125 4.40625,-2.28125 1.25,0 2.29687,0.45313 1.04688,0.45312 1.5625,1.1875 0.53125,0.71875 0.73438,1.71875 0.125,0.65625 0.125,2.28125 v 8.5 h -2.34375 v -8.40625 q 0,-1.4375 -0.28125,-2.14063 -0.26563,-0.71875 -0.96875,-1.14062 -0.6875,-0.42188 -1.625,-0.42188 -1.48438,0 -2.57813,0.95313 -1.09375,0.95312 -1.09375,3.60937 v 7.54688 z"
     fill-rule="nonzero"
     id="path2034" />
  <path
     fill="#000000"
     fill-opacity="0"
     d="M 105.64254,58.207876 V 85.388975"
     fill-rule="evenodd"
     id="path2036" />
  <path
     stroke="#000000"
     stroke-width="1"
     stroke-linejoin="round"
     stroke-linecap="butt"
     d="M 126.62734,57.516058 V 78.697173"
     fill-rule="evenodd"
     id="path2038" />
  <path
     fill="#000000"
     stroke="#000000"
     stroke-width="1"
     stroke-linecap="butt"
     d="m 124.97561,78.697169 1.65173,4.538094 1.65174,-4.538094 z"
     fill-rule="evenodd"
     id="path2040" />
  <path
     fill="#000000"
     stroke="#000000"
     stroke-width="1"
     stroke-linecap="butt"
     d="m 123.11908,332.68264 1.65173,4.53809 1.65174,-4.53809 z"
     fill-rule="evenodd"
     id="path2046" />
  <path
     fill="#cfe2f3"
     d="M 2.232255,85.388656 H 250.6076 V 138.42803 H 2.232255 Z"
     fill-rule="evenodd"
     id="path2048" />
  <path
     fill="#000000"
     fill-opacity="0"
     d="M 33.279165,85.388656 V 138.42803 M 2.232252,92.018575 H 250.6076"
     fill-rule="evenodd"
     id="path2050" />
  <path
     fill="#000000"
     fill-opacity="0"
     d="M 2.232255,85.388656 H 250.6076 V 138.42803 H 2.232255 Z"
     fill-rule="evenodd"
     id="path2052" />
  <path
     stroke="#000000"
     stroke-width="1"
     stroke-linejoin="round"
     stroke-linecap="butt"
     d="M 33.279165,85.388656 V 138.42803 M 2.232252,92.018575 H 250.6076"
     fill-rule="evenodd"
     id="path2054" />
  <path
     stroke="#000000"
     stroke-width="1"
     stroke-linejoin="round"
     stroke-linecap="butt"
     d="M 2.232255,85.388656 H 250.6076 V 138.42803 H 2.232255 Z"
     fill-rule="evenodd"
     id="path2056" />
  <path
     fill="#000000"
     fill-opacity="0"
     d="M 308.59446,75.908345 H 607.2244 V 147.90836 H 308.59446 Z"
     fill-rule="evenodd"
     id="path2066" />
  <path
     stroke="#000000"
     stroke-width="1"
     stroke-linejoin="round"
     stroke-linecap="butt"
     stroke-dasharray="1, 3"
     d="M 308.59446,75.908345 H 607.2244 V 147.90836 H 308.59446 Z"
     fill-rule="evenodd"
     id="path2068" />
  <path
     fill="#000000"
     fill-opacity="0"
     d="m 308.59446,172.43067 h 101.15485 v 46.02887 H 308.59446 Z"
     fill-rule="evenodd"
     id="path2074" />
  <path
     fill="#000000"
     fill-opacity="0"
     d="M 308.59446,195.4451 H 252.05903"
     fill-rule="evenodd"
     id="path2080" />
  <path
     fill="#000000"
     fill-opacity="0"
     d="M 308.59446,111.90835 H 250.61021"
     fill-rule="evenodd"
     id="path2086" />
  <path
     stroke="#000000"
     stroke-width="1"
     stroke-linejoin="round"
     stroke-linecap="butt"
     d="M 308.59446,111.90835 H 256.61021"
     fill-rule="evenodd"
     id="path2088" />
  <path
     fill="#000000"
     stroke="#000000"
     stroke-width="1"
     stroke-linecap="butt"
     d="m 256.61021,110.25661 -4.53809,1.65173 4.53809,1.65174 z"
     fill-rule="evenodd"
     id="path2090" />
  <path
     fill="#000000"
     fill-opacity="0"
     d="m 126.41992,218.45822 v 26.92912"
     fill-rule="evenodd"
     id="path2092" />
  <path
     stroke="#000000"
     stroke-width="1"
     stroke-linejoin="round"
     stroke-linecap="butt"
     d="m 126.41992,138.42804 v 20.92912"
     fill-rule="evenodd"
     id="path2094" />
  <path
     fill="#000000"
     stroke="#000000"
     stroke-width="1"
     stroke-linecap="butt"
     d="m 124.76819,159.35716 1.65173,4.5381 1.65174,-4.5381 z"
     fill-rule="evenodd"
     id="path2096" />
  <path
     fill="#cfe2f3"
     d="M 2.232255,165.8152 H 250.6076 v 53.03938 H 2.232255 Z"
     fill-rule="evenodd"
     id="path2098" />
  <path
     fill="#000000"
     fill-opacity="0"
     d="m 33.279165,165.8152 v 53.03938 M 2.232252,172.44513 H 250.6076"
     fill-rule="evenodd"
     id="path2100" />
  <path
     fill="#000000"
     fill-opacity="0"
     d="M 2.232255,165.8152 H 250.6076 v 53.03938 H 2.232255 Z"
     fill-rule="evenodd"
     id="path2102" />
  <path
     stroke="#000000"
     stroke-width="1"
     stroke-linejoin="round"
     stroke-linecap="butt"
     d="m 33.279165,165.8152 v 53.03938 M 2.232252,172.44513 H 250.6076"
     fill-rule="evenodd"
     id="path2104" />
  <path
     stroke="#000000"
     stroke-width="1"
     stroke-linejoin="round"
     stroke-linecap="butt"
     d="M 2.232255,165.8152 H 250.6076 v 53.03938 H 2.232255 Z"
     fill-rule="evenodd"
     id="path2106" />
  <path
     fill="#cfe2f3"
     d="M 0.58314502,251.37553 H 338.43214 V 304.4149 H 0.58314502 Z"
     fill-rule="evenodd"
     id="path2116"
     style="stroke-width:1.16629" />
  <path
     fill="#000000"
     fill-opacity="0"
     d="M 31.630055,251.37553 V 304.4149 M 0.58314202,258.00544 H 248.95849"
     fill-rule="evenodd"
     id="path2118" />
  <path
     fill="#000000"
     fill-opacity="0"
     d="M 0.58314502,251.37553 H 248.95849 V 304.4149 H 0.58314502 Z"
     fill-rule="evenodd"
     id="path2120" />
  <path
     stroke="#000000"
     stroke-width="1.1647"
     stroke-linejoin="round"
     stroke-linecap="butt"
     d="M 42.698955,251.37553 V 304.4149 M 0.58314202,258.00544 H 337.50973"
     fill-rule="evenodd"
     id="path2122" />
  <path
     stroke="#000000"
     stroke-width="1.16629"
     stroke-linejoin="round"
     stroke-linecap="butt"
     d="M 0.58314502,251.37553 H 338.43214 V 304.4149 H 0.58314502 Z"
     fill-rule="evenodd"
     id="path2124" />
  <path
     fill="#000000"
     fill-opacity="0"
     d="m 308.59446,332.68262 h 101.15485 v 46.02887 H 308.59446 Z"
     fill-rule="evenodd"
     id="path2128" />
  <path
     fill="#000000"
     fill-opacity="0"
     d="m 335.227,500.26004 h 280.69815 v 46.0289 H 335.227 Z"
     fill-rule="evenodd"
     id="path2140" />
  <path
     stroke="#000000"
     stroke-width="1"
     stroke-linejoin="round"
     stroke-linecap="butt"
     stroke-dasharray="1, 3"
     d="m 386.73426,257.1393 h 280.69815 v 46.0289 H 386.73426 Z"
     fill-rule="evenodd"
     id="path2142" />
  <path
     fill="#000000"
     fill-opacity="0"
     d="M 308.59446,355.69705 H 252.05903"
     fill-rule="evenodd"
     id="path2146" />
  <path
     fill="#000000"
     fill-opacity="0"
     d="M 335.227,523.27447 H 287.82542"
     fill-rule="evenodd"
     id="path2152" />
  <path
     stroke="#000000"
     stroke-width="1"
     stroke-linejoin="round"
     stroke-linecap="butt"
     d="M 386.73426,280.15373 H 345.33268"
     fill-rule="evenodd"
     id="path2154" />
  <path
     fill="#000000"
     stroke="#000000"
     stroke-width="1"
     stroke-linecap="butt"
     d="m 345.33268,278.50203 -4.53809,1.65173 4.53809,1.65174 z"
     fill-rule="evenodd"
     id="path2156" />
  <path
     fill="#000000"
     fill-opacity="0"
     d="m 126.41992,298.42804 v 34.2677"
     fill-rule="evenodd"
     id="path2158" />
  <path
     fill="#000000"
     fill-opacity="0"
     d="m 124.76819,217.11961 v 34.26773"
     fill-rule="evenodd"
     id="path2164" />
  <path
     stroke="#000000"
     stroke-width="1"
     stroke-linejoin="round"
     stroke-linecap="butt"
     d="m 124.76819,217.11961 v 28.26773"
     fill-rule="evenodd"
     id="path2166" />
  <path
     fill="#000000"
     stroke="#000000"
     stroke-width="1"
     stroke-linecap="butt"
     d="m 123.11645,245.38734 1.65173,4.53809 1.65174,-4.53809 z"
     fill-rule="evenodd"
     id="path2168" />
  <path
     fill="#000000"
     fill-opacity="0"
     d="m 124.77081,304.41491 v 34.2677"
     fill-rule="evenodd"
     id="path2170" />
  <path
     stroke="#000000"
     stroke-width="1"
     stroke-linejoin="round"
     stroke-linecap="butt"
     d="m 124.77081,304.41491 v 28.2677"
     fill-rule="evenodd"
     id="path2172" />
  <path
     fill="#000000"
     stroke="#000000"
     stroke-width="1"
     stroke-linecap="butt"
     d="m 123.11908,332.68261 1.65173,4.53812 1.65174,-4.53812 z"
     fill-rule="evenodd"
     id="path2174" />
  <path
     fill="#000000"
     fill-opacity="0"
     d="m 126.41992,138.42804 v 34.01575"
     fill-rule="evenodd"
     id="path2176" />
  <text
     xml:space="preserve"
     style="font-size:26.6667px;line-height:1.25;font-family:Alegreya;-inkscape-font-specification:Alegreya;white-space:pre;inline-size:302.932;fill:#000000;fill-opacity:1"
     x="317.03857"
     y="605.48645"
     id="text1913-2"
     transform="translate(83.557305,-314.65258)"><tspan
       x="317.03857"
       y="605.48645"><tspan
         style="font-style:normal;font-variant:normal;font-weight:normal;font-stretch:normal;font-family:Arial;-inkscape-font-specification:Arial">True and True = True</tspan></tspan></text>
  <text
     xml:space="preserve"
     style="font-size:26.6667px;line-height:1.25;font-family:Arial;-inkscape-font-specification:Arial;fill:#000000;fill-opacity:1"
     x="46.053783"
     y="125.26992"
     id="text7283"><tspan
       sodipodi:role="line"
       id="tspan7281"
       x="46.053783"
       y="125.26992">bool1 = 1 &lt; 2</tspan></text>
  <text
     xml:space="preserve"
     style="font-size:26.6667px;line-height:1.25;font-family:Alegreya;-inkscape-font-specification:Alegreya;fill:#000000;fill-opacity:1"
     x="318.73776"
     y="106.67601"
     id="text1918"><tspan
       sodipodi:role="line"
       id="tspan1916"
       x="318.73776"
       y="106.67601"
       style="font-style:normal;font-variant:normal;font-weight:normal;font-stretch:normal;font-family:Arial;-inkscape-font-specification:Arial">Déclaration et définition</tspan><tspan
       sodipodi:role="line"
       x="318.73776"
       y="140.78925"
       style="font-style:normal;font-variant:normal;font-weight:normal;font-stretch:normal;font-family:Arial;-inkscape-font-specification:Arial"
       id="tspan1920">d'un boolean</tspan></text>
  <path
     fill="#000000"
     d="m 52.394247,203.81382 h -2.17187 v -19.07813 h 2.34375 v 6.79688 q 1.48437,-1.85938 3.78125,-1.85938 1.28125,0 2.40625,0.51563 1.14062,0.51562 1.875,1.45312 0.75,0.92188 1.15625,2.25 0.42188,1.3125 0.42188,2.79688 0,3.5625 -1.76563,5.5 -1.75,1.9375 -4.21875,1.9375 -2.4375,0 -3.82813,-2.04688 z m -0.0312,-7.01563 q 0,2.48438 0.67188,3.59375 1.10937,1.8125 3,1.8125 1.53125,0 2.65625,-1.32812 1.125,-1.34375 1.125,-3.98438 0,-2.70312 -1.07813,-3.98437 -1.07812,-1.29688 -2.59375,-1.29688 -1.54687,0 -2.67187,1.32813 -1.10938,1.32812 -1.10938,3.85937 z m 11.824935,0.10938 q 0,-3.84375 2.125003,-5.6875 1.78125,-1.54688 4.34375,-1.54688 2.85938,0 4.65625,1.875 1.8125,1.85938 1.8125,5.15625 0,2.67188 -0.79687,4.20313 -0.79688,1.53125 -2.32813,2.375 -1.53125,0.84375 -3.34375,0.84375 -2.89062,0 -4.6875,-1.85938 -1.781253,-1.85937 -1.781253,-5.35937 z m 2.406253,0 q 0,2.65625 1.15625,3.98437 1.15625,1.3125 2.90625,1.3125 1.75,0 2.90625,-1.32812 1.15625,-1.32813 1.15625,-4.04688 0,-2.5625 -1.17187,-3.89062 -1.15625,-1.32813 -2.89063,-1.32813 -1.75,0 -2.90625,1.32813 -1.15625,1.3125 -1.15625,3.96875 z m 12.41869,0 q 0,-3.84375 2.125,-5.6875 1.78125,-1.54688 4.34375,-1.54688 2.85938,0 4.65625,1.875 1.8125,1.85938 1.8125,5.15625 0,2.67188 -0.79687,4.20313 -0.79688,1.53125 -2.32813,2.375 -1.53125,0.84375 -3.34375,0.84375 -2.89062,0 -4.6875,-1.85938 -1.78125,-1.85937 -1.78125,-5.35937 z m 2.40625,0 q 0,2.65625 1.15625,3.98437 1.15625,1.3125 2.90625,1.3125 1.75,0 2.90625,-1.32812 1.15625,-1.32813 1.15625,-4.04688 0,-2.5625 -1.17187,-3.89062 -1.15625,-1.32813 -2.89063,-1.32813 -1.75,0 -2.90625,1.32813 -1.15625,1.3125 -1.15625,3.96875 z m 13.23119,6.90625 v -19.07813 h 2.34375 v 19.07813 z m 17.640915,-2.25 v 2.25 H 99.681905 q -0.0312,-0.84375 0.26562,-1.625 0.484385,-1.29688 1.546885,-2.54688 1.0625,-1.25 3.0625,-2.875 3.10937,-2.5625 4.20312,-4.04687 1.09375,-1.5 1.09375,-2.8125 0,-1.40625 -1,-2.35938 -0.98437,-0.95312 -2.59375,-0.95312 -1.6875,0 -2.70312,1.01562 -1.01563,1.01563 -1.03125,2.8125 l -2.40625,-0.25 q 0.25,-2.6875 1.85937,-4.09375 1.60938,-1.42187 4.32813,-1.42187 2.75,0 4.34375,1.53125 1.60937,1.51562 1.60937,3.76562 0,1.14063 -0.46875,2.25 -0.46875,1.10938 -1.5625,2.32813 -1.07812,1.21875 -3.60937,3.35937 -2.09375,1.76563 -2.70313,2.40625 -0.59375,0.625 -0.98437,1.26563 z m 22.88715,-8.96875 h -12.5938 v -2.1875 h 12.59375 z m 0,5.79687 h -12.5938 v -2.1875 h 12.59375 z m 10.01967,0.39063 2.34375,-0.3125 q 0.39062,1.98437 1.35937,2.875 0.98438,0.875 2.375,0.875 1.64063,0 2.78125,-1.14063 1.14063,-1.15625 1.14063,-2.84375 0,-1.625 -1.0625,-2.67187 -1.04688,-1.04688 -2.67188,-1.04688 -0.65625,0 -1.65625,0.26563 l 0.26563,-2.0625 q 0.23437,0.0312 0.375,0.0312 1.5,0 2.6875,-0.78125 1.20312,-0.78125 1.20312,-2.40625 0,-1.29688 -0.875,-2.14063 -0.85937,-0.84375 -2.25,-0.84375 -1.35937,0 -2.28125,0.85938 -0.90625,0.85937 -1.15625,2.57812 l -2.34375,-0.42187 q 0.42188,-2.34375 1.9375,-3.64063 1.53125,-1.29687 3.79688,-1.29687 1.5625,0 2.875,0.67187 1.3125,0.67188 2,1.82813 0.70312,1.15625 0.70312,2.45312 0,1.23438 -0.67187,2.25 -0.65625,1.01563 -1.95313,1.625 1.6875,0.39063 2.625,1.625 0.9375,1.21875 0.9375,3.0625 0,2.5 -1.82812,4.25 -1.8125,1.73438 -4.59375,1.73438 -2.51563,0 -4.17188,-1.5 -1.65625,-1.5 -1.89062,-3.875 z m 27.77806,-6.1875 h -12.59375 v -2.1875 h 12.59375 z m 0,5.79687 h -12.59375 v -2.1875 h 12.59375 z m 15.56683,-5.79687 h -12.59375 v -2.1875 h 12.59375 z m 0,5.79687 h -12.59375 v -2.1875 h 12.59375 z m 2.61371,0.39063 2.34375,-0.3125 q 0.39062,1.98437 1.35937,2.875 0.98438,0.875 2.375,0.875 1.64063,0 2.78125,-1.14063 1.14063,-1.15625 1.14063,-2.84375 0,-1.625 -1.0625,-2.67187 -1.04688,-1.04688 -2.67188,-1.04688 -0.65625,0 -1.65625,0.26563 l 0.26563,-2.0625 q 0.23437,0.0312 0.375,0.0312 1.5,0 2.6875,-0.78125 1.20312,-0.78125 1.20312,-2.40625 0,-1.29688 -0.875,-2.14063 -0.85937,-0.84375 -2.25,-0.84375 -1.35937,0 -2.28125,0.85938 -0.90625,0.85937 -1.15625,2.57812 l -2.34375,-0.42187 q 0.42188,-2.34375 1.9375,-3.64063 1.53125,-1.29687 3.79688,-1.29687 1.5625,0 2.875,0.67187 1.3125,0.67188 2,1.82813 0.70312,1.15625 0.70312,2.45312 0,1.23438 -0.67187,2.25 -0.65625,1.01563 -1.95313,1.625 1.6875,0.39063 2.625,1.625 0.9375,1.21875 0.9375,3.0625 0,2.5 -1.82812,4.25 -1.8125,1.73438 -4.59375,1.73438 -2.51563,0 -4.17188,-1.5 -1.65625,-1.5 -1.89062,-3.875 z"
     fill-rule="nonzero"
     id="path2114-8" />
  <text
     xml:space="preserve"
     style="font-size:26.6667px;line-height:1.25;font-family:Alegreya;-inkscape-font-specification:Alegreya;white-space:pre;inline-size:0;fill:#000000;fill-opacity:1"
     x="317.03857"
     y="605.48645"
     id="text1913-7"
     transform="translate(-268.27278,-316.96914)"><tspan
       id="tspan1911-5"
       x="317.03857"
       y="605.48645"
       style="font-style:normal;font-variant:normal;font-weight:normal;font-stretch:normal;font-family:Arial;-inkscape-font-specification:Arial">result = bool1 and bool2</tspan></text>
</svg>
