<?xml version="1.0" encoding="UTF-8" standalone="no"?>
<svg
   xmlns:dc="http://purl.org/dc/elements/1.1/"
   xmlns:cc="http://creativecommons.org/ns#"
   xmlns:rdf="http://www.w3.org/1999/02/22-rdf-syntax-ns#"
   xmlns:svg="http://www.w3.org/2000/svg"
   xmlns="http://www.w3.org/2000/svg"
   xmlns:sodipodi="http://sodipodi.sourceforge.net/DTD/sodipodi-0.dtd"
   xmlns:inkscape="http://www.inkscape.org/namespaces/inkscape"
   version="1.1"
   viewBox="0 0 627.25714 635.57123"
   fill="none"
   stroke="none"
   stroke-linecap="square"
   stroke-miterlimit="10"
   id="svg6359"
   sodipodi:docname="flowchart-if-else.svg"
   width="627.25714"
   height="635.57123"
   inkscape:version="1.0.2-2 (e86c870879, 2021-01-15)">
  <metadata
     id="metadata6365">
    <rdf:RDF>
      <cc:Work
         rdf:about="">
        <dc:format>image/svg+xml</dc:format>
        <dc:type
           rdf:resource="http://purl.org/dc/dcmitype/StillImage" />
        <dc:title></dc:title>
      </cc:Work>
    </rdf:RDF>
  </metadata>
  <defs
     id="defs6363" />
  <sodipodi:namedview
     pagecolor="#ffffff"
     bordercolor="#666666"
     borderopacity="1"
     objecttolerance="10"
     gridtolerance="10"
     guidetolerance="10"
     inkscape:pageopacity="0"
     inkscape:pageshadow="2"
     inkscape:window-width="1920"
     inkscape:window-height="1017"
     id="namedview6361"
     showgrid="false"
     fit-margin-top="0"
     fit-margin-left="0"
     fit-margin-right="0"
     fit-margin-bottom="0"
     inkscape:zoom="1.1425371"
     inkscape:cx="453.44223"
     inkscape:cy="350.83596"
     inkscape:window-x="-8"
     inkscape:window-y="-8"
     inkscape:window-maximized="1"
     inkscape:current-layer="svg6359" />
  <clipPath
     id="p.0">
    <path
       d="M 0,0 H 960 V 720 H 0 Z"
       clip-rule="nonzero"
       id="path6218" />
  </clipPath>
  <g
     clip-path="url(#p.0)"
     id="g6357"
     transform="translate(-26.557772,-9.1640415)">
    <path
       fill="#000000"
       fill-opacity="0"
       d="M 0,0 H 960 V 720 H 0 Z"
       fill-rule="evenodd"
       id="path6221" />
    <path
       fill="#cfe2f3"
       d="m 130.73216,9.6640415 h 82.58986 v 0 c 10.81949,0 19.59042,12.7634815 19.59042,28.5080315 0,15.744553 -8.77093,28.508034 -19.59042,28.508034 h -82.58986 v 0 c -10.8195,0 -19.59043,-12.763481 -19.59043,-28.508034 0,-15.744551 8.77093,-28.5080315 19.59043,-28.5080315 z"
       fill-rule="evenodd"
       id="path6223" />
    <path
       stroke="#000000"
       stroke-width="1"
       stroke-linejoin="round"
       stroke-linecap="butt"
       d="m 130.73216,9.6640415 h 82.58986 v 0 c 10.81949,0 19.59042,12.7634815 19.59042,28.5080315 0,15.744553 -8.77093,28.508034 -19.59042,28.508034 h -82.58986 v 0 c -10.8195,0 -19.59043,-12.763481 -19.59043,-28.508034 0,-15.744551 8.77093,-28.5080315 19.59043,-28.5080315 z"
       fill-rule="evenodd"
       id="path6225" />
    <path
       fill="#000000"
       d="M 134.0857,47.77207 V 28.693945 h 6.5625 q 2.23437,0 3.40625,0.265625 1.64062,0.375 2.79687,1.375 1.5,1.265625 2.25,3.25 0.75,1.984375 0.75,4.546875 0,2.171875 -0.51562,3.859375 -0.5,1.671875 -1.29688,2.78125 -0.78125,1.09375 -1.73437,1.71875 -0.9375,0.625 -2.28125,0.953125 -1.32813,0.328125 -3.0625,0.328125 z m 2.51562,-2.25 h 4.07813 q 1.89062,0 2.95312,-0.34375 1.07813,-0.359375 1.71875,-1 0.89063,-0.890625 1.39063,-2.40625 0.51562,-1.515625 0.51562,-3.6875 0,-2.984375 -0.98437,-4.59375 -0.98438,-1.609375 -2.39063,-2.15625 -1.01562,-0.390625 -3.26562,-0.390625 h -4.01563 z m 25.89092,-2.203125 2.42187,0.296875 q -0.57812,2.125 -2.125,3.296875 -1.54687,1.171875 -3.95312,1.171875 -3.03125,0 -4.8125,-1.859375 -1.78125,-1.875 -1.78125,-5.25 0,-3.484375 1.79687,-5.40625 1.79688,-1.9375 4.67188,-1.9375 2.76562,0 4.51562,1.890625 1.76563,1.890625 1.76563,5.3125 0,0.203125 -0.0156,0.625 h -10.3125 q 0.14063,2.28125 1.29688,3.5 1.15625,1.203125 2.89062,1.203125 1.28125,0 2.1875,-0.671875 0.92188,-0.6875 1.45313,-2.171875 z m -7.6875,-3.78125 h 7.71875 q -0.15625,-1.75 -0.89063,-2.625 -1.125,-1.34375 -2.90625,-1.34375 -1.60937,0 -2.71875,1.078125 -1.09375,1.078125 -1.20312,2.890625 z m 2.51562,-7.3125 1.73438,-3.640625 h 3.0625 l -2.85938,3.640625 z m 10.52807,20.84375 v -19.125 h 2.14062 v 1.796875 q 0.75,-1.046875 1.70313,-1.578125 0.95312,-0.53125 2.3125,-0.53125 1.76562,0 3.10937,0.921875 1.35938,0.90625 2.04688,2.5625 0.6875,1.65625 0.6875,3.640625 0,2.125 -0.76563,3.828125 -0.75,1.6875 -2.20312,2.59375 -1.45313,0.90625 -3.04688,0.90625 -1.17187,0 -2.10937,-0.484375 -0.92188,-0.5 -1.53125,-1.265625 v 6.734375 z m 2.125,-12.125 q 0,2.65625 1.07812,3.9375 1.09375,1.28125 2.625,1.28125 1.5625,0 2.67188,-1.3125 1.10937,-1.328125 1.10937,-4.109375 0,-2.640625 -1.09375,-3.953125 -1.07812,-1.3125 -2.59375,-1.3125 -1.48437,0 -2.64062,1.40625 -1.15625,1.390625 -1.15625,4.0625 z m 21.73118,5.125 q -1.3125,1.109375 -2.51562,1.5625 -1.20313,0.453125 -2.57813,0.453125 -2.28125,0 -3.5,-1.109375 -1.21875,-1.109375 -1.21875,-2.84375 0,-1.015625 0.45313,-1.859375 0.46875,-0.84375 1.21875,-1.34375 0.75,-0.515625 1.6875,-0.765625 0.6875,-0.1875 2.07812,-0.359375 2.82813,-0.328125 4.17188,-0.796875 0.0156,-0.484375 0.0156,-0.625 0,-1.421875 -0.65625,-2.015625 -0.90625,-0.796875 -2.67187,-0.796875 -1.65625,0 -2.45313,0.59375 -0.78125,0.578125 -1.15625,2.046875 l -2.29687,-0.3125 q 0.3125,-1.46875 1.03125,-2.375 0.71875,-0.90625 2.0625,-1.390625 1.35937,-0.5 3.14062,-0.5 1.78125,0 2.875,0.421875 1.10938,0.421875 1.625,1.046875 0.53125,0.625 0.73438,1.59375 0.125,0.59375 0.125,2.15625 v 3.125 q 0,3.265625 0.14062,4.140625 0.15625,0.859375 0.59375,1.65625 h -2.4375 q -0.375,-0.734375 -0.46875,-1.703125 z m -0.20312,-5.234375 q -1.26563,0.515625 -3.82813,0.890625 -1.4375,0.203125 -2.04687,0.46875 -0.59375,0.25 -0.92188,0.75 -0.3125,0.5 -0.3125,1.125 0,0.9375 0.70313,1.5625 0.70312,0.625 2.07812,0.625 1.34375,0 2.39063,-0.59375 1.0625,-0.59375 1.5625,-1.625 0.375,-0.796875 0.375,-2.34375 z m 5.98118,6.9375 V 33.943945 h 2.10938 v 2.09375 q 0.79687,-1.46875 1.48437,-1.9375 0.6875,-0.46875 1.5,-0.46875 1.1875,0 2.40625,0.765625 l -0.79687,2.171875 q -0.85938,-0.515625 -1.71875,-0.515625 -0.76563,0 -1.39063,0.46875 -0.60937,0.453125 -0.85937,1.28125 -0.39063,1.25 -0.39063,2.734375 v 7.234375 z m 14.01737,-2.09375 0.32812,2.0625 q -0.98437,0.21875 -1.76562,0.21875 -1.26563,0 -1.96875,-0.40625 -0.70313,-0.40625 -1,-1.0625 -0.28125,-0.65625 -0.28125,-2.765625 V 35.77207 h -1.71875 v -1.828125 h 1.71875 V 30.52207 l 2.32812,-1.40625 v 4.828125 h 2.35938 v 1.828125 h -2.35938 v 8.078125 q 0,1 0.125,1.296875 0.125,0.28125 0.40625,0.453125 0.28125,0.171875 0.79688,0.171875 0.39062,0 1.03125,-0.09375 z"
       fill-rule="nonzero"
       id="path6227" />
    <path
       fill="#cfe2f3"
       d="m 120.68619,587.7192 h 89.14582 v 0 c 11.67835,0 21.14553,12.76349 21.14553,28.508 0,15.74456 -9.46718,28.50805 -21.14553,28.50805 H 120.6862 v 0 c -11.67835,0 -21.14552,-12.76349 -21.14552,-28.50805 0,-15.74451 9.46717,-28.508 21.14551,-28.508 z"
       fill-rule="evenodd"
       id="path6229" />
    <path
       stroke="#000000"
       stroke-width="1"
       stroke-linejoin="round"
       stroke-linecap="butt"
       d="m 120.68619,587.7192 h 89.14582 v 0 c 11.67835,0 21.14553,12.76349 21.14553,28.508 0,15.74456 -9.46718,28.50805 -21.14553,28.50805 H 120.6862 v 0 c -11.67835,0 -21.14552,-12.76349 -21.14552,-28.50805 0,-15.74451 9.46717,-28.508 21.14551,-28.508 z"
       fill-rule="evenodd"
       id="path6231" />
    <path
       fill="#000000"
       d="m 148.9317,625.8272 v -19.07813 h 12.875 v 2.25 h -10.34375 v 5.90625 h 8.95312 v 2.25 h -8.95312 v 8.67188 z m 15.86082,-16.39063 v -2.6875 h 2.34375 v 2.6875 z m 0,16.39063 v -13.82813 h 2.34375 v 13.82813 z m 5.90656,0 v -13.82813 h 2.10937 v 1.96875 q 1.53125,-2.28125 4.40625,-2.28125 1.25,0 2.29688,0.45313 1.04687,0.45312 1.5625,1.1875 0.53125,0.71875 0.73437,1.71875 0.125,0.65625 0.125,2.28125 v 8.5 h -2.34375 v -8.40625 q 0,-1.4375 -0.28125,-2.14063 -0.26562,-0.71875 -0.96875,-1.14062 -0.6875,-0.42188 -1.625,-0.42188 -1.48437,0 -2.57812,0.95313 -1.09375,0.95312 -1.09375,3.60937 v 7.54688 z"
       fill-rule="nonzero"
       id="path6233" />
    <path
       fill="#000000"
       fill-opacity="0"
       d="M 172.02708,66.68011 V 93.861209"
       fill-rule="evenodd"
       id="path6235" />
    <path
       stroke="#000000"
       stroke-width="1"
       stroke-linejoin="round"
       stroke-linecap="butt"
       d="M 172.02708,66.6801 V 87.861214"
       fill-rule="evenodd"
       id="path6237" />
    <path
       fill="#000000"
       stroke="#000000"
       stroke-width="1"
       stroke-linecap="butt"
       d="m 170.37535,87.86121 1.65173,4.538094 1.65174,-4.538094 z"
       fill-rule="evenodd"
       id="path6239" />
    <path
       fill="#000000"
       fill-opacity="0"
       d="m 165.25911,552.31757 v 35.40161"
       fill-rule="evenodd"
       id="path6241" />
    <path
       stroke="#000000"
       stroke-width="1"
       stroke-linejoin="round"
       stroke-linecap="butt"
       d="m 165.25911,552.31757 v 29.40161"
       fill-rule="evenodd"
       id="path6243" />
    <path
       fill="#000000"
       stroke="#000000"
       stroke-width="1"
       stroke-linecap="butt"
       d="m 163.60738,581.7192 1.65173,4.53809 1.65174,-4.53809 z"
       fill-rule="evenodd"
       id="path6245" />
    <path
       fill="#cfe2f3"
       d="m 57.020996,252.81102 54.121264,-76.34645 h 216.48503 l -54.12125,76.34645 z"
       fill-rule="evenodd"
       id="path6247" />
    <path
       stroke="#000000"
       stroke-width="1"
       stroke-linejoin="round"
       stroke-linecap="butt"
       d="m 57.020996,252.81102 54.121264,-76.34645 h 216.48503 l -54.12125,76.34645 z"
       fill-rule="evenodd"
       id="path6249" />
    <path
       fill="#000000"
       d="m 122.25163,208.2378 v -19.07813 h 13.79687 v 2.25 h -11.26562 v 5.84375 h 10.54687 v 2.23438 h -10.54687 v 6.5 H 136.486 v 2.25 z m 17.42013,0 v -13.82813 h 2.10938 v 1.96875 q 1.53125,-2.28125 4.40625,-2.28125 1.25,0 2.29687,0.45313 1.04688,0.45312 1.5625,1.1875 0.53125,0.71875 0.73438,1.71875 0.125,0.65625 0.125,2.28125 v 8.5 h -2.34375 v -8.40625 q 0,-1.4375 -0.28125,-2.14063 -0.26563,-0.71875 -0.96875,-1.14062 -0.6875,-0.42188 -1.625,-0.42188 -1.48438,0 -2.57813,0.95313 -1.09375,0.95312 -1.09375,3.60937 v 7.54688 z m 19.94994,-2.09375 0.32813,2.0625 q -0.98438,0.21875 -1.76563,0.21875 -1.26562,0 -1.96875,-0.40625 -0.70312,-0.40625 -1,-1.0625 -0.28125,-0.65625 -0.28125,-2.76563 v -7.95312 h -1.71875 v -1.82813 h 1.71875 v -3.42187 l 2.32813,-1.40625 v 4.82812 h 2.35937 v 1.82813 h -2.35937 v 8.07812 q 0,1 0.125,1.29688 0.125,0.28125 0.40625,0.45312 0.28125,0.17188 0.79687,0.17188 0.39063,0 1.03125,-0.0937 z m 2.26534,2.09375 v -13.82813 h 2.10937 v 2.09375 q 0.79688,-1.46875 1.48438,-1.9375 0.6875,-0.46875 1.5,-0.46875 1.1875,0 2.40625,0.76563 l -0.79688,2.17187 q -0.85937,-0.51562 -1.71875,-0.51562 -0.76562,0 -1.39062,0.46875 -0.60938,0.45312 -0.85938,1.28125 -0.39062,1.25 -0.39062,2.73437 v 7.23438 z m 18.36111,-4.45313 2.42188,0.29688 q -0.57813,2.125 -2.125,3.29687 -1.54688,1.17188 -3.95313,1.17188 -3.03125,0 -4.8125,-1.85938 -1.78125,-1.875 -1.78125,-5.25 0,-3.48437 1.79688,-5.40625 1.79687,-1.9375 4.67187,-1.9375 2.76563,0 4.51563,1.89063 1.76562,1.89062 1.76562,5.3125 0,0.20312 -0.0156,0.625 h -10.3125 q 0.14062,2.28125 1.29687,3.5 1.15625,1.20312 2.89063,1.20312 1.28125,0 2.1875,-0.67187 0.92187,-0.6875 1.45312,-2.17188 z m -7.6875,-3.78125 h 7.71875 q -0.15625,-1.75 -0.89062,-2.625 -1.125,-1.34375 -2.90625,-1.34375 -1.60938,0 -2.71875,1.07813 -1.09375,1.07812 -1.20313,2.89062 z m 2.51563,-7.3125 1.73437,-3.64062 h 3.0625 l -2.85937,3.64062 z m 19.99681,11.09375 2.42187,0.29688 q -0.57812,2.125 -2.125,3.29687 -1.54687,1.17188 -3.95312,1.17188 -3.03125,0 -4.8125,-1.85938 -1.78125,-1.875 -1.78125,-5.25 0,-3.48437 1.79687,-5.40625 1.79688,-1.9375 4.67188,-1.9375 2.76562,0 4.51562,1.89063 1.76563,1.89062 1.76563,5.3125 0,0.20312 -0.0156,0.625 h -10.3125 q 0.14063,2.28125 1.29688,3.5 1.15625,1.20312 2.89062,1.20312 1.28125,0 2.1875,-0.67187 0.92188,-0.6875 1.45313,-2.17188 z m -7.6875,-3.78125 h 7.71875 q -0.15625,-1.75 -0.89063,-2.625 -1.125,-1.34375 -2.90625,-1.34375 -1.60937,0 -2.71875,1.07813 -1.09375,1.07812 -1.20312,2.89062 z m 21.10589,-2.92187 v -2.67188 h 2.67188 v 2.67188 z m 0,11.15625 v -2.67188 h 2.67188 v 2.67188 z"
       fill-rule="nonzero"
       id="path6251" />
    <path
       fill="#000000"
       d="m 130.92351,238.53467 q -1.3125,1.10937 -2.51563,1.5625 -1.20312,0.45312 -2.57812,0.45312 -2.28125,0 -3.5,-1.10937 -1.21875,-1.10938 -1.21875,-2.84375 0,-1.01563 0.45312,-1.85938 0.46875,-0.84375 1.21875,-1.34375 0.75,-0.51562 1.6875,-0.76562 0.6875,-0.1875 2.07813,-0.35938 2.82812,-0.32812 4.17187,-0.79687 0.0156,-0.48438 0.0156,-0.625 0,-1.42188 -0.65625,-2.01563 -0.90625,-0.79687 -2.67188,-0.79687 -1.65625,0 -2.45312,0.59375 -0.78125,0.57812 -1.15625,2.04687 l -2.29688,-0.3125 q 0.3125,-1.46875 1.03125,-2.375 0.71875,-0.90625 2.0625,-1.39062 1.35938,-0.5 3.14063,-0.5 1.78125,0 2.875,0.42187 1.10937,0.42188 1.625,1.04688 0.53125,0.625 0.73437,1.59375 0.125,0.59375 0.125,2.15625 v 3.125 q 0,3.26562 0.14063,4.14062 0.15625,0.85938 0.59375,1.65625 h -2.4375 q -0.375,-0.73437 -0.46875,-1.70312 z m -0.20313,-5.23438 q -1.26562,0.51563 -3.82812,0.89063 -1.4375,0.20312 -2.04688,0.46875 -0.59375,0.25 -0.92187,0.75 -0.3125,0.5 -0.3125,1.125 0,0.9375 0.70312,1.5625 0.70313,0.625 2.07813,0.625 1.34375,0 2.39062,-0.59375 1.0625,-0.59375 1.5625,-1.625 0.375,-0.79688 0.375,-2.34375 z m 5.57494,8.07813 2.28125,0.34375 q 0.14063,1.04687 0.79688,1.53125 0.85937,0.65625 2.375,0.65625 1.625,0 2.5,-0.65625 0.89062,-0.64063 1.20312,-1.8125 0.1875,-0.71875 0.17188,-3.01563 -1.53125,1.8125 -3.82813,1.8125 -2.84375,0 -4.40625,-2.04687 -1.5625,-2.0625 -1.5625,-4.9375 0,-1.98438 0.71875,-3.65625 0.71875,-1.67188 2.07813,-2.57813 1.35937,-0.92187 3.1875,-0.92187 2.45312,0 4.03125,1.98437 v -1.67187 h 2.17187 v 11.95312 q 0,3.23438 -0.65625,4.57813 -0.65625,1.34375 -2.09375,2.125 -1.42187,0.78125 -3.5,0.78125 -2.46875,0 -4,-1.10938 -1.51562,-1.10937 -1.46875,-3.35937 z m 1.9375,-8.29688 q 0,2.71875 1.07813,3.96875 1.07812,1.25 2.70312,1.25 1.625,0 2.71875,-1.23437 1.09375,-1.25 1.09375,-3.90625 0,-2.54688 -1.125,-3.82813 -1.125,-1.29687 -2.71875,-1.29687 -1.5625,0 -2.65625,1.28125 -1.09375,1.26562 -1.09375,3.76562 z m 22.77806,2.70313 2.42188,0.29687 q -0.57813,2.125 -2.125,3.29688 -1.54688,1.17187 -3.95313,1.17187 -3.03125,0 -4.8125,-1.85937 -1.78125,-1.875 -1.78125,-5.25 0,-3.48438 1.79688,-5.40625 1.79687,-1.9375 4.67187,-1.9375 2.76563,0 4.51563,1.89062 1.76562,1.89063 1.76562,5.3125 0,0.20313 -0.0156,0.625 h -10.3125 q 0.14062,2.28125 1.29687,3.5 1.15625,1.20313 2.89063,1.20313 1.28125,0 2.1875,-0.67188 0.92187,-0.6875 1.45312,-2.17187 z m -7.6875,-3.78125 h 7.71875 q -0.15625,-1.75 -0.89062,-2.625 -1.125,-1.34375 -2.90625,-1.34375 -1.60938,0 -2.71875,1.07812 -1.09375,1.07813 -1.20313,2.89063 z"
       fill-rule="nonzero"
       id="path6253" />
    <path
       fill="#cfe2f3"
       d="M 83.115486,93.06431 H 301.53282 v 57.01574 H 83.115486 Z"
       fill-rule="evenodd"
       id="path6255" />
    <path
       fill="#000000"
       fill-opacity="0"
       d="m 110.41765,93.06431 v 57.01574 M 83.115488,100.19128 H 301.53282"
       fill-rule="evenodd"
       id="path6257" />
    <path
       fill="#000000"
       fill-opacity="0"
       d="M 83.115486,93.06431 H 301.53282 v 57.01574 H 83.115486 Z"
       fill-rule="evenodd"
       id="path6259" />
    <path
       stroke="#000000"
       stroke-width="1"
       stroke-linejoin="round"
       stroke-linecap="butt"
       d="m 110.41765,93.06431 v 57.01574 M 83.115488,100.19128 H 301.53282"
       fill-rule="evenodd"
       id="path6261" />
    <path
       stroke="#000000"
       stroke-width="1"
       stroke-linejoin="round"
       stroke-linecap="butt"
       d="M 83.115486,93.06431 H 301.53282 v 57.01574 H 83.115486 Z"
       fill-rule="evenodd"
       id="path6263" />
    <path
       fill="#000000"
       d="m 121.4489,134.73566 v -19.07812 h 2.59375 l 10.01562,14.98437 v -14.98437 h 2.42188 v 19.07812 h -2.59375 l -10.01563,-14.99999 v 14.99999 z m 28.03154,0 v -2.03125 q -1.60938,2.34375 -4.375,2.34375 -1.23438,0 -2.29688,-0.46875 -1.0625,-0.46875 -1.57812,-1.17188 -0.5,-0.71875 -0.71875,-1.75 -0.14063,-0.6875 -0.14063,-2.1875 v -8.56249 h 2.34375 v 7.67187 q 0,1.82813 0.14063,2.46875 0.21875,0.92188 0.9375,1.45313 0.71875,0.53125 1.76562,0.53125 1.0625,0 1.98438,-0.53125 0.92187,-0.54688 1.29687,-1.46875 0.39063,-0.9375 0.39063,-2.71875 v -7.40625 h 2.34375 v 13.82812 z m 5.76244,0 v -13.82812 h 2.10937 v 1.9375 q 0.64063,-1.01562 1.71875,-1.625 1.09375,-0.625 2.46875,-0.625 1.53125,0 2.51563,0.64063 0.98437,0.64062 1.39062,1.78125 1.64063,-2.42188 4.26563,-2.42188 2.0625,0 3.15625,1.14063 1.10937,1.14062 1.10937,3.51562 v 9.48437 h -2.32812 v -8.70312 q 0,-1.40625 -0.23438,-2.01562 -0.21875,-0.625 -0.82812,-1 -0.59375,-0.39063 -1.39063,-0.39063 -1.46875,0 -2.4375,0.96875 -0.95312,0.96875 -0.95312,3.10938 v 8.03124 h -2.34375 v -8.98437 q 0,-1.5625 -0.57813,-2.34375 -0.5625,-0.78125 -1.875,-0.78125 -0.98437,0 -1.82812,0.53125 -0.82813,0.51563 -1.21875,1.51563 -0.375,1 -0.375,2.89062 v 7.17187 z m 24.37674,0 h -2.17188 v -19.07812 h 2.34375 v 6.79688 q 1.48438,-1.85938 3.78125,-1.85938 1.28125,0 2.40625,0.51563 1.14063,0.51562 1.875,1.45312 0.75,0.92188 1.15625,2.25 0.42188,1.3125 0.42188,2.79688 0,3.56249 -1.76563,5.49999 -1.75,1.9375 -4.21875,1.9375 -2.4375,0 -3.82812,-2.04687 z m -0.0312,-7.01562 q 0,2.48437 0.67187,3.59374 1.10938,1.8125 3,1.8125 1.53125,0 2.65625,-1.32812 1.125,-1.34375 1.125,-3.98437 0,-2.70312 -1.07812,-3.98437 -1.07813,-1.29688 -2.59375,-1.29688 -1.54688,0 -2.67188,1.32813 -1.10937,1.32812 -1.10937,3.85937 z m 22.15306,2.56249 2.42187,0.29688 q -0.57812,2.125 -2.125,3.29687 -1.54687,1.17188 -3.95312,1.17188 -3.03125,0 -4.8125,-1.85938 -1.78125,-1.875 -1.78125,-5.24999 0,-3.48437 1.79687,-5.40625 1.79688,-1.9375 4.67188,-1.9375 2.76562,0 4.51562,1.89063 1.76563,1.89062 1.76563,5.3125 0,0.20311 -0.0156,0.62499 h -10.3125 q 0.14063,2.28125 1.29688,3.5 1.15625,1.20312 2.89062,1.20312 1.28125,0 2.1875,-0.67187 0.92188,-0.6875 1.45313,-2.17188 z m -7.6875,-3.78124 h 7.71875 q -0.15625,-1.75 -0.89063,-2.625 -1.125,-1.34375 -2.90625,-1.34375 -1.60937,0 -2.71875,1.07813 -1.09375,1.07812 -1.20312,2.89062 z m 13.02806,8.23437 v -13.82812 h 2.10937 v 2.09375 q 0.79688,-1.46875 1.48438,-1.9375 0.6875,-0.46875 1.5,-0.46875 1.1875,0 2.40625,0.76563 l -0.79688,2.17187 q -0.85937,-0.51562 -1.71875,-0.51562 -0.76562,0 -1.39062,0.46875 -0.60938,0.45312 -0.85938,1.28125 -0.39062,1.25 -0.39062,2.73437 v 7.23437 z m 25.32957,-1.70313 q -1.3125,1.10938 -2.51562,1.5625 -1.20313,0.45313 -2.57813,0.45313 -2.28125,0 -3.5,-1.10938 -1.21875,-1.10937 -1.21875,-2.84375 0,-1.01562 0.45313,-1.85937 0.46875,-0.84375 1.21875,-1.34374 0.75,-0.51563 1.6875,-0.76563 0.6875,-0.1875 2.07812,-0.35937 2.82813,-0.32813 4.17188,-0.79688 0.0156,-0.48437 0.0156,-0.625 0,-1.42187 -0.65625,-2.01562 -0.90625,-0.79688 -2.67187,-0.79688 -1.65625,0 -2.45313,0.59375 -0.78125,0.57813 -1.15625,2.04688 l -2.29687,-0.3125 q 0.3125,-1.46875 1.03125,-2.375 0.71875,-0.90625 2.0625,-1.39063 1.35937,-0.5 3.14062,-0.5 1.78125,0 2.875,0.42188 1.10938,0.42187 1.625,1.04687 0.53125,0.625 0.73438,1.59375 0.125,0.59375 0.125,2.15625 v 3.12499 q 0,3.26563 0.14062,4.14063 0.15625,0.85937 0.59375,1.65625 h -2.4375 q -0.375,-0.73438 -0.46875,-1.70313 z m -0.20312,-5.23436 q -1.26563,0.51561 -3.82813,0.89061 -1.4375,0.20313 -2.04687,0.46875 -0.59375,0.25 -0.92188,0.75 -0.3125,0.5 -0.3125,1.125 0,0.9375 0.70313,1.5625 0.70312,0.625 2.07812,0.625 1.34375,0 2.39063,-0.59375 1.0625,-0.59375 1.5625,-1.625 0.375,-0.79687 0.375,-2.34375 z m 5.57493,8.07811 2.28125,0.34375 q 0.14063,1.04688 0.79688,1.53125 0.85937,0.65625 2.375,0.65625 1.625,0 2.5,-0.65625 0.89062,-0.64062 1.20312,-1.8125 0.1875,-0.71875 0.17188,-3.01562 -1.53125,1.8125 -3.82813,1.8125 -2.84375,0 -4.40625,-2.04688 -1.5625,-2.0625 -1.5625,-4.93749 0,-1.98437 0.71875,-3.65625 0.71875,-1.67187 2.07813,-2.57812 1.35937,-0.92188 3.1875,-0.92188 2.45312,0 4.03125,1.98438 v -1.67188 h 2.17187 v 11.95312 q 0,3.23437 -0.65625,4.57812 -0.65625,1.34375 -2.09375,2.125 -1.42187,0.78125 -3.5,0.78125 -2.46875,0 -4,-1.10937 -1.51562,-1.10938 -1.46875,-3.35938 z m 1.9375,-8.29686 q 0,2.71874 1.07813,3.96874 1.07812,1.25 2.70312,1.25 1.625,0 2.71875,-1.23438 1.09375,-1.25 1.09375,-3.90624 0,-2.54687 -1.125,-3.82812 -1.125,-1.29688 -2.71875,-1.29688 -1.5625,0 -2.65625,1.28125 -1.09375,1.26563 -1.09375,3.76563 z m 22.77806,2.70311 2.42188,0.29688 q -0.57813,2.125 -2.125,3.29687 -1.54688,1.17188 -3.95313,1.17188 -3.03125,0 -4.8125,-1.85938 -1.78125,-1.875 -1.78125,-5.24999 0,-3.48437 1.79688,-5.40625 1.79687,-1.9375 4.67187,-1.9375 2.76563,0 4.51563,1.89063 1.76562,1.89062 1.76562,5.3125 0,0.20311 -0.0156,0.62499 h -10.3125 q 0.14062,2.28125 1.29687,3.5 1.15625,1.20312 2.89063,1.20312 1.28125,0 2.1875,-0.67187 0.92187,-0.6875 1.45312,-2.17188 z m -7.6875,-3.78124 h 7.71875 q -0.15625,-1.75 -0.89062,-2.625 -1.125,-1.34375 -2.90625,-1.34375 -1.60938,0 -2.71875,1.07813 -1.09375,1.07812 -1.20313,2.89062 z"
       fill-rule="nonzero"
       id="path6265" />
    <path
       fill="#000000"
       fill-opacity="0"
       d="m 360.48294,164.86482 h 292.832 v 99.54332 h -292.832 z"
       fill-rule="evenodd"
       id="path6267" />
    <path
       stroke="#000000"
       stroke-width="1"
       stroke-linejoin="round"
       stroke-linecap="butt"
       stroke-dasharray="1, 3"
       d="m 360.48294,164.86482 h 292.832 v 99.54332 h -292.832 z"
       fill-rule="evenodd"
       id="path6269" />
    <path
       fill="#000000"
       d="m 380.2642,190.53336 q -1.3125,1.10937 -2.51562,1.5625 -1.20313,0.45312 -2.57813,0.45312 -2.28125,0 -3.5,-1.10937 -1.21875,-1.10938 -1.21875,-2.84375 0,-1.01563 0.45313,-1.85938 0.46875,-0.84375 1.21875,-1.34375 0.75,-0.51562 1.6875,-0.76562 0.6875,-0.1875 2.07812,-0.35938 2.82813,-0.32812 4.17188,-0.79687 0.0156,-0.48438 0.0156,-0.625 0,-1.42188 -0.65625,-2.01563 -0.90625,-0.79687 -2.67187,-0.79687 -1.65625,0 -2.45313,0.59375 -0.78125,0.57812 -1.15625,2.04687 l -2.29687,-0.3125 q 0.3125,-1.46875 1.03125,-2.375 0.71875,-0.90625 2.0625,-1.39062 1.35937,-0.5 3.14062,-0.5 1.78125,0 2.875,0.42187 1.10938,0.42188 1.625,1.04688 0.53125,0.625 0.73438,1.59375 0.125,0.59375 0.125,2.15625 v 3.125 q 0,3.26562 0.14062,4.14062 0.15625,0.85938 0.59375,1.65625 h -2.4375 q -0.375,-0.73437 -0.46875,-1.70312 z m -0.20312,-5.23438 q -1.26563,0.51563 -3.82813,0.89063 -1.4375,0.20312 -2.04687,0.46875 -0.59375,0.25 -0.92188,0.75 -0.3125,0.5 -0.3125,1.125 0,0.9375 0.70313,1.5625 0.70312,0.625 2.07812,0.625 1.34375,0 2.39063,-0.59375 1.0625,-0.59375 1.5625,-1.625 0.375,-0.79688 0.375,-2.34375 z m 5.05929,2.8125 2.32813,-0.35937 q 0.1875,1.39062 1.07812,2.14062 0.89063,0.73438 2.5,0.73438 1.60938,0 2.39063,-0.65625 0.78125,-0.65625 0.78125,-1.54688 0,-0.79687 -0.6875,-1.25 -0.48438,-0.3125 -2.39063,-0.79687 -2.57812,-0.65625 -3.57812,-1.125 -1,-0.46875 -1.51563,-1.3125 -0.51562,-0.84375 -0.51562,-1.85938 0,-0.92187 0.42187,-1.70312 0.4375,-0.79688 1.15625,-1.3125 0.54688,-0.40625 1.48438,-0.6875 0.95312,-0.28125 2.03125,-0.28125 1.625,0 2.85937,0.46875 1.23438,0.46875 1.8125,1.28125 0.59375,0.79687 0.8125,2.14062 l -2.29687,0.3125 q -0.15625,-1.07812 -0.90625,-1.67187 -0.75,-0.59375 -2.10938,-0.59375 -1.60937,0 -2.3125,0.53125 -0.6875,0.53125 -0.6875,1.25 0,0.45312 0.29688,0.8125 0.28125,0.375 0.89062,0.625 0.35938,0.14062 2.07813,0.60937 2.48437,0.65625 3.46875,1.07813 0.98437,0.42187 1.53125,1.23437 0.5625,0.79688 0.5625,2 0,1.17188 -0.6875,2.21875 -0.67188,1.03125 -1.96875,1.59375 -1.28125,0.5625 -2.90625,0.5625 -2.70313,0 -4.125,-1.10937 -1.40625,-1.125 -1.79688,-3.32813 z m 13.32813,0 2.32812,-0.35937 q 0.1875,1.39062 1.07813,2.14062 0.89062,0.73438 2.5,0.73438 1.60937,0 2.39062,-0.65625 0.78125,-0.65625 0.78125,-1.54688 0,-0.79687 -0.6875,-1.25 -0.48437,-0.3125 -2.39062,-0.79687 -2.57813,-0.65625 -3.57813,-1.125 -1,-0.46875 -1.51562,-1.3125 -0.51563,-0.84375 -0.51563,-1.85938 0,-0.92187 0.42188,-1.70312 0.4375,-0.79688 1.15625,-1.3125 0.54687,-0.40625 1.48437,-0.6875 0.95313,-0.28125 2.03125,-0.28125 1.625,0 2.85938,0.46875 1.23437,0.46875 1.8125,1.28125 0.59375,0.79687 0.8125,2.14062 l -2.29688,0.3125 q -0.15625,-1.07812 -0.90625,-1.67187 -0.75,-0.59375 -2.10937,-0.59375 -1.60938,0 -2.3125,0.53125 -0.6875,0.53125 -0.6875,1.25 0,0.45312 0.29687,0.8125 0.28125,0.375 0.89063,0.625 0.35937,0.14062 2.07812,0.60937 2.48438,0.65625 3.46875,1.07813 0.98438,0.42187 1.53125,1.23437 0.5625,0.79688 0.5625,2 0,1.17188 -0.6875,2.21875 -0.67187,1.03125 -1.96875,1.59375 -1.28125,0.5625 -2.90625,0.5625 -2.70312,0 -4.125,-1.10937 -1.40625,-1.125 -1.79687,-3.32813 z m 14.28125,-12.26562 v -2.6875 h 2.34375 v 2.6875 z m 0,16.39062 v -13.82812 h 2.34375 v 13.82812 z m 5.48468,1.14063 2.28125,0.34375 q 0.14062,1.04687 0.79687,1.53125 0.85938,0.65625 2.375,0.65625 1.625,0 2.5,-0.65625 0.89063,-0.64063 1.20313,-1.8125 0.1875,-0.71875 0.17187,-3.01563 -1.53125,1.8125 -3.82812,1.8125 -2.84375,0 -4.40625,-2.04687 -1.5625,-2.0625 -1.5625,-4.9375 0,-1.98438 0.71875,-3.65625 0.71875,-1.67188 2.07812,-2.57813 1.35938,-0.92187 3.1875,-0.92187 2.45313,0 4.03125,1.98437 v -1.67187 h 2.17188 v 11.95312 q 0,3.23438 -0.65625,4.57813 -0.65625,1.34375 -2.09375,2.125 -1.42188,0.78125 -3.5,0.78125 -2.46875,0 -4,-1.10938 -1.51563,-1.10937 -1.46875,-3.35937 z m 1.9375,-8.29688 q 0,2.71875 1.07812,3.96875 1.07813,1.25 2.70313,1.25 1.625,0 2.71875,-1.23437 1.09375,-1.25 1.09375,-3.90625 0,-2.54688 -1.125,-3.82813 -1.125,-1.29687 -2.71875,-1.29687 -1.5625,0 -2.65625,1.28125 -1.09375,1.26562 -1.09375,3.76562 z m 13.30929,7.15625 v -13.82812 h 2.10938 v 1.96875 q 1.53125,-2.28125 4.40625,-2.28125 1.25,0 2.29687,0.45312 1.04688,0.45313 1.5625,1.1875 0.53125,0.71875 0.73438,1.71875 0.125,0.65625 0.125,2.28125 v 8.5 h -2.34375 v -8.40625 q 0,-1.4375 -0.28125,-2.14062 -0.26563,-0.71875 -0.96875,-1.14063 -0.6875,-0.42187 -1.625,-0.42187 -1.48438,0 -2.57813,0.95312 -1.09375,0.95313 -1.09375,3.60938 v 7.54687 z m 24.2937,-4.45312 2.42188,0.29687 q -0.57813,2.125 -2.125,3.29688 -1.54688,1.17187 -3.95313,1.17187 -3.03125,0 -4.8125,-1.85937 -1.78125,-1.875 -1.78125,-5.25 0,-3.48438 1.79688,-5.40625 1.79687,-1.9375 4.67187,-1.9375 2.76563,0 4.51563,1.89062 1.76562,1.89063 1.76562,5.3125 0,0.20313 -0.0156,0.625 h -10.3125 q 0.14062,2.28125 1.29687,3.5 1.15625,1.20313 2.89063,1.20313 1.28125,0 2.1875,-0.67188 0.92187,-0.6875 1.45312,-2.17187 z m -7.6875,-3.78125 h 7.71875 q -0.15625,-1.75 -0.89062,-2.625 -1.125,-1.34375 -2.90625,-1.34375 -1.60938,0 -2.71875,1.07812 -1.09375,1.07813 -1.20313,2.89063 z m 13.02805,8.23437 v -13.82812 h 2.10937 v 2.09375 q 0.79688,-1.46875 1.48438,-1.9375 0.6875,-0.46875 1.5,-0.46875 1.1875,0 2.40625,0.76562 l -0.79688,2.17188 q -0.85937,-0.51563 -1.71875,-0.51563 -0.76562,0 -1.39062,0.46875 -0.60938,0.45313 -0.85938,1.28125 -0.39062,1.25 -0.39062,2.73438 v 7.23437 z m 16.25146,0 v -19.07812 h 2.34375 v 19.07812 z m 5.98465,-12.32812 -0.59375,-3.5625 v -3.1875 h 2.67188 v 3.1875 l -0.625,3.5625 z m 14.5423,7.875 2.42188,0.29687 q -0.57813,2.125 -2.125,3.29688 -1.54688,1.17187 -3.95313,1.17187 -3.03125,0 -4.8125,-1.85937 -1.78125,-1.875 -1.78125,-5.25 0,-3.48438 1.79688,-5.40625 1.79687,-1.9375 4.67187,-1.9375 2.76563,0 4.51563,1.89062 1.76562,1.89063 1.76562,5.3125 0,0.20313 -0.0156,0.625 h -10.3125 q 0.14062,2.28125 1.29687,3.5 1.15625,1.20313 2.89063,1.20313 1.28125,0 2.1875,-0.67188 0.92187,-0.6875 1.45312,-2.17187 z m -7.6875,-3.78125 h 7.71875 q -0.15625,-1.75 -0.89062,-2.625 -1.125,-1.34375 -2.90625,-1.34375 -1.60938,0 -2.71875,1.07812 -1.09375,1.07813 -1.20313,2.89063 z m 13.04367,8.23437 v -13.82812 h 2.10938 v 1.96875 q 1.53125,-2.28125 4.40625,-2.28125 1.25,0 2.29687,0.45312 1.04688,0.45313 1.5625,1.1875 0.53125,0.71875 0.73438,1.71875 0.125,0.65625 0.125,2.28125 v 8.5 h -2.34375 v -8.40625 q 0,-1.4375 -0.28125,-2.14062 -0.26563,-0.71875 -0.96875,-1.14063 -0.6875,-0.42187 -1.625,-0.42187 -1.48438,0 -2.57813,0.95312 -1.09375,0.95313 -1.09375,3.60938 v 7.54687 z m 19.94995,-2.09375 0.32813,2.0625 q -0.98438,0.21875 -1.76563,0.21875 -1.26562,0 -1.96875,-0.40625 -0.70312,-0.40625 -1,-1.0625 -0.28125,-0.65625 -0.28125,-2.76562 v -7.95313 h -1.71875 v -1.82812 h 1.71875 v -3.42188 l 2.32813,-1.40625 v 4.82813 H 525.18 v 1.82812 h -2.35937 v 8.07813 q 0,1 0.125,1.29687 0.125,0.28125 0.40625,0.45313 0.28125,0.17187 0.79687,0.17187 0.39063,0 1.03125,-0.0937 z m 2.26532,2.09375 v -13.82812 h 2.10938 v 2.09375 q 0.79687,-1.46875 1.48437,-1.9375 0.6875,-0.46875 1.5,-0.46875 1.1875,0 2.40625,0.76562 l -0.79687,2.17188 q -0.85938,-0.51563 -1.71875,-0.51563 -0.76563,0 -1.39063,0.46875 -0.60937,0.45313 -0.85937,1.28125 -0.39063,1.25 -0.39063,2.73438 v 7.23437 z m 18.36115,-4.45312 2.42187,0.29687 q -0.57812,2.125 -2.125,3.29688 -1.54687,1.17187 -3.95312,1.17187 -3.03125,0 -4.8125,-1.85937 -1.78125,-1.875 -1.78125,-5.25 0,-3.48438 1.79687,-5.40625 1.79688,-1.9375 4.67188,-1.9375 2.76562,0 4.51562,1.89062 1.76563,1.89063 1.76563,5.3125 0,0.20313 -0.0156,0.625 h -10.3125 q 0.14063,2.28125 1.29688,3.5 1.15625,1.20313 2.89062,1.20313 1.28125,0 2.1875,-0.67188 0.92188,-0.6875 1.45313,-2.17187 z m -7.6875,-3.78125 h 7.71875 q -0.15625,-1.75 -0.89063,-2.625 -1.125,-1.34375 -2.90625,-1.34375 -1.60937,0 -2.71875,1.07812 -1.09375,1.07813 -1.20312,2.89063 z m 2.51562,-7.3125 1.73438,-3.64063 h 3.0625 l -2.85938,3.64063 z m 19.99677,11.09375 2.42187,0.29687 q -0.57812,2.125 -2.125,3.29688 -1.54687,1.17187 -3.95312,1.17187 -3.03125,0 -4.8125,-1.85937 -1.78125,-1.875 -1.78125,-5.25 0,-3.48438 1.79687,-5.40625 1.79688,-1.9375 4.67188,-1.9375 2.76562,0 4.51562,1.89062 1.76563,1.89063 1.76563,5.3125 0,0.20313 -0.0156,0.625 h -10.3125 q 0.14063,2.28125 1.29688,3.5 1.15625,1.20313 2.89062,1.20313 1.28125,0 2.1875,-0.67188 0.92188,-0.6875 1.45313,-2.17187 z m -7.6875,-3.78125 h 7.71875 q -0.15625,-1.75 -0.89063,-2.625 -1.125,-1.34375 -2.90625,-1.34375 -1.60937,0 -2.71875,1.07812 -1.09375,1.07813 -1.20312,2.89063 z m 29.41839,8.23437 v -1.75 q -1.3125,2.0625 -3.85937,2.0625 -1.65625,0 -3.04688,-0.90625 -1.375,-0.92187 -2.14062,-2.54687 -0.76563,-1.64063 -0.76563,-3.75 0,-2.07813 0.6875,-3.76563 0.70313,-1.6875 2.07813,-2.57812 1.375,-0.90625 3.07812,-0.90625 1.25,0 2.21875,0.53125 0.98438,0.53125 1.59375,1.375 v -6.84375 h 2.34375 v 19.07812 z m -7.40625,-6.89062 q 0,2.64062 1.125,3.96875 1.125,1.3125 2.64063,1.3125 1.53125,0 2.60937,-1.25 1.07813,-1.26563 1.07813,-3.84375 0,-2.84375 -1.09375,-4.17188 -1.09375,-1.32812 -2.70313,-1.32812 -1.54687,0 -2.60937,1.28125 -1.04688,1.28125 -1.04688,4.03125 z m 22.7312,2.4375 2.42188,0.29687 q -0.57813,2.125 -2.125,3.29688 -1.54688,1.17187 -3.95313,1.17187 -3.03125,0 -4.8125,-1.85937 -1.78125,-1.875 -1.78125,-5.25 0,-3.48438 1.79688,-5.40625 1.79687,-1.9375 4.67187,-1.9375 2.76563,0 4.51563,1.89062 1.76562,1.89063 1.76562,5.3125 0,0.20313 -0.0156,0.625 h -10.3125 q 0.14062,2.28125 1.29687,3.5 1.15625,1.20313 2.89063,1.20313 1.28125,0 2.1875,-0.67188 0.92187,-0.6875 1.45312,-2.17187 z m -7.6875,-3.78125 h 7.71875 q -0.15625,-1.75 -0.89062,-2.625 -1.125,-1.34375 -2.90625,-1.34375 -1.60938,0 -2.71875,1.07812 -1.09375,1.07813 -1.20313,2.89063 z"
       fill-rule="nonzero"
       id="path6271" />
    <path
       fill="#000000"
       d="m 371.18607,224.23648 v -19.07813 h 2.34375 v 19.07813 z m 5.98465,-12.32813 -0.59375,-3.5625 v -3.1875 h 2.67187 v 3.1875 l -0.625,3.5625 z m 14.13605,12.32813 v -2.03125 q -1.60938,2.34375 -4.375,2.34375 -1.23438,0 -2.29688,-0.46875 -1.0625,-0.46875 -1.57812,-1.17188 -0.5,-0.71875 -0.71875,-1.75 -0.14063,-0.6875 -0.14063,-2.1875 v -8.5625 h 2.34375 v 7.67188 q 0,1.82812 0.14063,2.46875 0.21875,0.92187 0.9375,1.45312 0.71875,0.53125 1.76562,0.53125 1.0625,0 1.98438,-0.53125 0.92187,-0.54687 1.29687,-1.46875 0.39063,-0.9375 0.39063,-2.71875 v -7.40625 h 2.34375 v 13.82813 z m 10.88742,-2.09375 0.32812,2.0625 q -0.98437,0.21875 -1.76562,0.21875 -1.26563,0 -1.96875,-0.40625 -0.70313,-0.40625 -1,-1.0625 -0.28125,-0.65625 -0.28125,-2.76563 v -7.95312 h -1.71875 v -1.82813 h 1.71875 v -3.42187 l 2.32812,-1.40625 v 4.82812 h 2.35938 v 1.82813 h -2.35938 v 8.07812 q 0,1 0.125,1.29688 0.125,0.28125 0.40625,0.45312 0.28125,0.17188 0.79688,0.17188 0.39062,0 1.03125,-0.0937 z m 2.2966,-14.29688 v -2.6875 h 2.34375 v 2.6875 z m 0,16.39063 v -13.82813 h 2.34375 v 13.82813 z m 5.85965,0 v -19.07813 h 2.34375 v 19.07813 z m 5.98468,-16.39063 v -2.6875 h 2.34375 v 2.6875 z m 0,16.39063 v -13.82813 h 2.34375 v 13.82813 z m 4.96902,-4.125 2.32813,-0.35938 q 0.1875,1.39063 1.07812,2.14063 0.89063,0.73437 2.5,0.73437 1.60938,0 2.39063,-0.65625 0.78125,-0.65625 0.78125,-1.54687 0,-0.79688 -0.6875,-1.25 -0.48438,-0.3125 -2.39063,-0.79688 -2.57812,-0.65625 -3.57812,-1.125 -1,-0.46875 -1.51563,-1.3125 -0.51562,-0.84375 -0.51562,-1.85937 0,-0.92188 0.42187,-1.70313 0.4375,-0.79687 1.15625,-1.3125 0.54688,-0.40625 1.48438,-0.6875 0.95312,-0.28125 2.03125,-0.28125 1.625,0 2.85937,0.46875 1.23438,0.46875 1.8125,1.28125 0.59375,0.79688 0.8125,2.14063 l -2.29687,0.3125 q -0.15625,-1.07813 -0.90625,-1.67188 -0.75,-0.59375 -2.10938,-0.59375 -1.60937,0 -2.3125,0.53125 -0.6875,0.53125 -0.6875,1.25 0,0.45313 0.29688,0.8125 0.28125,0.375 0.89062,0.625 0.35938,0.14063 2.07813,0.60938 2.48437,0.65625 3.46875,1.07812 0.98437,0.42188 1.53125,1.23438 0.5625,0.79687 0.5625,2 0,1.17187 -0.6875,2.21875 -0.67188,1.03125 -1.96875,1.59375 -1.28125,0.5625 -2.90625,0.5625 -2.70313,0 -4.125,-1.10938 -1.40625,-1.125 -1.79688,-3.32812 z m 23.29688,2.42187 q -1.3125,1.10938 -2.51563,1.5625 -1.20312,0.45313 -2.57812,0.45313 -2.28125,0 -3.5,-1.10938 -1.21875,-1.10937 -1.21875,-2.84375 0,-1.01562 0.45312,-1.85937 0.46875,-0.84375 1.21875,-1.34375 0.75,-0.51563 1.6875,-0.76563 0.6875,-0.1875 2.07813,-0.35937 2.82812,-0.32813 4.17187,-0.79688 0.0156,-0.48437 0.0156,-0.625 0,-1.42187 -0.65625,-2.01562 -0.90625,-0.79688 -2.67188,-0.79688 -1.65625,0 -2.45312,0.59375 -0.78125,0.57813 -1.15625,2.04688 l -2.29688,-0.3125 q 0.3125,-1.46875 1.03125,-2.375 0.71875,-0.90625 2.0625,-1.39063 1.35938,-0.5 3.14063,-0.5 1.78125,0 2.875,0.42188 1.10937,0.42187 1.625,1.04687 0.53125,0.625 0.73437,1.59375 0.125,0.59375 0.125,2.15625 v 3.125 q 0,3.26563 0.14063,4.14063 0.15625,0.85937 0.59375,1.65625 h -2.4375 q -0.375,-0.73438 -0.46875,-1.70313 z m -0.20313,-5.23437 q -1.26562,0.51562 -3.82812,0.89062 -1.4375,0.20313 -2.04688,0.46875 -0.59375,0.25 -0.92187,0.75 -0.3125,0.5 -0.3125,1.125 0,0.9375 0.70312,1.5625 0.70313,0.625 2.07813,0.625 1.34375,0 2.39062,-0.59375 1.0625,-0.59375 1.5625,-1.625 0.375,-0.79687 0.375,-2.34375 z m 11.12183,4.84375 0.32812,2.0625 q -0.98437,0.21875 -1.76562,0.21875 -1.26563,0 -1.96875,-0.40625 -0.70313,-0.40625 -1,-1.0625 -0.28125,-0.65625 -0.28125,-2.76563 v -7.95312 h -1.71875 v -1.82813 h 1.71875 v -3.42187 l 2.32812,-1.40625 v 4.82812 h 2.35938 v 1.82813 h -2.35938 v 8.07812 q 0,1 0.125,1.29688 0.125,0.28125 0.40625,0.45312 0.28125,0.17188 0.79688,0.17188 0.39062,0 1.03125,-0.0937 z m 11.74969,-2.35938 2.42188,0.29688 q -0.57813,2.125 -2.125,3.29687 -1.54688,1.17188 -3.95313,1.17188 -3.03125,0 -4.8125,-1.85938 -1.78125,-1.875 -1.78125,-5.25 0,-3.48437 1.79688,-5.40625 1.79687,-1.9375 4.67187,-1.9375 2.76563,0 4.51563,1.89063 1.76562,1.89062 1.76562,5.3125 0,0.20312 -0.0156,0.625 h -10.3125 q 0.14062,2.28125 1.29687,3.5 1.15625,1.20312 2.89063,1.20312 1.28125,0 2.1875,-0.67187 0.92187,-0.6875 1.45312,-2.17188 z m -7.6875,-3.78125 h 7.71875 q -0.15625,-1.75 -0.89062,-2.625 -1.125,-1.34375 -2.90625,-1.34375 -1.60938,0 -2.71875,1.07813 -1.09375,1.07812 -1.20313,2.89062 z m 22.1062,8.23438 v -2.03125 q -1.60937,2.34375 -4.375,2.34375 -1.23437,0 -2.29687,-0.46875 -1.0625,-0.46875 -1.57813,-1.17188 -0.5,-0.71875 -0.71875,-1.75 -0.14062,-0.6875 -0.14062,-2.1875 v -8.5625 h 2.34375 v 7.67188 q 0,1.82812 0.14062,2.46875 0.21875,0.92187 0.9375,1.45312 0.71875,0.53125 1.76563,0.53125 1.0625,0 1.98437,-0.53125 0.92188,-0.54687 1.29688,-1.46875 0.39062,-0.9375 0.39062,-2.71875 v -7.40625 h 2.34375 v 13.82813 z m 5.7468,0 v -13.82813 h 2.10938 v 2.09375 q 0.79687,-1.46875 1.48437,-1.9375 0.6875,-0.46875 1.5,-0.46875 1.1875,0 2.40625,0.76563 l -0.79687,2.17187 q -0.85938,-0.51562 -1.71875,-0.51562 -0.76563,0 -1.39063,0.46875 -0.60937,0.45312 -0.85937,1.28125 -0.39063,1.25 -0.39063,2.73437 v 7.23438 z m 25.32956,-1.70313 q -1.31247,1.10938 -2.51559,1.5625 -1.20313,0.45313 -2.57813,0.45313 -2.28125,0 -3.5,-1.10938 -1.21875,-1.10937 -1.21875,-2.84375 0,-1.01562 0.45313,-1.85937 0.46875,-0.84375 1.21875,-1.34375 0.75,-0.51563 1.6875,-0.76563 0.6875,-0.1875 2.07812,-0.35937 2.82813,-0.32813 4.17185,-0.79688 0.0156,-0.48437 0.0156,-0.625 0,-1.42187 -0.65622,-2.01562 -0.90625,-0.79688 -2.67187,-0.79688 -1.65625,0 -2.45313,0.59375 -0.78125,0.57813 -1.15625,2.04688 l -2.29687,-0.3125 q 0.3125,-1.46875 1.03125,-2.375 0.71875,-0.90625 2.0625,-1.39063 1.35937,-0.5 3.14062,-0.5 1.78125,0 2.87497,0.42188 1.10938,0.42187 1.625,1.04687 0.53125,0.625 0.73438,1.59375 0.125,0.59375 0.125,2.15625 v 3.125 q 0,3.26563 0.14062,4.14063 0.15625,0.85937 0.59375,1.65625 h -2.4375 q -0.375,-0.73438 -0.46875,-1.70313 z m -0.20312,-5.23437 q -1.2656,0.51562 -3.8281,0.89062 -1.4375,0.20313 -2.04687,0.46875 -0.59375,0.25 -0.92188,0.75 -0.3125,0.5 -0.3125,1.125 0,0.9375 0.70313,1.5625 0.70312,0.625 2.07812,0.625 1.34375,0 2.39063,-0.59375 1.0625,-0.59375 1.56247,-1.625 0.375,-0.79687 0.375,-2.34375 z m -1.28122,-8.60938 h -1.875 l -3.01563,-3.64062 h 3.14063 z m 14.63711,15.54688 v -19.07813 h 2.34375 v 19.07813 z m 15.00031,-1.70313 q -1.3125,1.10938 -2.51563,1.5625 -1.20312,0.45313 -2.57812,0.45313 -2.28125,0 -3.5,-1.10938 -1.21875,-1.10937 -1.21875,-2.84375 0,-1.01562 0.45312,-1.85937 0.46875,-0.84375 1.21875,-1.34375 0.75,-0.51563 1.6875,-0.76563 0.6875,-0.1875 2.07813,-0.35937 2.82812,-0.32813 4.17187,-0.79688 0.0156,-0.48437 0.0156,-0.625 0,-1.42187 -0.65625,-2.01562 -0.90625,-0.79688 -2.67188,-0.79688 -1.65625,0 -2.45312,0.59375 -0.78125,0.57813 -1.15625,2.04688 l -2.29688,-0.3125 q 0.3125,-1.46875 1.03125,-2.375 0.71875,-0.90625 2.0625,-1.39063 1.35938,-0.5 3.14063,-0.5 1.78125,0 2.875,0.42188 1.10937,0.42187 1.625,1.04687 0.53125,0.625 0.73437,1.59375 0.125,0.59375 0.125,2.15625 v 3.125 q 0,3.26563 0.14063,4.14063 0.15625,0.85937 0.59375,1.65625 h -2.4375 q -0.375,-0.73438 -0.46875,-1.70313 z m -0.20313,-5.23437 q -1.26562,0.51562 -3.82812,0.89062 -1.4375,0.20313 -2.04688,0.46875 -0.59375,0.25 -0.92187,0.75 -0.3125,0.5 -0.3125,1.125 0,0.9375 0.70312,1.5625 0.70313,0.625 2.07813,0.625 1.34375,0 2.39062,-0.59375 1.0625,-0.59375 1.5625,-1.625 0.375,-0.79687 0.375,-2.34375 z"
       fill-rule="nonzero"
       id="path6273" />
    <path
       fill="#000000"
       d="m 375.0767,256.23648 -5.25,-13.82813 h 2.46875 l 2.96875,8.28125 q 0.48438,1.34375 0.89063,2.78125 0.29687,-1.09375 0.85937,-2.625 l 3.07813,-8.4375 h 2.40625 l -5.23438,13.82813 z m 18.51563,-1.70313 q -1.3125,1.10938 -2.51563,1.5625 -1.20312,0.45313 -2.57812,0.45313 -2.28125,0 -3.5,-1.10938 -1.21875,-1.10937 -1.21875,-2.84375 0,-1.01562 0.45312,-1.85937 0.46875,-0.84375 1.21875,-1.34375 0.75,-0.51563 1.6875,-0.76563 0.6875,-0.1875 2.07813,-0.35937 2.82812,-0.32813 4.17187,-0.79688 0.0156,-0.48437 0.0156,-0.625 0,-1.42187 -0.65625,-2.01562 -0.90625,-0.79688 -2.67188,-0.79688 -1.65625,0 -2.45312,0.59375 -0.78125,0.57813 -1.15625,2.04688 l -2.29688,-0.3125 q 0.3125,-1.46875 1.03125,-2.375 0.71875,-0.90625 2.0625,-1.39063 1.35938,-0.5 3.14063,-0.5 1.78125,0 2.875,0.42188 1.10937,0.42187 1.625,1.04687 0.53125,0.625 0.73437,1.59375 0.125,0.59375 0.125,2.15625 v 3.125 q 0,3.26563 0.14063,4.14063 0.15625,0.85937 0.59375,1.65625 h -2.4375 q -0.375,-0.73438 -0.46875,-1.70313 z m -0.20313,-5.23437 q -1.26562,0.51562 -3.82812,0.89062 -1.4375,0.20313 -2.04688,0.46875 -0.59375,0.25 -0.92187,0.75 -0.3125,0.5 -0.3125,1.125 0,0.9375 0.70312,1.5625 0.70313,0.625 2.07813,0.625 1.34375,0 2.39062,-0.59375 1.0625,-0.59375 1.5625,-1.625 0.375,-0.79687 0.375,-2.34375 z m 5.98117,6.9375 v -13.82813 h 2.10938 v 2.09375 q 0.79687,-1.46875 1.48437,-1.9375 0.6875,-0.46875 1.5,-0.46875 1.1875,0 2.40625,0.76563 l -0.79687,2.17187 q -0.85938,-0.51562 -1.71875,-0.51562 -0.76563,0 -1.39063,0.46875 -0.60937,0.45312 -0.85937,1.28125 -0.39063,1.25 -0.39063,2.73437 v 7.23438 z m 8.90799,-16.39063 v -2.6875 h 2.34375 v 2.6875 z m 0,16.39063 v -13.82813 h 2.34375 v 13.82813 z m 14.93781,-1.70313 q -1.3125,1.10938 -2.51563,1.5625 -1.20312,0.45313 -2.57812,0.45313 -2.28125,0 -3.5,-1.10938 -1.21875,-1.10937 -1.21875,-2.84375 0,-1.01562 0.45312,-1.85937 0.46875,-0.84375 1.21875,-1.34375 0.75,-0.51563 1.6875,-0.76563 0.6875,-0.1875 2.07813,-0.35937 2.82812,-0.32813 4.17187,-0.79688 0.0156,-0.48437 0.0156,-0.625 0,-1.42187 -0.65625,-2.01562 -0.90625,-0.79688 -2.67188,-0.79688 -1.65625,0 -2.45312,0.59375 -0.78125,0.57813 -1.15625,2.04688 l -2.29688,-0.3125 q 0.3125,-1.46875 1.03125,-2.375 0.71875,-0.90625 2.0625,-1.39063 1.35938,-0.5 3.14063,-0.5 1.78125,0 2.875,0.42188 1.10937,0.42187 1.625,1.04687 0.53125,0.625 0.73437,1.59375 0.125,0.59375 0.125,2.15625 v 3.125 q 0,3.26563 0.14063,4.14063 0.15625,0.85937 0.59375,1.65625 h -2.4375 q -0.375,-0.73438 -0.46875,-1.70313 z m -0.20313,-5.23437 q -1.26562,0.51562 -3.82812,0.89062 -1.4375,0.20313 -2.04688,0.46875 -0.59375,0.25 -0.92187,0.75 -0.3125,0.5 -0.3125,1.125 0,0.9375 0.70312,1.5625 0.70313,0.625 2.07813,0.625 1.34375,0 2.39062,-0.59375 1.0625,-0.59375 1.5625,-1.625 0.375,-0.79687 0.375,-2.34375 z m 8.16867,6.9375 h -2.17187 v -19.07813 h 2.34375 v 6.79688 q 1.48437,-1.85938 3.78125,-1.85938 1.28125,0 2.40625,0.51563 1.14062,0.51562 1.875,1.45312 0.75,0.92188 1.15625,2.25 0.42187,1.3125 0.42187,2.79688 0,3.5625 -1.76562,5.5 -1.75,1.9375 -4.21875,1.9375 -2.4375,0 -3.82813,-2.04688 z m -0.0312,-7.01563 q 0,2.48438 0.67188,3.59375 1.10937,1.8125 3,1.8125 1.53125,0 2.65625,-1.32812 1.125,-1.34375 1.125,-3.98438 0,-2.70312 -1.07813,-3.98437 -1.07812,-1.29688 -2.59375,-1.29688 -1.54687,0 -2.67187,1.32813 -1.10938,1.32812 -1.10938,3.85937 z m 12.63745,7.01563 v -19.07813 h 2.34375 v 19.07813 z m 15.43778,-4.45313 2.42187,0.29688 q -0.57812,2.125 -2.125,3.29687 -1.54687,1.17188 -3.95312,1.17188 -3.03125,0 -4.8125,-1.85938 -1.78125,-1.875 -1.78125,-5.25 0,-3.48437 1.79687,-5.40625 1.79688,-1.9375 4.67188,-1.9375 2.76562,0 4.51562,1.89063 1.76563,1.89062 1.76563,5.3125 0,0.20312 -0.0156,0.625 h -10.3125 q 0.14063,2.28125 1.29688,3.5 1.15625,1.20312 2.89062,1.20312 1.28125,0 2.1875,-0.67187 0.92188,-0.6875 1.45313,-2.17188 z m -7.6875,-3.78125 h 7.71875 q -0.15625,-1.75 -0.89063,-2.625 -1.125,-1.34375 -2.90625,-1.34375 -1.60937,0 -2.71875,1.07813 -1.09375,1.07812 -1.20312,2.89062 z m 29.48089,6.53125 q -1.3125,1.10938 -2.51562,1.5625 -1.20313,0.45313 -2.57813,0.45313 -2.28125,0 -3.5,-1.10938 -1.21875,-1.10937 -1.21875,-2.84375 0,-1.01562 0.45313,-1.85937 0.46875,-0.84375 1.21875,-1.34375 0.75,-0.51563 1.6875,-0.76563 0.6875,-0.1875 2.07812,-0.35937 2.82813,-0.32813 4.17188,-0.79688 0.0156,-0.48437 0.0156,-0.625 0,-1.42187 -0.65625,-2.01562 -0.90625,-0.79688 -2.67187,-0.79688 -1.65625,0 -2.45313,0.59375 -0.78125,0.57813 -1.15625,2.04688 l -2.29687,-0.3125 q 0.3125,-1.46875 1.03125,-2.375 0.71875,-0.90625 2.0625,-1.39063 1.35937,-0.5 3.14062,-0.5 1.78125,0 2.875,0.42188 1.10938,0.42187 1.625,1.04687 0.53125,0.625 0.73438,1.59375 0.125,0.59375 0.125,2.15625 v 3.125 q 0,3.26563 0.14062,4.14063 0.15625,0.85937 0.59375,1.65625 h -2.4375 q -0.375,-0.73438 -0.46875,-1.70313 z m -0.20312,-5.23437 q -1.26563,0.51562 -3.82813,0.89062 -1.4375,0.20313 -2.04687,0.46875 -0.59375,0.25 -0.92188,0.75 -0.3125,0.5 -0.3125,1.125 0,0.9375 0.70313,1.5625 0.70312,0.625 2.07812,0.625 1.34375,0 2.39063,-0.59375 1.0625,-0.59375 1.5625,-1.625 0.375,-0.79687 0.375,-2.34375 z m -3.20313,-10.8125 -1.48437,2.20312 h -2.67188 l 2.8125,-3.64062 h 2.5 l 2.92188,3.64062 h -2.65625 z m 8.77808,18.89062 2.28125,0.34375 q 0.14062,1.04688 0.79687,1.53125 0.85938,0.65625 2.375,0.65625 1.625,0 2.5,-0.65625 0.89063,-0.64062 1.20313,-1.8125 0.1875,-0.71875 0.17187,-3.01562 -1.53125,1.8125 -3.82812,1.8125 -2.84375,0 -4.40625,-2.04688 -1.5625,-2.0625 -1.5625,-4.9375 0,-1.98437 0.71875,-3.65625 0.71875,-1.67187 2.07812,-2.57812 1.35938,-0.92188 3.1875,-0.92188 2.45313,0 4.03125,1.98438 v -1.67188 h 2.17188 v 11.95313 q 0,3.23437 -0.65625,4.57812 -0.65625,1.34375 -2.09375,2.125 -1.42188,0.78125 -3.5,0.78125 -2.46875,0 -4,-1.10937 -1.51563,-1.10938 -1.46875,-3.35938 z m 1.9375,-8.29687 q 0,2.71875 1.07812,3.96875 1.07813,1.25 2.70313,1.25 1.625,0 2.71875,-1.23438 1.09375,-1.25 1.09375,-3.90625 0,-2.54687 -1.125,-3.82812 -1.125,-1.29688 -2.71875,-1.29688 -1.5625,0 -2.65625,1.28125 -1.09375,1.26563 -1.09375,3.76563 z m 22.77805,2.70312 2.42187,0.29688 q -0.57812,2.125 -2.125,3.29687 -1.54687,1.17188 -3.95312,1.17188 -3.03125,0 -4.8125,-1.85938 -1.78125,-1.875 -1.78125,-5.25 0,-3.48437 1.79687,-5.40625 1.79688,-1.9375 4.67188,-1.9375 2.76562,0 4.51562,1.89063 1.76563,1.89062 1.76563,5.3125 0,0.20312 -0.0156,0.625 h -10.3125 q 0.14063,2.28125 1.29688,3.5 1.15625,1.20312 2.89062,1.20312 1.28125,0 2.1875,-0.67187 0.92188,-0.6875 1.45313,-2.17188 z m -7.6875,-3.78125 h 7.71875 q -0.15625,-1.75 -0.89063,-2.625 -1.125,-1.34375 -2.90625,-1.34375 -1.60937,0 -2.71875,1.07813 -1.09375,1.07812 -1.20312,2.89062 z"
       fill-rule="nonzero"
       id="path6275" />
    <path
       fill="#cfe2f3"
       d="M 27.057743,335.958 165.25984,278.40026 303.46194,335.958 165.25984,393.51574 Z"
       fill-rule="evenodd"
       id="path6277" />
    <path
       stroke="#000000"
       stroke-width="1"
       stroke-linejoin="round"
       stroke-linecap="butt"
       d="M 27.057743,335.958 165.25984,278.40026 303.46194,335.958 165.25984,393.51574 Z"
       fill-rule="evenodd"
       id="path6279" />
    <path
       fill="#000000"
       d="m 106.92442,329.1674 v -2.6875 h 2.34375 v 2.6875 z m 0,16.39062 V 331.7299 h 2.34375 v 13.82812 z m 6.46904,0 v -12 h -2.0625 v -1.82812 h 2.0625 v -1.46875 q 0,-1.39063 0.25,-2.0625 0.34375,-0.92188 1.1875,-1.48438 0.85937,-0.5625 2.39062,-0.5625 0.98438,0 2.1875,0.23438 l -0.34375,2.04687 q -0.73437,-0.14062 -1.39062,-0.14062 -1.0625,0 -1.51563,0.46875 -0.4375,0.45312 -0.4375,1.70312 v 1.26563 h 2.70313 v 1.82812 h -2.70313 v 12 z m 23.28067,-1.70312 q -1.3125,1.10937 -2.51562,1.5625 -1.20313,0.45312 -2.57813,0.45312 -2.28125,0 -3.5,-1.10937 -1.21875,-1.10938 -1.21875,-2.84375 0,-1.01563 0.45312,-1.85938 0.46875,-0.84375 1.21876,-1.34375 0.75,-0.51562 1.6875,-0.76562 0.6875,-0.1875 2.07812,-0.35938 2.82813,-0.32812 4.17188,-0.79687 0.0156,-0.48438 0.0156,-0.625 0,-1.42188 -0.65625,-2.01563 -0.90625,-0.79687 -2.67187,-0.79687 -1.65625,0 -2.45313,0.59375 -0.78125,0.57812 -1.15625,2.04687 l -2.29688,-0.3125 q 0.3125,-1.46875 1.03126,-2.375 0.71875,-0.90625 2.0625,-1.39062 1.35937,-0.5 3.14062,-0.5 1.78125,0 2.875,0.42187 1.10938,0.42188 1.625,1.04688 0.53125,0.625 0.73438,1.59375 0.125,0.59375 0.125,2.15625 v 3.125 q 0,3.26562 0.14062,4.14062 0.15625,0.85938 0.59375,1.65625 h -2.4375 q -0.375,-0.73437 -0.46875,-1.70312 z m -0.20312,-5.23438 q -1.26563,0.51563 -3.82813,0.89063 -1.4375,0.20312 -2.04687,0.46875 -0.59375,0.25 -0.92188,0.75 -0.3125,0.5 -0.3125,1.125 0,0.9375 0.70313,1.5625 0.70312,0.625 2.07812,0.625 1.34375,0 2.39063,-0.59375 1.0625,-0.59375 1.5625,-1.625 0.375,-0.79688 0.375,-2.34375 z m 5.57493,8.07813 2.28125,0.34375 q 0.14063,1.04687 0.79688,1.53125 0.85937,0.65625 2.375,0.65625 1.625,0 2.5,-0.65625 0.89062,-0.64063 1.20312,-1.8125 0.1875,-0.71875 0.17188,-3.01563 -1.53125,1.8125 -3.82813,1.8125 -2.84375,0 -4.40625,-2.04687 -1.5625,-2.0625 -1.5625,-4.9375 0,-1.98438 0.71875,-3.65625 0.71875,-1.67188 2.07813,-2.57813 1.35937,-0.92187 3.1875,-0.92187 2.45312,0 4.03125,1.98437 v -1.67187 h 2.17187 v 11.95312 q 0,3.23438 -0.65625,4.57813 -0.65625,1.34375 -2.09375,2.125 -1.42187,0.78125 -3.5,0.78125 -2.46875,0 -4,-1.10938 -1.51562,-1.10937 -1.46875,-3.35937 z m 1.9375,-8.29688 q 0,2.71875 1.07813,3.96875 1.07812,1.25 2.70312,1.25 1.625,0 2.71875,-1.23437 1.09375,-1.25 1.09375,-3.90625 0,-2.54688 -1.125,-3.82813 -1.125,-1.29687 -2.71875,-1.29687 -1.5625,0 -2.65625,1.28125 -1.09375,1.26562 -1.09375,3.76562 z m 22.77806,2.70313 2.42188,0.29687 q -0.57813,2.125 -2.125,3.29688 -1.54688,1.17187 -3.95313,1.17187 -3.03125,0 -4.8125,-1.85937 -1.78125,-1.875 -1.78125,-5.25 0,-3.48438 1.79688,-5.40625 1.79687,-1.9375 4.67187,-1.9375 2.76563,0 4.51563,1.89062 1.76562,1.89063 1.76562,5.3125 0,0.20313 -0.0156,0.625 h -10.3125 q 0.14062,2.28125 1.29687,3.5 1.15625,1.20313 2.89063,1.20313 1.28125,0 2.1875,-0.67188 0.92187,-0.6875 1.45312,-2.17187 z m -7.6875,-3.78125 h 7.71875 q -0.15625,-1.75 -0.89062,-2.625 -1.125,-1.34375 -2.90625,-1.34375 -1.60938,0 -2.71875,1.07812 -1.09375,1.07813 -1.20313,2.89063 z m 20.15278,-0.10938 v -2.1875 l 12.64062,-5.32812 v 2.32812 l -10.01562,4.10938 10.01562,4.15625 v 2.32812 z m 24.0512,8.34375 h -2.34375 v -14.92187 q -0.85937,0.79687 -2.23437,1.60937 -1.35938,0.79688 -2.45313,1.20313 v -2.26563 q 1.96875,-0.92187 3.4375,-2.23437 1.46875,-1.3125 2.07813,-2.54688 h 1.51562 z m 9.60619,-10.34375 q -1.46875,-0.53125 -2.17188,-1.51562 -0.70312,-1 -0.70312,-2.375 0,-2.09375 1.5,-3.5 1.5,-1.42188 3.98437,-1.42188 2.5,0 4.01563,1.45313 1.53125,1.45312 1.53125,3.53125 0,1.32812 -0.70313,2.3125 -0.6875,0.98437 -2.10937,1.51562 1.75,0.5625 2.67187,1.84375 0.92188,1.28125 0.92188,3.04688 0,2.45312 -1.73438,4.125 -1.73437,1.65625 -4.5625,1.65625 -2.8125,0 -4.54687,-1.67188 -1.73438,-1.67187 -1.73438,-4.17187 0,-1.85938 0.9375,-3.10938 0.95313,-1.26562 2.70313,-1.71875 z m -0.46875,-3.96875 q 0,1.34375 0.85937,2.20313 0.875,0.85937 2.26563,0.85937 1.35937,0 2.21875,-0.84375 0.875,-0.85937 0.875,-2.09375 0,-1.28125 -0.89063,-2.15625 -0.89062,-0.89062 -2.21875,-0.89062 -1.34375,0 -2.23437,0.85937 -0.875,0.85938 -0.875,2.0625 z m -0.76563,8.8125 q 0,1 0.46875,1.9375 0.48438,0.9375 1.42188,1.45313 0.9375,0.51562 2.01562,0.51562 1.6875,0 2.78125,-1.07812 1.09375,-1.09375 1.09375,-2.75 0,-1.70313 -1.14062,-2.79688 -1.125,-1.10937 -2.8125,-1.10937 -1.65625,0 -2.75,1.09375 -1.07813,1.09375 -1.07813,2.73437 z"
       fill-rule="nonzero"
       id="path6281" />
    <path
       fill="#cfe2f3"
       d="M 27.057743,553.43304 82.338583,438.31759 H 303.46193 l -55.28084,115.11545 z"
       fill-rule="evenodd"
       id="path6283" />
    <path
       stroke="#000000"
       stroke-width="1"
       stroke-linejoin="round"
       stroke-linecap="butt"
       d="M 27.057743,553.43304 82.338583,438.31759 H 303.46193 l -55.28084,115.11545 z"
       fill-rule="evenodd"
       id="path6285" />
    <path
       fill="#000000"
       d="m 91.307335,473.47534 7.3125,-19.07812 h 2.734375 l 7.79687,19.07812 h -2.875 l -2.21875,-5.78125 h -7.98437 l -2.09375,5.78125 z m 5.5,-7.82812 h 6.468745 l -2,-5.29688 q -0.90625,-2.40625 -1.343745,-3.95312 -0.375,1.84375 -1.03125,3.64062 z m 14.623265,7.82812 v -12 h -2.0625 v -1.82812 h 2.0625 v -1.46875 q 0,-1.39063 0.25,-2.0625 0.34375,-0.92188 1.1875,-1.48438 0.85937,-0.5625 2.39062,-0.5625 0.98438,0 2.1875,0.23438 l -0.34375,2.04687 q -0.73437,-0.14062 -1.39062,-0.14062 -1.0625,0 -1.51563,0.46875 -0.4375,0.45312 -0.4375,1.70312 v 1.26563 h 2.70313 v 1.82812 h -2.70313 v 12 z m 6.92419,0 v -12 h -2.0625 v -1.82812 h 2.0625 v -1.46875 q 0,-1.39063 0.25,-2.0625 0.34375,-0.92188 1.1875,-1.48438 0.85937,-0.5625 2.39062,-0.5625 0.98438,0 2.1875,0.23438 l -0.34375,2.04687 q -0.73437,-0.14062 -1.39062,-0.14062 -1.0625,0 -1.51563,0.46875 -0.4375,0.45312 -0.4375,1.70312 v 1.26563 h 2.70313 v 1.82812 h -2.70313 v 12 z m 6.85908,-16.39062 v -2.6875 h 2.34375 v 2.6875 z m 0,16.39062 v -13.82812 h 2.34375 v 13.82812 z m 14.93779,-5.0625 2.29687,0.29688 q -0.375,2.39062 -1.9375,3.73437 -1.54687,1.34375 -3.8125,1.34375 -2.84375,0 -4.5625,-1.84375 -1.71875,-1.85937 -1.71875,-5.32812 0,-2.23438 0.73438,-3.90625 0.75,-1.6875 2.26562,-2.53125 1.51563,-0.84375 3.29688,-0.84375 2.25,0 3.67187,1.14062 1.4375,1.14063 1.84375,3.23438 l -2.28125,0.35937 q -0.32812,-1.39062 -1.15625,-2.09375 -0.8125,-0.70312 -1.98437,-0.70312 -1.78125,0 -2.89063,1.26562 -1.09375,1.26563 -1.09375,4.01563 0,2.78125 1.0625,4.04687 1.0625,1.26563 2.78125,1.26563 1.39063,0 2.3125,-0.84375 0.92188,-0.85938 1.17188,-2.60938 z m 4.29687,5.0625 v -19.07812 h 2.34375 v 6.84375 q 1.64063,-1.90625 4.14063,-1.90625 1.54687,0 2.67187,0.60937 1.14063,0.60938 1.625,1.67188 0.48438,1.0625 0.48438,3.09375 v 8.76562 h -2.34375 v -8.76562 q 0,-1.75 -0.76563,-2.54688 -0.75,-0.8125 -2.15625,-0.8125 -1.03125,0 -1.95312,0.54688 -0.92188,0.54687 -1.3125,1.46875 -0.39063,0.92187 -0.39063,2.54687 v 7.5625 z m 23.85619,-1.70312 q -1.3125,1.10937 -2.51563,1.5625 -1.20312,0.45312 -2.57812,0.45312 -2.28125,0 -3.5,-1.10937 -1.21875,-1.10938 -1.21875,-2.84375 0,-1.01563 0.45312,-1.85938 0.46875,-0.84375 1.21875,-1.34375 0.75,-0.51562 1.6875,-0.76562 0.6875,-0.1875 2.07813,-0.35938 2.82812,-0.32812 4.17187,-0.79687 0.0156,-0.48438 0.0156,-0.625 0,-1.42188 -0.65625,-2.01563 -0.90625,-0.79687 -2.67188,-0.79687 -1.65625,0 -2.45312,0.59375 -0.78125,0.57812 -1.15625,2.04687 l -2.29688,-0.3125 q 0.3125,-1.46875 1.03125,-2.375 0.71875,-0.90625 2.0625,-1.39062 1.35938,-0.5 3.14063,-0.5 1.78125,0 2.875,0.42187 1.10937,0.42188 1.625,1.04688 0.53125,0.625 0.73437,1.59375 0.125,0.59375 0.125,2.15625 v 3.125 q 0,3.26562 0.14063,4.14062 0.15625,0.85938 0.59375,1.65625 h -2.4375 q -0.375,-0.73437 -0.46875,-1.70312 z m -0.20313,-5.23438 q -1.26562,0.51563 -3.82812,0.89063 -1.4375,0.20312 -2.04688,0.46875 -0.59375,0.25 -0.92187,0.75 -0.3125,0.5 -0.3125,1.125 0,0.9375 0.70312,1.5625 0.70313,0.625 2.07813,0.625 1.34375,0 2.39062,-0.59375 1.0625,-0.59375 1.5625,-1.625 0.375,-0.79688 0.375,-2.34375 z m 5.57494,8.07813 2.28125,0.34375 q 0.14062,1.04687 0.79687,1.53125 0.85938,0.65625 2.375,0.65625 1.625,0 2.5,-0.65625 0.89063,-0.64063 1.20313,-1.8125 0.1875,-0.71875 0.17187,-3.01563 -1.53125,1.8125 -3.82812,1.8125 -2.84375,0 -4.40625,-2.04687 -1.5625,-2.0625 -1.5625,-4.9375 0,-1.98438 0.71875,-3.65625 0.71875,-1.67188 2.07812,-2.57813 1.35938,-0.92187 3.1875,-0.92187 2.45313,0 4.03125,1.98437 v -1.67187 h 2.17188 v 11.95312 q 0,3.23438 -0.65625,4.57813 -0.65625,1.34375 -2.09375,2.125 -1.42188,0.78125 -3.5,0.78125 -2.46875,0 -4,-1.10938 -1.51563,-1.10937 -1.46875,-3.35937 z m 1.9375,-8.29688 q 0,2.71875 1.07812,3.96875 1.07813,1.25 2.70313,1.25 1.625,0 2.71875,-1.23437 1.09375,-1.25 1.09375,-3.90625 0,-2.54688 -1.125,-3.82813 -1.125,-1.29687 -2.71875,-1.29687 -1.5625,0 -2.65625,1.28125 -1.09375,1.26562 -1.09375,3.76562 z m 22.77806,2.70313 2.42187,0.29687 q -0.57812,2.125 -2.125,3.29688 -1.54687,1.17187 -3.95312,1.17187 -3.03125,0 -4.8125,-1.85937 -1.78125,-1.875 -1.78125,-5.25 0,-3.48438 1.79687,-5.40625 1.79688,-1.9375 4.67188,-1.9375 2.76562,0 4.51562,1.89062 1.76563,1.89063 1.76563,5.3125 0,0.20313 -0.0156,0.625 h -10.3125 q 0.14063,2.28125 1.29688,3.5 1.15625,1.20313 2.89062,1.20313 1.28125,0 2.1875,-0.67188 0.92188,-0.6875 1.45313,-2.17187 z m -7.6875,-3.78125 h 7.71875 q -0.15625,-1.75 -0.89063,-2.625 -1.125,-1.34375 -2.90625,-1.34375 -1.60937,0 -2.71875,1.07812 -1.09375,1.07813 -1.20312,2.89063 z m 21.10589,-2.92188 v -2.67187 h 2.67188 v 2.67187 z m 0,11.15625 v -2.67187 h 2.67188 v 2.67187 z"
       fill-rule="nonzero"
       id="path6287" />
    <path
       fill="#000000"
       d="m 96.932335,505.47534 -5.25,-13.82812 h 2.46875 l 2.96875,8.28125 q 0.484375,1.34375 0.890625,2.78125 0.296875,-1.09375 0.859375,-2.625 l 3.078125,-8.4375 h 2.40625 l -5.234375,13.82812 z m 8.624995,-6.90625 q 0,-3.84375 2.125,-5.6875 1.78125,-1.54687 4.34375,-1.54687 2.85938,0 4.65625,1.875 1.8125,1.85937 1.8125,5.15625 0,2.67187 -0.79687,4.20312 -0.79688,1.53125 -2.32813,2.375 -1.53125,0.84375 -3.34375,0.84375 -2.89062,0 -4.6875,-1.85937 -1.78125,-1.85938 -1.78125,-5.35938 z m 2.40625,0 q 0,2.65625 1.15625,3.98438 1.15625,1.3125 2.90625,1.3125 1.75,0 2.90625,-1.32813 1.15625,-1.32812 1.15625,-4.04687 0,-2.5625 -1.17187,-3.89063 -1.15625,-1.32812 -2.89063,-1.32812 -1.75,0 -2.90625,1.32812 -1.15625,1.3125 -1.15625,3.96875 z m 22.34056,6.90625 v -2.03125 q -1.60938,2.34375 -4.37499,2.34375 -1.23438,0 -2.29688,-0.46875 -1.0625,-0.46875 -1.57812,-1.17187 -0.5,-0.71875 -0.71875,-1.75 -0.14063,-0.6875 -0.14063,-2.1875 v -8.5625 h 2.34375 v 7.67187 q 0,1.82813 0.14063,2.46875 0.21875,0.92188 0.9375,1.45313 0.71875,0.53125 1.76562,0.53125 1.0625,0 1.98437,-0.53125 0.92187,-0.54688 1.29687,-1.46875 0.39063,-0.9375 0.39063,-2.71875 v -7.40625 h 2.34375 v 13.82812 z m 4.82493,-4.125 2.32813,-0.35937 q 0.1875,1.39062 1.07812,2.14062 0.89063,0.73438 2.5,0.73438 1.60938,0 2.39063,-0.65625 0.78125,-0.65625 0.78125,-1.54688 0,-0.79687 -0.6875,-1.25 -0.48438,-0.3125 -2.39063,-0.79687 -2.57812,-0.65625 -3.57812,-1.125 -1,-0.46875 -1.51563,-1.3125 -0.51562,-0.84375 -0.51562,-1.85938 0,-0.92187 0.42187,-1.70312 0.4375,-0.79688 1.15625,-1.3125 0.54688,-0.40625 1.48438,-0.6875 0.95312,-0.28125 2.03125,-0.28125 1.625,0 2.85937,0.46875 1.23438,0.46875 1.8125,1.28125 0.59375,0.79687 0.8125,2.14062 l -2.29687,0.3125 q -0.15625,-1.07812 -0.90625,-1.67187 -0.75,-0.59375 -2.10938,-0.59375 -1.60937,0 -2.3125,0.53125 -0.6875,0.53125 -0.6875,1.25 0,0.45312 0.29688,0.8125 0.28125,0.375 0.89062,0.625 0.35938,0.14062 2.07813,0.60937 2.48437,0.65625 3.46875,1.07813 0.98437,0.42187 1.53125,1.23437 0.5625,0.79688 0.5625,2 0,1.17188 -0.6875,2.21875 -0.67188,1.03125 -1.96875,1.59375 -1.28125,0.5625 -2.90625,0.5625 -2.70313,0 -4.125,-1.10937 -1.40625,-1.125 -1.79688,-3.32813 z m 31.14034,-0.32812 2.42187,0.29687 q -0.57812,2.125 -2.125,3.29688 -1.54687,1.17187 -3.95312,1.17187 -3.03125,0 -4.8125,-1.85937 -1.78125,-1.875 -1.78125,-5.25 0,-3.48438 1.79687,-5.40625 1.79688,-1.9375 4.67188,-1.9375 2.76562,0 4.51562,1.89062 1.76563,1.89063 1.76563,5.3125 0,0.20313 -0.0156,0.625 h -10.3125 q 0.14063,2.28125 1.29688,3.5 1.15625,1.20313 2.89062,1.20313 1.28125,0 2.1875,-0.67188 0.92188,-0.6875 1.45313,-2.17187 z m -7.6875,-3.78125 h 7.71875 q -0.15625,-1.75 -0.89063,-2.625 -1.125,-1.34375 -2.90625,-1.34375 -1.60937,0 -2.71875,1.07812 -1.09375,1.07813 -1.20312,2.89063 z m 3.85937,-9.51563 -1.48437,2.20313 h -2.67188 l 2.8125,-3.64063 h 2.5 l 2.92188,3.64063 h -2.65625 z m 14.30931,15.65625 0.32813,2.0625 q -0.98438,0.21875 -1.76563,0.21875 -1.26562,0 -1.96875,-0.40625 -0.70312,-0.40625 -1,-1.0625 -0.28125,-0.65625 -0.28125,-2.76562 v -7.95313 h -1.71875 v -1.82812 h 1.71875 v -3.42188 l 2.32813,-1.40625 v 4.82813 h 2.35937 v 1.82812 h -2.35937 v 8.07813 q 0,1 0.125,1.29687 0.125,0.28125 0.40625,0.45313 0.28125,0.17187 0.79687,0.17187 0.39063,0 1.03125,-0.0937 z m 11.74971,-2.35937 2.42188,0.29687 q -0.57813,2.125 -2.125,3.29688 -1.54688,1.17187 -3.95313,1.17187 -3.03125,0 -4.8125,-1.85937 -1.78125,-1.875 -1.78125,-5.25 0,-3.48438 1.79688,-5.40625 1.79687,-1.9375 4.67187,-1.9375 2.76563,0 4.51563,1.89062 1.76562,1.89063 1.76562,5.3125 0,0.20313 -0.0156,0.625 h -10.3125 q 0.14062,2.28125 1.29687,3.5 1.15625,1.20313 2.89063,1.20313 1.28125,0 2.1875,-0.67188 0.92187,-0.6875 1.45312,-2.17187 z m -7.6875,-3.78125 h 7.71875 q -0.15625,-1.75 -0.89062,-2.625 -1.125,-1.34375 -2.90625,-1.34375 -1.60938,0 -2.71875,1.07812 -1.09375,1.07813 -1.20313,2.89063 z m 12.10619,4.10937 2.32813,-0.35937 q 0.1875,1.39062 1.07812,2.14062 0.89063,0.73438 2.5,0.73438 1.60938,0 2.39063,-0.65625 0.78125,-0.65625 0.78125,-1.54688 0,-0.79687 -0.6875,-1.25 -0.48438,-0.3125 -2.39063,-0.79687 -2.57812,-0.65625 -3.57812,-1.125 -1,-0.46875 -1.51563,-1.3125 -0.51562,-0.84375 -0.51562,-1.85938 0,-0.92187 0.42187,-1.70312 0.4375,-0.79688 1.15625,-1.3125 0.54688,-0.40625 1.48438,-0.6875 0.95312,-0.28125 2.03125,-0.28125 1.625,0 2.85937,0.46875 1.23438,0.46875 1.8125,1.28125 0.59375,0.79687 0.8125,2.14062 l -2.29687,0.3125 q -0.15625,-1.07812 -0.90625,-1.67187 -0.75,-0.59375 -2.10938,-0.59375 -1.60937,0 -2.3125,0.53125 -0.6875,0.53125 -0.6875,1.25 0,0.45312 0.29688,0.8125 0.28125,0.375 0.89062,0.625 0.35938,0.14062 2.07813,0.60937 2.48437,0.65625 3.46875,1.07813 0.98437,0.42187 1.53125,1.23437 0.5625,0.79688 0.5625,2 0,1.17188 -0.6875,2.21875 -0.67188,1.03125 -1.96875,1.59375 -1.28125,0.5625 -2.90625,0.5625 -2.70313,0 -4.125,-1.10937 -1.40625,-1.125 -1.79688,-3.32813 z"
       fill-rule="nonzero"
       id="path6289" />
    <path
       fill="#000000"
       d="m 93.088585,537.47534 v -13.82813 h 2.109375 v 1.9375 q 0.640625,-1.01562 1.71875,-1.625 1.09375,-0.625 2.46875,-0.625 1.53125,0 2.51562,0.64063 0.98438,0.64062 1.39063,1.78125 1.64062,-2.42188 4.26562,-2.42188 2.0625,0 3.15625,1.14063 1.10938,1.14062 1.10938,3.51562 v 9.48438 h -2.32813 v -8.70313 q 0,-1.40625 -0.23437,-2.01562 -0.21875,-0.625 -0.82813,-1 -0.59375,-0.39063 -1.39062,-0.39063 -1.46875,0 -2.4375,0.96875 -0.95313,0.96875 -0.95313,3.10938 v 8.03125 h -2.34375 v -8.98438 q 0,-1.5625 -0.57812,-2.34375 -0.5625,-0.78125 -1.875,-0.78125 -0.984375,0 -1.828125,0.53125 -0.828125,0.51563 -1.21875,1.51563 -0.375,1 -0.375,2.89062 v 7.17188 z m 22.220485,-16.39063 v -2.6875 h 2.34375 v 2.6875 z m 0,16.39063 v -13.82813 h 2.34375 v 13.82813 z m 5.90654,0 v -13.82813 h 2.10938 v 1.96875 q 1.53125,-2.28125 4.40625,-2.28125 1.24999,0 2.29687,0.45313 1.04687,0.45312 1.5625,1.1875 0.53125,0.71875 0.73437,1.71875 0.125,0.65625 0.125,2.28125 v 8.5 h -2.34375 v -8.40625 q 0,-1.4375 -0.28125,-2.14063 -0.26562,-0.71875 -0.96875,-1.14062 -0.6875,-0.42188 -1.62499,-0.42188 -1.48438,0 -2.57813,0.95313 -1.09375,0.95312 -1.09375,3.60937 v 7.54688 z m 24.29368,-4.45313 2.42188,0.29688 q -0.57813,2.125 -2.125,3.29687 -1.54688,1.17188 -3.95313,1.17188 -3.03125,0 -4.8125,-1.85938 -1.78125,-1.875 -1.78125,-5.25 0,-3.48437 1.79688,-5.40625 1.79687,-1.9375 4.67187,-1.9375 2.76563,0 4.51563,1.89063 1.76562,1.89062 1.76562,5.3125 0,0.20312 -0.0156,0.625 h -10.3125 q 0.14062,2.28125 1.29687,3.5 1.15625,1.20312 2.89063,1.20312 1.28125,0 2.1875,-0.67187 0.92187,-0.6875 1.45312,-2.17188 z m -7.6875,-3.78125 h 7.71875 q -0.15625,-1.75 -0.89062,-2.625 -1.125,-1.34375 -2.90625,-1.34375 -1.60938,0 -2.71875,1.07813 -1.09375,1.07812 -1.20313,2.89062 z m 22.10619,8.23438 v -2.03125 q -1.60938,2.34375 -4.375,2.34375 -1.23438,0 -2.29688,-0.46875 -1.0625,-0.46875 -1.57812,-1.17188 -0.5,-0.71875 -0.71875,-1.75 -0.14063,-0.6875 -0.14063,-2.1875 v -8.5625 h 2.34375 v 7.67188 q 0,1.82812 0.14063,2.46875 0.21875,0.92187 0.9375,1.45312 0.71875,0.53125 1.76562,0.53125 1.0625,0 1.98438,-0.53125 0.92187,-0.54687 1.29687,-1.46875 0.39063,-0.9375 0.39063,-2.71875 v -7.40625 h 2.34375 v 13.82813 z m 5.74681,0 v -13.82813 h 2.10937 v 2.09375 q 0.79688,-1.46875 1.48438,-1.9375 0.6875,-0.46875 1.5,-0.46875 1.1875,0 2.40625,0.76563 l -0.79688,2.17187 q -0.85937,-0.51562 -1.71875,-0.51562 -0.76562,0 -1.39062,0.46875 -0.60938,0.45312 -0.85938,1.28125 -0.39062,1.25 -0.39062,2.73437 v 7.23438 z"
       fill-rule="nonzero"
       id="path6291" />
    <path
       fill="#cfe2f3"
       d="M 312.16272,542.65356 367.44357,427.53805 H 588.56695 L 533.28607,542.65356 Z"
       fill-rule="evenodd"
       id="path6293" />
    <path
       stroke="#000000"
       stroke-width="1"
       stroke-linejoin="round"
       stroke-linecap="butt"
       d="M 312.16272,542.65356 367.44357,427.53805 H 588.56695 L 533.28607,542.65356 Z"
       fill-rule="evenodd"
       id="path6295" />
    <path
       fill="#000000"
       d="m 376.41232,462.6958 7.3125,-19.07812 h 2.73438 l 7.79687,19.07812 h -2.875 l -2.21875,-5.78125 h -7.98437 l -2.09375,5.78125 z m 5.5,-7.82812 h 6.46875 l -2,-5.29688 q -0.90625,-2.40625 -1.34375,-3.95312 -0.375,1.84375 -1.03125,3.64062 z m 14.62326,7.82812 v -12 h -2.0625 v -1.82812 h 2.0625 v -1.46875 q 0,-1.39063 0.25,-2.0625 0.34375,-0.92188 1.1875,-1.48438 0.85938,-0.5625 2.39063,-0.5625 0.98437,0 2.1875,0.23438 l -0.34375,2.04687 q -0.73438,-0.14062 -1.39063,-0.14062 -1.0625,0 -1.51562,0.46875 -0.4375,0.45312 -0.4375,1.70312 v 1.26563 h 2.70312 v 1.82812 h -2.70312 v 12 z m 6.92419,0 v -12 h -2.0625 v -1.82812 h 2.0625 v -1.46875 q 0,-1.39063 0.25,-2.0625 0.34375,-0.92188 1.1875,-1.48438 0.85938,-0.5625 2.39063,-0.5625 0.98437,0 2.1875,0.23438 l -0.34375,2.04687 q -0.73438,-0.14062 -1.39063,-0.14062 -1.0625,0 -1.51562,0.46875 -0.4375,0.45312 -0.4375,1.70312 v 1.26563 h 2.70312 v 1.82812 h -2.70312 v 12 z m 6.85907,-16.39062 v -2.6875 h 2.34375 v 2.6875 z m 0,16.39062 v -13.82812 h 2.34375 v 13.82812 z m 14.93781,-5.0625 2.29687,0.29688 q -0.375,2.39062 -1.9375,3.73437 -1.54687,1.34375 -3.8125,1.34375 -2.84375,0 -4.5625,-1.84375 -1.71875,-1.85937 -1.71875,-5.32812 0,-2.23438 0.73438,-3.90625 0.75,-1.6875 2.26562,-2.53125 1.51563,-0.84375 3.29688,-0.84375 2.25,0 3.67187,1.14062 1.4375,1.14063 1.84375,3.23438 l -2.28125,0.35937 q -0.32812,-1.39062 -1.15625,-2.09375 -0.8125,-0.70312 -1.98437,-0.70312 -1.78125,0 -2.89063,1.26562 -1.09375,1.26563 -1.09375,4.01563 0,2.78125 1.0625,4.04687 1.0625,1.26563 2.78125,1.26563 1.39063,0 2.3125,-0.84375 0.92188,-0.85938 1.17188,-2.60938 z m 4.29687,5.0625 v -19.07812 h 2.34375 v 6.84375 q 1.64063,-1.90625 4.14063,-1.90625 1.54687,0 2.67187,0.60937 1.14063,0.60938 1.625,1.67188 0.48438,1.0625 0.48438,3.09375 v 8.76562 h -2.34375 v -8.76562 q 0,-1.75 -0.76563,-2.54688 -0.75,-0.8125 -2.15625,-0.8125 -1.03125,0 -1.95312,0.54688 -0.92188,0.54687 -1.3125,1.46875 -0.39063,0.92187 -0.39063,2.54687 v 7.5625 z m 23.85617,-1.70312 q -1.3125,1.10937 -2.51562,1.5625 -1.20313,0.45312 -2.57813,0.45312 -2.28125,0 -3.5,-1.10937 -1.21875,-1.10938 -1.21875,-2.84375 0,-1.01563 0.45313,-1.85938 0.46875,-0.84375 1.21875,-1.34375 0.75,-0.51562 1.6875,-0.76562 0.6875,-0.1875 2.07812,-0.35938 2.82813,-0.32812 4.17188,-0.79687 0.0156,-0.48438 0.0156,-0.625 0,-1.42188 -0.65625,-2.01563 -0.90625,-0.79687 -2.67187,-0.79687 -1.65625,0 -2.45313,0.59375 -0.78125,0.57812 -1.15625,2.04687 l -2.29687,-0.3125 q 0.3125,-1.46875 1.03125,-2.375 0.71875,-0.90625 2.0625,-1.39062 1.35937,-0.5 3.14062,-0.5 1.78125,0 2.875,0.42187 1.10938,0.42188 1.625,1.04688 0.53125,0.625 0.73438,1.59375 0.125,0.59375 0.125,2.15625 v 3.125 q 0,3.26562 0.14062,4.14062 0.15625,0.85938 0.59375,1.65625 h -2.4375 q -0.375,-0.73437 -0.46875,-1.70312 z m -0.20312,-5.23438 q -1.26563,0.51563 -3.82813,0.89063 -1.4375,0.20312 -2.04687,0.46875 -0.59375,0.25 -0.92188,0.75 -0.3125,0.5 -0.3125,1.125 0,0.9375 0.70313,1.5625 0.70312,0.625 2.07812,0.625 1.34375,0 2.39063,-0.59375 1.0625,-0.59375 1.5625,-1.625 0.375,-0.79688 0.375,-2.34375 z m 5.57495,8.07813 2.28125,0.34375 q 0.14063,1.04687 0.79688,1.53125 0.85937,0.65625 2.375,0.65625 1.625,0 2.5,-0.65625 0.89062,-0.64063 1.20312,-1.8125 0.1875,-0.71875 0.17188,-3.01563 -1.53125,1.8125 -3.82813,1.8125 -2.84375,0 -4.40625,-2.04687 -1.5625,-2.0625 -1.5625,-4.9375 0,-1.98438 0.71875,-3.65625 0.71875,-1.67188 2.07813,-2.57813 1.35937,-0.92187 3.1875,-0.92187 2.45312,0 4.03125,1.98437 v -1.67187 h 2.17187 v 11.95312 q 0,3.23438 -0.65625,4.57813 -0.65625,1.34375 -2.09375,2.125 -1.42187,0.78125 -3.5,0.78125 -2.46875,0 -4,-1.10938 -1.51562,-1.10937 -1.46875,-3.35937 z m 1.9375,-8.29688 q 0,2.71875 1.07813,3.96875 1.07812,1.25 2.70312,1.25 1.625,0 2.71875,-1.23437 1.09375,-1.25 1.09375,-3.90625 0,-2.54688 -1.125,-3.82813 -1.125,-1.29687 -2.71875,-1.29687 -1.5625,0 -2.65625,1.28125 -1.09375,1.26562 -1.09375,3.76562 z m 22.77805,2.70313 2.42187,0.29687 q -0.57812,2.125 -2.125,3.29688 -1.54687,1.17187 -3.95312,1.17187 -3.03125,0 -4.8125,-1.85937 -1.78125,-1.875 -1.78125,-5.25 0,-3.48438 1.79687,-5.40625 1.79688,-1.9375 4.67188,-1.9375 2.76562,0 4.51562,1.89062 1.76563,1.89063 1.76563,5.3125 0,0.20313 -0.0156,0.625 h -10.3125 q 0.14063,2.28125 1.29688,3.5 1.15625,1.20313 2.89062,1.20313 1.28125,0 2.1875,-0.67188 0.92188,-0.6875 1.45313,-2.17187 z m -7.6875,-3.78125 h 7.71875 q -0.15625,-1.75 -0.89063,-2.625 -1.125,-1.34375 -2.90625,-1.34375 -1.60937,0 -2.71875,1.07812 -1.09375,1.07813 -1.20312,2.89063 z m 21.10589,-2.92188 v -2.67187 h 2.67188 v 2.67187 z m 0,11.15625 v -2.67187 h 2.67188 v 2.67187 z"
       fill-rule="nonzero"
       id="path6297" />
    <path
       fill="#000000"
       d="m 382.03732,494.6958 -5.25,-13.82812 h 2.46875 l 2.96875,8.28125 q 0.48438,1.34375 0.89063,2.78125 0.29687,-1.09375 0.85937,-2.625 l 3.07813,-8.4375 h 2.40625 l -5.23438,13.82812 z m 8.625,-6.90625 q 0,-3.84375 2.125,-5.6875 1.78125,-1.54687 4.34375,-1.54687 2.85938,0 4.65625,1.875 1.8125,1.85937 1.8125,5.15625 0,2.67187 -0.79687,4.20312 -0.79688,1.53125 -2.32813,2.375 -1.53125,0.84375 -3.34375,0.84375 -2.89062,0 -4.6875,-1.85937 -1.78125,-1.85938 -1.78125,-5.35938 z m 2.40625,0 q 0,2.65625 1.15625,3.98438 1.15625,1.3125 2.90625,1.3125 1.75,0 2.90625,-1.32813 1.15625,-1.32812 1.15625,-4.04687 0,-2.5625 -1.17187,-3.89063 -1.15625,-1.32812 -2.89063,-1.32812 -1.75,0 -2.90625,1.32812 -1.15625,1.3125 -1.15625,3.96875 z m 22.34055,6.90625 v -2.03125 q -1.60938,2.34375 -4.375,2.34375 -1.23438,0 -2.29688,-0.46875 -1.0625,-0.46875 -1.57812,-1.17187 -0.5,-0.71875 -0.71875,-1.75 -0.14063,-0.6875 -0.14063,-2.1875 v -8.5625 h 2.34375 v 7.67187 q 0,1.82813 0.14063,2.46875 0.21875,0.92188 0.9375,1.45313 0.71875,0.53125 1.76562,0.53125 1.0625,0 1.98438,-0.53125 0.92187,-0.54688 1.29687,-1.46875 0.39063,-0.9375 0.39063,-2.71875 v -7.40625 h 2.34375 v 13.82812 z m 4.82495,-4.125 2.32812,-0.35937 q 0.1875,1.39062 1.07813,2.14062 0.89062,0.73438 2.5,0.73438 1.60937,0 2.39062,-0.65625 0.78125,-0.65625 0.78125,-1.54688 0,-0.79687 -0.6875,-1.25 -0.48437,-0.3125 -2.39062,-0.79687 -2.57813,-0.65625 -3.57813,-1.125 -1,-0.46875 -1.51562,-1.3125 -0.51563,-0.84375 -0.51563,-1.85938 0,-0.92187 0.42188,-1.70312 0.4375,-0.79688 1.15625,-1.3125 0.54687,-0.40625 1.48437,-0.6875 0.95313,-0.28125 2.03125,-0.28125 1.625,0 2.85938,0.46875 1.23437,0.46875 1.8125,1.28125 0.59375,0.79687 0.8125,2.14062 l -2.29688,0.3125 q -0.15625,-1.07812 -0.90625,-1.67187 -0.75,-0.59375 -2.10937,-0.59375 -1.60938,0 -2.3125,0.53125 -0.6875,0.53125 -0.6875,1.25 0,0.45312 0.29687,0.8125 0.28125,0.375 0.89063,0.625 0.35937,0.14062 2.07812,0.60937 2.48438,0.65625 3.46875,1.07813 0.98438,0.42187 1.53125,1.23437 0.5625,0.79688 0.5625,2 0,1.17188 -0.6875,2.21875 -0.67187,1.03125 -1.96875,1.59375 -1.28125,0.5625 -2.90625,0.5625 -2.70312,0 -4.125,-1.10937 -1.40625,-1.125 -1.79687,-3.32813 z m 31.14032,-0.32812 2.42187,0.29687 q -0.57812,2.125 -2.125,3.29688 -1.54687,1.17187 -3.95312,1.17187 -3.03125,0 -4.8125,-1.85937 -1.78125,-1.875 -1.78125,-5.25 0,-3.48438 1.79687,-5.40625 1.79688,-1.9375 4.67188,-1.9375 2.76562,0 4.51562,1.89062 1.76563,1.89063 1.76563,5.3125 0,0.20313 -0.0156,0.625 h -10.3125 q 0.14063,2.28125 1.29688,3.5 1.15625,1.20313 2.89062,1.20313 1.28125,0 2.1875,-0.67188 0.92188,-0.6875 1.45313,-2.17187 z m -7.6875,-3.78125 h 7.71875 q -0.15625,-1.75 -0.89063,-2.625 -1.125,-1.34375 -2.90625,-1.34375 -1.60937,0 -2.71875,1.07812 -1.09375,1.07813 -1.20312,2.89063 z m 3.85937,-9.51563 -1.48437,2.20313 h -2.67188 l 2.8125,-3.64063 h 2.5 l 2.92188,3.64063 h -2.65625 z m 14.30933,15.65625 0.32812,2.0625 q -0.98437,0.21875 -1.76562,0.21875 -1.26563,0 -1.96875,-0.40625 -0.70313,-0.40625 -1,-1.0625 -0.28125,-0.65625 -0.28125,-2.76562 v -7.95313 h -1.71875 v -1.82812 h 1.71875 v -3.42188 l 2.32812,-1.40625 v 4.82813 h 2.35938 v 1.82812 h -2.35938 v 8.07813 q 0,1 0.125,1.29687 0.125,0.28125 0.40625,0.45313 0.28125,0.17187 0.79688,0.17187 0.39062,0 1.03125,-0.0937 z m 11.74969,-2.35937 2.42188,0.29687 q -0.57813,2.125 -2.125,3.29688 -1.54688,1.17187 -3.95313,1.17187 -3.03125,0 -4.8125,-1.85937 -1.78125,-1.875 -1.78125,-5.25 0,-3.48438 1.79688,-5.40625 1.79687,-1.9375 4.67187,-1.9375 2.76563,0 4.51563,1.89062 1.76562,1.89063 1.76562,5.3125 0,0.20313 -0.0156,0.625 h -10.3125 q 0.14062,2.28125 1.29687,3.5 1.15625,1.20313 2.89063,1.20313 1.28125,0 2.1875,-0.67188 0.92187,-0.6875 1.45312,-2.17187 z m -7.6875,-3.78125 h 7.71875 q -0.15625,-1.75 -0.89062,-2.625 -1.125,-1.34375 -2.90625,-1.34375 -1.60938,0 -2.71875,1.07812 -1.09375,1.07813 -1.20313,2.89063 z m 12.1062,4.10937 2.32813,-0.35937 q 0.1875,1.39062 1.07812,2.14062 0.89063,0.73438 2.5,0.73438 1.60938,0 2.39063,-0.65625 0.78125,-0.65625 0.78125,-1.54688 0,-0.79687 -0.6875,-1.25 -0.48438,-0.3125 -2.39063,-0.79687 -2.57812,-0.65625 -3.57812,-1.125 -1,-0.46875 -1.51563,-1.3125 -0.51562,-0.84375 -0.51562,-1.85938 0,-0.92187 0.42187,-1.70312 0.4375,-0.79688 1.15625,-1.3125 0.54688,-0.40625 1.48438,-0.6875 0.95312,-0.28125 2.03125,-0.28125 1.625,0 2.85937,0.46875 1.23438,0.46875 1.8125,1.28125 0.59375,0.79687 0.8125,2.14062 l -2.29687,0.3125 q -0.15625,-1.07812 -0.90625,-1.67187 -0.75,-0.59375 -2.10938,-0.59375 -1.60937,0 -2.3125,0.53125 -0.6875,0.53125 -0.6875,1.25 0,0.45312 0.29688,0.8125 0.28125,0.375 0.89062,0.625 0.35938,0.14062 2.07813,0.60937 2.48437,0.65625 3.46875,1.07813 0.98437,0.42187 1.53125,1.23437 0.5625,0.79688 0.5625,2 0,1.17188 -0.6875,2.21875 -0.67188,1.03125 -1.96875,1.59375 -1.28125,0.5625 -2.90625,0.5625 -2.70313,0 -4.125,-1.10937 -1.40625,-1.125 -1.79688,-3.32813 z"
       fill-rule="nonzero"
       id="path6299" />
    <path
       fill="#000000"
       d="m 378.19357,526.6958 v -13.82813 h 2.10938 v 1.9375 q 0.64062,-1.01562 1.71875,-1.625 1.09375,-0.625 2.46875,-0.625 1.53125,0 2.51562,0.64063 0.98438,0.64062 1.39063,1.78125 1.64062,-2.42188 4.26562,-2.42188 2.0625,0 3.15625,1.14063 1.10938,1.14062 1.10938,3.51562 v 9.48438 h -2.32813 v -8.70313 q 0,-1.40625 -0.23437,-2.01562 -0.21875,-0.625 -0.82813,-1 -0.59375,-0.39063 -1.39062,-0.39063 -1.46875,0 -2.4375,0.96875 -0.95313,0.96875 -0.95313,3.10938 v 8.03125 h -2.34375 v -8.98438 q 0,-1.5625 -0.57812,-2.34375 -0.5625,-0.78125 -1.875,-0.78125 -0.98438,0 -1.82813,0.53125 -0.82812,0.51563 -1.21875,1.51563 -0.375,1 -0.375,2.89062 v 7.17188 z m 31.23611,-1.70313 q -1.3125,1.10938 -2.51562,1.5625 -1.20313,0.45313 -2.57813,0.45313 -2.28125,0 -3.5,-1.10938 -1.21875,-1.10937 -1.21875,-2.84375 0,-1.01562 0.45313,-1.85937 0.46875,-0.84375 1.21875,-1.34375 0.75,-0.51563 1.6875,-0.76563 0.6875,-0.1875 2.07812,-0.35937 2.82813,-0.32813 4.17188,-0.79688 0.0156,-0.48437 0.0156,-0.625 0,-1.42187 -0.65625,-2.01562 -0.90625,-0.79688 -2.67187,-0.79688 -1.65625,0 -2.45313,0.59375 -0.78125,0.57813 -1.15625,2.04688 l -2.29687,-0.3125 q 0.3125,-1.46875 1.03125,-2.375 0.71875,-0.90625 2.0625,-1.39063 1.35937,-0.5 3.14062,-0.5 1.78125,0 2.875,0.42188 1.10938,0.42187 1.625,1.04687 0.53125,0.625 0.73438,1.59375 0.125,0.59375 0.125,2.15625 v 3.125 q 0,3.26563 0.14062,4.14063 0.15625,0.85937 0.59375,1.65625 h -2.4375 q -0.375,-0.73438 -0.46875,-1.70313 z m -0.20312,-5.23437 q -1.26563,0.51562 -3.82813,0.89062 -1.4375,0.20313 -2.04687,0.46875 -0.59375,0.25 -0.92188,0.75 -0.3125,0.5 -0.3125,1.125 0,0.9375 0.70313,1.5625 0.70312,0.625 2.07812,0.625 1.34375,0 2.39063,-0.59375 1.0625,-0.59375 1.5625,-1.625 0.375,-0.79687 0.375,-2.34375 z m 5.9968,-9.42188 v -2.71875 h 2.34375 v 2.71875 z m -2.96875,21.71875 0.4375,-1.98437 q 0.70312,0.17187 1.10937,0.17187 0.71875,0 1.0625,-0.46875 0.35938,-0.46875 0.35938,-2.375 v -14.53125 h 2.34375 v 14.57813 q 0,2.5625 -0.67188,3.5625 -0.84375,1.29687 -2.8125,1.29687 -0.95312,0 -1.82812,-0.25 z m 18.35968,-9.8125 2.42187,0.29688 q -0.57812,2.125 -2.125,3.29687 -1.54687,1.17188 -3.95312,1.17188 -3.03125,0 -4.8125,-1.85938 -1.78125,-1.875 -1.78125,-5.25 0,-3.48437 1.79687,-5.40625 1.79688,-1.9375 4.67188,-1.9375 2.76562,0 4.51562,1.89063 1.76563,1.89062 1.76563,5.3125 0,0.20312 -0.0156,0.625 h -10.3125 q 0.14063,2.28125 1.29688,3.5 1.15625,1.20312 2.89062,1.20312 1.28125,0 2.1875,-0.67187 0.92188,-0.6875 1.45313,-2.17188 z m -7.6875,-3.78125 h 7.71875 q -0.15625,-1.75 -0.89063,-2.625 -1.125,-1.34375 -2.90625,-1.34375 -1.60937,0 -2.71875,1.07813 -1.09375,1.07812 -1.20312,2.89062 z m 22.10617,8.23438 v -2.03125 q -1.60938,2.34375 -4.375,2.34375 -1.23438,0 -2.29688,-0.46875 -1.0625,-0.46875 -1.57812,-1.17188 -0.5,-0.71875 -0.71875,-1.75 -0.14063,-0.6875 -0.14063,-2.1875 v -8.5625 h 2.34375 v 7.67188 q 0,1.82812 0.14063,2.46875 0.21875,0.92187 0.9375,1.45312 0.71875,0.53125 1.76562,0.53125 1.0625,0 1.98438,-0.53125 0.92187,-0.54687 1.29687,-1.46875 0.39063,-0.9375 0.39063,-2.71875 v -7.40625 h 2.34375 v 13.82813 z m 5.74682,0 v -13.82813 h 2.10938 v 2.09375 q 0.79687,-1.46875 1.48437,-1.9375 0.6875,-0.46875 1.5,-0.46875 1.1875,0 2.40625,0.76563 l -0.79687,2.17187 q -0.85938,-0.51562 -1.71875,-0.51562 -0.76563,0 -1.39063,0.46875 -0.60937,0.45312 -0.85937,1.28125 -0.39063,1.25 -0.39063,2.73437 v 7.23438 z"
       fill-rule="nonzero"
       id="path6301" />
    <path
       fill="#000000"
       fill-opacity="0"
       d="m 192.32414,150.08005 v 26.39371"
       fill-rule="evenodd"
       id="path6303" />
    <path
       stroke="#000000"
       stroke-width="1"
       stroke-linejoin="round"
       stroke-linecap="butt"
       d="m 192.32414,150.08005 v 20.39371"
       fill-rule="evenodd"
       id="path6305" />
    <path
       fill="#000000"
       stroke="#000000"
       stroke-width="1"
       stroke-linecap="butt"
       d="m 190.67241,170.47375 1.65173,4.5381 1.65174,-4.5381 z"
       fill-rule="evenodd"
       id="path6307" />
    <path
       fill="#000000"
       fill-opacity="0"
       d="m 165.26352,252.81102 v 25.57481"
       fill-rule="evenodd"
       id="path6309" />
    <path
       stroke="#000000"
       stroke-width="1"
       stroke-linejoin="round"
       stroke-linecap="butt"
       d="m 165.26352,252.81102 v 19.57481"
       fill-rule="evenodd"
       id="path6311" />
    <path
       fill="#000000"
       stroke="#000000"
       stroke-width="1"
       stroke-linecap="butt"
       d="m 163.61179,272.38583 1.65173,4.53809 1.65174,-4.53809 z"
       fill-rule="evenodd"
       id="path6313" />
    <path
       fill="#000000"
       fill-opacity="0"
       d="m 165.25984,393.51575 v 44.78742"
       fill-rule="evenodd"
       id="path6315" />
    <path
       stroke="#000000"
       stroke-width="1"
       stroke-linejoin="round"
       stroke-linecap="butt"
       d="m 165.25984,393.51575 v 38.78742"
       fill-rule="evenodd"
       id="path6317" />
    <path
       fill="#000000"
       stroke="#000000"
       stroke-width="1"
       stroke-linecap="butt"
       d="m 163.60811,432.30316 1.65173,4.53809 1.65174,-4.53809 z"
       fill-rule="evenodd"
       id="path6319" />
    <path
       fill="#000000"
       fill-opacity="0"
       d="m 418.4736,616.57367 -187.49606,-0.3465"
       fill-rule="evenodd"
       id="path6321" />
    <path
       stroke="#000000"
       stroke-width="1"
       stroke-linejoin="round"
       stroke-linecap="butt"
       d="M 418.4736,616.57367 236.9775,616.23828"
       fill-rule="evenodd"
       id="path6323" />
    <path
       fill="#000000"
       stroke="#000000"
       stroke-width="1"
       stroke-linecap="butt"
       d="m 236.98056,614.58655 -4.54114,1.64337 4.53504,1.6601 z"
       fill-rule="evenodd"
       id="path6325" />
    <path
       fill="#000000"
       fill-opacity="0"
       d="m 165.25984,389.51968 h 77.32283 v 42.01575 h -77.32283 z"
       fill-rule="evenodd"
       id="path6327" />
    <path
       fill="#000000"
       d="m 179.10359,416.4397 v -11.78125 h -4.40625 v -1.57812 h 10.57812 v 1.57812 h -4.40625 v 11.78125 z m 7.07828,0 v -9.67187 h 1.46875 v 1.46875 q 0.5625,-1.03125 1.03125,-1.35938 0.48437,-0.32812 1.0625,-0.32812 0.82812,0 1.6875,0.53125 l -0.5625,1.51562 q -0.60938,-0.35937 -1.20313,-0.35937 -0.54687,0 -0.96875,0.32812 -0.42187,0.32813 -0.60937,0.89063 -0.28125,0.875 -0.28125,1.92187 v 5.0625 z m 12.55642,0 v -1.42187 q -1.125,1.64062 -3.0625,1.64062 -0.85937,0 -1.60937,-0.32812 -0.73438,-0.32813 -1.09375,-0.82813 -0.35938,-0.5 -0.5,-1.21875 -0.10938,-0.46875 -0.10938,-1.53125 v -5.98437 h 1.64063 v 5.35937 q 0,1.28125 0.10937,1.73438 0.15625,0.64062 0.65625,1.01562 0.5,0.375 1.23438,0.375 0.73437,0 1.375,-0.375 0.65625,-0.39062 0.92187,-1.03125 0.26563,-0.65625 0.26563,-1.89062 v -5.1875 h 1.64062 v 9.67187 z m 10.6726,-3.10937 1.6875,0.20312 q -0.40625,1.48438 -1.48438,2.3125 -1.07812,0.8125 -2.76562,0.8125 -2.125,0 -3.375,-1.29687 -1.23438,-1.3125 -1.23438,-3.67188 0,-2.45312 1.25,-3.79687 1.26563,-1.34375 3.26563,-1.34375 1.9375,0 3.15625,1.32812 1.23437,1.3125 1.23437,3.70313 0,0.15625 0,0.4375 h -7.21875 q 0.0937,1.59375 0.90625,2.45312 0.8125,0.84375 2.01563,0.84375 0.90625,0 1.54687,-0.46875 0.64063,-0.48437 1.01563,-1.51562 z m -5.39063,-2.65625 h 5.40625 q -0.10937,-1.21875 -0.625,-1.82813 -0.78125,-0.95312 -2.03125,-0.95312 -1.125,0 -1.90625,0.76562 -0.76562,0.75 -0.84375,2.01563 z"
       fill-rule="nonzero"
       id="path6329" />
    <path
       fill="#000000"
       fill-opacity="0"
       d="m 379.8084,338.99213 h 70.55118 v 42.01575 H 379.8084 Z"
       fill-rule="evenodd"
       id="path6331" />
    <path
       fill="#000000"
       d="m 390.33966,365.9121 v -13.35938 h 9.01562 v 1.57813 h -7.25 v 4.14062 h 6.26563 v 1.57813 h -6.26563 v 6.0625 z m 17.41159,-1.1875 q -0.92188,0.76562 -1.76563,1.09375 -0.82812,0.3125 -1.79687,0.3125 -1.59375,0 -2.45313,-0.78125 -0.85937,-0.78125 -0.85937,-1.98438 0,-0.71875 0.32812,-1.29687 0.32813,-0.59375 0.84375,-0.9375 0.53125,-0.35938 1.1875,-0.54688 0.46875,-0.125 1.45313,-0.25 1.98437,-0.23437 2.92187,-0.5625 0.0156,-0.34375 0.0156,-0.42187 0,-1 -0.46875,-1.42188 -0.625,-0.54687 -1.875,-0.54687 -1.15625,0 -1.70313,0.40625 -0.54687,0.40625 -0.8125,1.42187 l -1.60937,-0.21875 q 0.21875,-1.01562 0.71875,-1.64062 0.5,-0.64063 1.45312,-0.98438 0.95313,-0.34375 2.1875,-0.34375 1.25,0 2.01563,0.29688 0.78125,0.28125 1.14062,0.73437 0.375,0.4375 0.51563,1.10938 0.0781,0.42187 0.0781,1.51562 v 2.1875 q 0,2.28125 0.10938,2.89063 0.10937,0.59375 0.40625,1.15625 h -1.70313 q -0.26562,-0.51563 -0.32812,-1.1875 z m -0.14063,-3.67188 q -0.89062,0.375 -2.67187,0.625 -1.01563,0.14063 -1.4375,0.32813 -0.42188,0.1875 -0.65625,0.53125 -0.21875,0.34375 -0.21875,0.78125 0,0.65625 0.5,1.09375 0.5,0.4375 1.45312,0.4375 0.9375,0 1.67188,-0.40625 0.75,-0.42188 1.09375,-1.14063 0.26562,-0.5625 0.26562,-1.64062 z m 4.15699,4.85938 v -13.35938 h 1.64062 v 13.35938 z m 3.53543,-2.89063 1.625,-0.25 q 0.125,0.96875 0.75,1.5 0.625,0.51563 1.75,0.51563 1.125,0 1.67187,-0.45313 0.54688,-0.46875 0.54688,-1.09375 0,-0.54687 -0.48438,-0.875 -0.32812,-0.21875 -1.67187,-0.54687 -1.8125,-0.46875 -2.51563,-0.79688 -0.6875,-0.32812 -1.04687,-0.90625 -0.35938,-0.59375 -0.35938,-1.3125 0,-0.64062 0.29688,-1.1875 0.29687,-0.5625 0.8125,-0.92187 0.375,-0.28125 1.03125,-0.46875 0.67187,-0.20313 1.42187,-0.20313 1.14063,0 2,0.32813 0.85938,0.32812 1.26563,0.89062 0.42187,0.5625 0.57812,1.5 l -1.60937,0.21875 q -0.10938,-0.75 -0.64063,-1.17187 -0.51562,-0.42188 -1.46875,-0.42188 -1.14062,0 -1.625,0.375 -0.46875,0.375 -0.46875,0.875 0,0.3125 0.1875,0.57813 0.20313,0.26562 0.64063,0.4375 0.23437,0.0937 1.4375,0.42187 1.75,0.45313 2.4375,0.75 0.6875,0.29688 1.07812,0.85938 0.39063,0.5625 0.39063,1.40625 0,0.82812 -0.48438,1.54687 -0.46875,0.71875 -1.375,1.125 -0.90625,0.39063 -2.04687,0.39063 -1.875,0 -2.875,-0.78125 -0.98438,-0.78125 -1.25,-2.32813 z m 16.60937,-0.21875 1.6875,0.20313 q -0.40625,1.48437 -1.48437,2.3125 -1.07813,0.8125 -2.76563,0.8125 -2.125,0 -3.375,-1.29688 -1.23437,-1.3125 -1.23437,-3.67187 0,-2.45313 1.25,-3.79688 1.26562,-1.34375 3.26562,-1.34375 1.9375,0 3.15625,1.32813 1.23438,1.3125 1.23438,3.70312 0,0.15625 0,0.4375 h -7.21875 q 0.0937,1.59375 0.90625,2.45313 0.8125,0.84375 2.01562,0.84375 0.90625,0 1.54688,-0.46875 0.64062,-0.48438 1.01562,-1.51563 z m -5.39062,-2.65625 h 5.40625 q -0.10938,-1.21875 -0.625,-1.82812 -0.78125,-0.95313 -2.03125,-0.95313 -1.125,0 -1.90625,0.76563 -0.76563,0.75 -0.84375,2.01562 z"
       fill-rule="nonzero"
       id="path6333" />
    <path
       fill="#000000"
       fill-opacity="0"
       d="M 360.48294,214.63649 H 300.57742"
       fill-rule="evenodd"
       id="path6335" />
    <path
       stroke="#000000"
       stroke-width="1"
       stroke-linejoin="round"
       stroke-linecap="butt"
       d="M 360.48294,214.63649 H 306.57742"
       fill-rule="evenodd"
       id="path6337" />
    <path
       fill="#000000"
       stroke="#000000"
       stroke-width="1"
       stroke-linecap="butt"
       d="m 306.57742,212.98476 -4.53809,1.65173 4.53809,1.65172 z"
       fill-rule="evenodd"
       id="path6339" />
    <path
       fill="#000000"
       fill-opacity="0"
       d="m 303.46194,335.958 h 146.89764 v 91.59055"
       fill-rule="evenodd"
       id="path6341" />
    <path
       stroke="#000000"
       stroke-width="1"
       stroke-linejoin="round"
       stroke-linecap="butt"
       d="m 303.46194,335.958 h 146.89764 v 91.59055"
       fill-rule="evenodd"
       id="path6343" />
    <path
       fill="#000000"
       fill-opacity="0"
       d="m 450.3596,360 v 67.52756"
       fill-rule="evenodd"
       id="path6345" />
    <path
       stroke="#000000"
       stroke-width="1"
       stroke-linejoin="round"
       stroke-linecap="butt"
       d="m 450.3596,360 v 61.52756"
       fill-rule="evenodd"
       id="path6347" />
    <path
       fill="#000000"
       stroke="#000000"
       stroke-width="1"
       stroke-linecap="butt"
       d="m 448.70786,421.52756 1.65173,4.53809 1.65174,-4.53809 z"
       fill-rule="evenodd"
       id="path6349" />
    <path
       fill="#000000"
       fill-opacity="0"
       d="m 422.7244,542.65356 v 73.57477 H 230.97638"
       fill-rule="evenodd"
       id="path6351" />
    <path
       stroke="#000000"
       stroke-width="1"
       stroke-linejoin="round"
       stroke-linecap="butt"
       d="m 422.7244,542.65356 v 73.57477 H 236.97638"
       fill-rule="evenodd"
       id="path6353" />
    <path
       fill="#000000"
       stroke="#000000"
       stroke-width="1"
       stroke-linecap="butt"
       d="m 236.97638,614.5766 -4.5381,1.65173 4.5381,1.65174 z"
       fill-rule="evenodd"
       id="path6355" />
  </g>
</svg>
