<svg version="1.1" viewBox="0.0 0.0 960.0 720.0" fill="none" stroke="none" stroke-linecap="square" stroke-miterlimit="10" xmlns:xlink="http://www.w3.org/1999/xlink" xmlns="http://www.w3.org/2000/svg"><clipPath id="p.0"><path d="m0 0l960.0 0l0 720.0l-960.0 0l0 -720.0z" clip-rule="nonzero"/></clipPath><g clip-path="url(#p.0)"><path fill="#000000" fill-opacity="0.0" d="m0 0l960.0 0l0 720.0l-960.0 0z" fill-rule="evenodd"/><path fill="#cfe2f3" d="m130.73216 9.6640415l82.58986 0l0 0c10.819489 0 19.590424 12.763481 19.590424 28.508032c0 15.744553 -8.770935 28.508034 -19.590424 28.508034l-82.58986 0l0 0c-10.819496 0 -19.590431 -12.763481 -19.590431 -28.508034c0 -15.744551 8.770935 -28.508032 19.590431 -28.508032z" fill-rule="evenodd"/><path stroke="#000000" stroke-width="1.0" stroke-linejoin="round" stroke-linecap="butt" d="m130.73216 9.6640415l82.58986 0l0 0c10.819489 0 19.590424 12.763481 19.590424 28.508032c0 15.744553 -8.770935 28.508034 -19.590424 28.508034l-82.58986 0l0 0c-10.819496 0 -19.590431 -12.763481 -19.590431 -28.508034c0 -15.744551 8.770935 -28.508032 19.590431 -28.508032z" fill-rule="evenodd"/><path fill="#000000" d="m134.0857 47.77207l0 -19.078125l6.5625 0q2.234375 0 3.40625 0.265625q1.640625 0.375 2.796875 1.375q1.5 1.265625 2.25 3.25q0.75 1.984375 0.75 4.546875q0 2.171875 -0.515625 3.859375q-0.5 1.671875 -1.296875 2.78125q-0.78125 1.09375 -1.734375 1.71875q-0.9375 0.625 -2.28125 0.953125q-1.328125 0.328125 -3.0625 0.328125l-6.875 0zm2.515625 -2.25l4.078125 0q1.890625 0 2.953125 -0.34375q1.078125 -0.359375 1.71875 -1.0q0.890625 -0.890625 1.390625 -2.40625q0.515625 -1.515625 0.515625 -3.6875q0 -2.984375 -0.984375 -4.59375q-0.984375 -1.609375 -2.390625 -2.15625q-1.015625 -0.390625 -3.265625 -0.390625l-4.015625 0l0 14.578125zm25.890915 -2.203125l2.421875 0.296875q-0.578125 2.125 -2.125 3.296875q-1.546875 1.171875 -3.953125 1.171875q-3.03125 0 -4.8125 -1.859375q-1.78125 -1.875 -1.78125 -5.25q0 -3.484375 1.796875 -5.40625q1.796875 -1.9375 4.671875 -1.9375q2.765625 0 4.515625 1.890625q1.765625 1.890625 1.765625 5.3125q0 0.203125 -0.015625 0.625l-10.3125 0q0.140625 2.28125 1.296875 3.5q1.15625 1.203125 2.890625 1.203125q1.28125 0 2.1875 -0.671875q0.921875 -0.6875 1.453125 -2.171875zm-7.6875 -3.78125l7.71875 0q-0.15625 -1.75 -0.890625 -2.625q-1.125 -1.34375 -2.90625 -1.34375q-1.609375 0 -2.71875 1.078125q-1.09375 1.078125 -1.203125 2.890625zm2.515625 -7.3125l1.734375 -3.640625l3.0625 0l-2.859375 3.640625l-1.9375 0zm10.528061 20.84375l0 -19.125l2.140625 0l0 1.796875q0.75 -1.046875 1.703125 -1.578125q0.953125 -0.53125 2.3125 -0.53125q1.765625 0 3.109375 0.921875q1.359375 0.90625 2.046875 2.5625q0.6875 1.65625 0.6875 3.640625q0 2.125 -0.765625 3.828125q-0.75 1.6875 -2.203125 2.59375q-1.453125 0.90625 -3.046875 0.90625q-1.171875 0 -2.109375 -0.484375q-0.921875 -0.5 -1.53125 -1.265625l0 6.734375l-2.34375 0zm2.125 -12.125q0 2.65625 1.078125 3.9375q1.09375 1.28125 2.625 1.28125q1.5625 0 2.671875 -1.3125q1.109375 -1.328125 1.109375 -4.109375q0 -2.640625 -1.09375 -3.953125q-1.078125 -1.3125 -2.59375 -1.3125q-1.484375 0 -2.640625 1.40625q-1.15625 1.390625 -1.15625 4.0625zm21.731186 5.125q-1.3125 1.109375 -2.515625 1.5625q-1.203125 0.453125 -2.578125 0.453125q-2.28125 0 -3.5 -1.109375q-1.21875 -1.109375 -1.21875 -2.84375q0 -1.015625 0.453125 -1.859375q0.46875 -0.84375 1.21875 -1.34375q0.75 -0.515625 1.6875 -0.765625q0.6875 -0.1875 2.078125 -0.359375q2.828125 -0.328125 4.171875 -0.796875q0.015625 -0.484375 0.015625 -0.625q0 -1.421875 -0.65625 -2.015625q-0.90625 -0.796875 -2.671875 -0.796875q-1.65625 0 -2.453125 0.59375q-0.78125 0.578125 -1.15625 2.046875l-2.296875 -0.3125q0.3125 -1.46875 1.03125 -2.375q0.71875 -0.90625 2.0625 -1.390625q1.359375 -0.5 3.140625 -0.5q1.78125 0 2.875 0.421875q1.109375 0.421875 1.625 1.046875q0.53125 0.625 0.734375 1.59375q0.125 0.59375 0.125 2.15625l0 3.125q0 3.265625 0.140625 4.140625q0.15625 0.859375 0.59375 1.65625l-2.4375 0q-0.375 -0.734375 -0.46875 -1.703125zm-0.203125 -5.234375q-1.265625 0.515625 -3.828125 0.890625q-1.4375 0.203125 -2.046875 0.46875q-0.59375 0.25 -0.921875 0.75q-0.3125 0.5 -0.3125 1.125q0 0.9375 0.703125 1.5625q0.703125 0.625 2.078125 0.625q1.34375 0 2.390625 -0.59375q1.0625 -0.59375 1.5625 -1.625q0.375 -0.796875 0.375 -2.34375l0 -0.859375zm5.981186 6.9375l0 -13.828125l2.109375 0l0 2.09375q0.796875 -1.46875 1.484375 -1.9375q0.6875 -0.46875 1.5 -0.46875q1.1875 0 2.40625 0.765625l-0.796875 2.171875q-0.859375 -0.515625 -1.71875 -0.515625q-0.765625 0 -1.390625 0.46875q-0.609375 0.453125 -0.859375 1.28125q-0.390625 1.25 -0.390625 2.734375l0 7.234375l-2.34375 0zm14.0173645 -2.09375l0.328125 2.0625q-0.984375 0.21875 -1.765625 0.21875q-1.265625 0 -1.96875 -0.40625q-0.703125 -0.40625 -1.0 -1.0625q-0.28125 -0.65625 -0.28125 -2.765625l0 -7.953125l-1.71875 0l0 -1.828125l1.71875 0l0 -3.421875l2.328125 -1.40625l0 4.828125l2.359375 0l0 1.828125l-2.359375 0l0 8.078125q0 1.0 0.125 1.296875q0.125 0.28125 0.40625 0.453125q0.28125 0.171875 0.796875 0.171875q0.390625 0 1.03125 -0.09375z" fill-rule="nonzero"/><path fill="#cfe2f3" d="m127.45785 445.6509l89.14582 0l0 0c11.678345 0 21.145523 12.763489 21.145523 28.508026c0 15.744568 -9.467178 28.508057 -21.145523 28.508057l-89.14582 0l0 0c-11.678345 0 -21.145515 -12.763489 -21.145515 -28.508057c0 -15.744537 9.467171 -28.508026 21.145515 -28.508026z" fill-rule="evenodd"/><path stroke="#000000" stroke-width="1.0" stroke-linejoin="round" stroke-linecap="butt" d="m127.45785 445.6509l89.14582 0l0 0c11.678345 0 21.145523 12.763489 21.145523 28.508026c0 15.744568 -9.467178 28.508057 -21.145523 28.508057l-89.14582 0l0 0c-11.678345 0 -21.145515 -12.763489 -21.145515 -28.508057c0 -15.744537 9.467171 -28.508026 21.145515 -28.508026z" fill-rule="evenodd"/><path fill="#000000" d="m155.70335 483.75894l0 -19.078125l12.875 0l0 2.25l-10.34375 0l0 5.90625l8.953125 0l0 2.25l-8.953125 0l0 8.671875l-2.53125 0zm15.860825 -16.390625l0 -2.6875l2.34375 0l0 2.6875l-2.34375 0zm0 16.390625l0 -13.828125l2.34375 0l0 13.828125l-2.34375 0zm5.906555 0l0 -13.828125l2.109375 0l0 1.96875q1.53125 -2.28125 4.40625 -2.28125q1.25 0 2.296875 0.453125q1.046875 0.453125 1.5625 1.1875q0.53125 0.71875 0.734375 1.71875q0.125 0.65625 0.125 2.28125l0 8.5l-2.34375 0l0 -8.40625q0 -1.4375 -0.28125 -2.140625q-0.265625 -0.71875 -0.96875 -1.140625q-0.6875 -0.421875 -1.625 -0.421875q-1.484375 0 -2.578125 0.953125q-1.09375 0.953125 -1.09375 3.609375l0 7.546875l-2.34375 0z" fill-rule="nonzero"/><path fill="#cfe2f3" d="m15.948819 213.09703l312.1601 0l0 98.27034l-312.1601 0z" fill-rule="evenodd"/><path stroke="#000000" stroke-width="1.0" stroke-linejoin="round" stroke-linecap="butt" d="m15.948819 213.09703l312.1601 0l0 98.27034l-312.1601 0z" fill-rule="evenodd"/><path fill="#000000" d="m122.47926 271.8322l0 -19.07814l7.15625 0q2.1875 0 3.5 0.578125q1.328125 0.578125 2.078125 1.78125q0.75 1.2031403 0.75 2.5156403q0 1.21875 -0.671875 2.3125q-0.65625 1.078125 -2.0 1.734375q1.734375 0.515625 2.65625 1.734375q0.9375 1.21875 0.9375 2.890625q0 1.34375 -0.5625 2.5q-0.5625 1.140625 -1.40625 1.765625q-0.828125 0.625 -2.09375 0.953125q-1.25 0.3125 -3.0625 0.3125l-7.28125 0zm2.53125 -11.0625l4.125 0q1.671875 0 2.40625 -0.21875q0.953125 -0.296875 1.4375 -0.953125q0.5 -0.671875 0.5 -1.671875q0 -0.9375 -0.453125 -1.65625q-0.453125 -0.73439026 -1.3125 -1.0000153q-0.84375 -0.265625 -2.890625 -0.265625l-3.8125 0l0 5.7656403zm0 8.8125l4.75 0q1.21875 0 1.71875 -0.09375q0.859375 -0.15625 1.4375 -0.515625q0.59375 -0.375 0.96875 -1.0625q0.390625 -0.703125 0.390625 -1.609375q0 -1.0625 -0.546875 -1.84375q-0.546875 -0.796875 -1.515625 -1.109375q-0.96875 -0.328125 -2.796875 -0.328125l-4.40625 0l0 6.5625zm34.77922 -8.96875l-12.59375 0l0 -2.1875l12.59375 0l0 2.1875zm0 5.796875l-12.59375 0l0 -2.1875l12.59375 0l0 2.1875zm7.3920593 5.421875l7.3125 -19.07814l2.734375 0l7.796875 19.07814l-2.875 0l-2.21875 -5.78125l-7.984375 0l-2.09375 5.78125l-2.671875 0zm5.5 -7.828125l6.46875 0l-2.0 -5.296875q-0.90625 -2.40625 -1.34375 -3.9531403q-0.375 1.8437653 -1.03125 3.6406403l-2.09375 5.609375zm19.073486 -7.75l0.609375 -1.8437653q2.0625 0.71875 3.0 1.25q-0.25 -2.34375 -0.265625 -3.234375l1.890625 0q-0.03125 1.28125 -0.296875 3.234375q1.34375 -0.6875 3.078125 -1.25l0.59375 1.8437653q-1.65625 0.546875 -3.234375 0.734375q0.78125 0.6875 2.234375 2.453125l-1.5625 1.109375q-0.75 -1.03125 -1.78125 -2.796875q-0.96875 1.828125 -1.703125 2.796875l-1.53125 -1.109375q1.515625 -1.859375 2.15625 -2.453125q-1.671875 -0.328125 -3.1875 -0.734375zm25.56076 15.578125l0 -4.5625l-8.265625 0l0 -2.15625l8.703125 -12.35939l1.90625 0l0 12.35939l2.578125 0l0 2.15625l-2.578125 0l0 4.5625l-2.34375 0zm0 -6.71875l0 -8.59375l-5.96875 8.59375l5.96875 0z" fill-rule="nonzero"/><path fill="#000000" fill-opacity="0.0" d="m172.02708 66.68011l0 27.181099" fill-rule="evenodd"/><path stroke="#000000" stroke-width="1.0" stroke-linejoin="round" stroke-linecap="butt" d="m172.02708 66.6801l0 21.181114" fill-rule="evenodd"/><path fill="#000000" stroke="#000000" stroke-width="1.0" stroke-linecap="butt" d="m170.37535 87.86121l1.6517334 4.5380936l1.6517334 -4.5380936z" fill-rule="evenodd"/><path fill="#000000" fill-opacity="0.0" d="m172.02756 185.91733l0 27.181091" fill-rule="evenodd"/><path stroke="#000000" stroke-width="1.0" stroke-linejoin="round" stroke-linecap="butt" d="m172.02756 185.91733l0 21.181091" fill-rule="evenodd"/><path fill="#000000" stroke="#000000" stroke-width="1.0" stroke-linecap="butt" d="m170.37582 207.09842l1.6517334 4.538101l1.6517334 -4.538101z" fill-rule="evenodd"/><path fill="#cfe2f3" d="m403.06445 11.052493l106.18753 0l0 0c13.910858 0 25.187836 13.846036 25.187836 30.925983c0 17.079948 -11.276978 30.925987 -25.187836 30.925987l-106.18753 0l0 0c-13.910828 0 -25.187805 -13.846039 -25.187805 -30.925987c0 -17.079948 11.276978 -30.925983 25.187805 -30.925983z" fill-rule="evenodd"/><path stroke="#000000" stroke-width="1.0" stroke-linejoin="round" stroke-linecap="butt" d="m403.06445 11.052493l106.18753 0l0 0c13.910858 0 25.187836 13.846036 25.187836 30.925983c0 17.079948 -11.276978 30.925987 -25.187836 30.925987l-106.18753 0l0 0c-13.910828 0 -25.187805 -13.846039 -25.187805 -30.925987c0 -17.079948 11.276978 -30.925983 25.187805 -30.925983z" fill-rule="evenodd"/><path fill="#000000" fill-opacity="0.0" d="m604.9974 -0.036745407l281.25983 0l0 84.031494l-281.25983 0z" fill-rule="evenodd"/><path fill="#000000" d="m620.9036 34.56325l0 -16.828123l-6.28125 0l0 -2.25l15.125 0l0 2.25l-6.3125 0l0 16.828123l-2.53125 0zm17.639465 -4.453123l2.421875 0.296875q-0.578125 2.124998 -2.125 3.296873q-1.546875 1.171875 -3.953125 1.171875q-3.03125 0 -4.8125 -1.859375q-1.78125 -1.8749981 -1.78125 -5.249998q0 -3.484375 1.796875 -5.40625q1.796875 -1.9375 4.671875 -1.9375q2.765625 0 4.515625 1.890625q1.765625 1.890625 1.765625 5.3125q0 0.203125 -0.015625 0.625l-10.3125 0q0.140625 2.28125 1.296875 3.5q1.15625 1.2031231 2.890625 1.2031231q1.28125 0 2.1875 -0.671875q0.921875 -0.6874981 1.453125 -2.171873zm-7.6875 -3.78125l7.71875 0q-0.15625 -1.75 -0.890625 -2.625q-1.125 -1.34375 -2.90625 -1.34375q-1.609375 0 -2.71875 1.078125q-1.09375 1.078125 -1.203125 2.890625zm13.028076 8.234373l0 -13.828123l2.109375 0l0 2.09375q0.796875 -1.46875 1.484375 -1.9375q0.6875 -0.46875 1.5 -0.46875q1.1875 0 2.40625 0.765625l-0.796875 2.171875q-0.859375 -0.515625 -1.71875 -0.515625q-0.765625 0 -1.390625 0.46875q-0.609375 0.453125 -0.859375 1.28125q-0.390625 1.25 -0.390625 2.734375l0 7.234373l-2.34375 0zm8.892334 0l0 -13.828123l2.109375 0l0 1.9375q0.640625 -1.015625 1.71875 -1.625q1.09375 -0.625 2.46875 -0.625q1.53125 0 2.515625 0.640625q0.984375 0.640625 1.390625 1.78125q1.640625 -2.421875 4.265625 -2.421875q2.0625 0 3.15625 1.140625q1.109375 1.140625 1.109375 3.515625l0 9.484373l-2.328125 0l0 -8.703123q0 -1.40625 -0.234375 -2.015625q-0.21875 -0.625 -0.828125 -1.0q-0.59375 -0.390625 -1.390625 -0.390625q-1.46875 0 -2.4375 0.96875q-0.953125 0.96875 -0.953125 3.109375l0 8.031248l-2.34375 0l0 -8.984373q0 -1.5625 -0.578125 -2.34375q-0.5625 -0.78125 -1.875 -0.78125q-0.984375 0 -1.828125 0.53125q-0.828125 0.515625 -1.21875 1.515625q-0.375 1.0 -0.375 2.890625l0 7.171873l-2.34375 0zm22.22052 -16.390623l0 -2.6875l2.34375 0l0 2.6875l-2.34375 0zm0 16.390623l0 -13.828123l2.34375 0l0 13.828123l-2.34375 0zm5.906494 0l0 -13.828123l2.109375 0l0 1.96875q1.53125 -2.28125 4.40625 -2.28125q1.25 0 2.296875 0.453125q1.046875 0.453125 1.5625 1.1875q0.53125 0.71875 0.734375 1.71875q0.125 0.65625 0.125 2.28125l0 8.499998l-2.34375 0l0 -8.406248q0 -1.4375 -0.28125 -2.140625q-0.265625 -0.71875 -0.96875 -1.140625q-0.6875 -0.421875 -1.625 -0.421875q-1.484375 0 -2.578125 0.953125q-1.09375 0.953125 -1.09375 3.609375l0 7.546873l-2.34375 0zm23.856201 -1.703125q-1.3125 1.109375 -2.515625 1.5625q-1.203125 0.453125 -2.578125 0.453125q-2.28125 0 -3.5 -1.109375q-1.21875 -1.109375 -1.21875 -2.843748q0 -1.015625 0.453125 -1.859375q0.46875 -0.84375 1.21875 -1.34375q0.75 -0.515625 1.6875 -0.765625q0.6875 -0.1875 2.078125 -0.359375q2.828125 -0.328125 4.171875 -0.796875q0.015625 -0.484375 0.015625 -0.625q0 -1.421875 -0.65625 -2.015625q-0.90625 -0.796875 -2.671875 -0.796875q-1.65625 0 -2.453125 0.59375q-0.78125 0.578125 -1.15625 2.046875l-2.296875 -0.3125q0.3125 -1.46875 1.03125 -2.375q0.71875 -0.90625 2.0625 -1.390625q1.359375 -0.5 3.140625 -0.5q1.78125 0 2.875 0.421875q1.109375 0.421875 1.625 1.046875q0.53125 0.625 0.734375 1.59375q0.125 0.59375 0.125 2.15625l0 3.125q0 3.265623 0.140625 4.140623q0.15625 0.859375 0.59375 1.65625l-2.4375 0q-0.375 -0.734375 -0.46875 -1.703125zm-0.203125 -5.234373q-1.265625 0.515625 -3.828125 0.890625q-1.4375 0.203125 -2.046875 0.46875q-0.59375 0.25 -0.921875 0.75q-0.3125 0.5 -0.3125 1.125q0 0.9375 0.703125 1.5624981q0.703125 0.625 2.078125 0.625q1.34375 0 2.390625 -0.59375q1.0625 -0.5937481 1.5625 -1.6249981q0.375 -0.796875 0.375 -2.34375l0 -0.859375zm5.949951 6.937498l0 -19.078123l2.34375 0l0 19.078123l-2.34375 0zm22.34375 0l0 -1.75q-1.3125 2.0625 -3.859375 2.0625q-1.65625 0 -3.046875 -0.90625q-1.375 -0.921875 -2.140625 -2.546873q-0.765625 -1.640625 -0.765625 -3.75q0 -2.078125 0.6875 -3.765625q0.703125 -1.6875 2.078125 -2.578125q1.375 -0.90625 3.078125 -0.90625q1.25 0 2.21875 0.53125q0.984375 0.53125 1.59375 1.375l0 -6.84375l2.34375 0l0 19.078123l-2.1875 0zm-7.40625 -6.890623q0 2.640625 1.125 3.96875q1.125 1.3124981 2.640625 1.3124981q1.53125 0 2.609375 -1.2499981q1.078125 -1.265625 1.078125 -3.84375q0 -2.84375 -1.09375 -4.171875q-1.09375 -1.328125 -2.703125 -1.328125q-1.546875 0 -2.609375 1.28125q-1.046875 1.28125 -1.046875 4.03125zm22.731201 2.4375l2.421875 0.296875q-0.578125 2.124998 -2.125 3.296873q-1.546875 1.171875 -3.953125 1.171875q-3.03125 0 -4.8125 -1.859375q-1.78125 -1.8749981 -1.78125 -5.249998q0 -3.484375 1.796875 -5.40625q1.796875 -1.9375 4.671875 -1.9375q2.765625 0 4.515625 1.890625q1.765625 1.890625 1.765625 5.3125q0 0.203125 -0.015625 0.625l-10.3125 0q0.140625 2.28125 1.296875 3.5q1.15625 1.2031231 2.890625 1.2031231q1.28125 0 2.1875 -0.671875q0.921875 -0.6874981 1.453125 -2.171873zm-7.6875 -3.78125l7.71875 0q-0.15625 -1.75 -0.890625 -2.625q-1.125 -1.34375 -2.90625 -1.34375q-1.609375 0 -2.71875 1.078125q-1.09375 1.078125 -1.203125 2.890625zm2.515625 -7.3125l1.734375 -3.640625l3.0625 0l-2.859375 3.640625l-1.9375 0zm12.69989 15.546873l-2.171875 0l0 -19.078123l2.34375 0l0 6.796875q1.484375 -1.859375 3.78125 -1.859375q1.28125 0 2.40625 0.515625q1.140625 0.515625 1.875 1.453125q0.75 0.921875 1.15625 2.25q0.421875 1.3125 0.421875 2.796875q0 3.5625 -1.765625 5.499998q-1.75 1.9375 -4.21875 1.9375q-2.4375 0 -3.828125 -2.046875l0 1.734375zm-0.03125 -7.015623q0 2.484375 0.671875 3.59375q1.109375 1.8124981 3.0 1.8124981q1.53125 0 2.65625 -1.3281231q1.125 -1.34375 1.125 -3.984375q0 -2.703125 -1.078125 -3.984375q-1.078125 -1.296875 -2.59375 -1.296875q-1.546875 0 -2.671875 1.328125q-1.109375 1.328125 -1.109375 3.859375zm21.746826 7.015623l0 -2.03125q-1.609375 2.34375 -4.375 2.34375q-1.234375 0 -2.296875 -0.46875q-1.0625 -0.46875 -1.578125 -1.171875q-0.5 -0.71875 -0.71875 -1.7499981q-0.140625 -0.6875 -0.140625 -2.1875l0 -8.5625l2.34375 0l0 7.671875q0 1.828125 0.140625 2.46875q0.21875 0.921875 0.9375 1.4531231q0.71875 0.53125 1.765625 0.53125q1.0625 0 1.984375 -0.53125q0.921875 -0.5468731 1.296875 -1.4687481q0.390625 -0.9375 0.390625 -2.71875l0 -7.40625l2.34375 0l0 13.828123l-2.09375 0zm10.887451 -2.09375l0.328125 2.0625q-0.984375 0.21875 -1.765625 0.21875q-1.265625 0 -1.96875 -0.40625q-0.703125 -0.40625 -1.0 -1.0625q-0.28125 -0.65625 -0.28125 -2.765623l0 -7.953125l-1.71875 0l0 -1.828125l1.71875 0l0 -3.421875l2.328125 -1.40625l0 4.828125l2.359375 0l0 1.828125l-2.359375 0l0 8.078125q0 1.0 0.125 1.296875q0.125 0.2812481 0.40625 0.4531231q0.28125 0.171875 0.796875 0.171875q0.390625 0 1.03125 -0.09375zm0.5309448 2.421875l5.53125 -19.734373l1.875 0l-5.515625 19.734373l-1.890625 0zm9.718445 -0.328125l0 -11.999998l-2.0625 0l0 -1.828125l2.0625 0l0 -1.46875q0 -1.390625 0.25 -2.0625q0.34375 -0.921875 1.1875 -1.484375q0.859375 -0.5625 2.390625 -0.5625q0.984375 0 2.1875 0.234375l-0.34375 2.046875q-0.734375 -0.140625 -1.390625 -0.140625q-1.0625 0 -1.515625 0.46875q-0.4375 0.453125 -0.4375 1.703125l0 1.265625l2.703125 0l0 1.828125l-2.703125 0l0 11.999998l-2.328125 0zm6.859131 -16.390623l0 -2.6875l2.34375 0l0 2.6875l-2.34375 0zm0 16.390623l0 -13.828123l2.34375 0l0 13.828123l-2.34375 0zm5.906494 0l0 -13.828123l2.109375 0l0 1.96875q1.53125 -2.28125 4.40625 -2.28125q1.25 0 2.296875 0.453125q1.046875 0.453125 1.5625 1.1875q0.53125 0.71875 0.734375 1.71875q0.125 0.65625 0.125 2.28125l0 8.499998l-2.34375 0l0 -8.406248q0 -1.4375 -0.28125 -2.140625q-0.265625 -0.71875 -0.96875 -1.140625q-0.6875 -0.421875 -1.625 -0.421875q-1.484375 0 -2.578125 0.953125q-1.09375 0.953125 -1.09375 3.609375l0 7.546873l-2.34375 0zm31.199646 0l0 -1.75q-1.3125 2.0625 -3.859375 2.0625q-1.65625 0 -3.046875 -0.90625q-1.375 -0.921875 -2.140625 -2.546873q-0.765625 -1.640625 -0.765625 -3.75q0 -2.078125 0.6875 -3.765625q0.703125 -1.6875 2.078125 -2.578125q1.375 -0.90625 3.078125 -0.90625q1.25 0 2.21875 0.53125q0.984375 0.53125 1.59375 1.375l0 -6.84375l2.34375 0l0 19.078123l-2.1875 0zm-7.40625 -6.890623q0 2.640625 1.125 3.96875q1.125 1.3124981 2.640625 1.3124981q1.53125 0 2.609375 -1.2499981q1.078125 -1.265625 1.078125 -3.84375q0 -2.84375 -1.09375 -4.171875q-1.09375 -1.328125 -2.703125 -1.328125q-1.546875 0 -2.609375 1.28125q-1.046875 1.28125 -1.046875 4.03125zm22.324951 6.890623l0 -2.03125q-1.609375 2.34375 -4.375 2.34375q-1.234375 0 -2.296875 -0.46875q-1.0625 -0.46875 -1.578125 -1.171875q-0.5 -0.71875 -0.71875 -1.7499981q-0.140625 -0.6875 -0.140625 -2.1875l0 -8.5625l2.34375 0l0 7.671875q0 1.828125 0.140625 2.46875q0.21875 0.921875 0.9375 1.4531231q0.71875 0.53125 1.765625 0.53125q1.0625 0 1.984375 -0.53125q0.921875 -0.5468731 1.296875 -1.4687481q0.390625 -0.9375 0.390625 -2.71875l0 -7.40625l2.34375 0l0 13.828123l-2.09375 0z" fill-rule="nonzero"/><path fill="#000000" d="m615.7474 71.86013l0 -19.125004l2.140625 0l0 1.796875q0.75 -1.046875 1.703125 -1.578125q0.953125 -0.53125 2.3125 -0.53125q1.765625 0 3.109375 0.921875q1.359375 0.90625 2.046875 2.5625q0.6875 1.65625 0.6875 3.640625q0 2.125 -0.765625 3.828125q-0.75 1.6875038 -2.203125 2.5937538q-1.453125 0.90625 -3.046875 0.90625q-1.171875 0 -2.109375 -0.484375q-0.921875 -0.5 -1.53125 -1.265625l0 6.734375l-2.34375 0zm2.125 -12.125004q0 2.65625 1.078125 3.9375q1.09375 1.2812538 2.625 1.2812538q1.5625 0 2.671875 -1.3125038q1.109375 -1.328125 1.109375 -4.109375q0 -2.640625 -1.09375 -3.953125q-1.078125 -1.3125 -2.59375 -1.3125q-1.484375 0 -2.640625 1.40625q-1.15625 1.390625 -1.15625 4.0625zm12.684326 6.828129l0 -13.828129l2.109375 0l0 2.09375q0.796875 -1.46875 1.484375 -1.9375q0.6875 -0.46875 1.5 -0.46875q1.1875 0 2.40625 0.765625l-0.796875 2.171875q-0.859375 -0.515625 -1.71875 -0.515625q-0.765625 0 -1.390625 0.46875q-0.609375 0.453125 -0.859375 1.28125q-0.390625 1.25 -0.390625 2.734375l0 7.234379l-2.34375 0zm8.032959 -6.906254q0 -3.84375 2.125 -5.6875q1.78125 -1.546875 4.34375 -1.546875q2.859375 0 4.65625 1.875q1.8125 1.859375 1.8125 5.15625q0 2.671875 -0.796875 4.203125q-0.796875 1.5312538 -2.328125 2.3750038q-1.53125 0.84375 -3.34375 0.84375q-2.890625 0 -4.6875 -1.859375q-1.78125 -1.8593788 -1.78125 -5.359379zm2.40625 0q0 2.65625 1.15625 3.984375q1.15625 1.3125038 2.90625 1.3125038q1.75 0 2.90625 -1.3281288q1.15625 -1.328125 1.15625 -4.046875q0 -2.5625 -1.171875 -3.890625q-1.15625 -1.328125 -2.890625 -1.328125q-1.75 0 -2.90625 1.328125q-1.15625 1.3125 -1.15625 3.96875zm12.856201 8.046879l2.28125 0.34375q0.140625 1.046875 0.796875 1.53125q0.859375 0.65625 2.375 0.65625q1.625 0 2.5 -0.65625q0.890625 -0.640625 1.203125 -1.8125q0.1875 -0.71875 0.171875 -3.015625q-1.53125 1.8125 -3.828125 1.8125q-2.84375 0 -4.40625 -2.046875q-1.5625 -2.0625038 -1.5625 -4.937504q0 -1.984375 0.71875 -3.65625q0.71875 -1.671875 2.078125 -2.578125q1.359375 -0.921875 3.1875 -0.921875q2.453125 0 4.03125 1.984375l0 -1.671875l2.171875 0l0 11.953129q0 3.234375 -0.65625 4.578125q-0.65625 1.34375 -2.09375 2.125q-1.421875 0.78125 -3.5 0.78125q-2.46875 0 -4.0 -1.109375q-1.515625 -1.109375 -1.46875 -3.359375zm1.9375 -8.296879q0 2.71875 1.078125 3.96875q1.078125 1.2500038 2.703125 1.2500038q1.625 0 2.71875 -1.2343788q1.09375 -1.25 1.09375 -3.90625q0 -2.546875 -1.125 -3.828125q-1.125 -1.296875 -2.71875 -1.296875q-1.5625 0 -2.65625 1.28125q-1.09375 1.265625 -1.09375 3.765625zm13.293701 7.156254l0 -13.828129l2.109375 0l0 2.09375q0.796875 -1.46875 1.484375 -1.9375q0.6875 -0.46875 1.5 -0.46875q1.1875 0 2.40625 0.765625l-0.796875 2.171875q-0.859375 -0.515625 -1.71875 -0.515625q-0.765625 0 -1.390625 0.46875q-0.609375 0.453125 -0.859375 1.28125q-0.390625 1.25 -0.390625 2.734375l0 7.234379l-2.34375 0zm17.923584 -1.703125q-1.3125 1.109375 -2.515625 1.5625q-1.203125 0.453125 -2.578125 0.453125q-2.28125 0 -3.5 -1.109375q-1.21875 -1.109375 -1.21875 -2.8437538q0 -1.015625 0.453125 -1.859375q0.46875 -0.84375 1.21875 -1.34375q0.75 -0.515625 1.6875 -0.765625q0.6875 -0.1875 2.078125 -0.359375q2.828125 -0.328125 4.171875 -0.796875q0.015625 -0.484375 0.015625 -0.625q0 -1.421875 -0.65625 -2.015625q-0.90625 -0.796875 -2.671875 -0.796875q-1.65625 0 -2.453125 0.59375q-0.78125 0.578125 -1.15625 2.046875l-2.296875 -0.3125q0.3125 -1.46875 1.03125 -2.375q0.71875 -0.90625 2.0625 -1.390625q1.359375 -0.5 3.140625 -0.5q1.78125 0 2.875 0.421875q1.109375 0.421875 1.625 1.046875q0.53125 0.625 0.734375 1.59375q0.125 0.59375 0.125 2.15625l0 3.125q0 3.2656288 0.140625 4.140629q0.15625 0.859375 0.59375 1.65625l-2.4375 0q-0.375 -0.734375 -0.46875 -1.703125zm-0.203125 -5.234379q-1.265625 0.515625 -3.828125 0.890625q-1.4375 0.203125 -2.046875 0.46875q-0.59375 0.25 -0.921875 0.75q-0.3125 0.5 -0.3125 1.125q0 0.9375 0.703125 1.5625038q0.703125 0.625 2.078125 0.625q1.34375 0 2.390625 -0.59375q1.0625 -0.5937538 1.5625 -1.6250038q0.375 -0.796875 0.375 -2.34375l0 -0.859375zm5.996826 6.937504l0 -13.828129l2.109375 0l0 1.9375q0.640625 -1.015625 1.71875 -1.625q1.09375 -0.625 2.46875 -0.625q1.53125 0 2.515625 0.640625q0.984375 0.640625 1.390625 1.78125q1.640625 -2.421875 4.265625 -2.421875q2.0625 0 3.15625 1.140625q1.109375 1.140625 1.109375 3.515625l0 9.484379l-2.328125 0l0 -8.703129q0 -1.40625 -0.234375 -2.015625q-0.21875 -0.625 -0.828125 -1.0q-0.59375 -0.390625 -1.390625 -0.390625q-1.46875 0 -2.4375 0.96875q-0.953125 0.96875 -0.953125 3.109375l0 8.031254l-2.34375 0l0 -8.984379q0 -1.5625 -0.578125 -2.34375q-0.5625 -0.78125 -1.875 -0.78125q-0.984375 0 -1.828125 0.53125q-0.828125 0.515625 -1.21875 1.515625q-0.375 1.0 -0.375 2.890625l0 7.171879l-2.34375 0zm22.204834 0l0 -13.828129l2.109375 0l0 1.9375q0.640625 -1.015625 1.71875 -1.625q1.09375 -0.625 2.46875 -0.625q1.53125 0 2.515625 0.640625q0.984375 0.640625 1.390625 1.78125q1.640625 -2.421875 4.265625 -2.421875q2.0625 0 3.15625 1.140625q1.109375 1.140625 1.109375 3.515625l0 9.484379l-2.328125 0l0 -8.703129q0 -1.40625 -0.234375 -2.015625q-0.21875 -0.625 -0.828125 -1.0q-0.59375 -0.390625 -1.390625 -0.390625q-1.46875 0 -2.4375 0.96875q-0.953125 0.96875 -0.953125 3.109375l0 8.031254l-2.34375 0l0 -8.984379q0 -1.5625 -0.578125 -2.34375q-0.5625 -0.78125 -1.875 -0.78125q-0.984375 0 -1.828125 0.53125q-0.828125 0.515625 -1.21875 1.515625q-0.375 1.0 -0.375 2.890625l0 7.171879l-2.34375 0zm31.673645 -4.453129l2.421875 0.296875q-0.578125 2.1250038 -2.125 3.2968788q-1.546875 1.171875 -3.953125 1.171875q-3.03125 0 -4.8125 -1.859375q-1.78125 -1.8750038 -1.78125 -5.250004q0 -3.484375 1.796875 -5.40625q1.796875 -1.9375 4.671875 -1.9375q2.765625 0 4.515625 1.890625q1.765625 1.890625 1.765625 5.3125q0 0.203125 -0.015625 0.625l-10.3125 0q0.140625 2.28125 1.296875 3.5q1.15625 1.2031288 2.890625 1.2031288q1.28125 0 2.1875 -0.671875q0.921875 -0.6875038 1.453125 -2.1718788zm-7.6875 -3.78125l7.71875 0q-0.15625 -1.75 -0.890625 -2.625q-1.125 -1.34375 -2.90625 -1.34375q-1.609375 0 -2.71875 1.078125q-1.09375 1.078125 -1.203125 2.890625z" fill-rule="nonzero"/><path fill="#000000" fill-opacity="0.0" d="m604.9974 41.979004l-70.55121 0" fill-rule="evenodd"/><path stroke="#000000" stroke-width="1.0" stroke-linejoin="round" stroke-linecap="butt" d="m604.9974 41.979004l-64.55121 0" fill-rule="evenodd"/><path fill="#000000" stroke="#000000" stroke-width="1.0" stroke-linecap="butt" d="m540.44617 40.32727l-4.538086 1.6517334l4.538086 1.6517296z" fill-rule="evenodd"/><path fill="#cfe2f3" d="m377.87665 110.35302l223.25195 0l0 57.01574l-223.25195 0z" fill-rule="evenodd"/><path stroke="#000000" stroke-width="1.0" stroke-linejoin="round" stroke-linecap="butt" d="m377.87665 110.35302l223.25195 0l0 57.01574l-223.25195 0z" fill-rule="evenodd"/><path fill="#000000" fill-opacity="0.0" d="m707.4488 114.031494l165.25989 0l0 51.716537l-165.25989 0z" fill-rule="evenodd"/><path fill="#000000" d="m718.5113 148.6315l0 -19.078125l7.1875 0q1.90625 0 2.90625 0.171875q1.40625 0.234375 2.359375 0.90625q0.953125 0.65625 1.53125 1.84375q0.578125 1.171875 0.578125 2.59375q0 2.4375 -1.5625 4.125q-1.546875 1.6875 -5.59375 1.6875l-4.890625 0l0 7.75l-2.515625 0zm2.515625 -10.015625l4.9375 0q2.453125 0 3.46875 -0.90625q1.03125 -0.90625 1.03125 -2.5625q0 -1.203125 -0.609375 -2.046875q-0.59375 -0.859375 -1.59375 -1.125q-0.625 -0.171875 -2.34375 -0.171875l-4.890625 0l0 6.8125zm14.935791 10.015625l0 -13.828125l2.109375 0l0 2.09375q0.796875 -1.46875 1.484375 -1.9375q0.6875 -0.46875 1.5 -0.46875q1.1875 0 2.40625 0.765625l-0.796875 2.171875q-0.859375 -0.515625 -1.71875 -0.515625q-0.765625 0 -1.390625 0.46875q-0.609375 0.453125 -0.859375 1.28125q-0.390625 1.25 -0.390625 2.734375l0 7.234375l-2.34375 0zm8.032959 -6.90625q0 -3.84375 2.125 -5.6875q1.78125 -1.546875 4.34375 -1.546875q2.859375 0 4.65625 1.875q1.8125 1.859375 1.8125 5.15625q0 2.671875 -0.796875 4.203125q-0.796875 1.53125 -2.328125 2.375q-1.53125 0.84375 -3.34375 0.84375q-2.890625 0 -4.6875 -1.859375q-1.78125 -1.859375 -1.78125 -5.359375zm2.40625 0q0 2.65625 1.15625 3.984375q1.15625 1.3125 2.90625 1.3125q1.75 0 2.90625 -1.328125q1.15625 -1.328125 1.15625 -4.046875q0 -2.5625 -1.171875 -3.890625q-1.15625 -1.328125 -2.890625 -1.328125q-1.75 0 -2.90625 1.328125q-1.15625 1.3125 -1.15625 3.96875zm22.309326 1.84375l2.296875 0.296875q-0.375 2.390625 -1.9375 3.734375q-1.546875 1.34375 -3.8125 1.34375q-2.84375 0 -4.5625 -1.84375q-1.71875 -1.859375 -1.71875 -5.328125q0 -2.234375 0.734375 -3.90625q0.75 -1.6875 2.265625 -2.53125q1.515625 -0.84375 3.296875 -0.84375q2.25 0 3.671875 1.140625q1.4375 1.140625 1.84375 3.234375l-2.28125 0.359375q-0.328125 -1.390625 -1.15625 -2.09375q-0.8125 -0.703125 -1.984375 -0.703125q-1.78125 0 -2.890625 1.265625q-1.09375 1.265625 -1.09375 4.015625q0 2.78125 1.0625 4.046875q1.0625 1.265625 2.78125 1.265625q1.390625 0 2.3125 -0.84375q0.921875 -0.859375 1.171875 -2.609375zm13.765625 0.609375l2.421875 0.296875q-0.578125 2.125 -2.125 3.296875q-1.546875 1.171875 -3.953125 1.171875q-3.03125 0 -4.8125 -1.859375q-1.78125 -1.875 -1.78125 -5.25q0 -3.484375 1.796875 -5.40625q1.796875 -1.9375 4.671875 -1.9375q2.765625 0 4.515625 1.890625q1.765625 1.890625 1.765625 5.3125q0 0.203125 -0.015625 0.625l-10.3125 0q0.140625 2.28125 1.296875 3.5q1.15625 1.203125 2.890625 1.203125q1.28125 0 2.1875 -0.671875q0.921875 -0.6875 1.453125 -2.171875zm-7.6875 -3.78125l7.71875 0q-0.15625 -1.75 -0.890625 -2.625q-1.125 -1.34375 -2.90625 -1.34375q-1.609375 0 -2.71875 1.078125q-1.09375 1.078125 -1.203125 2.890625zm12.106201 4.109375l2.328125 -0.359375q0.1875 1.390625 1.078125 2.140625q0.890625 0.734375 2.5 0.734375q1.609375 0 2.390625 -0.65625q0.78125 -0.65625 0.78125 -1.546875q0 -0.796875 -0.6875 -1.25q-0.484375 -0.3125 -2.390625 -0.796875q-2.578125 -0.65625 -3.578125 -1.125q-1.0 -0.46875 -1.515625 -1.3125q-0.515625 -0.84375 -0.515625 -1.859375q0 -0.921875 0.421875 -1.703125q0.4375 -0.796875 1.15625 -1.3125q0.546875 -0.40625 1.484375 -0.6875q0.953125 -0.28125 2.03125 -0.28125q1.625 0 2.859375 0.46875q1.234375 0.46875 1.8125 1.28125q0.59375 0.796875 0.8125 2.140625l-2.296875 0.3125q-0.15625 -1.078125 -0.90625 -1.671875q-0.75 -0.59375 -2.109375 -0.59375q-1.609375 0 -2.3125 0.53125q-0.6875 0.53125 -0.6875 1.25q0 0.453125 0.296875 0.8125q0.28125 0.375 0.890625 0.625q0.359375 0.140625 2.078125 0.609375q2.484375 0.65625 3.46875 1.078125q0.984375 0.421875 1.53125 1.234375q0.5625 0.796875 0.5625 2.0q0 1.171875 -0.6875 2.21875q-0.671875 1.03125 -1.96875 1.59375q-1.28125 0.5625 -2.90625 0.5625q-2.703125 0 -4.125 -1.109375q-1.40625 -1.125 -1.796875 -3.328125zm13.328125 0l2.328125 -0.359375q0.1875 1.390625 1.078125 2.140625q0.890625 0.734375 2.5 0.734375q1.609375 0 2.390625 -0.65625q0.78125 -0.65625 0.78125 -1.546875q0 -0.796875 -0.6875 -1.25q-0.484375 -0.3125 -2.390625 -0.796875q-2.578125 -0.65625 -3.578125 -1.125q-1.0 -0.46875 -1.515625 -1.3125q-0.515625 -0.84375 -0.515625 -1.859375q0 -0.921875 0.421875 -1.703125q0.4375 -0.796875 1.15625 -1.3125q0.546875 -0.40625 1.484375 -0.6875q0.953125 -0.28125 2.03125 -0.28125q1.625 0 2.859375 0.46875q1.234375 0.46875 1.8125 1.28125q0.59375 0.796875 0.8125 2.140625l-2.296875 0.3125q-0.15625 -1.078125 -0.90625 -1.671875q-0.75 -0.59375 -2.109375 -0.59375q-1.609375 0 -2.3125 0.53125q-0.6875 0.53125 -0.6875 1.25q0 0.453125 0.296875 0.8125q0.28125 0.375 0.890625 0.625q0.359375 0.140625 2.078125 0.609375q2.484375 0.65625 3.46875 1.078125q0.984375 0.421875 1.53125 1.234375q0.5625 0.796875 0.5625 2.0q0 1.171875 -0.6875 2.21875q-0.671875 1.03125 -1.96875 1.59375q-1.28125 0.5625 -2.90625 0.5625q-2.703125 0 -4.125 -1.109375q-1.40625 -1.125 -1.796875 -3.328125z" fill-rule="nonzero"/><path fill="#000000" fill-opacity="0.0" d="m707.4488 139.88977l-106.33069 -1.0393829" fill-rule="evenodd"/><path stroke="#000000" stroke-width="1.0" stroke-linejoin="round" stroke-linecap="butt" d="m707.4488 139.88977l-100.33099 -0.98072815" fill-rule="evenodd"/><path fill="#000000" stroke="#000000" stroke-width="1.0" stroke-linecap="butt" d="m607.134 137.25739l-4.554016 1.6072998l4.5217285 1.6960144z" fill-rule="evenodd"/><path fill="#cfe2f3" d="m41.07349 185.91733l52.381626 -92.05775l209.52652 0l-52.381622 92.05775z" fill-rule="evenodd"/><path stroke="#000000" stroke-width="1.0" stroke-linejoin="round" stroke-linecap="butt" d="m41.07349 185.91733l52.381626 -92.05775l209.52652 0l-52.381622 92.05775z" fill-rule="evenodd"/><path fill="#000000" d="m104.45512 119.20845l0 -18.125l13.109375 0l0 2.140625l-10.703125 0l0 5.546875l10.03125 0l0 2.125l-10.03125 0l0 6.171875l11.125 0l0 2.140625l-13.53125 0zm16.565536 0l0 -13.140625l2.0 0l0 1.875q1.453125 -2.171875 4.1875 -2.171875q1.1875076 0 2.1718826 0.4375q1.0 0.421875 1.484375 1.125q0.5 0.6875 0.703125 1.640625q0.125 0.609375 0.125 2.15625l0 8.078125l-2.234375 0l0 -7.984375q0 -1.359375 -0.265625 -2.03125q-0.25 -0.6875 -0.90625 -1.078125q-0.6562576 -0.40625 -1.5468826 -0.40625q-1.421875 0 -2.46875 0.90625q-1.03125 0.890625 -1.03125 3.421875l0 7.171875l-2.21875 0zm18.945686 -1.984375l0.3125 1.953125q-0.9375 0.203125 -1.671875 0.203125q-1.21875 0 -1.890625 -0.375q-0.65625 -0.390625 -0.9375 -1.015625q-0.265625 -0.625 -0.265625 -2.625l0 -7.5625l-1.640625 0l0 -1.734375l1.640625 0l0 -3.25l2.21875 -1.328125l0 4.578125l2.234375 0l0 1.734375l-2.234375 0l0 7.6875q0 0.953125 0.109375 1.234375q0.125 0.265625 0.390625 0.421875q0.265625 0.15625 0.75 0.15625q0.375 0 0.984375 -0.078125zm2.146347 1.984375l0 -13.140625l2.0 0l0 2.0q0.78125 -1.40625 1.421875 -1.84375q0.65625 -0.453125 1.4375 -0.453125q1.125 0 2.28125 0.71875l-0.765625 2.078125q-0.8125 -0.484375 -1.640625 -0.484375q-0.71875 0 -1.3125 0.4375q-0.578125 0.4375 -0.828125 1.21875q-0.359375 1.1875 -0.359375 2.59375l0 6.875l-2.234375 0zm17.450089 -4.234375l2.296875 0.296875q-0.53125 2.015625 -2.015625 3.125q-1.46875 1.109375 -3.75 1.109375q-2.890625 0 -4.578125 -1.765625q-1.6875 -1.78125 -1.6875 -4.984375q0 -3.3125 1.703125 -5.140625q1.71875 -1.84375 4.4375 -1.84375q2.640625 0 4.296875 1.796875q1.671875 1.796875 1.671875 5.046875q0 0.203125 -0.015625 0.59375l-9.78125 0q0.109375 2.171875 1.203125 3.328125q1.109375 1.140625 2.765625 1.140625q1.21875 0 2.078125 -0.640625q0.875 -0.640625 1.375 -2.0625zm-7.3125 -3.59375l7.34375 0q-0.15625 -1.65625 -0.84375 -2.484375q-1.0625 -1.28125 -2.75 -1.28125q-1.546875 0 -2.59375 1.03125q-1.03125 1.015625 -1.15625 2.734375zm11.242554 7.828125l0 -1.8125l8.359375 -9.59375q-1.421875 0.078125 -2.515625 0.078125l-5.359375 0l0 -1.8125l10.734375 0l0 1.484375l-7.109375 8.328125l-1.375 1.515625q1.5 -0.109375 2.8125 -0.109375l6.078125 0l0 1.921875l-11.625 0zm20.826035 0l0 -18.125l2.21875 0l0 18.125l-2.21875 0zm14.236481 -1.625q-1.234375 1.0625 -2.375 1.5q-1.140625 0.421875 -2.453125 0.421875q-2.171875 0 -3.328125 -1.046875q-1.15625 -1.0625 -1.15625 -2.71875q0 -0.953125 0.4375 -1.75q0.4375 -0.796875 1.140625 -1.28125q0.71875 -0.484375 1.609375 -0.734375q0.65625 -0.171875 1.96875 -0.328125q2.703125 -0.328125 3.96875 -0.765625q0.015625 -0.46875 0.015625 -0.59375q0 -1.359375 -0.625 -1.90625q-0.859375 -0.765625 -2.53125 -0.765625q-1.578125 0 -2.328125 0.5625q-0.75 0.546875 -1.109375 1.9375l-2.171875 -0.296875q0.296875 -1.390625 0.96875 -2.25q0.6875 -0.859375 1.96875 -1.328125q1.296875 -0.46875 2.984375 -0.46875q1.6875 0 2.734375 0.40625q1.046875 0.390625 1.546875 1.0q0.5 0.59375 0.6875 1.5q0.125 0.578125 0.125 2.0625l0 2.96875q0 3.09375 0.140625 3.921875q0.140625 0.828125 0.5625 1.578125l-2.328125 0q-0.34375 -0.6875 -0.453125 -1.625zm-0.1875 -4.96875q-1.203125 0.5 -3.625 0.84375q-1.375 0.203125 -1.953125 0.453125q-0.5625 0.234375 -0.875 0.71875q-0.296875 0.46875 -0.296875 1.046875q0 0.890625 0.671875 1.484375q0.671875 0.59375 1.96875 0.59375q1.28125 0 2.28125 -0.5625q1.0 -0.5625 1.484375 -1.53125q0.34375 -0.75 0.34375 -2.234375l0 -0.8125z" fill-rule="nonzero"/><path fill="#000000" d="m107.76762 149.20845l-4.984375 -13.140625l2.34375 0l2.8125 7.875q0.46875 1.265625 0.84375 2.640625q0.296875 -1.03125 0.828125 -2.5l2.921875 -8.015625l2.296875 0l-4.984375 13.140625l-2.078125 0zm17.585938 -1.625q-1.234375 1.0625 -2.375 1.5q-1.140625 0.421875 -2.453125 0.421875q-2.171875 0 -3.328125 -1.046875q-1.15625 -1.0625 -1.15625 -2.71875q0 -0.953125 0.4375 -1.75q0.4375 -0.796875 1.140625 -1.28125q0.71875 -0.484375 1.609375 -0.734375q0.65625 -0.171875 1.96875 -0.328125q2.703125 -0.328125 3.96875 -0.765625q0.015625 -0.46875 0.015625 -0.59375q0 -1.359375 -0.625 -1.90625q-0.859375 -0.765625 -2.53125 -0.765625q-1.578125 0 -2.328125 0.5625q-0.75 0.546875 -1.109375 1.9375l-2.171875 -0.296875q0.296875 -1.390625 0.96875 -2.25q0.6875 -0.859375 1.96875 -1.328125q1.296875 -0.46875 2.984375 -0.46875q1.6875 0 2.734375 0.40625q1.046875 0.390625 1.546875 1.0q0.5 0.59375 0.6875 1.5q0.125 0.578125 0.125 2.0625l0 2.96875q0 3.09375 0.140625 3.921875q0.140625 0.828125 0.5625076 1.578125l-2.3281326 0q-0.34375 -0.6875 -0.453125 -1.625zm-0.1875 -4.96875q-1.203125 0.5 -3.625 0.84375q-1.375 0.203125 -1.953125 0.453125q-0.5625 0.234375 -0.875 0.71875q-0.296875 0.46875 -0.296875 1.046875q0 0.890625 0.671875 1.484375q0.671875 0.59375 1.96875 0.59375q1.28125 0 2.28125 -0.5625q1.0 -0.5625 1.484375 -1.53125q0.34375 -0.75 0.34375 -2.234375l0 -0.8125zm5.6644363 6.59375l0 -18.125l2.21875 0l0 18.125l-2.21875 0zm14.658356 -4.234375l2.296875 0.296875q-0.53125 2.015625 -2.015625 3.125q-1.46875 1.109375 -3.75 1.109375q-2.890625 0 -4.578125 -1.765625q-1.6875 -1.78125 -1.6875 -4.984375q0 -3.3125 1.703125 -5.140625q1.71875 -1.84375 4.4375 -1.84375q2.640625 0 4.296875 1.796875q1.671875 1.796875 1.671875 5.046875q0 0.203125 -0.015625 0.59375l-9.78125 0q0.109375 2.171875 1.203125 3.328125q1.109375 1.140625 2.765625 1.140625q1.21875 0 2.078125 -0.640625q0.875 -0.640625 1.375 -2.0625zm-7.3125 -3.59375l7.34375 0q-0.15625 -1.65625 -0.84375 -2.484375q-1.0625 -1.28125 -2.75 -1.28125q-1.546875 0 -2.59375 1.03125q-1.03125 1.015625 -1.15625 2.734375zm21.023804 7.828125l0 -1.921875q-1.53125 2.21875 -4.171875 2.21875q-1.15625 0 -2.171875 -0.4375q-1.0 -0.453125 -1.5 -1.125q-0.484375 -0.671875 -0.6875 -1.65625q-0.125 -0.65625 -0.125 -2.078125l0 -8.140625l2.21875 0l0 7.296875q0 1.734375 0.140625 2.34375q0.203125 0.875 0.875 1.375q0.6875 0.5 1.6875 0.5q1.015625 0 1.890625 -0.5q0.875 -0.515625 1.234375 -1.40625q0.375 -0.890625 0.375 -2.5625l0 -7.046875l2.21875 0l0 13.140625l-1.984375 0zm5.4456787 0l0 -13.140625l2.0 0l0 2.0q0.78125 -1.40625 1.421875 -1.84375q0.65625 -0.453125 1.4375 -0.453125q1.125 0 2.28125 0.71875l-0.765625 2.078125q-0.8125 -0.484375 -1.640625 -0.484375q-0.71875 0 -1.3125 0.4375q-0.578125 0.4375 -0.828125 1.21875q-0.359375 1.1875 -0.359375 2.59375l0 6.875l-2.234375 0zm24.01831 0l0 -1.65625q-1.25 1.953125 -3.671875 1.953125q-1.5625 0 -2.890625 -0.859375q-1.3125 -0.875 -2.046875 -2.421875q-0.71875 -1.546875 -0.71875 -3.5625q0 -1.96875 0.65625 -3.5625q0.65625 -1.609375 1.96875 -2.46875q1.3125 -0.859375 2.9375 -0.859375q1.1875 0 2.109375 0.515625q0.9375 0.5 1.515625 1.296875l0 -6.5l2.203125 0l0 18.125l-2.0625 0zm-7.03125 -6.546875q0 2.515625 1.0625 3.765625q1.0625 1.25 2.515625 1.25q1.453125 0 2.46875 -1.1875q1.03125 -1.203125 1.03125 -3.65625q0 -2.6875 -1.046875 -3.953125q-1.03125 -1.265625 -2.5625 -1.265625q-1.484375 0 -2.484375 1.21875q-0.984375 1.203125 -0.984375 3.828125zm21.586304 2.3125l2.296875 0.296875q-0.53125 2.015625 -2.015625 3.125q-1.46875 1.109375 -3.75 1.109375q-2.890625 0 -4.578125 -1.765625q-1.6875 -1.78125 -1.6875 -4.984375q0 -3.3125 1.703125 -5.140625q1.71875 -1.84375 4.4375 -1.84375q2.640625 0 4.296875 1.796875q1.671875 1.796875 1.671875 5.046875q0 0.203125 -0.015625 0.59375l-9.78125 0q0.109375 2.171875 1.203125 3.328125q1.109375 1.140625 2.765625 1.140625q1.21875 0 2.078125 -0.640625q0.875 -0.640625 1.375 -2.0625zm-7.3125 -3.59375l7.34375 0q-0.15625 -1.65625 -0.84375 -2.484375q-1.0625 -1.28125 -2.75 -1.28125q-1.546875 0 -2.59375 1.03125q-1.03125 1.015625 -1.15625 2.734375z" fill-rule="nonzero"/><path fill="#000000" d="m104.12699 179.20845l0 -13.140625l2.0 0l0 1.875q1.453125 -2.171875 4.1875 -2.171875q1.1875 0 2.171875 0.4375q1.0 0.421875 1.484375 1.125q0.5 0.6875 0.703125 1.640625q0.125 0.609375 0.125 2.15625l0 8.078125l-2.234375 0l0 -7.984375q0 -1.359375 -0.265625 -2.03125q-0.25 -0.6875 -0.90625 -1.078125q-0.65625 -0.40625 -1.546875 -0.40625q-1.421875 0 -2.46875 0.90625q-1.03125 0.890625 -1.03125 3.421875l0 7.171875l-2.21875 0zm13.258179 -6.5625q0 -3.65625 2.03125 -5.40625q1.6875 -1.46875 4.125 -1.46875q2.703125 0 4.421875 1.78125q1.7187576 1.78125 1.7187576 4.90625q0 2.53125 -0.765625 3.984375q-0.75 1.453125 -2.2031326 2.265625q-1.453125 0.796875 -3.171875 0.796875q-2.765625 0 -4.46875 -1.765625q-1.6875 -1.765625 -1.6875 -5.09375zm2.28125 0q0 2.515625 1.09375 3.78125q1.109375 1.25 2.78125 1.25q1.65625 0 2.75 -1.265625q1.109375 -1.265625 1.109375 -3.84375q0 -2.4375 -1.109375 -3.6875q-1.109375 -1.265625 -2.75 -1.265625q-1.671875 0 -2.78125 1.25q-1.09375 1.25 -1.09375 3.78125zm12.633186 6.5625l0 -13.140625l1.984375 0l0 1.84375q0.625 -0.953125 1.640625 -1.546875q1.03125 -0.59375 2.34375 -0.59375q1.46875 0 2.390625 0.609375q0.9375 0.609375 1.328125 1.703125q1.546875 -2.3125 4.046875 -2.3125q1.953125 0 3.0 1.09375q1.0625 1.078125 1.0625 3.328125l0 9.015625l-2.21875 0l0 -8.28125q0 -1.328125 -0.21875 -1.90625q-0.21875 -0.59375 -0.78125 -0.953125q-0.5625 -0.359375 -1.328125 -0.359375q-1.390625 0 -2.3125 0.921875q-0.90625 0.921875 -0.90625 2.953125l0 7.625l-2.234375 0l0 -8.53125q0 -1.484375 -0.546875 -2.21875q-0.53125 -0.75 -1.78125 -0.75q-0.9375 0 -1.734375 0.5q-0.796875 0.484375 -1.15625 1.4375q-0.359375 0.953125 -0.359375 2.75l0 6.8125l-2.21875 0zm23.145401 0l-2.0625 0l0 -18.125l2.234375 0l0 6.46875q1.40625 -1.78125 3.59375 -1.78125q1.203125 0 2.28125 0.5q1.09375 0.484375 1.78125 1.375q0.703125 0.875 1.09375 2.125q0.40625 1.25 0.40625 2.671875q0 3.375 -1.671875 5.21875q-1.671875 1.84375 -4.0 1.84375q-2.328125 0 -3.65625 -1.9375l0 1.640625zm-0.015625 -6.671875q0 2.375 0.640625 3.421875q1.046875 1.71875 2.84375 1.71875q1.453125 0 2.515625 -1.265625q1.0625 -1.265625 1.0625 -3.78125q0 -2.578125 -1.015625 -3.796875q-1.015625 -1.21875 -2.46875 -1.21875q-1.453125 0 -2.515625 1.265625q-1.0625 1.265625 -1.0625 3.65625zm12.023804 6.671875l0 -13.140625l2.0 0l0 2.0q0.78125 -1.40625 1.421875 -1.84375q0.65625 -0.453125 1.4375 -0.453125q1.125 0 2.28125 0.71875l-0.765625 2.078125q-0.8125 -0.484375 -1.640625 -0.484375q-0.71875 0 -1.3125 0.4375q-0.578125 0.4375 -0.828125 1.21875q-0.359375 1.1875 -0.359375 2.59375l0 6.875l-2.234375 0zm17.450089 -4.234375l2.296875 0.296875q-0.53125 2.015625 -2.015625 3.125q-1.46875 1.109375 -3.75 1.109375q-2.890625 0 -4.578125 -1.765625q-1.6875 -1.78125 -1.6875 -4.984375q0 -3.3125 1.703125 -5.140625q1.71875 -1.84375 4.4375 -1.84375q2.640625 0 4.296875 1.796875q1.671875 1.796875 1.671875 5.046875q0 0.203125 -0.015625 0.59375l-9.78125 0q0.109375 2.171875 1.203125 3.328125q1.109375 1.140625 2.765625 1.140625q1.21875 0 2.078125 -0.640625q0.875 -0.640625 1.375 -2.0625zm-7.3125 -3.59375l7.34375 0q-0.15625 -1.65625 -0.84375 -2.484375q-1.0625 -1.28125 -2.75 -1.28125q-1.546875 0 -2.59375 1.03125q-1.03125 1.015625 -1.15625 2.734375zm16.350494 7.828125l6.953125 -18.125l2.59375 0l7.421875 18.125l-2.734375 0l-2.125 -5.484375l-7.578125 0l-1.984375 5.484375l-2.546875 0zm5.21875 -7.4375l6.15625 0l-1.890625 -5.03125q-0.875 -2.28125 -1.296875 -3.75q-0.34375 1.734375 -0.96875 3.453125l-2.0 5.328125z" fill-rule="nonzero"/><path fill="#cfe2f3" d="m41.070866 414.26773l52.381626 -71.51706l209.52652 0l-52.381622 71.51706z" fill-rule="evenodd"/><path stroke="#000000" stroke-width="1.0" stroke-linejoin="round" stroke-linecap="butt" d="m41.070866 414.26773l52.381626 -71.51706l209.52652 0l-52.381622 71.51706z" fill-rule="evenodd"/><path fill="#000000" d="m102.42124 387.8292l6.953125 -18.125l2.59375 0l7.421875 18.125l-2.734375 0l-2.125 -5.484375l-7.578125 0l-1.984375 5.484375l-2.546875 0zm5.21875 -7.4375l6.15625 0l-1.890625 -5.03125q-0.875 -2.28125 -1.296875 -3.75q-0.34375 1.734375 -0.96875 3.453125l-2.0 5.328125zm13.9092865 7.4375l0 -11.40625l-1.96875 0l0 -1.734375l1.96875 0l0 -1.390625q0 -1.328125 0.234375 -1.96875q0.328125 -0.859375 1.125 -1.390625q0.8125 -0.546875 2.28125 -0.546875q0.9375 0 2.078125 0.21875l-0.34375 1.9375q-0.6875 -0.125 -1.3125 -0.125q-1.015625 0 -1.4375 0.4375q-0.40625 0.4375 -0.40625 1.625l0 1.203125l2.546875 0l0 1.734375l-2.546875 0l0 11.40625l-2.21875 0zm6.5792923 0l0 -11.40625l-1.9687576 0l0 -1.734375l1.9687576 0l0 -1.390625q0 -1.328125 0.234375 -1.96875q0.328125 -0.859375 1.125 -1.390625q0.8125 -0.546875 2.28125 -0.546875q0.9375 0 2.078125 0.21875l-0.34375 1.9375q-0.6875 -0.125 -1.3125 -0.125q-1.015625 0 -1.4375 0.4375q-0.40625 0.4375 -0.40625 1.625l0 1.203125l2.546875 0l0 1.734375l-2.546875 0l0 11.40625l-2.21875 0zm6.521347 -15.578125l0 -2.546875l2.21875 0l0 2.546875l-2.21875 0zm0 15.578125l0 -13.140625l2.21875 0l0 13.140625l-2.21875 0zm14.173981 -4.8125l2.1875 0.28125q-0.34375 2.265625 -1.828125 3.546875q-1.484375 1.28125 -3.625 1.28125q-2.703125 0 -4.34375 -1.765625q-1.640625 -1.765625 -1.640625 -5.046875q0 -2.125 0.703125 -3.71875q0.71875 -1.59375 2.15625 -2.390625q1.4375 -0.8125 3.125 -0.8125q2.140625 0 3.5 1.09375q1.359375 1.078125 1.75 3.0625l-2.171875 0.34375q-0.296875 -1.328125 -1.09375 -1.984375q-0.78125 -0.671875 -1.890625 -0.671875q-1.6875 0 -2.734375 1.203125q-1.046875 1.203125 -1.046875 3.8125q0 2.640625 1.015625 3.84375q1.015625 1.203125 2.640625 1.203125q1.3125 0 2.1875 -0.796875q0.875 -0.8125 1.109375 -2.484375zm4.1015625 4.8125l0 -18.125l2.21875 0l0 6.5q1.5625 -1.8125 3.9375 -1.8125q1.453125 0 2.53125 0.578125q1.078125 0.578125 1.546875 1.59375q0.46875 1.015625 0.46875 2.9375l0 8.328125l-2.234375 0l0 -8.328125q0 -1.671875 -0.734375 -2.421875q-0.71875 -0.765625 -2.03125 -0.765625q-1.0 0 -1.875 0.515625q-0.859375 0.515625 -1.234375 1.390625q-0.375 0.875 -0.375 2.421875l0 7.1875l-2.21875 0zm23.070679 -4.234375l2.296875 0.296875q-0.53125 2.015625 -2.015625 3.125q-1.46875 1.109375 -3.75 1.109375q-2.890625 0 -4.578125 -1.765625q-1.6875 -1.78125 -1.6875 -4.984375q0 -3.3125 1.703125 -5.140625q1.71875 -1.84375 4.4375 -1.84375q2.640625 0 4.296875 1.796875q1.671875 1.796875 1.671875 5.046875q0 0.203125 -0.015625 0.59375l-9.78125 0q0.109375 2.171875 1.203125 3.328125q1.109375 1.140625 2.765625 1.140625q1.21875 0 2.078125 -0.640625q0.875 -0.640625 1.375 -2.0625zm-7.3125 -3.59375l7.34375 0q-0.15625 -1.65625 -0.84375 -2.484375q-1.0625 -1.28125 -2.75 -1.28125q-1.546875 0 -2.59375 1.03125q-1.03125 1.015625 -1.15625 2.734375zm12.383179 7.828125l0 -13.140625l2.0 0l0 2.0q0.78125 -1.40625 1.421875 -1.84375q0.65625 -0.453125 1.4375 -0.453125q1.125 0 2.28125 0.71875l-0.765625 2.078125q-0.8125 -0.484375 -1.640625 -0.484375q-0.71875 0 -1.3125 0.4375q-0.578125 0.4375 -0.828125 1.21875q-0.359375 1.1875 -0.359375 2.59375l0 6.875l-2.234375 0zm15.690186 0l0 -18.125l6.796875 0q2.078125 0 3.328125 0.546875q1.265625 0.546875 1.96875 1.703125q0.71875 1.140625 0.71875 2.375q0 1.171875 -0.640625 2.203125q-0.625 1.015625 -1.90625 1.65625q1.65625 0.46875 2.53125 1.640625q0.890625 1.15625 0.890625 2.75q0 1.265625 -0.546875 2.359375q-0.53125 1.09375 -1.328125 1.6875q-0.78125 0.59375 -1.984375 0.90625q-1.1875 0.296875 -2.921875 0.296875l-6.90625 0zm2.390625 -10.515625l3.921875 0q1.59375 0 2.296875 -0.203125q0.90625 -0.28125 1.375 -0.90625q0.46875 -0.625 0.46875 -1.578125q0 -0.90625 -0.4375 -1.59375q-0.4375 -0.6875 -1.25 -0.9375q-0.796875 -0.25 -2.75 -0.25l-3.625 0l0 5.46875zm0 8.375l4.515625 0q1.171875 0 1.640625 -0.078125q0.828125 -0.15625 1.375 -0.5q0.5625 -0.34375 0.921875 -1.0q0.359375 -0.671875 0.359375 -1.53125q0 -1.015625 -0.53125 -1.765625q-0.515625 -0.75 -1.4375 -1.046875q-0.921875 -0.3125 -2.640625 -0.3125l-4.203125 0l0 6.234375z" fill-rule="nonzero"/><path fill="#000000" fill-opacity="0.0" d="m172.02887 311.36737l0 31.370087" fill-rule="evenodd"/><path stroke="#000000" stroke-width="1.0" stroke-linejoin="round" stroke-linecap="butt" d="m172.02887 311.36737l0 25.370087" fill-rule="evenodd"/><path fill="#000000" stroke="#000000" stroke-width="1.0" stroke-linecap="butt" d="m170.37714 336.73746l1.6517334 4.538086l1.6517334 -4.538086z" fill-rule="evenodd"/><path fill="#000000" fill-opacity="0.0" d="m172.02493 414.26773l0 31.370056" fill-rule="evenodd"/><path stroke="#000000" stroke-width="1.0" stroke-linejoin="round" stroke-linecap="butt" d="m172.02493 414.26773l0 25.370056" fill-rule="evenodd"/><path fill="#000000" stroke="#000000" stroke-width="1.0" stroke-linecap="butt" d="m170.3732 439.6378l1.6517334 4.5381165l1.6517334 -4.5381165z" fill-rule="evenodd"/><path fill="#cfe2f3" d="m377.87665 288.65353l43.876648 -75.55643l175.50653 0l-43.876648 75.55643z" fill-rule="evenodd"/><path stroke="#000000" stroke-width="1.0" stroke-linejoin="round" stroke-linecap="butt" d="m377.87665 288.65353l43.876648 -75.55643l175.50653 0l-43.876648 75.55643z" fill-rule="evenodd"/><path fill="#000000" fill-opacity="0.0" d="m652.3517 225.01575l220.3465 0l0 51.716522l-220.3465 0z" fill-rule="evenodd"/><path fill="#000000" d="m663.83606 259.61575l0 -19.078125l2.53125 0l0 19.078125l-2.53125 0zm6.671631 0l0 -13.828125l2.109375 0l0 1.96875q1.53125 -2.28125 4.40625 -2.28125q1.25 0 2.296875 0.453125q1.046875 0.453125 1.5625 1.1875q0.53125 0.71875 0.734375 1.71875q0.125 0.65625 0.125 2.28125l0 8.5l-2.34375 0l0 -8.40625q0 -1.4375 -0.28125 -2.140625q-0.265625 -0.71875 -0.96875 -1.140625q-0.6875 -0.421875 -1.625 -0.421875q-1.484375 0 -2.578125 0.953125q-1.09375 0.953125 -1.09375 3.609375l0 7.546875l-2.34375 0zm14.82489 5.296875l0 -19.125l2.140625 0l0 1.796875q0.75 -1.046875 1.703125 -1.578125q0.953125 -0.53125 2.3125 -0.53125q1.765625 0 3.109375 0.921875q1.359375 0.90625 2.046875 2.5625q0.6875 1.65625 0.6875 3.640625q0 2.125 -0.765625 3.828125q-0.75 1.6875 -2.203125 2.59375q-1.453125 0.90625 -3.046875 0.90625q-1.171875 0 -2.109375 -0.484375q-0.921875 -0.5 -1.53125 -1.265625l0 6.734375l-2.34375 0zm2.125 -12.125q0 2.65625 1.078125 3.9375q1.09375 1.28125 2.625 1.28125q1.5625 0 2.671875 -1.3125q1.109375 -1.328125 1.109375 -4.109375q0 -2.640625 -1.09375 -3.953125q-1.078125 -1.3125 -2.59375 -1.3125q-1.484375 0 -2.640625 1.40625q-1.15625 1.390625 -1.15625 4.0625zm21.762451 6.828125l0 -2.03125q-1.609375 2.34375 -4.375 2.34375q-1.234375 0 -2.296875 -0.46875q-1.0625 -0.46875 -1.578125 -1.171875q-0.5 -0.71875 -0.71875 -1.75q-0.140625 -0.6875 -0.140625 -2.1875l0 -8.5625l2.34375 0l0 7.671875q0 1.828125 0.140625 2.46875q0.21875 0.921875 0.9375 1.453125q0.71875 0.53125 1.765625 0.53125q1.0625 0 1.984375 -0.53125q0.921875 -0.546875 1.296875 -1.46875q0.390625 -0.9375 0.390625 -2.71875l0 -7.40625l2.34375 0l0 13.828125l-2.09375 0zm10.887451 -2.09375l0.328125 2.0625q-0.984375 0.21875 -1.765625 0.21875q-1.265625 0 -1.96875 -0.40625q-0.703125 -0.40625 -1.0 -1.0625q-0.28125 -0.65625 -0.28125 -2.765625l0 -7.953125l-1.71875 0l0 -1.828125l1.71875 0l0 -3.421875l2.328125 -1.40625l0 4.828125l2.359375 0l0 1.828125l-2.359375 0l0 8.078125q0 1.0 0.125 1.296875q0.125 0.28125 0.40625 0.453125q0.28125 0.171875 0.796875 0.171875q0.390625 0 1.03125 -0.09375zm0.5309448 2.421875l5.53125 -19.734375l1.875 0l-5.515625 19.734375l-1.890625 0zm8.687195 -9.625q0 -4.75 2.546875 -7.4375q2.5625 -2.6875 6.59375 -2.6875q2.640625 0 4.765625 1.265625q2.125 1.265625 3.234375 3.53125q1.109375 2.25 1.109375 5.109375q0 2.90625 -1.171875 5.203125q-1.171875 2.28125 -3.3125 3.46875q-2.140625 1.171875 -4.640625 1.171875q-2.6875 0 -4.8125 -1.296875q-2.125 -1.3125 -3.21875 -3.5625q-1.09375 -2.25 -1.09375 -4.765625zm2.609375 0.046875q0 3.4375 1.84375 5.4375q1.859375 1.984375 4.671875 1.984375q2.84375 0 4.6875 -2.0q1.84375 -2.015625 1.84375 -5.703125q0 -2.328125 -0.796875 -4.0625q-0.78125 -1.734375 -2.296875 -2.6875q-1.515625 -0.96875 -3.40625 -0.96875q-2.6875 0 -4.625 1.84375q-1.921875 1.84375 -1.921875 6.15625zm27.656006 9.25l0 -2.03125q-1.609375 2.34375 -4.375 2.34375q-1.234375 0 -2.296875 -0.46875q-1.0625 -0.46875 -1.578125 -1.171875q-0.5 -0.71875 -0.71875 -1.75q-0.140625 -0.6875 -0.140625 -2.1875l0 -8.5625l2.34375 0l0 7.671875q0 1.828125 0.140625 2.46875q0.21875 0.921875 0.9375 1.453125q0.71875 0.53125 1.765625 0.53125q1.0625 0 1.984375 -0.53125q0.921875 -0.546875 1.296875 -1.46875q0.390625 -0.9375 0.390625 -2.71875l0 -7.40625l2.34375 0l0 13.828125l-2.09375 0zm10.88739 -2.09375l0.328125 2.0625q-0.984375 0.21875 -1.765625 0.21875q-1.265625 0 -1.96875 -0.40625q-0.703125 -0.40625 -1.0 -1.0625q-0.28125 -0.65625 -0.28125 -2.765625l0 -7.953125l-1.71875 0l0 -1.828125l1.71875 0l0 -3.421875l2.328125 -1.40625l0 4.828125l2.359375 0l0 1.828125l-2.359375 0l0 8.078125q0 1.0 0.125 1.296875q0.125 0.28125 0.40625 0.453125q0.28125 0.171875 0.796875 0.171875q0.390625 0 1.03125 -0.09375zm2.2810059 7.390625l0 -19.125l2.140625 0l0 1.796875q0.75 -1.046875 1.703125 -1.578125q0.953125 -0.53125 2.3125 -0.53125q1.765625 0 3.109375 0.921875q1.359375 0.90625 2.046875 2.5625q0.6875 1.65625 0.6875 3.640625q0 2.125 -0.765625 3.828125q-0.75 1.6875 -2.203125 2.59375q-1.453125 0.90625 -3.046875 0.90625q-1.171875 0 -2.109375 -0.484375q-0.921875 -0.5 -1.53125 -1.265625l0 6.734375l-2.34375 0zm2.125 -12.125q0 2.65625 1.078125 3.9375q1.09375 1.28125 2.625 1.28125q1.5625 0 2.671875 -1.3125q1.109375 -1.328125 1.109375 -4.109375q0 -2.640625 -1.09375 -3.953125q-1.078125 -1.3125 -2.59375 -1.3125q-1.484375 0 -2.640625 1.40625q-1.15625 1.390625 -1.15625 4.0625zm21.76239 6.828125l0 -2.03125q-1.609375 2.34375 -4.375 2.34375q-1.234375 0 -2.296875 -0.46875q-1.0625 -0.46875 -1.578125 -1.171875q-0.5 -0.71875 -0.71875 -1.75q-0.140625 -0.6875 -0.140625 -2.1875l0 -8.5625l2.34375 0l0 7.671875q0 1.828125 0.140625 2.46875q0.21875 0.921875 0.9375 1.453125q0.71875 0.53125 1.765625 0.53125q1.0625 0 1.984375 -0.53125q0.921875 -0.546875 1.296875 -1.46875q0.390625 -0.9375 0.390625 -2.71875l0 -7.40625l2.34375 0l0 13.828125l-2.09375 0zm10.887451 -2.09375l0.328125 2.0625q-0.984375 0.21875 -1.765625 0.21875q-1.265625 0 -1.96875 -0.40625q-0.703125 -0.40625 -1.0 -1.0625q-0.28125 -0.65625 -0.28125 -2.765625l0 -7.953125l-1.71875 0l0 -1.828125l1.71875 0l0 -3.421875l2.328125 -1.40625l0 4.828125l2.359375 0l0 1.828125l-2.359375 0l0 8.078125q0 1.0 0.125 1.296875q0.125 0.28125 0.40625 0.453125q0.28125 0.171875 0.796875 0.171875q0.390625 0 1.03125 -0.09375z" fill-rule="nonzero"/><path fill="#000000" fill-opacity="0.0" d="m652.3517 250.87401l-77.03937 0" fill-rule="evenodd"/><path stroke="#000000" stroke-width="1.0" stroke-linejoin="round" stroke-linecap="butt" d="m652.3517 250.87401l-71.03937 0" fill-rule="evenodd"/><path fill="#000000" stroke="#000000" stroke-width="1.0" stroke-linecap="butt" d="m581.3123 249.22229l-4.538086 1.6517181l4.538086 1.6517334z" fill-rule="evenodd"/></g></svg>