<?xml version="1.0" encoding="UTF-8" standalone="no"?>
<svg
   xmlns:dc="http://purl.org/dc/elements/1.1/"
   xmlns:cc="http://creativecommons.org/ns#"
   xmlns:rdf="http://www.w3.org/1999/02/22-rdf-syntax-ns#"
   xmlns:svg="http://www.w3.org/2000/svg"
   xmlns="http://www.w3.org/2000/svg"
   xmlns:sodipodi="http://sodipodi.sourceforge.net/DTD/sodipodi-0.dtd"
   xmlns:inkscape="http://www.inkscape.org/namespaces/inkscape"
   version="1.1"
   viewBox="0 0 612.75586 368.36514"
   fill="none"
   stroke="none"
   stroke-linecap="square"
   stroke-miterlimit="10"
   id="svg2292"
   sodipodi:docname="Flowchart-string.svg"
   width="612.75586"
   height="368.36514"
   inkscape:version="1.0.2-2 (e86c870879, 2021-01-15)">
  <metadata
     id="metadata2298">
    <rdf:RDF>
      <cc:Work
         rdf:about="">
        <dc:format>image/svg+xml</dc:format>
        <dc:type
           rdf:resource="http://purl.org/dc/dcmitype/StillImage" />
        <dc:title />
      </cc:Work>
    </rdf:RDF>
  </metadata>
  <defs
     id="defs2296" />
  <sodipodi:namedview
     pagecolor="#ffffff"
     bordercolor="#666666"
     borderopacity="1"
     objecttolerance="10"
     gridtolerance="10"
     guidetolerance="10"
     inkscape:pageopacity="0"
     inkscape:pageshadow="2"
     inkscape:window-width="1920"
     inkscape:window-height="1017"
     id="namedview2294"
     showgrid="false"
     fit-margin-top="0"
     fit-margin-left="0"
     fit-margin-right="0"
     fit-margin-bottom="0"
     inkscape:zoom="1.573941"
     inkscape:cx="366.29752"
     inkscape:cy="168.6576"
     inkscape:window-x="-8"
     inkscape:window-y="-8"
     inkscape:window-maximized="1"
     inkscape:current-layer="svg2292"
     inkscape:document-rotation="0" />
  <clipPath
     id="p.0">
    <path
       d="M 0,0 H 960 V 720 H 0 Z"
       clip-rule="nonzero"
       id="path2213" />
  </clipPath>
  <g
     clip-path="url(#p.0)"
     id="g2290"
     transform="translate(-13.998688,-11.0958)">
    <path
       fill="#000000"
       fill-opacity="0"
       d="M 0,0 H 960 V 720 H 0 Z"
       fill-rule="evenodd"
       id="path2216" />
    <path
       fill="#cfe2f3"
       d="m 79.51169,11.5958 h 82.58986 v 0 c 10.81949,0 19.59042,12.763481 19.59042,28.508032 0,15.744553 -8.77093,28.50803 -19.59042,28.50803 H 79.51169 v 0 c -10.819496,0 -19.590427,-12.763477 -19.590427,-28.50803 0,-15.744551 8.770931,-28.508032 19.590427,-28.508032 z"
       fill-rule="evenodd"
       id="path2218" />
    <path
       stroke="#000000"
       stroke-width="1"
       stroke-linejoin="round"
       stroke-linecap="butt"
       d="m 79.51169,11.5958 h 82.58986 v 0 c 10.81949,0 19.59042,12.763481 19.59042,28.508032 0,15.744553 -8.77093,28.50803 -19.59042,28.50803 H 79.51169 v 0 c -10.819496,0 -19.590427,-12.763477 -19.590427,-28.50803 0,-15.744551 8.770931,-28.508032 19.590427,-28.508032 z"
       fill-rule="evenodd"
       id="path2220" />
    <path
       fill="#000000"
       d="M 82.86522,49.70383 V 30.625705 h 6.5625 q 2.234375,0 3.40625,0.265625 1.640625,0.375 2.796875,1.375 1.5,1.265625 2.25,3.25 0.75,1.984375 0.75,4.546875 0,2.171875 -0.515625,3.859375 -0.5,1.671875 -1.296875,2.78125 -0.78125,1.09375 -1.734375,1.71875 -0.9375,0.625 -2.28125,0.953125 -1.328125,0.328125 -3.0625,0.328125 z m 2.515625,-2.25 h 4.078125 q 1.890625,0 2.953125,-0.34375 1.078125,-0.359375 1.71875,-1 0.890625,-0.890625 1.390625,-2.40625 0.515625,-1.515625 0.515625,-3.6875 0,-2.984375 -0.984375,-4.59375 -0.984375,-1.609375 -2.390625,-2.15625 -1.015625,-0.390625 -3.265625,-0.390625 h -4.015625 z m 25.890915,-2.203125 2.42188,0.296875 q -0.57813,2.125 -2.125,3.296875 -1.54688,1.171875 -3.95313,1.171875 -3.03125,0 -4.8125,-1.859375 -1.78125,-1.875 -1.78125,-5.25 0,-3.484375 1.79688,-5.40625 1.79687,-1.9375 4.67187,-1.9375 2.76563,0 4.51563,1.890625 1.76562,1.890625 1.76562,5.3125 0,0.203125 -0.0156,0.625 h -10.3125 q 0.14062,2.28125 1.29687,3.5 1.15625,1.203125 2.89063,1.203125 1.28125,0 2.1875,-0.671875 0.92187,-0.6875 1.45312,-2.171875 z m -7.6875,-3.78125 h 7.71875 q -0.15625,-1.75 -0.89062,-2.625 -1.125,-1.34375 -2.90625,-1.34375 -1.60938,0 -2.71875,1.078125 -1.09375,1.078125 -1.20313,2.890625 z m 2.51563,-7.3125 1.73437,-3.640625 h 3.0625 l -2.85937,3.640625 z m 10.52806,20.84375 v -19.125 h 2.14062 v 1.796875 q 0.75,-1.046875 1.70313,-1.578125 0.95312,-0.53125 2.3125,-0.53125 1.76562,0 3.10937,0.921875 1.35938,0.90625 2.04688,2.5625 0.6875,1.65625 0.6875,3.640625 0,2.125 -0.76563,3.828125 -0.75,1.6875 -2.20312,2.59375 -1.45313,0.90625 -3.04688,0.90625 -1.17187,0 -2.10937,-0.484375 -0.92188,-0.5 -1.53125,-1.265625 v 6.734375 z m 2.125,-12.125 q 0,2.65625 1.07812,3.9375 1.09375,1.28125 2.625,1.28125 1.5625,0 2.67188,-1.3125 1.10937,-1.328125 1.10937,-4.109375 0,-2.640625 -1.09375,-3.953125 -1.07812,-1.3125 -2.59375,-1.3125 -1.48437,0 -2.64062,1.40625 -1.15625,1.390625 -1.15625,4.0625 z m 21.73118,5.125 q -1.3125,1.109375 -2.51562,1.5625 -1.20313,0.453125 -2.57813,0.453125 -2.28125,0 -3.5,-1.109375 -1.21875,-1.109375 -1.21875,-2.84375 0,-1.015625 0.45313,-1.859375 0.46875,-0.84375 1.21875,-1.34375 0.75,-0.515625 1.6875,-0.765625 0.6875,-0.1875 2.07812,-0.359375 2.82813,-0.328125 4.17188,-0.796875 0.0156,-0.484375 0.0156,-0.625 0,-1.421875 -0.65625,-2.015625 -0.90625,-0.796875 -2.67187,-0.796875 -1.65625,0 -2.45313,0.59375 -0.78125,0.578125 -1.15625,2.046875 l -2.29687,-0.3125 q 0.3125,-1.46875 1.03125,-2.375 0.71875,-0.90625 2.0625,-1.390625 1.35937,-0.5 3.14062,-0.5 1.78125,0 2.875,0.421875 1.10938,0.421875 1.625,1.046875 0.53125,0.625 0.73438,1.59375 0.125,0.59375 0.125,2.15625 v 3.125 q 0,3.265625 0.14062,4.140625 0.15625,0.859375 0.59375,1.65625 h -2.4375 q -0.375,-0.734375 -0.46875,-1.703125 z m -0.20312,-5.234375 q -1.26563,0.515625 -3.82813,0.890625 -1.4375,0.203125 -2.04687,0.46875 -0.59375,0.25 -0.92188,0.75 -0.3125,0.5 -0.3125,1.125 0,0.9375 0.70313,1.5625 0.70312,0.625 2.07812,0.625 1.34375,0 2.39063,-0.59375 1.0625,-0.59375 1.5625,-1.625 0.375,-0.796875 0.375,-2.34375 z m 5.98118,6.9375 V 35.875705 h 2.10938 v 2.09375 q 0.79687,-1.46875 1.48437,-1.9375 0.6875,-0.46875 1.5,-0.46875 1.1875,0 2.40625,0.765625 l -0.79687,2.171875 q -0.85938,-0.515625 -1.71875,-0.515625 -0.76563,0 -1.39063,0.46875 -0.60937,0.453125 -0.85937,1.28125 -0.39063,1.25 -0.39063,2.734375 v 7.234375 z m 14.01737,-2.09375 0.32812,2.0625 q -0.98437,0.21875 -1.76562,0.21875 -1.26563,0 -1.96875,-0.40625 -0.70313,-0.40625 -1,-1.0625 -0.28125,-0.65625 -0.28125,-2.765625 V 37.70383 h -1.71875 v -1.828125 h 1.71875 V 32.45383 l 2.32812,-1.40625 v 4.828125 h 2.35938 v 1.828125 h -2.35938 v 8.078125 q 0,1 0.125,1.296875 0.125,0.28125 0.40625,0.453125 0.28125,0.171875 0.79688,0.171875 0.39062,0 1.03125,-0.09375 z"
       fill-rule="nonzero"
       id="path2222" />
    <path
       fill="#cfe2f3"
       d="m 78.142104,215.20646 h 89.145836 v 0 c 11.67832,0 21.1455,12.76349 21.1455,28.50803 0,15.74456 -9.46717,28.50802 -21.1455,28.50802 H 78.142104 v 0 c -11.678345,0 -21.145512,-12.76346 -21.145512,-28.50802 0,-15.74454 9.467167,-28.50803 21.145512,-28.50803 z"
       fill-rule="evenodd"
       id="path2224" />
    <path
       stroke="#000000"
       stroke-width="1"
       stroke-linejoin="round"
       stroke-linecap="butt"
       d="m 78.142104,215.20646 h 89.145836 v 0 c 11.67832,0 21.1455,12.76349 21.1455,28.50803 0,15.74456 -9.46717,28.50802 -21.1455,28.50802 H 78.142104 v 0 c -11.678345,0 -21.145512,-12.76346 -21.145512,-28.50802 0,-15.74454 9.467167,-28.50803 21.145512,-28.50803 z"
       fill-rule="evenodd"
       id="path2226" />
    <path
       fill="#000000"
       d="m 106.38762,253.31448 v -19.07813 h 12.875 v 2.25 h -10.34375 v 5.90625 h 8.95312 v 2.25 h -8.95312 v 8.67188 z m 15.86082,-16.39063 v -2.6875 h 2.34375 v 2.6875 z m 0,16.39063 v -13.82813 h 2.34375 v 13.82813 z m 5.90654,0 v -13.82813 h 2.10938 v 1.96875 q 1.53125,-2.28125 4.40625,-2.28125 1.25,0 2.29688,0.45313 1.04687,0.45312 1.5625,1.1875 0.53125,0.71875 0.73437,1.71875 0.125,0.65625 0.125,2.28125 v 8.5 h -2.34375 v -8.40625 q 0,-1.4375 -0.28125,-2.14063 -0.26562,-0.71875 -0.96875,-1.14062 -0.6875,-0.42188 -1.625,-0.42188 -1.48437,0 -2.57812,0.95313 -1.09375,0.95312 -1.09375,3.60937 v 7.54688 z"
       fill-rule="nonzero"
       id="path2228" />
    <path
       fill="#000000"
       fill-opacity="0"
       d="M 120.80662,68.61186 V 95.792967"
       fill-rule="evenodd"
       id="path2230" />
    <path
       stroke="#000000"
       stroke-width="1"
       stroke-linejoin="round"
       stroke-linecap="butt"
       d="M 120.80662,68.61186 V 89.792967"
       fill-rule="evenodd"
       id="path2232" />
    <path
       fill="#000000"
       stroke="#000000"
       stroke-width="1"
       stroke-linecap="butt"
       d="m 119.15488,89.79297 1.65174,4.538101 1.65173,-4.538101 z"
       fill-rule="evenodd"
       id="path2234" />
    <path
       fill="#000000"
       fill-opacity="0"
       d="m 120.80708,187.84908 v 27.18111"
       fill-rule="evenodd"
       id="path2236" />
    <path
       stroke="#000000"
       stroke-width="1"
       stroke-linejoin="round"
       stroke-linecap="butt"
       d="m 120.80708,187.84908 v 21.18111"
       fill-rule="evenodd"
       id="path2238" />
    <path
       fill="#000000"
       stroke="#000000"
       stroke-width="1"
       stroke-linecap="butt"
       d="m 119.15536,209.03018 1.65173,4.5381 1.65173,-4.5381 z"
       fill-rule="evenodd"
       id="path2240" />
    <path
       fill="#000000"
       fill-opacity="0"
       d="m 120.80898,286.5433 v 35.40158"
       fill-rule="evenodd"
       id="path2242" />
    <path
       fill="#cfe2f3"
       d="M 17.396326,95.79265 H 265.77167 v 92.05774 H 17.396326 Z"
       fill-rule="evenodd"
       id="path2248" />
    <path
       fill="#000000"
       fill-opacity="0"
       d="m 48.44324,95.79265 v 92.05774 M 17.396325,107.29987 H 265.77166"
       fill-rule="evenodd"
       id="path2250" />
    <path
       fill="#000000"
       fill-opacity="0"
       d="M 17.396326,95.79265 H 265.77167 v 92.05774 H 17.396326 Z"
       fill-rule="evenodd"
       id="path2252" />
    <path
       stroke="#000000"
       stroke-width="1"
       stroke-linejoin="round"
       stroke-linecap="butt"
       d="m 48.44324,95.79265 v 92.05774 M 17.396325,107.29987 H 265.77166"
       fill-rule="evenodd"
       id="path2254" />
    <path
       stroke="#000000"
       stroke-width="1"
       stroke-linejoin="round"
       stroke-linecap="butt"
       d="M 17.396326,95.79265 H 265.77167 v 92.05774 H 17.396326 Z"
       fill-rule="evenodd"
       id="path2256" />
    <path
       fill="#000000"
       fill-opacity="0"
       d="m 327.62466,105.82153 h 298.6299 v 71.99999 h -298.6299 z"
       fill-rule="evenodd"
       id="path2266" />
    <path
       stroke="#000000"
       stroke-width="1"
       stroke-linejoin="round"
       stroke-linecap="butt"
       stroke-dasharray="1, 3"
       d="m 327.62466,105.82153 h 298.6299 v 71.99999 h -298.6299 z"
       fill-rule="evenodd"
       id="path2268" />
    <path
       fill="#000000"
       fill-opacity="0"
       d="m 327.62466,214.54855 h 298.6299 v 72 h -298.6299 z"
       fill-rule="evenodd"
       id="path2272" />
    <path
       fill="#000000"
       fill-opacity="0"
       d="M 327.62466,250.54855 H 265.76641"
       fill-rule="evenodd"
       id="path2278" />
    <path
       fill="#000000"
       fill-opacity="0"
       d="M 327.62466,141.82152 H 265.76641"
       fill-rule="evenodd"
       id="path2284" />
    <path
       stroke="#000000"
       stroke-width="1"
       stroke-linejoin="round"
       stroke-linecap="butt"
       d="M 327.62466,141.82152 H 271.76641"
       fill-rule="evenodd"
       id="path2286" />
    <path
       fill="#000000"
       stroke="#000000"
       stroke-width="1"
       stroke-linecap="butt"
       d="m 271.76642,140.16978 -4.53812,1.65173 4.53812,1.65174 z"
       fill-rule="evenodd"
       id="path2288" />
  </g>
  <text
     xml:space="preserve"
     style="font-size:26.6667px;line-height:1.25;font-family:Calibri;-inkscape-font-specification:Calibri;fill:#000000;fill-opacity:1;stroke-width:0.999999"
     x="48.651222"
     y="145.19258"
     id="text12516"><tspan
       sodipodi:role="line"
       id="tspan12514"
       x="48.651222"
       y="145.19258"
       style="font-style:normal;font-variant:normal;font-weight:normal;font-stretch:normal;font-size:26.6667px;font-family:Arial;-inkscape-font-specification:Arial;fill:#000000;fill-opacity:1;stroke-width:0.999999">text = &quot;Bonjour&quot;</tspan></text>
  <text
     xml:space="preserve"
     style="font-size:26.6667px;line-height:1.25;font-family:Calibri;-inkscape-font-specification:Calibri;fill:#000000;fill-opacity:1;stroke-width:0.999999"
     x="326.97534"
     y="143.33809"
     id="text12516-2"><tspan
       sodipodi:role="line"
       id="tspan12514-6"
       x="326.97534"
       y="143.33809"
       style="font-style:normal;font-variant:normal;font-weight:normal;font-stretch:normal;font-size:26.6667px;font-family:Arial;-inkscape-font-specification:Arial;fill:#000000;fill-opacity:1;stroke-width:0.999999">Déclaration et definition</tspan></text>
</svg>
