<?xml version="1.0" encoding="UTF-8" standalone="no"?>
<svg
   xmlns:dc="http://purl.org/dc/elements/1.1/"
   xmlns:cc="http://creativecommons.org/ns#"
   xmlns:rdf="http://www.w3.org/1999/02/22-rdf-syntax-ns#"
   xmlns:svg="http://www.w3.org/2000/svg"
   xmlns="http://www.w3.org/2000/svg"
   xmlns:sodipodi="http://sodipodi.sourceforge.net/DTD/sodipodi-0.dtd"
   xmlns:inkscape="http://www.inkscape.org/namespaces/inkscape"
   version="1.1"
   viewBox="0 0 349.33722 228.62615"
   fill="none"
   stroke="none"
   stroke-linecap="square"
   stroke-miterlimit="10"
   id="svg9682"
   sodipodi:docname="Flowchart-arrays-create.svg"
   width="349.33722"
   height="228.62614"
   inkscape:version="1.0.2-2 (e86c870879, 2021-01-15)">
  <metadata
     id="metadata9688">
    <rdf:RDF>
      <cc:Work
         rdf:about="">
        <dc:format>image/svg+xml</dc:format>
        <dc:type
           rdf:resource="http://purl.org/dc/dcmitype/StillImage" />
        <dc:title></dc:title>
      </cc:Work>
    </rdf:RDF>
  </metadata>
  <defs
     id="defs9686" />
  <sodipodi:namedview
     pagecolor="#ffffff"
     bordercolor="#666666"
     borderopacity="1"
     objecttolerance="10"
     gridtolerance="10"
     guidetolerance="10"
     inkscape:pageopacity="0"
     inkscape:pageshadow="2"
     inkscape:window-width="1920"
     inkscape:window-height="1017"
     id="namedview9684"
     showgrid="false"
     fit-margin-top="0"
     fit-margin-left="0"
     fit-margin-right="0"
     fit-margin-bottom="0"
     inkscape:zoom="1.1129444"
     inkscape:cx="278.59648"
     inkscape:cy="136.32182"
     inkscape:window-x="-8"
     inkscape:window-y="-8"
     inkscape:window-maximized="1"
     inkscape:current-layer="svg9682"
     inkscape:document-rotation="0" />
  <clipPath
     id="p.0">
    <path
       d="M 0,0 H 960 V 720 H 0 Z"
       clip-rule="nonzero"
       id="path9627" />
  </clipPath>
  <path
     fill="#000000"
     fill-opacity="0"
     d="M -15.013116,-104.98836 H 944.98689 v 720 H -15.013116 Z"
     fill-rule="evenodd"
     id="path9630" />
  <path
     fill="#cfe2f3"
     d="m 130.31875,171.11006 h 89.14583 v 0 c 11.67834,0 21.14551,12.76349 21.14551,28.50803 0,15.74456 -9.46717,28.50805 -21.14551,28.50805 h -89.14583 v 0 c -11.67835,0 -21.14551,-12.76349 -21.14551,-28.50805 0,-15.74454 9.46717,-28.50803 21.14551,-28.50803 z"
     fill-rule="evenodd"
     id="path9638" />
  <path
     stroke="#000000"
     stroke-width="1"
     stroke-linejoin="round"
     stroke-linecap="butt"
     d="m 130.31875,171.11006 h 89.14583 v 0 c 11.67834,0 21.14551,12.76349 21.14551,28.50803 0,15.74456 -9.46717,28.50805 -21.14551,28.50805 h -89.14583 v 0 c -11.67835,0 -21.14551,-12.76349 -21.14551,-28.50805 0,-15.74454 9.46717,-28.50803 21.14551,-28.50803 z"
     fill-rule="evenodd"
     id="path9640" />
  <path
     fill="#000000"
     d="m 158.56427,209.21809 v -19.07812 h 12.875 v 2.25 h -10.34375 v 5.90625 h 8.95312 v 2.25 h -8.95312 v 8.67187 z m 15.86082,-16.39062 v -2.6875 h 2.34375 v 2.6875 z m 0,16.39062 v -13.82812 h 2.34375 v 13.82812 z m 5.90655,0 v -13.82812 h 2.10937 v 1.96875 q 1.53125,-2.28125 4.40625,-2.28125 1.25,0 2.29688,0.45312 1.04687,0.45313 1.5625,1.1875 0.53125,0.71875 0.73437,1.71875 0.125,0.65625 0.125,2.28125 v 8.5 h -2.34375 v -8.40625 q 0,-1.4375 -0.28125,-2.14062 -0.26562,-0.71875 -0.96875,-1.14063 -0.6875,-0.42187 -1.625,-0.42187 -1.48437,0 -2.57812,0.95312 -1.09375,0.95313 -1.09375,3.60938 v 7.54687 z"
     fill-rule="nonzero"
     id="path9642" />
  <path
     fill="#000000"
     fill-opacity="0"
     d="m 174.89166,130.54314 v 40.56693"
     fill-rule="evenodd"
     id="path9674" />
  <path
     fill="#cfe2f3"
     d="m 134.23336,0.5 h 82.58986 v 0 c 10.81949,0 19.59042,12.763479 19.59042,28.508029 0,15.74455 -8.77093,28.50803 -19.59042,28.50803 h -82.58986 v 0 c -10.81949,0 -19.59042,-12.76348 -19.59042,-28.50803 C 114.64294,13.263479 123.41387,0.5 134.23336,0.5 Z"
     fill-rule="evenodd"
     id="path2135" />
  <path
     stroke="#000000"
     stroke-width="1"
     stroke-linejoin="round"
     stroke-linecap="butt"
     d="m 134.23336,0.5 h 82.58986 v 0 c 10.81949,0 19.59042,12.763479 19.59042,28.508029 0,15.74455 -8.77093,28.50803 -19.59042,28.50803 h -82.58986 v 0 c -10.81949,0 -19.59042,-12.76348 -19.59042,-28.50803 C 114.64294,13.263479 123.41387,0.5 134.23336,0.5 Z"
     fill-rule="evenodd"
     id="path2137" />
  <path
     fill="#000000"
     d="m 137.58689,38.608029 v -19.07812 h 6.5625 q 2.23437,0 3.40625,0.26562 1.64062,0.375 2.79687,1.375 1.5,1.26563 2.25,3.25 0.75,1.98438 0.75,4.54688 0,2.17187 -0.51562,3.85937 -0.5,1.67188 -1.29688,2.78125 -0.78125,1.09375 -1.73437,1.71875 -0.9375,0.625 -2.28125,0.95313 -1.32813,0.32812 -3.0625,0.32812 z m 2.51562,-2.25 h 4.07813 q 1.89062,0 2.95312,-0.34375 1.07813,-0.35937 1.71875,-1 0.89063,-0.89062 1.39063,-2.40625 0.51562,-1.51562 0.51562,-3.6875 0,-2.98437 -0.98437,-4.59375 -0.98438,-1.60937 -2.39063,-2.15625 -1.01562,-0.39062 -3.26562,-0.39062 h -4.01563 z m 25.89092,-2.20312 2.42187,0.29687 q -0.57812,2.125 -2.125,3.29688 -1.54687,1.17187 -3.95312,1.17187 -3.03125,0 -4.8125,-1.85937 -1.78125,-1.875 -1.78125,-5.25 0,-3.48438 1.79687,-5.40625 1.79688,-1.9375 4.67188,-1.9375 2.76562,0 4.51562,1.89062 1.76563,1.89063 1.76563,5.3125 0,0.20313 -0.0156,0.625 h -10.3125 q 0.14063,2.28125 1.29688,3.5 1.15625,1.20313 2.89062,1.20313 1.28125,0 2.1875,-0.67188 0.92188,-0.6875 1.45313,-2.17187 z m -7.6875,-3.78125 h 7.71875 q -0.15625,-1.75 -0.89063,-2.625 -1.125,-1.34375 -2.90625,-1.34375 -1.60937,0 -2.71875,1.07812 -1.09375,1.07813 -1.20312,2.89063 z m 2.51562,-7.3125 1.73438,-3.64063 h 3.0625 l -2.85938,3.64063 z m 10.52807,20.84375 v -19.125 h 2.14062 v 1.79687 q 0.75,-1.04687 1.70313,-1.57812 0.95312,-0.53125 2.3125,-0.53125 1.76562,0 3.10937,0.92187 1.35938,0.90625 2.04688,2.5625 0.6875,1.65625 0.6875,3.64063 0,2.125 -0.76563,3.82812 -0.75,1.6875 -2.20312,2.59375 -1.45313,0.90625 -3.04688,0.90625 -1.17187,0 -2.10937,-0.48437 -0.92188,-0.5 -1.53125,-1.26563 v 6.73438 z m 2.125,-12.125 q 0,2.65625 1.07812,3.9375 1.09375,1.28125 2.625,1.28125 1.5625,0 2.67188,-1.3125 1.10937,-1.32813 1.10937,-4.10938 0,-2.64062 -1.09375,-3.95312 -1.07812,-1.3125 -2.59375,-1.3125 -1.48437,0 -2.64062,1.40625 -1.15625,1.39062 -1.15625,4.0625 z m 21.73118,5.125 q -1.3125,1.10937 -2.51562,1.5625 -1.20313,0.45312 -2.57813,0.45312 -2.28125,0 -3.5,-1.10937 -1.21875,-1.10938 -1.21875,-2.84375 0,-1.01563 0.45313,-1.85938 0.46875,-0.84375 1.21875,-1.34375 0.75,-0.51562 1.6875,-0.76562 0.6875,-0.1875 2.07812,-0.35938 2.82813,-0.32812 4.17188,-0.79687 0.0156,-0.48438 0.0156,-0.625 0,-1.42188 -0.65625,-2.01563 -0.90625,-0.79687 -2.67187,-0.79687 -1.65625,0 -2.45313,0.59375 -0.78125,0.57812 -1.15625,2.04687 l -2.29687,-0.3125 q 0.3125,-1.46875 1.03125,-2.375 0.71875,-0.90625 2.0625,-1.39062 1.35937,-0.5 3.14062,-0.5 1.78125,0 2.875,0.42187 1.10938,0.42188 1.625,1.04688 0.53125,0.625 0.73438,1.59375 0.125,0.59375 0.125,2.15625 v 3.125 q 0,3.26562 0.14062,4.14062 0.15625,0.85938 0.59375,1.65625 h -2.4375 q -0.375,-0.73437 -0.46875,-1.70312 z m -0.20312,-5.23438 q -1.26563,0.51563 -3.82813,0.89063 -1.4375,0.20312 -2.04687,0.46875 -0.59375,0.25 -0.92188,0.75 -0.3125,0.5 -0.3125,1.125 0,0.9375 0.70313,1.5625 0.70312,0.625 2.07812,0.625 1.34375,0 2.39063,-0.59375 1.0625,-0.59375 1.5625,-1.625 0.375,-0.79688 0.375,-2.34375 z m 5.98118,6.9375 v -13.82812 h 2.10938 v 2.09375 q 0.79687,-1.46875 1.48437,-1.9375 0.6875,-0.46875 1.5,-0.46875 1.1875,0 2.40625,0.76562 l -0.79687,2.17188 q -0.85938,-0.51563 -1.71875,-0.51563 -0.76563,0 -1.39063,0.46875 -0.60937,0.45313 -0.85937,1.28125 -0.39063,1.25 -0.39063,2.73438 v 7.23437 z m 14.01737,-2.09375 0.32812,2.0625 q -0.98437,0.21875 -1.76562,0.21875 -1.26563,0 -1.96875,-0.40625 -0.70313,-0.40625 -1,-1.0625 -0.28125,-0.65625 -0.28125,-2.76562 v -7.95313 h -1.71875 v -1.82812 h 1.71875 v -3.42188 l 2.32812,-1.40625 v 4.82813 h 2.35938 v 1.82812 h -2.35938 v 8.07813 q 0,1 0.125,1.29687 0.125,0.28125 0.40625,0.45313 0.28125,0.17187 0.79688,0.17187 0.39062,0 1.03125,-0.0937 z"
     fill-rule="nonzero"
     id="path2139" />
  <path
     fill="#cfe2f3"
     d="M 0.59197003,85.069019 H 348.74524 V 139.49422 H 0.59197003 Z"
     fill-rule="evenodd"
     id="path2147"
     style="stroke-width:1.18394" />
  <path
     fill="#000000"
     fill-opacity="0"
     d="M 31.638885,85.069019 V 139.49422 M 0.59197203,91.872169 H 248.9673"
     fill-rule="evenodd"
     id="path2149" />
  <path
     fill="#000000"
     fill-opacity="0"
     d="M 0.59197003,85.069019 H 248.9673 V 139.49422 H 0.59197003 Z"
     fill-rule="evenodd"
     id="path2151" />
  <path
     stroke="#000000"
     stroke-width="1.18303"
     stroke-linejoin="round"
     stroke-linecap="butt"
     d="M 44.04384,85.069019 V 139.49422 M 0.59197203,91.872169 H 348.20696"
     fill-rule="evenodd"
     id="path2153" />
  <path
     stroke="#000000"
     stroke-width="1.18394"
     stroke-linejoin="round"
     stroke-linecap="butt"
     d="M 0.59197003,85.069019 H 348.74524 V 139.49422 H 0.59197003 Z"
     fill-rule="evenodd"
     id="path2155" />
  <path
     fill="#000000"
     fill-opacity="0"
     d="m 175.5283,57.516059 v 26.92913"
     fill-rule="evenodd"
     id="path2165" />
  <path
     stroke="#000000"
     stroke-width="1"
     stroke-linejoin="round"
     stroke-linecap="butt"
     d="m 175.5283,57.516059 v 20.92914"
     fill-rule="evenodd"
     id="path2167" />
  <path
     fill="#000000"
     stroke="#000000"
     stroke-width="1"
     stroke-linecap="butt"
     d="m 173.87656,78.445199 1.65173,4.53809 1.65174,-4.53809 z"
     fill-rule="evenodd"
     id="path2169" />
  <text
     xml:space="preserve"
     style="font-size:26.6667px;line-height:1.25;font-family:Arial;-inkscape-font-specification:Arial;fill:#000000;fill-opacity:1"
     x="54.976185"
     y="124.38271"
     id="text1999"><tspan
       sodipodi:role="line"
       id="tspan1997"
       x="54.976185"
       y="124.38271">boxes = [&quot;text&quot;, true, 39]</tspan></text>
  <path
     stroke="#000000"
     stroke-width="1"
     stroke-linejoin="round"
     stroke-linecap="butt"
     d="M 174.6534,140.99529 V 164.5071"
     fill-rule="evenodd"
     id="path2203-8" />
  <path
     fill="#000000"
     stroke="#000000"
     stroke-width="1"
     stroke-linecap="butt"
     d="m 173.00167,164.5071 1.65173,4.53809 1.65174,-4.53809 z"
     fill-rule="evenodd"
     id="path2205-4" />
</svg>
