<?xml version="1.0" encoding="UTF-8" standalone="no"?>
<svg
   xmlns:dc="http://purl.org/dc/elements/1.1/"
   xmlns:cc="http://creativecommons.org/ns#"
   xmlns:rdf="http://www.w3.org/1999/02/22-rdf-syntax-ns#"
   xmlns:svg="http://www.w3.org/2000/svg"
   xmlns="http://www.w3.org/2000/svg"
   xmlns:sodipodi="http://sodipodi.sourceforge.net/DTD/sodipodi-0.dtd"
   xmlns:inkscape="http://www.inkscape.org/namespaces/inkscape"
   version="1.1"
   viewBox="0 0 755.39502 597.36908"
   fill="none"
   stroke="none"
   stroke-linecap="square"
   stroke-miterlimit="10"
   id="svg3036"
   sodipodi:docname="flowchart-array-length.svg"
   width="755.39502"
   height="597.36908"
   inkscape:version="1.0.2-2 (e86c870879, 2021-01-15)">
  <metadata
     id="metadata3042">
    <rdf:RDF>
      <cc:Work
         rdf:about="">
        <dc:format>image/svg+xml</dc:format>
        <dc:type
           rdf:resource="http://purl.org/dc/dcmitype/StillImage" />
        <dc:title></dc:title>
      </cc:Work>
    </rdf:RDF>
  </metadata>
  <defs
     id="defs3040" />
  <sodipodi:namedview
     pagecolor="#ffffff"
     bordercolor="#666666"
     borderopacity="1"
     objecttolerance="10"
     gridtolerance="10"
     guidetolerance="10"
     inkscape:pageopacity="0"
     inkscape:pageshadow="2"
     inkscape:window-width="1920"
     inkscape:window-height="1017"
     id="namedview3038"
     showgrid="false"
     fit-margin-top="0"
     fit-margin-left="0"
     fit-margin-right="0"
     fit-margin-bottom="0"
     inkscape:zoom="1.1425371"
     inkscape:cx="463.35171"
     inkscape:cy="278.40165"
     inkscape:window-x="-8"
     inkscape:window-y="-8"
     inkscape:window-maximized="1"
     inkscape:current-layer="svg3036" />
  <clipPath
     id="p.0">
    <path
       d="M 0,0 H 960 V 720 H 0 Z"
       clip-rule="nonzero"
       id="path2925" />
  </clipPath>
  <g
     clip-path="url(#p.0)"
     id="g3034"
     transform="translate(-16.648294,-11.57874)">
    <path
       fill="#000000"
       fill-opacity="0"
       d="M 0,0 H 960 V 720 H 0 Z"
       fill-rule="evenodd"
       id="path2928" />
    <path
       fill="#cfe2f3"
       d="m 148.61142,12.07874 h 82.58986 v 0 c 10.81949,0 19.59042,12.76348 19.59042,28.508034 0,15.744549 -8.77093,28.50803 -19.59042,28.50803 h -82.58986 v 0 c -10.81949,0 -19.59042,-12.763481 -19.59042,-28.50803 0,-15.744553 8.77093,-28.508034 19.59042,-28.508034 z"
       fill-rule="evenodd"
       id="path2930" />
    <path
       stroke="#000000"
       stroke-width="1"
       stroke-linejoin="round"
       stroke-linecap="butt"
       d="m 148.61142,12.07874 h 82.58986 v 0 c 10.81949,0 19.59042,12.76348 19.59042,28.508034 0,15.744549 -8.77093,28.50803 -19.59042,28.50803 h -82.58986 v 0 c -10.81949,0 -19.59042,-12.763481 -19.59042,-28.50803 0,-15.744553 8.77093,-28.508034 19.59042,-28.508034 z"
       fill-rule="evenodd"
       id="path2932" />
    <path
       fill="#000000"
       d="M 151.96495,50.18677 V 31.108645 h 6.5625 q 2.23437,0 3.40625,0.265625 1.64062,0.375 2.79687,1.375 1.5,1.265625 2.25,3.25 0.75,1.984375 0.75,4.546875 0,2.171875 -0.51562,3.859375 -0.5,1.671875 -1.29688,2.78125 -0.78125,1.09375 -1.73437,1.71875 -0.9375,0.625 -2.28125,0.953125 -1.32813,0.328125 -3.0625,0.328125 z m 2.51562,-2.25 h 4.07813 q 1.89062,0 2.95312,-0.34375 1.07813,-0.359375 1.71875,-1 0.89063,-0.890625 1.39063,-2.40625 0.51562,-1.515625 0.51562,-3.6875 0,-2.984375 -0.98437,-4.59375 -0.98438,-1.609375 -2.39063,-2.15625 -1.01562,-0.390625 -3.26562,-0.390625 h -4.01563 z m 25.89092,-2.203125 2.42187,0.296875 q -0.57812,2.125 -2.125,3.296875 -1.54687,1.171875 -3.95312,1.171875 -3.03125,0 -4.8125,-1.859375 -1.78125,-1.875 -1.78125,-5.25 0,-3.484375 1.79687,-5.40625 1.79688,-1.9375 4.67188,-1.9375 2.76562,0 4.51562,1.890625 1.76563,1.890625 1.76563,5.3125 0,0.203125 -0.0156,0.625 h -10.3125 q 0.14063,2.28125 1.29688,3.5 1.15625,1.203125 2.89062,1.203125 1.28125,0 2.1875,-0.671875 0.92188,-0.6875 1.45313,-2.171875 z m -7.6875,-3.78125 h 7.71875 q -0.15625,-1.75 -0.89063,-2.625 -1.125,-1.34375 -2.90625,-1.34375 -1.60937,0 -2.71875,1.078125 -1.09375,1.078125 -1.20312,2.890625 z m 2.51562,-7.3125 1.73438,-3.640625 h 3.0625 l -2.85938,3.640625 z m 10.52807,20.84375 v -19.125 h 2.14062 v 1.796875 q 0.75,-1.046875 1.70313,-1.578125 0.95312,-0.53125 2.3125,-0.53125 1.76562,0 3.10937,0.921875 1.35938,0.90625 2.04688,2.5625 0.6875,1.65625 0.6875,3.640625 0,2.125 -0.76563,3.828125 -0.75,1.6875 -2.20312,2.59375 -1.45313,0.90625 -3.04688,0.90625 -1.17187,0 -2.10937,-0.484375 -0.92188,-0.5 -1.53125,-1.265625 v 6.734375 z m 2.125,-12.125 q 0,2.65625 1.07812,3.9375 1.09375,1.28125 2.625,1.28125 1.5625,0 2.67188,-1.3125 1.10937,-1.328125 1.10937,-4.109375 0,-2.640625 -1.09375,-3.953125 -1.07812,-1.3125 -2.59375,-1.3125 -1.48437,0 -2.64062,1.40625 -1.15625,1.390625 -1.15625,4.0625 z m 21.73118,5.125 q -1.3125,1.109375 -2.51562,1.5625 -1.20313,0.453125 -2.57813,0.453125 -2.28125,0 -3.5,-1.109375 -1.21875,-1.109375 -1.21875,-2.84375 0,-1.015625 0.45313,-1.859375 0.46875,-0.84375 1.21875,-1.34375 0.75,-0.515625 1.6875,-0.765625 0.6875,-0.1875 2.07812,-0.359375 2.82813,-0.328125 4.17188,-0.796875 0.0156,-0.484375 0.0156,-0.625 0,-1.421875 -0.65625,-2.015625 -0.90625,-0.796875 -2.67187,-0.796875 -1.65625,0 -2.45313,0.59375 -0.78125,0.578125 -1.15625,2.046875 l -2.29687,-0.3125 q 0.3125,-1.46875 1.03125,-2.375 0.71875,-0.90625 2.0625,-1.390625 1.35937,-0.5 3.14062,-0.5 1.78125,0 2.875,0.421875 1.10938,0.421875 1.625,1.046875 0.53125,0.625 0.73438,1.59375 0.125,0.59375 0.125,2.15625 v 3.125 q 0,3.265625 0.14062,4.140625 0.15625,0.859375 0.59375,1.65625 h -2.4375 q -0.375,-0.734375 -0.46875,-1.703125 z m -0.20312,-5.234375 q -1.26563,0.515625 -3.82813,0.890625 -1.4375,0.203125 -2.04687,0.46875 -0.59375,0.25 -0.92188,0.75 -0.3125,0.5 -0.3125,1.125 0,0.9375 0.70313,1.5625 0.70312,0.625 2.07812,0.625 1.34375,0 2.39063,-0.59375 1.0625,-0.59375 1.5625,-1.625 0.375,-0.796875 0.375,-2.34375 z m 5.98118,6.9375 V 36.358645 h 2.10938 v 2.09375 q 0.79687,-1.46875 1.48437,-1.9375 0.6875,-0.46875 1.5,-0.46875 1.1875,0 2.40625,0.765625 l -0.79687,2.171875 q -0.85938,-0.515625 -1.71875,-0.515625 -0.76563,0 -1.39063,0.46875 -0.60937,0.453125 -0.85937,1.28125 -0.39063,1.25 -0.39063,2.734375 v 7.234375 z m 14.01737,-2.09375 0.32812,2.0625 q -0.98437,0.21875 -1.76562,0.21875 -1.26563,0 -1.96875,-0.40625 -0.70313,-0.40625 -1,-1.0625 -0.28125,-0.65625 -0.28125,-2.765625 V 38.18677 h -1.71875 v -1.828125 h 1.71875 V 32.93677 l 2.32812,-1.40625 v 4.828125 h 2.35938 v 1.828125 h -2.35938 v 8.078125 q 0,1 0.125,1.296875 0.125,0.28125 0.40625,0.453125 0.28125,0.171875 0.79688,0.171875 0.39062,0 1.03125,-0.09375 z"
       fill-rule="nonzero"
       id="path2934" />
    <path
       fill="#cfe2f3"
       d="m 140.49985,551.93176 h 89.14583 v 0 c 11.67835,0 21.14551,12.76349 21.14551,28.50806 0,15.7445 -9.46716,28.50799 -21.14551,28.50799 h -89.14583 v 0 c -11.67834,0 -21.14551,-12.76349 -21.14551,-28.50799 0,-15.74457 9.46717,-28.50806 21.14551,-28.50806 z"
       fill-rule="evenodd"
       id="path2936" />
    <path
       stroke="#000000"
       stroke-width="1"
       stroke-linejoin="round"
       stroke-linecap="butt"
       d="m 140.49985,551.93176 h 89.14583 v 0 c 11.67835,0 21.14551,12.76349 21.14551,28.50806 0,15.7445 -9.46716,28.50799 -21.14551,28.50799 h -89.14583 v 0 c -11.67834,0 -21.14551,-12.76349 -21.14551,-28.50799 0,-15.74457 9.46717,-28.50806 21.14551,-28.50806 z"
       fill-rule="evenodd"
       id="path2938" />
    <path
       fill="#000000"
       d="m 168.74536,590.0398 v -19.07812 h 12.875 v 2.25 h -10.34375 v 5.90625 h 8.95312 v 2.25 h -8.95312 v 8.67187 z m 15.86082,-16.39062 v -2.6875 h 2.34375 v 2.6875 z m 0,16.39062 v -13.82812 h 2.34375 v 13.82812 z m 5.90655,0 v -13.82812 h 2.10937 v 1.96875 q 1.53125,-2.28125 4.40625,-2.28125 1.25,0 2.29688,0.45312 1.04687,0.45313 1.5625,1.1875 0.53125,0.71875 0.73437,1.71875 0.125,0.65625 0.125,2.28125 v 8.5 h -2.34375 v -8.40625 q 0,-1.4375 -0.28125,-2.14062 -0.26562,-0.71875 -0.96875,-1.14063 -0.6875,-0.42187 -1.625,-0.42187 -1.48437,0 -2.57812,0.95312 -1.09375,0.95313 -1.09375,3.60938 v 7.54687 z"
       fill-rule="nonzero"
       id="path2940" />
    <path
       fill="#cfe2f3"
       d="m 65.71916,96.02887 h 248.37532 v 54.4252 H 65.71916 Z"
       fill-rule="evenodd"
       id="path2942" />
    <path
       fill="#000000"
       fill-opacity="0"
       d="m 96.766075,96.02887 v 54.4252 M 65.719162,102.83202 H 314.09448"
       fill-rule="evenodd"
       id="path2944" />
    <path
       fill="#000000"
       fill-opacity="0"
       d="m 65.71916,96.02887 h 248.37532 v 54.4252 H 65.71916 Z"
       fill-rule="evenodd"
       id="path2946" />
    <path
       stroke="#000000"
       stroke-width="1"
       stroke-linejoin="round"
       stroke-linecap="butt"
       d="m 96.766075,96.02887 v 54.4252 M 65.719162,102.83202 H 314.09448"
       fill-rule="evenodd"
       id="path2948" />
    <path
       stroke="#000000"
       stroke-width="1"
       stroke-linejoin="round"
       stroke-linecap="butt"
       d="m 65.71916,96.02887 h 248.37532 v 54.4252 H 65.71916 Z"
       fill-rule="evenodd"
       id="path2950" />
    <path
       fill="#000000"
       d="m 105.73483,135.96304 6.95312,-18.125 h 2.59375 l 7.42188,18.125 h -2.73438 l -2.125,-5.48438 h -7.57812 l -1.98438,5.48438 z m 5.21875,-7.4375 h 6.15625 l -1.89063,-5.03125 q -0.875,-2.28125 -1.29687,-3.75 -0.34375,1.73438 -0.96875,3.45313 z m 13.34678,7.4375 v -13.14062 h 2 v 2 q 0.78125,-1.40625 1.42188,-1.84375 0.65625,-0.45313 1.4375,-0.45313 1.125,0 2.28125,0.71875 l -0.76562,2.07813 q -0.8125,-0.48438 -1.64063,-0.48438 -0.71875,0 -1.3125,0.4375 -0.57813,0.4375 -0.82813,1.21875 -0.35937,1.1875 -0.35937,2.59375 v 6.875 z m 8.43447,0 v -13.14062 h 2 v 2 q 0.78125,-1.40625 1.42188,-1.84375 0.65625,-0.45313 1.4375,-0.45313 1.125,0 2.28125,0.71875 l -0.76563,2.07813 q -0.8125,-0.48438 -1.64062,-0.48438 -0.71875,0 -1.3125,0.4375 -0.57813,0.4375 -0.82813,1.21875 -0.35937,1.1875 -0.35937,2.59375 v 6.875 z m 17.02822,-1.625 q -1.23438,1.0625 -2.375,1.5 -1.14063,0.42187 -2.45313,0.42187 -2.17187,0 -3.32812,-1.04687 -1.15625,-1.0625 -1.15625,-2.71875 0,-0.95313 0.4375,-1.75 0.4375,-0.79688 1.14062,-1.28125 0.71875,-0.48438 1.60938,-0.73438 0.65625,-0.17187 1.96875,-0.32812 2.70312,-0.32813 3.96875,-0.76562 0.0156,-0.46875 0.0156,-0.59375 0,-1.35938 -0.625,-1.90625 -0.85937,-0.76563 -2.53125,-0.76563 -1.57812,0 -2.32812,0.5625 -0.75,0.54688 -1.10938,1.9375 l -2.17187,-0.29687 q 0.29687,-1.39063 0.96875,-2.25 0.6875,-0.85938 1.96875,-1.32813 1.29687,-0.46875 2.98437,-0.46875 1.6875,0 2.73438,0.40625 1.04687,0.39063 1.54687,1 0.5,0.59375 0.6875,1.5 0.125,0.57813 0.125,2.0625 v 2.96875 q 0,3.09375 0.14063,3.92187 0.14062,0.82813 0.5625,1.57813 h -2.32813 q -0.34375,-0.6875 -0.45312,-1.625 z m -0.1875,-4.96875 q -1.20313,0.5 -3.625,0.84375 -1.375,0.20312 -1.95313,0.45312 -0.5625,0.23438 -0.875,0.71875 -0.29687,0.46875 -0.29687,1.04688 0,0.89062 0.67187,1.48437 0.67188,0.59375 1.96875,0.59375 1.28125,0 2.28125,-0.5625 1,-0.5625 1.48438,-1.53125 0.34375,-0.75 0.34375,-2.23437 z m 5.61755,11.65625 -0.25,-2.09375 q 0.71875,0.20312 1.26563,0.20312 0.75,0 1.1875,-0.25 0.45312,-0.25 0.73437,-0.70312 0.20313,-0.32813 0.67188,-1.65625 0.0625,-0.17188 0.20312,-0.53125 l -4.98437,-13.17187 h 2.40625 l 2.73437,7.60937 q 0.53125,1.45312 0.95313,3.04687 0.375,-1.53125 0.90625,-3 l 2.8125,-7.65624 h 2.21875 l -5,13.35937 q -0.79688,2.17187 -1.23438,2.98437 -0.59375,1.09375 -1.375,1.60938 -0.76562,0.51562 -1.82812,0.51562 -0.64063,0 -1.42188,-0.26562 z m 21.84166,-5.0625 h -2.0625 v -18.125 h 2.23438 v 6.46875 q 1.40625,-1.78125 3.59375,-1.78125 1.20312,0 2.28125,0.5 1.09375,0.48438 1.78125,1.375 0.70312,0.875 1.09375,2.125 0.40625,1.25 0.40625,2.67187 0,3.375 -1.67188,5.21875 -1.67187,1.84375 -4,1.84375 -2.32812,0 -3.65625,-1.9375 z m -0.0156,-6.67188 q 0,2.375 0.64062,3.42188 1.04688,1.71875 2.84375,1.71875 1.45313,0 2.51563,-1.26563 1.0625,-1.26562 1.0625,-3.78125 0,-2.57812 -1.01563,-3.79687 -1.01562,-1.21875 -2.46875,-1.21875 -1.45312,0 -2.51562,1.26563 -1.0625,1.26562 -1.0625,3.65624 z m 11.22692,0.10938 q 0,-3.65625 2.03125,-5.40625 1.6875,-1.46875 4.125,-1.46875 2.70313,0 4.42188,1.78125 1.71875,1.78125 1.71875,4.90625 0,2.53125 -0.76563,3.98437 -0.75,1.45313 -2.20312,2.26563 -1.45313,0.79687 -3.17188,0.79687 -2.76562,0 -4.46875,-1.76562 -1.6875,-1.76563 -1.6875,-5.09375 z m 2.28125,0 q 0,2.51562 1.09375,3.78125 1.10938,1.25 2.78125,1.25 1.65625,0 2.75,-1.26563 1.10938,-1.26562 1.10938,-3.84375 0,-2.43749 -1.10938,-3.68749 -1.10937,-1.26563 -2.75,-1.26563 -1.67187,0 -2.78125,1.25 -1.09375,1.25 -1.09375,3.78125 z m 11.14881,6.5625 4.79687,-6.82813 -4.4375,-6.31249 h 2.78125 l 2.01563,3.09375 q 0.5625,0.875 0.92187,1.46875 0.53125,-0.82813 1,-1.45313 l 2.20313,-3.10937 h 2.65625 l -4.53125,6.18749 4.89062,6.95313 h -2.73437 l -2.70313,-4.07813 -0.71875,-1.10937 -3.45312,5.1875 z m 23.13281,-4.23438 2.29688,0.29688 q -0.53125,2.01562 -2.01563,3.125 -1.46875,1.10937 -3.75,1.10937 -2.89062,0 -4.57812,-1.76562 -1.6875,-1.78125 -1.6875,-4.98438 0,-3.31249 1.70312,-5.14062 1.71875,-1.84375 4.4375,-1.84375 2.64063,0 4.29688,1.79688 1.67187,1.79687 1.67187,5.04687 0,0.20312 -0.0156,0.59375 h -9.78125 q 0.10937,2.17187 1.20312,3.32812 1.10938,1.14063 2.76563,1.14063 1.21875,0 2.07812,-0.64063 0.875,-0.64062 1.375,-2.0625 z m -7.3125,-3.59375 h 7.34375 q -0.15625,-1.65624 -0.84375,-2.48437 -1.0625,-1.28125 -2.75,-1.28125 -1.54687,0 -2.59375,1.03125 -1.03125,1.01563 -1.15625,2.73437 z m 11.5238,3.90625 2.20313,-0.34375 q 0.1875,1.32813 1.03125,2.03125 0.84375,0.70313 2.35937,0.70313 1.54688,0 2.28125,-0.625 0.75,-0.625 0.75,-1.46875 0,-0.75 -0.65625,-1.1875 -0.46875,-0.29688 -2.28125,-0.75 -2.45312,-0.625 -3.40625,-1.07813 -0.9375,-0.45312 -1.42187,-1.25 -0.48438,-0.79687 -0.48438,-1.74999 0,-0.89063 0.39063,-1.625 0.40625,-0.75 1.09375,-1.25 0.53125,-0.39063 1.42187,-0.65625 0.89063,-0.26563 1.92188,-0.26563 1.54687,0 2.71875,0.45313 1.17187,0.4375 1.71875,1.20312 0.5625,0.76563 0.76562,2.03125 l -2.17187,0.29688 q -0.14063,-1.01563 -0.85938,-1.57813 -0.71875,-0.5625 -2.01562,-0.5625 -1.53125,0 -2.1875,0.5 -0.65625,0.5 -0.65625,1.1875 0,0.4375 0.28125,0.78125 0.26562,0.35938 0.84375,0.59375 0.34375,0.125 1.96875,0.5625 2.35937,0.64062 3.29687,1.04687 0.9375,0.39063 1.46875,1.15625 0.53125,0.76563 0.53125,1.90625 0,1.10938 -0.65625,2.09375 -0.64062,0.98438 -1.875,1.53125 -1.21875,0.53125 -2.76562,0.53125 -2.5625,0 -3.90625,-1.0625 -1.32813,-1.0625 -1.70313,-3.15625 z"
       fill-rule="nonzero"
       id="path2952" />
    <path
       fill="#cfe2f3"
       d="M 16.648294,176.3084 H 363.17059 v 54.4252 H 16.648294 Z"
       fill-rule="evenodd"
       id="path2954" />
    <path
       stroke="#000000"
       stroke-width="1"
       stroke-linejoin="round"
       stroke-linecap="butt"
       d="M 16.648294,176.3084 H 363.17059 v 54.4252 H 16.648294 Z"
       fill-rule="evenodd"
       id="path2956" />
    <path
       fill="#000000"
       d="m 60.114037,213.121 h -2.171875 v -19.07813 h 2.34375 v 6.79688 q 1.484375,-1.85938 3.78125,-1.85938 1.28125,0 2.40625,0.51563 1.140625,0.51562 1.875,1.45312 0.75,0.92188 1.15625,2.25 0.421875,1.3125 0.421875,2.79688 0,3.5625 -1.765625,5.5 -1.75,1.9375 -4.21875,1.9375 -2.4375,0 -3.828125,-2.04688 z m -0.03125,-7.01563 q 0,2.48438 0.671875,3.59375 1.109375,1.8125 3,1.8125 1.53125,0 2.65625,-1.32812 1.125,-1.34375 1.125,-3.98438 0,-2.70312 -1.078125,-3.98437 -1.078125,-1.29688 -2.59375,-1.29688 -1.546875,0 -2.671875,1.32813 -1.109375,1.32812 -1.109375,3.85937 z m 11.824936,0.10938 q 0,-3.84375 2.125,-5.6875 1.78125,-1.54688 4.34375,-1.54688 2.859375,0 4.65625,1.875 1.8125,1.85938 1.8125,5.15625 0,2.67188 -0.796875,4.20313 -0.796875,1.53125 -2.328125,2.375 -1.53125,0.84375 -3.34375,0.84375 -2.890625,0 -4.6875,-1.85938 -1.78125,-1.85937 -1.78125,-5.35937 z m 2.40625,0 q 0,2.65625 1.15625,3.98437 1.15625,1.3125 2.90625,1.3125 1.75,0 2.90625,-1.32812 1.15625,-1.32813 1.15625,-4.04688 0,-2.5625 -1.171875,-3.89062 -1.15625,-1.32813 -2.890625,-1.32813 -1.75,0 -2.90625,1.32813 -1.15625,1.3125 -1.15625,3.96875 z m 11.715561,6.90625 5.0625,-7.1875 -4.671875,-6.64063 h 2.921875 l 2.125,3.25 q 0.59375,0.92188 0.96875,1.54688 0.5625,-0.85938 1.046875,-1.53125 l 2.328125,-3.26563 h 2.796875 l -4.78125,6.51563 5.15625,7.3125 h -2.890625 l -2.828125,-4.29688 -0.75,-1.15625 -3.640625,5.45313 z m 24.359376,-4.45313 2.42187,0.29688 q -0.57812,2.125 -2.125,3.29687 -1.54687,1.17188 -3.95312,1.17188 -3.03125,0 -4.8125,-1.85938 -1.78125,-1.875 -1.78125,-5.25 0,-3.48437 1.79687,-5.40625 1.79688,-1.9375 4.67188,-1.9375 2.76562,0 4.51562,1.89063 1.76563,1.89062 1.76563,5.3125 0,0.20312 -0.0156,0.625 h -10.3125 q 0.14063,2.28125 1.29688,3.5 1.15625,1.20312 2.89062,1.20312 1.28125,0 2.1875,-0.67187 0.92188,-0.6875 1.45313,-2.17188 z m -7.6875,-3.78125 h 7.71875 q -0.15625,-1.75 -0.89063,-2.625 -1.125,-1.34375 -2.90625,-1.34375 -1.60937,0 -2.71875,1.07813 -1.09375,1.07812 -1.20312,2.89062 z m 12.10618,4.10938 2.32813,-0.35938 q 0.1875,1.39063 1.07812,2.14063 0.89063,0.73437 2.5,0.73437 1.60938,0 2.39063,-0.65625 0.78125,-0.65625 0.78125,-1.54687 0,-0.79688 -0.6875,-1.25 -0.48438,-0.3125 -2.39063,-0.79688 -2.57812,-0.65625 -3.57812,-1.125 -1,-0.46875 -1.51563,-1.3125 -0.51562,-0.84375 -0.51562,-1.85937 0,-0.92188 0.42187,-1.70313 0.4375,-0.79687 1.15625,-1.3125 0.54688,-0.40625 1.48438,-0.6875 0.95312,-0.28125 2.03125,-0.28125 1.625,0 2.85937,0.46875 1.23438,0.46875 1.8125,1.28125 0.59375,0.79688 0.8125,2.14063 l -2.29687,0.3125 q -0.15625,-1.07813 -0.90625,-1.67188 -0.75,-0.59375 -2.10938,-0.59375 -1.60937,0 -2.3125,0.53125 -0.6875,0.53125 -0.6875,1.25 0,0.45313 0.29688,0.8125 0.28125,0.375 0.89062,0.625 0.35938,0.14063 2.07813,0.60938 2.48437,0.65625 3.46875,1.07812 0.98437,0.42188 1.53125,1.23438 0.5625,0.79687 0.5625,2 0,1.17187 -0.6875,2.21875 -0.67188,1.03125 -1.96875,1.59375 -1.28125,0.5625 -2.90625,0.5625 -2.70313,0 -4.125,-1.10938 -1.40625,-1.125 -1.79688,-3.32812 z m 33.99972,-7.09375 h -12.59375 v -2.1875 h 12.59375 z m 0,5.79687 h -12.59375 v -2.1875 h 12.59375 z m 10.70717,10.71875 v -24.375 h 5.15625 v 1.9375 h -2.8125 v 20.5 h 2.8125 v 1.9375 z m 9.18721,-21.17187 v 2.71875 h -2.51562 v -2.15625 q 0,-1.73438 0.42187,-2.51563 0.54688,-1.04687 1.73438,-1.57812 l 0.5625,0.90625 q -0.71875,0.29687 -1.0625,0.89062 -0.32813,0.59375 -0.35938,1.73438 z m 4.03125,0 v 2.71875 h -2.51562 v -2.15625 q 0,-1.73438 0.42187,-2.51563 0.54688,-1.04687 1.73438,-1.57812 l 0.5625,0.90625 q -0.70313,0.29687 -1.04688,0.89062 -0.34375,0.59375 -0.375,1.73438 z m 8.12674,13.78125 0.32813,2.0625 q -0.98438,0.21875 -1.76563,0.21875 -1.26562,0 -1.96875,-0.40625 -0.70312,-0.40625 -1,-1.0625 -0.28125,-0.65625 -0.28125,-2.76563 V 201.121 h -1.71875 v -1.82813 h 1.71875 V 195.871 l 2.32813,-1.40625 v 4.82812 h 2.35937 v 1.82813 h -2.35937 v 8.07812 q 0,1 0.125,1.29688 0.125,0.28125 0.40625,0.45312 0.28125,0.17188 0.79687,0.17188 0.39063,0 1.03125,-0.0937 z m 11.74971,-2.35938 2.42188,0.29688 q -0.57813,2.125 -2.125,3.29687 -1.54688,1.17188 -3.95313,1.17188 -3.03125,0 -4.8125,-1.85938 -1.78125,-1.875 -1.78125,-5.25 0,-3.48437 1.79688,-5.40625 1.79687,-1.9375 4.67187,-1.9375 2.76563,0 4.51563,1.89063 1.76562,1.89062 1.76562,5.3125 0,0.20312 -0.0156,0.625 h -10.3125 q 0.14062,2.28125 1.29687,3.5 1.15625,1.20312 2.89063,1.20312 1.28125,0 2.1875,-0.67187 0.92187,-0.6875 1.45312,-2.17188 z m -7.6875,-3.78125 h 7.71875 q -0.15625,-1.75 -0.89062,-2.625 -1.125,-1.34375 -2.90625,-1.34375 -1.60938,0 -2.71875,1.07813 -1.09375,1.07812 -1.20313,2.89062 z m 11.48119,8.23438 5.0625,-7.1875 -4.67188,-6.64063 h 2.92188 l 2.125,3.25 q 0.59375,0.92188 0.96875,1.54688 0.5625,-0.85938 1.04687,-1.53125 l 2.32813,-3.26563 h 2.79687 l -4.78125,6.51563 5.15625,7.3125 h -2.89062 l -2.82813,-4.29688 -0.75,-1.15625 -3.64062,5.45313 z m 20.01562,-2.09375 0.32813,2.0625 q -0.98438,0.21875 -1.76563,0.21875 -1.26562,0 -1.96875,-0.40625 -0.70312,-0.40625 -1,-1.0625 -0.28125,-0.65625 -0.28125,-2.76563 V 201.121 h -1.71875 v -1.82813 h 1.71875 V 195.871 l 2.32813,-1.40625 v 4.82812 h 2.35937 v 1.82813 h -2.35937 v 8.07812 q 0,1 0.125,1.29688 0.125,0.28125 0.40625,0.45312 0.28125,0.17188 0.79687,0.17188 0.39063,0 1.03125,-0.0937 z m 1.65596,-14.46875 v -2.71875 h 2.51563 v 2.15625 q 0,1.73437 -0.40625,2.51562 -0.54688,1.04688 -1.73438,1.57813 l -0.57812,-0.92188 q 0.70312,-0.28125 1.04687,-0.89062 0.34375,-0.625 0.39063,-1.71875 z m 4.04688,0 v -2.71875 h 2.5 v 2.15625 q 0,1.73437 -0.39063,2.51562 -0.5625,1.04688 -1.75,1.57813 l -0.57812,-0.92188 q 0.70312,-0.28125 1.04687,-0.89062 0.35938,-0.625 0.39063,-1.71875 z m 6.07986,16.5625 v -2.67188 h 2.65625 v 2.67188 q 0,1.46875 -0.51562,2.375 -0.51563,0.90625 -1.65625,1.40625 l -0.64063,-1.01563 q 0.73438,-0.3125 1.07813,-0.95312 0.35937,-0.625 0.40625,-1.8125 z m 11.90596,-2.09375 0.32813,2.0625 q -0.98438,0.21875 -1.76563,0.21875 -1.26562,0 -1.96875,-0.40625 -0.70312,-0.40625 -1,-1.0625 -0.28125,-0.65625 -0.28125,-2.76563 V 201.121 h -1.71875 v -1.82813 h 1.71875 V 195.871 l 2.32813,-1.40625 v 4.82812 h 2.35937 v 1.82813 h -2.35937 v 8.07812 q 0,1 0.125,1.29688 0.125,0.28125 0.40625,0.45312 0.28125,0.17188 0.79687,0.17188 0.39063,0 1.03125,-0.0937 z m 2.26534,2.09375 v -13.82813 h 2.10937 v 2.09375 q 0.79688,-1.46875 1.48438,-1.9375 0.6875,-0.46875 1.5,-0.46875 1.1875,0 2.40625,0.76563 l -0.79688,2.17187 q -0.85937,-0.51562 -1.71875,-0.51562 -0.76562,0 -1.39062,0.46875 -0.60938,0.45312 -0.85938,1.28125 -0.39062,1.25 -0.39062,2.73437 v 7.23438 z m 17.95485,0 v -2.03125 q -1.60938,2.34375 -4.37499,2.34375 -1.23437,0 -2.29687,-0.46875 -1.0625,-0.46875 -1.57813,-1.17188 -0.5,-0.71875 -0.71875,-1.75 -0.14062,-0.6875 -0.14062,-2.1875 v -8.5625 h 2.34375 v 7.67188 q 0,1.82812 0.14062,2.46875 0.21875,0.92187 0.9375,1.45312 0.71875,0.53125 1.76561,0.53125 1.0625,0 1.98438,-0.53125 0.92187,-0.54687 1.29687,-1.46875 0.39063,-0.9375 0.39063,-2.71875 v -7.40625 h 2.34375 V 213.121 Z m 15.2312,-4.45313 2.42187,0.29688 q -0.57812,2.125 -2.125,3.29687 -1.54687,1.17188 -3.95312,1.17188 -3.03125,0 -4.8125,-1.85938 -1.78125,-1.875 -1.78125,-5.25 0,-3.48437 1.79687,-5.40625 1.79688,-1.9375 4.67188,-1.9375 2.76562,0 4.51562,1.89063 1.76563,1.89062 1.76563,5.3125 0,0.20312 -0.0156,0.625 h -10.3125 q 0.14063,2.28125 1.29688,3.5 1.15625,1.20312 2.89062,1.20312 1.28125,0 2.1875,-0.67187 0.92188,-0.6875 1.45313,-2.17188 z m -7.6875,-3.78125 H 275.59 q -0.15625,-1.75 -0.89063,-2.625 -1.125,-1.34375 -2.90625,-1.34375 -1.60937,0 -2.71875,1.07813 -1.09375,1.07812 -1.20312,2.89062 z m 13.66867,8.23438 v -2.67188 h 2.65625 v 2.67188 q 0,1.46875 -0.51563,2.375 -0.51562,0.90625 -1.65625,1.40625 l -0.64062,-1.01563 q 0.73437,-0.3125 1.07812,-0.95312 0.35938,-0.625 0.40625,-1.8125 z m 6.15597,-5.03125 2.34375,-0.3125 q 0.39063,1.98437 1.35938,2.875 0.98437,0.875 2.375,0.875 1.64062,0 2.78125,-1.14063 1.14062,-1.15625 1.14062,-2.84375 0,-1.625 -1.0625,-2.67187 -1.04687,-1.04688 -2.67187,-1.04688 -0.65625,0 -1.65625,0.26563 l 0.26562,-2.0625 q 0.23438,0.0312 0.375,0.0312 1.5,0 2.6875,-0.78125 1.20313,-0.78125 1.20313,-2.40625 0,-1.29688 -0.875,-2.14063 -0.85938,-0.84375 -2.25,-0.84375 -1.35938,0 -2.28125,0.85938 -0.90625,0.85937 -1.15625,2.57812 l -2.34375,-0.42187 q 0.42187,-2.34375 1.9375,-3.64063 1.53125,-1.29687 3.79687,-1.29687 1.5625,0 2.875,0.67187 1.3125,0.67188 2,1.82813 0.70313,1.15625 0.70313,2.45312 0,1.23438 -0.67188,2.25 -0.65625,1.01563 -1.95312,1.625 1.6875,0.39063 2.625,1.625 0.9375,1.21875 0.9375,3.0625 0,2.5 -1.82813,4.25 -1.8125,1.73438 -4.59375,1.73438 -2.51562,0 -4.17187,-1.5 -1.65625,-1.5 -1.89063,-3.875 z m 15.15305,0.625 2.25,-0.21875 q 0.29688,1.59375 1.09375,2.3125 0.8125,0.71875 2.07813,0.71875 1.07812,0 1.89062,-0.5 0.8125,-0.5 1.32813,-1.32813 0.53125,-0.82812 0.875,-2.21875 0.35937,-1.40625 0.35937,-2.875 0,-0.15625 -0.0156,-0.46875 -0.70313,1.125 -1.92188,1.82813 -1.21875,0.6875 -2.64062,0.6875 -2.35938,0 -4,-1.71875 -1.64063,-1.71875 -1.64063,-4.53125 0,-2.90625 1.70313,-4.67188 1.71875,-1.76562 4.29687,-1.76562 1.85938,0 3.39063,1 1.54687,1 2.34375,2.85937 0.8125,1.85938 0.8125,5.35938 0,3.65625 -0.79688,5.82812 -0.79687,2.17188 -2.375,3.3125 -1.5625,1.125 -3.67187,1.125 -2.23438,0 -3.65625,-1.23437 -1.40625,-1.25 -1.70313,-3.5 z m 9.59375,-8.42188 q 0,-2.01562 -1.07812,-3.20312 -1.0625,-1.1875 -2.57813,-1.1875 -1.5625,0 -2.71875,1.28125 -1.15625,1.26562 -1.15625,3.29687 0,1.82813 1.09375,2.96875 1.10938,1.14063 2.71875,1.14063 1.625,0 2.67188,-1.14063 1.04687,-1.14062 1.04687,-3.15625 z m 9.44992,18.125 h -5.17187 v -1.9375 h 2.82812 v -20.5 h -2.82812 v -1.9375 h 5.17187 z"
       fill-rule="nonzero"
       id="path2958" />
    <path
       fill="#000000"
       fill-opacity="0"
       d="M 189.90636,69.0948 V 96.02393"
       fill-rule="evenodd"
       id="path2960" />
    <path
       stroke="#000000"
       stroke-width="1"
       stroke-linejoin="round"
       stroke-linecap="butt"
       d="M 189.90636,69.0948 V 90.023938"
       fill-rule="evenodd"
       id="path2962" />
    <path
       fill="#000000"
       stroke="#000000"
       stroke-width="1"
       stroke-linecap="butt"
       d="m 188.25462,90.02394 1.65173,4.538094 1.65174,-4.538094 z"
       fill-rule="evenodd"
       id="path2964" />
    <path
       fill="#000000"
       fill-opacity="0"
       d="m 189.90683,150.45407 v 25.85826"
       fill-rule="evenodd"
       id="path2966" />
    <path
       stroke="#000000"
       stroke-width="1"
       stroke-linejoin="round"
       stroke-linecap="butt"
       d="m 189.90683,150.45407 v 19.85826"
       fill-rule="evenodd"
       id="path2968" />
    <path
       fill="#000000"
       stroke="#000000"
       stroke-width="1"
       stroke-linecap="butt"
       d="m 188.2551,170.31233 1.65173,4.5381 1.65174,-4.5381 z"
       fill-rule="evenodd"
       id="path2970" />
    <path
       fill="#cfe2f3"
       d="M 16.648294,344.26318 H 363.17059 v 43.37009 H 16.648294 Z"
       fill-rule="evenodd"
       id="path2972" />
    <path
       stroke="#000000"
       stroke-width="1"
       stroke-linejoin="round"
       stroke-linecap="butt"
       d="M 16.648294,344.26318 H 363.17059 v 43.37009 H 16.648294 Z"
       fill-rule="evenodd"
       id="path2974" />
    <path
       fill="#000000"
       d="m 76.24845,371.42325 2.328125,-0.35938 q 0.1875,1.39063 1.078125,2.14063 0.890625,0.73437 2.5,0.73437 1.609375,0 2.390625,-0.65625 0.78125,-0.65625 0.78125,-1.54687 0,-0.79688 -0.6875,-1.25 -0.484375,-0.3125 -2.390625,-0.79688 -2.578125,-0.65625 -3.578125,-1.125 -1,-0.46875 -1.515625,-1.3125 -0.515625,-0.84375 -0.515625,-1.85937 0,-0.92188 0.421875,-1.70313 0.4375,-0.79687 1.15625,-1.3125 0.546875,-0.40625 1.484375,-0.6875 0.953125,-0.28125 2.03125,-0.28125 1.625,0 2.859375,0.46875 1.234375,0.46875 1.8125,1.28125 0.59375,0.79688 0.8125,2.14063 l -2.296875,0.3125 q -0.15625,-1.07813 -0.90625,-1.67188 -0.75,-0.59375 -2.109375,-0.59375 -1.609375,0 -2.3125,0.53125 -0.6875,0.53125 -0.6875,1.25 0,0.45313 0.296875,0.8125 0.28125,0.375 0.890625,0.625 0.359375,0.14063 2.078125,0.60938 2.484375,0.65625 3.46875,1.07812 0.984375,0.42188 1.53125,1.23438 0.5625,0.79687 0.5625,2 0,1.17187 -0.6875,2.21875 -0.671875,1.03125 -1.96875,1.59375 -1.28125,0.5625 -2.90625,0.5625 -2.703125,0 -4.125,-1.10938 -1.40625,-1.125 -1.796875,-3.32812 z M 90.5297,359.15762 v -2.6875 h 2.34375 v 2.6875 z m 0,16.39063 v -13.82813 h 2.34375 v 13.82813 z m 4.672165,0 V 373.642 l 8.796875,-10.09375 q -1.48438,0.0781 -2.64063,0.0781 h -5.624995 v -1.90625 h 11.296875 v 1.54688 l -7.484375,8.78125 -1.453125,1.59375 q 1.578125,-0.10938 2.95312,-0.10938 h 6.39063 v 2.01563 z m 24.031245,-4.45313 2.42188,0.29688 q -0.57813,2.125 -2.125,3.29687 -1.54688,1.17188 -3.95313,1.17188 -3.03125,0 -4.8125,-1.85938 -1.78125,-1.875 -1.78125,-5.25 0,-3.48437 1.79688,-5.40625 1.79687,-1.9375 4.67187,-1.9375 2.76563,0 4.51563,1.89063 1.76562,1.89062 1.76562,5.3125 0,0.20312 -0.0156,0.625 h -10.3125 q 0.14062,2.28125 1.29687,3.5 1.15625,1.20312 2.89063,1.20312 1.28125,0 2.1875,-0.67187 0.92187,-0.6875 1.45312,-2.17188 z m -7.6875,-3.78125 h 7.71875 q -0.15625,-1.75 -0.89062,-2.625 -1.125,-1.34375 -2.90625,-1.34375 -1.60938,0 -2.71875,1.07813 -1.09375,1.07812 -1.20313,2.89062 z m 32.77778,-2.98437 h -12.59375 v -2.1875 h 12.59375 z m 0,5.79687 h -12.59375 v -2.1875 h 12.59375 z m 12.81655,5.42188 h -2.17188 v -19.07813 h 2.34375 v 6.79688 q 1.48438,-1.85938 3.78125,-1.85938 1.28125,0 2.40625,0.51563 1.14063,0.51562 1.875,1.45312 0.75,0.92188 1.15625,2.25 0.42188,1.3125 0.42188,2.79688 0,3.5625 -1.76563,5.5 -1.75,1.9375 -4.21875,1.9375 -2.4375,0 -3.82812,-2.04688 z m -0.0312,-7.01563 q 0,2.48438 0.67187,3.59375 1.10938,1.8125 3,1.8125 1.53125,0 2.65625,-1.32812 1.125,-1.34375 1.125,-3.98438 0,-2.70312 -1.07812,-3.98437 -1.07813,-1.29688 -2.59375,-1.29688 -1.54688,0 -2.67188,1.32813 -1.10937,1.32812 -1.10937,3.85937 z m 11.82493,0.10938 q 0,-3.84375 2.125,-5.6875 1.78125,-1.54688 4.34375,-1.54688 2.85938,0 4.65625,1.875 1.8125,1.85938 1.8125,5.15625 0,2.67188 -0.79687,4.20313 -0.79688,1.53125 -2.32813,2.375 -1.53125,0.84375 -3.34375,0.84375 -2.89062,0 -4.6875,-1.85938 -1.78125,-1.85937 -1.78125,-5.35937 z m 2.40625,0 q 0,2.65625 1.15625,3.98437 1.15625,1.3125 2.90625,1.3125 1.75,0 2.90625,-1.32812 1.15625,-1.32813 1.15625,-4.04688 0,-2.5625 -1.17187,-3.89062 -1.15625,-1.32813 -2.89063,-1.32813 -1.75,0 -2.90625,1.32813 -1.15625,1.3125 -1.15625,3.96875 z m 11.71557,6.90625 5.0625,-7.1875 -4.67188,-6.64063 h 2.92188 l 2.125,3.25 q 0.59375,0.92188 0.96875,1.54688 0.5625,-0.85938 1.04687,-1.53125 l 2.32813,-3.26563 h 2.79687 l -4.78125,6.51563 5.15625,7.3125 h -2.89062 l -2.82813,-4.29688 -0.75,-1.15625 -3.64062,5.45313 z m 24.35937,-4.45313 2.42188,0.29688 q -0.57813,2.125 -2.125,3.29687 -1.54688,1.17188 -3.95313,1.17188 -3.03125,0 -4.8125,-1.85938 -1.78125,-1.875 -1.78125,-5.25 0,-3.48437 1.79688,-5.40625 1.79687,-1.9375 4.67187,-1.9375 2.76563,0 4.51563,1.89063 1.76562,1.89062 1.76562,5.3125 0,0.20312 -0.0156,0.625 h -10.3125 q 0.14062,2.28125 1.29687,3.5 1.15625,1.20312 2.89063,1.20312 1.28125,0 2.1875,-0.67187 0.92187,-0.6875 1.45312,-2.17188 z m -7.6875,-3.78125 h 7.71875 q -0.15625,-1.75 -0.89062,-2.625 -1.125,-1.34375 -2.90625,-1.34375 -1.60938,0 -2.71875,1.07813 -1.09375,1.07812 -1.20313,2.89062 z m 12.10619,4.10938 2.32812,-0.35938 q 0.1875,1.39063 1.07813,2.14063 0.89062,0.73437 2.5,0.73437 1.60937,0 2.39062,-0.65625 0.78125,-0.65625 0.78125,-1.54687 0,-0.79688 -0.6875,-1.25 -0.48437,-0.3125 -2.39062,-0.79688 -2.57813,-0.65625 -3.57813,-1.125 -1,-0.46875 -1.51562,-1.3125 -0.51563,-0.84375 -0.51563,-1.85937 0,-0.92188 0.42188,-1.70313 0.4375,-0.79687 1.15625,-1.3125 0.54687,-0.40625 1.48437,-0.6875 0.95313,-0.28125 2.03125,-0.28125 1.625,0 2.85938,0.46875 1.23437,0.46875 1.8125,1.28125 0.59375,0.79688 0.8125,2.14063 l -2.29688,0.3125 q -0.15625,-1.07813 -0.90625,-1.67188 -0.75,-0.59375 -2.10937,-0.59375 -1.60938,0 -2.3125,0.53125 -0.6875,0.53125 -0.6875,1.25 0,0.45313 0.29687,0.8125 0.28125,0.375 0.89063,0.625 0.35937,0.14063 2.07812,0.60938 2.48438,0.65625 3.46875,1.07812 0.98438,0.42188 1.53125,1.23438 0.5625,0.79687 0.5625,2 0,1.17187 -0.6875,2.21875 -0.67187,1.03125 -1.96875,1.59375 -1.28125,0.5625 -2.90625,0.5625 -2.70312,0 -4.125,-1.10938 -1.40625,-1.125 -1.79687,-3.32812 z m 14.9375,4.125 v -2.67188 h 2.67187 v 2.67188 z m 6.68721,0 v -19.07813 h 2.34375 v 19.07813 z m 15.43779,-4.45313 2.42187,0.29688 q -0.57812,2.125 -2.125,3.29687 -1.54687,1.17188 -3.95312,1.17188 -3.03125,0 -4.8125,-1.85938 -1.78125,-1.875 -1.78125,-5.25 0,-3.48437 1.79687,-5.40625 1.79688,-1.9375 4.67188,-1.9375 2.76562,0 4.51562,1.89063 1.76563,1.89062 1.76563,5.3125 0,0.20312 -0.0156,0.625 h -10.3125 q 0.14063,2.28125 1.29688,3.5 1.15625,1.20312 2.89062,1.20312 1.28125,0 2.1875,-0.67187 0.92188,-0.6875 1.45313,-2.17188 z m -7.6875,-3.78125 h 7.71875 q -0.15625,-1.75 -0.89063,-2.625 -1.125,-1.34375 -2.90625,-1.34375 -1.60937,0 -2.71875,1.07813 -1.09375,1.07812 -1.20312,2.89062 z m 13.04368,8.23438 v -13.82813 h 2.10936 v 1.96875 q 1.53125,-2.28125 4.40625,-2.28125 1.25,0 2.29688,0.45313 1.04687,0.45312 1.5625,1.1875 0.53125,0.71875 0.73437,1.71875 0.125,0.65625 0.125,2.28125 v 8.5 h -2.34375 V 367.142 q 0,-1.4375 -0.28125,-2.14063 -0.26562,-0.71875 -0.96875,-1.14062 -0.6875,-0.42188 -1.625,-0.42188 -1.48437,0 -2.57812,0.95313 -1.09375,0.95312 -1.09375,3.60937 v 7.54688 z m 14.40306,1.14062 2.28125,0.34375 q 0.14063,1.04688 0.79688,1.53125 0.85937,0.65625 2.375,0.65625 1.625,0 2.5,-0.65625 0.89062,-0.64062 1.20312,-1.8125 0.1875,-0.71875 0.17188,-3.01562 -1.53125,1.8125 -3.82813,1.8125 -2.84375,0 -4.40625,-2.04688 -1.5625,-2.0625 -1.5625,-4.9375 0,-1.98437 0.71875,-3.65625 0.71875,-1.67187 2.07813,-2.57812 1.35937,-0.92188 3.1875,-0.92188 2.45312,0 4.03125,1.98438 v -1.67188 h 2.17187 v 11.95313 q 0,3.23437 -0.65625,4.57812 -0.65625,1.34375 -2.09375,2.125 -1.42187,0.78125 -3.5,0.78125 -2.46875,0 -4,-1.10937 -1.51562,-1.10938 -1.46875,-3.35938 z m 1.9375,-8.29687 q 0,2.71875 1.07813,3.96875 1.07812,1.25 2.70312,1.25 1.625,0 2.71875,-1.23438 1.09375,-1.25 1.09375,-3.90625 0,-2.54687 -1.125,-3.82812 -1.125,-1.29688 -2.71875,-1.29688 -1.5625,0 -2.65625,1.28125 -1.09375,1.26563 -1.09375,3.76563 z m 18.4343,5.0625 0.32813,2.0625 q -0.98438,0.21875 -1.76563,0.21875 -1.26562,0 -1.96875,-0.40625 -0.70312,-0.40625 -1,-1.0625 -0.28125,-0.65625 -0.28125,-2.76563 v -7.95312 h -1.71875 v -1.82813 h 1.71875 v -3.42187 l 2.32813,-1.40625 v 4.82812 h 2.35937 v 1.82813 h -2.35937 v 8.07812 q 0,1 0.125,1.29688 0.125,0.28125 0.40625,0.45312 0.28125,0.17188 0.79687,0.17188 0.39063,0 1.03125,-0.0937 z m 2.28098,2.09375 v -19.07813 h 2.34375 v 6.84375 q 1.64062,-1.90625 4.14062,-1.90625 1.54688,0 2.67188,0.60938 1.14062,0.60937 1.625,1.67187 0.48437,1.0625 0.48437,3.09375 v 8.76563 h -2.34375 v -8.76563 q 0,-1.75 -0.76562,-2.54687 -0.75,-0.8125 -2.15625,-0.8125 -1.03125,0 -1.95313,0.54687 -0.92187,0.54688 -1.3125,1.46875 -0.39062,0.92188 -0.39062,2.54688 v 7.5625 z"
       fill-rule="nonzero"
       id="path2976" />
    <path
       fill="#000000"
       fill-opacity="0"
       d="m 189.90945,387.63327 v 29.51181"
       fill-rule="evenodd"
       id="path2978" />
    <path
       stroke="#000000"
       stroke-width="1"
       stroke-linejoin="round"
       stroke-linecap="butt"
       d="m 189.90945,387.63327 v 23.51181"
       fill-rule="evenodd"
       id="path2980" />
    <path
       fill="#000000"
       stroke="#000000"
       stroke-width="1"
       stroke-linecap="butt"
       d="m 188.25772,411.14508 1.65173,4.53812 1.65174,-4.53812 z"
       fill-rule="evenodd"
       id="path2982" />
    <path
       fill="#000000"
       fill-opacity="0"
       d="m 185.07275,511.36484 v 40.56693"
       fill-rule="evenodd"
       id="path2984" />
    <path
       stroke="#000000"
       stroke-width="1"
       stroke-linejoin="round"
       stroke-linecap="butt"
       d="m 185.07275,511.36484 v 34.56693"
       fill-rule="evenodd"
       id="path2986" />
    <path
       fill="#000000"
       stroke="#000000"
       stroke-width="1"
       stroke-linecap="butt"
       d="m 183.42102,545.93176 1.65173,4.53809 1.65174,-4.53809 z"
       fill-rule="evenodd"
       id="path2988" />
    <path
       fill="#000000"
       fill-opacity="0"
       d="M 417.82678,399.9147 H 771.54333 V 541.49737 H 417.82678 Z"
       fill-rule="evenodd"
       id="path2990" />
    <path
       stroke="#000000"
       stroke-width="1"
       stroke-linejoin="round"
       stroke-linecap="butt"
       stroke-dasharray="1, 3"
       d="M 417.82678,399.9147 H 771.54333 V 541.49737 H 417.82678 Z"
       fill-rule="evenodd"
       id="path2992" />
    <path
       fill="#000000"
       d="m 426.79553,464.30603 7.3125,-19.07812 h 2.73437 l 7.79688,19.07812 h -2.875 l -2.21875,-5.78125 h -7.98438 l -2.09375,5.78125 z m 5.5,-7.82812 h 6.46875 l -2,-5.29688 q -0.90625,-2.40625 -1.34375,-3.95312 -0.375,1.84375 -1.03125,3.64062 z m 14.62326,7.82812 v -12 h -2.0625 v -1.82812 h 2.0625 v -1.46875 q 0,-1.39063 0.25,-2.0625 0.34375,-0.92188 1.1875,-1.48438 0.85938,-0.5625 2.39063,-0.5625 0.98437,0 2.1875,0.23438 l -0.34375,2.04687 q -0.73438,-0.14062 -1.39063,-0.14062 -1.0625,0 -1.51562,0.46875 -0.4375,0.45312 -0.4375,1.70312 v 1.26563 h 2.70312 v 1.82812 h -2.70312 v 12 z m 6.92419,0 v -12 h -2.0625 v -1.82812 h 2.0625 v -1.46875 q 0,-1.39063 0.25,-2.0625 0.34375,-0.92188 1.1875,-1.48438 0.85938,-0.5625 2.39063,-0.5625 0.98437,0 2.1875,0.23438 l -0.34375,2.04687 q -0.73438,-0.14062 -1.39063,-0.14062 -1.0625,0 -1.51562,0.46875 -0.4375,0.45312 -0.4375,1.70312 v 1.26563 h 2.70312 v 1.82812 h -2.70312 v 12 z m 6.85907,-16.39062 v -2.6875 h 2.34375 v 2.6875 z m 0,16.39062 v -13.82812 h 2.34375 v 13.82812 z m 14.93781,-5.0625 2.29687,0.29688 q -0.375,2.39062 -1.9375,3.73437 -1.54687,1.34375 -3.8125,1.34375 -2.84375,0 -4.5625,-1.84375 -1.71875,-1.85937 -1.71875,-5.32812 0,-2.23438 0.73438,-3.90625 0.75,-1.6875 2.26562,-2.53125 1.51563,-0.84375 3.29688,-0.84375 2.25,0 3.67187,1.14062 1.4375,1.14063 1.84375,3.23438 l -2.28125,0.35937 q -0.32812,-1.39062 -1.15625,-2.09375 -0.8125,-0.70312 -1.98437,-0.70312 -1.78125,0 -2.89063,1.26562 -1.09375,1.26563 -1.09375,4.01563 0,2.78125 1.0625,4.04687 1.0625,1.26563 2.78125,1.26563 1.39063,0 2.3125,-0.84375 0.92188,-0.85938 1.17188,-2.60938 z m 4.29687,5.0625 v -19.07812 h 2.34375 v 6.84375 q 1.64063,-1.90625 4.14063,-1.90625 1.54687,0 2.67187,0.60937 1.14063,0.60938 1.625,1.67188 0.48438,1.0625 0.48438,3.09375 v 8.76562 h -2.34375 v -8.76562 q 0,-1.75 -0.76563,-2.54688 -0.75,-0.8125 -2.15625,-0.8125 -1.03125,0 -1.95312,0.54688 -0.92188,0.54687 -1.3125,1.46875 -0.39063,0.92187 -0.39063,2.54687 v 7.5625 z m 24.29367,-4.45312 2.42188,0.29687 q -0.57813,2.125 -2.125,3.29688 -1.54688,1.17187 -3.95313,1.17187 -3.03125,0 -4.8125,-1.85937 -1.78125,-1.875 -1.78125,-5.25 0,-3.48438 1.79688,-5.40625 1.79687,-1.9375 4.67187,-1.9375 2.76563,0 4.51563,1.89062 1.76562,1.89063 1.76562,5.3125 0,0.20313 -0.0156,0.625 h -10.3125 q 0.14062,2.28125 1.29687,3.5 1.15625,1.20313 2.89063,1.20313 1.28125,0 2.1875,-0.67188 0.92187,-0.6875 1.45312,-2.17187 z m -7.6875,-3.78125 h 7.71875 q -0.15625,-1.75 -0.89062,-2.625 -1.125,-1.34375 -2.90625,-1.34375 -1.60938,0 -2.71875,1.07812 -1.09375,1.07813 -1.20313,2.89063 z m 19.82465,3.20312 2.34375,-0.3125 q 0.39063,1.98438 1.35938,2.875 0.98437,0.875 2.375,0.875 1.64062,0 2.78125,-1.14062 1.14062,-1.15625 1.14062,-2.84375 0,-1.625 -1.0625,-2.67188 -1.04687,-1.04687 -2.67187,-1.04687 -0.65625,0 -1.65625,0.26562 l 0.26562,-2.0625 q 0.23438,0.0312 0.375,0.0312 1.5,0 2.6875,-0.78125 1.20313,-0.78125 1.20313,-2.40625 0,-1.29687 -0.875,-2.14062 -0.85938,-0.84375 -2.25,-0.84375 -1.35938,0 -2.28125,0.85937 -0.90625,0.85938 -1.15625,2.57813 l -2.34375,-0.42188 q 0.42187,-2.34375 1.9375,-3.64062 1.53125,-1.29688 3.79687,-1.29688 1.5625,0 2.875,0.67188 1.3125,0.67187 2,1.82812 0.70313,1.15625 0.70313,2.45313 0,1.23437 -0.67188,2.25 -0.65625,1.01562 -1.95312,1.625 1.6875,0.39062 2.625,1.625 0.9375,1.21875 0.9375,3.0625 0,2.5 -1.82813,4.25 -1.8125,1.73437 -4.59375,1.73437 -2.51562,0 -4.17187,-1.5 -1.65625,-1.5 -1.89063,-3.875 z m 27.34027,10.64063 q -1.9375,-2.45313 -3.28125,-5.71875 -1.34375,-3.28125 -1.34375,-6.79688 0,-3.10937 1,-5.9375 1.17188,-3.29687 3.625,-6.5625 h 1.67188 q -1.5625,2.70313 -2.07813,3.85938 -0.79687,1.79687 -1.25,3.75 -0.5625,2.4375 -0.5625,4.90625 0,6.25 3.89063,12.5 z m 4.3924,-5.60938 v -13.82812 h 2.10937 v 1.96875 q 1.53125,-2.28125 4.40625,-2.28125 1.25,0 2.29688,0.45312 1.04687,0.45313 1.5625,1.1875 0.53125,0.71875 0.73437,1.71875 0.125,0.65625 0.125,2.28125 v 8.5 h -2.34375 v -8.40625 q 0,-1.4375 -0.28125,-2.14062 -0.26562,-0.71875 -0.96875,-1.14063 -0.6875,-0.42187 -1.625,-0.42187 -1.48437,0 -2.57812,0.95312 -1.09375,0.95313 -1.09375,3.60938 v 7.54687 z m 13.96551,-6.90625 q 0,-3.84375 2.125,-5.6875 1.78125,-1.54687 4.34375,-1.54687 2.85938,0 4.65625,1.875 1.8125,1.85937 1.8125,5.15625 0,2.67187 -0.79687,4.20312 -0.79688,1.53125 -2.32813,2.375 -1.53125,0.84375 -3.34375,0.84375 -2.89062,0 -4.6875,-1.85937 -1.78125,-1.85938 -1.78125,-5.35938 z m 2.40625,0 q 0,2.65625 1.15625,3.98438 1.15625,1.3125 2.90625,1.3125 1.75,0 2.90625,-1.32813 1.15625,-1.32812 1.15625,-4.04687 0,-2.5625 -1.17187,-3.89063 -1.15625,-1.32812 -2.89063,-1.32812 -1.75,0 -2.90625,1.32812 -1.15625,1.3125 -1.15625,3.96875 z m 13.27808,6.90625 v -13.82812 h 2.10937 v 1.9375 q 0.64063,-1.01563 1.71875,-1.625 1.09375,-0.625 2.46875,-0.625 1.53125,0 2.51563,0.64062 0.98437,0.64063 1.39062,1.78125 1.64063,-2.42187 4.26563,-2.42187 2.0625,0 3.15625,1.14062 1.10937,1.14063 1.10937,3.51563 v 9.48437 h -2.32812 v -8.70312 q 0,-1.40625 -0.23438,-2.01563 -0.21875,-0.625 -0.82812,-1 -0.59375,-0.39062 -1.39063,-0.39062 -1.46875,0 -2.4375,0.96875 -0.95312,0.96875 -0.95312,3.10937 v 8.03125 h -2.34375 v -8.98437 q 0,-1.5625 -0.57813,-2.34375 -0.5625,-0.78125 -1.875,-0.78125 -0.98437,0 -1.82812,0.53125 -0.82813,0.51562 -1.21875,1.51562 -0.375,1 -0.375,2.89063 v 7.17187 z m 24.37677,0 h -2.17188 v -19.07812 h 2.34375 v 6.79687 q 1.48438,-1.85937 3.78125,-1.85937 1.28125,0 2.40625,0.51562 1.14063,0.51563 1.875,1.45313 0.75,0.92187 1.15625,2.25 0.42188,1.3125 0.42188,2.79687 0,3.5625 -1.76563,5.5 -1.75,1.9375 -4.21875,1.9375 -2.4375,0 -3.82812,-2.04687 z m -0.0312,-7.01562 q 0,2.48437 0.67187,3.59375 1.10938,1.8125 3,1.8125 1.53125,0 2.65625,-1.32813 1.125,-1.34375 1.125,-3.98437 0,-2.70313 -1.07812,-3.98438 -1.07813,-1.29687 -2.59375,-1.29687 -1.54688,0 -2.67188,1.32812 -1.10937,1.32813 -1.10937,3.85938 z m 12.66864,7.01562 v -13.82812 h 2.10937 v 2.09375 q 0.79688,-1.46875 1.48438,-1.9375 0.6875,-0.46875 1.5,-0.46875 1.1875,0 2.40625,0.76562 l -0.79688,2.17188 q -0.85937,-0.51563 -1.71875,-0.51563 -0.76562,0 -1.39062,0.46875 -0.60938,0.45313 -0.85938,1.28125 -0.39062,1.25 -0.39062,2.73438 v 7.23437 z m 18.36114,-4.45312 2.42188,0.29687 q -0.57813,2.125 -2.125,3.29688 -1.54688,1.17187 -3.95313,1.17187 -3.03125,0 -4.8125,-1.85937 -1.78125,-1.875 -1.78125,-5.25 0,-3.48438 1.79688,-5.40625 1.79687,-1.9375 4.67187,-1.9375 2.76563,0 4.51563,1.89062 1.76562,1.89063 1.76562,5.3125 0,0.20313 -0.0156,0.625 h -10.3125 q 0.14062,2.28125 1.29687,3.5 1.15625,1.20313 2.89063,1.20313 1.28125,0 2.1875,-0.67188 0.92187,-0.6875 1.45312,-2.17187 z m -7.6875,-3.78125 h 7.71875 q -0.15625,-1.75 -0.89062,-2.625 -1.125,-1.34375 -2.90625,-1.34375 -1.60938,0 -2.71875,1.07812 -1.09375,1.07813 -1.20313,2.89063 z"
       fill-rule="nonzero"
       id="path2994" />
    <path
       fill="#000000"
       d="m 437.54553,496.30603 v -1.75 q -1.3125,2.0625 -3.85938,2.0625 -1.65625,0 -3.04687,-0.90625 -1.375,-0.92187 -2.14063,-2.54687 -0.76562,-1.64063 -0.76562,-3.75 0,-2.07813 0.6875,-3.76563 0.70312,-1.6875 2.07812,-2.57812 1.375,-0.90625 3.07813,-0.90625 1.25,0 2.21875,0.53125 0.98437,0.53125 1.59375,1.375 v -6.84375 h 2.34375 v 19.07812 z m -7.40625,-6.89062 q 0,2.64062 1.125,3.96875 1.125,1.3125 2.64062,1.3125 1.53125,0 2.60938,-1.25 1.07812,-1.26563 1.07812,-3.84375 0,-2.84375 -1.09375,-4.17188 -1.09375,-1.32812 -2.70312,-1.32812 -1.54688,0 -2.60938,1.28125 -1.04687,1.28125 -1.04687,4.03125 z m 13.27805,-5.4375 -0.59375,-3.5625 v -3.1875 h 2.67187 v 3.1875 l -0.625,3.5625 z m 14.54229,7.875 2.42188,0.29687 q -0.57813,2.125 -2.125,3.29688 -1.54688,1.17187 -3.95313,1.17187 -3.03125,0 -4.8125,-1.85937 -1.78125,-1.875 -1.78125,-5.25 0,-3.48438 1.79688,-5.40625 1.79687,-1.9375 4.67187,-1.9375 2.76563,0 4.51563,1.89062 1.76562,1.89063 1.76562,5.3125 0,0.20313 -0.0156,0.625 h -10.3125 q 0.14062,2.28125 1.29687,3.5 1.15625,1.20313 2.89063,1.20313 1.28125,0 2.1875,-0.67188 0.92187,-0.6875 1.45312,-2.17187 z m -7.6875,-3.78125 h 7.71875 q -0.15625,-1.75 -0.89062,-2.625 -1.125,-1.34375 -2.90625,-1.34375 -1.60938,0 -2.71875,1.07812 -1.09375,1.07813 -1.20313,2.89063 z m 2.51563,-7.3125 1.73437,-3.64063 h 3.0625 l -2.85937,3.64063 z m 10.48117,15.54687 v -19.07812 h 2.34375 v 19.07812 z m 15.4378,-4.45312 2.42188,0.29687 q -0.57813,2.125 -2.125,3.29688 -1.54688,1.17187 -3.95313,1.17187 -3.03125,0 -4.8125,-1.85937 -1.78125,-1.875 -1.78125,-5.25 0,-3.48438 1.79688,-5.40625 1.79687,-1.9375 4.67187,-1.9375 2.76563,0 4.51563,1.89062 1.76562,1.89063 1.76562,5.3125 0,0.20313 -0.0156,0.625 h -10.3125 q 0.14062,2.28125 1.29687,3.5 1.15625,1.20313 2.89063,1.20313 1.28125,0 2.1875,-0.67188 0.92187,-0.6875 1.45312,-2.17187 z m -7.6875,-3.78125 h 7.71875 q -0.15625,-1.75 -0.89062,-2.625 -1.125,-1.34375 -2.90625,-1.34375 -1.60938,0 -2.71875,1.07812 -1.09375,1.07813 -1.20313,2.89063 z m 2.51563,-7.3125 1.73437,-3.64063 h 3.0625 l -2.85937,3.64063 z m 10.52805,15.54687 v -13.82812 h 2.10937 v 1.9375 q 0.64063,-1.01563 1.71875,-1.625 1.09375,-0.625 2.46875,-0.625 1.53125,0 2.51563,0.64062 0.98437,0.64063 1.39062,1.78125 1.64063,-2.42187 4.26563,-2.42187 2.0625,0 3.15625,1.14062 1.10937,1.14063 1.10937,3.51563 v 9.48437 h -2.32812 v -8.70312 q 0,-1.40625 -0.23438,-2.01563 -0.21875,-0.625 -0.82812,-1 -0.59375,-0.39062 -1.39063,-0.39062 -1.46875,0 -2.4375,0.96875 -0.95312,0.96875 -0.95312,3.10937 v 8.03125 h -2.34375 v -8.98437 q 0,-1.5625 -0.57813,-2.34375 -0.5625,-0.78125 -1.875,-0.78125 -0.98437,0 -1.82812,0.53125 -0.82813,0.51562 -1.21875,1.51562 -0.375,1 -0.375,2.89063 v 7.17187 z m 31.67361,-4.45312 2.42188,0.29687 q -0.57813,2.125 -2.125,3.29688 -1.54688,1.17187 -3.95313,1.17187 -3.03125,0 -4.8125,-1.85937 -1.78125,-1.875 -1.78125,-5.25 0,-3.48438 1.79688,-5.40625 1.79687,-1.9375 4.67187,-1.9375 2.76563,0 4.51563,1.89062 1.76562,1.89063 1.76562,5.3125 0,0.20313 -0.0156,0.625 h -10.3125 q 0.14062,2.28125 1.29687,3.5 1.15625,1.20313 2.89063,1.20313 1.28125,0 2.1875,-0.67188 0.92187,-0.6875 1.45312,-2.17187 z m -7.6875,-3.78125 h 7.71875 q -0.15625,-1.75 -0.89062,-2.625 -1.125,-1.34375 -2.90625,-1.34375 -1.60938,0 -2.71875,1.07812 -1.09375,1.07813 -1.20313,2.89063 z m 13.0437,8.23437 v -13.82812 h 2.10938 v 1.96875 q 1.53125,-2.28125 4.40625,-2.28125 1.25,0 2.29687,0.45312 1.04688,0.45313 1.5625,1.1875 0.53125,0.71875 0.73438,1.71875 0.125,0.65625 0.125,2.28125 v 8.5 h -2.34375 v -8.40625 q 0,-1.4375 -0.28125,-2.14062 -0.26563,-0.71875 -0.96875,-1.14063 -0.6875,-0.42187 -1.625,-0.42187 -1.48438,0 -2.57813,0.95312 -1.09375,0.95313 -1.09375,3.60938 v 7.54687 z m 19.94995,-2.09375 0.32813,2.0625 q -0.98438,0.21875 -1.76563,0.21875 -1.26562,0 -1.96875,-0.40625 -0.70312,-0.40625 -1,-1.0625 -0.28125,-0.65625 -0.28125,-2.76562 v -7.95313 h -1.71875 v -1.82812 h 1.71875 v -3.42188 l 2.32813,-1.40625 v 4.82813 h 2.35937 v 1.82812 h -2.35937 v 8.07813 q 0,1 0.125,1.29687 0.125,0.28125 0.40625,0.45313 0.28125,0.17187 0.79687,0.17187 0.39063,0 1.03125,-0.0937 z m 1.34345,-2.03125 2.32812,-0.35937 q 0.1875,1.39062 1.07813,2.14062 0.89062,0.73438 2.5,0.73438 1.60937,0 2.39062,-0.65625 0.78125,-0.65625 0.78125,-1.54688 0,-0.79687 -0.6875,-1.25 -0.48437,-0.3125 -2.39062,-0.79687 -2.57813,-0.65625 -3.57813,-1.125 -1,-0.46875 -1.51562,-1.3125 -0.51563,-0.84375 -0.51563,-1.85938 0,-0.92187 0.42188,-1.70312 0.4375,-0.79688 1.15625,-1.3125 0.54687,-0.40625 1.48437,-0.6875 0.95313,-0.28125 2.03125,-0.28125 1.625,0 2.85938,0.46875 1.23437,0.46875 1.8125,1.28125 0.59375,0.79687 0.8125,2.14062 l -2.29688,0.3125 q -0.15625,-1.07812 -0.90625,-1.67187 -0.75,-0.59375 -2.10937,-0.59375 -1.60938,0 -2.3125,0.53125 -0.6875,0.53125 -0.6875,1.25 0,0.45312 0.29687,0.8125 0.28125,0.375 0.89063,0.625 0.35937,0.14062 2.07812,0.60937 2.48438,0.65625 3.46875,1.07813 0.98438,0.42187 1.53125,1.23437 0.5625,0.79688 0.5625,2 0,1.17188 -0.6875,2.21875 -0.67187,1.03125 -1.96875,1.59375 -1.28125,0.5625 -2.90625,0.5625 -2.70312,0 -4.125,-1.10937 -1.40625,-1.125 -1.79687,-3.32813 z m 30.64032,4.125 v -1.75 q -1.3125,2.0625 -3.85938,2.0625 -1.65625,0 -3.04687,-0.90625 -1.375,-0.92187 -2.14063,-2.54687 -0.76562,-1.64063 -0.76562,-3.75 0,-2.07813 0.6875,-3.76563 0.70312,-1.6875 2.07812,-2.57812 1.375,-0.90625 3.07813,-0.90625 1.25,0 2.21875,0.53125 0.98437,0.53125 1.59375,1.375 v -6.84375 h 2.34375 v 19.07812 z m -7.40625,-6.89062 q 0,2.64062 1.125,3.96875 1.125,1.3125 2.64062,1.3125 1.53125,0 2.60938,-1.25 1.07812,-1.26563 1.07812,-3.84375 0,-2.84375 -1.09375,-4.17188 -1.09375,-1.32812 -2.70312,-1.32812 -1.54688,0 -2.60938,1.28125 -1.04687,1.28125 -1.04687,4.03125 z m 22.2937,5.1875 q -1.3125,1.10937 -2.51563,1.5625 -1.20312,0.45312 -2.57812,0.45312 -2.28125,0 -3.5,-1.10937 -1.21875,-1.10938 -1.21875,-2.84375 0,-1.01563 0.45312,-1.85938 0.46875,-0.84375 1.21875,-1.34375 0.75,-0.51562 1.6875,-0.76562 0.6875,-0.1875 2.07813,-0.35938 2.82812,-0.32812 4.17187,-0.79687 0.0156,-0.48438 0.0156,-0.625 0,-1.42188 -0.65625,-2.01563 -0.90625,-0.79687 -2.67188,-0.79687 -1.65625,0 -2.45312,0.59375 -0.78125,0.57812 -1.15625,2.04687 l -2.29688,-0.3125 q 0.3125,-1.46875 1.03125,-2.375 0.71875,-0.90625 2.0625,-1.39062 1.35938,-0.5 3.14063,-0.5 1.78125,0 2.875,0.42187 1.10937,0.42188 1.625,1.04688 0.53125,0.625 0.73437,1.59375 0.125,0.59375 0.125,2.15625 v 3.125 q 0,3.26562 0.14063,4.14062 0.15625,0.85938 0.59375,1.65625 h -2.4375 q -0.375,-0.73437 -0.46875,-1.70312 z m -0.20313,-5.23438 q -1.26562,0.51563 -3.82812,0.89063 -1.4375,0.20312 -2.04688,0.46875 -0.59375,0.25 -0.92187,0.75 -0.3125,0.5 -0.3125,1.125 0,0.9375 0.70312,1.5625 0.70313,0.625 2.07813,0.625 1.34375,0 2.39062,-0.59375 1.0625,-0.59375 1.5625,-1.625 0.375,-0.79688 0.375,-2.34375 z m 5.99683,6.9375 v -13.82812 h 2.10937 v 1.96875 q 1.53125,-2.28125 4.40625,-2.28125 1.25,0 2.29688,0.45312 1.04687,0.45313 1.5625,1.1875 0.53125,0.71875 0.73437,1.71875 0.125,0.65625 0.125,2.28125 v 8.5 h -2.34375 v -8.40625 q 0,-1.4375 -0.28125,-2.14062 -0.26562,-0.71875 -0.96875,-1.14063 -0.6875,-0.42187 -1.625,-0.42187 -1.48437,0 -2.57812,0.95312 -1.09375,0.95313 -1.09375,3.60938 v 7.54687 z m 13.88739,-4.125 2.32812,-0.35937 q 0.1875,1.39062 1.07813,2.14062 0.89062,0.73438 2.5,0.73438 1.60937,0 2.39062,-0.65625 0.78125,-0.65625 0.78125,-1.54688 0,-0.79687 -0.6875,-1.25 -0.48437,-0.3125 -2.39062,-0.79687 -2.57813,-0.65625 -3.57813,-1.125 -1,-0.46875 -1.51562,-1.3125 -0.51563,-0.84375 -0.51563,-1.85938 0,-0.92187 0.42188,-1.70312 0.4375,-0.79688 1.15625,-1.3125 0.54687,-0.40625 1.48437,-0.6875 0.95313,-0.28125 2.03125,-0.28125 1.625,0 2.85938,0.46875 1.23437,0.46875 1.8125,1.28125 0.59375,0.79687 0.8125,2.14062 l -2.29688,0.3125 q -0.15625,-1.07812 -0.90625,-1.67187 -0.75,-0.59375 -2.10937,-0.59375 -1.60938,0 -2.3125,0.53125 -0.6875,0.53125 -0.6875,1.25 0,0.45312 0.29687,0.8125 0.28125,0.375 0.89063,0.625 0.35937,0.14062 2.07812,0.60937 2.48438,0.65625 3.46875,1.07813 0.98438,0.42187 1.53125,1.23437 0.5625,0.79688 0.5625,2 0,1.17188 -0.6875,2.21875 -0.67187,1.03125 -1.96875,1.59375 -1.28125,0.5625 -2.90625,0.5625 -2.70312,0 -4.125,-1.10937 -1.40625,-1.125 -1.79687,-3.32813 z m 21.62475,4.125 v -19.07812 h 2.34375 v 19.07812 z m 15.43775,-4.45312 2.42187,0.29687 q -0.57812,2.125 -2.125,3.29688 -1.54687,1.17187 -3.95312,1.17187 -3.03125,0 -4.8125,-1.85937 -1.78125,-1.875 -1.78125,-5.25 0,-3.48438 1.79687,-5.40625 1.79688,-1.9375 4.67188,-1.9375 2.76562,0 4.51562,1.89062 1.76563,1.89063 1.76563,5.3125 0,0.20313 -0.0156,0.625 h -10.3125 q 0.14063,2.28125 1.29688,3.5 1.15625,1.20313 2.89062,1.20313 1.28125,0 2.1875,-0.67188 0.92188,-0.6875 1.45313,-2.17187 z m -7.6875,-3.78125 h 7.71875 q -0.15625,-1.75 -0.89063,-2.625 -1.125,-1.34375 -2.90625,-1.34375 -1.60937,0 -2.71875,1.07812 -1.09375,1.07813 -1.20312,2.89063 z m 25.57464,6.14062 0.32813,2.0625 q -0.98438,0.21875 -1.76563,0.21875 -1.26562,0 -1.96875,-0.40625 -0.70312,-0.40625 -1,-1.0625 -0.28125,-0.65625 -0.28125,-2.76562 v -7.95313 h -1.71875 v -1.82812 h 1.71875 v -3.42188 l 2.32813,-1.40625 v 4.82813 h 2.35937 v 1.82812 h -2.35937 v 8.07813 q 0,1 0.125,1.29687 0.125,0.28125 0.40625,0.45313 0.28125,0.17187 0.79687,0.17187 0.39063,0 1.03125,-0.0937 z m 11.31226,0.39063 q -1.3125,1.10937 -2.51562,1.5625 -1.20313,0.45312 -2.57813,0.45312 -2.28125,0 -3.5,-1.10937 -1.21875,-1.10938 -1.21875,-2.84375 0,-1.01563 0.45313,-1.85938 0.46875,-0.84375 1.21875,-1.34375 0.75,-0.51562 1.6875,-0.76562 0.6875,-0.1875 2.07812,-0.35938 2.82813,-0.32812 4.17188,-0.79687 0.0156,-0.48438 0.0156,-0.625 0,-1.42188 -0.65625,-2.01563 -0.90625,-0.79687 -2.67187,-0.79687 -1.65625,0 -2.45313,0.59375 -0.78125,0.57812 -1.15625,2.04687 l -2.29687,-0.3125 q 0.3125,-1.46875 1.03125,-2.375 0.71875,-0.90625 2.0625,-1.39062 1.35937,-0.5 3.14062,-0.5 1.78125,0 2.875,0.42187 1.10938,0.42188 1.625,1.04688 0.53125,0.625 0.73438,1.59375 0.125,0.59375 0.125,2.15625 v 3.125 q 0,3.26562 0.14062,4.14062 0.15625,0.85938 0.59375,1.65625 h -2.4375 q -0.375,-0.73437 -0.46875,-1.70312 z m -0.20312,-5.23438 q -1.26563,0.51563 -3.82813,0.89063 -1.4375,0.20312 -2.04687,0.46875 -0.59375,0.25 -0.92188,0.75 -0.3125,0.5 -0.3125,1.125 0,0.9375 0.70313,1.5625 0.70312,0.625 2.07812,0.625 1.34375,0 2.39063,-0.59375 1.0625,-0.59375 1.5625,-1.625 0.375,-0.79688 0.375,-2.34375 z m 8.16864,6.9375 h -2.17188 v -19.07812 h 2.34375 v 6.79687 q 1.48438,-1.85937 3.78125,-1.85937 1.28125,0 2.40625,0.51562 1.14063,0.51563 1.875,1.45313 0.75,0.92187 1.15625,2.25 0.42188,1.3125 0.42188,2.79687 0,3.5625 -1.76563,5.5 -1.75,1.9375 -4.21875,1.9375 -2.4375,0 -3.82812,-2.04687 z m -0.0312,-7.01562 q 0,2.48437 0.67187,3.59375 1.10938,1.8125 3,1.8125 1.53125,0 2.65625,-1.32813 1.125,-1.34375 1.125,-3.98437 0,-2.70313 -1.07812,-3.98438 -1.07813,-1.29687 -2.59375,-1.29687 -1.54688,0 -2.67188,1.32812 -1.10937,1.32813 -1.10937,3.85938 z m 12.63745,7.01562 v -19.07812 h 2.34375 v 19.07812 z m 15.4378,-4.45312 2.42188,0.29687 q -0.57813,2.125 -2.125,3.29688 -1.54688,1.17187 -3.95313,1.17187 -3.03125,0 -4.8125,-1.85937 -1.78125,-1.875 -1.78125,-5.25 0,-3.48438 1.79688,-5.40625 1.79687,-1.9375 4.67187,-1.9375 2.76563,0 4.51563,1.89062 1.76562,1.89063 1.76562,5.3125 0,0.20313 -0.0156,0.625 h -10.3125 q 0.14062,2.28125 1.29687,3.5 1.15625,1.20313 2.89063,1.20313 1.28125,0 2.1875,-0.67188 0.92187,-0.6875 1.45312,-2.17187 z m -7.6875,-3.78125 h 7.71875 q -0.15625,-1.75 -0.89062,-2.625 -1.125,-1.34375 -2.90625,-1.34375 -1.60938,0 -2.71875,1.07812 -1.09375,1.07813 -1.20313,2.89063 z m 22.07495,6.53125 q -1.3125,1.10937 -2.51562,1.5625 -1.20313,0.45312 -2.57813,0.45312 -2.28125,0 -3.5,-1.10937 -1.21875,-1.10938 -1.21875,-2.84375 0,-1.01563 0.45313,-1.85938 0.46875,-0.84375 1.21875,-1.34375 0.75,-0.51562 1.6875,-0.76562 0.6875,-0.1875 2.07812,-0.35938 2.82813,-0.32812 4.17188,-0.79687 0.0156,-0.48438 0.0156,-0.625 0,-1.42188 -0.65625,-2.01563 -0.90625,-0.79687 -2.67187,-0.79687 -1.65625,0 -2.45313,0.59375 -0.78125,0.57812 -1.15625,2.04687 l -2.29687,-0.3125 q 0.3125,-1.46875 1.03125,-2.375 0.71875,-0.90625 2.0625,-1.39062 1.35937,-0.5 3.14062,-0.5 1.78125,0 2.875,0.42187 1.10938,0.42188 1.625,1.04688 0.53125,0.625 0.73438,1.59375 0.125,0.59375 0.125,2.15625 v 3.125 q 0,3.26562 0.14062,4.14062 0.15625,0.85938 0.59375,1.65625 h -2.4375 q -0.375,-0.73437 -0.46875,-1.70312 z m -0.20312,-5.23438 q -1.26563,0.51563 -3.82813,0.89063 -1.4375,0.20312 -2.04687,0.46875 -0.59375,0.25 -0.92188,0.75 -0.3125,0.5 -0.3125,1.125 0,0.9375 0.70313,1.5625 0.70312,0.625 2.07812,0.625 1.34375,0 2.39063,-0.59375 1.0625,-0.59375 1.5625,-1.625 0.375,-0.79688 0.375,-2.34375 z m 15.05932,6.9375 v -2.03125 q -1.60937,2.34375 -4.375,2.34375 -1.23437,0 -2.29687,-0.46875 -1.0625,-0.46875 -1.57813,-1.17187 -0.5,-0.71875 -0.71875,-1.75 -0.14062,-0.6875 -0.14062,-2.1875 v -8.5625 h 2.34375 v 7.67187 q 0,1.82813 0.14062,2.46875 0.21875,0.92188 0.9375,1.45313 0.71875,0.53125 1.76563,0.53125 1.0625,0 1.98437,-0.53125 0.92188,-0.54688 1.29688,-1.46875 0.39062,-0.9375 0.39062,-2.71875 v -7.40625 h 2.34375 v 13.82812 z m 7.30933,5.60938 h -1.6875 q 3.89062,-6.25 3.89062,-12.5 0,-2.45313 -0.54687,-4.85938 -0.45313,-1.95312 -1.25,-3.75 -0.5,-1.17187 -2.09375,-3.90625 h 1.6875 q 2.4375,3.26563 3.60937,6.5625 1,2.82813 1,5.9375 0,3.51563 -1.34375,6.79688 -1.34375,3.26562 -3.26562,5.71875 z"
       fill-rule="nonzero"
       id="path2996" />
    <path
       fill="#cfe2f3"
       d="m 65.72179,256.5866 h 248.37532 v 54.4252 H 65.72179 Z"
       fill-rule="evenodd"
       id="path2998" />
    <path
       fill="#000000"
       fill-opacity="0"
       d="m 96.7687,256.5866 v 54.4252 M 65.721787,263.38976 H 314.09711"
       fill-rule="evenodd"
       id="path3000" />
    <path
       fill="#000000"
       fill-opacity="0"
       d="m 65.72179,256.5866 h 248.37532 v 54.4252 H 65.72179 Z"
       fill-rule="evenodd"
       id="path3002" />
    <path
       stroke="#000000"
       stroke-width="1"
       stroke-linejoin="round"
       stroke-linecap="butt"
       d="m 96.7687,256.5866 v 54.4252 M 65.721787,263.38976 H 314.09711"
       fill-rule="evenodd"
       id="path3004" />
    <path
       stroke="#000000"
       stroke-width="1"
       stroke-linejoin="round"
       stroke-linecap="butt"
       d="m 65.72179,256.5866 h 248.37532 v 54.4252 H 65.72179 Z"
       fill-rule="evenodd"
       id="path3006" />
    <path
       fill="#000000"
       d="m 107.69057,296.52078 v -18.125 h 2.46875 l 9.51563,14.23437 v -14.23437 h 2.3125 v 18.125 h -2.46875 l -9.51563,-14.25 v 14.25 z m 26.65055,0 v -1.92188 q -1.53125,2.21875 -4.17187,2.21875 -1.15625,0 -2.17188,-0.4375 -1,-0.45312 -1.5,-1.125 -0.48438,-0.67187 -0.6875,-1.65625 -0.125,-0.65625 -0.125,-2.07812 v -8.14063 h 2.21875 v 7.29688 q 0,1.73437 0.14063,2.34375 0.20313,0.875 0.875,1.375 0.6875,0.5 1.6875,0.5 1.01563,0 1.89063,-0.5 0.875,-0.51563 1.23437,-1.40625 0.375,-0.89063 0.375,-2.5625 v -7.04688 h 2.21875 v 13.14063 z m 5.47693,0 v -13.14063 h 1.98438 v 1.84375 q 0.625,-0.95312 1.64062,-1.54687 1.03125,-0.59375 2.34375,-0.59375 1.46875,0 2.39063,0.60937 0.9375,0.60938 1.32812,1.70313 1.54688,-2.3125 4.04688,-2.3125 1.95312,0 3,1.09375 1.0625,1.07812 1.0625,3.32812 v 9.01563 h -2.21875 v -8.28125 q 0,-1.32813 -0.21875,-1.90625 -0.21875,-0.59375 -0.78125,-0.95313 -0.5625,-0.35937 -1.32813,-0.35937 -1.39062,0 -2.3125,0.92187 -0.90625,0.92188 -0.90625,2.95313 v 7.625 h -2.23437 v -8.53125 q 0,-1.48438 -0.54688,-2.21875 -0.53125,-0.75 -1.78125,-0.75 -0.9375,0 -1.73437,0.5 -0.79688,0.48437 -1.15625,1.4375 -0.35938,0.95312 -0.35938,2.75 v 6.8125 z m 23.1454,0 h -2.0625 v -18.125 h 2.23438 v 6.46875 q 1.40625,-1.78125 3.59375,-1.78125 1.20312,0 2.28125,0.5 1.09375,0.48437 1.78125,1.375 0.70312,0.875 1.09375,2.125 0.40625,1.25 0.40625,2.67187 0,3.375 -1.67188,5.21875 -1.67187,1.84375 -4,1.84375 -2.32812,0 -3.65625,-1.9375 z m -0.0156,-6.67188 q 0,2.375 0.64062,3.42188 1.04688,1.71875 2.84375,1.71875 1.45313,0 2.51563,-1.26563 1.0625,-1.26562 1.0625,-3.78125 0,-2.57812 -1.01563,-3.79687 -1.01562,-1.21875 -2.46875,-1.21875 -1.45312,0 -2.51562,1.26562 -1.0625,1.26563 -1.0625,3.65625 z m 21.03943,2.4375 2.29687,0.29688 q -0.53125,2.01562 -2.01562,3.125 -1.46875,1.10937 -3.75,1.10937 -2.89063,0 -4.57813,-1.76562 -1.6875,-1.78125 -1.6875,-4.98438 0,-3.3125 1.70313,-5.14062 1.71875,-1.84375 4.4375,-1.84375 2.64062,0 4.29687,1.79687 1.67188,1.79688 1.67188,5.04688 0,0.20312 -0.0156,0.59375 h -9.78125 q 0.10938,2.17187 1.20313,3.32812 1.10937,1.14063 2.76562,1.14063 1.21875,0 2.07813,-0.64063 0.875,-0.64062 1.375,-2.0625 z m -7.3125,-3.59375 h 7.34375 q -0.15625,-1.65625 -0.84375,-2.48437 -1.0625,-1.28125 -2.75,-1.28125 -1.54688,0 -2.59375,1.03125 -1.03125,1.01562 -1.15625,2.73437 z m 12.38318,7.82813 v -13.14063 h 2 v 2 q 0.78125,-1.40625 1.42187,-1.84375 0.65625,-0.45312 1.4375,-0.45312 1.125,0 2.28125,0.71875 l -0.76562,2.07812 q -0.8125,-0.48437 -1.64063,-0.48437 -0.71875,0 -1.3125,0.4375 -0.57812,0.4375 -0.82812,1.21875 -0.35938,1.1875 -0.35938,2.59375 v 6.875 z m 14.61206,-3.92188 2.20312,-0.34375 q 0.1875,1.32813 1.03125,2.03125 0.84375,0.70313 2.35938,0.70313 1.54687,0 2.28125,-0.625 0.75,-0.625 0.75,-1.46875 0,-0.75 -0.65625,-1.1875 -0.46875,-0.29688 -2.28125,-0.75 -2.45313,-0.625 -3.40625,-1.07813 -0.9375,-0.45312 -1.42188,-1.25 -0.48437,-0.79687 -0.48437,-1.75 0,-0.89062 0.39062,-1.625 0.40625,-0.75 1.09375,-1.25 0.53125,-0.39062 1.42188,-0.65625 0.89062,-0.26562 1.92187,-0.26562 1.54688,0 2.71875,0.45312 1.17188,0.4375 1.71875,1.20313 0.5625,0.76562 0.76563,2.03125 l -2.17188,0.29687 q -0.14062,-1.01562 -0.85937,-1.57812 -0.71875,-0.5625 -2.01563,-0.5625 -1.53125,0 -2.1875,0.5 -0.65625,0.5 -0.65625,1.1875 0,0.4375 0.28125,0.78125 0.26563,0.35937 0.84375,0.59375 0.34375,0.125 1.96875,0.5625 2.35938,0.64062 3.29688,1.04687 0.9375,0.39063 1.46875,1.15625 0.53125,0.76563 0.53125,1.90625 0,1.10938 -0.65625,2.09375 -0.64063,0.98438 -1.875,1.53125 -1.21875,0.53125 -2.76563,0.53125 -2.5625,0 -3.90625,-1.0625 -1.32812,-1.0625 -1.70312,-3.15625 z m 13.57031,-11.65625 v -2.54687 h 2.21875 v 2.54687 z m 0,15.57813 v -13.14063 h 2.21875 v 13.14063 z m 4.43961,0 v -1.8125 l 8.35937,-9.59375 q -1.42187,0.0781 -2.51562,0.0781 h -5.35938 v -1.8125 h 10.73438 v 1.48438 l -7.10938,8.32812 -1.375,1.51563 q 1.5,-0.10938 2.8125,-0.10938 h 6.07813 v 1.92188 z m 22.82031,-4.23438 2.29687,0.29688 q -0.53125,2.01562 -2.01562,3.125 -1.46875,1.10937 -3.75,1.10937 -2.89063,0 -4.57813,-1.76562 -1.6875,-1.78125 -1.6875,-4.98438 0,-3.3125 1.70313,-5.14062 1.71875,-1.84375 4.4375,-1.84375 2.64062,0 4.29687,1.79687 1.67188,1.79688 1.67188,5.04688 0,0.20312 -0.0156,0.59375 h -9.78125 q 0.10938,2.17187 1.20313,3.32812 1.10937,1.14063 2.76562,1.14063 1.21875,0 2.07813,-0.64063 0.875,-0.64062 1.375,-2.0625 z m -7.3125,-3.59375 h 7.34375 q -0.15625,-1.65625 -0.84375,-2.48437 -1.0625,-1.28125 -2.75,-1.28125 -1.54688,0 -2.59375,1.03125 -1.03125,1.01562 -1.15625,2.73437 z"
       fill-rule="nonzero"
       id="path3008" />
    <path
       fill="#cfe2f3"
       d="M 25.717848,525.3832 89.460104,416.02889 H 344.42912 L 280.68687,525.3832 Z"
       fill-rule="evenodd"
       id="path3010" />
    <path
       stroke="#000000"
       stroke-width="1"
       stroke-linejoin="round"
       stroke-linecap="butt"
       d="M 25.717848,525.3832 89.460104,416.02889 H 344.42912 L 280.68687,525.3832 Z"
       fill-rule="evenodd"
       id="path3012" />
    <path
       fill="#000000"
       d="m 98.428856,480.30603 7.312504,-19.07812 h 2.73437 l 7.79688,19.07812 h -2.875 l -2.21875,-5.78125 h -7.98438 l -2.09375,5.78125 z m 5.500004,-7.82812 h 6.46875 l -2,-5.29688 q -0.90625,-2.40625 -1.34375,-3.95312 -0.375,1.84375 -1.03125,3.64062 z m 14.62326,7.82812 v -12 h -2.0625 v -1.82812 h 2.0625 v -1.46875 q 0,-1.39063 0.25,-2.0625 0.34375,-0.92188 1.1875,-1.48438 0.85937,-0.5625 2.39062,-0.5625 0.98438,0 2.1875,0.23438 l -0.34375,2.04687 q -0.73437,-0.14062 -1.39062,-0.14062 -1.0625,0 -1.51563,0.46875 -0.4375,0.45312 -0.4375,1.70312 v 1.26563 h 2.70313 v 1.82812 h -2.70313 v 12 z m 6.92419,0 v -12 h -2.0625 v -1.82812 h 2.0625 v -1.46875 q 0,-1.39063 0.25,-2.0625 0.34375,-0.92188 1.1875,-1.48438 0.85938,-0.5625 2.39062,-0.5625 0.98437,0 2.1875,0.23438 l -0.34375,2.04687 q -0.73438,-0.14062 -1.39063,-0.14062 -1.0625,0 -1.51562,0.46875 -0.43749,0.45312 -0.43749,1.70312 v 1.26563 h 2.70311 v 1.82812 h -2.70311 v 12 z m 6.85908,-16.39062 v -2.6875 h 2.34375 v 2.6875 z m 0,16.39062 v -13.82812 h 2.34375 v 13.82812 z m 14.93779,-5.0625 2.29687,0.29688 q -0.375,2.39062 -1.9375,3.73437 -1.54687,1.34375 -3.8125,1.34375 -2.84375,0 -4.5625,-1.84375 -1.71875,-1.85937 -1.71875,-5.32812 0,-2.23438 0.73438,-3.90625 0.75,-1.6875 2.26562,-2.53125 1.51563,-0.84375 3.29688,-0.84375 2.25,0 3.67187,1.14062 1.4375,1.14063 1.84375,3.23438 l -2.28125,0.35937 q -0.32812,-1.39062 -1.15625,-2.09375 -0.8125,-0.70312 -1.98437,-0.70312 -1.78125,0 -2.89063,1.26562 -1.09375,1.26563 -1.09375,4.01563 0,2.78125 1.0625,4.04687 1.0625,1.26563 2.78125,1.26563 1.39063,0 2.3125,-0.84375 0.92188,-0.85938 1.17188,-2.60938 z m 4.29687,5.0625 v -19.07812 h 2.34375 v 6.84375 q 1.64063,-1.90625 4.14063,-1.90625 1.54687,0 2.67187,0.60937 1.14063,0.60938 1.625,1.67188 0.48438,1.0625 0.48438,3.09375 v 8.76562 h -2.34375 v -8.76562 q 0,-1.75 -0.76563,-2.54688 -0.75,-0.8125 -2.15625,-0.8125 -1.03125,0 -1.95312,0.54688 -0.92188,0.54687 -1.3125,1.46875 -0.39063,0.92187 -0.39063,2.54687 v 7.5625 z m 24.29369,-4.45312 2.42187,0.29687 q -0.57812,2.125 -2.125,3.29688 -1.54687,1.17187 -3.95312,1.17187 -3.03125,0 -4.8125,-1.85937 -1.78125,-1.875 -1.78125,-5.25 0,-3.48438 1.79687,-5.40625 1.79688,-1.9375 4.67188,-1.9375 2.76562,0 4.51562,1.89062 1.76563,1.89063 1.76563,5.3125 0,0.20313 -0.0156,0.625 h -10.3125 q 0.14063,2.28125 1.29688,3.5 1.15625,1.20313 2.89062,1.20313 1.28125,0 2.1875,-0.67188 0.92188,-0.6875 1.45313,-2.17187 z m -7.6875,-3.78125 h 7.71875 q -0.15625,-1.75 -0.89063,-2.625 -1.125,-1.34375 -2.90625,-1.34375 -1.60937,0 -2.71875,1.07812 -1.09375,1.07813 -1.20312,2.89063 z m 13.02806,8.23437 v -13.82812 h 2.10938 v 2.09375 q 0.79687,-1.46875 1.48437,-1.9375 0.6875,-0.46875 1.5,-0.46875 1.1875,0 2.40625,0.76562 l -0.79687,2.17188 q -0.85938,-0.51563 -1.71875,-0.51563 -0.76563,0 -1.39063,0.46875 -0.60937,0.45313 -0.85937,1.28125 -0.39063,1.25 -0.39063,2.73438 v 7.23437 z m 16.95458,-11.15625 v -2.67187 h 2.67187 v 2.67187 z m 0,11.15625 v -2.67187 h 2.67187 v 2.67187 z m 13.21817,-4.125 2.32812,-0.35937 q 0.1875,1.39062 1.07813,2.14062 0.89062,0.73438 2.5,0.73438 1.60937,0 2.39062,-0.65625 0.78125,-0.65625 0.78125,-1.54688 0,-0.79687 -0.6875,-1.25 -0.48437,-0.3125 -2.39062,-0.79687 -2.57813,-0.65625 -3.57813,-1.125 -1,-0.46875 -1.51562,-1.3125 -0.51563,-0.84375 -0.51563,-1.85938 0,-0.92187 0.42188,-1.70312 0.4375,-0.79688 1.15625,-1.3125 0.54687,-0.40625 1.48437,-0.6875 0.95313,-0.28125 2.03125,-0.28125 1.625,0 2.85938,0.46875 1.23437,0.46875 1.8125,1.28125 0.59375,0.79687 0.8125,2.14062 l -2.29688,0.3125 q -0.15625,-1.07812 -0.90625,-1.67187 -0.75,-0.59375 -2.10937,-0.59375 -1.60938,0 -2.3125,0.53125 -0.6875,0.53125 -0.6875,1.25 0,0.45312 0.29687,0.8125 0.28125,0.375 0.89063,0.625 0.35937,0.14062 2.07812,0.60937 2.48438,0.65625 3.46875,1.07813 0.98438,0.42187 1.53125,1.23437 0.5625,0.79688 0.5625,2 0,1.17188 -0.6875,2.21875 -0.67187,1.03125 -1.96875,1.59375 -1.28125,0.5625 -2.90625,0.5625 -2.70312,0 -4.125,-1.10937 -1.40625,-1.125 -1.79687,-3.32813 z m 14.28125,-12.26562 v -2.6875 h 2.34375 v 2.6875 z m 0,16.39062 v -13.82812 h 2.34375 v 13.82812 z m 4.67216,0 v -1.90625 l 8.79688,-10.09375 q -1.48438,0.0781 -2.64063,0.0781 h -5.625 v -1.90625 h 11.29688 v 1.54687 l -7.48438,8.78125 -1.45312,1.59375 q 1.57812,-0.10937 2.95312,-0.10937 h 6.39063 v 2.01562 z m 24.03125,-4.45312 2.42189,0.29687 q -0.57812,2.125 -2.12501,3.29688 -1.54688,1.17187 -3.95313,1.17187 -3.03125,0 -4.8125,-1.85937 -1.78125,-1.875 -1.78125,-5.25 0,-3.48438 1.79688,-5.40625 1.79687,-1.9375 4.67187,-1.9375 2.76563,0 4.51563,1.89062 1.76564,1.89063 1.76564,5.3125 0,0.20313 -0.0156,0.625 h -10.31251 q 0.14062,2.28125 1.29687,3.5 1.15625,1.20313 2.89063,1.20313 1.28125,0 2.1875,-0.67188 0.92187,-0.6875 1.45312,-2.17187 z m -7.6875,-3.78125 h 7.71875 q -0.15625,-1.75 -0.89062,-2.625 -1.125,-1.34375 -2.90625,-1.34375 -1.60938,0 -2.71875,1.07812 -1.09375,1.07813 -1.20313,2.89063 z"
       fill-rule="nonzero"
       id="path3014" />
    <path
       fill="#000000"
       fill-opacity="0"
       d="m 189.90945,311.0118 v 33.25986"
       fill-rule="evenodd"
       id="path3016" />
    <path
       stroke="#000000"
       stroke-width="1"
       stroke-linejoin="round"
       stroke-linecap="butt"
       d="m 189.90945,311.0118 v 27.25986"
       fill-rule="evenodd"
       id="path3018" />
    <path
       fill="#000000"
       stroke="#000000"
       stroke-width="1"
       stroke-linecap="butt"
       d="m 188.25772,338.27167 1.65173,4.53809 1.65174,-4.53809 z"
       fill-rule="evenodd"
       id="path3020" />
    <path
       fill="#000000"
       fill-opacity="0"
       d="m 189.90945,230.7336 v 25.85826"
       fill-rule="evenodd"
       id="path3022" />
    <path
       stroke="#000000"
       stroke-width="1"
       stroke-linejoin="round"
       stroke-linecap="butt"
       d="m 189.90945,230.7336 v 19.85826"
       fill-rule="evenodd"
       id="path3024" />
    <path
       fill="#000000"
       stroke="#000000"
       stroke-width="1"
       stroke-linecap="butt"
       d="m 188.25772,250.59186 1.65173,4.5381 1.65174,-4.5381 z"
       fill-rule="evenodd"
       id="path3026" />
    <path
       fill="#000000"
       fill-opacity="0"
       d="M 417.82678,470.70602 H 312.56692"
       fill-rule="evenodd"
       id="path3028" />
    <path
       stroke="#000000"
       stroke-width="1"
       stroke-linejoin="round"
       stroke-linecap="butt"
       d="M 417.82678,470.70602 H 318.56692"
       fill-rule="evenodd"
       id="path3030" />
    <path
       fill="#000000"
       stroke="#000000"
       stroke-width="1"
       stroke-linecap="butt"
       d="m 318.56693,469.0543 -4.53809,1.65173 4.53809,1.65174 z"
       fill-rule="evenodd"
       id="path3032" />
  </g>
</svg>
