<?xml version="1.0" encoding="UTF-8" standalone="no"?>
<svg
   xmlns:dc="http://purl.org/dc/elements/1.1/"
   xmlns:cc="http://creativecommons.org/ns#"
   xmlns:rdf="http://www.w3.org/1999/02/22-rdf-syntax-ns#"
   xmlns:svg="http://www.w3.org/2000/svg"
   xmlns="http://www.w3.org/2000/svg"
   xmlns:sodipodi="http://sodipodi.sourceforge.net/DTD/sodipodi-0.dtd"
   xmlns:inkscape="http://www.inkscape.org/namespaces/inkscape"
   version="1.1"
   viewBox="0 0 600.90698 561.63788"
   fill="none"
   stroke="none"
   stroke-linecap="square"
   stroke-miterlimit="10"
   id="svg1119"
   sodipodi:docname="flowchart-while.svg"
   width="600.90698"
   height="561.63788"
   inkscape:version="1.0.2-2 (e86c870879, 2021-01-15)">
  <metadata
     id="metadata1125">
    <rdf:RDF>
      <cc:Work
         rdf:about="">
        <dc:format>image/svg+xml</dc:format>
        <dc:type
           rdf:resource="http://purl.org/dc/dcmitype/StillImage" />
        <dc:title></dc:title>
      </cc:Work>
    </rdf:RDF>
  </metadata>
  <defs
     id="defs1123" />
  <sodipodi:namedview
     pagecolor="#ffffff"
     bordercolor="#666666"
     borderopacity="1"
     objecttolerance="10"
     gridtolerance="10"
     guidetolerance="10"
     inkscape:pageopacity="0"
     inkscape:pageshadow="2"
     inkscape:window-width="1920"
     inkscape:window-height="1017"
     id="namedview1121"
     showgrid="false"
     fit-margin-top="0"
     fit-margin-left="0"
     fit-margin-right="0"
     fit-margin-bottom="0"
     inkscape:zoom="0.87562441"
     inkscape:cx="396.97531"
     inkscape:cy="351.80184"
     inkscape:window-x="-8"
     inkscape:window-y="-8"
     inkscape:window-maximized="1"
     inkscape:current-layer="svg1119" />
  <clipPath
     id="p.0">
    <path
       d="M 0,0 H 960 V 720 H 0 Z"
       clip-rule="nonzero"
       id="path980" />
  </clipPath>
  <g
     clip-path="url(#p.0)"
     id="g1117"
     transform="translate(-83.02469,-8.198163)">
    <path
       fill="#000000"
       fill-opacity="0"
       d="M 0,0 H 960 V 720 H 0 Z"
       fill-rule="evenodd"
       id="path983" />
    <path
       fill="#cfe2f3"
       d="m 219.64554,8.698163 h 82.58987 v 0 c 10.81949,0 19.59043,7.924348 19.59043,17.699528 0,9.775181 -8.77094,17.699528 -19.59043,17.699528 h -82.58987 v 0 c -10.81949,0 -19.59042,-7.924347 -19.59042,-17.699528 0,-9.775179 8.77093,-17.699528 19.59042,-17.699528 z"
       fill-rule="evenodd"
       id="path985" />
    <path
       stroke="#000000"
       stroke-width="1"
       stroke-linejoin="round"
       stroke-linecap="butt"
       d="m 219.64554,8.698163 h 82.58987 v 0 c 10.81949,0 19.59043,7.924348 19.59043,17.699528 0,9.775181 -8.77094,17.699528 -19.59043,17.699528 h -82.58987 v 0 c -10.81949,0 -19.59042,-7.924347 -19.59042,-17.699528 0,-9.775179 8.77093,-17.699528 19.59042,-17.699528 z"
       fill-rule="evenodd"
       id="path987" />
    <path
       fill="#000000"
       d="M 222.99907,35.99769 V 16.919565 h 6.5625 q 2.23437,0 3.40625,0.265625 1.64062,0.375 2.79687,1.375 1.5,1.265625 2.25,3.25 0.75,1.984375 0.75,4.546875 0,2.171875 -0.51562,3.859375 -0.5,1.671875 -1.29688,2.78125 -0.78125,1.09375 -1.73437,1.71875 -0.9375,0.625 -2.28125,0.953125 -1.32813,0.328125 -3.0625,0.328125 z m 2.51562,-2.25 h 4.07813 q 1.89062,0 2.95312,-0.34375 1.07813,-0.359375 1.71875,-1 0.89063,-0.890625 1.39063,-2.40625 0.51562,-1.515625 0.51562,-3.6875 0,-2.984375 -0.98437,-4.59375 -0.98438,-1.609375 -2.39063,-2.15625 -1.01562,-0.390625 -3.26562,-0.390625 h -4.01563 z m 25.89092,-2.203125 2.42187,0.296875 q -0.57812,2.125 -2.125,3.296875 -1.54687,1.171875 -3.95312,1.171875 -3.03125,0 -4.8125,-1.859375 -1.78125,-1.875 -1.78125,-5.25 0,-3.484375 1.79687,-5.40625 1.79688,-1.9375 4.67188,-1.9375 2.76562,0 4.51562,1.890625 1.76563,1.890625 1.76563,5.3125 0,0.203125 -0.0156,0.625 h -10.3125 q 0.14063,2.28125 1.29688,3.5 1.15625,1.203125 2.89062,1.203125 1.28125,0 2.1875,-0.671875 0.92188,-0.6875 1.45313,-2.171875 z m -7.6875,-3.78125 h 7.71875 q -0.15625,-1.75 -0.89063,-2.625 -1.125,-1.34375 -2.90625,-1.34375 -1.60937,0 -2.71875,1.078125 -1.09375,1.078125 -1.20312,2.890625 z m 2.51562,-7.3125 1.73438,-3.640625 h 3.0625 l -2.85938,3.640625 z m 10.52808,20.84375 v -19.125 h 2.14063 v 1.796875 q 0.75,-1.046875 1.70312,-1.578125 0.95313,-0.53125 2.3125,-0.53125 1.76563,0 3.10938,0.921875 1.35937,0.90625 2.04687,2.5625 0.6875,1.65625 0.6875,3.640625 0,2.125 -0.76562,3.828125 -0.75,1.6875 -2.20313,2.59375 -1.45312,0.90625 -3.04687,0.90625 -1.17188,0 -2.10938,-0.484375 -0.92187,-0.5 -1.53125,-1.265625 v 6.734375 z m 2.125,-12.125 q 0,2.65625 1.07813,3.9375 1.09375,1.28125 2.625,1.28125 1.5625,0 2.67187,-1.3125 1.10938,-1.328125 1.10938,-4.109375 0,-2.640625 -1.09375,-3.953125 -1.07813,-1.3125 -2.59375,-1.3125 -1.48438,0 -2.64063,1.40625 -1.15625,1.390625 -1.15625,4.0625 z m 21.73117,5.125 q -1.3125,1.109375 -2.51562,1.5625 -1.20313,0.453125 -2.57813,0.453125 -2.28125,0 -3.5,-1.109375 -1.21875,-1.109375 -1.21875,-2.84375 0,-1.015625 0.45313,-1.859375 0.46875,-0.84375 1.21875,-1.34375 0.75,-0.515625 1.6875,-0.765625 0.6875,-0.1875 2.07812,-0.359375 2.82813,-0.328125 4.17188,-0.796875 0.0156,-0.484375 0.0156,-0.625 0,-1.421875 -0.65625,-2.015625 -0.90625,-0.796875 -2.67187,-0.796875 -1.65625,0 -2.45313,0.59375 -0.78125,0.578125 -1.15625,2.046875 l -2.29687,-0.3125 q 0.3125,-1.46875 1.03125,-2.375 0.71875,-0.90625 2.0625,-1.390625 1.35937,-0.5 3.14062,-0.5 1.78125,0 2.875,0.421875 1.10938,0.421875 1.625,1.046875 0.53125,0.625 0.73438,1.59375 0.125,0.59375 0.125,2.15625 v 3.125 q 0,3.265625 0.14062,4.140625 0.15625,0.859375 0.59375,1.65625 h -2.4375 q -0.375,-0.734375 -0.46875,-1.703125 z m -0.20312,-5.234375 q -1.26563,0.515625 -3.82813,0.890625 -1.4375,0.203125 -2.04687,0.46875 -0.59375,0.25 -0.92188,0.75 -0.3125,0.5 -0.3125,1.125 0,0.9375 0.70313,1.5625 0.70312,0.625 2.07812,0.625 1.34375,0 2.39063,-0.59375 1.0625,-0.59375 1.5625,-1.625 0.375,-0.796875 0.375,-2.34375 z m 5.9812,6.9375 V 22.169565 h 2.10937 v 2.09375 q 0.79688,-1.46875 1.48438,-1.9375 0.6875,-0.46875 1.5,-0.46875 1.1875,0 2.40625,0.765625 l -0.79688,2.171875 q -0.85937,-0.515625 -1.71875,-0.515625 -0.76562,0 -1.39062,0.46875 -0.60938,0.453125 -0.85938,1.28125 -0.39062,1.25 -0.39062,2.734375 v 7.234375 z m 14.01736,-2.09375 0.32813,2.0625 q -0.98438,0.21875 -1.76563,0.21875 -1.26562,0 -1.96875,-0.40625 -0.70312,-0.40625 -1,-1.0625 -0.28125,-0.65625 -0.28125,-2.765625 V 23.99769 h -1.71875 v -1.828125 h 1.71875 V 18.74769 l 2.32813,-1.40625 v 4.828125 h 2.35937 v 1.828125 h -2.35937 v 8.078125 q 0,1 0.125,1.296875 0.125,0.28125 0.40625,0.453125 0.28125,0.171875 0.79687,0.171875 0.39063,0 1.03125,-0.09375 z"
       fill-rule="nonzero"
       id="path989" />
    <path
       fill="#cfe2f3"
       d="m 221.19931,533.937 h 89.14584 v 0 c 11.67834,0 21.14551,7.92432 21.14551,17.69952 0,9.77521 -9.46716,17.69953 -21.14551,17.69953 h -89.14584 v 0 c -11.67833,0 -21.14551,-7.92432 -21.14551,-17.69953 0,-9.7752 9.46718,-17.69952 21.14551,-17.69952 z"
       fill-rule="evenodd"
       id="path991" />
    <path
       stroke="#000000"
       stroke-width="1"
       stroke-linejoin="round"
       stroke-linecap="butt"
       d="m 221.19931,533.937 h 89.14584 v 0 c 11.67834,0 21.14551,7.92432 21.14551,17.69952 0,9.77521 -9.46716,17.69953 -21.14551,17.69953 h -89.14584 v 0 c -11.67833,0 -21.14551,-7.92432 -21.14551,-17.69953 0,-9.7752 9.46718,-17.69952 21.14551,-17.69952 z"
       fill-rule="evenodd"
       id="path993" />
    <path
       fill="#000000"
       d="m 249.44482,561.2365 v -19.07813 h 12.875 v 2.25 h -10.34375 v 5.90625 h 8.95312 v 2.25 h -8.95312 v 8.67188 z m 15.86084,-16.39063 v -2.6875 h 2.34375 v 2.6875 z m 0,16.39063 v -13.82813 h 2.34375 v 13.82813 z m 5.90652,0 v -13.82813 h 2.10938 v 1.96875 q 1.53125,-2.28125 4.40625,-2.28125 1.25,0 2.29687,0.45313 1.04688,0.45312 1.5625,1.1875 0.53125,0.71875 0.73438,1.71875 0.125,0.65625 0.125,2.28125 v 8.5 h -2.34375 v -8.40625 q 0,-1.4375 -0.28125,-2.14063 -0.26563,-0.71875 -0.96875,-1.14062 -0.6875,-0.42188 -1.625,-0.42188 -1.48438,0 -2.57813,0.95313 -1.09375,0.95312 -1.09375,3.60937 v 7.54688 z"
       fill-rule="nonzero"
       id="path995" />
    <path
       fill="#000000"
       fill-opacity="0"
       d="M 260.94046,44.097218 V 71.278321"
       fill-rule="evenodd"
       id="path997" />
    <path
       stroke="#000000"
       stroke-width="1"
       stroke-linejoin="round"
       stroke-linecap="butt"
       d="M 260.94046,44.097214 V 65.278321"
       fill-rule="evenodd"
       id="path999" />
    <path
       fill="#000000"
       stroke="#000000"
       stroke-width="1"
       stroke-linecap="butt"
       d="m 259.28873,65.27832 1.65173,4.538094 1.65174,-4.538094 z"
       fill-rule="evenodd"
       id="path1001" />
    <path
       fill="#cfe2f3"
       d="m 154.14305,71.27821 h 213.58528 v 44.2441 H 154.14305 Z"
       fill-rule="evenodd"
       id="path1003" />
    <path
       fill="#000000"
       fill-opacity="0"
       d="m 180.8412,71.27821 v 44.2441 M 154.14305,76.80872 h 213.58528"
       fill-rule="evenodd"
       id="path1005" />
    <path
       fill="#000000"
       fill-opacity="0"
       d="m 154.14305,71.27821 h 213.58528 v 44.2441 H 154.14305 Z"
       fill-rule="evenodd"
       id="path1007" />
    <path
       stroke="#000000"
       stroke-width="1"
       stroke-linejoin="round"
       stroke-linecap="butt"
       d="m 180.8412,71.27821 v 44.2441 M 154.14305,76.80872 h 213.58528"
       fill-rule="evenodd"
       id="path1009" />
    <path
       stroke="#000000"
       stroke-width="1"
       stroke-linejoin="round"
       stroke-linecap="butt"
       d="m 154.14305,71.27821 h 213.58528 v 44.2441 H 154.14305 Z"
       fill-rule="evenodd"
       id="path1011" />
    <path
       fill="#000000"
       d="m 191.76308,105.48552 v -18.125 h 2.46875 l 9.51562,14.23437 V 87.36052 h 2.3125 v 18.125 h -2.46875 l -9.51562,-14.25 v 14.25 z m 26.65054,0 v -1.92188 q -1.53125,2.21875 -4.17187,2.21875 -1.15625,0 -2.17188,-0.4375 -1,-0.45312 -1.5,-1.125 -0.48437,-0.67187 -0.6875,-1.65625 -0.125,-0.65625 -0.125,-2.07812 v -8.140625 h 2.21875 v 7.296875 q 0,1.73437 0.14063,2.34375 0.20312,0.875 0.875,1.375 0.6875,0.5 1.6875,0.5 1.01562,0 1.89062,-0.5 0.875,-0.51563 1.23438,-1.40625 0.375,-0.89063 0.375,-2.5625 v -7.046875 h 2.21875 v 13.140625 z m 5.47693,0 V 92.344895 h 1.98438 v 1.84375 q 0.625,-0.953125 1.64062,-1.546875 1.03125,-0.59375 2.34375,-0.59375 1.46875,0 2.39063,0.609375 0.9375,0.609375 1.32812,1.703125 1.54688,-2.3125 4.04688,-2.3125 1.95312,0 3,1.09375 1.0625,1.078125 1.0625,3.328125 v 9.015625 h -2.21875 v -8.28125 q 0,-1.328125 -0.21875,-1.90625 -0.21875,-0.59375 -0.78125,-0.953125 -0.5625,-0.359375 -1.32813,-0.359375 -1.39062,0 -2.3125,0.921875 -0.90625,0.921875 -0.90625,2.953125 v 7.625 h -2.23437 v -8.53125 q 0,-1.484375 -0.54688,-2.21875 -0.53125,-0.75 -1.78125,-0.75 -0.9375,0 -1.73437,0.5 -0.79688,0.484375 -1.15625,1.4375 -0.35938,0.953125 -0.35938,2.75 v 6.8125 z m 23.1454,0 h -2.0625 v -18.125 h 2.23438 v 6.46875 q 1.40625,-1.78125 3.59375,-1.78125 1.20312,0 2.28125,0.5 1.09375,0.484375 1.78125,1.375 0.70312,0.875 1.09375,2.125 0.40625,1.25 0.40625,2.671875 0,3.374995 -1.67188,5.218745 -1.67187,1.84375 -4,1.84375 -2.32812,0 -3.65625,-1.9375 z m -0.0156,-6.671875 q 0,2.374995 0.64062,3.421875 1.04688,1.71875 2.84375,1.71875 1.45313,0 2.51563,-1.26563 1.0625,-1.26562 1.0625,-3.781245 0,-2.578125 -1.01563,-3.796875 -1.01562,-1.21875 -2.46875,-1.21875 -1.45312,0 -2.51562,1.265625 -1.0625,1.265625 -1.0625,3.65625 z m 21.03943,2.437495 2.29687,0.29688 q -0.53125,2.01562 -2.01562,3.125 -1.46875,1.10937 -3.75,1.10937 -2.89063,0 -4.57813,-1.76562 -1.6875,-1.78125 -1.6875,-4.984375 0,-3.3125 1.70313,-5.140625 1.71875,-1.84375 4.4375,-1.84375 2.64062,0 4.29687,1.796875 1.67188,1.796875 1.67188,5.046875 0,0.203125 -0.0156,0.59375 h -9.78125 q 0.10938,2.17187 1.20313,3.32812 1.10937,1.14063 2.76562,1.14063 1.21875,0 2.07813,-0.64063 0.875,-0.64062 1.375,-2.0625 z m -7.3125,-3.593745 h 7.34375 q -0.15625,-1.65625 -0.84375,-2.484375 -1.0625,-1.28125 -2.75,-1.28125 -1.54688,0 -2.59375,1.03125 -1.03125,1.015625 -1.15625,2.734375 z m 12.38318,7.828125 V 92.344895 h 2 v 2 q 0.78125,-1.40625 1.42187,-1.84375 0.65625,-0.453125 1.4375,-0.453125 1.125,0 2.28125,0.71875 l -0.76562,2.078125 q -0.8125,-0.484375 -1.64063,-0.484375 -0.71875,0 -1.3125,0.4375 -0.57812,0.4375 -0.82812,1.21875 -0.35938,1.1875 -0.35938,2.59375 v 6.875 z m 24.06518,-1.625 q -1.23437,1.0625 -2.375,1.5 -1.14062,0.42187 -2.45312,0.42187 -2.17188,0 -3.32813,-1.04687 -1.15625,-1.0625 -1.15625,-2.71875 0,-0.95313 0.4375,-1.75 0.4375,-0.796875 1.14063,-1.28125 0.71875,-0.484375 1.60937,-0.734375 0.65625,-0.171875 1.96875,-0.328125 2.70313,-0.328125 3.96875,-0.765625 0.0156,-0.46875 0.0156,-0.59375 0,-1.359375 -0.625,-1.90625 -0.85938,-0.765625 -2.53125,-0.765625 -1.57813,0 -2.32813,0.5625 -0.75,0.546875 -1.10937,1.9375 l -2.17188,-0.296875 q 0.29688,-1.390625 0.96875,-2.25 0.6875,-0.859375 1.96875,-1.328125 1.29688,-0.46875 2.98438,-0.46875 1.6875,0 2.73437,0.40625 1.04688,0.390625 1.54688,1 0.5,0.59375 0.6875,1.5 0.125,0.578125 0.125,2.0625 v 2.96875 q 0,3.09375 0.14062,3.92187 0.14063,0.82813 0.5625,1.57813 h -2.32812 q -0.34375,-0.6875 -0.45313,-1.625 z m -0.1875,-4.96875 q -1.20312,0.5 -3.625,0.84375 -1.375,0.203125 -1.95312,0.45312 -0.5625,0.23438 -0.875,0.71875 -0.29688,0.46875 -0.29688,1.04688 0,0.89062 0.67188,1.48437 0.67187,0.59375 1.96875,0.59375 1.28125,0 2.28125,-0.5625 1,-0.5625 1.48437,-1.53125 0.34375,-0.75 0.34375,-2.23437 z"
       fill-rule="nonzero"
       id="path1013" />
    <path
       fill="#cfe2f3"
       d="m 156.08136,142.70341 h 209.71918 v 27.18111 H 156.08136 Z"
       fill-rule="evenodd"
       id="path1015" />
    <path
       stroke="#000000"
       stroke-width="1"
       stroke-linejoin="round"
       stroke-linecap="butt"
       d="m 156.08136,142.70341 h 209.71918 v 27.18111 H 156.08136 Z"
       fill-rule="evenodd"
       id="path1017" />
    <path
       fill="#000000"
       d="m 241.70789,164.19084 q -1.3125,1.10937 -2.51563,1.5625 -1.20312,0.45312 -2.57812,0.45312 -2.28125,0 -3.5,-1.10937 -1.21875,-1.10938 -1.21875,-2.84375 0,-1.01563 0.45312,-1.85938 0.46875,-0.84375 1.21875,-1.34375 0.75,-0.51562 1.6875,-0.76562 0.6875,-0.1875 2.07813,-0.35938 2.82812,-0.32812 4.17187,-0.79687 0.0156,-0.48438 0.0156,-0.625 0,-1.42188 -0.65625,-2.01563 -0.90625,-0.79687 -2.67188,-0.79687 -1.65625,0 -2.45312,0.59375 -0.78125,0.57812 -1.15625,2.04687 l -2.29688,-0.3125 q 0.3125,-1.46875 1.03125,-2.375 0.71875,-0.90625 2.0625,-1.39062 1.35938,-0.5 3.14063,-0.5 1.78125,0 2.875,0.42187 1.10937,0.42188 1.625,1.04688 0.53125,0.625 0.73437,1.59375 0.125,0.59375 0.125,2.15625 v 3.125 q 0,3.26562 0.14063,4.14062 0.15625,0.85938 0.59375,1.65625 h -2.4375 q -0.375,-0.73437 -0.46875,-1.70312 z m -0.20313,-5.23438 q -1.26562,0.51563 -3.82812,0.89063 -1.4375,0.20312 -2.04688,0.46875 -0.59375,0.25 -0.92187,0.75 -0.3125,0.5 -0.3125,1.125 0,0.9375 0.70312,1.5625 0.70313,0.625 2.07813,0.625 1.34375,0 2.39062,-0.59375 1.0625,-0.59375 1.5625,-1.625 0.375,-0.79688 0.375,-2.34375 z m 25.7309,-4.28125 h -12.59375 v -2.1875 h 12.59375 z m 0,5.79688 h -12.59375 v -2.1875 h 12.59375 z m 10.00403,-3.98438 q 0,-3.39062 0.6875,-5.45312 0.70312,-2.0625 2.07812,-3.17188 1.375,-1.125 3.45313,-1.125 1.53125,0 2.6875,0.625 1.17187,0.60938 1.92187,1.78125 0.75,1.15625 1.17188,2.82813 0.4375,1.67187 0.4375,4.51562 0,3.35938 -0.6875,5.42188 -0.6875,2.0625 -2.0625,3.1875 -1.375,1.125 -3.46875,1.125 -2.76563,0 -4.32813,-1.98438 -1.89062,-2.375 -1.89062,-7.75 z m 2.40625,0 q 0,4.6875 1.09375,6.25 1.10937,1.5625 2.71875,1.5625 1.60937,0 2.70312,-1.5625 1.10938,-1.5625 1.10938,-6.25 0,-4.71875 -1.10938,-6.26562 -1.09375,-1.54688 -2.73437,-1.54688 -1.60938,0 -2.57813,1.35938 -1.20312,1.75 -1.20312,6.45312 z"
       fill-rule="nonzero"
       id="path1019" />
    <path
       fill="#cfe2f3"
       d="m 154.1483,196.57086 h 213.58528 v 35.40158 H 154.1483 Z"
       fill-rule="evenodd"
       id="path1021" />
    <path
       fill="#000000"
       fill-opacity="0"
       d="m 180.84645,196.57086 v 35.40158 M 154.1483,200.99606 h 213.58528"
       fill-rule="evenodd"
       id="path1023" />
    <path
       fill="#000000"
       fill-opacity="0"
       d="m 154.1483,196.57086 h 213.58528 v 35.40158 H 154.1483 Z"
       fill-rule="evenodd"
       id="path1025" />
    <path
       stroke="#000000"
       stroke-width="1"
       stroke-linejoin="round"
       stroke-linecap="butt"
       d="m 180.84645,196.57086 v 35.40158 M 154.1483,200.99606 h 213.58528"
       fill-rule="evenodd"
       id="path1027" />
    <path
       stroke="#000000"
       stroke-width="1"
       stroke-linejoin="round"
       stroke-linecap="butt"
       d="m 154.1483,196.57086 h 213.58528 v 35.40158 H 154.1483 Z"
       fill-rule="evenodd"
       id="path1029" />
    <path
       fill="#000000"
       d="m 191.76833,225.80424 v -18.125 h 2.46875 l 9.51562,14.23437 v -14.23437 h 2.3125 v 18.125 h -2.46875 l -9.51562,-14.25 v 14.25 z m 26.65054,0 v -1.92188 q -1.53125,2.21875 -4.17187,2.21875 -1.15625,0 -2.17188,-0.4375 -1,-0.45312 -1.5,-1.125 -0.48437,-0.67187 -0.6875,-1.65625 -0.125,-0.65625 -0.125,-2.07812 v -8.14063 h 2.21875 v 7.29688 q 0,1.73437 0.14063,2.34375 0.20312,0.875 0.875,1.375 0.6875,0.5 1.6875,0.5 1.01562,0 1.89062,-0.5 0.875,-0.51563 1.23438,-1.40625 0.375,-0.89063 0.375,-2.5625 v -7.04688 h 2.21875 v 13.14063 z m 5.47693,0 v -13.14063 h 1.98438 v 1.84375 q 0.625,-0.95312 1.64062,-1.54687 1.03125,-0.59375 2.34375,-0.59375 1.46875,0 2.39063,0.60937 0.9375,0.60938 1.32812,1.70313 1.54688,-2.3125 4.04688,-2.3125 1.95312,0 3,1.09375 1.0625,1.07812 1.0625,3.32812 v 9.01563 h -2.21875 v -8.28125 q 0,-1.32813 -0.21875,-1.90625 -0.21875,-0.59375 -0.78125,-0.95313 -0.5625,-0.35937 -1.32813,-0.35937 -1.39062,0 -2.3125,0.92187 -0.90625,0.92188 -0.90625,2.95313 v 7.625 h -2.23437 v -8.53125 q 0,-1.48438 -0.54688,-2.21875 -0.53125,-0.75 -1.78125,-0.75 -0.9375,0 -1.73437,0.5 -0.79688,0.48437 -1.15625,1.4375 -0.35938,0.95312 -0.35938,2.75 v 6.8125 z m 23.1454,0 h -2.0625 v -18.125 h 2.23438 v 6.46875 q 1.40625,-1.78125 3.59375,-1.78125 1.20312,0 2.28125,0.5 1.09375,0.48437 1.78125,1.375 0.70312,0.875 1.09375,2.125 0.40625,1.25 0.40625,2.67187 0,3.375 -1.67188,5.21875 -1.67187,1.84375 -4,1.84375 -2.32812,0 -3.65625,-1.9375 z m -0.0156,-6.67188 q 0,2.375 0.64062,3.42188 1.04688,1.71875 2.84375,1.71875 1.45313,0 2.51563,-1.26563 1.0625,-1.26562 1.0625,-3.78125 0,-2.57812 -1.01563,-3.79687 -1.01562,-1.21875 -2.46875,-1.21875 -1.45312,0 -2.51562,1.26562 -1.0625,1.26563 -1.0625,3.65625 z m 21.03943,2.4375 2.29687,0.29688 q -0.53125,2.01562 -2.01562,3.125 -1.46875,1.10937 -3.75,1.10937 -2.89063,0 -4.57813,-1.76562 -1.6875,-1.78125 -1.6875,-4.98438 0,-3.3125 1.70313,-5.14062 1.71875,-1.84375 4.4375,-1.84375 2.64062,0 4.29687,1.79687 1.67188,1.79688 1.67188,5.04688 0,0.20312 -0.0156,0.59375 h -9.78125 q 0.10938,2.17187 1.20313,3.32812 1.10937,1.14063 2.76562,1.14063 1.21875,0 2.07813,-0.64063 0.875,-0.64062 1.375,-2.0625 z m -7.3125,-3.59375 h 7.34375 q -0.15625,-1.65625 -0.84375,-2.48437 -1.0625,-1.28125 -2.75,-1.28125 -1.54688,0 -2.59375,1.03125 -1.03125,1.01562 -1.15625,2.73437 z m 12.38318,7.82813 v -13.14063 h 2 v 2 q 0.78125,-1.40625 1.42187,-1.84375 0.65625,-0.45312 1.4375,-0.45312 1.125,0 2.28125,0.71875 l -0.76562,2.07812 q -0.8125,-0.48437 -1.64063,-0.48437 -0.71875,0 -1.3125,0.4375 -0.57812,0.4375 -0.82812,1.21875 -0.35938,1.1875 -0.35938,2.59375 v 6.875 z m 17.54956,0 h -2.0625 v -18.125 h 2.23437 v 6.46875 q 1.40625,-1.78125 3.59375,-1.78125 1.20313,0 2.28125,0.5 1.09375,0.48437 1.78125,1.375 0.70313,0.875 1.09375,2.125 0.40625,1.25 0.40625,2.67187 0,3.375 -1.67187,5.21875 -1.67188,1.84375 -4,1.84375 -2.32813,0 -3.65625,-1.9375 z m -0.0156,-6.67188 q 0,2.375 0.64063,3.42188 1.04687,1.71875 2.84375,1.71875 1.45312,0 2.51562,-1.26563 1.0625,-1.26562 1.0625,-3.78125 0,-2.57812 -1.01562,-3.79687 -1.01563,-1.21875 -2.46875,-1.21875 -1.45313,0 -2.51563,1.26562 -1.0625,1.26563 -1.0625,3.65625 z"
       fill-rule="nonzero"
       id="path1031" />
    <path
       fill="#cfe2f3"
       d="m 156.07611,258.6624 h 209.71918 v 27.18112 H 156.07611 Z"
       fill-rule="evenodd"
       id="path1033" />
    <path
       stroke="#000000"
       stroke-width="1"
       stroke-linejoin="round"
       stroke-linecap="butt"
       d="m 156.07611,258.6624 h 209.71918 v 27.18112 H 156.07611 Z"
       fill-rule="evenodd"
       id="path1035" />
    <path
       fill="#000000"
       d="m 227.43079,281.85297 h -2.17188 v -19.07812 h 2.34375 v 6.79687 q 1.48438,-1.85937 3.78125,-1.85937 1.28125,0 2.40625,0.51562 1.14063,0.51563 1.875,1.45313 0.75,0.92187 1.15625,2.25 0.42188,1.3125 0.42188,2.79687 0,3.5625 -1.76563,5.5 -1.75,1.9375 -4.21875,1.9375 -2.4375,0 -3.82812,-2.04687 z m -0.0312,-7.01562 q 0,2.48437 0.67187,3.59375 1.10938,1.8125 3,1.8125 1.53125,0 2.65625,-1.32813 1.125,-1.34375 1.125,-3.98437 0,-2.70313 -1.07812,-3.98438 -1.07813,-1.29687 -2.59375,-1.29687 -1.54688,0 -2.67188,1.32812 -1.10937,1.32813 -1.10937,3.85938 z m 32.4184,-4.20313 h -12.59375 v -2.1875 h 12.59375 z m 0,5.79688 h -12.59375 v -2.1875 h 12.59375 z m 18.83218,5.42187 h -2.34375 V 266.9311 q -0.85937,0.79687 -2.23437,1.60937 -1.35938,0.79688 -2.45313,1.20313 v -2.26563 q 1.96875,-0.92187 3.4375,-2.23437 1.46875,-1.3125 2.07813,-2.54688 h 1.51562 z m 5.9968,-9.40625 q 0,-3.39062 0.6875,-5.45312 0.70312,-2.0625 2.07812,-3.17188 1.375,-1.125 3.45313,-1.125 1.53125,0 2.6875,0.625 1.17187,0.60938 1.92187,1.78125 0.75,1.15625 1.17188,2.82813 0.4375,1.67187 0.4375,4.51562 0,3.35938 -0.6875,5.42188 -0.6875,2.0625 -2.0625,3.1875 -1.375,1.125 -3.46875,1.125 -2.76563,0 -4.32813,-1.98438 -1.89062,-2.375 -1.89062,-7.75 z m 2.40625,0 q 0,4.6875 1.09375,6.25 1.10937,1.5625 2.71875,1.5625 1.60937,0 2.70312,-1.5625 1.10938,-1.5625 1.10938,-6.25 0,-4.71875 -1.10938,-6.26562 -1.09375,-1.54688 -2.73437,-1.54688 -1.60938,0 -2.57813,1.35938 -1.20312,1.75 -1.20312,6.45312 z"
       fill-rule="nonzero"
       id="path1037" />
    <path
       fill="#cfe2f3"
       d="m 171.54068,383.41995 89.39633,-71.81891 89.39633,71.81891 -89.39633,71.81888 z"
       fill-rule="evenodd"
       id="path1039" />
    <path
       stroke="#000000"
       stroke-width="1"
       stroke-linejoin="round"
       stroke-linecap="butt"
       d="m 171.54068,383.41995 89.39633,-71.81891 89.39633,71.81891 -89.39633,71.81888 z"
       fill-rule="evenodd"
       id="path1041" />
    <path
       fill="#000000"
       d="m 236.0201,391.31683 q -1.3125,1.10937 -2.51562,1.5625 -1.20313,0.45312 -2.57813,0.45312 -2.28125,0 -3.5,-1.10937 -1.21875,-1.10938 -1.21875,-2.84375 0,-1.01563 0.45313,-1.85938 0.46875,-0.84375 1.21875,-1.34375 0.75,-0.51562 1.6875,-0.76562 0.6875,-0.1875 2.07812,-0.35938 2.82813,-0.32812 4.17188,-0.79687 0.0156,-0.48438 0.0156,-0.625 0,-1.42188 -0.65625,-2.01563 -0.90625,-0.79687 -2.67187,-0.79687 -1.65625,0 -2.45313,0.59375 -0.78125,0.57812 -1.15625,2.04687 l -2.29687,-0.3125 q 0.3125,-1.46875 1.03125,-2.375 0.71875,-0.90625 2.0625,-1.39062 1.35937,-0.5 3.14062,-0.5 1.78125,0 2.875,0.42187 1.10938,0.42188 1.625,1.04688 0.53125,0.625 0.73438,1.59375 0.125,0.59375 0.125,2.15625 v 3.125 q 0,3.26562 0.14062,4.14062 0.15625,0.85938 0.59375,1.65625 h -2.4375 q -0.375,-0.73437 -0.46875,-1.70312 z m -0.20312,-5.23438 q -1.26563,0.51563 -3.82813,0.89063 -1.4375,0.20312 -2.04687,0.46875 -0.59375,0.25 -0.92188,0.75 -0.3125,0.5 -0.3125,1.125 0,0.9375 0.70313,1.5625 0.70312,0.625 2.07812,0.625 1.34375,0 2.39063,-0.59375 1.0625,-0.59375 1.5625,-1.625 0.375,-0.79688 0.375,-2.34375 z m 13.10589,-1.40625 v -2.1875 l 12.64061,-5.32812 v 2.32812 l -10.01561,4.10938 10.01561,4.15625 v 2.32812 z m 25.44154,8.34375 h -2.17187 v -19.07812 h 2.34375 v 6.79687 q 1.48437,-1.85937 3.78125,-1.85937 1.28125,0 2.40625,0.51562 1.14062,0.51563 1.875,1.45313 0.75,0.92187 1.15625,2.25 0.42187,1.3125 0.42187,2.79687 0,3.5625 -1.76562,5.5 -1.75,1.9375 -4.21875,1.9375 -2.4375,0 -3.82813,-2.04687 z m -0.0312,-7.01562 q 0,2.48437 0.67188,3.59375 1.10937,1.8125 3,1.8125 1.53125,0 2.65625,-1.32813 1.125,-1.34375 1.125,-3.98437 0,-2.70313 -1.07813,-3.98438 -1.07812,-1.29687 -2.59375,-1.29687 -1.54687,0 -2.67187,1.32812 -1.10938,1.32813 -1.10938,3.85938 z"
       fill-rule="nonzero"
       id="path1043" />
    <path
       fill="#cfe2f3"
       d="m 396.39764,411.5315 57.40683,-56.22308 h 229.62729 l -57.4068,56.22308 z"
       fill-rule="evenodd"
       id="path1045" />
    <path
       stroke="#000000"
       stroke-width="1"
       stroke-linejoin="round"
       stroke-linecap="butt"
       d="m 396.39764,411.5315 57.40683,-56.22308 h 229.62729 l -57.4068,56.22308 z"
       fill-rule="evenodd"
       id="path1047" />
    <path
       fill="#000000"
       d="m 462.77322,393.01996 7.3125,-19.07812 h 2.73437 l 7.79688,19.07812 h -2.875 l -2.21875,-5.78125 h -7.98438 l -2.09375,5.78125 z m 5.5,-7.82812 h 6.46875 l -2,-5.29688 q -0.90625,-2.40625 -1.34375,-3.95312 -0.375,1.84375 -1.03125,3.64062 z m 14.62326,7.82812 v -12 h -2.0625 v -1.82812 h 2.0625 v -1.46875 q 0,-1.39063 0.25,-2.0625 0.34375,-0.92188 1.1875,-1.48438 0.85938,-0.5625 2.39063,-0.5625 0.98437,0 2.1875,0.23438 l -0.34375,2.04687 q -0.73438,-0.14062 -1.39063,-0.14062 -1.0625,0 -1.51562,0.46875 -0.4375,0.45312 -0.4375,1.70312 v 1.26563 h 2.70312 v 1.82812 h -2.70312 v 12 z m 6.92419,0 v -12 h -2.0625 v -1.82812 h 2.0625 v -1.46875 q 0,-1.39063 0.25,-2.0625 0.34375,-0.92188 1.1875,-1.48438 0.85938,-0.5625 2.39063,-0.5625 0.98437,0 2.1875,0.23438 l -0.34375,2.04687 q -0.73438,-0.14062 -1.39063,-0.14062 -1.0625,0 -1.51562,0.46875 -0.4375,0.45312 -0.4375,1.70312 v 1.26563 h 2.70312 v 1.82812 h -2.70312 v 12 z m 6.85907,-16.39062 v -2.6875 h 2.34375 v 2.6875 z m 0,16.39062 v -13.82812 h 2.34375 v 13.82812 z m 14.93781,-5.0625 2.29687,0.29688 q -0.375,2.39062 -1.9375,3.73437 -1.54687,1.34375 -3.8125,1.34375 -2.84375,0 -4.5625,-1.84375 -1.71875,-1.85937 -1.71875,-5.32812 0,-2.23438 0.73438,-3.90625 0.75,-1.6875 2.26562,-2.53125 1.51563,-0.84375 3.29688,-0.84375 2.25,0 3.67187,1.14062 1.4375,1.14063 1.84375,3.23438 l -2.28125,0.35937 q -0.32812,-1.39062 -1.15625,-2.09375 -0.8125,-0.70312 -1.98437,-0.70312 -1.78125,0 -2.89063,1.26562 -1.09375,1.26563 -1.09375,4.01563 0,2.78125 1.0625,4.04687 1.0625,1.26563 2.78125,1.26563 1.39063,0 2.3125,-0.84375 0.92188,-0.85938 1.17188,-2.60938 z m 4.29687,5.0625 v -19.07812 h 2.34375 v 6.84375 q 1.64063,-1.90625 4.14063,-1.90625 1.54687,0 2.67187,0.60937 1.14063,0.60938 1.625,1.67188 0.48438,1.0625 0.48438,3.09375 v 8.76562 h -2.34375 v -8.76562 q 0,-1.75 -0.76563,-2.54688 -0.75,-0.8125 -2.15625,-0.8125 -1.03125,0 -1.95312,0.54688 -0.92188,0.54687 -1.3125,1.46875 -0.39063,0.92187 -0.39063,2.54687 v 7.5625 z m 23.85621,-1.70312 q -1.3125,1.10937 -2.51563,1.5625 -1.20312,0.45312 -2.57812,0.45312 -2.28125,0 -3.5,-1.10937 -1.21875,-1.10938 -1.21875,-2.84375 0,-1.01563 0.45312,-1.85938 0.46875,-0.84375 1.21875,-1.34375 0.75,-0.51562 1.6875,-0.76562 0.6875,-0.1875 2.07813,-0.35938 2.82812,-0.32812 4.17187,-0.79687 0.0156,-0.48438 0.0156,-0.625 0,-1.42188 -0.65625,-2.01563 -0.90625,-0.79687 -2.67188,-0.79687 -1.65625,0 -2.45312,0.59375 -0.78125,0.57812 -1.15625,2.04687 l -2.29688,-0.3125 q 0.3125,-1.46875 1.03125,-2.375 0.71875,-0.90625 2.0625,-1.39062 1.35938,-0.5 3.14063,-0.5 1.78125,0 2.875,0.42187 1.10937,0.42188 1.625,1.04688 0.53125,0.625 0.73437,1.59375 0.125,0.59375 0.125,2.15625 v 3.125 q 0,3.26562 0.14063,4.14062 0.15625,0.85938 0.59375,1.65625 h -2.4375 q -0.375,-0.73437 -0.46875,-1.70312 z m -0.20313,-5.23438 q -1.26562,0.51563 -3.82812,0.89063 -1.4375,0.20312 -2.04688,0.46875 -0.59375,0.25 -0.92187,0.75 -0.3125,0.5 -0.3125,1.125 0,0.9375 0.70312,1.5625 0.70313,0.625 2.07813,0.625 1.34375,0 2.39062,-0.59375 1.0625,-0.59375 1.5625,-1.625 0.375,-0.79688 0.375,-2.34375 z m 5.57489,8.07813 2.28125,0.34375 q 0.14063,1.04687 0.79688,1.53125 0.85937,0.65625 2.375,0.65625 1.625,0 2.5,-0.65625 0.89062,-0.64063 1.20312,-1.8125 0.1875,-0.71875 0.17188,-3.01563 -1.53125,1.8125 -3.82813,1.8125 -2.84375,0 -4.40625,-2.04687 -1.5625,-2.0625 -1.5625,-4.9375 0,-1.98438 0.71875,-3.65625 0.71875,-1.67188 2.07813,-2.57813 1.35937,-0.92187 3.1875,-0.92187 2.45312,0 4.03125,1.98437 v -1.67187 h 2.17187 v 11.95312 q 0,3.23438 -0.65625,4.57813 -0.65625,1.34375 -2.09375,2.125 -1.42187,0.78125 -3.5,0.78125 -2.46875,0 -4,-1.10938 -1.51562,-1.10937 -1.46875,-3.35937 z m 1.9375,-8.29688 q 0,2.71875 1.07813,3.96875 1.07812,1.25 2.70312,1.25 1.625,0 2.71875,-1.23437 1.09375,-1.25 1.09375,-3.90625 0,-2.54688 -1.125,-3.82813 -1.125,-1.29687 -2.71875,-1.29687 -1.5625,0 -2.65625,1.28125 -1.09375,1.26562 -1.09375,3.76562 z m 22.77808,2.70313 2.42187,0.29687 q -0.57812,2.125 -2.125,3.29688 -1.54687,1.17187 -3.95312,1.17187 -3.03125,0 -4.8125,-1.85937 -1.78125,-1.875 -1.78125,-5.25 0,-3.48438 1.79687,-5.40625 1.79688,-1.9375 4.67188,-1.9375 2.76562,0 4.51562,1.89062 1.76563,1.89063 1.76563,5.3125 0,0.20313 -0.0156,0.625 h -10.3125 q 0.14063,2.28125 1.29688,3.5 1.15625,1.20313 2.89062,1.20313 1.28125,0 2.1875,-0.67188 0.92188,-0.6875 1.45313,-2.17187 z m -7.6875,-3.78125 h 7.71875 q -0.15625,-1.75 -0.89063,-2.625 -1.125,-1.34375 -2.90625,-1.34375 -1.60937,0 -2.71875,1.07812 -1.09375,1.07813 -1.20312,2.89063 z m 21.10589,-2.92188 v -2.67187 h 2.67188 v 2.67187 z m 0,11.15625 v -2.67187 h 2.67188 v 2.67187 z m 23.18695,-1.70312 q -1.3125,1.10937 -2.51562,1.5625 -1.20313,0.45312 -2.57813,0.45312 -2.28125,0 -3.5,-1.10937 -1.21875,-1.10938 -1.21875,-2.84375 0,-1.01563 0.45313,-1.85938 0.46875,-0.84375 1.21875,-1.34375 0.75,-0.51562 1.6875,-0.76562 0.6875,-0.1875 2.07812,-0.35938 2.82813,-0.32812 4.17188,-0.79687 0.0156,-0.48438 0.0156,-0.625 0,-1.42188 -0.65625,-2.01563 -0.90625,-0.79687 -2.67187,-0.79687 -1.65625,0 -2.45313,0.59375 -0.78125,0.57812 -1.15625,2.04687 l -2.29687,-0.3125 q 0.3125,-1.46875 1.03125,-2.375 0.71875,-0.90625 2.0625,-1.39062 1.35937,-0.5 3.14062,-0.5 1.78125,0 2.875,0.42187 1.10938,0.42188 1.625,1.04688 0.53125,0.625 0.73438,1.59375 0.125,0.59375 0.125,2.15625 v 3.125 q 0,3.26562 0.14062,4.14062 0.15625,0.85938 0.59375,1.65625 h -2.4375 q -0.375,-0.73437 -0.46875,-1.70312 z m -0.20312,-5.23438 q -1.26563,0.51563 -3.82813,0.89063 -1.4375,0.20312 -2.04687,0.46875 -0.59375,0.25 -0.92188,0.75 -0.3125,0.5 -0.3125,1.125 0,0.9375 0.70313,1.5625 0.70312,0.625 2.07812,0.625 1.34375,0 2.39063,-0.59375 1.0625,-0.59375 1.5625,-1.625 0.375,-0.79688 0.375,-2.34375 z"
       fill-rule="nonzero"
       id="path1049" />
    <path
       fill="#cfe2f3"
       d="M 407.17322,477.45386 H 616.8924 v 35.39893 H 407.17322 Z"
       fill-rule="evenodd"
       id="path1051" />
    <path
       stroke="#000000"
       stroke-width="1"
       stroke-linejoin="round"
       stroke-linecap="butt"
       d="M 407.17322,477.45386 H 616.8924 v 35.39893 H 407.17322 Z"
       fill-rule="evenodd"
       id="path1053" />
    <path
       fill="#000000"
       d="m 477.60385,503.0502 q -1.3125,1.10938 -2.51562,1.5625 -1.20313,0.45313 -2.57813,0.45313 -2.28125,0 -3.5,-1.10938 -1.21875,-1.10937 -1.21875,-2.84375 0,-1.01562 0.45313,-1.85937 0.46875,-0.84375 1.21875,-1.34375 0.75,-0.51563 1.6875,-0.76563 0.6875,-0.1875 2.07812,-0.35937 2.82813,-0.32813 4.17188,-0.79688 0.0156,-0.48437 0.0156,-0.625 0,-1.42187 -0.65625,-2.01562 -0.90625,-0.79688 -2.67187,-0.79688 -1.65625,0 -2.45313,0.59375 -0.78125,0.57813 -1.15625,2.04688 l -2.29687,-0.3125 q 0.3125,-1.46875 1.03125,-2.375 0.71875,-0.90625 2.0625,-1.39063 1.35937,-0.5 3.14062,-0.5 1.78125,0 2.875,0.42188 1.10938,0.42187 1.625,1.04687 0.53125,0.625 0.73438,1.59375 0.125,0.59375 0.125,2.15625 v 3.125 q 0,3.26563 0.14062,4.14063 0.15625,0.85937 0.59375,1.65625 h -2.4375 q -0.375,-0.73438 -0.46875,-1.70313 z m -0.20312,-5.23437 q -1.26563,0.51562 -3.82813,0.89062 -1.4375,0.20313 -2.04687,0.46875 -0.59375,0.25 -0.92188,0.75 -0.3125,0.5 -0.3125,1.125 0,0.9375 0.70313,1.5625 0.70312,0.625 2.07812,0.625 1.34375,0 2.39063,-0.59375 1.0625,-0.59375 1.5625,-1.625 0.375,-0.79687 0.375,-2.34375 z m 25.73089,-4.28125 h -12.59375 v -2.1875 h 12.59375 z m 0,5.79687 h -12.59375 v -2.1875 h 12.59375 z m 19.67593,3.71875 q -1.3125,1.10938 -2.51562,1.5625 -1.20313,0.45313 -2.57813,0.45313 -2.28125,0 -3.5,-1.10938 -1.21875,-1.10937 -1.21875,-2.84375 0,-1.01562 0.45313,-1.85937 0.46875,-0.84375 1.21875,-1.34375 0.75,-0.51563 1.6875,-0.76563 0.6875,-0.1875 2.07812,-0.35937 2.82813,-0.32813 4.17188,-0.79688 0.0156,-0.48437 0.0156,-0.625 0,-1.42187 -0.65625,-2.01562 -0.90625,-0.79688 -2.67187,-0.79688 -1.65625,0 -2.45313,0.59375 -0.78125,0.57813 -1.15625,2.04688 l -2.29687,-0.3125 q 0.3125,-1.46875 1.03125,-2.375 0.71875,-0.90625 2.0625,-1.39063 1.35937,-0.5 3.14062,-0.5 1.78125,0 2.875,0.42188 1.10938,0.42187 1.625,1.04687 0.53125,0.625 0.73438,1.59375 0.125,0.59375 0.125,2.15625 v 3.125 q 0,3.26563 0.14062,4.14063 0.15625,0.85937 0.59375,1.65625 h -2.4375 q -0.375,-0.73438 -0.46875,-1.70313 z m -0.20312,-5.23437 q -1.26563,0.51562 -3.82813,0.89062 -1.4375,0.20313 -2.04687,0.46875 -0.59375,0.25 -0.92188,0.75 -0.3125,0.5 -0.3125,1.125 0,0.9375 0.70313,1.5625 0.70312,0.625 2.07812,0.625 1.34375,0 2.39063,-0.59375 1.0625,-0.59375 1.5625,-1.625 0.375,-0.79687 0.375,-2.34375 z m 10.9187,3.85937 v -5.23437 h -5.1875 v -2.1875 h 5.1875 v -5.20313 h 2.21875 v 5.20313 h 5.1875 v 2.1875 h -5.1875 v 5.23437 z m 18.83246,3.07813 h -2.34375 v -14.92188 q -0.85938,0.79688 -2.23438,1.60938 -1.35937,0.79687 -2.45312,1.20312 v -2.26562 q 1.96875,-0.92188 3.4375,-2.23438 1.46875,-1.3125 2.07812,-2.54687 h 1.51563 z"
       fill-rule="nonzero"
       id="path1055" />
    <path
       fill="#000000"
       fill-opacity="0"
       d="m 260.9357,115.52231 v 27.18111"
       fill-rule="evenodd"
       id="path1057" />
    <path
       stroke="#000000"
       stroke-width="1"
       stroke-linejoin="round"
       stroke-linecap="butt"
       d="m 260.9357,115.52231 v 21.18111"
       fill-rule="evenodd"
       id="path1059" />
    <path
       fill="#000000"
       stroke="#000000"
       stroke-width="1"
       stroke-linecap="butt"
       d="m 259.28397,136.70341 1.65173,4.5381 1.65174,-4.5381 z"
       fill-rule="evenodd"
       id="path1061" />
    <path
       fill="#000000"
       fill-opacity="0"
       d="m 260.94095,169.88452 v 26.67715"
       fill-rule="evenodd"
       id="path1063" />
    <path
       stroke="#000000"
       stroke-width="1"
       stroke-linejoin="round"
       stroke-linecap="butt"
       d="m 260.94095,169.88452 v 20.67715"
       fill-rule="evenodd"
       id="path1065" />
    <path
       fill="#000000"
       stroke="#000000"
       stroke-width="1"
       stroke-linecap="butt"
       d="m 259.2892,190.56168 1.65173,4.5381 1.65174,-4.5381 z"
       fill-rule="evenodd"
       id="path1067" />
    <path
       fill="#000000"
       fill-opacity="0"
       d="m 260.94095,231.97244 v 26.67715"
       fill-rule="evenodd"
       id="path1069" />
    <path
       stroke="#000000"
       stroke-width="1"
       stroke-linejoin="round"
       stroke-linecap="butt"
       d="m 260.94095,231.97244 v 20.67717"
       fill-rule="evenodd"
       id="path1071" />
    <path
       fill="#000000"
       stroke="#000000"
       stroke-width="1"
       stroke-linecap="butt"
       d="m 259.2892,252.64961 1.65173,4.5381 1.65174,-4.5381 z"
       fill-rule="evenodd"
       id="path1073" />
    <path
       fill="#000000"
       fill-opacity="0"
       d="M 260.9357,285.84354 V 311.6073"
       fill-rule="evenodd"
       id="path1075" />
    <path
       stroke="#000000"
       stroke-width="1"
       stroke-linejoin="round"
       stroke-linecap="butt"
       d="M 260.9357,285.84354 V 305.6073"
       fill-rule="evenodd"
       id="path1077" />
    <path
       fill="#000000"
       stroke="#000000"
       stroke-width="1"
       stroke-linecap="butt"
       d="m 259.28397,305.6073 1.65173,4.53812 1.65174,-4.53812 z"
       fill-rule="evenodd"
       id="path1079" />
    <path
       fill="#000000"
       fill-opacity="0"
       d="m 350.33334,383.41995 h 74.77164"
       fill-rule="evenodd"
       id="path1081" />
    <path
       stroke="#000000"
       stroke-width="1"
       stroke-linejoin="round"
       stroke-linecap="butt"
       d="m 350.33334,383.41995 h 68.77164"
       fill-rule="evenodd"
       id="path1083" />
    <path
       fill="#000000"
       stroke="#000000"
       stroke-width="1"
       stroke-linecap="butt"
       d="m 419.10498,385.0717 4.53812,-1.65173 -4.53812,-1.65174 z"
       fill-rule="evenodd"
       id="path1085" />
    <path
       fill="#000000"
       fill-opacity="0"
       d="m 511.21127,411.5315 0.81894,65.92126"
       fill-rule="evenodd"
       id="path1087" />
    <path
       stroke="#000000"
       stroke-width="1"
       stroke-linejoin="round"
       stroke-linecap="butt"
       d="m 511.21127,411.5315 0.74438,59.92172"
       fill-rule="evenodd"
       id="path1089" />
    <path
       fill="#000000"
       stroke="#000000"
       stroke-width="1"
       stroke-linecap="butt"
       d="m 510.30405,471.47372 1.70798,4.51724 1.59521,-4.55826 z"
       fill-rule="evenodd"
       id="path1091" />
    <path
       fill="#000000"
       fill-opacity="0"
       d="M 407.17322,495.15332 H 260.93702 V 455.24783"
       fill-rule="evenodd"
       id="path1093" />
    <path
       stroke="#000000"
       stroke-width="1"
       stroke-linejoin="round"
       stroke-linecap="butt"
       d="M 407.17322,495.15335 H 260.93702 V 461.24783"
       fill-rule="evenodd"
       id="path1095" />
    <path
       fill="#000000"
       stroke="#000000"
       stroke-width="1"
       stroke-linecap="butt"
       d="m 262.58875,461.24783 -1.65173,-4.53812 -1.65174,4.53812 z"
       fill-rule="evenodd"
       id="path1097" />
    <path
       fill="#000000"
       fill-opacity="0"
       d="m 350.33334,349.53018 h 81.19684 v 42.01575 h -81.19684 z"
       fill-rule="evenodd"
       id="path1099" />
    <path
       fill="#000000"
       d="m 364.1771,376.4502 v -11.78125 h -4.40625 v -1.57813 h 10.57812 v 1.57813 h -4.40625 v 11.78125 z m 7.07828,0 v -9.67188 h 1.46875 v 1.46875 q 0.5625,-1.03125 1.03125,-1.35937 0.48437,-0.32813 1.0625,-0.32813 0.82812,0 1.6875,0.53125 l -0.5625,1.51563 q -0.60938,-0.35938 -1.20313,-0.35938 -0.54687,0 -0.96875,0.32813 -0.42187,0.32812 -0.60937,0.89062 -0.28125,0.875 -0.28125,1.92188 v 5.0625 z m 12.55642,0 v -1.42188 q -1.125,1.64063 -3.0625,1.64063 -0.85937,0 -1.60937,-0.32813 -0.73438,-0.32812 -1.09375,-0.82812 -0.35938,-0.5 -0.5,-1.21875 -0.10938,-0.46875 -0.10938,-1.53125 v -5.98438 h 1.64063 v 5.35938 q 0,1.28125 0.10937,1.73437 0.15625,0.64063 0.65625,1.01563 0.5,0.375 1.23438,0.375 0.73437,0 1.375,-0.375 0.65625,-0.39063 0.92187,-1.03125 0.26563,-0.65625 0.26563,-1.89063 v -5.1875 h 1.64062 v 9.67188 z m 10.67258,-3.10938 1.6875,0.20313 q -0.40625,1.48437 -1.48437,2.3125 -1.07813,0.8125 -2.76563,0.8125 -2.125,0 -3.375,-1.29688 -1.23437,-1.3125 -1.23437,-3.67187 0,-2.45313 1.25,-3.79688 1.26562,-1.34375 3.26562,-1.34375 1.9375,0 3.15625,1.32813 1.23438,1.3125 1.23438,3.70312 0,0.15625 0,0.4375 h -7.21875 q 0.0937,1.59375 0.90625,2.45313 0.8125,0.84375 2.01562,0.84375 0.90625,0 1.54688,-0.46875 0.64062,-0.48438 1.01562,-1.51563 z m -5.39062,-2.65625 h 5.40625 q -0.10938,-1.21875 -0.625,-1.82812 -0.78125,-0.95313 -2.03125,-0.95313 -1.125,0 -1.90625,0.76563 -0.76563,0.75 -0.84375,2.01562 z"
       fill-rule="nonzero"
       id="path1101" />
    <path
       fill="#000000"
       fill-opacity="0"
       d="m 171.54068,383.41995 h -24.99994 v 168.22049 h 53.50388"
       fill-rule="evenodd"
       id="path1103" />
    <path
       stroke="#000000"
       stroke-width="1"
       stroke-linejoin="round"
       stroke-linecap="butt"
       d="m 171.54068,383.41995 h -24.99994 v 168.22049 h 53.50388"
       fill-rule="evenodd"
       id="path1105" />
    <path
       fill="#000000"
       fill-opacity="0"
       d="m 72.49344,383.41995 h 74.04724 V 425.4357 H 72.49344 Z"
       fill-rule="evenodd"
       id="path1107" />
    <path
       fill="#000000"
       d="m 83.02469,410.33994 v -13.35937 h 9.015625 v 1.57812 h -7.25 v 4.14063 h 6.265625 v 1.57812 h -6.265625 v 6.0625 z m 17.41161,-1.1875 q -0.921879,0.76563 -1.765629,1.09375 -0.828125,0.3125 -1.796875,0.3125 -1.59375,0 -2.453125,-0.78125 -0.859375,-0.78125 -0.859375,-1.98437 0,-0.71875 0.328125,-1.29688 0.328125,-0.59375 0.84375,-0.9375 0.53125,-0.35937 1.1875,-0.54687 0.46875,-0.125 1.453125,-0.25 1.984375,-0.23438 2.921874,-0.5625 0.0156,-0.34375 0.0156,-0.42188 0,-1 -0.468754,-1.42187 -0.625,-0.54688 -1.875,-0.54688 -1.15625,0 -1.703125,0.40625 -0.546875,0.40625 -0.8125,1.42188 l -1.609375,-0.21875 q 0.21875,-1.01563 0.71875,-1.64063 0.5,-0.64062 1.453125,-0.98437 0.953125,-0.34375 2.1875,-0.34375 1.25,0 2.015629,0.29687 0.78125,0.28125 1.14062,0.73438 0.375,0.4375 0.51563,1.10937 0.0781,0.42188 0.0781,1.51563 v 2.1875 q 0,2.28125 0.10938,2.89062 0.10937,0.59375 0.40625,1.15625 h -1.70313 q -0.26562,-0.51562 -0.32812,-1.1875 z m -0.14063,-3.67187 q -0.890624,0.375 -2.671874,0.625 -1.015625,0.14062 -1.4375,0.32812 -0.421875,0.1875 -0.65625,0.53125 -0.21875,0.34375 -0.21875,0.78125 0,0.65625 0.5,1.09375 0.5,0.4375 1.453125,0.4375 0.9375,0 1.671875,-0.40625 0.75,-0.42187 1.093754,-1.14062 0.26562,-0.5625 0.26562,-1.64063 z m 4.15697,4.85937 v -13.35937 h 1.64062 v 13.35937 z m 3.53544,-2.89062 1.625,-0.25 q 0.125,0.96875 0.75,1.5 0.625,0.51562 1.75,0.51562 1.125,0 1.67188,-0.45312 0.54687,-0.46875 0.54687,-1.09375 0,-0.54688 -0.48437,-0.875 -0.32813,-0.21875 -1.67188,-0.54688 -1.8125,-0.46875 -2.51562,-0.79687 -0.6875,-0.32813 -1.04688,-0.90625 -0.35937,-0.59375 -0.35937,-1.3125 0,-0.64063 0.29687,-1.1875 0.29688,-0.5625 0.8125,-0.92188 0.375,-0.28125 1.03125,-0.46875 0.67188,-0.20312 1.42188,-0.20312 1.14062,0 2,0.32812 0.85937,0.32813 1.26562,0.89063 0.42188,0.5625 0.57813,1.5 l -1.60938,0.21875 q -0.10937,-0.75 -0.64062,-1.17188 -0.51563,-0.42187 -1.46875,-0.42187 -1.14063,0 -1.625,0.375 -0.46875,0.375 -0.46875,0.875 0,0.3125 0.1875,0.57812 0.20312,0.26563 0.64062,0.4375 0.23438,0.0937 1.4375,0.42188 1.75,0.45312 2.4375,0.75 0.6875,0.29687 1.07813,0.85937 0.39062,0.5625 0.39062,1.40625 0,0.82813 -0.48437,1.54688 -0.46875,0.71875 -1.375,1.125 -0.90625,0.39062 -2.04688,0.39062 -1.875,0 -2.875,-0.78125 -0.98437,-0.78125 -1.25,-2.32812 z m 16.60938,-0.21875 1.6875,0.20312 q -0.40625,1.48438 -1.48438,2.3125 -1.07812,0.8125 -2.76562,0.8125 -2.125,0 -3.375,-1.29687 -1.23438,-1.3125 -1.23438,-3.67188 0,-2.45312 1.25,-3.79687 1.26563,-1.34375 3.26563,-1.34375 1.9375,0 3.15625,1.32812 1.23437,1.3125 1.23437,3.70313 0,0.15625 0,0.4375 h -7.21875 q 0.0937,1.59375 0.90625,2.45312 0.8125,0.84375 2.01563,0.84375 0.90625,0 1.54687,-0.46875 0.64063,-0.48437 1.01563,-1.51562 z m -5.39063,-2.65625 h 5.40625 q -0.10937,-1.21875 -0.625,-1.82813 -0.78125,-0.95312 -2.03125,-0.95312 -1.125,0 -1.90625,0.76562 -0.76562,0.75 -0.84375,2.01563 z"
       fill-rule="nonzero"
       id="path1109" />
    <path
       fill="#000000"
       fill-opacity="0"
       d="m 146.88846,551.8255 53.16534,-0.18896"
       fill-rule="evenodd"
       id="path1111" />
    <path
       stroke="#000000"
       stroke-width="1"
       stroke-linejoin="round"
       stroke-linecap="butt"
       d="m 146.88846,551.8255 47.16539,-0.16766"
       fill-rule="evenodd"
       id="path1113" />
    <path
       fill="#000000"
       stroke="#000000"
       stroke-width="1"
       stroke-linecap="butt"
       d="m 194.05971,553.3096 4.53221,-1.66785 -4.54394,-1.63562 z"
       fill-rule="evenodd"
       id="path1115" />
  </g>
</svg>
