<?xml version="1.0" encoding="UTF-8" standalone="no"?>
<svg
   xmlns:dc="http://purl.org/dc/elements/1.1/"
   xmlns:cc="http://creativecommons.org/ns#"
   xmlns:rdf="http://www.w3.org/1999/02/22-rdf-syntax-ns#"
   xmlns:svg="http://www.w3.org/2000/svg"
   xmlns="http://www.w3.org/2000/svg"
   xmlns:sodipodi="http://sodipodi.sourceforge.net/DTD/sodipodi-0.dtd"
   xmlns:inkscape="http://www.inkscape.org/namespaces/inkscape"
   version="1.1"
   viewBox="0 0 789.2348 459.13758"
   fill="none"
   stroke="none"
   stroke-linecap="square"
   stroke-miterlimit="10"
   id="svg2237"
   sodipodi:docname="Flowchart-arrays-write.svg"
   width="789.2348"
   height="459.13757"
   inkscape:version="1.0.2-2 (e86c870879, 2021-01-15)">
  <metadata
     id="metadata2243">
    <rdf:RDF>
      <cc:Work
         rdf:about="">
        <dc:format>image/svg+xml</dc:format>
        <dc:type
           rdf:resource="http://purl.org/dc/dcmitype/StillImage" />
        <dc:title></dc:title>
      </cc:Work>
    </rdf:RDF>
  </metadata>
  <defs
     id="defs2241" />
  <sodipodi:namedview
     pagecolor="#ffffff"
     bordercolor="#666666"
     borderopacity="1"
     objecttolerance="10"
     gridtolerance="10"
     guidetolerance="10"
     inkscape:pageopacity="0"
     inkscape:pageshadow="2"
     inkscape:window-width="1920"
     inkscape:window-height="1017"
     id="namedview2239"
     showgrid="false"
     fit-margin-top="0"
     fit-margin-left="0"
     fit-margin-right="0"
     fit-margin-bottom="0"
     inkscape:zoom="0.80789571"
     inkscape:cx="292.8213"
     inkscape:cy="110.92707"
     inkscape:window-x="-8"
     inkscape:window-y="-8"
     inkscape:window-maximized="1"
     inkscape:current-layer="svg2237"
     inkscape:document-rotation="0" />
  <clipPath
     id="p.0">
    <path
       d="M 0,0 H 960 V 720 H 0 Z"
       clip-rule="nonzero"
       id="path2130" />
  </clipPath>
  <path
     fill="#000000"
     fill-opacity="0"
     d="M -61.413839,-2.9142553 H 898.58617 V 717.08574 H -61.413839 Z"
     fill-rule="evenodd"
     id="path2133" />
  <path
     fill="#cfe2f3"
     d="m 134.23336,0.5 h 82.58986 v 0 c 10.81949,0 19.59042,12.76348 19.59042,28.508034 0,15.744549 -8.77093,28.50803 -19.59042,28.50803 h -82.58986 v 0 c -10.81949,0 -19.59042,-12.763481 -19.59042,-28.50803 C 114.64294,13.263481 123.41387,0.5 134.23336,0.5 Z"
     fill-rule="evenodd"
     id="path2135" />
  <path
     stroke="#000000"
     stroke-width="1"
     stroke-linejoin="round"
     stroke-linecap="butt"
     d="m 134.23336,0.5 h 82.58986 v 0 c 10.81949,0 19.59042,12.76348 19.59042,28.508034 0,15.744549 -8.77093,28.50803 -19.59042,28.50803 h -82.58986 v 0 c -10.81949,0 -19.59042,-12.763481 -19.59042,-28.50803 C 114.64294,13.263481 123.41387,0.5 134.23336,0.5 Z"
     fill-rule="evenodd"
     id="path2137" />
  <path
     fill="#000000"
     d="M 137.58689,38.60803 V 19.529905 h 6.5625 q 2.23437,0 3.40625,0.265625 1.64062,0.375 2.79687,1.375 1.5,1.265625 2.25,3.25 0.75,1.984375 0.75,4.546875 0,2.171875 -0.51562,3.859375 -0.5,1.671875 -1.29688,2.78125 -0.78125,1.09375 -1.73437,1.71875 -0.9375,0.625 -2.28125,0.953125 -1.32813,0.328125 -3.0625,0.328125 z m 2.51562,-2.25 h 4.07813 q 1.89062,0 2.95312,-0.34375 1.07813,-0.359375 1.71875,-1 0.89063,-0.890625 1.39063,-2.40625 0.51562,-1.515625 0.51562,-3.6875 0,-2.984375 -0.98437,-4.59375 -0.98438,-1.609375 -2.39063,-2.15625 -1.01562,-0.390625 -3.26562,-0.390625 h -4.01563 z m 25.89092,-2.203125 2.42187,0.296875 q -0.57812,2.125 -2.125,3.296875 -1.54687,1.171875 -3.95312,1.171875 -3.03125,0 -4.8125,-1.859375 -1.78125,-1.875 -1.78125,-5.25 0,-3.484375 1.79687,-5.40625 1.79688,-1.9375 4.67188,-1.9375 2.76562,0 4.51562,1.890625 1.76563,1.890625 1.76563,5.3125 0,0.203125 -0.0156,0.625 h -10.3125 q 0.14063,2.28125 1.29688,3.5 1.15625,1.203125 2.89062,1.203125 1.28125,0 2.1875,-0.671875 0.92188,-0.6875 1.45313,-2.171875 z m -7.6875,-3.78125 h 7.71875 q -0.15625,-1.75 -0.89063,-2.625 -1.125,-1.34375 -2.90625,-1.34375 -1.60937,0 -2.71875,1.078125 -1.09375,1.078125 -1.20312,2.890625 z m 2.51562,-7.3125 1.73438,-3.640625 h 3.0625 l -2.85938,3.640625 z m 10.52807,20.84375 v -19.125 h 2.14062 v 1.796875 q 0.75,-1.046875 1.70313,-1.578125 0.95312,-0.53125 2.3125,-0.53125 1.76562,0 3.10937,0.921875 1.35938,0.90625 2.04688,2.5625 0.6875,1.65625 0.6875,3.640625 0,2.125 -0.76563,3.828125 -0.75,1.6875 -2.20312,2.59375 -1.45313,0.90625 -3.04688,0.90625 -1.17187,0 -2.10937,-0.484375 -0.92188,-0.5 -1.53125,-1.265625 v 6.734375 z m 2.125,-12.125 q 0,2.65625 1.07812,3.9375 1.09375,1.28125 2.625,1.28125 1.5625,0 2.67188,-1.3125 1.10937,-1.328125 1.10937,-4.109375 0,-2.640625 -1.09375,-3.953125 -1.07812,-1.3125 -2.59375,-1.3125 -1.48437,0 -2.64062,1.40625 -1.15625,1.390625 -1.15625,4.0625 z m 21.73118,5.125 q -1.3125,1.109375 -2.51562,1.5625 -1.20313,0.453125 -2.57813,0.453125 -2.28125,0 -3.5,-1.109375 -1.21875,-1.109375 -1.21875,-2.84375 0,-1.015625 0.45313,-1.859375 0.46875,-0.84375 1.21875,-1.34375 0.75,-0.515625 1.6875,-0.765625 0.6875,-0.1875 2.07812,-0.359375 2.82813,-0.328125 4.17188,-0.796875 0.0156,-0.484375 0.0156,-0.625 0,-1.421875 -0.65625,-2.015625 -0.90625,-0.796875 -2.67187,-0.796875 -1.65625,0 -2.45313,0.59375 -0.78125,0.578125 -1.15625,2.046875 l -2.29687,-0.3125 q 0.3125,-1.46875 1.03125,-2.375 0.71875,-0.90625 2.0625,-1.390625 1.35937,-0.5 3.14062,-0.5 1.78125,0 2.875,0.421875 1.10938,0.421875 1.625,1.046875 0.53125,0.625 0.73438,1.59375 0.125,0.59375 0.125,2.15625 v 3.125 q 0,3.265625 0.14062,4.140625 0.15625,0.859375 0.59375,1.65625 h -2.4375 q -0.375,-0.734375 -0.46875,-1.703125 z m -0.20312,-5.234375 q -1.26563,0.515625 -3.82813,0.890625 -1.4375,0.203125 -2.04687,0.46875 -0.59375,0.25 -0.92188,0.75 -0.3125,0.5 -0.3125,1.125 0,0.9375 0.70313,1.5625 0.70312,0.625 2.07812,0.625 1.34375,0 2.39063,-0.59375 1.0625,-0.59375 1.5625,-1.625 0.375,-0.796875 0.375,-2.34375 z m 5.98118,6.9375 V 24.779905 h 2.10938 v 2.09375 q 0.79687,-1.46875 1.48437,-1.9375 0.6875,-0.46875 1.5,-0.46875 1.1875,0 2.40625,0.765625 l -0.79687,2.171875 q -0.85938,-0.515625 -1.71875,-0.515625 -0.76563,0 -1.39063,0.46875 -0.60937,0.453125 -0.85937,1.28125 -0.39063,1.25 -0.39063,2.734375 v 7.234375 z m 14.01737,-2.09375 0.32812,2.0625 q -0.98437,0.21875 -1.76562,0.21875 -1.26563,0 -1.96875,-0.40625 -0.70313,-0.40625 -1,-1.0625 -0.28125,-0.65625 -0.28125,-2.765625 V 26.60803 h -1.71875 v -1.828125 h 1.71875 V 21.35803 l 2.32812,-1.40625 v 4.828125 h 2.35938 v 1.828125 h -2.35938 v 8.078125 q 0,1 0.125,1.296875 0.125,0.28125 0.40625,0.453125 0.28125,0.171875 0.79688,0.171875 0.39062,0 1.03125,-0.09375 z"
     fill-rule="nonzero"
     id="path2139" />
  <path
     fill="#cfe2f3"
     d="m 130.95512,401.62149 h 89.14583 v 0 c 11.67835,0 21.14551,12.76349 21.14551,28.50803 0,15.74456 -9.46716,28.50805 -21.14551,28.50805 h -89.14583 v 0 c -11.67834,0 -21.14551,-12.76349 -21.14551,-28.50805 0,-15.74454 9.46717,-28.50803 21.14551,-28.50803 z"
     fill-rule="evenodd"
     id="path2141" />
  <path
     stroke="#000000"
     stroke-width="1"
     stroke-linejoin="round"
     stroke-linecap="butt"
     d="m 130.95512,401.62149 h 89.14583 v 0 c 11.67835,0 21.14551,12.76349 21.14551,28.50803 0,15.74456 -9.46716,28.50805 -21.14551,28.50805 h -89.14583 v 0 c -11.67834,0 -21.14551,-12.76349 -21.14551,-28.50805 0,-15.74454 9.46717,-28.50803 21.14551,-28.50803 z"
     fill-rule="evenodd"
     id="path2143" />
  <path
     fill="#000000"
     d="M 159.20063,439.72953 V 420.6514 h 12.875 v 2.25 h -10.34375 v 5.90625 h 8.95312 v 2.25 h -8.95312 v 8.67188 z m 15.86082,-16.39063 v -2.6875 h 2.34375 v 2.6875 z m 0,16.39063 V 425.9014 h 2.34375 v 13.82813 z m 5.90654,0 V 425.9014 h 2.10938 v 1.96875 q 1.53125,-2.28125 4.40625,-2.28125 1.25,0 2.29687,0.45313 1.04688,0.45312 1.5625,1.1875 0.53125,0.71875 0.73438,1.71875 0.125,0.65625 0.125,2.28125 v 8.5 h -2.34375 v -8.40625 q 0,-1.4375 -0.28125,-2.14063 -0.26563,-0.71875 -0.96875,-1.14062 -0.6875,-0.42188 -1.625,-0.42188 -1.48438,0 -2.57813,0.95313 -1.09375,0.95312 -1.09375,3.60937 v 7.54688 z"
     fill-rule="nonzero"
     id="path2145" />
  <path
     fill="#cfe2f3"
     d="M 0.59197003,85.069022 H 348.74524 V 139.49422 H 0.59197003 Z"
     fill-rule="evenodd"
     id="path2147"
     style="stroke-width:1.18394" />
  <path
     fill="#000000"
     fill-opacity="0"
     d="M 31.638885,85.069022 V 139.49422 M 0.59197203,91.872172 H 248.9673"
     fill-rule="evenodd"
     id="path2149" />
  <path
     fill="#000000"
     fill-opacity="0"
     d="M 0.59197003,85.069022 H 248.9673 V 139.49422 H 0.59197003 Z"
     fill-rule="evenodd"
     id="path2151" />
  <path
     stroke="#000000"
     stroke-width="1.18303"
     stroke-linejoin="round"
     stroke-linecap="butt"
     d="M 44.04384,85.069022 V 139.49422 M 0.59197203,91.872172 H 348.20696"
     fill-rule="evenodd"
     id="path2153" />
  <path
     stroke="#000000"
     stroke-width="1.18394"
     stroke-linejoin="round"
     stroke-linecap="butt"
     d="M 0.59197003,85.069022 H 348.74524 V 139.49422 H 0.59197003 Z"
     fill-rule="evenodd"
     id="path2155" />
  <path
     fill="#000000"
     fill-opacity="0"
     d="M 175.5283,57.51606 V 84.44519"
     fill-rule="evenodd"
     id="path2165" />
  <path
     stroke="#000000"
     stroke-width="1"
     stroke-linejoin="round"
     stroke-linecap="butt"
     d="M 175.5283,57.51606 V 78.445198"
     fill-rule="evenodd"
     id="path2167" />
  <path
     fill="#000000"
     stroke="#000000"
     stroke-width="1"
     stroke-linecap="butt"
     d="m 173.87656,78.4452 1.65173,4.538094 1.65174,-4.538094 z"
     fill-rule="evenodd"
     id="path2169" />
  <path
     fill="#000000"
     fill-opacity="0"
     d="m 128.493,147.53981 v 29.51181"
     fill-rule="evenodd"
     id="path2171" />
  <path
     fill="#cfe2f3"
     d="M 2.270229,171.89389 H 348.79253 v 43.37009 H 2.270229 Z"
     fill-rule="evenodd"
     id="path2177" />
  <path
     stroke="#000000"
     stroke-width="1"
     stroke-linejoin="round"
     stroke-linecap="butt"
     d="M 2.270229,171.89389 H 348.79253 v 43.37009 H 2.270229 Z"
     fill-rule="evenodd"
     id="path2179" />
  <path
     fill="#000000"
     d="m 76.850125,203.17893 h -2.17188 V 184.1008 h 2.34375 v 6.79688 q 1.48438,-1.85938 3.78125,-1.85938 1.28125,0 2.40625,0.51563 1.14063,0.51562 1.875,1.45312 0.75,0.92188 1.15625,2.25 0.42188,1.3125 0.42188,2.79688 0,3.5625 -1.76563,5.5 -1.75,1.9375 -4.21875,1.9375 -2.4375,0 -3.82812,-2.04688 z m -0.0312,-7.01563 q 0,2.48438 0.67187,3.59375 1.10938,1.8125 3,1.8125 1.53125,0 2.65625,-1.32812 1.125,-1.34375 1.125,-3.98438 0,-2.70312 -1.07812,-3.98437 -1.07813,-1.29688 -2.59375,-1.29688 -1.54688,0 -2.67188,1.32813 -1.10937,1.32812 -1.10937,3.85937 z m 11.82494,0.10938 q 0,-3.84375 2.125,-5.6875 1.78125,-1.54688 4.34375,-1.54688 2.85937,0 4.65625,1.875 1.812505,1.85938 1.812505,5.15625 0,2.67188 -0.79688,4.20313 -0.796875,1.53125 -2.328125,2.375 -1.53125,0.84375 -3.34375,0.84375 -2.89063,0 -4.6875,-1.85938 -1.78125,-1.85937 -1.78125,-5.35937 z m 2.40625,0 q 0,2.65625 1.15625,3.98437 1.15625,1.3125 2.90625,1.3125 1.75,0 2.90625,-1.32812 1.15625,-1.32813 1.15625,-4.04688 0,-2.5625 -1.17188,-3.89062 -1.15625,-1.32813 -2.89062,-1.32813 -1.75,0 -2.90625,1.32813 -1.15625,1.3125 -1.15625,3.96875 z m 11.715565,6.90625 5.0625,-7.1875 -4.67188,-6.64063 h 2.92188 l 2.125,3.25 q 0.59375,0.92188 0.96875,1.54688 0.5625,-0.85938 1.04687,-1.53125 l 2.32813,-3.26563 h 2.79688 l -4.78126,6.51563 5.15626,7.3125 h -2.89063 l -2.82813,-4.29688 -0.75,-1.15625 -3.64062,5.45313 z m 24.35938,-4.45313 2.42187,0.29688 q -0.57812,2.125 -2.125,3.29687 -1.54687,1.17188 -3.95312,1.17188 -3.03125,0 -4.8125,-1.85938 -1.78125,-1.875 -1.78125,-5.25 0,-3.48437 1.79687,-5.40625 1.79688,-1.9375 4.67188,-1.9375 2.76562,0 4.51562,1.89063 1.76563,1.89062 1.76563,5.3125 0,0.20312 -0.0156,0.625 h -10.3125 q 0.14063,2.28125 1.29688,3.5 1.15625,1.20312 2.89062,1.20312 1.28125,0 2.1875,-0.67187 0.92188,-0.6875 1.45313,-2.17188 z m -7.6875,-3.78125 h 7.71875 q -0.15625,-1.75 -0.89063,-2.625 -1.125,-1.34375 -2.90625,-1.34375 -1.60937,0 -2.71875,1.07813 -1.09375,1.07812 -1.20312,2.89062 z m 12.10619,4.10938 2.32812,-0.35938 q 0.1875,1.39063 1.07813,2.14063 0.89062,0.73437 2.5,0.73437 1.60937,0 2.39062,-0.65625 0.78125,-0.65625 0.78125,-1.54687 0,-0.79688 -0.6875,-1.25 -0.48437,-0.3125 -2.39062,-0.79688 -2.57813,-0.65625 -3.57813,-1.125 -1,-0.46875 -1.51562,-1.3125 -0.51563,-0.84375 -0.51563,-1.85937 0,-0.92188 0.42188,-1.70313 0.4375,-0.79687 1.15625,-1.3125 0.54687,-0.40625 1.48437,-0.6875 0.95313,-0.28125 2.03125,-0.28125 1.625,0 2.85938,0.46875 1.23437,0.46875 1.8125,1.28125 0.59375,0.79688 0.8125,2.14063 l -2.29688,0.3125 q -0.15625,-1.07813 -0.90625,-1.67188 -0.75,-0.59375 -2.10937,-0.59375 -1.60938,0 -2.3125,0.53125 -0.6875,0.53125 -0.6875,1.25 0,0.45313 0.29687,0.8125 0.28125,0.375 0.89063,0.625 0.35937,0.14063 2.07812,0.60938 2.48438,0.65625 3.46875,1.07812 0.98438,0.42188 1.53125,1.23438 0.5625,0.79687 0.5625,2 0,1.17187 -0.6875,2.21875 -0.67187,1.03125 -1.96875,1.59375 -1.28125,0.5625 -2.90625,0.5625 -2.70312,0 -4.125,-1.10938 -1.40625,-1.125 -1.79687,-3.32812 z m 14.32812,9.42187 v -24.375 h 5.15625 v 1.9375 h -2.8125 v 20.5 h 2.8125 v 1.9375 z m 6.70284,-14.70312 q 0,-3.39063 0.6875,-5.45313 0.70312,-2.0625 2.07812,-3.17187 1.375,-1.125 3.45313,-1.125 1.53125,0 2.6875,0.625 1.17187,0.60937 1.92187,1.78125 0.75,1.15625 1.17188,2.82812 0.4375,1.67188 0.4375,4.51563 0,3.35937 -0.6875,5.42187 -0.6875,2.0625 -2.0625,3.1875 -1.375,1.125 -3.46875,1.125 -2.76563,0 -4.32813,-1.98437 -1.89062,-2.375 -1.89062,-7.75 z m 2.40625,0 q 0,4.6875 1.09375,6.25 1.10937,1.5625 2.71875,1.5625 1.60937,0 2.70312,-1.5625 1.10938,-1.5625 1.10938,-6.25 0,-4.71875 -1.10938,-6.26563 -1.09375,-1.54687 -2.73437,-1.54687 -1.60938,0 -2.57813,1.35937 -1.20312,1.75 -1.20312,6.45313 z m 16.98118,14.70312 h -5.17187 v -1.9375 h 2.82812 v -20.5 h -2.82812 v -1.9375 h 5.17187 z m 23.21812,-16.51562 h -12.59375 v -2.1875 h 12.59375 z m 0,5.79687 h -12.59375 v -2.1875 h 12.59375 z m 12.48842,-10.45312 v 2.71875 h -2.51562 v -2.15625 q 0,-1.73438 0.42187,-2.51563 0.54688,-1.04687 1.73438,-1.57812 l 0.5625,0.90625 q -0.71875,0.29687 -1.0625,0.89062 -0.32813,0.59375 -0.35938,1.73438 z m 4.03125,0 v 2.71875 h -2.51562 v -2.15625 q 0,-1.73438 0.42187,-2.51563 0.54688,-1.04687 1.73438,-1.57812 l 0.5625,0.90625 q -0.70313,0.29687 -1.04688,0.89062 -0.34375,0.59375 -0.375,1.73438 z m 2.06424,11.75 2.32813,-0.35938 q 0.1875,1.39063 1.07812,2.14063 0.89063,0.73437 2.5,0.73437 1.60938,0 2.39063,-0.65625 0.78125,-0.65625 0.78125,-1.54687 0,-0.79688 -0.6875,-1.25 -0.48438,-0.3125 -2.39063,-0.79688 -2.57812,-0.65625 -3.57812,-1.125 -1,-0.46875 -1.51563,-1.3125 -0.51562,-0.84375 -0.51562,-1.85937 0,-0.92188 0.42187,-1.70313 0.4375,-0.79687 1.15625,-1.3125 0.54688,-0.40625 1.48438,-0.6875 0.95312,-0.28125 2.03125,-0.28125 1.625,0 2.85937,0.46875 1.23438,0.46875 1.8125,1.28125 0.59375,0.79688 0.8125,2.14063 l -2.29687,0.3125 q -0.15625,-1.07813 -0.90625,-1.67188 -0.75,-0.59375 -2.10938,-0.59375 -1.60937,0 -2.3125,0.53125 -0.6875,0.53125 -0.6875,1.25 0,0.45313 0.29688,0.8125 0.28125,0.375 0.89062,0.625 0.35938,0.14063 2.07813,0.60938 2.48437,0.65625 3.46875,1.07812 0.98437,0.42188 1.53125,1.23438 0.5625,0.79687 0.5625,2 0,1.17187 -0.6875,2.21875 -0.67188,1.03125 -1.96875,1.59375 -1.28125,0.5625 -2.90625,0.5625 -2.70313,0 -4.125,-1.10938 -1.40625,-1.125 -1.79688,-3.32812 z m 23.29688,2.42187 q -1.3125,1.10938 -2.51563,1.5625 -1.20312,0.45313 -2.57812,0.45313 -2.28125,0 -3.5,-1.10938 -1.21875,-1.10937 -1.21875,-2.84375 0,-1.01562 0.45312,-1.85937 0.46875,-0.84375 1.21875,-1.34375 0.75,-0.51563 1.6875,-0.76563 0.6875,-0.1875 2.07813,-0.35937 2.82812,-0.32813 4.17187,-0.79688 0.0156,-0.48437 0.0156,-0.625 0,-1.42187 -0.65625,-2.01562 -0.90625,-0.79688 -2.67188,-0.79688 -1.65625,0 -2.45312,0.59375 -0.78125,0.57813 -1.15625,2.04688 l -2.29688,-0.3125 q 0.3125,-1.46875 1.03125,-2.375 0.71875,-0.90625 2.0625,-1.39063 1.35938,-0.5 3.14063,-0.5 1.78125,0 2.875,0.42188 1.10937,0.42187 1.625,1.04687 0.53125,0.625 0.73437,1.59375 0.125,0.59375 0.125,2.15625 v 3.125 q 0,3.26563 0.14063,4.14063 0.15625,0.85937 0.59375,1.65625 h -2.4375 q -0.375,-0.73438 -0.46875,-1.70313 z m -0.20313,-5.23437 q -1.26562,0.51562 -3.82812,0.89062 -1.4375,0.20313 -2.04688,0.46875 -0.59375,0.25 -0.92187,0.75 -0.3125,0.5 -0.3125,1.125 0,0.9375 0.70312,1.5625 0.70313,0.625 2.07813,0.625 1.34375,0 2.39062,-0.59375 1.0625,-0.59375 1.5625,-1.625 0.375,-0.79687 0.375,-2.34375 z m 5.94994,6.9375 V 184.1008 h 2.34375 v 19.07813 z m 15.03152,0 v -2.03125 q -1.60937,2.34375 -4.375,2.34375 -1.23437,0 -2.29687,-0.46875 -1.0625,-0.46875 -1.57813,-1.17188 -0.5,-0.71875 -0.71875,-1.75 -0.14062,-0.6875 -0.14062,-2.1875 v -8.5625 h 2.34375 v 7.67188 q 0,1.82812 0.14062,2.46875 0.21875,0.92187 0.9375,1.45312 0.71875,0.53125 1.76563,0.53125 1.0625,0 1.98437,-0.53125 0.92188,-0.54687 1.29688,-1.46875 0.39062,-0.9375 0.39062,-2.71875 v -7.40625 h 2.34375 v 13.82813 z m 10.88745,-2.09375 0.32813,2.0625 q -0.98438,0.21875 -1.76563,0.21875 -1.26562,0 -1.96875,-0.40625 -0.70312,-0.40625 -1,-1.0625 -0.28125,-0.65625 -0.28125,-2.76563 v -7.95312 h -1.71875 v -1.82813 h 1.71875 v -3.42187 l 2.32813,-1.40625 v 4.82812 h 2.35937 v 1.82813 h -2.35937 v 8.07812 q 0,1 0.125,1.29688 0.125,0.28125 0.40625,0.45312 0.28125,0.17188 0.79687,0.17188 0.39063,0 1.03125,-0.0937 z m 1.65595,-14.46875 v -2.71875 h 2.51562 v 2.15625 q 0,1.73437 -0.40625,2.51562 -0.54687,1.04688 -1.73437,1.57813 l -0.57813,-0.92188 q 0.70313,-0.28125 1.04688,-0.89062 0.34375,-0.625 0.39062,-1.71875 z m 4.04687,0 v -2.71875 h 2.5 v 2.15625 q 0,1.73437 -0.39062,2.51562 -0.5625,1.04688 -1.75,1.57813 l -0.57813,-0.92188 q 0.70313,-0.28125 1.04688,-0.89062 0.35937,-0.625 0.39062,-1.71875 z"
     fill-rule="nonzero"
     id="path2181" />
  <path
     fill="#cfe2f3"
     d="M 2.270229,244.78897 H 348.79253 v 43.37006 H 2.270229 Z"
     fill-rule="evenodd"
     id="path2183" />
  <path
     stroke="#000000"
     stroke-width="1"
     stroke-linejoin="round"
     stroke-linecap="butt"
     d="M 2.270229,244.78897 H 348.79253 v 43.37006 H 2.270229 Z"
     fill-rule="evenodd"
     id="path2185" />
  <path
     fill="#000000"
     d="m 85.726865,276.074 h -2.17188 v -19.07812 h 2.34375 v 6.79687 q 1.48438,-1.85937 3.78125,-1.85937 1.28125,0 2.40625,0.51562 1.14063,0.51563 1.875,1.45313 0.75,0.92187 1.15625,2.25 0.42188,1.3125 0.42188,2.79687 0,3.5625 -1.76563,5.5 -1.75,1.9375 -4.21875,1.9375 -2.4375,0 -3.82812,-2.04687 z m -0.0312,-7.01562 q 0,2.48437 0.67187,3.59375 1.10938,1.8125 3,1.8125 1.53125,0 2.65625,-1.32813 1.125,-1.34375 1.125,-3.98437 0,-2.70313 -1.07812,-3.98438 -1.07813,-1.29687 -2.59375,-1.29687 -1.54688,0 -2.67188,1.32812 -1.10937,1.32813 -1.10937,3.85938 z m 11.82494,0.10937 q 0,-3.84375 2.125,-5.6875 1.781255,-1.54687 4.343755,-1.54687 2.85937,0 4.65625,1.875 1.8125,1.85937 1.8125,5.15625 0,2.67187 -0.79688,4.20312 -0.79687,1.53125 -2.32812,2.375 -1.53125,0.84375 -3.34375,0.84375 -2.89063,0 -4.687505,-1.85937 -1.78125,-1.85938 -1.78125,-5.35938 z m 2.40625,0 q 0,2.65625 1.156255,3.98438 1.15625,1.3125 2.90625,1.3125 1.75,0 2.90625,-1.32813 1.15625,-1.32812 1.15625,-4.04687 0,-2.5625 -1.17188,-3.89063 -1.15625,-1.32812 -2.89062,-1.32812 -1.75,0 -2.90625,1.32812 -1.156255,1.3125 -1.156255,3.96875 z m 11.715565,6.90625 5.0625,-7.1875 -4.67188,-6.64062 h 2.92188 l 2.125,3.25 q 0.59375,0.92187 0.96875,1.54687 0.5625,-0.85937 1.04688,-1.53125 l 2.32812,-3.26562 h 2.79688 l -4.78125,6.51562 5.15625,7.3125 h -2.89063 l -2.82812,-4.29687 -0.75,-1.15625 -3.64063,5.45312 z m 24.35938,-4.45312 2.42187,0.29687 q -0.57812,2.125 -2.125,3.29688 -1.54687,1.17187 -3.95312,1.17187 -3.03125,0 -4.8125,-1.85937 -1.78125,-1.875 -1.78125,-5.25 0,-3.48438 1.79687,-5.40625 1.79688,-1.9375 4.67188,-1.9375 2.76562,0 4.51562,1.89062 1.76563,1.89063 1.76563,5.3125 0,0.20313 -0.0156,0.625 h -10.3125 q 0.14063,2.28125 1.29688,3.5 1.15625,1.20313 2.89062,1.20313 1.28125,0 2.1875,-0.67188 0.92188,-0.6875 1.45313,-2.17187 z m -7.6875,-3.78125 h 7.71875 q -0.15625,-1.75 -0.89063,-2.625 -1.125,-1.34375 -2.90625,-1.34375 -1.60937,0 -2.71875,1.07812 -1.09375,1.07813 -1.20312,2.89063 z m 12.10619,4.10937 2.32812,-0.35937 q 0.1875,1.39062 1.07813,2.14062 0.89062,0.73438 2.5,0.73438 1.60937,0 2.39062,-0.65625 0.78125,-0.65625 0.78125,-1.54688 0,-0.79687 -0.6875,-1.25 -0.48437,-0.3125 -2.39062,-0.79687 -2.57813,-0.65625 -3.57813,-1.125 -1,-0.46875 -1.51562,-1.3125 -0.51563,-0.84375 -0.51563,-1.85938 0,-0.92187 0.42188,-1.70312 0.4375,-0.79688 1.15625,-1.3125 0.54687,-0.40625 1.48437,-0.6875 0.95313,-0.28125 2.03125,-0.28125 1.625,0 2.85938,0.46875 1.23437,0.46875 1.8125,1.28125 0.59375,0.79687 0.8125,2.14062 l -2.29688,0.3125 q -0.15625,-1.07812 -0.90625,-1.67187 -0.75,-0.59375 -2.10937,-0.59375 -1.60938,0 -2.3125,0.53125 -0.6875,0.53125 -0.6875,1.25 0,0.45312 0.29687,0.8125 0.28125,0.375 0.89063,0.625 0.35937,0.14062 2.07812,0.60937 2.48438,0.65625 3.46875,1.07813 0.98438,0.42187 1.53125,1.23437 0.5625,0.79688 0.5625,2 0,1.17188 -0.6875,2.21875 -0.67187,1.03125 -1.96875,1.59375 -1.28125,0.5625 -2.90625,0.5625 -2.70312,0 -4.125,-1.10937 -1.40625,-1.125 -1.79687,-3.32813 z m 14.32812,9.42188 v -24.375 h 5.15625 v 1.9375 h -2.8125 v 20.5 h 2.8125 v 1.9375 z m 15.53096,-5.29688 h -2.34375 v -14.92187 q -0.85937,0.79687 -2.23437,1.60937 -1.35938,0.79688 -2.45313,1.20313 V 261.699 q 1.96875,-0.92187 3.4375,-2.23437 1.46875,-1.3125 2.07813,-2.54688 h 1.51562 z m 10.55931,5.29688 h -5.17187 v -1.9375 h 2.82812 v -20.5 h -2.82812 v -1.9375 h 5.17187 z m 23.21817,-16.51563 H 191.4633 v -2.1875 h 12.59375 z m 0,5.79688 H 191.4633 v -2.1875 h 12.59375 z m 11.20717,5.42187 v -12 h -2.0625 v -1.82812 h 2.0625 v -1.46875 q 0,-1.39063 0.25,-2.0625 0.34375,-0.92188 1.1875,-1.48438 0.85938,-0.5625 2.39063,-0.5625 0.98437,0 2.1875,0.23438 l -0.34375,2.04687 q -0.73438,-0.14062 -1.39063,-0.14062 -1.0625,0 -1.51562,0.46875 -0.4375,0.45312 -0.4375,1.70312 v 1.26563 h 2.70312 v 1.82812 h -2.70312 v 12 z m 15.87471,-1.70312 q -1.3125,1.10937 -2.51562,1.5625 -1.20313,0.45312 -2.57813,0.45312 -2.28125,0 -3.5,-1.10937 -1.21875,-1.10938 -1.21875,-2.84375 0,-1.01563 0.45313,-1.85938 0.46875,-0.84375 1.21875,-1.34375 0.75,-0.51562 1.6875,-0.76562 0.6875,-0.1875 2.07812,-0.35938 2.82813,-0.32812 4.17188,-0.79687 0.0156,-0.48438 0.0156,-0.625 0,-1.42188 -0.65625,-2.01563 -0.90625,-0.79687 -2.67187,-0.79687 -1.65625,0 -2.45313,0.59375 -0.78125,0.57812 -1.15625,2.04687 l -2.29687,-0.3125 q 0.3125,-1.46875 1.03125,-2.375 0.71875,-0.90625 2.0625,-1.39062 1.35937,-0.5 3.14062,-0.5 1.78125,0 2.875,0.42187 1.10938,0.42188 1.625,1.04688 0.53125,0.625 0.73438,1.59375 0.125,0.59375 0.125,2.15625 v 3.125 q 0,3.26562 0.14062,4.14062 0.15625,0.85938 0.59375,1.65625 h -2.4375 q -0.375,-0.73437 -0.46875,-1.70312 z m -0.20312,-5.23438 q -1.26563,0.51563 -3.82813,0.89063 -1.4375,0.20312 -2.04687,0.46875 -0.59375,0.25 -0.92188,0.75 -0.3125,0.5 -0.3125,1.125 0,0.9375 0.70313,1.5625 0.70312,0.625 2.07812,0.625 1.34375,0 2.39063,-0.59375 1.0625,-0.59375 1.5625,-1.625 0.375,-0.79688 0.375,-2.34375 z m 5.94993,6.9375 v -19.07812 h 2.34375 V 276.074 Z m 5.03154,-4.125 2.32813,-0.35937 q 0.1875,1.39062 1.07812,2.14062 0.89063,0.73438 2.5,0.73438 1.60938,0 2.39063,-0.65625 0.78125,-0.65625 0.78125,-1.54688 0,-0.79687 -0.6875,-1.25 -0.48438,-0.3125 -2.39063,-0.79687 -2.57812,-0.65625 -3.57812,-1.125 -1,-0.46875 -1.51563,-1.3125 -0.51562,-0.84375 -0.51562,-1.85938 0,-0.92187 0.42187,-1.70312 0.4375,-0.79688 1.15625,-1.3125 0.54688,-0.40625 1.48438,-0.6875 0.95312,-0.28125 2.03125,-0.28125 1.625,0 2.85937,0.46875 1.23438,0.46875 1.8125,1.28125 0.59375,0.79687 0.8125,2.14062 l -2.29687,0.3125 q -0.15625,-1.07812 -0.90625,-1.67187 -0.75,-0.59375 -2.10938,-0.59375 -1.60937,0 -2.3125,0.53125 -0.6875,0.53125 -0.6875,1.25 0,0.45312 0.29688,0.8125 0.28125,0.375 0.89062,0.625 0.35938,0.14062 2.07813,0.60937 2.48437,0.65625 3.46875,1.07813 0.98437,0.42187 1.53125,1.23437 0.5625,0.79688 0.5625,2 0,1.17188 -0.6875,2.21875 -0.67188,1.03125 -1.96875,1.59375 -1.28125,0.5625 -2.90625,0.5625 -2.70313,0 -4.125,-1.10937 -1.40625,-1.125 -1.79688,-3.32813 z m 23.73435,-0.32812 2.42187,0.29687 q -0.57812,2.125 -2.125,3.29688 -1.54687,1.17187 -3.95312,1.17187 -3.03125,0 -4.81247,-1.85937 -1.78125,-1.875 -1.78125,-5.25 0,-3.48438 1.79687,-5.40625 1.79685,-1.9375 4.67185,-1.9375 2.76562,0 4.51562,1.89062 1.76563,1.89063 1.76563,5.3125 0,0.20313 -0.0156,0.625 h -10.31247 q 0.14063,2.28125 1.29685,3.5 1.15625,1.20313 2.89062,1.20313 1.28125,0 2.1875,-0.67188 0.92188,-0.6875 1.45313,-2.17187 z m -7.68747,-3.78125 h 7.71872 q -0.15625,-1.75 -0.89063,-2.625 -1.125,-1.34375 -2.90625,-1.34375 -1.60937,0 -2.71875,1.07812 -1.09372,1.07813 -1.20309,2.89063 z"
     fill-rule="nonzero"
     id="path2187" />
  <path
     fill="#cfe2f3"
     d="M 2.270229,317.68448 H 348.79253 v 43.37009 H 2.270229 Z"
     fill-rule="evenodd"
     id="path2189" />
  <path
     stroke="#000000"
     stroke-width="1"
     stroke-linejoin="round"
     stroke-linecap="butt"
     d="M 2.270229,317.68448 H 348.79253 v 43.37009 H 2.270229 Z"
     fill-rule="evenodd"
     id="path2191" />
  <path
     fill="#000000"
     d="m 99.054985,348.96953 h -2.17188 v -19.07812 h 2.34375 v 6.79687 q 1.484385,-1.85937 3.781255,-1.85937 1.28125,0 2.40625,0.51562 1.14063,0.51563 1.875,1.45313 0.75,0.92187 1.15625,2.25 0.42188,1.3125 0.42188,2.79687 0,3.5625 -1.76563,5.5 -1.75,1.9375 -4.21875,1.9375 -2.4375,0 -3.828125,-2.04687 z m -0.0312,-7.01562 q 0,2.48437 0.67187,3.59375 1.109385,1.8125 3.000005,1.8125 1.53125,0 2.65625,-1.32813 1.125,-1.34375 1.125,-3.98437 0,-2.70313 -1.07812,-3.98438 -1.07813,-1.29687 -2.59375,-1.29687 -1.54688,0 -2.67188,1.32812 -1.109375,1.32813 -1.109375,3.85938 z m 11.824945,0.10937 q 0,-3.84375 2.125,-5.6875 1.78125,-1.54687 4.34375,-1.54687 2.85938,0 4.65625,1.875 1.8125,1.85937 1.8125,5.15625 0,2.67187 -0.79687,4.20312 -0.79688,1.53125 -2.32813,2.375 -1.53125,0.84375 -3.34375,0.84375 -2.89062,0 -4.6875,-1.85937 -1.78125,-1.85938 -1.78125,-5.35938 z m 2.40625,0 q 0,2.65625 1.15625,3.98438 1.15625,1.3125 2.90625,1.3125 1.75,0 2.90625,-1.32813 1.15625,-1.32812 1.15625,-4.04687 0,-2.5625 -1.17187,-3.89063 -1.15625,-1.32812 -2.89063,-1.32812 -1.75,0 -2.90625,1.32812 -1.15625,1.3125 -1.15625,3.96875 z m 11.71556,6.90625 5.0625,-7.1875 -4.67187,-6.64062 h 2.92187 l 2.125,3.25 q 0.59375,0.92187 0.96875,1.54687 0.5625,-0.85937 1.04688,-1.53125 l 2.32812,-3.26562 h 2.79688 l -4.78125,6.51562 5.15625,7.3125 h -2.89063 l -2.82812,-4.29687 -0.75,-1.15625 -3.64063,5.45312 z m 24.35938,-4.45312 2.42187,0.29687 q -0.57812,2.125 -2.125,3.29688 -1.54687,1.17187 -3.95312,1.17187 -3.03125,0 -4.8125,-1.85937 -1.78125,-1.875 -1.78125,-5.25 0,-3.48438 1.79687,-5.40625 1.79688,-1.9375 4.67188,-1.9375 2.76562,0 4.51562,1.89062 1.76563,1.89063 1.76563,5.3125 0,0.20313 -0.0156,0.625 h -10.3125 q 0.14063,2.28125 1.29688,3.5 1.15625,1.20313 2.89062,1.20313 1.28125,0 2.1875,-0.67188 0.92188,-0.6875 1.45313,-2.17187 z m -7.6875,-3.78125 h 7.71875 q -0.15625,-1.75 -0.89063,-2.625 -1.125,-1.34375 -2.90625,-1.34375 -1.60937,0 -2.71875,1.07812 -1.09375,1.07813 -1.20312,2.89063 z m 12.10619,4.10937 2.32812,-0.35937 q 0.1875,1.39062 1.07813,2.14062 0.89062,0.73438 2.5,0.73438 1.60937,0 2.39062,-0.65625 0.78125,-0.65625 0.78125,-1.54688 0,-0.79687 -0.6875,-1.25 -0.48437,-0.3125 -2.39062,-0.79687 -2.57813,-0.65625 -3.57813,-1.125 -1,-0.46875 -1.51562,-1.3125 -0.51563,-0.84375 -0.51563,-1.85938 0,-0.92187 0.42188,-1.70312 0.4375,-0.79688 1.15625,-1.3125 0.54687,-0.40625 1.48437,-0.6875 0.95313,-0.28125 2.03125,-0.28125 1.625,0 2.85938,0.46875 1.23437,0.46875 1.8125,1.28125 0.59375,0.79687 0.8125,2.14062 l -2.29688,0.3125 q -0.15625,-1.07812 -0.90625,-1.67187 -0.75,-0.59375 -2.10937,-0.59375 -1.60938,0 -2.3125,0.53125 -0.6875,0.53125 -0.6875,1.25 0,0.45312 0.29687,0.8125 0.28125,0.375 0.89063,0.625 0.35937,0.14062 2.07812,0.60937 2.48438,0.65625 3.46875,1.07813 0.98438,0.42187 1.53125,1.23437 0.5625,0.79688 0.5625,2 0,1.17188 -0.6875,2.21875 -0.67187,1.03125 -1.96875,1.59375 -1.28125,0.5625 -2.90625,0.5625 -2.70312,0 -4.125,-1.10937 -1.40625,-1.125 -1.79687,-3.32813 z m 14.32812,9.42188 v -24.375 h 5.15625 v 1.9375 h -2.8125 v 20.5 h 2.8125 v 1.9375 z m 19.01534,-7.54688 v 2.25 h -12.60943 q -0.0312,-0.84375 0.26563,-1.625 0.48437,-1.29687 1.54687,-2.54687 1.0625,-1.25 3.0625,-2.875 3.10938,-2.5625 4.20313,-4.04688 1.09375,-1.5 1.09375,-2.8125 0,-1.40625 -1,-2.35937 -0.98438,-0.95313 -2.59375,-0.95313 -1.6875,0 -2.70313,1.01563 -1.01562,1.01562 -1.03125,2.8125 l -2.40625,-0.25 q 0.25,-2.6875 1.85938,-4.09375 1.60937,-1.42188 4.32812,-1.42188 2.75,0 4.34375,1.53125 1.60938,1.51563 1.60938,3.76563 0,1.14062 -0.46875,2.25 -0.46875,1.10937 -1.5625,2.32812 -1.07813,1.21875 -3.60938,3.35938 -2.09375,1.76562 -2.70312,2.40625 -0.59375,0.625 -0.98438,1.26562 z m 7.07493,7.54688 h -5.17187 v -1.9375 h 2.82812 v -20.5 h -2.82812 v -1.9375 h 5.17187 z m 23.21817,-16.51563 h -12.59375 v -2.1875 h 12.59375 z m 0,5.79688 h -12.59375 v -2.1875 h 12.59375 z m 22.1603,-8.98438 -2.32813,0.1875 q -0.3125,-1.39062 -0.89062,-2.01562 -0.95313,-1 -2.34375,-1 -1.10938,0 -1.96875,0.625 -1.09375,0.8125 -1.73438,2.35937 -0.64062,1.54688 -0.67187,4.40625 0.84375,-1.28125 2.0625,-1.90625 1.23437,-0.625 2.57812,-0.625 2.34375,0 3.98438,1.73438 1.64062,1.71875 1.64062,4.4375 0,1.79687 -0.78125,3.34375 -0.76562,1.54687 -2.125,2.375 -1.34375,0.8125 -3.0625,0.8125 -2.92187,0 -4.78125,-2.15625 -1.84375,-2.15625 -1.84375,-7.09375 0,-5.53125 2.04688,-8.04688 1.78125,-2.1875 4.79687,-2.1875 2.25,0 3.6875,1.26563 1.45313,1.25 1.73438,3.48437 z m -9.5625,8.21875 q 0,1.21875 0.5,2.32813 0.51562,1.09375 1.4375,1.6875 0.9375,0.57812 1.95312,0.57812 1.48438,0 2.54688,-1.20312 1.0625,-1.20313 1.0625,-3.25 0,-1.98438 -1.0625,-3.125 -1.04688,-1.14063 -2.64063,-1.14063 -1.59375,0 -2.70312,1.14063 -1.09375,1.14062 -1.09375,2.98437 z m 12.57493,1.78125 2.25,-0.21875 q 0.29688,1.59375 1.09375,2.3125 0.8125,0.71875 2.07813,0.71875 1.07812,0 1.89062,-0.5 0.8125,-0.5 1.32813,-1.32812 0.53125,-0.82813 0.875,-2.21875 0.35937,-1.40625 0.35937,-2.875 0,-0.15625 -0.0156,-0.46875 -0.70313,1.125 -1.92188,1.82812 -1.21875,0.6875 -2.64062,0.6875 -2.35938,0 -4,-1.71875 -1.64063,-1.71875 -1.64063,-4.53125 0,-2.90625 1.70313,-4.67187 1.71875,-1.76563 4.29687,-1.76563 1.85938,0 3.39063,1 1.54687,1 2.34375,2.85938 0.8125,1.85937 0.8125,5.35937 0,3.65625 -0.79688,5.82813 -0.79687,2.17187 -2.375,3.3125 -1.5625,1.125 -3.67187,1.125 -2.23438,0 -3.65625,-1.23438 -1.40625,-1.25 -1.70313,-3.5 z m 9.59375,-8.42187 q 0,-2.01563 -1.07812,-3.20313 -1.0625,-1.1875 -2.57813,-1.1875 -1.5625,0 -2.71875,1.28125 -1.15625,1.26563 -1.15625,3.29688 0,1.82812 1.09375,2.96875 1.10938,1.14062 2.71875,1.14062 1.625,0 2.67188,-1.14062 1.04687,-1.14063 1.04687,-3.15625 z"
     fill-rule="nonzero"
     id="path2193" />
  <path
     fill="#000000"
     fill-opacity="0"
     d="m 175.53139,215.26398 v 29.51181"
     fill-rule="evenodd"
     id="path2201" />
  <path
     stroke="#000000"
     stroke-width="1"
     stroke-linejoin="round"
     stroke-linecap="butt"
     d="m 175.53139,215.26398 v 23.51181"
     fill-rule="evenodd"
     id="path2203" />
  <path
     fill="#000000"
     stroke="#000000"
     stroke-width="1"
     stroke-linecap="butt"
     d="m 173.87966,238.77579 1.65173,4.53809 1.65174,-4.53809 z"
     fill-rule="evenodd"
     id="path2205" />
  <path
     fill="#000000"
     fill-opacity="0"
     d="m 175.53139,288.15903 v 29.51181"
     fill-rule="evenodd"
     id="path2207" />
  <path
     stroke="#000000"
     stroke-width="1"
     stroke-linejoin="round"
     stroke-linecap="butt"
     d="m 175.53139,288.15903 v 23.51181"
     fill-rule="evenodd"
     id="path2209" />
  <path
     fill="#000000"
     stroke="#000000"
     stroke-width="1"
     stroke-linecap="butt"
     d="m 173.87966,311.67083 1.65173,4.53809 1.65174,-4.53809 z"
     fill-rule="evenodd"
     id="path2211" />
  <path
     fill="#000000"
     fill-opacity="0"
     d="m 175.53139,361.05456 v 40.56692"
     fill-rule="evenodd"
     id="path2213" />
  <path
     stroke="#000000"
     stroke-width="1"
     stroke-linejoin="round"
     stroke-linecap="butt"
     d="m 175.53139,361.05456 v 34.56692"
     fill-rule="evenodd"
     id="path2215" />
  <path
     fill="#000000"
     stroke="#000000"
     stroke-width="1"
     stroke-linecap="butt"
     d="m 173.87966,395.62149 1.65173,4.53812 1.65174,-4.53812 z"
     fill-rule="evenodd"
     id="path2217" />
  <path
     fill="#000000"
     fill-opacity="0"
     d="M 435.01827,268.57818 H 788.73479 V 410.16085 H 435.01827 Z"
     fill-rule="evenodd"
     id="path2219" />
  <path
     stroke="#000000"
     stroke-width="1"
     stroke-linejoin="round"
     stroke-linecap="butt"
     stroke-dasharray="1, 3"
     d="M 435.01827,268.57818 H 788.73479 V 410.16085 H 435.01827 Z"
     fill-rule="evenodd"
     id="path2221" />
  <path
     fill="#000000"
     d="m 445.9714,316.96951 v -19.07812 h 2.53125 v 16.82812 h 9.39063 v 2.25 z m 24.09055,-4.45312 2.42187,0.29687 q -0.57812,2.125 -2.125,3.29688 -1.54687,1.17187 -3.95312,1.17187 -3.03125,0 -4.8125,-1.85937 -1.78125,-1.875 -1.78125,-5.25 0,-3.48438 1.79687,-5.40625 1.79688,-1.9375 4.67188,-1.9375 2.76562,0 4.51562,1.89062 1.76563,1.89063 1.76563,5.3125 0,0.20313 -0.0156,0.625 h -10.3125 q 0.14063,2.28125 1.29688,3.5 1.15625,1.20313 2.89062,1.20313 1.28125,0 2.1875,-0.67188 0.92188,-0.6875 1.45313,-2.17187 z m -7.6875,-3.78125 h 7.71875 q -0.15625,-1.75 -0.89063,-2.625 -1.125,-1.34375 -2.90625,-1.34375 -1.60937,0 -2.71875,1.07812 -1.09375,1.07813 -1.20312,2.89063 z m 25.57464,6.14062 0.32813,2.0625 q -0.98438,0.21875 -1.76563,0.21875 -1.26562,0 -1.96875,-0.40625 -0.70312,-0.40625 -1,-1.0625 -0.28125,-0.65625 -0.28125,-2.76562 v -7.95313 h -1.71875 v -1.82812 h 1.71875 v -3.42188 l 2.32813,-1.40625 v 4.82813 h 2.35937 v 1.82812 h -2.35937 v 8.07813 q 0,1 0.125,1.29687 0.125,0.28125 0.40625,0.45313 0.28125,0.17187 0.79687,0.17187 0.39063,0 1.03125,-0.0937 z m 11.3122,0.39063 q -1.3125,1.10937 -2.5156,1.5625 -1.20312,0.45312 -2.57812,0.45312 -2.28125,0 -3.5,-1.10937 -1.21875,-1.10938 -1.21875,-2.84375 0,-1.01563 0.45312,-1.85938 0.46875,-0.84375 1.21875,-1.34375 0.75,-0.51562 1.6875,-0.76562 0.6875,-0.1875 2.07813,-0.35938 2.82809,-0.32812 4.17184,-0.79687 0.0156,-0.48438 0.0156,-0.625 0,-1.42188 -0.65625,-2.01563 -0.90622,-0.79687 -2.67185,-0.79687 -1.65625,0 -2.45312,0.59375 -0.78125,0.57812 -1.15625,2.04687 l -2.29688,-0.3125 q 0.3125,-1.46875 1.03125,-2.375 0.71875,-0.90625 2.0625,-1.39062 1.35938,-0.5 3.14063,-0.5 1.78122,0 2.87497,0.42187 1.10937,0.42188 1.625,1.04688 0.53125,0.625 0.73437,1.59375 0.125,0.59375 0.125,2.15625 v 3.125 q 0,3.26562 0.14063,4.14062 0.15625,0.85938 0.59375,1.65625 h -2.4375 q -0.375,-0.73437 -0.46875,-1.70312 z m -0.20313,-5.23438 q -1.26562,0.51563 -3.82809,0.89063 -1.4375,0.20312 -2.04688,0.46875 -0.59375,0.25 -0.92187,0.75 -0.3125,0.5 -0.3125,1.125 0,0.9375 0.70312,1.5625 0.70313,0.625 2.07813,0.625 1.34375,0 2.39062,-0.59375 1.06247,-0.59375 1.56247,-1.625 0.375,-0.79688 0.375,-2.34375 z m 8.1687,6.9375 h -2.17187 v -19.07812 h 2.34375 v 6.79687 q 1.48437,-1.85937 3.78125,-1.85937 1.28125,0 2.40625,0.51562 1.14062,0.51563 1.875,1.45313 0.75,0.92187 1.15625,2.25 0.42187,1.3125 0.42187,2.79687 0,3.5625 -1.76562,5.5 -1.75,1.9375 -4.21875,1.9375 -2.4375,0 -3.82813,-2.04687 z m -0.0312,-7.01562 q 0,2.48437 0.67188,3.59375 1.10937,1.8125 3,1.8125 1.53125,0 2.65625,-1.32813 1.125,-1.34375 1.125,-3.98437 0,-2.70313 -1.07813,-3.98438 -1.07812,-1.29687 -2.59375,-1.29687 -1.54687,0 -2.67187,1.32812 -1.10938,1.32813 -1.10938,3.85938 z m 12.63745,7.01562 v -19.07812 h 2.34375 v 19.07812 z m 15.43781,-4.45312 2.42187,0.29687 q -0.57812,2.125 -2.125,3.29688 -1.54687,1.17187 -3.95312,1.17187 -3.03125,0 -4.8125,-1.85937 -1.78125,-1.875 -1.78125,-5.25 0,-3.48438 1.79687,-5.40625 1.79688,-1.9375 4.67188,-1.9375 2.76562,0 4.51562,1.89062 1.76563,1.89063 1.76563,5.3125 0,0.20313 -0.0156,0.625 h -10.3125 q 0.14063,2.28125 1.29688,3.5 1.15625,1.20313 2.89062,1.20313 1.28125,0 2.1875,-0.67188 0.92188,-0.6875 1.45313,-2.17187 z m -7.6875,-3.78125 h 7.71875 q -0.15625,-1.75 -0.89063,-2.625 -1.125,-1.34375 -2.90625,-1.34375 -1.60937,0 -2.71875,1.07812 -1.09375,1.07813 -1.20312,2.89063 z m 22.07489,6.53125 q -1.3125,1.10937 -2.51563,1.5625 -1.20312,0.45312 -2.57812,0.45312 -2.28125,0 -3.5,-1.10937 -1.21875,-1.10938 -1.21875,-2.84375 0,-1.01563 0.45312,-1.85938 0.46875,-0.84375 1.21875,-1.34375 0.75,-0.51562 1.6875,-0.76562 0.6875,-0.1875 2.07813,-0.35938 2.82812,-0.32812 4.17187,-0.79687 0.0156,-0.48438 0.0156,-0.625 0,-1.42188 -0.65625,-2.01563 -0.90625,-0.79687 -2.67188,-0.79687 -1.65625,0 -2.45312,0.59375 -0.78125,0.57812 -1.15625,2.04687 l -2.29688,-0.3125 q 0.3125,-1.46875 1.03125,-2.375 0.71875,-0.90625 2.0625,-1.39062 1.35938,-0.5 3.14063,-0.5 1.78125,0 2.875,0.42187 1.10937,0.42188 1.625,1.04688 0.53125,0.625 0.73437,1.59375 0.125,0.59375 0.125,2.15625 v 3.125 q 0,3.26562 0.14063,4.14062 0.15625,0.85938 0.59375,1.65625 h -2.4375 q -0.375,-0.73437 -0.46875,-1.70312 z m -0.20313,-5.23438 q -1.26562,0.51563 -3.82812,0.89063 -1.4375,0.20312 -2.04688,0.46875 -0.59375,0.25 -0.92187,0.75 -0.3125,0.5 -0.3125,1.125 0,0.9375 0.70312,1.5625 0.70313,0.625 2.07813,0.625 1.34375,0 2.39062,-0.59375 1.0625,-0.59375 1.5625,-1.625 0.375,-0.79688 0.375,-2.34375 z m 15.05933,6.9375 v -2.03125 q -1.60937,2.34375 -4.375,2.34375 -1.23437,0 -2.29687,-0.46875 -1.0625,-0.46875 -1.57813,-1.17187 -0.5,-0.71875 -0.71875,-1.75 -0.14062,-0.6875 -0.14062,-2.1875 v -8.5625 h 2.34375 v 7.67187 q 0,1.82813 0.14062,2.46875 0.21875,0.92188 0.9375,1.45313 0.71875,0.53125 1.76563,0.53125 1.0625,0 1.98437,-0.53125 0.92188,-0.54688 1.29688,-1.46875 0.39062,-0.9375 0.39062,-2.71875 v -7.40625 h 2.34375 v 13.82812 z m 13.15277,0 v -13.82812 h 2.10938 v 2.09375 q 0.79687,-1.46875 1.48437,-1.9375 0.6875,-0.46875 1.5,-0.46875 1.1875,0 2.40625,0.76562 l -0.79687,2.17188 q -0.85938,-0.51563 -1.71875,-0.51563 -0.76563,0 -1.39063,0.46875 -0.60937,0.45313 -0.85937,1.28125 -0.39063,1.25 -0.39063,2.73438 v 7.23437 z m 18.36115,-4.45312 2.42187,0.29687 q -0.57812,2.125 -2.125,3.29688 -1.54687,1.17187 -3.95312,1.17187 -3.03125,0 -4.8125,-1.85937 -1.78125,-1.875 -1.78125,-5.25 0,-3.48438 1.79687,-5.40625 1.79688,-1.9375 4.67188,-1.9375 2.76562,0 4.51562,1.89062 1.76563,1.89063 1.76563,5.3125 0,0.20313 -0.0156,0.625 h -10.3125 q 0.14063,2.28125 1.29688,3.5 1.15625,1.20313 2.89062,1.20313 1.28125,0 2.1875,-0.67188 0.92188,-0.6875 1.45313,-2.17187 z m -7.6875,-3.78125 h 7.71875 q -0.15625,-1.75 -0.89063,-2.625 -1.125,-1.34375 -2.90625,-1.34375 -1.60937,0 -2.71875,1.07812 -1.09375,1.07813 -1.20312,2.89063 z m 12.10614,4.10937 2.32812,-0.35937 q 0.1875,1.39062 1.07813,2.14062 0.89062,0.73438 2.5,0.73438 1.60937,0 2.39062,-0.65625 0.78125,-0.65625 0.78125,-1.54688 0,-0.79687 -0.6875,-1.25 -0.48437,-0.3125 -2.39062,-0.79687 -2.57813,-0.65625 -3.57813,-1.125 -1,-0.46875 -1.51562,-1.3125 -0.51563,-0.84375 -0.51563,-1.85938 0,-0.92187 0.42188,-1.70312 0.4375,-0.79688 1.15625,-1.3125 0.54687,-0.40625 1.48437,-0.6875 0.95313,-0.28125 2.03125,-0.28125 1.625,0 2.85938,0.46875 1.23437,0.46875 1.8125,1.28125 0.59375,0.79687 0.8125,2.14062 l -2.29688,0.3125 q -0.15625,-1.07812 -0.90625,-1.67187 -0.75,-0.59375 -2.10937,-0.59375 -1.60938,0 -2.3125,0.53125 -0.6875,0.53125 -0.6875,1.25 0,0.45312 0.29687,0.8125 0.28125,0.375 0.89063,0.625 0.35937,0.14062 2.07812,0.60937 2.48438,0.65625 3.46875,1.07813 0.98438,0.42187 1.53125,1.23437 0.5625,0.79688 0.5625,2 0,1.17188 -0.6875,2.21875 -0.67187,1.03125 -1.96875,1.59375 -1.28125,0.5625 -2.90625,0.5625 -2.70312,0 -4.125,-1.10937 -1.40625,-1.125 -1.79687,-3.32813 z m 13.32812,0 2.32813,-0.35937 q 0.1875,1.39062 1.07812,2.14062 0.89063,0.73438 2.5,0.73438 1.60938,0 2.39063,-0.65625 0.78125,-0.65625 0.78125,-1.54688 0,-0.79687 -0.6875,-1.25 -0.48438,-0.3125 -2.39063,-0.79687 -2.57812,-0.65625 -3.57812,-1.125 -1,-0.46875 -1.51563,-1.3125 -0.51562,-0.84375 -0.51562,-1.85938 0,-0.92187 0.42187,-1.70312 0.4375,-0.79688 1.15625,-1.3125 0.54688,-0.40625 1.48438,-0.6875 0.95312,-0.28125 2.03125,-0.28125 1.625,0 2.85937,0.46875 1.23438,0.46875 1.8125,1.28125 0.59375,0.79687 0.8125,2.14062 l -2.29687,0.3125 q -0.15625,-1.07812 -0.90625,-1.67187 -0.75,-0.59375 -2.10938,-0.59375 -1.60937,0 -2.3125,0.53125 -0.6875,0.53125 -0.6875,1.25 0,0.45312 0.29688,0.8125 0.28125,0.375 0.89062,0.625 0.35938,0.14062 2.07813,0.60937 2.48437,0.65625 3.46875,1.07813 0.98437,0.42187 1.53125,1.23437 0.5625,0.79688 0.5625,2 0,1.17188 -0.6875,2.21875 -0.67188,1.03125 -1.96875,1.59375 -1.28125,0.5625 -2.90625,0.5625 -2.70313,0 -4.125,-1.10937 -1.40625,-1.125 -1.79688,-3.32813 z m 23.73438,-0.32812 2.42187,0.29687 q -0.57812,2.125 -2.125,3.29688 -1.54687,1.17187 -3.95312,1.17187 -3.03125,0 -4.8125,-1.85937 -1.78125,-1.875 -1.78125,-5.25 0,-3.48438 1.79687,-5.40625 1.79688,-1.9375 4.67188,-1.9375 2.76562,0 4.51562,1.89062 1.76563,1.89063 1.76563,5.3125 0,0.20313 -0.0156,0.625 h -10.3125 q 0.14063,2.28125 1.29688,3.5 1.15625,1.20313 2.89062,1.20313 1.28125,0 2.1875,-0.67188 0.92188,-0.6875 1.45313,-2.17187 z m -7.6875,-3.78125 h 7.71875 q -0.15625,-1.75 -0.89063,-2.625 -1.125,-1.34375 -2.90625,-1.34375 -1.60937,0 -2.71875,1.07812 -1.09375,1.07813 -1.20312,2.89063 z m 13.0437,8.23437 v -13.82812 h 2.10937 v 1.9375 q 0.64063,-1.01563 1.71875,-1.625 1.09375,-0.625 2.46875,-0.625 1.53125,0 2.51563,0.64062 0.98437,0.64063 1.39062,1.78125 1.64063,-2.42187 4.26563,-2.42187 2.0625,0 3.15625,1.14062 1.10937,1.14063 1.10937,3.51563 v 9.48437 h -2.32812 v -8.70312 q 0,-1.40625 -0.23438,-2.01563 -0.21875,-0.625 -0.82812,-1 -0.59375,-0.39062 -1.39063,-0.39062 -1.46875,0 -2.4375,0.96875 -0.95312,0.96875 -0.95312,3.10937 v 8.03125 h -2.34375 v -8.98437 q 0,-1.5625 -0.57813,-2.34375 -0.5625,-0.78125 -1.875,-0.78125 -0.98437,0 -1.82812,0.53125 -0.82813,0.51562 -1.21875,1.51562 -0.375,1 -0.375,2.89063 v 7.17187 z m 24.37677,0 h -2.17188 v -19.07812 h 2.34375 v 6.79687 q 1.48438,-1.85937 3.78125,-1.85937 1.28125,0 2.40625,0.51562 1.14063,0.51563 1.875,1.45313 0.75,0.92187 1.15625,2.25 0.42188,1.3125 0.42188,2.79687 0,3.5625 -1.76563,5.5 -1.75,1.9375 -4.21875,1.9375 -2.4375,0 -3.82812,-2.04687 z m -0.0312,-7.01562 q 0,2.48437 0.67187,3.59375 1.10938,1.8125 3,1.8125 1.53125,0 2.65625,-1.32813 1.125,-1.34375 1.125,-3.98437 0,-2.70313 -1.07812,-3.98438 -1.07813,-1.29687 -2.59375,-1.29687 -1.54688,0 -2.67188,1.32812 -1.10937,1.32813 -1.10937,3.85938 z m 12.63739,7.01562 v -19.07812 h 2.34375 v 19.07812 z m 15.4378,-4.45312 2.42188,0.29687 q -0.57813,2.125 -2.125,3.29688 -1.54688,1.17187 -3.95313,1.17187 -3.03125,0 -4.8125,-1.85937 -1.78125,-1.875 -1.78125,-5.25 0,-3.48438 1.79688,-5.40625 1.79687,-1.9375 4.67187,-1.9375 2.76563,0 4.51563,1.89062 1.76562,1.89063 1.76562,5.3125 0,0.20313 -0.0156,0.625 h -10.3125 q 0.14062,2.28125 1.29687,3.5 1.15625,1.20313 2.89063,1.20313 1.28125,0 2.1875,-0.67188 0.92187,-0.6875 1.45312,-2.17187 z m -7.6875,-3.78125 h 7.71875 q -0.15625,-1.75 -0.89062,-2.625 -1.125,-1.34375 -2.90625,-1.34375 -1.60938,0 -2.71875,1.07812 -1.09375,1.07813 -1.20313,2.89063 z"
     fill-rule="nonzero"
     id="path2223" />
  <path
     fill="#000000"
     d="m 445.76827,348.96951 v -13.82812 h 2.10937 v 1.9375 q 0.64063,-1.01563 1.71875,-1.625 1.09375,-0.625 2.46875,-0.625 1.53125,0 2.51563,0.64062 0.98437,0.64063 1.39062,1.78125 1.64063,-2.42187 4.26563,-2.42187 2.0625,0 3.15625,1.14062 1.10937,1.14063 1.10937,3.51563 v 9.48437 h -2.32812 v -8.70312 q 0,-1.40625 -0.23438,-2.01563 -0.21875,-0.625 -0.82812,-1 -0.59375,-0.39062 -1.39063,-0.39062 -1.46875,0 -2.4375,0.96875 -0.95312,0.96875 -0.95312,3.10937 v 8.03125 h -2.34375 v -8.98437 q 0,-1.5625 -0.57813,-2.34375 -0.5625,-0.78125 -1.875,-0.78125 -0.98437,0 -1.82812,0.53125 -0.82813,0.51562 -1.21875,1.51562 -0.375,1 -0.375,2.89063 v 7.17187 z m 31.23611,-1.70312 q -1.3125,1.10937 -2.51562,1.5625 -1.20313,0.45312 -2.57813,0.45312 -2.28125,0 -3.5,-1.10937 -1.21875,-1.10938 -1.21875,-2.84375 0,-1.01563 0.45313,-1.85938 0.46875,-0.84375 1.21875,-1.34375 0.75,-0.51562 1.6875,-0.76562 0.6875,-0.1875 2.07812,-0.35938 2.82813,-0.32812 4.17188,-0.79687 0.0156,-0.48438 0.0156,-0.625 0,-1.42188 -0.65625,-2.01563 -0.90625,-0.79687 -2.67187,-0.79687 -1.65625,0 -2.45313,0.59375 -0.78125,0.57812 -1.15625,2.04687 l -2.29687,-0.3125 q 0.3125,-1.46875 1.03125,-2.375 0.71875,-0.90625 2.0625,-1.39062 1.35937,-0.5 3.14062,-0.5 1.78125,0 2.875,0.42187 1.10938,0.42188 1.625,1.04688 0.53125,0.625 0.73438,1.59375 0.125,0.59375 0.125,2.15625 v 3.125 q 0,3.26562 0.14062,4.14062 0.15625,0.85938 0.59375,1.65625 h -2.4375 q -0.375,-0.73437 -0.46875,-1.70312 z m -0.20312,-5.23438 q -1.26563,0.51563 -3.82813,0.89063 -1.4375,0.20312 -2.04687,0.46875 -0.59375,0.25 -0.92188,0.75 -0.3125,0.5 -0.3125,1.125 0,0.9375 0.70313,1.5625 0.70312,0.625 2.07812,0.625 1.34375,0 2.39063,-0.59375 1.0625,-0.59375 1.5625,-1.625 0.375,-0.79688 0.375,-2.34375 z m 6.01242,-9.45312 v -2.6875 h 2.34375 v 2.6875 z m 0,16.39062 v -13.82812 h 2.34375 v 13.82812 z m 5.90656,0 v -13.82812 h 2.10937 v 1.96875 q 1.53125,-2.28125 4.40625,-2.28125 1.25,0 2.29688,0.45312 1.04684,0.45313 1.56247,1.1875 0.53125,0.71875 0.73437,1.71875 0.125,0.65625 0.125,2.28125 v 8.5 h -2.34372 v -8.40625 q 0,-1.4375 -0.28125,-2.14062 -0.26562,-0.71875 -0.96875,-1.14063 -0.6875,-0.42187 -1.625,-0.42187 -1.48437,0 -2.57812,0.95312 -1.09375,0.95313 -1.09375,3.60938 v 7.54687 z m 19.94992,-2.09375 0.32812,2.0625 q -0.98437,0.21875 -1.76562,0.21875 -1.26563,0 -1.96875,-0.40625 -0.70313,-0.40625 -1,-1.0625 -0.28125,-0.65625 -0.28125,-2.76562 v -7.95313 h -1.71875 v -1.82812 h 1.71875 v -3.42188 l 2.32812,-1.40625 v 4.82813 h 2.35938 v 1.82812 h -2.35938 v 8.07813 q 0,1 0.125,1.29687 0.125,0.28125 0.40625,0.45313 0.28125,0.17187 0.79688,0.17187 0.39062,0 1.03125,-0.0937 z m 11.74969,-2.35937 2.42188,0.29687 q -0.57813,2.125 -2.125,3.29688 -1.54688,1.17187 -3.95313,1.17187 -3.03125,0 -4.8125,-1.85937 -1.78125,-1.875 -1.78125,-5.25 0,-3.48438 1.79688,-5.40625 1.79687,-1.9375 4.67187,-1.9375 2.76563,0 4.51563,1.89062 1.76562,1.89063 1.76562,5.3125 0,0.20313 -0.0156,0.625 h -10.3125 q 0.14062,2.28125 1.29687,3.5 1.15625,1.20313 2.89063,1.20313 1.28125,0 2.1875,-0.67188 0.92187,-0.6875 1.45312,-2.17187 z m -7.6875,-3.78125 h 7.71875 q -0.15625,-1.75 -0.89062,-2.625 -1.125,-1.34375 -2.90625,-1.34375 -1.60938,0 -2.71875,1.07812 -1.09375,1.07813 -1.20313,2.89063 z m 13.0437,8.23437 v -13.82812 h 2.10938 v 1.96875 q 1.53125,-2.28125 4.40625,-2.28125 1.25,0 2.29687,0.45312 1.04688,0.45313 1.5625,1.1875 0.53125,0.71875 0.73438,1.71875 0.125,0.65625 0.125,2.28125 v 8.5 h -2.34375 v -8.40625 q 0,-1.4375 -0.28125,-2.14062 -0.26563,-0.71875 -0.96875,-1.14063 -0.6875,-0.42187 -1.625,-0.42187 -1.48438,0 -2.57813,0.95312 -1.09375,0.95313 -1.09375,3.60938 v 7.54687 z m 23.8562,-1.70312 q -1.3125,1.10937 -2.51562,1.5625 -1.20313,0.45312 -2.57813,0.45312 -2.28125,0 -3.5,-1.10937 -1.21875,-1.10938 -1.21875,-2.84375 0,-1.01563 0.45313,-1.85938 0.46875,-0.84375 1.21875,-1.34375 0.75,-0.51562 1.6875,-0.76562 0.6875,-0.1875 2.07812,-0.35938 2.82813,-0.32812 4.17188,-0.79687 0.0156,-0.48438 0.0156,-0.625 0,-1.42188 -0.65625,-2.01563 -0.90625,-0.79687 -2.67187,-0.79687 -1.65625,0 -2.45313,0.59375 -0.78125,0.57812 -1.15625,2.04687 l -2.29687,-0.3125 q 0.3125,-1.46875 1.03125,-2.375 0.71875,-0.90625 2.0625,-1.39062 1.35937,-0.5 3.14062,-0.5 1.78125,0 2.875,0.42187 1.10938,0.42188 1.625,1.04688 0.53125,0.625 0.73438,1.59375 0.125,0.59375 0.125,2.15625 v 3.125 q 0,3.26562 0.14062,4.14062 0.15625,0.85938 0.59375,1.65625 h -2.4375 q -0.375,-0.73437 -0.46875,-1.70312 z m -0.20312,-5.23438 q -1.26563,0.51563 -3.82813,0.89063 -1.4375,0.20312 -2.04687,0.46875 -0.59375,0.25 -0.92188,0.75 -0.3125,0.5 -0.3125,1.125 0,0.9375 0.70313,1.5625 0.70312,0.625 2.07812,0.625 1.34375,0 2.39063,-0.59375 1.0625,-0.59375 1.5625,-1.625 0.375,-0.79688 0.375,-2.34375 z m 5.99682,6.9375 v -13.82812 h 2.10938 v 1.96875 q 1.53125,-2.28125 4.40625,-2.28125 1.25,0 2.29687,0.45312 1.04688,0.45313 1.5625,1.1875 0.53125,0.71875 0.73438,1.71875 0.125,0.65625 0.125,2.28125 v 8.5 h -2.34375 v -8.40625 q 0,-1.4375 -0.28125,-2.14062 -0.26563,-0.71875 -0.96875,-1.14063 -0.6875,-0.42187 -1.625,-0.42187 -1.48438,0 -2.57813,0.95312 -1.09375,0.95313 -1.09375,3.60938 v 7.54687 z m 19.94989,-2.09375 0.32813,2.0625 q -0.98438,0.21875 -1.76563,0.21875 -1.26562,0 -1.96875,-0.40625 -0.70312,-0.40625 -1,-1.0625 -0.28125,-0.65625 -0.28125,-2.76562 v -7.95313 h -1.71875 v -1.82812 h 1.71875 v -3.42188 l 2.32813,-1.40625 v 4.82813 h 2.35937 v 1.82812 h -2.35937 v 8.07813 q 0,1 0.125,1.29687 0.125,0.28125 0.40625,0.45313 0.28125,0.17187 0.79687,0.17187 0.39063,0 1.03125,-0.0937 z m 18.7182,0.39063 q -1.3125,1.10937 -2.51562,1.5625 -1.20313,0.45312 -2.57813,0.45312 -2.28125,0 -3.5,-1.10937 -1.21875,-1.10938 -1.21875,-2.84375 0,-1.01563 0.45313,-1.85938 0.46875,-0.84375 1.21875,-1.34375 0.75,-0.51562 1.6875,-0.76562 0.6875,-0.1875 2.07812,-0.35938 2.82813,-0.32812 4.17188,-0.79687 0.0156,-0.48438 0.0156,-0.625 0,-1.42188 -0.65625,-2.01563 -0.90625,-0.79687 -2.67187,-0.79687 -1.65625,0 -2.45313,0.59375 -0.78125,0.57812 -1.15625,2.04687 l -2.29687,-0.3125 q 0.3125,-1.46875 1.03125,-2.375 0.71875,-0.90625 2.0625,-1.39062 1.35937,-0.5 3.14062,-0.5 1.78125,0 2.875,0.42187 1.10938,0.42188 1.625,1.04688 0.53125,0.625 0.73438,1.59375 0.125,0.59375 0.125,2.15625 v 3.125 q 0,3.26562 0.14062,4.14062 0.15625,0.85938 0.59375,1.65625 h -2.4375 q -0.375,-0.73437 -0.46875,-1.70312 z m -0.20312,-5.23438 q -1.26563,0.51563 -3.82813,0.89063 -1.4375,0.20312 -2.04687,0.46875 -0.59375,0.25 -0.92188,0.75 -0.3125,0.5 -0.3125,1.125 0,0.9375 0.70313,1.5625 0.70312,0.625 2.07812,0.625 1.34375,0 2.39063,-0.59375 1.0625,-0.59375 1.5625,-1.625 0.375,-0.79688 0.375,-2.34375 z m -1.28125,-8.60937 h -1.875 l -3.01563,-3.64063 h 3.14063 z m 23.71527,10.48437 2.29687,0.29688 q -0.375,2.39062 -1.9375,3.73437 -1.54687,1.34375 -3.8125,1.34375 -2.84375,0 -4.5625,-1.84375 -1.71875,-1.85937 -1.71875,-5.32812 0,-2.23438 0.73438,-3.90625 0.75,-1.6875 2.26562,-2.53125 1.51563,-0.84375 3.29688,-0.84375 2.25,0 3.67187,1.14062 1.4375,1.14063 1.84375,3.23438 l -2.28125,0.35937 q -0.32812,-1.39062 -1.15625,-2.09375 -0.8125,-0.70312 -1.98437,-0.70312 -1.78125,0 -2.89063,1.26562 -1.09375,1.26563 -1.09375,4.01563 0,2.78125 1.0625,4.04687 1.0625,1.26563 2.78125,1.26563 1.39063,0 2.3125,-0.84375 0.92188,-0.85938 1.17188,-2.60938 z m 13.76562,0.60938 2.42188,0.29687 q -0.57813,2.125 -2.125,3.29688 -1.54688,1.17187 -3.95313,1.17187 -3.03125,0 -4.8125,-1.85937 -1.78125,-1.875 -1.78125,-5.25 0,-3.48438 1.79688,-5.40625 1.79687,-1.9375 4.67187,-1.9375 2.76563,0 4.51563,1.89062 1.76562,1.89063 1.76562,5.3125 0,0.20313 -0.0156,0.625 h -10.3125 q 0.14062,2.28125 1.29687,3.5 1.15625,1.20313 2.89063,1.20313 1.28125,0 2.1875,-0.67188 0.92187,-0.6875 1.45312,-2.17187 z m -7.6875,-3.78125 h 7.71875 q -0.15625,-1.75 -0.89062,-2.625 -1.125,-1.34375 -2.90625,-1.34375 -1.60938,0 -2.71875,1.07812 -1.09375,1.07813 -1.20313,2.89063 z m 22.07496,3.17187 2.29687,0.29688 q -0.375,2.39062 -1.9375,3.73437 -1.54687,1.34375 -3.8125,1.34375 -2.84375,0 -4.5625,-1.84375 -1.71875,-1.85937 -1.71875,-5.32812 0,-2.23438 0.73438,-3.90625 0.75,-1.6875 2.26562,-2.53125 1.51563,-0.84375 3.29688,-0.84375 2.25,0 3.67187,1.14062 1.4375,1.14063 1.84375,3.23438 l -2.28125,0.35937 q -0.32812,-1.39062 -1.15625,-2.09375 -0.8125,-0.70312 -1.98437,-0.70312 -1.78125,0 -2.89063,1.26562 -1.09375,1.26563 -1.09375,4.01563 0,2.78125 1.0625,4.04687 1.0625,1.26563 2.78125,1.26563 1.39063,0 2.3125,-0.84375 0.92188,-0.85938 1.17188,-2.60938 z m 4.3125,-11.32812 v -2.6875 h 2.34375 v 2.6875 z m 0,16.39062 v -13.82812 h 2.34375 v 13.82812 z m 6.56274,-11.15625 v -2.67187 h 2.67187 v 2.67187 z m 0,11.15625 v -2.67187 h 2.67187 v 2.67187 z"
     fill-rule="nonzero"
     id="path2225" />
  <path
     fill="#000000"
     d="m 447.94014,380.96951 h -2.17188 v -19.07812 h 2.34375 v 6.79687 q 1.48438,-1.85937 3.78125,-1.85937 1.28125,0 2.40625,0.51562 1.14063,0.51563 1.875,1.45313 0.75,0.92187 1.15625,2.25 0.42188,1.3125 0.42188,2.79687 0,3.5625 -1.76563,5.5 -1.75,1.9375 -4.21875,1.9375 -2.4375,0 -3.82812,-2.04687 z m -0.0312,-7.01562 q 0,2.48437 0.67187,3.59375 1.10938,1.8125 3,1.8125 1.53125,0 2.65625,-1.32813 1.125,-1.34375 1.125,-3.98437 0,-2.70313 -1.07812,-3.98438 -1.07813,-1.29687 -2.59375,-1.29687 -1.54688,0 -2.67188,1.32812 -1.10937,1.32813 -1.10937,3.85938 z m 11.82492,0.10937 q 0,-3.84375 2.125,-5.6875 1.78125,-1.54687 4.34375,-1.54687 2.85938,0 4.65625,1.875 1.8125,1.85937 1.8125,5.15625 0,2.67187 -0.79687,4.20312 -0.79688,1.53125 -2.32813,2.375 -1.53125,0.84375 -3.34375,0.84375 -2.89062,0 -4.6875,-1.85937 -1.78125,-1.85938 -1.78125,-5.35938 z m 2.40625,0 q 0,2.65625 1.15625,3.98438 1.15625,1.3125 2.90625,1.3125 1.75,0 2.90625,-1.32813 1.15625,-1.32812 1.15625,-4.04687 0,-2.5625 -1.17187,-3.89063 -1.15625,-1.32812 -2.89063,-1.32812 -1.75,0 -2.90625,1.32812 -1.15625,1.3125 -1.15625,3.96875 z m 11.71558,6.90625 5.0625,-7.1875 -4.67188,-6.64062 h 2.92188 l 2.125,3.25 q 0.59375,0.92187 0.96875,1.54687 0.5625,-0.85937 1.04687,-1.53125 l 2.32813,-3.26562 h 2.79687 l -4.78125,6.51562 5.15625,7.3125 h -2.89062 l -2.82813,-4.29687 -0.75,-1.15625 -3.64062,5.45312 z m 24.35937,-4.45312 2.42188,0.29687 q -0.57813,2.125 -2.125,3.29688 -1.54688,1.17187 -3.95313,1.17187 -3.03125,0 -4.8125,-1.85937 -1.78125,-1.875 -1.78125,-5.25 0,-3.48438 1.79688,-5.40625 1.79687,-1.9375 4.67187,-1.9375 2.76563,0 4.51563,1.89062 1.76562,1.89063 1.76562,5.3125 0,0.20313 -0.0156,0.625 h -10.3125 q 0.14062,2.28125 1.29687,3.5 1.15625,1.20313 2.89063,1.20313 1.28125,0 2.1875,-0.67188 0.92187,-0.6875 1.45312,-2.17187 z m -7.6875,-3.78125 h 7.71875 q -0.15625,-1.75 -0.89062,-2.625 -1.125,-1.34375 -2.90625,-1.34375 -1.60938,0 -2.71875,1.07812 -1.09375,1.07813 -1.20313,2.89063 z m 12.1062,4.10937 2.32813,-0.35937 q 0.1875,1.39062 1.07812,2.14062 0.89063,0.73438 2.5,0.73438 1.60938,0 2.39063,-0.65625 0.78125,-0.65625 0.78125,-1.54688 0,-0.79687 -0.6875,-1.25 -0.48438,-0.3125 -2.39063,-0.79687 -2.57812,-0.65625 -3.57812,-1.125 -1,-0.46875 -1.51563,-1.3125 -0.51562,-0.84375 -0.51562,-1.85938 0,-0.92187 0.42187,-1.70312 0.4375,-0.79688 1.15625,-1.3125 0.54688,-0.40625 1.48438,-0.6875 0.95312,-0.28125 2.03125,-0.28125 1.625,0 2.85937,0.46875 1.23438,0.46875 1.8125,1.28125 0.59375,0.79687 0.8125,2.14062 l -2.29687,0.3125 q -0.15625,-1.07812 -0.90625,-1.67187 -0.75,-0.59375 -2.10938,-0.59375 -1.60937,0 -2.3125,0.53125 -0.6875,0.53125 -0.6875,1.25 0,0.45312 0.29688,0.8125 0.28125,0.375 0.89062,0.625 0.35938,0.14062 2.07813,0.60937 2.48437,0.65625 3.46875,1.07813 0.98437,0.42187 1.53125,1.23437 0.5625,0.79688 0.5625,2 0,1.17188 -0.6875,2.21875 -0.67188,1.03125 -1.96875,1.59375 -1.28125,0.5625 -2.90625,0.5625 -2.70313,0 -4.125,-1.10937 -1.40625,-1.125 -1.79688,-3.32813 z m 33.9997,-7.09375 h -12.59375 v -2.1875 h 12.59375 z m 0,5.79688 h -12.59375 v -2.1875 h 12.59375 z m 10.70715,10.71875 v -24.375 h 5.15625 v 1.9375 h -2.8125 v 20.5 h 2.8125 v 1.9375 z m 9.1872,-21.17188 v 2.71875 h -2.51563 v -2.15625 q 0,-1.73437 0.42188,-2.51562 0.54687,-1.04688 1.73437,-1.57813 l 0.5625,0.90625 q -0.71875,0.29688 -1.0625,0.89063 -0.32812,0.59375 -0.35937,1.73437 z m 4.03125,0 v 2.71875 h -2.51563 v -2.15625 q 0,-1.73437 0.42188,-2.51562 0.54687,-1.04688 1.73437,-1.57813 l 0.5625,0.90625 q -0.70312,0.29688 -1.04687,0.89063 -0.34375,0.59375 -0.375,1.73437 z m 2.06427,11.75 2.32812,-0.35937 q 0.1875,1.39062 1.07813,2.14062 0.89062,0.73438 2.5,0.73438 1.60937,0 2.39062,-0.65625 0.78125,-0.65625 0.78125,-1.54688 0,-0.79687 -0.6875,-1.25 -0.48437,-0.3125 -2.39062,-0.79687 -2.57813,-0.65625 -3.57813,-1.125 -1,-0.46875 -1.51562,-1.3125 -0.51563,-0.84375 -0.51563,-1.85938 0,-0.92187 0.42188,-1.70312 0.4375,-0.79688 1.15625,-1.3125 0.54687,-0.40625 1.48437,-0.6875 0.95313,-0.28125 2.03125,-0.28125 1.625,0 2.85938,0.46875 1.23437,0.46875 1.8125,1.28125 0.59375,0.79687 0.8125,2.14062 l -2.29688,0.3125 q -0.15625,-1.07812 -0.90625,-1.67187 -0.75,-0.59375 -2.10937,-0.59375 -1.60938,0 -2.3125,0.53125 -0.6875,0.53125 -0.6875,1.25 0,0.45312 0.29687,0.8125 0.28125,0.375 0.89063,0.625 0.35937,0.14062 2.07812,0.60937 2.48438,0.65625 3.46875,1.07813 0.98438,0.42187 1.53125,1.23437 0.5625,0.79688 0.5625,2 0,1.17188 -0.6875,2.21875 -0.67187,1.03125 -1.96875,1.59375 -1.28125,0.5625 -2.90625,0.5625 -2.70312,0 -4.125,-1.10937 -1.40625,-1.125 -1.79687,-3.32813 z m 23.29687,2.42188 q -1.3125,1.10937 -2.51562,1.5625 -1.20313,0.45312 -2.57813,0.45312 -2.28125,0 -3.5,-1.10937 -1.21875,-1.10938 -1.21875,-2.84375 0,-1.01563 0.45313,-1.85938 0.46875,-0.84375 1.21875,-1.34375 0.75,-0.51562 1.6875,-0.76562 0.6875,-0.1875 2.07812,-0.35938 2.82813,-0.32812 4.17188,-0.79687 0.0156,-0.48438 0.0156,-0.625 0,-1.42188 -0.65625,-2.01563 -0.90625,-0.79687 -2.67187,-0.79687 -1.65625,0 -2.45313,0.59375 -0.78125,0.57812 -1.15625,2.04687 l -2.29687,-0.3125 q 0.3125,-1.46875 1.03125,-2.375 0.71875,-0.90625 2.0625,-1.39062 1.35937,-0.5 3.14062,-0.5 1.78125,0 2.875,0.42187 1.10938,0.42188 1.625,1.04688 0.53125,0.625 0.73438,1.59375 0.125,0.59375 0.125,2.15625 v 3.125 q 0,3.26562 0.14062,4.14062 0.15625,0.85938 0.59375,1.65625 h -2.4375 q -0.375,-0.73437 -0.46875,-1.70312 z m -0.20312,-5.23438 q -1.26563,0.51563 -3.82813,0.89063 -1.4375,0.20312 -2.04687,0.46875 -0.59375,0.25 -0.92188,0.75 -0.3125,0.5 -0.3125,1.125 0,0.9375 0.70313,1.5625 0.70312,0.625 2.07812,0.625 1.34375,0 2.39063,-0.59375 1.0625,-0.59375 1.5625,-1.625 0.375,-0.79688 0.375,-2.34375 z m 5.94995,6.9375 v -19.07812 h 2.34375 v 19.07812 z m 15.03149,0 v -2.03125 q -1.60937,2.34375 -4.375,2.34375 -1.23437,0 -2.29687,-0.46875 -1.0625,-0.46875 -1.57813,-1.17187 -0.5,-0.71875 -0.71875,-1.75 -0.14062,-0.6875 -0.14062,-2.1875 v -8.5625 h 2.34375 v 7.67187 q 0,1.82813 0.14062,2.46875 0.21875,0.92188 0.9375,1.45313 0.71875,0.53125 1.76563,0.53125 1.0625,0 1.98437,-0.53125 0.92188,-0.54688 1.29688,-1.46875 0.39062,-0.9375 0.39062,-2.71875 v -7.40625 h 2.34375 v 13.82812 z m 10.88745,-2.09375 0.32813,2.0625 q -0.98438,0.21875 -1.76563,0.21875 -1.26562,0 -1.96875,-0.40625 -0.70312,-0.40625 -1,-1.0625 -0.28125,-0.65625 -0.28125,-2.76562 v -7.95313 h -1.71875 v -1.82812 h 1.71875 v -3.42188 l 2.32813,-1.40625 v 4.82813 h 2.35937 v 1.82812 h -2.35937 v 8.07813 q 0,1 0.125,1.29687 0.125,0.28125 0.40625,0.45313 0.28125,0.17187 0.79687,0.17187 0.39063,0 1.03125,-0.0937 z m 1.65595,-14.46875 v -2.71875 h 2.51562 v 2.15625 q 0,1.73438 -0.40625,2.51563 -0.54687,1.04687 -1.73437,1.57812 l -0.57813,-0.92187 q 0.70313,-0.28125 1.04688,-0.89063 0.34375,-0.625 0.39062,-1.71875 z m 4.04687,0 v -2.71875 h 2.5 v 2.15625 q 0,1.73438 -0.39062,2.51563 -0.5625,1.04687 -1.75,1.57812 l -0.57813,-0.92187 q 0.70313,-0.28125 1.04688,-0.89063 0.35937,-0.625 0.39062,-1.71875 z m 6.0799,16.5625 v -2.67187 h 2.65625 v 2.67187 q 0,1.46875 -0.51563,2.375 -0.51562,0.90625 -1.65625,1.40625 l -0.64062,-1.01562 q 0.73437,-0.3125 1.07812,-0.95313 0.35938,-0.625 0.40625,-1.8125 z m 14.74939,0 v -12 h -2.0625 v -1.82812 h 2.0625 v -1.46875 q 0,-1.39063 0.25,-2.0625 0.34375,-0.92188 1.1875,-1.48438 0.85937,-0.5625 2.39062,-0.5625 0.98438,0 2.1875,0.23438 l -0.34375,2.04687 q -0.73437,-0.14062 -1.39062,-0.14062 -1.0625,0 -1.51563,0.46875 -0.4375,0.45312 -0.4375,1.70312 v 1.26563 h 2.70313 v 1.82812 h -2.70313 v 12 z m 15.87475,-1.70312 q -1.3125,1.10937 -2.51562,1.5625 -1.20313,0.45312 -2.57813,0.45312 -2.28125,0 -3.5,-1.10937 -1.21875,-1.10938 -1.21875,-2.84375 0,-1.01563 0.45313,-1.85938 0.46875,-0.84375 1.21875,-1.34375 0.75,-0.51562 1.6875,-0.76562 0.6875,-0.1875 2.07812,-0.35938 2.82813,-0.32812 4.17188,-0.79687 0.0156,-0.48438 0.0156,-0.625 0,-1.42188 -0.65625,-2.01563 -0.90625,-0.79687 -2.67187,-0.79687 -1.65625,0 -2.45313,0.59375 -0.78125,0.57812 -1.15625,2.04687 l -2.29687,-0.3125 q 0.3125,-1.46875 1.03125,-2.375 0.71875,-0.90625 2.0625,-1.39062 1.35937,-0.5 3.14062,-0.5 1.78125,0 2.875,0.42187 1.10938,0.42188 1.625,1.04688 0.53125,0.625 0.73438,1.59375 0.125,0.59375 0.125,2.15625 v 3.125 q 0,3.26562 0.14062,4.14062 0.15625,0.85938 0.59375,1.65625 h -2.4375 q -0.375,-0.73437 -0.46875,-1.70312 z m -0.20312,-5.23438 q -1.26563,0.51563 -3.82813,0.89063 -1.4375,0.20312 -2.04687,0.46875 -0.59375,0.25 -0.92188,0.75 -0.3125,0.5 -0.3125,1.125 0,0.9375 0.70313,1.5625 0.70312,0.625 2.07812,0.625 1.34375,0 2.39063,-0.59375 1.0625,-0.59375 1.5625,-1.625 0.375,-0.79688 0.375,-2.34375 z m 5.94989,6.9375 v -19.07812 h 2.34375 v 19.07812 z m 5.03155,-4.125 2.32813,-0.35937 q 0.1875,1.39062 1.07812,2.14062 0.89063,0.73438 2.5,0.73438 1.60938,0 2.39063,-0.65625 0.78125,-0.65625 0.78125,-1.54688 0,-0.79687 -0.6875,-1.25 -0.48438,-0.3125 -2.39063,-0.79687 -2.57812,-0.65625 -3.57812,-1.125 -1,-0.46875 -1.51563,-1.3125 -0.51562,-0.84375 -0.51562,-1.85938 0,-0.92187 0.42187,-1.70312 0.4375,-0.79688 1.15625,-1.3125 0.54688,-0.40625 1.48438,-0.6875 0.95312,-0.28125 2.03125,-0.28125 1.625,0 2.85937,0.46875 1.23438,0.46875 1.8125,1.28125 0.59375,0.79687 0.8125,2.14062 l -2.29687,0.3125 q -0.15625,-1.07812 -0.90625,-1.67187 -0.75,-0.59375 -2.10938,-0.59375 -1.60937,0 -2.3125,0.53125 -0.6875,0.53125 -0.6875,1.25 0,0.45312 0.29688,0.8125 0.28125,0.375 0.89062,0.625 0.35938,0.14062 2.07813,0.60937 2.48437,0.65625 3.46875,1.07813 0.98437,0.42187 1.53125,1.23437 0.5625,0.79688 0.5625,2 0,1.17188 -0.6875,2.21875 -0.67188,1.03125 -1.96875,1.59375 -1.28125,0.5625 -2.90625,0.5625 -2.70313,0 -4.125,-1.10937 -1.40625,-1.125 -1.79688,-3.32813 z m 23.73438,-0.32812 2.42187,0.29687 q -0.57812,2.125 -2.125,3.29688 -1.54687,1.17187 -3.95312,1.17187 -3.03125,0 -4.8125,-1.85937 -1.78125,-1.875 -1.78125,-5.25 0,-3.48438 1.79687,-5.40625 1.79688,-1.9375 4.67188,-1.9375 2.76562,0 4.51562,1.89062 1.76563,1.89063 1.76563,5.3125 0,0.20313 -0.0156,0.625 h -10.3125 q 0.14063,2.28125 1.29688,3.5 1.15625,1.20313 2.89062,1.20313 1.28125,0 2.1875,-0.67188 0.92188,-0.6875 1.45313,-2.17187 z m -7.6875,-3.78125 h 7.71875 q -0.15625,-1.75 -0.89063,-2.625 -1.125,-1.34375 -2.90625,-1.34375 -1.60937,0 -2.71875,1.07812 -1.09375,1.07813 -1.20312,2.89063 z m 13.6687,8.23437 v -2.67187 h 2.65625 v 2.67187 q 0,1.46875 -0.51563,2.375 -0.51562,0.90625 -1.65625,1.40625 l -0.64062,-1.01562 q 0.73437,-0.3125 1.07812,-0.95313 0.35938,-0.625 0.40625,-1.8125 z m 25.70251,-14.40625 -2.32812,0.1875 q -0.3125,-1.39062 -0.89063,-2.01562 -0.95312,-1 -2.34375,-1 -1.10937,0 -1.96875,0.625 -1.09375,0.8125 -1.73437,2.35937 -0.64063,1.54688 -0.67188,4.40625 0.84375,-1.28125 2.0625,-1.90625 1.23438,-0.625 2.57813,-0.625 2.34375,0 3.98437,1.73438 1.64063,1.71875 1.64063,4.4375 0,1.79687 -0.78125,3.34375 -0.76563,1.54687 -2.125,2.375 -1.34375,0.8125 -3.0625,0.8125 -2.92188,0 -4.78125,-2.15625 -1.84375,-2.15625 -1.84375,-7.09375 0,-5.53125 2.04687,-8.04688 1.78125,-2.1875 4.79688,-2.1875 2.25,0 3.6875,1.26563 1.45312,1.25 1.73437,3.48437 z m -9.5625,8.21875 q 0,1.21875 0.5,2.32813 0.51563,1.09375 1.4375,1.6875 0.9375,0.57812 1.95313,0.57812 1.48437,0 2.54687,-1.20312 1.0625,-1.20313 1.0625,-3.25 0,-1.98438 -1.0625,-3.125 -1.04687,-1.14063 -2.64062,-1.14063 -1.59375,0 -2.70313,1.14063 -1.09375,1.14062 -1.09375,2.98437 z m 12.57495,1.78125 2.25,-0.21875 q 0.29688,1.59375 1.09375,2.3125 0.8125,0.71875 2.07813,0.71875 1.07812,0 1.89062,-0.5 0.8125,-0.5 1.32813,-1.32812 0.53125,-0.82813 0.875,-2.21875 0.35937,-1.40625 0.35937,-2.875 0,-0.15625 -0.0156,-0.46875 -0.70313,1.125 -1.92188,1.82812 -1.21875,0.6875 -2.64062,0.6875 -2.35938,0 -4,-1.71875 -1.64063,-1.71875 -1.64063,-4.53125 0,-2.90625 1.70313,-4.67187 1.71875,-1.76563 4.29687,-1.76563 1.85938,0 3.39063,1 1.54687,1 2.34375,2.85938 0.8125,1.85937 0.8125,5.35937 0,3.65625 -0.79688,5.82813 -0.79687,2.17187 -2.375,3.3125 -1.5625,1.125 -3.67187,1.125 -2.23438,0 -3.65625,-1.23438 -1.40625,-1.25 -1.70313,-3.5 z m 9.59375,-8.42187 q 0,-2.01563 -1.07812,-3.20313 -1.0625,-1.1875 -2.57813,-1.1875 -1.5625,0 -2.71875,1.28125 -1.15625,1.26563 -1.15625,3.29688 0,1.82812 1.09375,2.96875 1.10938,1.14062 2.71875,1.14062 1.625,0 2.67188,-1.14062 1.04687,-1.14063 1.04687,-3.15625 z m 9.44996,18.125 h -5.17188 v -1.9375 h 2.82813 v -20.5 h -2.82813 v -1.9375 h 5.17188 z"
     fill-rule="nonzero"
     id="path2227" />
  <path
     fill="#000000"
     fill-opacity="0"
     d="M 435.01827,339.36953 H 348.78203"
     fill-rule="evenodd"
     id="path2229" />
  <path
     stroke="#000000"
     stroke-width="1"
     stroke-linejoin="round"
     stroke-linecap="butt"
     d="M 435.01827,339.36953 H 354.78203"
     fill-rule="evenodd"
     id="path2231" />
  <path
     fill="#000000"
     stroke="#000000"
     stroke-width="1"
     stroke-linecap="butt"
     d="m 354.78204,337.7178 -4.53809,1.65173 4.53809,1.65174 z"
     fill-rule="evenodd"
     id="path2233" />
  <text
     xml:space="preserve"
     style="font-size:26.6667px;line-height:1.25;font-family:Arial;-inkscape-font-specification:Arial;fill:#000000;fill-opacity:1"
     x="54.976185"
     y="124.38271"
     id="text1999"><tspan
       sodipodi:role="line"
       id="tspan1997"
       x="54.976185"
       y="124.38271">boxes = [&quot;text&quot;, true, 39]</tspan></text>
  <path
     stroke="#000000"
     stroke-width="1"
     stroke-linejoin="round"
     stroke-linecap="butt"
     d="M 174.6534,140.99529 V 164.5071"
     fill-rule="evenodd"
     id="path2203-8" />
  <path
     fill="#000000"
     stroke="#000000"
     stroke-width="1"
     stroke-linecap="butt"
     d="m 173.00167,164.5071 1.65173,4.53809 1.65174,-4.53809 z"
     fill-rule="evenodd"
     id="path2205-4" />
</svg>
