<?xml version="1.0" encoding="UTF-8" standalone="no"?>
<svg
   xmlns:dc="http://purl.org/dc/elements/1.1/"
   xmlns:cc="http://creativecommons.org/ns#"
   xmlns:rdf="http://www.w3.org/1999/02/22-rdf-syntax-ns#"
   xmlns:svg="http://www.w3.org/2000/svg"
   xmlns="http://www.w3.org/2000/svg"
   xmlns:sodipodi="http://sodipodi.sourceforge.net/DTD/sodipodi-0.dtd"
   xmlns:inkscape="http://www.inkscape.org/namespaces/inkscape"
   version="1.1"
   viewBox="0 0 612.75592 395.28348"
   fill="none"
   stroke="none"
   stroke-linecap="square"
   stroke-miterlimit="10"
   id="svg4947"
   sodipodi:docname="flowchart-cheatsheat.svg"
   width="612.75592"
   height="395.28348"
   inkscape:version="1.0.2-2 (e86c870879, 2021-01-15)">
  <metadata
     id="metadata4953">
    <rdf:RDF>
      <cc:Work
         rdf:about="">
        <dc:format>image/svg+xml</dc:format>
        <dc:type
           rdf:resource="http://purl.org/dc/dcmitype/StillImage" />
        <dc:title />
      </cc:Work>
    </rdf:RDF>
  </metadata>
  <defs
     id="defs4951" />
  <sodipodi:namedview
     pagecolor="#ffffff"
     bordercolor="#666666"
     borderopacity="1"
     objecttolerance="10"
     gridtolerance="10"
     guidetolerance="10"
     inkscape:pageopacity="0"
     inkscape:pageshadow="2"
     inkscape:window-width="1920"
     inkscape:window-height="1017"
     id="namedview4949"
     showgrid="false"
     fit-margin-top="0"
     fit-margin-left="0"
     fit-margin-right="0"
     fit-margin-bottom="0"
     inkscape:zoom="1.1129443"
     inkscape:cx="410.75423"
     inkscape:cy="316.3481"
     inkscape:window-x="-8"
     inkscape:window-y="-8"
     inkscape:window-maximized="1"
     inkscape:current-layer="g4945"
     inkscape:document-rotation="0" />
  <clipPath
     id="p.0">
    <path
       d="M 0,0 H 960 V 720 H 0 Z"
       clip-rule="nonzero"
       id="path4862" />
  </clipPath>
  <g
     clip-path="url(#p.0)"
     id="g4945"
     transform="translate(0.5,-9.108924)">
    <text
       xml:space="preserve"
       style="font-size:26.6667px;line-height:1.25;font-family:Alegreya;-inkscape-font-specification:Alegreya;fill:#000000;fill-opacity:1"
       x="317.06653"
       y="375.38638"
       id="text1918-0"><tspan
         sodipodi:role="line"
         x="317.06653"
         y="375.38638"
         style="font-style:normal;font-variant:normal;font-weight:normal;font-stretch:normal;font-family:Arial;-inkscape-font-specification:Arial"
         id="tspan1920-1">redéfinition de la variabe</tspan></text>
    <path
       fill="#000000"
       fill-opacity="0"
       d="M 0,0 H 960 V 720 H 0 Z"
       fill-rule="evenodd"
       id="path4865" />
    <path
       fill="#cfe2f3"
       d="m 56.59727,11.089239 h 106.1875 v 0 c 13.91086,0 25.18782,13.846035 25.18782,30.925985 0,17.079948 -11.27696,30.925983 -25.18782,30.925983 H 56.59727 v 0 c -13.910851,0 -25.187822,-13.846035 -25.187822,-30.925983 0,-17.07995 11.276972,-30.925985 25.187822,-30.925985 z"
       fill-rule="evenodd"
       id="path4867" />
    <path
       stroke="#000000"
       stroke-width="1"
       stroke-linejoin="round"
       stroke-linecap="butt"
       d="m 56.59727,11.089239 h 106.1875 v 0 c 13.91086,0 25.18782,13.846035 25.18782,30.925985 0,17.079948 -11.27696,30.925983 -25.18782,30.925983 H 56.59727 v 0 c -13.910851,0 -25.187822,-13.846035 -25.187822,-30.925983 0,-17.07995 11.276972,-30.925985 25.187822,-30.925985 z"
       fill-rule="evenodd"
       id="path4869" />
    <path
       fill="#000000"
       fill-opacity="0"
       d="M 313.12598,43.660107 187.96064,42.022309"
       fill-rule="evenodd"
       id="path4871" />
    <path
       stroke="#000000"
       stroke-width="1"
       stroke-linejoin="round"
       stroke-linecap="butt"
       d="M 313.12598,43.660107 193.96012,42.100815"
       fill-rule="evenodd"
       id="path4873" />
    <path
       fill="#000000"
       stroke="#000000"
       stroke-width="1"
       stroke-linecap="butt"
       d="m 193.98172,40.449223 -4.55931,1.592213 4.5161,1.710968 z"
       fill-rule="evenodd"
       id="path4875" />
    <path
       fill="#cfe2f3"
       d="M 0,185.95538 43.87664,110.39894 H 219.3832 l -43.87665,75.55644 z"
       fill-rule="evenodd"
       id="path4877" />
    <path
       stroke="#000000"
       stroke-width="1"
       stroke-linejoin="round"
       stroke-linecap="butt"
       d="M 0,185.95538 43.87664,110.39894 H 219.3832 l -43.87665,75.55644 z"
       fill-rule="evenodd"
       id="path4879" />
    <path
       fill="#000000"
       fill-opacity="0"
       d="M 313.12598,148.17717 H 197.44095"
       fill-rule="evenodd"
       id="path4881" />
    <path
       stroke="#000000"
       stroke-width="1"
       stroke-linejoin="round"
       stroke-linecap="butt"
       d="M 313.12598,148.17717 H 203.44095"
       fill-rule="evenodd"
       id="path4883" />
    <path
       fill="#000000"
       stroke="#000000"
       stroke-width="1"
       stroke-linecap="butt"
       d="m 203.44095,146.52544 -4.5381,1.65173 4.5381,1.65174 z"
       fill-rule="evenodd"
       id="path4885" />
    <path
       fill="#cfe2f3"
       d="M 2.8976378,213.13649 H 251.27296 v 92.05772 H 2.8976378 Z"
       fill-rule="evenodd"
       id="path4887" />
    <path
       fill="#000000"
       fill-opacity="0"
       d="m 33.944553,213.13649 v 92.05772 M 2.897638,224.6437 H 251.27296"
       fill-rule="evenodd"
       id="path4889" />
    <path
       fill="#000000"
       fill-opacity="0"
       d="M 2.8976378,213.13649 H 251.27296 v 92.05772 H 2.8976378 Z"
       fill-rule="evenodd"
       id="path4891" />
    <path
       stroke="#000000"
       stroke-width="1"
       stroke-linejoin="round"
       stroke-linecap="butt"
       d="m 33.944553,213.13649 v 92.05772 M 2.897638,224.6437 H 251.27296"
       fill-rule="evenodd"
       id="path4893" />
    <path
       stroke="#000000"
       stroke-width="1"
       stroke-linejoin="round"
       stroke-linecap="butt"
       d="M 2.8976378,213.13649 H 251.27296 v 92.05772 H 2.8976378 Z"
       fill-rule="evenodd"
       id="path4895" />
    <path
       fill="#cfe2f3"
       d="m 0,331.8924 h 251.27296 v 72 H 0 Z"
       fill-rule="evenodd"
       id="path4899" />
    <path
       stroke="#000000"
       stroke-width="1"
       stroke-linejoin="round"
       stroke-linecap="butt"
       d="m 0,331.8924 h 251.27296 v 72 H 0 Z"
       fill-rule="evenodd"
       id="path4901" />
    <path
       fill="#000000"
       d="m 78.055046,377.4924 h -2.171875 v -19.07813 h 2.34375 v 6.79688 q 1.484375,-1.85938 3.78125,-1.85938 1.28125,0 2.40625,0.51563 1.140625,0.51562 1.875,1.45312 0.75,0.92188 1.15625,2.25 0.421875,1.3125 0.421875,2.79688 0,3.5625 -1.765625,5.5 -1.75,1.9375 -4.21875,1.9375 -2.4375,0 -3.828125,-2.04688 z m -0.03125,-7.01563 q 0,2.48438 0.671875,3.59375 1.109375,1.8125 3,1.8125 1.53125,0 2.65625,-1.32812 1.125,-1.34375 1.125,-3.98438 0,-2.70312 -1.078125,-3.98437 -1.078125,-1.29688 -2.59375,-1.29688 -1.546875,0 -2.671875,1.32813 -1.109375,1.32812 -1.109375,3.85937 z m 11.824936,0.10938 q 0,-3.84375 2.125,-5.6875 1.78125,-1.54688 4.34375,-1.54688 2.859375,0 4.656248,1.875 1.8125,1.85938 1.8125,5.15625 0,2.67188 -0.79687,4.20313 -0.79688,1.53125 -2.328128,2.375 -1.53125,0.84375 -3.34375,0.84375 -2.890625,0 -4.6875,-1.85938 -1.78125,-1.85937 -1.78125,-5.35937 z m 2.40625,0 q 0,2.65625 1.15625,3.98437 1.15625,1.3125 2.90625,1.3125 1.75,0 2.90625,-1.32812 1.156248,-1.32813 1.156248,-4.04688 0,-2.5625 -1.171873,-3.89062 -1.15625,-1.32813 -2.890625,-1.32813 -1.75,0 -2.90625,1.32813 -1.15625,1.3125 -1.15625,3.96875 z m 11.715558,6.90625 5.0625,-7.1875 -4.67187,-6.64063 h 2.92187 l 2.125,3.25 q 0.59375,0.92188 0.96875,1.54688 0.5625,-0.85938 1.04688,-1.53125 l 2.32812,-3.26563 h 2.79688 l -4.78125,6.51563 5.15625,7.3125 h -2.89063 l -2.82812,-4.29688 -0.75,-1.15625 -3.64063,5.45313 z m 34.6247,-11.21875 H 126.0015 v -2.1875 h 12.59374 z m 0,5.79687 H 126.0015 v -2.1875 h 12.59374 z m 22.31656,3.17188 v 2.25 h -12.60937 q -0.0312,-0.84375 0.26562,-1.625 0.48438,-1.29688 1.54688,-2.54688 1.0625,-1.25 3.0625,-2.875 3.10937,-2.5625 4.20312,-4.04687 1.09375,-1.5 1.09375,-2.8125 0,-1.40625 -1,-2.35938 -0.98437,-0.95312 -2.59375,-0.95312 -1.6875,0 -2.70312,1.01562 -1.01563,1.01563 -1.03125,2.8125 l -2.40625,-0.25 q 0.25,-2.6875 1.85937,-4.09375 1.60938,-1.42187 4.32813,-1.42187 2.75,0 4.34375,1.53125 1.60937,1.51562 1.60937,3.76562 0,1.14063 -0.46875,2.25 -0.46875,1.10938 -1.5625,2.32813 -1.07812,1.21875 -3.60937,3.35937 -2.09375,1.76563 -2.70313,2.40625 -0.59375,0.625 -0.98437,1.26563 z m 6.1218,-8.09375 q -1.46875,-0.53125 -2.17188,-1.51563 -0.70312,-1 -0.70312,-2.375 0,-2.09375 1.5,-3.5 1.5,-1.42187 3.98437,-1.42187 2.5,0 4.01563,1.45312 1.53125,1.45313 1.53125,3.53125 0,1.32813 -0.70313,2.3125 -0.6875,0.98438 -2.10937,1.51563 1.75,0.5625 2.67187,1.84375 0.92188,1.28125 0.92188,3.04687 0,2.45313 -1.73438,4.125 -1.73437,1.65625 -4.5625,1.65625 -2.8125,0 -4.54687,-1.67187 -1.73438,-1.67188 -1.73438,-4.17188 0,-1.85937 0.9375,-3.10937 0.95313,-1.26563 2.70313,-1.71875 z m -0.46875,-3.96875 q 0,1.34375 0.85937,2.20312 0.875,0.85938 2.26563,0.85938 1.35937,0 2.21875,-0.84375 0.875,-0.85938 0.875,-2.09375 0,-1.28125 -0.89063,-2.15625 -0.89062,-0.89063 -2.21875,-0.89063 -1.34375,0 -2.23437,0.85938 -0.875,0.85937 -0.875,2.0625 z m -0.76563,8.8125 q 0,1 0.46875,1.9375 0.48438,0.9375 1.42188,1.45312 0.9375,0.51563 2.01562,0.51563 1.6875,0 2.78125,-1.07813 1.09375,-1.09375 1.09375,-2.75 0,-1.70312 -1.14062,-2.79687 -1.125,-1.10938 -2.8125,-1.10938 -1.65625,0 -2.75,1.09375 -1.07813,1.09375 -1.07813,2.73438 z"
       fill-rule="nonzero"
       id="path4903" />
    <path
       fill="#000000"
       fill-opacity="0"
       d="m 313.12598,223.16536 h 298.62994 v 71.99998 H 313.12598 Z"
       fill-rule="evenodd"
       id="path4905" />
    <path
       stroke="#000000"
       stroke-width="1"
       stroke-linejoin="round"
       stroke-linecap="butt"
       stroke-dasharray="1, 3"
       d="m 313.12598,223.16536 h 298.62994 v 71.99998 H 313.12598 Z"
       fill-rule="evenodd"
       id="path4907" />
    <path
       fill="#000000"
       fill-opacity="0"
       d="m 313.12598,331.8924 h 298.62994 v 72 H 313.12598 Z"
       fill-rule="evenodd"
       id="path4913" />
    <path
       stroke="#000000"
       stroke-width="1"
       stroke-linejoin="round"
       stroke-linecap="butt"
       stroke-dasharray="1, 3"
       d="m 313.12598,331.8924 h 298.62994 v 72 H 313.12598 Z"
       fill-rule="evenodd"
       id="path4915" />
    <path
       fill="#000000"
       fill-opacity="0"
       d="M 313.12598,367.8924 H 251.26772"
       fill-rule="evenodd"
       id="path4919" />
    <path
       stroke="#000000"
       stroke-width="1"
       stroke-linejoin="round"
       stroke-linecap="butt"
       d="M 313.12598,367.8924 H 257.26773"
       fill-rule="evenodd"
       id="path4921" />
    <path
       fill="#000000"
       stroke="#000000"
       stroke-width="1"
       stroke-linecap="butt"
       d="m 257.26773,366.24066 -4.53812,1.65173 4.53812,1.65174 z"
       fill-rule="evenodd"
       id="path4923" />
    <path
       fill="#000000"
       fill-opacity="0"
       d="M 313.12598,259.16534 H 251.26772"
       fill-rule="evenodd"
       id="path4925" />
    <path
       stroke="#000000"
       stroke-width="1"
       stroke-linejoin="round"
       stroke-linecap="butt"
       d="M 313.12598,259.16534 H 257.26773"
       fill-rule="evenodd"
       id="path4927" />
    <path
       fill="#000000"
       stroke="#000000"
       stroke-width="1"
       stroke-linecap="butt"
       d="m 257.26773,257.5136 -4.53812,1.65173 4.53812,1.65174 z"
       fill-rule="evenodd"
       id="path4929" />
    <path
       fill="#000000"
       fill-opacity="0"
       d="m 313.12598,112.17716 h 298.62994 v 72.00001 H 313.12598 Z"
       fill-rule="evenodd"
       id="path4931" />
    <path
       stroke="#000000"
       stroke-width="1"
       stroke-linejoin="round"
       stroke-linecap="butt"
       stroke-dasharray="1, 3"
       d="m 313.12598,112.17716 h 298.62994 v 72.00001 H 313.12598 Z"
       fill-rule="evenodd"
       id="path4933" />
    <path
       fill="#000000"
       d="m 324.61035,157.77716 v -19.07813 h 2.53125 v 19.07813 z m 6.6716,0 v -13.82813 h 2.10938 v 1.96875 q 1.53125,-2.28125 4.40625,-2.28125 1.25,0 2.29687,0.45313 1.04688,0.45312 1.5625,1.1875 0.53125,0.71875 0.73438,1.71875 0.125,0.65625 0.125,2.28125 v 8.5 h -2.34375 v -8.40625 q 0,-1.4375 -0.28125,-2.14063 -0.26563,-0.71875 -0.96875,-1.14062 -0.6875,-0.42188 -1.625,-0.42188 -1.48438,0 -2.57813,0.95313 -1.09375,0.95312 -1.09375,3.60937 v 7.54688 z m 14.82492,5.29687 v -19.125 h 2.14063 v 1.79688 q 0.75,-1.04688 1.70312,-1.57813 0.95313,-0.53125 2.3125,-0.53125 1.76563,0 3.10938,0.92188 1.35937,0.90625 2.04687,2.5625 0.6875,1.65625 0.6875,3.64062 0,2.125 -0.76562,3.82813 -0.75,1.6875 -2.20313,2.59375 -1.45312,0.90625 -3.04687,0.90625 -1.17188,0 -2.10938,-0.48438 -0.92187,-0.5 -1.53125,-1.26562 v 6.73437 z m 2.125,-12.125 q 0,2.65625 1.07813,3.9375 1.09375,1.28125 2.625,1.28125 1.5625,0 2.67187,-1.3125 1.10938,-1.32812 1.10938,-4.10937 0,-2.64063 -1.09375,-3.95313 -1.07813,-1.3125 -2.59375,-1.3125 -1.48438,0 -2.64063,1.40625 -1.15625,1.39063 -1.15625,4.0625 z m 21.76245,6.82813 v -2.03125 q -1.60937,2.34375 -4.375,2.34375 -1.23437,0 -2.29687,-0.46875 -1.0625,-0.46875 -1.57813,-1.17188 -0.5,-0.71875 -0.71875,-1.75 -0.14062,-0.6875 -0.14062,-2.1875 v -8.5625 h 2.34375 v 7.67188 q 0,1.82812 0.14062,2.46875 0.21875,0.92187 0.9375,1.45312 0.71875,0.53125 1.76563,0.53125 1.0625,0 1.98437,-0.53125 0.92188,-0.54687 1.29688,-1.46875 0.39062,-0.9375 0.39062,-2.71875 v -7.40625 h 2.34375 v 13.82813 z m 10.88742,-2.09375 0.32813,2.0625 q -0.98438,0.21875 -1.76563,0.21875 -1.26562,0 -1.96875,-0.40625 -0.70312,-0.40625 -1,-1.0625 -0.28125,-0.65625 -0.28125,-2.76563 v -7.95312 h -1.71875 v -1.82813 h 1.71875 v -3.42187 l 2.32813,-1.40625 v 4.82812 h 2.35937 v 1.82813 h -2.35937 v 8.07812 q 0,1 0.125,1.29688 0.125,0.28125 0.40625,0.45312 0.28125,0.17188 0.79687,0.17188 0.39063,0 1.03125,-0.0937 z m 0.53098,2.42187 5.53125,-19.73437 h 1.875 l -5.51563,19.73437 z m 8.68719,-9.625 q 0,-4.75 2.54688,-7.4375 2.5625,-2.6875 6.59375,-2.6875 2.64062,0 4.76562,1.26563 2.125,1.26562 3.23438,3.53125 1.10937,2.25 1.10937,5.10937 0,2.90625 -1.17187,5.20313 -1.17188,2.28125 -3.3125,3.46875 -2.14063,1.17187 -4.64063,1.17187 -2.6875,0 -4.8125,-1.29687 -2.125,-1.3125 -3.21875,-3.5625 -1.09375,-2.25 -1.09375,-4.76563 z m 2.60938,0.0469 q 0,3.4375 1.84375,5.4375 1.85937,1.98437 4.67187,1.98437 2.84375,0 4.6875,-2 1.84375,-2.01562 1.84375,-5.70312 0,-2.32813 -0.79687,-4.0625 -0.78125,-1.73438 -2.29688,-2.6875 -1.51562,-0.96875 -3.40625,-0.96875 -2.6875,0 -4.625,1.84375 -1.92187,1.84375 -1.92187,6.15625 z m 27.65597,9.25 v -2.03125 q -1.60937,2.34375 -4.375,2.34375 -1.23437,0 -2.29687,-0.46875 -1.0625,-0.46875 -1.57813,-1.17188 -0.5,-0.71875 -0.71875,-1.75 -0.14062,-0.6875 -0.14062,-2.1875 v -8.5625 h 2.34375 v 7.67188 q 0,1.82812 0.14062,2.46875 0.21875,0.92187 0.9375,1.45312 0.71875,0.53125 1.76563,0.53125 1.0625,0 1.98437,-0.53125 0.92188,-0.54687 1.29688,-1.46875 0.39062,-0.9375 0.39062,-2.71875 v -7.40625 h 2.34375 v 13.82813 z m 10.88742,-2.09375 0.32813,2.0625 q -0.98438,0.21875 -1.76563,0.21875 -1.26562,0 -1.96875,-0.40625 -0.70312,-0.40625 -1,-1.0625 -0.28125,-0.65625 -0.28125,-2.76563 v -7.95312 h -1.71875 v -1.82813 h 1.71875 v -3.42187 l 2.32813,-1.40625 v 4.82812 h 2.35937 v 1.82813 h -2.35937 v 8.07812 q 0,1 0.125,1.29688 0.125,0.28125 0.40625,0.45312 0.28125,0.17188 0.79687,0.17188 0.39063,0 1.03125,-0.0937 z m 2.28098,7.39062 v -19.125 h 2.14062 v 1.79688 q 0.75,-1.04688 1.70313,-1.57813 0.95312,-0.53125 2.3125,-0.53125 1.76562,0 3.10937,0.92188 1.35938,0.90625 2.04688,2.5625 0.6875,1.65625 0.6875,3.64062 0,2.125 -0.76563,3.82813 -0.75,1.6875 -2.20312,2.59375 -1.45313,0.90625 -3.04688,0.90625 -1.17187,0 -2.10937,-0.48438 -0.92188,-0.5 -1.53125,-1.26562 v 6.73437 z m 2.125,-12.125 q 0,2.65625 1.07812,3.9375 1.09375,1.28125 2.625,1.28125 1.5625,0 2.67188,-1.3125 1.10937,-1.32812 1.10937,-4.10937 0,-2.64063 -1.09375,-3.95313 -1.07812,-1.3125 -2.59375,-1.3125 -1.48437,0 -2.64062,1.40625 -1.15625,1.39063 -1.15625,4.0625 z m 21.76242,6.82813 v -2.03125 q -1.60938,2.34375 -4.375,2.34375 -1.23438,0 -2.29688,-0.46875 -1.0625,-0.46875 -1.57812,-1.17188 -0.5,-0.71875 -0.71875,-1.75 -0.14063,-0.6875 -0.14063,-2.1875 v -8.5625 h 2.34375 v 7.67188 q 0,1.82812 0.14063,2.46875 0.21875,0.92187 0.9375,1.45312 0.71875,0.53125 1.76562,0.53125 1.0625,0 1.98438,-0.53125 0.92187,-0.54687 1.29687,-1.46875 0.39063,-0.9375 0.39063,-2.71875 v -7.40625 h 2.34375 v 13.82813 z m 10.88745,-2.09375 0.32813,2.0625 q -0.98438,0.21875 -1.76563,0.21875 -1.26562,0 -1.96875,-0.40625 -0.70312,-0.40625 -1,-1.0625 -0.28125,-0.65625 -0.28125,-2.76563 v -7.95312 h -1.71875 v -1.82813 h 1.71875 v -3.42187 l 2.32813,-1.40625 v 4.82812 h 2.35937 v 1.82813 h -2.35937 v 8.07812 q 0,1 0.125,1.29688 0.125,0.28125 0.40625,0.45312 0.28125,0.17188 0.79687,0.17188 0.39063,0 1.03125,-0.0937 z"
       fill-rule="nonzero"
       id="path4935" />
    <path
       fill="#000000"
       fill-opacity="0"
       d="m 313.12598,9.608924 h 298.62994 v 68.10236 H 313.12598 Z"
       fill-rule="evenodd"
       id="path4937" />
    <path
       stroke="#000000"
       stroke-width="1"
       stroke-linejoin="round"
       stroke-linecap="butt"
       stroke-dasharray="1, 3"
       d="m 313.12598,9.608924 h 298.62994 v 68.10236 H 313.12598 Z"
       fill-rule="evenodd"
       id="path4939" />
    <path
       fill="#000000"
       d="M 329.03223,37.260105 V 20.431978 h -6.28125 v -2.25 h 15.125 v 2.25 h -6.3125 v 16.828127 z m 17.63946,-4.453125 2.42188,0.296875 q -0.57813,2.125 -2.125,3.296875 -1.54688,1.171875 -3.95313,1.171875 -3.03125,0 -4.8125,-1.859375 -1.78125,-1.875 -1.78125,-5.250002 0,-3.484375 1.79688,-5.40625 1.79687,-1.9375 4.67187,-1.9375 2.76563,0 4.51563,1.890625 1.76562,1.890625 1.76562,5.3125 0,0.203125 -0.0156,0.625 h -10.3125 q 0.14062,2.281252 1.29687,3.500002 1.15625,1.203125 2.89063,1.203125 1.28125,0 2.1875,-0.671875 0.92187,-0.6875 1.45312,-2.171875 z m -7.6875,-3.781252 h 7.71875 q -0.15625,-1.75 -0.89062,-2.625 -1.125,-1.34375 -2.90625,-1.34375 -1.60938,0 -2.71875,1.078125 -1.09375,1.078125 -1.20313,2.890625 z m 13.02808,8.234377 V 23.431978 h 2.10938 v 2.09375 q 0.79687,-1.46875 1.48437,-1.9375 0.6875,-0.46875 1.5,-0.46875 1.1875,0 2.40625,0.765625 l -0.79687,2.171875 q -0.85938,-0.515625 -1.71875,-0.515625 -0.76563,0 -1.39063,0.46875 -0.60937,0.453125 -0.85937,1.28125 -0.39063,1.25 -0.39063,2.734375 v 7.234377 z m 8.89237,0 V 23.431978 h 2.10937 v 1.9375 q 0.64063,-1.015625 1.71875,-1.625 1.09375,-0.625 2.46875,-0.625 1.53125,0 2.51563,0.640625 0.98437,0.640625 1.39062,1.78125 1.64063,-2.421875 4.26563,-2.421875 2.0625,0 3.15625,1.140625 1.10937,1.140625 1.10937,3.515625 v 9.484377 h -2.32812 v -8.703127 q 0,-1.40625 -0.23438,-2.015625 -0.21875,-0.625 -0.82812,-1 -0.59375,-0.390625 -1.39063,-0.390625 -1.46875,0 -2.4375,0.96875 -0.95312,0.96875 -0.95312,3.109375 v 8.031252 h -2.34375 v -8.984377 q 0,-1.5625 -0.57813,-2.34375 -0.5625,-0.78125 -1.875,-0.78125 -0.98437,0 -1.82812,0.53125 -0.82813,0.515625 -1.21875,1.515625 -0.375,1 -0.375,2.890625 v 7.171877 z m 22.22049,-16.390627 v -2.6875 h 2.34375 v 2.6875 z m 0,16.390627 V 23.431978 h 2.34375 v 13.828127 z m 5.90652,0 V 23.431978 h 2.10938 v 1.96875 q 1.53125,-2.28125 4.40625,-2.28125 1.25,0 2.29687,0.453125 1.04688,0.453125 1.5625,1.1875 0.53125,0.71875 0.73438,1.71875 0.125,0.65625 0.125,2.28125 v 8.500002 h -2.34375 v -8.406252 q 0,-1.4375 -0.28125,-2.140625 -0.26563,-0.71875 -0.96875,-1.140625 -0.6875,-0.421875 -1.625,-0.421875 -1.48438,0 -2.57813,0.953125 -1.09375,0.953125 -1.09375,3.609375 v 7.546877 z m 23.8562,-1.703125 q -1.3125,1.109375 -2.51562,1.5625 -1.20313,0.453125 -2.57813,0.453125 -2.28125,0 -3.5,-1.109375 -1.21875,-1.109375 -1.21875,-2.84375 0,-1.015625 0.45313,-1.859377 0.46875,-0.84375 1.21875,-1.34375 0.75,-0.515625 1.6875,-0.765625 0.6875,-0.1875 2.07812,-0.359375 2.82813,-0.328125 4.17188,-0.796875 0.0156,-0.484375 0.0156,-0.625 0,-1.421875 -0.65625,-2.015625 -0.90625,-0.796875 -2.67187,-0.796875 -1.65625,0 -2.45313,0.59375 -0.78125,0.578125 -1.15625,2.046875 l -2.29687,-0.3125 q 0.3125,-1.46875 1.03125,-2.375 0.71875,-0.90625 2.0625,-1.390625 1.35937,-0.5 3.14062,-0.5 1.78125,0 2.875,0.421875 1.10938,0.421875 1.625,1.046875 0.53125,0.625 0.73438,1.59375 0.125,0.59375 0.125,2.15625 v 3.125 q 0,3.265627 0.14062,4.140627 0.15625,0.859375 0.59375,1.65625 h -2.4375 q -0.375,-0.734375 -0.46875,-1.703125 z m -0.20312,-5.234377 q -1.26563,0.515625 -3.82813,0.890625 -1.4375,0.203125 -2.04687,0.46875 -0.59375,0.25 -0.92188,0.750002 -0.3125,0.5 -0.3125,1.125 0,0.9375 0.70313,1.5625 0.70312,0.625 2.07812,0.625 1.34375,0 2.39063,-0.59375 1.0625,-0.59375 1.5625,-1.625 0.375,-0.796875 0.375,-2.343752 z m 5.94992,6.937502 V 18.181978 h 2.34375 v 19.078127 z m 22.34375,0 v -1.75 q -1.3125,2.0625 -3.85938,2.0625 -1.65625,0 -3.04687,-0.90625 -1.375,-0.921875 -2.14063,-2.546875 -0.76562,-1.640625 -0.76562,-3.750002 0,-2.078125 0.6875,-3.765625 0.70312,-1.6875 2.07812,-2.578125 1.375,-0.90625 3.07813,-0.90625 1.25,0 2.21875,0.53125 0.98437,0.53125 1.59375,1.375 v -6.84375 h 2.34375 v 19.078127 z m -7.40625,-6.890627 q 0,2.640627 1.125,3.968752 1.125,1.3125 2.64062,1.3125 1.53125,0 2.60938,-1.25 1.07812,-1.265625 1.07812,-3.843752 0,-2.84375 -1.09375,-4.171875 -1.09375,-1.328125 -2.70312,-1.328125 -1.54688,0 -2.60938,1.28125 -1.04687,1.28125 -1.04687,4.03125 z m 22.7312,2.437502 2.42187,0.296875 q -0.57812,2.125 -2.125,3.296875 -1.54687,1.171875 -3.95312,1.171875 -3.03125,0 -4.8125,-1.859375 -1.78125,-1.875 -1.78125,-5.250002 0,-3.484375 1.79687,-5.40625 1.79688,-1.9375 4.67188,-1.9375 2.76562,0 4.51562,1.890625 1.76563,1.890625 1.76563,5.3125 0,0.203125 -0.0156,0.625 h -10.3125 q 0.14063,2.281252 1.29688,3.500002 1.15625,1.203125 2.89062,1.203125 1.28125,0 2.1875,-0.671875 0.92188,-0.6875 1.45313,-2.171875 z m -7.6875,-3.781252 h 7.71875 q -0.15625,-1.75 -0.89063,-2.625 -1.125,-1.34375 -2.90625,-1.34375 -1.60937,0 -2.71875,1.078125 -1.09375,1.078125 -1.20312,2.890625 z m 2.51562,-7.3125 1.73438,-3.640625 h 3.0625 l -2.85938,3.640625 z m 12.69992,15.546877 h -2.17187 V 18.181978 h 2.34375 v 6.796875 q 1.48437,-1.859375 3.78125,-1.859375 1.28125,0 2.40625,0.515625 1.14062,0.515625 1.875,1.453125 0.75,0.921875 1.15625,2.25 0.42187,1.3125 0.42187,2.796875 0,3.562502 -1.76562,5.500002 -1.75,1.9375 -4.21875,1.9375 -2.4375,0 -3.82813,-2.046875 z m -0.0312,-7.015627 q 0,2.484377 0.67188,3.593752 1.10937,1.8125 3,1.8125 1.53125,0 2.65625,-1.328125 1.125,-1.34375 1.125,-3.984377 0,-2.703125 -1.07813,-3.984375 -1.07812,-1.296875 -2.59375,-1.296875 -1.54687,0 -2.67187,1.328125 -1.10938,1.328125 -1.10938,3.859375 z m 21.74683,7.015627 v -2.03125 q -1.60938,2.34375 -4.375,2.34375 -1.23438,0 -2.29688,-0.46875 -1.0625,-0.46875 -1.57812,-1.171875 -0.5,-0.71875 -0.71875,-1.75 -0.14063,-0.6875 -0.14063,-2.187502 v -8.5625 h 2.34375 v 7.671875 q 0,1.828127 0.14063,2.468752 0.21875,0.921875 0.9375,1.453125 0.71875,0.53125 1.76562,0.53125 1.0625,0 1.98438,-0.53125 0.92187,-0.546875 1.29687,-1.46875 0.39063,-0.9375 0.39063,-2.718752 v -7.40625 h 2.34375 v 13.828127 z m 10.88742,-2.09375 0.32813,2.0625 q -0.98438,0.21875 -1.76563,0.21875 -1.26562,0 -1.96875,-0.40625 -0.70312,-0.40625 -1,-1.0625 -0.28125,-0.65625 -0.28125,-2.765625 v -7.953127 h -1.71875 v -1.828125 h 1.71875 v -3.421875 l 2.32813,-1.40625 v 4.828125 h 2.35937 v 1.828125 h -2.35937 v 8.078127 q 0,1 0.125,1.296875 0.125,0.28125 0.40625,0.453125 0.28125,0.171875 0.79687,0.171875 0.39063,0 1.03125,-0.09375 z m 0.53098,2.421875 5.53125,-19.734377 h 1.875 l -5.51563,19.734377 z m 9.71844,-0.328125 V 25.260103 h -2.0625 v -1.828125 h 2.0625 v -1.46875 q 0,-1.390625 0.25,-2.0625 0.34375,-0.921875 1.1875,-1.484375 0.85938,-0.5625 2.39063,-0.5625 0.98437,0 2.18753,0.234375 l -0.34375,2.046875 q -0.73441,-0.140625 -1.39066,-0.140625 -1.0625,0 -1.51562,0.46875 -0.4375,0.453125 -0.4375,1.703125 v 1.265625 h 2.70312 v 1.828125 h -2.70312 v 12.000002 z m 6.8591,-16.390627 v -2.6875 h 2.34375 v 2.6875 z m 0,16.390627 V 23.431978 h 2.34375 v 13.828127 z m 5.90656,0 V 23.431978 h 2.10937 v 1.96875 q 1.53125,-2.28125 4.40625,-2.28125 1.25,0 2.29688,0.453125 1.04687,0.453125 1.5625,1.1875 0.53125,0.71875 0.73437,1.71875 0.125,0.65625 0.125,2.28125 v 8.500002 h -2.34375 v -8.406252 q 0,-1.4375 -0.28125,-2.140625 -0.26562,-0.71875 -0.96875,-1.140625 -0.6875,-0.421875 -1.625,-0.421875 -1.48437,0 -2.57812,0.953125 -1.09375,0.953125 -1.09375,3.609375 v 7.546877 z m 31.19964,0 v -1.75 q -1.3125,2.0625 -3.85937,2.0625 -1.65625,0 -3.04688,-0.90625 -1.375,-0.921875 -2.14062,-2.546875 -0.76563,-1.640625 -0.76563,-3.750002 0,-2.078125 0.6875,-3.765625 0.70313,-1.6875 2.07813,-2.578125 1.375,-0.90625 3.07812,-0.90625 1.25,0 2.21875,0.53125 0.98438,0.53125 1.59375,1.375 v -6.84375 h 2.34375 v 19.078127 z m -7.40625,-6.890627 q 0,2.640627 1.125,3.968752 1.125,1.3125 2.64063,1.3125 1.53125,0 2.60937,-1.25 1.07813,-1.265625 1.07813,-3.843752 0,-2.84375 -1.09375,-4.171875 -1.09375,-1.328125 -2.70313,-1.328125 -1.54687,0 -2.60937,1.28125 -1.04688,1.28125 -1.04688,4.03125 z m 22.32489,6.890627 v -2.03125 q -1.60937,2.34375 -4.375,2.34375 -1.23437,0 -2.29687,-0.46875 -1.0625,-0.46875 -1.57813,-1.171875 -0.5,-0.71875 -0.71875,-1.75 -0.14062,-0.6875 -0.14062,-2.187502 v -8.5625 h 2.34375 v 7.671875 q 0,1.828127 0.14062,2.468752 0.21875,0.921875 0.9375,1.453125 0.71875,0.53125 1.76563,0.53125 1.0625,0 1.98437,-0.53125 0.92188,-0.546875 1.29688,-1.46875 0.39062,-0.9375 0.39062,-2.718752 v -7.40625 h 2.34375 v 13.828127 z"
       fill-rule="nonzero"
       id="path4941" />
    <path
       fill="#000000"
       d="M 323.87598,74.556984 V 55.43198 h 2.14063 v 1.796875 q 0.75,-1.046875 1.70312,-1.578125 0.95313,-0.53125 2.3125,-0.53125 1.76563,0 3.10938,0.921875 1.35937,0.90625 2.04687,2.5625 0.6875,1.65625 0.6875,3.640625 0,2.124996 -0.76562,3.828121 -0.75,1.6875 -2.20313,2.59375 -1.45312,0.90625 -3.04687,0.90625 -1.17188,0 -2.10938,-0.484375 -0.92187,-0.5 -1.53125,-1.265625 v 6.734383 z m 2.125,-12.125004 q 0,2.656246 1.07813,3.937496 1.09375,1.28125 2.625,1.28125 1.5625,0 2.67187,-1.3125 1.10938,-1.328125 1.10938,-4.109371 0,-2.640625 -1.09375,-3.953125 -1.07813,-1.3125 -2.59375,-1.3125 -1.48438,0 -2.64063,1.40625 -1.15625,1.390625 -1.15625,4.0625 z m 12.68433,6.828121 V 55.43198 h 2.10937 v 2.09375 q 0.79688,-1.46875 1.48438,-1.9375 0.6875,-0.46875 1.5,-0.46875 1.1875,0 2.40625,0.765625 l -0.79688,2.171875 q -0.85937,-0.515625 -1.71875,-0.515625 -0.76562,0 -1.39062,0.46875 -0.60938,0.453125 -0.85938,1.28125 -0.39062,1.25 -0.39062,2.734375 v 7.234371 z m 8.03299,-6.906246 q 0,-3.84375 2.125,-5.6875 1.78125,-1.546875 4.34375,-1.546875 2.85937,0 4.65625,1.875 1.8125,1.859375 1.8125,5.15625 0,2.671871 -0.79688,4.203121 -0.79687,1.53125 -2.32812,2.375 -1.53125,0.84375 -3.34375,0.84375 -2.89063,0 -4.6875,-1.859375 -1.78125,-1.859375 -1.78125,-5.359371 z m 2.40625,0 q 0,2.656246 1.15625,3.984371 1.15625,1.3125 2.90625,1.3125 1.75,0 2.90625,-1.328125 1.15625,-1.328125 1.15625,-4.046871 0,-2.5625 -1.17188,-3.890625 -1.15625,-1.328125 -2.89062,-1.328125 -1.75,0 -2.90625,1.328125 -1.15625,1.3125 -1.15625,3.96875 z m 12.85617,8.046871 2.28125,0.34375 q 0.14062,1.046875 0.79687,1.53125 0.85938,0.65625 2.375,0.65625 1.625,0 2.5,-0.65625 0.89063,-0.640625 1.20313,-1.8125 0.1875,-0.71875 0.17187,-3.015625 -1.53125,1.8125 -3.82812,1.8125 -2.84375,0 -4.40625,-2.046875 -1.5625,-2.0625 -1.5625,-4.937496 0,-1.984375 0.71875,-3.65625 0.71875,-1.671875 2.07812,-2.578125 1.35938,-0.921875 3.1875,-0.921875 2.45313,0 4.03125,1.984375 V 55.43198 h 2.17188 v 11.953121 q 0,3.234375 -0.65625,4.578125 -0.65625,1.34375 -2.09375,2.125008 -1.42188,0.78125 -3.5,0.78125 -2.46875,0 -4,-1.109375 -1.51563,-1.109383 -1.46875,-3.359383 z m 1.9375,-8.296871 q 0,2.718746 1.07812,3.968746 1.07813,1.25 2.70313,1.25 1.625,0 2.71875,-1.234375 1.09375,-1.25 1.09375,-3.906246 0,-2.546875 -1.125,-3.828125 -1.125,-1.296875 -2.71875,-1.296875 -1.5625,0 -2.65625,1.28125 -1.09375,1.265625 -1.09375,3.765625 z m 13.2937,7.156246 V 55.43198 h 2.10937 v 2.09375 q 0.79688,-1.46875 1.48438,-1.9375 0.6875,-0.46875 1.5,-0.46875 1.1875,0 2.40625,0.765625 l -0.79688,2.171875 q -0.85937,-0.515625 -1.71875,-0.515625 -0.76562,0 -1.39062,0.46875 -0.60938,0.453125 -0.85938,1.28125 -0.39062,1.25 -0.39062,2.734375 v 7.234371 z m 17.92361,-1.703125 q -1.3125,1.109375 -2.51562,1.5625 -1.20313,0.453125 -2.57813,0.453125 -2.28125,0 -3.5,-1.109375 -1.21875,-1.109375 -1.21875,-2.84375 0,-1.015625 0.45313,-1.859371 0.46875,-0.84375 1.21875,-1.34375 0.75,-0.515625 1.6875,-0.765625 0.6875,-0.1875 2.07812,-0.359375 2.82813,-0.328125 4.17188,-0.796875 0.0156,-0.484375 0.0156,-0.625 0,-1.421875 -0.65625,-2.015625 -0.90625,-0.796875 -2.67187,-0.796875 -1.65625,0 -2.45313,0.59375 -0.78125,0.578125 -1.15625,2.046875 l -2.29687,-0.3125 q 0.3125,-1.46875 1.03125,-2.375 0.71875,-0.90625 2.0625,-1.390625 1.35937,-0.5 3.14062,-0.5 1.78125,0 2.875,0.421875 1.10938,0.421875 1.625,1.046875 0.53125,0.625 0.73438,1.59375 0.125,0.59375 0.125,2.15625 v 3.125 q 0,3.265621 0.14062,4.140621 0.15625,0.859375 0.59375,1.65625 h -2.4375 q -0.375,-0.734375 -0.46875,-1.703125 z m -0.20312,-5.234371 q -1.26563,0.515625 -3.82813,0.890625 -1.4375,0.203125 -2.04687,0.46875 -0.59375,0.25 -0.92188,0.749996 -0.3125,0.5 -0.3125,1.125 0,0.9375 0.70313,1.5625 0.70312,0.625 2.07812,0.625 1.34375,0 2.39063,-0.59375 1.0625,-0.59375 1.5625,-1.625 0.375,-0.796875 0.375,-2.343746 z m 5.99679,6.937496 V 55.43198 h 2.10938 v 1.9375 q 0.64062,-1.015625 1.71875,-1.625 1.09375,-0.625 2.46875,-0.625 1.53125,0 2.51562,0.640625 0.98438,0.640625 1.39063,1.78125 1.64062,-2.421875 4.26562,-2.421875 2.0625,0 3.15625,1.140625 1.10938,1.140625 1.10938,3.515625 v 9.484371 h -2.32813 V 60.55698 q 0,-1.40625 -0.23437,-2.015625 -0.21875,-0.625 -0.82813,-1 -0.59375,-0.390625 -1.39062,-0.390625 -1.46875,0 -2.4375,0.96875 -0.95313,0.96875 -0.95313,3.109375 v 8.031246 h -2.34375 V 60.27573 q 0,-1.5625 -0.57812,-2.34375 -0.5625,-0.78125 -1.875,-0.78125 -0.98438,0 -1.82813,0.53125 -0.82812,0.515625 -1.21875,1.515625 -0.375,1 -0.375,2.890625 v 7.171871 z m 22.20487,0 V 55.43198 h 2.10937 v 1.9375 q 0.64063,-1.015625 1.71875,-1.625 1.09375,-0.625 2.46875,-0.625 1.53125,0 2.51563,0.640625 0.98437,0.640625 1.39062,1.78125 1.64063,-2.421875 4.26563,-2.421875 2.0625,0 3.15625,1.140625 1.10937,1.140625 1.10937,3.515625 v 9.484371 h -2.32812 V 60.55698 q 0,-1.40625 -0.23438,-2.015625 -0.21875,-0.625 -0.82812,-1 -0.59375,-0.390625 -1.39063,-0.390625 -1.46875,0 -2.4375,0.96875 -0.95312,0.96875 -0.95312,3.109375 v 8.031246 h -2.34375 V 60.27573 q 0,-1.5625 -0.57813,-2.34375 -0.5625,-0.78125 -1.875,-0.78125 -0.98437,0 -1.82812,0.53125 -0.82813,0.515625 -1.21875,1.515625 -0.375,1 -0.375,2.890625 v 7.171871 z m 31.67361,-4.453125 2.42188,0.296875 q -0.57813,2.125 -2.125,3.296875 -1.54688,1.171875 -3.95313,1.171875 -3.03125,0 -4.8125,-1.859375 -1.78125,-1.875 -1.78125,-5.249996 0,-3.484375 1.79688,-5.40625 1.79687,-1.9375 4.67187,-1.9375 2.76563,0 4.51563,1.890625 1.76562,1.890625 1.76562,5.3125 0,0.203125 -0.0156,0.625 h -10.3125 q 0.14062,2.281246 1.29687,3.499996 1.15625,1.203125 2.89063,1.203125 1.28125,0 2.1875,-0.671875 0.92187,-0.6875 1.45312,-2.171875 z m -7.6875,-3.781246 h 7.71875 q -0.15625,-1.75 -0.89062,-2.625 -1.125,-1.34375 -2.90625,-1.34375 -1.60938,0 -2.71875,1.078125 -1.09375,1.078125 -1.20313,2.890625 z"
       fill-rule="nonzero"
       id="path4943" />
  </g>
  <text
     xml:space="preserve"
     style="font-size:26.6667px;line-height:1.25;font-family:Calibri;-inkscape-font-specification:Calibri;white-space:pre;inline-size:0;fill:#000000;fill-opacity:1;stroke-width:0.999999"
     x="53.810204"
     y="264.75391"
     id="text12516"
     transform="translate(10.78221,-1.7970351)"><tspan
       id="tspan12514"
       x="53.810204"
       y="264.75391"
       style="font-style:normal;font-variant:normal;font-weight:normal;font-stretch:normal;font-size:26.6667px;font-family:Arial;-inkscape-font-specification:Arial;fill:#000000;fill-opacity:1;stroke-width:0.999999">box = 2800</tspan></text>
  <text
     xml:space="preserve"
     style="font-size:26.6667px;line-height:1.25;font-family:Alegreya;-inkscape-font-specification:Alegreya;fill:#000000;fill-opacity:1"
     x="328.34872"
     y="244.97762"
     id="text1918"><tspan
       sodipodi:role="line"
       id="tspan1916"
       x="328.34872"
       y="244.97762"
       style="font-style:normal;font-variant:normal;font-weight:normal;font-stretch:normal;font-family:Arial;-inkscape-font-specification:Arial">Déclaration et définition</tspan><tspan
       sodipodi:role="line"
       x="328.34872"
       y="279.09085"
       style="font-style:normal;font-variant:normal;font-weight:normal;font-stretch:normal;font-family:Arial;-inkscape-font-specification:Arial"
       id="tspan1920">de la variabe</tspan></text>
</svg>
