<?xml version="1.0" encoding="UTF-8" standalone="no"?>
<svg
   xmlns:dc="http://purl.org/dc/elements/1.1/"
   xmlns:cc="http://creativecommons.org/ns#"
   xmlns:rdf="http://www.w3.org/1999/02/22-rdf-syntax-ns#"
   xmlns:svg="http://www.w3.org/2000/svg"
   xmlns="http://www.w3.org/2000/svg"
   xmlns:sodipodi="http://sodipodi.sourceforge.net/DTD/sodipodi-0.dtd"
   xmlns:inkscape="http://www.inkscape.org/namespaces/inkscape"
   version="1.1"
   viewBox="0 0 612.75586 368.36514"
   fill="none"
   stroke="none"
   stroke-linecap="square"
   stroke-miterlimit="10"
   id="svg2292"
   sodipodi:docname="Flowchart-string.svg"
   width="612.75586"
   height="368.36514"
   inkscape:version="1.0.2-2 (e86c870879, 2021-01-15)">
  <metadata
     id="metadata2298">
    <rdf:RDF>
      <cc:Work
         rdf:about="">
        <dc:format>image/svg+xml</dc:format>
        <dc:type
           rdf:resource="http://purl.org/dc/dcmitype/StillImage" />
        <dc:title></dc:title>
      </cc:Work>
    </rdf:RDF>
  </metadata>
  <defs
     id="defs2296" />
  <sodipodi:namedview
     pagecolor="#ffffff"
     bordercolor="#666666"
     borderopacity="1"
     objecttolerance="10"
     gridtolerance="10"
     guidetolerance="10"
     inkscape:pageopacity="0"
     inkscape:pageshadow="2"
     inkscape:window-width="1920"
     inkscape:window-height="1017"
     id="namedview2294"
     showgrid="false"
     fit-margin-top="0"
     fit-margin-left="0"
     fit-margin-right="0"
     fit-margin-bottom="0"
     inkscape:zoom="0.80789571"
     inkscape:cx="649.95975"
     inkscape:cy="447.99078"
     inkscape:window-x="-8"
     inkscape:window-y="-8"
     inkscape:window-maximized="1"
     inkscape:current-layer="svg2292" />
  <clipPath
     id="p.0">
    <path
       d="M 0,0 H 960 V 720 H 0 Z"
       clip-rule="nonzero"
       id="path2213" />
  </clipPath>
  <g
     clip-path="url(#p.0)"
     id="g2290"
     transform="translate(-13.998688,-11.0958)">
    <path
       fill="#000000"
       fill-opacity="0"
       d="M 0,0 H 960 V 720 H 0 Z"
       fill-rule="evenodd"
       id="path2216" />
    <path
       fill="#cfe2f3"
       d="m 79.51169,11.5958 h 82.58986 v 0 c 10.81949,0 19.59042,12.763481 19.59042,28.508032 0,15.744553 -8.77093,28.50803 -19.59042,28.50803 H 79.51169 v 0 c -10.819496,0 -19.590427,-12.763477 -19.590427,-28.50803 0,-15.744551 8.770931,-28.508032 19.590427,-28.508032 z"
       fill-rule="evenodd"
       id="path2218" />
    <path
       stroke="#000000"
       stroke-width="1"
       stroke-linejoin="round"
       stroke-linecap="butt"
       d="m 79.51169,11.5958 h 82.58986 v 0 c 10.81949,0 19.59042,12.763481 19.59042,28.508032 0,15.744553 -8.77093,28.50803 -19.59042,28.50803 H 79.51169 v 0 c -10.819496,0 -19.590427,-12.763477 -19.590427,-28.50803 0,-15.744551 8.770931,-28.508032 19.590427,-28.508032 z"
       fill-rule="evenodd"
       id="path2220" />
    <path
       fill="#000000"
       d="M 82.86522,49.70383 V 30.625705 h 6.5625 q 2.234375,0 3.40625,0.265625 1.640625,0.375 2.796875,1.375 1.5,1.265625 2.25,3.25 0.75,1.984375 0.75,4.546875 0,2.171875 -0.515625,3.859375 -0.5,1.671875 -1.296875,2.78125 -0.78125,1.09375 -1.734375,1.71875 -0.9375,0.625 -2.28125,0.953125 -1.328125,0.328125 -3.0625,0.328125 z m 2.515625,-2.25 h 4.078125 q 1.890625,0 2.953125,-0.34375 1.078125,-0.359375 1.71875,-1 0.890625,-0.890625 1.390625,-2.40625 0.515625,-1.515625 0.515625,-3.6875 0,-2.984375 -0.984375,-4.59375 -0.984375,-1.609375 -2.390625,-2.15625 -1.015625,-0.390625 -3.265625,-0.390625 h -4.015625 z m 25.890915,-2.203125 2.42188,0.296875 q -0.57813,2.125 -2.125,3.296875 -1.54688,1.171875 -3.95313,1.171875 -3.03125,0 -4.8125,-1.859375 -1.78125,-1.875 -1.78125,-5.25 0,-3.484375 1.79688,-5.40625 1.79687,-1.9375 4.67187,-1.9375 2.76563,0 4.51563,1.890625 1.76562,1.890625 1.76562,5.3125 0,0.203125 -0.0156,0.625 h -10.3125 q 0.14062,2.28125 1.29687,3.5 1.15625,1.203125 2.89063,1.203125 1.28125,0 2.1875,-0.671875 0.92187,-0.6875 1.45312,-2.171875 z m -7.6875,-3.78125 h 7.71875 q -0.15625,-1.75 -0.89062,-2.625 -1.125,-1.34375 -2.90625,-1.34375 -1.60938,0 -2.71875,1.078125 -1.09375,1.078125 -1.20313,2.890625 z m 2.51563,-7.3125 1.73437,-3.640625 h 3.0625 l -2.85937,3.640625 z m 10.52806,20.84375 v -19.125 h 2.14062 v 1.796875 q 0.75,-1.046875 1.70313,-1.578125 0.95312,-0.53125 2.3125,-0.53125 1.76562,0 3.10937,0.921875 1.35938,0.90625 2.04688,2.5625 0.6875,1.65625 0.6875,3.640625 0,2.125 -0.76563,3.828125 -0.75,1.6875 -2.20312,2.59375 -1.45313,0.90625 -3.04688,0.90625 -1.17187,0 -2.10937,-0.484375 -0.92188,-0.5 -1.53125,-1.265625 v 6.734375 z m 2.125,-12.125 q 0,2.65625 1.07812,3.9375 1.09375,1.28125 2.625,1.28125 1.5625,0 2.67188,-1.3125 1.10937,-1.328125 1.10937,-4.109375 0,-2.640625 -1.09375,-3.953125 -1.07812,-1.3125 -2.59375,-1.3125 -1.48437,0 -2.64062,1.40625 -1.15625,1.390625 -1.15625,4.0625 z m 21.73118,5.125 q -1.3125,1.109375 -2.51562,1.5625 -1.20313,0.453125 -2.57813,0.453125 -2.28125,0 -3.5,-1.109375 -1.21875,-1.109375 -1.21875,-2.84375 0,-1.015625 0.45313,-1.859375 0.46875,-0.84375 1.21875,-1.34375 0.75,-0.515625 1.6875,-0.765625 0.6875,-0.1875 2.07812,-0.359375 2.82813,-0.328125 4.17188,-0.796875 0.0156,-0.484375 0.0156,-0.625 0,-1.421875 -0.65625,-2.015625 -0.90625,-0.796875 -2.67187,-0.796875 -1.65625,0 -2.45313,0.59375 -0.78125,0.578125 -1.15625,2.046875 l -2.29687,-0.3125 q 0.3125,-1.46875 1.03125,-2.375 0.71875,-0.90625 2.0625,-1.390625 1.35937,-0.5 3.14062,-0.5 1.78125,0 2.875,0.421875 1.10938,0.421875 1.625,1.046875 0.53125,0.625 0.73438,1.59375 0.125,0.59375 0.125,2.15625 v 3.125 q 0,3.265625 0.14062,4.140625 0.15625,0.859375 0.59375,1.65625 h -2.4375 q -0.375,-0.734375 -0.46875,-1.703125 z m -0.20312,-5.234375 q -1.26563,0.515625 -3.82813,0.890625 -1.4375,0.203125 -2.04687,0.46875 -0.59375,0.25 -0.92188,0.75 -0.3125,0.5 -0.3125,1.125 0,0.9375 0.70313,1.5625 0.70312,0.625 2.07812,0.625 1.34375,0 2.39063,-0.59375 1.0625,-0.59375 1.5625,-1.625 0.375,-0.796875 0.375,-2.34375 z m 5.98118,6.9375 V 35.875705 h 2.10938 v 2.09375 q 0.79687,-1.46875 1.48437,-1.9375 0.6875,-0.46875 1.5,-0.46875 1.1875,0 2.40625,0.765625 l -0.79687,2.171875 q -0.85938,-0.515625 -1.71875,-0.515625 -0.76563,0 -1.39063,0.46875 -0.60937,0.453125 -0.85937,1.28125 -0.39063,1.25 -0.39063,2.734375 v 7.234375 z m 14.01737,-2.09375 0.32812,2.0625 q -0.98437,0.21875 -1.76562,0.21875 -1.26563,0 -1.96875,-0.40625 -0.70313,-0.40625 -1,-1.0625 -0.28125,-0.65625 -0.28125,-2.765625 V 37.70383 h -1.71875 v -1.828125 h 1.71875 V 32.45383 l 2.32812,-1.40625 v 4.828125 h 2.35938 v 1.828125 h -2.35938 v 8.078125 q 0,1 0.125,1.296875 0.125,0.28125 0.40625,0.453125 0.28125,0.171875 0.79688,0.171875 0.39062,0 1.03125,-0.09375 z"
       fill-rule="nonzero"
       id="path2222" />
    <path
       fill="#cfe2f3"
       d="m 76.23606,321.9449 h 89.14584 v 0 c 11.67832,0 21.1455,12.76349 21.1455,28.50803 0,15.74456 -9.46717,28.50802 -21.1455,28.50802 H 76.23606 v 0 c -11.678345,0 -21.145512,-12.76346 -21.145512,-28.50802 0,-15.74454 9.467167,-28.50803 21.145512,-28.50803 z"
       fill-rule="evenodd"
       id="path2224" />
    <path
       stroke="#000000"
       stroke-width="1"
       stroke-linejoin="round"
       stroke-linecap="butt"
       d="m 76.23606,321.9449 h 89.14584 v 0 c 11.67832,0 21.1455,12.76349 21.1455,28.50803 0,15.74456 -9.46717,28.50802 -21.1455,28.50802 H 76.23606 v 0 c -11.678345,0 -21.145512,-12.76346 -21.145512,-28.50802 0,-15.74454 9.467167,-28.50803 21.145512,-28.50803 z"
       fill-rule="evenodd"
       id="path2226" />
    <path
       fill="#000000"
       d="m 104.48158,360.05292 v -19.07813 h 12.875 v 2.25 h -10.34375 v 5.90625 h 8.95312 v 2.25 h -8.95312 v 8.67188 z m 15.86082,-16.39063 v -2.6875 h 2.34375 v 2.6875 z m 0,16.39063 v -13.82813 h 2.34375 v 13.82813 z m 5.90654,0 v -13.82813 h 2.10938 v 1.96875 q 1.53125,-2.28125 4.40625,-2.28125 1.25,0 2.29688,0.45313 1.04687,0.45312 1.5625,1.1875 0.53125,0.71875 0.73437,1.71875 0.125,0.65625 0.125,2.28125 v 8.5 h -2.34375 v -8.40625 q 0,-1.4375 -0.28125,-2.14063 -0.26562,-0.71875 -0.96875,-1.14062 -0.6875,-0.42188 -1.625,-0.42188 -1.48437,0 -2.57812,0.95313 -1.09375,0.95312 -1.09375,3.60937 v 7.54688 z"
       fill-rule="nonzero"
       id="path2228" />
    <path
       fill="#000000"
       fill-opacity="0"
       d="M 120.80662,68.61186 V 95.792967"
       fill-rule="evenodd"
       id="path2230" />
    <path
       stroke="#000000"
       stroke-width="1"
       stroke-linejoin="round"
       stroke-linecap="butt"
       d="M 120.80662,68.61186 V 89.792967"
       fill-rule="evenodd"
       id="path2232" />
    <path
       fill="#000000"
       stroke="#000000"
       stroke-width="1"
       stroke-linecap="butt"
       d="m 119.15488,89.79297 1.65174,4.538101 1.65173,-4.538101 z"
       fill-rule="evenodd"
       id="path2234" />
    <path
       fill="#000000"
       fill-opacity="0"
       d="m 120.80708,187.84908 v 27.18111"
       fill-rule="evenodd"
       id="path2236" />
    <path
       stroke="#000000"
       stroke-width="1"
       stroke-linejoin="round"
       stroke-linecap="butt"
       d="m 120.80708,187.84908 v 21.18111"
       fill-rule="evenodd"
       id="path2238" />
    <path
       fill="#000000"
       stroke="#000000"
       stroke-width="1"
       stroke-linecap="butt"
       d="m 119.15536,209.03018 1.65173,4.5381 1.65173,-4.5381 z"
       fill-rule="evenodd"
       id="path2240" />
    <path
       fill="#000000"
       fill-opacity="0"
       d="m 120.80898,286.5433 v 35.40158"
       fill-rule="evenodd"
       id="path2242" />
    <path
       stroke="#000000"
       stroke-width="1"
       stroke-linejoin="round"
       stroke-linecap="butt"
       d="m 120.80898,286.5433 v 29.40158"
       fill-rule="evenodd"
       id="path2244" />
    <path
       fill="#000000"
       stroke="#000000"
       stroke-width="1"
       stroke-linecap="butt"
       d="m 119.15724,315.9449 1.65173,4.53809 1.65174,-4.53809 z"
       fill-rule="evenodd"
       id="path2246" />
    <path
       fill="#cfe2f3"
       d="M 17.396326,95.79265 H 265.77167 v 92.05774 H 17.396326 Z"
       fill-rule="evenodd"
       id="path2248" />
    <path
       fill="#000000"
       fill-opacity="0"
       d="m 48.44324,95.79265 v 92.05774 M 17.396325,107.29987 H 265.77166"
       fill-rule="evenodd"
       id="path2250" />
    <path
       fill="#000000"
       fill-opacity="0"
       d="M 17.396326,95.79265 H 265.77167 v 92.05774 H 17.396326 Z"
       fill-rule="evenodd"
       id="path2252" />
    <path
       stroke="#000000"
       stroke-width="1"
       stroke-linejoin="round"
       stroke-linecap="butt"
       d="m 48.44324,95.79265 v 92.05774 M 17.396325,107.29987 H 265.77166"
       fill-rule="evenodd"
       id="path2254" />
    <path
       stroke="#000000"
       stroke-width="1"
       stroke-linejoin="round"
       stroke-linecap="butt"
       d="M 17.396326,95.79265 H 265.77167 v 92.05774 H 17.396326 Z"
       fill-rule="evenodd"
       id="path2256" />
    <path
       fill="#000000"
       d="m 58.583866,151.067 2.265625,-0.1875 q 0.15625,1.35937 0.734375,2.23437 0.59375,0.85938 1.828125,1.40625 1.234379,0.53125 2.781254,0.53125 1.375,0 2.421875,-0.40625 1.0625,-0.40625 1.5625,-1.10937 0.515625,-0.71875 0.515625,-1.5625 0,-0.85938 -0.5,-1.48438 -0.484375,-0.64062 -1.625,-1.07812 -0.71875,-0.28125 -3.21875,-0.875 -2.500004,-0.60938 -3.500004,-1.14063 -1.296875,-0.67187 -1.9375,-1.67187 -0.640625,-1.01563 -0.640625,-2.26563 0,-1.375 0.78125,-2.5625 0.78125,-1.20312 2.265625,-1.8125 1.5,-0.625 3.343754,-0.625 2.015625,0 3.546875,0.65625 1.546875,0.64063 2.375,1.90625 0.828125,1.25 0.890625,2.85938 l -2.3125,0.17187 q -0.171875,-1.71875 -1.25,-2.59375 -1.0625,-0.89062 -3.15625,-0.89062 -2.171879,0 -3.171879,0.79687 -1,0.79688 -1,1.92188 0,0.98437 0.703125,1.60937 0.703125,0.64063 3.625004,1.29688 2.921875,0.65625 4.015625,1.15625 1.578125,0.73437 2.328125,1.85937 0.765625,1.10938 0.765625,2.5625 0,1.45313 -0.84375,2.73438 -0.828125,1.28125 -2.375,2 -1.546875,0.70312 -3.484375,0.70312 -2.468754,0 -4.140629,-0.71875 -1.65625,-0.71875 -2.609375,-2.15625 -0.9375,-1.4375 -0.984375,-3.26562 z m 22.28429,3.84375 0.3125,1.95312 q -0.9375,0.20313 -1.671875,0.20313 -1.21875,0 -1.890625,-0.375 -0.65625,-0.39063 -0.9375,-1.01563 -0.265625,-0.625 -0.265625,-2.625 v -7.5625 h -1.640625 v -1.73437 h 1.640625 v -3.25 l 2.21875,-1.32813 v 4.57813 h 2.234375 v 1.73437 h -2.234375 v 7.6875 q 0,0.95313 0.109375,1.23438 0.125,0.26562 0.390625,0.42187 0.265625,0.15625 0.75,0.15625 0.375,0 0.984375,-0.0781 z m 2.146347,1.98437 V 143.7545 h 2 v 2 q 0.78125,-1.40625 1.421875,-1.84375 0.65625,-0.45313 1.4375,-0.45313 1.125,0 2.28125,0.71875 l -0.765625,2.07813 q -0.8125,-0.48438 -1.640625,-0.48438 -0.71875,0 -1.3125,0.4375 -0.578125,0.4375 -0.828125,1.21875 -0.359375,1.1875 -0.359375,2.59375 v 6.875 z M 91.495842,141.317 v -2.54688 h 2.21875 v 2.54688 z m 0,15.57812 V 143.7545 h 2.21875 v 13.14062 z m 5.61148,0 V 143.7545 h 2 v 1.875 q 1.453128,-2.17188 4.187498,-2.17188 1.1875,0 2.17188,0.4375 1,0.42188 1.48437,1.125 0.5,0.6875 0.70313,1.64063 0.125,0.60937 0.125,2.15625 v 8.07812 h -2.23438 v -7.98437 q 0,-1.35938 -0.26562,-2.03125 -0.25,-0.6875 -0.90625,-1.07813 -0.65625,-0.40625 -1.54688,-0.40625 -1.42187,0 -2.46875,0.90625 -1.031248,0.89063 -1.031248,3.42188 v 7.17187 z m 13.680058,1.09375 2.15625,0.3125 q 0.14062,1 0.76562,1.46875 0.82813,0.60938 2.25,0.60938 1.54688,0 2.39063,-0.625 0.84375,-0.60938 1.14062,-1.71875 0.17188,-0.6875 0.15625,-2.85938 -1.45312,1.71875 -3.625,1.71875 -2.71875,0 -4.20312,-1.95312 -1.48438,-1.95313 -1.48438,-4.6875 0,-1.875 0.67188,-3.46875 0.6875,-1.59375 1.98437,-2.45313 1.29688,-0.875 3.03125,-0.875 2.32813,0 3.84375,1.89063 v -1.59375 h 2.04688 v 11.35937 q 0,3.0625 -0.625,4.34375 -0.625,1.28125 -1.98438,2.01563 -1.34375,0.75 -3.32812,0.75 -2.34375,0 -3.79688,-1.0625 -1.4375,-1.04688 -1.39062,-3.17188 z m 1.84375,-7.89062 q 0,2.57812 1.01562,3.76562 1.03125,1.1875 2.57813,1.1875 1.53125,0 2.5625,-1.17187 1.04687,-1.1875 1.04687,-3.71875 0,-2.40625 -1.07812,-3.625 -1.0625,-1.23438 -2.5625,-1.23438 -1.48438,0 -2.53125,1.21875 -1.03125,1.20313 -1.03125,3.57813 z m 24.54514,4.8125 0.3125,1.95312 q -0.9375,0.20313 -1.67188,0.20313 -1.21875,0 -1.89062,-0.375 -0.65625,-0.39063 -0.9375,-1.01563 -0.26563,-0.625 -0.26563,-2.625 v -7.5625 h -1.64062 v -1.73437 h 1.64062 v -3.25 l 2.21875,-1.32813 v 4.57813 h 2.23438 v 1.73437 h -2.23438 v 7.6875 q 0,0.95313 0.10938,1.23438 0.125,0.26562 0.39062,0.42187 0.26563,0.15625 0.75,0.15625 0.375,0 0.98438,-0.0781 z m 11.16197,-2.25 2.29688,0.29687 q -0.53125,2.01563 -2.01563,3.125 -1.46875,1.10938 -3.75,1.10938 -2.89062,0 -4.57812,-1.76563 -1.6875,-1.78125 -1.6875,-4.98437 0,-3.3125 1.70312,-5.14063 1.71875,-1.84375 4.4375,-1.84375 2.64063,0 4.29688,1.79688 1.67187,1.79687 1.67187,5.04687 0,0.20313 -0.0156,0.59375 h -9.78125 q 0.10937,2.17188 1.20312,3.32813 1.10938,1.14062 2.76563,1.14062 1.21875,0 2.07812,-0.64062 0.875,-0.64063 1.375,-2.0625 z m -7.3125,-3.59375 h 7.34375 q -0.15625,-1.65625 -0.84375,-2.48438 -1.0625,-1.28125 -2.75,-1.28125 -1.54687,0 -2.59375,1.03125 -1.03125,1.01563 -1.15625,2.73438 z m 10.93006,7.82812 4.79687,-6.82812 -4.4375,-6.3125 h 2.78125 l 2.01563,3.09375 q 0.5625,0.875 0.92187,1.46875 0.53125,-0.82813 1,-1.45313 l 2.20313,-3.10937 h 2.65625 l -4.53125,6.1875 4.89062,6.95312 h -2.73437 l -2.70313,-4.07812 -0.71875,-1.10938 -3.45312,5.1875 z m 19.00781,-1.98437 0.3125,1.95312 q -0.9375,0.20313 -1.67188,0.20313 -1.21875,0 -1.89062,-0.375 -0.65625,-0.39063 -0.9375,-1.01563 -0.26563,-0.625 -0.26563,-2.625 v -7.5625 h -1.64062 v -1.73437 h 1.64062 v -3.25 l 2.21875,-1.32813 v 4.57813 h 2.23438 v 1.73437 h -2.23438 v 7.6875 q 0,0.95313 0.10938,1.23438 0.125,0.26562 0.39062,0.42187 0.26563,0.15625 0.75,0.15625 0.375,0 0.98438,-0.0781 z"
       fill-rule="nonzero"
       id="path2258" />
    <path
       fill="#cfe2f3"
       d="M 14.498688,214.54855 H 265.77167 v 72 H 14.498688 Z"
       fill-rule="evenodd"
       id="path2260" />
    <path
       stroke="#000000"
       stroke-width="1"
       stroke-linejoin="round"
       stroke-linecap="butt"
       d="M 14.498688,214.54855 H 265.77167 v 72 H 14.498688 Z"
       fill-rule="evenodd"
       id="path2262" />
    <path
       fill="#000000"
       d="m 55.522484,258.0548 0.328125,2.0625 q -0.984375,0.21875 -1.765625,0.21875 -1.265625,0 -1.96875,-0.40625 -0.703125,-0.40625 -1,-1.0625 -0.28125,-0.65625 -0.28125,-2.76563 v -7.95312 h -1.71875 v -1.82813 h 1.71875 v -3.42187 l 2.328125,-1.40625 v 4.82812 h 2.359375 v 1.82813 h -2.359375 v 8.07812 q 0,1 0.125,1.29688 0.125,0.28125 0.40625,0.45312 0.28125,0.17188 0.796875,0.17188 0.390625,0 1.03125,-0.0937 z m 11.74971,-2.35938 2.421875,0.29688 q -0.578125,2.125 -2.125,3.29687 -1.546875,1.17188 -3.953125,1.17188 -3.03125,0 -4.8125,-1.85938 -1.78125,-1.875 -1.78125,-5.25 0,-3.48437 1.796875,-5.40625 1.796875,-1.9375 4.671875,-1.9375 2.765625,0 4.515625,1.89063 1.765625,1.89062 1.765625,5.3125 0,0.20312 -0.01563,0.625 h -10.3125 q 0.140625,2.28125 1.296875,3.5 1.15625,1.20312 2.890625,1.20312 1.28125,0 2.1875,-0.67187 0.921875,-0.6875 1.453125,-2.17188 z m -7.6875,-3.78125 h 7.71875 q -0.15625,-1.75 -0.890625,-2.625 -1.125,-1.34375 -2.90625,-1.34375 -1.609375,0 -2.71875,1.07813 -1.09375,1.07812 -1.203125,2.89062 z m 11.481186,8.23438 5.0625,-7.1875 -4.671875,-6.64063 h 2.921875 l 2.125,3.25 q 0.59375,0.92188 0.96875,1.54688 0.5625,-0.85938 1.046875,-1.53125 l 2.328125,-3.26563 h 2.796875 l -4.78125,6.51563 5.15625,7.3125 H 81.12838 l -2.828125,-4.29688 -0.75,-1.15625 -3.640625,5.45313 z m 20.015625,-2.09375 0.328125,2.0625 q -0.984375,0.21875 -1.765625,0.21875 -1.265625,0 -1.96875,-0.40625 -0.703125,-0.40625 -1,-1.0625 -0.28125,-0.65625 -0.28125,-2.76563 v -7.95312 h -1.71875 v -1.82813 h 1.71875 v -3.42187 l 2.328125,-1.40625 v 4.82812 h 2.359375 v 1.82813 H 88.72213 v 8.07812 q 0,1 0.125,1.29688 0.125,0.28125 0.40625,0.45312 0.28125,0.17188 0.796875,0.17188 0.390625,0 1.03125,-0.0937 z m 22.015045,-9.125 H 100.5028 v -2.1875 h 12.59375 z m 0,5.79687 H 100.5028 v -2.1875 h 12.59375 z m 12.48842,-10.45312 v 2.71875 h -2.51563 v -2.15625 q 0,-1.73438 0.42188,-2.51563 0.54687,-1.04687 1.73437,-1.57812 l 0.5625,0.90625 q -0.71875,0.29687 -1.0625,0.89062 -0.32812,0.59375 -0.35937,1.73438 z m 4.03124,0 v 2.71875 h -2.51562 v -2.15625 q 0,-1.73438 0.42188,-2.51563 0.54687,-1.04687 1.73437,-1.57812 l 0.5625,0.90625 q -0.70313,0.29687 -1.04688,0.89062 -0.34375,0.59375 -0.375,1.73438 z m 3.20487,15.875 v -19.07813 h 7.15625 q 2.1875,0 3.5,0.57813 1.32812,0.57812 2.07812,1.78125 0.75,1.20312 0.75,2.51562 0,1.21875 -0.67187,2.3125 -0.65625,1.07813 -2,1.73438 1.73437,0.51562 2.65625,1.73437 0.9375,1.21875 0.9375,2.89063 0,1.34375 -0.5625,2.5 -0.5625,1.14062 -1.40625,1.76562 -0.82813,0.625 -2.09375,0.95313 -1.25,0.3125 -3.0625,0.3125 z m 2.53125,-11.0625 h 4.125 q 1.67187,0 2.40625,-0.21875 0.95312,-0.29688 1.4375,-0.95313 0.5,-0.67187 0.5,-1.67187 0,-0.9375 -0.45313,-1.65625 -0.45312,-0.73438 -1.3125,-1 -0.84375,-0.26563 -2.89062,-0.26563 h -3.8125 z m 0,8.8125 h 4.75 q 1.21875,0 1.71875,-0.0937 0.85937,-0.15625 1.4375,-0.51563 0.59375,-0.375 0.96875,-1.0625 0.39062,-0.70312 0.39062,-1.60937 0,-1.0625 -0.54687,-1.84375 -0.54688,-0.79688 -1.51563,-1.10938 -0.96875,-0.32812 -2.79687,-0.32812 h -4.40625 z m 14.18576,-4.65625 q 0,-3.84375 2.125,-5.6875 1.78125,-1.54688 4.34375,-1.54688 2.85937,0 4.65625,1.875 1.8125,1.85938 1.8125,5.15625 0,2.67188 -0.79688,4.20313 -0.79687,1.53125 -2.32812,2.375 -1.53125,0.84375 -3.34375,0.84375 -2.89063,0 -4.6875,-1.85938 -1.78125,-1.85937 -1.78125,-5.35937 z m 2.40625,0 q 0,2.65625 1.15625,3.98437 1.15625,1.3125 2.90625,1.3125 1.75,0 2.90625,-1.32812 1.15625,-1.32813 1.15625,-4.04688 0,-2.5625 -1.17188,-3.89062 -1.15625,-1.32813 -2.89062,-1.32813 -1.75,0 -2.90625,1.32813 -1.15625,1.3125 -1.15625,3.96875 z m 13.27807,6.90625 v -13.82813 h 2.10938 v 1.96875 q 1.53125,-2.28125 4.40625,-2.28125 1.25,0 2.29687,0.45313 1.04688,0.45312 1.5625,1.1875 0.53125,0.71875 0.73438,1.71875 0.125,0.65625 0.125,2.28125 v 8.5 h -2.34375 v -8.40625 q 0,-1.4375 -0.28125,-2.14063 -0.26563,-0.71875 -0.96875,-1.14062 -0.6875,-0.42188 -1.625,-0.42188 -1.48438,0 -2.57813,0.95313 -1.09375,0.95312 -1.09375,3.60937 v 7.54688 z m 14.82492,-16.35938 v -2.71875 h 2.34375 v 2.71875 z m -2.96875,21.71875 0.4375,-1.98437 q 0.70313,0.17187 1.10938,0.17187 0.71875,0 1.0625,-0.46875 0.35937,-0.46875 0.35937,-2.375 v -14.53125 h 2.34375 v 14.57813 q 0,2.5625 -0.67187,3.5625 -0.84375,1.29687 -2.8125,1.29687 -0.95313,0 -1.82813,-0.25 z m 8.03156,-12.26562 q 0,-3.84375 2.125,-5.6875 1.78125,-1.54688 4.34375,-1.54688 2.85937,0 4.65625,1.875 1.8125,1.85938 1.8125,5.15625 0,2.67188 -0.79688,4.20313 -0.79687,1.53125 -2.32812,2.375 -1.53125,0.84375 -3.34375,0.84375 -2.89063,0 -4.6875,-1.85938 -1.78125,-1.85937 -1.78125,-5.35937 z m 2.40625,0 q 0,2.65625 1.15625,3.98437 1.15625,1.3125 2.90625,1.3125 1.75,0 2.90625,-1.32812 1.15625,-1.32813 1.15625,-4.04688 0,-2.5625 -1.17188,-3.89062 -1.15625,-1.32813 -2.89062,-1.32813 -1.75,0 -2.90625,1.32813 -1.15625,1.3125 -1.15625,3.96875 z m 22.34054,6.90625 v -2.03125 q -1.60937,2.34375 -4.375,2.34375 -1.23437,0 -2.29687,-0.46875 -1.0625,-0.46875 -1.57813,-1.17188 -0.5,-0.71875 -0.71875,-1.75 -0.14062,-0.6875 -0.14062,-2.1875 v -8.5625 h 2.34375 v 7.67188 q 0,1.82812 0.14062,2.46875 0.21875,0.92187 0.9375,1.45312 0.71875,0.53125 1.76563,0.53125 1.0625,0 1.98437,-0.53125 0.92188,-0.54687 1.29688,-1.46875 0.39062,-0.9375 0.39062,-2.71875 v -7.40625 h 2.34375 v 13.82813 z m 5.74683,0 v -13.82813 h 2.10938 v 2.09375 q 0.79687,-1.46875 1.48437,-1.9375 0.6875,-0.46875 1.5,-0.46875 1.1875,0 2.40625,0.76563 l -0.79687,2.17187 q -0.85938,-0.51562 -1.71875,-0.51562 -0.76563,0 -1.39063,0.46875 -0.60937,0.45312 -0.85937,1.28125 -0.39063,1.25 -0.39063,2.73437 v 7.23438 z m 8.26736,-16.5625 v -2.71875 h 2.51563 v 2.15625 q 0,1.73437 -0.40625,2.51562 -0.54688,1.04688 -1.73438,1.57813 l -0.57812,-0.92188 q 0.70312,-0.28125 1.04687,-0.89062 0.34375,-0.625 0.39063,-1.71875 z m 4.04688,0 v -2.71875 h 2.5 v 2.15625 q 0,1.73437 -0.39063,2.51562 -0.5625,1.04688 -1.75,1.57813 l -0.57812,-0.92188 q 0.70312,-0.28125 1.04687,-0.89062 0.35938,-0.625 0.39063,-1.71875 z"
       fill-rule="nonzero"
       id="path2264" />
    <path
       fill="#000000"
       fill-opacity="0"
       d="m 327.62466,105.82153 h 298.6299 v 71.99999 h -298.6299 z"
       fill-rule="evenodd"
       id="path2266" />
    <path
       stroke="#000000"
       stroke-width="1"
       stroke-linejoin="round"
       stroke-linecap="butt"
       stroke-dasharray="1, 3"
       d="m 327.62466,105.82153 h 298.6299 v 71.99999 h -298.6299 z"
       fill-rule="evenodd"
       id="path2268" />
    <path
       fill="#000000"
       d="m 338.68716,151.42152 v -19.07813 h 6.5625 q 2.23437,0 3.40625,0.26563 1.64062,0.375 2.79687,1.375 1.5,1.26562 2.25,3.25 0.75,1.98437 0.75,4.54687 0,2.17188 -0.51562,3.85938 -0.5,1.67187 -1.29688,2.78125 -0.78125,1.09375 -1.73437,1.71875 -0.9375,0.625 -2.28125,0.95312 -1.32813,0.32813 -3.0625,0.32813 z m 2.51562,-2.25 h 4.07813 q 1.89062,0 2.95312,-0.34375 1.07813,-0.35938 1.71875,-1 0.89063,-0.89063 1.39063,-2.40625 0.51562,-1.51563 0.51562,-3.6875 0,-2.98438 -0.98437,-4.59375 -0.98438,-1.60938 -2.39063,-2.15625 -1.01562,-0.39063 -3.26562,-0.39063 h -4.01563 z m 25.89094,-2.20313 2.42187,0.29688 q -0.57812,2.125 -2.125,3.29687 -1.54687,1.17188 -3.95312,1.17188 -3.03125,0 -4.8125,-1.85938 -1.78125,-1.875 -1.78125,-5.25 0,-3.48437 1.79687,-5.40625 1.79688,-1.9375 4.67188,-1.9375 2.76562,0 4.51562,1.89063 1.76563,1.89062 1.76563,5.3125 0,0.20312 -0.0156,0.625 h -10.3125 q 0.14063,2.28125 1.29688,3.5 1.15625,1.20312 2.89062,1.20312 1.28125,0 2.1875,-0.67187 0.92188,-0.6875 1.45313,-2.17188 z m -7.6875,-3.78125 h 7.71875 q -0.15625,-1.75 -0.89063,-2.625 -1.125,-1.34375 -2.90625,-1.34375 -1.60937,0 -2.71875,1.07813 -1.09375,1.07812 -1.20312,2.89062 z m 2.51562,-7.3125 1.73438,-3.64062 h 3.0625 l -2.85938,3.64062 z m 19.5593,10.48438 2.29687,0.29687 q -0.375,2.39063 -1.9375,3.73438 -1.54687,1.34375 -3.8125,1.34375 -2.84375,0 -4.5625,-1.84375 -1.71875,-1.85938 -1.71875,-5.32813 0,-2.23437 0.73438,-3.90625 0.75,-1.6875 2.26562,-2.53125 1.51563,-0.84375 3.29688,-0.84375 2.25,0 3.67187,1.14063 1.4375,1.14062 1.84375,3.23437 l -2.28125,0.35938 q -0.32812,-1.39063 -1.15625,-2.09375 -0.8125,-0.70313 -1.98437,-0.70313 -1.78125,0 -2.89063,1.26563 -1.09375,1.26562 -1.09375,4.01562 0,2.78125 1.0625,4.04688 1.0625,1.26562 2.78125,1.26562 1.39063,0 2.3125,-0.84375 0.92188,-0.85937 1.17188,-2.60937 z m 4.25,5.0625 v -19.07813 h 2.34375 v 19.07813 z m 15.0003,-1.70313 q -1.3125,1.10938 -2.51562,1.5625 -1.20313,0.45313 -2.57813,0.45313 -2.28125,0 -3.5,-1.10938 -1.21875,-1.10937 -1.21875,-2.84375 0,-1.01562 0.45313,-1.85937 0.46875,-0.84375 1.21875,-1.34375 0.75,-0.51563 1.6875,-0.76563 0.6875,-0.1875 2.07812,-0.35937 2.82813,-0.32813 4.17188,-0.79688 0.0156,-0.48437 0.0156,-0.625 0,-1.42187 -0.65625,-2.01562 -0.90625,-0.79688 -2.67187,-0.79688 -1.65625,0 -2.45313,0.59375 -0.78125,0.57813 -1.15625,2.04688 l -2.29687,-0.3125 q 0.3125,-1.46875 1.03125,-2.375 0.71875,-0.90625 2.0625,-1.39063 1.35937,-0.5 3.14062,-0.5 1.78125,0 2.875,0.42188 1.10938,0.42187 1.625,1.04687 0.53125,0.625 0.73438,1.59375 0.125,0.59375 0.125,2.15625 v 3.125 q 0,3.26563 0.14062,4.14063 0.15625,0.85937 0.59375,1.65625 h -2.4375 q -0.375,-0.73438 -0.46875,-1.70313 z m -0.20312,-5.23437 q -1.26563,0.51562 -3.82813,0.89062 -1.4375,0.20313 -2.04687,0.46875 -0.59375,0.25 -0.92188,0.75 -0.3125,0.5 -0.3125,1.125 0,0.9375 0.70313,1.5625 0.70312,0.625 2.07812,0.625 1.34375,0 2.39063,-0.59375 1.0625,-0.59375 1.5625,-1.625 0.375,-0.79687 0.375,-2.34375 z m 5.98117,6.9375 v -13.82813 h 2.10937 v 2.09375 q 0.79688,-1.46875 1.48438,-1.9375 0.6875,-0.46875 1.5,-0.46875 1.1875,0 2.40625,0.76563 l -0.79688,2.17187 q -0.85937,-0.51562 -1.71875,-0.51562 -0.76562,0 -1.39062,0.46875 -0.60938,0.45312 -0.85938,1.28125 -0.39062,1.25 -0.39062,2.73437 v 7.23438 z m 17.92361,-1.70313 q -1.3125,1.10938 -2.51562,1.5625 -1.20313,0.45313 -2.57813,0.45313 -2.28125,0 -3.5,-1.10938 -1.21875,-1.10937 -1.21875,-2.84375 0,-1.01562 0.45313,-1.85937 0.46875,-0.84375 1.21875,-1.34375 0.75,-0.51563 1.6875,-0.76563 0.6875,-0.1875 2.07812,-0.35937 2.82813,-0.32813 4.17188,-0.79688 0.0156,-0.48437 0.0156,-0.625 0,-1.42187 -0.65625,-2.01562 -0.90625,-0.79688 -2.67187,-0.79688 -1.65625,0 -2.45313,0.59375 -0.78125,0.57813 -1.15625,2.04688 l -2.29687,-0.3125 q 0.3125,-1.46875 1.03125,-2.375 0.71875,-0.90625 2.0625,-1.39063 1.35937,-0.5 3.14062,-0.5 1.78125,0 2.875,0.42188 1.10938,0.42187 1.625,1.04687 0.53125,0.625 0.73438,1.59375 0.125,0.59375 0.125,2.15625 v 3.125 q 0,3.26563 0.14062,4.14063 0.15625,0.85937 0.59375,1.65625 h -2.4375 q -0.375,-0.73438 -0.46875,-1.70313 z m -0.20312,-5.23437 q -1.26563,0.51562 -3.82813,0.89062 -1.4375,0.20313 -2.04687,0.46875 -0.59375,0.25 -0.92188,0.75 -0.3125,0.5 -0.3125,1.125 0,0.9375 0.70313,1.5625 0.70312,0.625 2.07812,0.625 1.34375,0 2.39063,-0.59375 1.0625,-0.59375 1.5625,-1.625 0.375,-0.79687 0.375,-2.34375 z m 11.12182,4.84375 0.32813,2.0625 q -0.98438,0.21875 -1.76563,0.21875 -1.26562,0 -1.96875,-0.40625 -0.70312,-0.40625 -1,-1.0625 -0.28125,-0.65625 -0.28125,-2.76563 v -7.95312 h -1.71875 v -1.82813 h 1.71875 v -3.42187 l 2.32813,-1.40625 v 4.82812 h 2.35937 v 1.82813 h -2.35937 v 8.07812 q 0,1 0.125,1.29688 0.125,0.28125 0.40625,0.45312 0.28125,0.17188 0.79687,0.17188 0.39063,0 1.03125,-0.0937 z m 2.29657,-14.29688 v -2.6875 h 2.34375 v 2.6875 z m 0,16.39063 v -13.82813 h 2.34375 v 13.82813 z m 5.04718,-6.90625 q 0,-3.84375 2.125,-5.6875 1.78125,-1.54688 4.34375,-1.54688 2.85938,0 4.65625,1.875 1.8125,1.85938 1.8125,5.15625 0,2.67188 -0.79687,4.20313 -0.79688,1.53125 -2.32813,2.375 -1.53125,0.84375 -3.34375,0.84375 -2.89062,0 -4.6875,-1.85938 -1.78125,-1.85937 -1.78125,-5.35937 z m 2.40625,0 q 0,2.65625 1.15625,3.98437 1.15625,1.3125 2.90625,1.3125 1.75,0 2.90625,-1.32812 1.15625,-1.32813 1.15625,-4.04688 0,-2.5625 -1.17187,-3.89062 -1.15625,-1.32813 -2.89063,-1.32813 -1.75,0 -2.90625,1.32813 -1.15625,1.3125 -1.15625,3.96875 z m 13.27805,6.90625 v -13.82813 h 2.10937 v 1.96875 q 1.53125,-2.28125 4.40625,-2.28125 1.25,0 2.29688,0.45313 1.04687,0.45312 1.5625,1.1875 0.53125,0.71875 0.73437,1.71875 0.125,0.65625 0.125,2.28125 v 8.5 h -2.34375 v -8.40625 q 0,-1.4375 -0.28125,-2.14063 -0.26562,-0.71875 -0.96875,-1.14062 -0.6875,-0.42188 -1.625,-0.42188 -1.48437,0 -2.57812,0.95313 -1.09375,0.95312 -1.09375,3.60937 v 7.54688 z m 31.19964,0 v -1.75 q -1.3125,2.0625 -3.85937,2.0625 -1.65625,0 -3.04688,-0.90625 -1.375,-0.92188 -2.14062,-2.54688 -0.76563,-1.64062 -0.76563,-3.75 0,-2.07812 0.6875,-3.76562 0.70313,-1.6875 2.07813,-2.57813 1.375,-0.90625 3.07812,-0.90625 1.25,0 2.21875,0.53125 0.98438,0.53125 1.59375,1.375 v -6.84375 h 2.34375 v 19.07813 z m -7.40625,-6.89063 q 0,2.64063 1.125,3.96875 1.125,1.3125 2.64063,1.3125 1.53125,0 2.60937,-1.25 1.07813,-1.26562 1.07813,-3.84375 0,-2.84375 -1.09375,-4.17187 -1.09375,-1.32813 -2.70313,-1.32813 -1.54687,0 -2.60937,1.28125 -1.04688,1.28125 -1.04688,4.03125 z m 22.32496,6.89063 v -2.03125 q -1.60938,2.34375 -4.375,2.34375 -1.23438,0 -2.29688,-0.46875 -1.0625,-0.46875 -1.57812,-1.17188 -0.5,-0.71875 -0.71875,-1.75 -0.14063,-0.6875 -0.14063,-2.1875 v -8.5625 h 2.34375 v 7.67188 q 0,1.82812 0.14063,2.46875 0.21875,0.92187 0.9375,1.45312 0.71875,0.53125 1.76562,0.53125 1.0625,0 1.98438,-0.53125 0.92187,-0.54687 1.29687,-1.46875 0.39063,-0.9375 0.39063,-2.71875 v -7.40625 h 2.34375 v 13.82813 z m 12.62149,-6.125 2.375,-0.21875 q 0.17187,1.4375 0.78125,2.35937 0.625,0.90625 1.92187,1.48438 1.3125,0.5625 2.9375,0.5625 1.4375,0 2.54688,-0.42188 1.10937,-0.4375 1.64062,-1.1875 0.54688,-0.75 0.54688,-1.64062 0,-0.89063 -0.53125,-1.5625 -0.51563,-0.67188 -1.70313,-1.125 -0.76562,-0.29688 -3.40625,-0.92188 -2.625,-0.64062 -3.67187,-1.20312 -1.375,-0.71875 -2.04688,-1.76563 -0.67187,-1.0625 -0.67187,-2.375 0,-1.45312 0.8125,-2.70312 0.82812,-1.26563 2.40625,-1.90625 1.57812,-0.65625 3.5,-0.65625 2.125,0 3.73437,0.6875 1.625,0.67187 2.5,2 0.875,1.32812 0.9375,3.01562 l -2.42187,0.1875 q -0.1875,-1.8125 -1.3125,-2.73437 -1.125,-0.9375 -3.32813,-0.9375 -2.29687,0 -3.34375,0.84375 -1.04687,0.84375 -1.04687,2.03125 0,1.01562 0.75,1.6875 0.71875,0.65625 3.79687,1.35937 3.07813,0.70313 4.23438,1.21875 1.65625,0.76563 2.45312,1.95313 0.79688,1.17187 0.79688,2.70312 0,1.53125 -0.875,2.875 -0.875,1.34375 -2.51563,2.09375 -1.625,0.75 -3.67187,0.75 -2.59375,0 -4.34375,-0.75 -1.75,-0.76562 -2.75,-2.28125 -0.98438,-1.51562 -1.03125,-3.42187 z m 23.45141,4.03125 0.32813,2.0625 q -0.98438,0.21875 -1.76563,0.21875 -1.26562,0 -1.96875,-0.40625 -0.70312,-0.40625 -1,-1.0625 -0.28125,-0.65625 -0.28125,-2.76563 v -7.95312 h -1.71875 v -1.82813 h 1.71875 v -3.42187 l 2.32813,-1.40625 v 4.82812 h 2.35937 v 1.82813 h -2.35937 v 8.07812 q 0,1 0.125,1.29688 0.125,0.28125 0.40625,0.45312 0.28125,0.17188 0.79687,0.17188 0.39063,0 1.03125,-0.0937 z m 2.26532,2.09375 v -13.82813 h 2.10938 v 2.09375 q 0.79687,-1.46875 1.48437,-1.9375 0.6875,-0.46875 1.5,-0.46875 1.1875,0 2.40625,0.76563 l -0.79687,2.17187 q -0.85938,-0.51562 -1.71875,-0.51562 -0.76563,0 -1.39063,0.46875 -0.60937,0.45312 -0.85937,1.28125 -0.39063,1.25 -0.39063,2.73437 v 7.23438 z m 8.90802,-16.39063 v -2.6875 h 2.34375 v 2.6875 z m 0,16.39063 v -13.82813 h 2.34375 v 13.82813 z m 5.9065,0 v -13.82813 h 2.10937 v 1.96875 q 1.53125,-2.28125 4.40625,-2.28125 1.25,0 2.29688,0.45313 1.04687,0.45312 1.5625,1.1875 0.53125,0.71875 0.73437,1.71875 0.125,0.65625 0.125,2.28125 v 8.5 h -2.34375 v -8.40625 q 0,-1.4375 -0.28125,-2.14063 -0.26562,-0.71875 -0.96875,-1.14062 -0.6875,-0.42188 -1.625,-0.42188 -1.48437,0 -2.57812,0.95313 -1.09375,0.95312 -1.09375,3.60937 v 7.54688 z m 14.40307,1.14062 2.28125,0.34375 q 0.14063,1.04688 0.79688,1.53125 0.85937,0.65625 2.375,0.65625 1.625,0 2.5,-0.65625 0.89062,-0.64062 1.20312,-1.8125 0.1875,-0.71875 0.17188,-3.01562 -1.53125,1.8125 -3.82813,1.8125 -2.84375,0 -4.40625,-2.04688 -1.5625,-2.0625 -1.5625,-4.9375 0,-1.98437 0.71875,-3.65625 0.71875,-1.67187 2.07813,-2.57812 1.35937,-0.92188 3.1875,-0.92188 2.45312,0 4.03125,1.98438 v -1.67188 h 2.17187 v 11.95313 q 0,3.23437 -0.65625,4.57812 -0.65625,1.34375 -2.09375,2.125 -1.42187,0.78125 -3.5,0.78125 -2.46875,0 -4,-1.10937 -1.51562,-1.10938 -1.46875,-3.35938 z m 1.9375,-8.29687 q 0,2.71875 1.07813,3.96875 1.07812,1.25 2.70312,1.25 1.625,0 2.71875,-1.23438 1.09375,-1.25 1.09375,-3.90625 0,-2.54687 -1.125,-3.82812 -1.125,-1.29688 -2.71875,-1.29688 -1.5625,0 -2.65625,1.28125 -1.09375,1.26563 -1.09375,3.76563 z"
       fill-rule="nonzero"
       id="path2270" />
    <path
       fill="#000000"
       fill-opacity="0"
       d="m 327.62466,214.54855 h 298.6299 v 72 h -298.6299 z"
       fill-rule="evenodd"
       id="path2272" />
    <path
       stroke="#000000"
       stroke-width="1"
       stroke-linejoin="round"
       stroke-linecap="butt"
       stroke-dasharray="1, 3"
       d="m 327.62466,214.54855 h 298.6299 v 72 h -298.6299 z"
       fill-rule="evenodd"
       id="path2274" />
    <path
       fill="#000000"
       d="m 338.68716,260.14856 v -19.07813 h 6.5625 q 2.23437,0 3.40625,0.26563 1.64062,0.375 2.79687,1.375 1.5,1.26562 2.25,3.25 0.75,1.98437 0.75,4.54687 0,2.17188 -0.51562,3.85938 -0.5,1.67187 -1.29688,2.78125 -0.78125,1.09375 -1.73437,1.71875 -0.9375,0.625 -2.28125,0.95312 -1.32813,0.32813 -3.0625,0.32813 z m 2.51562,-2.25 h 4.07813 q 1.89062,0 2.95312,-0.34375 1.07813,-0.35938 1.71875,-1 0.89063,-0.89063 1.39063,-2.40625 0.51562,-1.51563 0.51562,-3.6875 0,-2.98438 -0.98437,-4.59375 -0.98438,-1.60938 -2.39063,-2.15625 -1.01562,-0.39063 -3.26562,-0.39063 h -4.01563 z m 25.89094,-2.20313 2.42187,0.29688 q -0.57812,2.125 -2.125,3.29687 -1.54687,1.17188 -3.95312,1.17188 -3.03125,0 -4.8125,-1.85938 -1.78125,-1.875 -1.78125,-5.25 0,-3.48437 1.79687,-5.40625 1.79688,-1.9375 4.67188,-1.9375 2.76562,0 4.51562,1.89063 1.76563,1.89062 1.76563,5.3125 0,0.20312 -0.0156,0.625 h -10.3125 q 0.14063,2.28125 1.29688,3.5 1.15625,1.20312 2.89062,1.20312 1.28125,0 2.1875,-0.67187 0.92188,-0.6875 1.45313,-2.17188 z m -7.6875,-3.78125 h 7.71875 q -0.15625,-1.75 -0.89063,-2.625 -1.125,-1.34375 -2.90625,-1.34375 -1.60937,0 -2.71875,1.07813 -1.09375,1.07812 -1.20312,2.89062 z m 2.51562,-7.3125 1.73438,-3.64062 h 3.0625 l -2.85938,3.64062 z m 11.09055,15.54688 v -12 h -2.0625 v -1.82813 h 2.0625 v -1.46875 q 0,-1.39062 0.25,-2.0625 0.34375,-0.92187 1.1875,-1.48437 0.85937,-0.5625 2.39062,-0.5625 0.98438,0 2.1875,0.23437 l -0.34375,2.04688 q -0.73437,-0.14063 -1.39062,-0.14063 -1.0625,0 -1.51563,0.46875 -0.4375,0.45313 -0.4375,1.70313 v 1.26562 h 2.70313 v 1.82813 h -2.70313 v 12 z m 6.8591,-16.39063 v -2.6875 h 2.34375 v 2.6875 z m 0,16.39063 v -13.82813 h 2.34375 v 13.82813 z m 5.90652,0 v -13.82813 h 2.10938 v 1.96875 q 1.53125,-2.28125 4.40625,-2.28125 1.25,0 2.29687,0.45313 1.04688,0.45312 1.5625,1.1875 0.53125,0.71875 0.73438,1.71875 0.125,0.65625 0.125,2.28125 v 8.5 h -2.34375 v -8.40625 q 0,-1.4375 -0.28125,-2.14063 -0.26563,-0.71875 -0.96875,-1.14062 -0.6875,-0.42188 -1.625,-0.42188 -1.48438,0 -2.57813,0.95313 -1.09375,0.95312 -1.09375,3.60937 v 7.54688 z m 14.84058,-16.39063 v -2.6875 h 2.34375 v 2.6875 z m 0,16.39063 v -13.82813 h 2.34375 v 13.82813 z m 11.03152,-2.09375 0.32813,2.0625 q -0.98438,0.21875 -1.76563,0.21875 -1.26562,0 -1.96875,-0.40625 -0.70312,-0.40625 -1,-1.0625 -0.28125,-0.65625 -0.28125,-2.76563 v -7.95312 h -1.71875 v -1.82813 h 1.71875 v -3.42187 l 2.32813,-1.40625 v 4.82812 h 2.35937 v 1.82813 h -2.35937 v 8.07812 q 0,1 0.125,1.29688 0.125,0.28125 0.40625,0.45312 0.28125,0.17188 0.79687,0.17188 0.39063,0 1.03125,-0.0937 z m 2.2966,-14.29688 v -2.6875 h 2.34375 v 2.6875 z m 0,16.39063 v -13.82813 h 2.34375 v 13.82813 z m 5.04715,-6.90625 q 0,-3.84375 2.125,-5.6875 1.78125,-1.54688 4.34375,-1.54688 2.85938,0 4.65625,1.875 1.8125,1.85938 1.8125,5.15625 0,2.67188 -0.79687,4.20313 -0.79688,1.53125 -2.32813,2.375 -1.53125,0.84375 -3.34375,0.84375 -2.89062,0 -4.6875,-1.85938 -1.78125,-1.85937 -1.78125,-5.35937 z m 2.40625,0 q 0,2.65625 1.15625,3.98437 1.15625,1.3125 2.90625,1.3125 1.75,0 2.90625,-1.32812 1.15625,-1.32813 1.15625,-4.04688 0,-2.5625 -1.17187,-3.89062 -1.15625,-1.32813 -2.89063,-1.32813 -1.75,0 -2.90625,1.32813 -1.15625,1.3125 -1.15625,3.96875 z m 13.27808,6.90625 v -13.82813 h 2.10937 v 1.96875 q 1.53125,-2.28125 4.40625,-2.28125 1.25,0 2.29688,0.45313 1.04687,0.45312 1.5625,1.1875 0.53125,0.71875 0.73437,1.71875 0.125,0.65625 0.125,2.28125 v 8.5 h -2.34375 v -8.40625 q 0,-1.4375 -0.28125,-2.14063 -0.26562,-0.71875 -0.96875,-1.14062 -0.6875,-0.42188 -1.625,-0.42188 -1.48437,0 -2.57812,0.95313 -1.09375,0.95312 -1.09375,3.60937 v 7.54688 z m 31.19964,0 v -1.75 q -1.3125,2.0625 -3.85937,2.0625 -1.65625,0 -3.04688,-0.90625 -1.375,-0.92188 -2.14062,-2.54688 -0.76563,-1.64062 -0.76563,-3.75 0,-2.07812 0.6875,-3.76562 0.70313,-1.6875 2.07813,-2.57813 1.375,-0.90625 3.07812,-0.90625 1.25,0 2.21875,0.53125 0.98438,0.53125 1.59375,1.375 v -6.84375 h 2.34375 v 19.07813 z m -7.40625,-6.89063 q 0,2.64063 1.125,3.96875 1.125,1.3125 2.64063,1.3125 1.53125,0 2.60937,-1.25 1.07813,-1.26562 1.07813,-3.84375 0,-2.84375 -1.09375,-4.17187 -1.09375,-1.32813 -2.70313,-1.32813 -1.54687,0 -2.60937,1.28125 -1.04688,1.28125 -1.04688,4.03125 z m 22.73117,2.4375 2.42188,0.29688 q -0.57813,2.125 -2.125,3.29687 -1.54688,1.17188 -3.95313,1.17188 -3.03125,0 -4.8125,-1.85938 -1.78125,-1.875 -1.78125,-5.25 0,-3.48437 1.79688,-5.40625 1.79687,-1.9375 4.67187,-1.9375 2.76563,0 4.51563,1.89063 1.76562,1.89062 1.76562,5.3125 0,0.20312 -0.0156,0.625 h -10.3125 q 0.14062,2.28125 1.29687,3.5 1.15625,1.20312 2.89063,1.20312 1.28125,0 2.1875,-0.67187 0.92187,-0.6875 1.45312,-2.17188 z m -7.6875,-3.78125 h 7.71875 q -0.15625,-1.75 -0.89062,-2.625 -1.125,-1.34375 -2.90625,-1.34375 -1.60938,0 -2.71875,1.07813 -1.09375,1.07812 -1.20313,2.89062 z m 20.40278,8.23438 v -19.07813 h 2.34375 v 19.07813 z m 15.0003,-1.70313 q -1.3125,1.10938 -2.51562,1.5625 -1.20313,0.45313 -2.57813,0.45313 -2.28125,0 -3.5,-1.10938 -1.21875,-1.10937 -1.21875,-2.84375 0,-1.01562 0.45313,-1.85937 0.46875,-0.84375 1.21875,-1.34375 0.75,-0.51563 1.6875,-0.76563 0.6875,-0.1875 2.07812,-0.35937 2.82813,-0.32813 4.17188,-0.79688 0.0156,-0.48437 0.0156,-0.625 0,-1.42187 -0.65625,-2.01562 -0.90625,-0.79688 -2.67187,-0.79688 -1.65625,0 -2.45313,0.59375 -0.78125,0.57813 -1.15625,2.04688 l -2.29687,-0.3125 q 0.3125,-1.46875 1.03125,-2.375 0.71875,-0.90625 2.0625,-1.39063 1.35937,-0.5 3.14062,-0.5 1.78125,0 2.875,0.42188 1.10938,0.42187 1.625,1.04687 0.53125,0.625 0.73438,1.59375 0.125,0.59375 0.125,2.15625 v 3.125 q 0,3.26563 0.14062,4.14063 0.15625,0.85937 0.59375,1.65625 h -2.4375 q -0.375,-0.73438 -0.46875,-1.70313 z m -0.20312,-5.23437 q -1.26563,0.51562 -3.82813,0.89062 -1.4375,0.20313 -2.04687,0.46875 -0.59375,0.25 -0.92188,0.75 -0.3125,0.5 -0.3125,1.125 0,0.9375 0.70313,1.5625 0.70312,0.625 2.07812,0.625 1.34375,0 2.39063,-0.59375 1.0625,-0.59375 1.5625,-1.625 0.375,-0.79687 0.375,-2.34375 z m 17.24652,6.9375 -5.25,-13.82813 h 2.46875 l 2.96875,8.28125 q 0.48437,1.34375 0.89062,2.78125 0.29688,-1.09375 0.85938,-2.625 l 3.07812,-8.4375 h 2.40625 l -5.23437,13.82813 z m 18.51562,-1.70313 q -1.3125,1.10938 -2.51562,1.5625 -1.20313,0.45313 -2.57813,0.45313 -2.28125,0 -3.5,-1.10938 -1.21875,-1.10937 -1.21875,-2.84375 0,-1.01562 0.45313,-1.85937 0.46875,-0.84375 1.21875,-1.34375 0.75,-0.51563 1.6875,-0.76563 0.6875,-0.1875 2.07812,-0.35937 2.82813,-0.32813 4.17188,-0.79688 0.0156,-0.48437 0.0156,-0.625 0,-1.42187 -0.65625,-2.01562 -0.90625,-0.79688 -2.67187,-0.79688 -1.65625,0 -2.45313,0.59375 -0.78125,0.57813 -1.15625,2.04688 l -2.29687,-0.3125 q 0.3125,-1.46875 1.03125,-2.375 0.71875,-0.90625 2.0625,-1.39063 1.35937,-0.5 3.14062,-0.5 1.78125,0 2.875,0.42188 1.10938,0.42187 1.625,1.04687 0.53125,0.625 0.73438,1.59375 0.125,0.59375 0.125,2.15625 v 3.125 q 0,3.26563 0.14062,4.14063 0.15625,0.85937 0.59375,1.65625 h -2.4375 q -0.375,-0.73438 -0.46875,-1.70313 z m -0.20312,-5.23437 q -1.26563,0.51562 -3.82813,0.89062 -1.4375,0.20313 -2.04687,0.46875 -0.59375,0.25 -0.92188,0.75 -0.3125,0.5 -0.3125,1.125 0,0.9375 0.70313,1.5625 0.70312,0.625 2.07812,0.625 1.34375,0 2.39063,-0.59375 1.0625,-0.59375 1.5625,-1.625 0.375,-0.79687 0.375,-2.34375 z m 5.9812,6.9375 v -13.82813 h 2.10937 v 2.09375 q 0.79688,-1.46875 1.48438,-1.9375 0.6875,-0.46875 1.5,-0.46875 1.1875,0 2.40625,0.76563 l -0.79688,2.17187 q -0.85937,-0.51562 -1.71875,-0.51562 -0.76562,0 -1.39062,0.46875 -0.60938,0.45312 -0.85938,1.28125 -0.39062,1.25 -0.39062,2.73437 v 7.23438 z m 8.90796,-16.39063 v -2.6875 h 2.34375 v 2.6875 z m 0,16.39063 v -13.82813 h 2.34375 v 13.82813 z m 14.9378,-1.70313 q -1.3125,1.10938 -2.51562,1.5625 -1.20313,0.45313 -2.57813,0.45313 -2.28125,0 -3.5,-1.10938 -1.21875,-1.10937 -1.21875,-2.84375 0,-1.01562 0.45313,-1.85937 0.46875,-0.84375 1.21875,-1.34375 0.75,-0.51563 1.6875,-0.76563 0.6875,-0.1875 2.07812,-0.35937 2.82813,-0.32813 4.17188,-0.79688 0.0156,-0.48437 0.0156,-0.625 0,-1.42187 -0.65625,-2.01562 -0.90625,-0.79688 -2.67187,-0.79688 -1.65625,0 -2.45313,0.59375 -0.78125,0.57813 -1.15625,2.04688 l -2.29687,-0.3125 q 0.3125,-1.46875 1.03125,-2.375 0.71875,-0.90625 2.0625,-1.39063 1.35937,-0.5 3.14062,-0.5 1.78125,0 2.875,0.42188 1.10938,0.42187 1.625,1.04687 0.53125,0.625 0.73438,1.59375 0.125,0.59375 0.125,2.15625 v 3.125 q 0,3.26563 0.14062,4.14063 0.15625,0.85937 0.59375,1.65625 h -2.4375 q -0.375,-0.73438 -0.46875,-1.70313 z m -0.20312,-5.23437 q -1.26563,0.51562 -3.82813,0.89062 -1.4375,0.20313 -2.04687,0.46875 -0.59375,0.25 -0.92188,0.75 -0.3125,0.5 -0.3125,1.125 0,0.9375 0.70313,1.5625 0.70312,0.625 2.07812,0.625 1.34375,0 2.39063,-0.59375 1.0625,-0.59375 1.5625,-1.625 0.375,-0.79687 0.375,-2.34375 z m 8.1687,6.9375 h -2.17188 v -19.07813 h 2.34375 v 6.79688 q 1.48438,-1.85938 3.78125,-1.85938 1.28125,0 2.40625,0.51563 1.14063,0.51562 1.875,1.45312 0.75,0.92188 1.15625,2.25 0.42188,1.3125 0.42188,2.79688 0,3.5625 -1.76563,5.5 -1.75,1.9375 -4.21875,1.9375 -2.4375,0 -3.82812,-2.04688 z m -0.0312,-7.01563 q 0,2.48438 0.67187,3.59375 1.10938,1.8125 3,1.8125 1.53125,0 2.65625,-1.32812 1.125,-1.34375 1.125,-3.98438 0,-2.70312 -1.07812,-3.98437 -1.07813,-1.29688 -2.59375,-1.29688 -1.54688,0 -2.67188,1.32813 -1.10937,1.32812 -1.10937,3.85937 z m 12.63745,7.01563 v -19.07813 h 2.34375 v 19.07813 z m 15.4378,-4.45313 2.42188,0.29688 q -0.57813,2.125 -2.125,3.29687 -1.54688,1.17188 -3.95313,1.17188 -3.03125,0 -4.8125,-1.85938 -1.78125,-1.875 -1.78125,-5.25 0,-3.48437 1.79688,-5.40625 1.79687,-1.9375 4.67187,-1.9375 2.76563,0 4.51563,1.89063 1.76562,1.89062 1.76562,5.3125 0,0.20312 -0.0156,0.625 h -10.3125 q 0.14062,2.28125 1.29687,3.5 1.15625,1.20312 2.89063,1.20312 1.28125,0 2.1875,-0.67187 0.92187,-0.6875 1.45312,-2.17188 z m -7.6875,-3.78125 h 7.71875 q -0.15625,-1.75 -0.89062,-2.625 -1.125,-1.34375 -2.90625,-1.34375 -1.60938,0 -2.71875,1.07813 -1.09375,1.07812 -1.20313,2.89062 z"
       fill-rule="nonzero"
       id="path2276" />
    <path
       fill="#000000"
       fill-opacity="0"
       d="M 327.62466,250.54855 H 265.76641"
       fill-rule="evenodd"
       id="path2278" />
    <path
       stroke="#000000"
       stroke-width="1"
       stroke-linejoin="round"
       stroke-linecap="butt"
       d="M 327.62466,250.54855 H 271.76641"
       fill-rule="evenodd"
       id="path2280" />
    <path
       fill="#000000"
       stroke="#000000"
       stroke-width="1"
       stroke-linecap="butt"
       d="m 271.76642,248.89682 -4.53812,1.65173 4.53812,1.65174 z"
       fill-rule="evenodd"
       id="path2282" />
    <path
       fill="#000000"
       fill-opacity="0"
       d="M 327.62466,141.82152 H 265.76641"
       fill-rule="evenodd"
       id="path2284" />
    <path
       stroke="#000000"
       stroke-width="1"
       stroke-linejoin="round"
       stroke-linecap="butt"
       d="M 327.62466,141.82152 H 271.76641"
       fill-rule="evenodd"
       id="path2286" />
    <path
       fill="#000000"
       stroke="#000000"
       stroke-width="1"
       stroke-linecap="butt"
       d="m 271.76642,140.16978 -4.53812,1.65173 4.53812,1.65174 z"
       fill-rule="evenodd"
       id="path2288" />
  </g>
</svg>
