<?xml version="1.0" encoding="UTF-8" standalone="no"?>
<svg
   xmlns:dc="http://purl.org/dc/elements/1.1/"
   xmlns:cc="http://creativecommons.org/ns#"
   xmlns:rdf="http://www.w3.org/1999/02/22-rdf-syntax-ns#"
   xmlns:svg="http://www.w3.org/2000/svg"
   xmlns="http://www.w3.org/2000/svg"
   xmlns:sodipodi="http://sodipodi.sourceforge.net/DTD/sodipodi-0.dtd"
   xmlns:inkscape="http://www.inkscape.org/namespaces/inkscape"
   version="1.1"
   viewBox="0 0 651.90155 398.6474"
   fill="none"
   stroke="none"
   stroke-linecap="square"
   stroke-miterlimit="10"
   id="svg3091"
   sodipodi:docname="flowchart-OR.svg"
   width="651.90155"
   height="398.6474"
   inkscape:version="1.0.2-2 (e86c870879, 2021-01-15)">
  <metadata
     id="metadata3097">
    <rdf:RDF>
      <cc:Work
         rdf:about="">
        <dc:format>image/svg+xml</dc:format>
        <dc:type
           rdf:resource="http://purl.org/dc/dcmitype/StillImage" />
        <dc:title></dc:title>
      </cc:Work>
    </rdf:RDF>
  </metadata>
  <defs
     id="defs3095" />
  <sodipodi:namedview
     pagecolor="#ffffff"
     bordercolor="#666666"
     borderopacity="1"
     objecttolerance="10"
     gridtolerance="10"
     guidetolerance="10"
     inkscape:pageopacity="0"
     inkscape:pageshadow="2"
     inkscape:window-width="1920"
     inkscape:window-height="1017"
     id="namedview3093"
     showgrid="false"
     fit-margin-top="0"
     fit-margin-left="0"
     fit-margin-right="0"
     fit-margin-bottom="0"
     inkscape:zoom="3.0663491"
     inkscape:cx="156.28923"
     inkscape:cy="214.58148"
     inkscape:window-x="-8"
     inkscape:window-y="-8"
     inkscape:window-maximized="1"
     inkscape:current-layer="svg3091"
     inkscape:document-rotation="0" />
  <clipPath
     id="p.0">
    <path
       d="M 0,0 H 960 V 720 H 0 Z"
       clip-rule="nonzero"
       id="path2926" />
  </clipPath>
  <path
     fill="#000000"
     fill-opacity="0"
     d="M -46.561934,-8.5118001 H 913.43807 V 711.4882 H -46.561934 Z"
     fill-rule="evenodd"
     id="path2929" />
  <path
     fill="#cfe2f3"
     d="m 106.34644,0.5 h 82.58986 v 0 c 10.81949,0 19.59042,12.763482 19.59042,28.508032 0,15.744553 -8.77093,28.508034 -19.59042,28.508034 h -82.58986 v 0 c -10.819504,0 -19.590434,-12.763481 -19.590434,-28.508034 C 86.756006,13.263481 95.526936,0.5 106.34644,0.5 Z"
     fill-rule="evenodd"
     id="path2931" />
  <path
     stroke="#000000"
     stroke-width="1"
     stroke-linejoin="round"
     stroke-linecap="butt"
     d="m 106.34644,0.5 h 82.58986 v 0 c 10.81949,0 19.59042,12.763482 19.59042,28.508032 0,15.744553 -8.77093,28.508034 -19.59042,28.508034 h -82.58986 v 0 c -10.819504,0 -19.590434,-12.763481 -19.590434,-28.508034 C 86.756006,13.263481 95.526936,0.5 106.34644,0.5 Z"
     fill-rule="evenodd"
     id="path2933" />
  <path
     fill="#000000"
     d="M 109.69998,38.608029 V 19.529904 h 6.5625 q 2.23437,0 3.40625,0.265625 1.64062,0.375 2.79687,1.375 1.5,1.265625 2.25,3.25 0.75,1.984375 0.75,4.546875 0,2.171875 -0.51562,3.859375 -0.5,1.671875 -1.29688,2.78125 -0.78125,1.09375 -1.73437,1.71875 -0.9375,0.625 -2.28125,0.953125 -1.32813,0.328125 -3.0625,0.328125 z m 2.51562,-2.25 h 4.07813 q 1.89062,0 2.95312,-0.34375 1.07813,-0.359375 1.71875,-1 0.89063,-0.890625 1.39063,-2.40625 0.51562,-1.515625 0.51562,-3.6875 0,-2.984375 -0.98437,-4.59375 -0.98438,-1.609375 -2.39063,-2.15625 -1.01562,-0.390625 -3.26562,-0.390625 h -4.01563 z m 25.89092,-2.203125 2.42187,0.296875 q -0.57812,2.125 -2.125,3.296875 -1.54687,1.171875 -3.95312,1.171875 -3.03125,0 -4.8125,-1.859375 -1.78125,-1.875 -1.78125,-5.25 0,-3.484375 1.79687,-5.40625 1.79688,-1.9375 4.67188,-1.9375 2.76562,0 4.51562,1.890625 1.76563,1.890625 1.76563,5.3125 0,0.203125 -0.0156,0.625 h -10.3125 q 0.14063,2.28125 1.29688,3.5 1.15625,1.203125 2.89062,1.203125 1.28125,0 2.1875,-0.671875 0.92188,-0.6875 1.45313,-2.171875 z m -7.6875,-3.78125 h 7.71875 q -0.15625,-1.75 -0.89063,-2.625 -1.125,-1.34375 -2.90625,-1.34375 -1.60937,0 -2.71875,1.078125 -1.09375,1.078125 -1.20312,2.890625 z m 2.51562,-7.3125 1.73438,-3.640625 h 3.0625 l -2.85938,3.640625 z m 10.52807,20.84375 v -19.125 h 2.14062 v 1.796875 q 0.75,-1.046875 1.70313,-1.578125 0.95312,-0.53125 2.3125,-0.53125 1.76562,0 3.10937,0.921875 1.35938,0.90625 2.04688,2.5625 0.6875,1.65625 0.6875,3.640625 0,2.125 -0.76563,3.828125 -0.75,1.6875 -2.20312,2.59375 -1.45313,0.90625 -3.04688,0.90625 -1.17187,0 -2.10937,-0.484375 -0.92188,-0.5 -1.53125,-1.265625 v 6.734375 z m 2.125,-12.125 q 0,2.65625 1.07812,3.9375 1.09375,1.28125 2.625,1.28125 1.5625,0 2.67188,-1.3125 1.10937,-1.328125 1.10937,-4.109375 0,-2.640625 -1.09375,-3.953125 -1.07812,-1.3125 -2.59375,-1.3125 -1.48437,0 -2.64062,1.40625 -1.15625,1.390625 -1.15625,4.0625 z m 21.73118,5.125 q -1.3125,1.109375 -2.51562,1.5625 -1.20313,0.453125 -2.57813,0.453125 -2.28125,0 -3.5,-1.109375 -1.21875,-1.109375 -1.21875,-2.84375 0,-1.015625 0.45313,-1.859375 0.46875,-0.84375 1.21875,-1.34375 0.75,-0.515625 1.6875,-0.765625 0.6875,-0.1875 2.07812,-0.359375 2.82813,-0.328125 4.17188,-0.796875 0.0156,-0.484375 0.0156,-0.625 0,-1.421875 -0.65625,-2.015625 -0.90625,-0.796875 -2.67187,-0.796875 -1.65625,0 -2.45313,0.59375 -0.78125,0.578125 -1.15625,2.046875 l -2.29687,-0.3125 q 0.3125,-1.46875 1.03125,-2.375 0.71875,-0.90625 2.0625,-1.390625 1.35937,-0.5 3.14062,-0.5 1.78125,0 2.875,0.421875 1.10938,0.421875 1.625,1.046875 0.53125,0.625 0.73438,1.59375 0.125,0.59375 0.125,2.15625 v 3.125 q 0,3.265625 0.14062,4.140625 0.15625,0.859375 0.59375,1.65625 h -2.4375 q -0.375,-0.734375 -0.46875,-1.703125 z m -0.20312,-5.234375 q -1.26563,0.515625 -3.82813,0.890625 -1.4375,0.203125 -2.04687,0.46875 -0.59375,0.25 -0.92188,0.75 -0.3125,0.5 -0.3125,1.125 0,0.9375 0.70313,1.5625 0.70312,0.625 2.07812,0.625 1.34375,0 2.39063,-0.59375 1.0625,-0.59375 1.5625,-1.625 0.375,-0.796875 0.375,-2.34375 z m 5.98118,6.9375 V 24.779904 h 2.10938 v 2.09375 q 0.79687,-1.46875 1.48437,-1.9375 0.6875,-0.46875 1.5,-0.46875 1.1875,0 2.40625,0.765625 l -0.79687,2.171875 q -0.85938,-0.515625 -1.71875,-0.515625 -0.76563,0 -1.39063,0.46875 -0.60937,0.453125 -0.85937,1.28125 -0.39063,1.25 -0.39063,2.734375 v 7.234375 z m 14.01737,-2.09375 0.32812,2.0625 q -0.98437,0.21875 -1.76562,0.21875 -1.26563,0 -1.96875,-0.40625 -0.70313,-0.40625 -1,-1.0625 -0.28125,-0.65625 -0.28125,-2.765625 v -7.953125 h -1.71875 v -1.828125 h 1.71875 v -3.421875 l 2.32812,-1.40625 v 4.828125 h 2.35938 v 1.828125 h -2.35938 v 8.078125 q 0,1 0.125,1.296875 0.125,0.28125 0.40625,0.453125 0.28125,0.171875 0.79688,0.171875 0.39062,0 1.03125,-0.09375 z"
     fill-rule="nonzero"
     id="path2935" />
  <path
     fill="#cfe2f3"
     d="m 101.37911,341.13134 h 89.14583 v 0 c 11.67835,0 21.14551,12.76349 21.14551,28.50806 0,15.7445 -9.46716,28.50799 -21.14551,28.50799 h -89.14583 v 0 c -11.678344,0 -21.14551,-12.76349 -21.14551,-28.50799 0,-15.74457 9.467166,-28.50806 21.14551,-28.50806 z"
     fill-rule="evenodd"
     id="path2937" />
  <path
     stroke="#000000"
     stroke-width="1"
     stroke-linejoin="round"
     stroke-linecap="butt"
     d="m 101.37911,341.13134 h 89.14583 v 0 c 11.67835,0 21.14551,12.76349 21.14551,28.50806 0,15.7445 -9.46716,28.50799 -21.14551,28.50799 h -89.14583 v 0 c -11.678344,0 -21.14551,-12.76349 -21.14551,-28.50799 0,-15.74457 9.467166,-28.50806 21.14551,-28.50806 z"
     fill-rule="evenodd"
     id="path2939" />
  <path
     fill="#000000"
     d="m 129.62462,379.23939 v -19.07813 h 12.875 v 2.25 h -10.34375 v 5.90625 h 8.95312 v 2.25 h -8.95312 v 8.67188 z m 15.86082,-16.39063 v -2.6875 h 2.34375 v 2.6875 z m 0,16.39063 v -13.82813 h 2.34375 v 13.82813 z m 5.90654,0 v -13.82813 h 2.10938 v 1.96875 q 1.53125,-2.28125 4.40625,-2.28125 1.25,0 2.29687,0.45313 1.04688,0.45312 1.5625,1.1875 0.53125,0.71875 0.73438,1.71875 0.125,0.65625 0.125,2.28125 v 8.5 h -2.34375 v -8.40625 q 0,-1.4375 -0.28125,-2.14063 -0.26563,-0.71875 -0.96875,-1.14062 -0.6875,-0.42188 -1.625,-0.42188 -1.48438,0 -2.57813,0.95313 -1.09375,0.95312 -1.09375,3.60937 v 7.54688 z"
     fill-rule="nonzero"
     id="path2941" />
  <path
     fill="#000000"
     fill-opacity="0"
     d="M 147.64136,57.516069 V 84.697168"
     fill-rule="evenodd"
     id="path2943" />
  <path
     stroke="#000000"
     stroke-width="1"
     stroke-linejoin="round"
     stroke-linecap="butt"
     d="M 147.64136,57.516059 V 78.697173"
     fill-rule="evenodd"
     id="path2945" />
  <path
     fill="#000000"
     stroke="#000000"
     stroke-width="1"
     stroke-linecap="butt"
     d="m 145.98963,78.697169 1.65173,4.538094 1.65174,-4.538094 z"
     fill-rule="evenodd"
     id="path2947" />
  <path
     fill="#000000"
     fill-opacity="0"
     d="m 145.95201,305.72979 v 35.40155"
     fill-rule="evenodd"
     id="path2949" />
  <path
     stroke="#000000"
     stroke-width="1"
     stroke-linejoin="round"
     stroke-linecap="butt"
     d="m 145.95201,305.72979 v 29.40155"
     fill-rule="evenodd"
     id="path2951" />
  <path
     fill="#000000"
     stroke="#000000"
     stroke-width="1"
     stroke-linecap="butt"
     d="m 144.30028,335.13134 1.65173,4.53809 1.65174,-4.53809 z"
     fill-rule="evenodd"
     id="path2953" />
  <path
     fill="#cfe2f3"
     d="M 22.054866,85.34909 H 270.43021 v 53.03937 H 22.054866 Z"
     fill-rule="evenodd"
     id="path2955" />
  <path
     fill="#000000"
     fill-opacity="0"
     d="m 53.101776,85.34909 v 53.03937 M 22.054863,91.97901 H 270.43021"
     fill-rule="evenodd"
     id="path2957" />
  <path
     fill="#000000"
     fill-opacity="0"
     d="M 22.054866,85.34909 H 270.43021 v 53.03937 H 22.054866 Z"
     fill-rule="evenodd"
     id="path2959" />
  <path
     stroke="#000000"
     stroke-width="1"
     stroke-linejoin="round"
     stroke-linecap="butt"
     d="m 53.101776,85.34909 v 53.03937 M 22.054863,91.97901 H 270.43021"
     fill-rule="evenodd"
     id="path2961" />
  <path
     stroke="#000000"
     stroke-width="1"
     stroke-linejoin="round"
     stroke-linecap="butt"
     d="M 22.054866,85.34909 H 270.43021 v 53.03937 H 22.054866 Z"
     fill-rule="evenodd"
     id="path2963" />
  <path
     fill="#000000"
     fill-opacity="0"
     d="M 327.11259,88.904195 H 428.26744 V 134.93306 H 327.11259 Z"
     fill-rule="evenodd"
     id="path2981" />
  <path
     stroke="#000000"
     stroke-width="1"
     stroke-linejoin="round"
     stroke-linecap="butt"
     stroke-dasharray="1, 3"
     d="M 327.11259,88.904195 H 428.26744 V 134.93306 H 327.11259 Z"
     fill-rule="evenodd"
     id="path2983" />
  <path
     fill="#000000"
     d="m 338.30009,121.51861 v -19.07813 h 12.875 v 2.25 h -10.34375 v 5.90625 h 8.95312 v 2.25 h -8.95312 v 8.67188 z m 24.87643,-1.70313 q -1.3125,1.10938 -2.51562,1.5625 -1.20313,0.45313 -2.57813,0.45313 -2.28125,0 -3.5,-1.10938 -1.21875,-1.10937 -1.21875,-2.84375 0,-1.01562 0.45313,-1.85937 0.46875,-0.84375 1.21875,-1.34375 0.75,-0.51563 1.6875,-0.76563 0.6875,-0.1875 2.07812,-0.35937 2.82813,-0.32813 4.17188,-0.79688 0.0156,-0.48437 0.0156,-0.625 0,-1.42187 -0.65625,-2.01562 -0.90625,-0.79688 -2.67187,-0.79688 -1.65625,0 -2.45313,0.59375 -0.78125,0.57813 -1.15625,2.04688 l -2.29687,-0.3125 q 0.3125,-1.46875 1.03125,-2.375 0.71875,-0.90625 2.0625,-1.39063 1.35937,-0.5 3.14062,-0.5 1.78125,0 2.875,0.42188 1.10938,0.42187 1.625,1.04687 0.53125,0.625 0.73438,1.59375 0.125,0.59375 0.125,2.15625 v 3.125 q 0,3.26563 0.14062,4.14063 0.15625,0.85937 0.59375,1.65625 h -2.4375 q -0.375,-0.73438 -0.46875,-1.70313 z m -0.20312,-5.23437 q -1.26563,0.51562 -3.82813,0.89062 -1.4375,0.20313 -2.04687,0.46875 -0.59375,0.25 -0.92188,0.75 -0.3125,0.5 -0.3125,1.125 0,0.9375 0.70313,1.5625 0.70312,0.625 2.07812,0.625 1.34375,0 2.39063,-0.59375 1.0625,-0.59375 1.5625,-1.625 0.375,-0.79687 0.375,-2.34375 z m 5.94995,6.9375 v -19.07813 h 2.34375 v 19.07813 z m 5.03152,-4.125 2.32813,-0.35938 q 0.1875,1.39063 1.07812,2.14063 0.89063,0.73437 2.5,0.73437 1.60938,0 2.39063,-0.65625 0.78125,-0.65625 0.78125,-1.54687 0,-0.79688 -0.6875,-1.25 -0.48438,-0.3125 -2.39063,-0.79688 -2.57812,-0.65625 -3.57812,-1.125 -1,-0.46875 -1.51563,-1.3125 -0.51562,-0.84375 -0.51562,-1.85937 0,-0.92188 0.42187,-1.70313 0.4375,-0.79687 1.15625,-1.3125 0.54688,-0.40625 1.48438,-0.6875 0.95312,-0.28125 2.03125,-0.28125 1.625,0 2.85937,0.46875 1.23438,0.46875 1.8125,1.28125 0.59375,0.79688 0.8125,2.14063 l -2.29687,0.3125 q -0.15625,-1.07813 -0.90625,-1.67188 -0.75,-0.59375 -2.10938,-0.59375 -1.60937,0 -2.3125,0.53125 -0.6875,0.53125 -0.6875,1.25 0,0.45313 0.29688,0.8125 0.28125,0.375 0.89062,0.625 0.35938,0.14063 2.07813,0.60938 2.48437,0.65625 3.46875,1.07812 0.98437,0.42188 1.53125,1.23438 0.5625,0.79687 0.5625,2 0,1.17187 -0.6875,2.21875 -0.67188,1.03125 -1.96875,1.59375 -1.28125,0.5625 -2.90625,0.5625 -2.70313,0 -4.125,-1.10938 -1.40625,-1.125 -1.79688,-3.32812 z m 23.73438,-0.32813 2.42187,0.29688 q -0.57812,2.125 -2.125,3.29687 -1.54687,1.17188 -3.95312,1.17188 -3.03125,0 -4.8125,-1.85938 -1.78125,-1.875 -1.78125,-5.25 0,-3.48437 1.79687,-5.40625 1.79688,-1.9375 4.67188,-1.9375 2.76562,0 4.51562,1.89063 1.76563,1.89062 1.76563,5.3125 0,0.20312 -0.0156,0.625 h -10.3125 q 0.14063,2.28125 1.29688,3.5 1.15625,1.20312 2.89062,1.20312 1.28125,0 2.1875,-0.67187 0.92188,-0.6875 1.45313,-2.17188 z m -7.6875,-3.78125 h 7.71875 q -0.15625,-1.75 -0.89063,-2.625 -1.125,-1.34375 -2.90625,-1.34375 -1.60937,0 -2.71875,1.07813 -1.09375,1.07812 -1.20312,2.89062 z"
     fill-rule="nonzero"
     id="path2985" />
  <path
     fill="#000000"
     fill-opacity="0"
     d="M 327.11259,111.91862 H 270.57716"
     fill-rule="evenodd"
     id="path2987" />
  <path
     stroke="#000000"
     stroke-width="1"
     stroke-linejoin="round"
     stroke-linecap="butt"
     d="M 327.11259,111.91862 H 276.57716"
     fill-rule="evenodd"
     id="path2989" />
  <path
     fill="#000000"
     stroke="#000000"
     stroke-width="1"
     stroke-linecap="butt"
     d="m 276.57716,110.26689 -4.53809,1.65173 4.53809,1.65174 z"
     fill-rule="evenodd"
     id="path2991" />
  <path
     fill="#000000"
     fill-opacity="0"
     d="m 146.24253,218.41865 v 26.92912"
     fill-rule="evenodd"
     id="path2999" />
  <path
     fill="#cfe2f3"
     d="M 20.750383,172.29805 H 269.12573 v 53.03938 H 20.750383 Z"
     fill-rule="evenodd"
     id="path3005" />
  <path
     fill="#000000"
     fill-opacity="0"
     d="m 51.797293,172.29805 v 53.03938 M 20.75038,178.92798 h 248.37535"
     fill-rule="evenodd"
     id="path3007" />
  <path
     fill="#000000"
     fill-opacity="0"
     d="M 20.750383,172.29805 H 269.12573 v 53.03938 H 20.750383 Z"
     fill-rule="evenodd"
     id="path3009" />
  <path
     stroke="#000000"
     stroke-width="1"
     stroke-linejoin="round"
     stroke-linecap="butt"
     d="m 51.797293,172.29805 v 53.03938 M 20.75038,178.92798 h 248.37535"
     fill-rule="evenodd"
     id="path3011" />
  <path
     stroke="#000000"
     stroke-width="1"
     stroke-linejoin="round"
     stroke-linecap="butt"
     d="M 20.750383,172.29805 H 269.12573 v 53.03938 H 20.750383 Z"
     fill-rule="evenodd"
     id="path3013" />
  <path
     fill="#000000"
     fill-opacity="0"
     d="m 325.80811,178.71407 h 101.15485 v 46.02887 H 325.80811 Z"
     fill-rule="evenodd"
     id="path3035" />
  <path
     stroke="#000000"
     stroke-width="1"
     stroke-linejoin="round"
     stroke-linecap="butt"
     stroke-dasharray="1, 3"
     d="m 325.80811,178.71407 h 101.15485 v 46.02887 H 325.80811 Z"
     fill-rule="evenodd"
     id="path3037" />
  <path
     fill="#000000"
     d="m 341.71436,211.32852 v -16.82813 h -6.28125 v -2.25 h 15.125 v 2.25 h -6.3125 v 16.82813 z m 10.12125,0 v -13.82813 h 2.10937 v 2.09375 q 0.79688,-1.46875 1.48438,-1.9375 0.6875,-0.46875 1.5,-0.46875 1.1875,0 2.40625,0.76563 l -0.79688,2.17187 q -0.85937,-0.51562 -1.71875,-0.51562 -0.76562,0 -1.39062,0.46875 -0.60938,0.45312 -0.85938,1.28125 -0.39062,1.25 -0.39062,2.73437 v 7.23438 z m 17.95486,0 v -2.03125 q -1.60937,2.34375 -4.375,2.34375 -1.23437,0 -2.29687,-0.46875 -1.0625,-0.46875 -1.57813,-1.17188 -0.5,-0.71875 -0.71875,-1.75 -0.14062,-0.6875 -0.14062,-2.1875 v -8.5625 h 2.34375 v 7.67188 q 0,1.82812 0.14062,2.46875 0.21875,0.92187 0.9375,1.45312 0.71875,0.53125 1.76563,0.53125 1.0625,0 1.98437,-0.53125 0.92188,-0.54687 1.29688,-1.46875 0.39062,-0.9375 0.39062,-2.71875 v -7.40625 h 2.34375 v 13.82813 z m 15.23117,-4.45313 2.42188,0.29688 q -0.57813,2.125 -2.125,3.29687 -1.54688,1.17188 -3.95313,1.17188 -3.03125,0 -4.8125,-1.85938 -1.78125,-1.875 -1.78125,-5.25 0,-3.48437 1.79688,-5.40625 1.79687,-1.9375 4.67187,-1.9375 2.76563,0 4.51563,1.89063 1.76562,1.89062 1.76562,5.3125 0,0.20312 -0.0156,0.625 h -10.3125 q 0.14062,2.28125 1.29687,3.5 1.15625,1.20312 2.89063,1.20312 1.28125,0 2.1875,-0.67187 0.92187,-0.6875 1.45312,-2.17188 z m -7.6875,-3.78125 h 7.71875 q -0.15625,-1.75 -0.89062,-2.625 -1.125,-1.34375 -2.90625,-1.34375 -1.60938,0 -2.71875,1.07813 -1.09375,1.07812 -1.20313,2.89062 z"
     fill-rule="nonzero"
     id="path3039" />
  <path
     fill="#cfe2f3"
     d="m 0.5,260.84655 h 322.79 v 46.02887 H 0.5 Z"
     fill-rule="evenodd"
     id="path3041" />
  <path
     stroke="#000000"
     stroke-width="1"
     stroke-linejoin="round"
     stroke-linecap="butt"
     d="m 0.5,260.84655 h 322.79 v 46.02887 H 0.5 Z"
     fill-rule="evenodd"
     id="path3043" />
  <path
     fill="#000000"
     fill-opacity="0"
     d="m 370.7034,260.84786 h 280.69815 v 46.0289 H 370.7034 Z"
     fill-rule="evenodd"
     id="path3047" />
  <path
     stroke="#000000"
     stroke-width="1"
     stroke-linejoin="round"
     stroke-linecap="butt"
     stroke-dasharray="1, 3"
     d="m 370.7034,260.84786 h 280.69815 v 46.0289 H 370.7034 Z"
     fill-rule="evenodd"
     id="path3049" />
  <path
     fill="#000000"
     fill-opacity="0"
     d="M 325.80811,201.7285 H 269.27268"
     fill-rule="evenodd"
     id="path3053" />
  <path
     stroke="#000000"
     stroke-width="1"
     stroke-linejoin="round"
     stroke-linecap="butt"
     d="M 325.80811,201.7285 H 275.27268"
     fill-rule="evenodd"
     id="path3055" />
  <path
     fill="#000000"
     stroke="#000000"
     stroke-width="1"
     stroke-linecap="butt"
     d="m 275.27268,200.07677 -4.53809,1.65173 4.53809,1.65174 z"
     fill-rule="evenodd"
     id="path3057" />
  <path
     fill="#000000"
     fill-opacity="0"
     d="M 370.7034,283.86229 H 323.30182"
     fill-rule="evenodd"
     id="path3059" />
  <path
     stroke="#000000"
     stroke-width="1"
     stroke-linejoin="round"
     stroke-linecap="butt"
     d="M 370.7034,283.86229 H 329.30182"
     fill-rule="evenodd"
     id="path3061" />
  <path
     fill="#000000"
     stroke="#000000"
     stroke-width="1"
     stroke-linecap="butt"
     d="m 329.30182,282.21059 -4.53809,1.65173 4.53809,1.65174 z"
     fill-rule="evenodd"
     id="path3063" />
  <path
     fill="#000000"
     fill-opacity="0"
     d="m 146.24253,138.38847 v 34.01575"
     fill-rule="evenodd"
     id="path3083" />
  <path
     stroke="#000000"
     stroke-width="1"
     stroke-linejoin="round"
     stroke-linecap="butt"
     d="m 146.24253,138.38847 v 28.01575"
     fill-rule="evenodd"
     id="path3085" />
  <path
     fill="#000000"
     stroke="#000000"
     stroke-width="1"
     stroke-linecap="butt"
     d="m 144.5908,166.40422 1.65173,4.53809 1.65174,-4.53809 z"
     fill-rule="evenodd"
     id="path3087" />
  <text
     xml:space="preserve"
     style="font-size:26.6667px;line-height:1.25;font-family:Alegreya;-inkscape-font-specification:Alegreya;white-space:pre;inline-size:0;fill:#000000;fill-opacity:1"
     x="317.03857"
     y="605.48645"
     id="text1913"
     transform="translate(-269.83707,-311.19029)"><tspan
       id="tspan1911"
       x="317.03857"
       y="605.48645"
       style="font-style:normal;font-variant:normal;font-weight:normal;font-stretch:normal;font-family:Arial;-inkscape-font-specification:Arial">result = bool1 or bool2</tspan></text>
  <text
     xml:space="preserve"
     style="font-size:26.6667px;line-height:1.25;font-family:Alegreya;-inkscape-font-specification:Alegreya;white-space:pre;inline-size:0;fill:#000000;fill-opacity:1"
     x="317.03857"
     y="605.48645"
     id="text1913-0"
     transform="translate(74.714589,-310.94401)"><tspan
       id="tspan1911-9"
       x="317.03857"
       y="605.48645"
       style="font-style:normal;font-variant:normal;font-weight:normal;font-stretch:normal;font-family:Arial;-inkscape-font-specification:Arial">False or True = True</tspan></text>
  <path
     fill="#000000"
     d="m 70.779065,125.3752 h -2.17188 v -19.07813 h 2.34375 v 6.79688 q 1.48438,-1.85938 3.78125,-1.85938 1.28125,0 2.40625,0.51563 1.14063,0.51562 1.875,1.45312 0.75,0.92188 1.15626,2.25 0.42188,1.3125 0.42188,2.79688 0,3.5625 -1.76564,5.5 -1.75,1.9375 -4.21875,1.9375 -2.4375,0 -3.82812,-2.04688 z m -0.0312,-7.01563 q 0,2.48438 0.67187,3.59375 1.10938,1.8125 3,1.8125 1.53125,0 2.65625,-1.32812 1.125,-1.34375 1.125,-3.98438 0,-2.70312 -1.07812,-3.98437 -1.07813,-1.29688 -2.59375,-1.29688 -1.54688,0 -2.67188,1.32813 -1.10937,1.32812 -1.10937,3.85937 z m 11.82494,0.10938 q 0,-3.84375 2.125001,-5.6875 1.78125,-1.54688 4.34375,-1.54688 2.85938,0 4.65625,1.875 1.8125,1.85938 1.8125,5.15625 0,2.67188 -0.79687,4.20313 -0.79688,1.53125 -2.32813,2.375 -1.53125,0.84375 -3.34375,0.84375 -2.89062,0 -4.6875,-1.85938 -1.781251,-1.85937 -1.781251,-5.35937 z m 2.406251,0 q 0,2.65625 1.15625,3.98437 1.15625,1.3125 2.90625,1.3125 1.75,0 2.90625,-1.32812 1.15625,-1.32813 1.15625,-4.04688 0,-2.5625 -1.17187,-3.89062 -1.15625,-1.32813 -2.89063,-1.32813 -1.75,0 -2.90625,1.32813 -1.15625,1.3125 -1.15625,3.96875 z m 12.41869,0 q 0,-3.84375 2.125,-5.6875 1.781254,-1.54688 4.343754,-1.54688 2.85937,0 4.65625,1.875 1.8125,1.85938 1.8125,5.15625 0,2.67188 -0.79688,4.20313 -0.79687,1.53125 -2.32812,2.375 -1.53125,0.84375 -3.34375,0.84375 -2.89063,0 -4.687504,-1.85938 -1.78125,-1.85937 -1.78125,-5.35937 z m 2.40625,0 q 0,2.65625 1.156254,3.98437 1.15625,1.3125 2.90625,1.3125 1.75,0 2.90625,-1.32812 1.15625,-1.32813 1.15625,-4.04688 0,-2.5625 -1.17188,-3.89062 -1.15625,-1.32813 -2.89062,-1.32813 -1.75,0 -2.90625,1.32813 -1.156254,1.3125 -1.156254,3.96875 z m 13.231194,6.90625 v -19.07813 h 2.34375 v 19.07813 z m 14.15654,0 h -2.34375 v -14.92188 q -0.85938,0.79688 -2.23438,1.60938 -1.35937,0.79687 -2.45312,1.20312 v -2.26562 q 1.96875,-0.92188 3.4375,-2.23438 1.46875,-1.3125 2.07812,-2.54687 h 1.51563 z m 26.37152,-11.21875 H 140.9695 v -2.1875 h 12.59375 z m 0,5.79687 H 140.9695 v -2.1875 h 12.59375 z m 18.83217,5.42188 h -2.34375 v -14.92188 q -0.85938,0.79688 -2.23438,1.60938 -1.35937,0.79687 -2.45312,1.20312 v -2.26562 q 1.96875,-0.92188 3.4375,-2.23438 1.46875,-1.3125 2.07812,-2.54687 h 1.51563 z m 26.38714,-8.34375 -12.64062,5.40625 v -2.32813 l 10.01562,-4.15625 -10.01562,-4.10937 v -2.32813 l 12.64062,5.32813 z m 22.3009,6.09375 v 2.25 h -12.60937 q -0.0312,-0.84375 0.26562,-1.625 0.48438,-1.29688 1.54688,-2.54688 1.0625,-1.25 3.0625,-2.875 3.10937,-2.5625 4.20312,-4.04687 1.09375,-1.5 1.09375,-2.8125 0,-1.40625 -1,-2.35938 -0.98437,-0.95312 -2.59375,-0.95312 -1.6875,0 -2.70312,1.01562 -1.01563,1.01563 -1.03125,2.8125 l -2.40625,-0.25 q 0.25,-2.6875 1.85937,-4.09375 1.60938,-1.42187 4.32813,-1.42187 2.75,0 4.34375,1.53125 1.60937,1.51562 1.60937,3.76562 0,1.14063 -0.46875,2.25 -0.46875,1.10938 -1.5625,2.32813 -1.07812,1.21875 -3.60937,3.35937 -2.09375,1.76563 -2.70313,2.40625 -0.59375,0.625 -0.98437,1.26563 z"
     fill-rule="nonzero"
     id="path2971-2" />
  <path
     fill="#000000"
     d="m 70.848179,210.96288 h -2.17187 v -19.07813 h 2.34375 v 6.79688 q 1.48437,-1.85938 3.78125,-1.85938 1.28125,0 2.40625,0.51563 1.14062,0.51562 1.875,1.45312 0.75,0.92188 1.15625,2.25 0.42188,1.3125 0.42188,2.79688 0,3.5625 -1.76563,5.5 -1.75,1.9375 -4.21875,1.9375 -2.4375,0 -3.82813,-2.04688 z m -0.0312,-7.01563 q 0,2.48438 0.67188,3.59375 1.10937,1.8125 3,1.8125 1.53125,0 2.65625,-1.32812 1.125,-1.34375 1.125,-3.98438 0,-2.70312 -1.07813,-3.98437 -1.07812,-1.29688 -2.59375,-1.29688 -1.54687,0 -2.67187,1.32813 -1.10938,1.32812 -1.10938,3.85937 z m 11.82494,0.10938 q 0,-3.84375 2.125007,-5.6875 1.78125,-1.54688 4.34375,-1.54688 2.85937,0 4.65625,1.875 1.8125,1.85938 1.8125,5.15625 0,2.67188 -0.79688,4.20313 -0.79687,1.53125 -2.32812,2.375 -1.53125,0.84375 -3.34375,0.84375 -2.89062,0 -4.6875,-1.85938 -1.781257,-1.85937 -1.781257,-5.35937 z m 2.406257,0 q 0,2.65625 1.15625,3.98437 1.15625,1.3125 2.90625,1.3125 1.75,0 2.90625,-1.32812 1.15625,-1.32813 1.15625,-4.04688 0,-2.5625 -1.17188,-3.89062 -1.15625,-1.32813 -2.89062,-1.32813 -1.75,0 -2.90625,1.32813 -1.15625,1.3125 -1.15625,3.96875 z m 12.41869,0 q 0,-3.84375 2.125,-5.6875 1.781254,-1.54688 4.343754,-1.54688 2.85937,0 4.65625,1.875 1.8125,1.85938 1.8125,5.15625 0,2.67188 -0.79688,4.20313 -0.79687,1.53125 -2.32812,2.375 -1.53125,0.84375 -3.34375,0.84375 -2.89063,0 -4.687504,-1.85938 -1.78125,-1.85937 -1.78125,-5.35937 z m 2.40625,0 q 0,2.65625 1.156254,3.98437 1.15625,1.3125 2.90625,1.3125 1.75,0 2.90625,-1.32812 1.15625,-1.32813 1.15625,-4.04688 0,-2.5625 -1.17188,-3.89062 -1.15625,-1.32813 -2.89062,-1.32813 -1.75,0 -2.90625,1.32813 -1.156254,1.3125 -1.156254,3.96875 z m 13.231194,6.90625 v -19.07813 h 2.34375 v 19.07813 z m 17.6409,-2.25 v 2.25 h -12.60937 q -0.0312,-0.84375 0.26562,-1.625 0.48438,-1.29688 1.54688,-2.54688 1.0625,-1.25 3.0625,-2.875 3.10937,-2.5625 4.20312,-4.04687 1.09375,-1.5 1.09375,-2.8125 0,-1.40625 -1,-2.35938 -0.98437,-0.95312 -2.59375,-0.95312 -1.6875,0 -2.70312,1.01562 -1.01563,1.01563 -1.03125,2.8125 l -2.40625,-0.25 q 0.25,-2.6875 1.85937,-4.09375 1.60938,-1.42187 4.32813,-1.42187 2.75,0 4.34375,1.53125 1.60937,1.51562 1.60937,3.76562 0,1.14063 -0.46875,2.25 -0.46875,1.10938 -1.5625,2.32813 -1.07812,1.21875 -3.60937,3.35937 -2.09375,1.76563 -2.70313,2.40625 -0.59375,0.625 -0.98437,1.26563 z m 22.88715,-8.96875 h -12.5938 v -2.1875 h 12.59375 z m 0,5.79687 h -12.5938 v -2.1875 h 12.59375 z m 10.01967,0.39063 2.34375,-0.3125 q 0.39062,1.98437 1.35937,2.875 0.98438,0.875 2.375,0.875 1.64063,0 2.78125,-1.14063 1.14063,-1.15625 1.14063,-2.84375 0,-1.625 -1.0625,-2.67187 -1.04688,-1.04688 -2.67188,-1.04688 -0.65625,0 -1.65625,0.26563 l 0.26563,-2.0625 q 0.23437,0.0312 0.375,0.0312 1.5,0 2.6875,-0.78125 1.20312,-0.78125 1.20312,-2.40625 0,-1.29688 -0.875,-2.14063 -0.85937,-0.84375 -2.25,-0.84375 -1.35937,0 -2.28125,0.85938 -0.90625,0.85937 -1.15625,2.57812 l -2.34375,-0.42187 q 0.42188,-2.34375 1.9375,-3.64063 1.53125,-1.29687 3.79688,-1.29687 1.5625,0 2.875,0.67187 1.3125,0.67188 2,1.82813 0.70312,1.15625 0.70312,2.45312 0,1.23438 -0.67187,2.25 -0.65625,1.01563 -1.95313,1.625 1.6875,0.39063 2.625,1.625 0.9375,1.21875 0.9375,3.0625 0,2.5 -1.82812,4.25 -1.8125,1.73438 -4.59375,1.73438 -2.51563,0 -4.17188,-1.5 -1.65625,-1.5 -1.89062,-3.875 z m 27.77806,-6.1875 h -12.59375 v -2.1875 h 12.59375 z m 0,5.79687 h -12.59375 v -2.1875 h 12.59375 z m 15.56683,-5.79687 h -12.59375 v -2.1875 h 12.59375 z m 0,5.79687 h -12.59375 v -2.1875 h 12.59375 z m 2.61371,0.39063 2.34375,-0.3125 q 0.39062,1.98437 1.35937,2.875 0.98438,0.875 2.375,0.875 1.64063,0 2.78125,-1.14063 1.14063,-1.15625 1.14063,-2.84375 0,-1.625 -1.0625,-2.67187 -1.04688,-1.04688 -2.67188,-1.04688 -0.65625,0 -1.65625,0.26563 l 0.26563,-2.0625 q 0.23437,0.0312 0.375,0.0312 1.5,0 2.6875,-0.78125 1.20312,-0.78125 1.20312,-2.40625 0,-1.29688 -0.875,-2.14063 -0.85937,-0.84375 -2.25,-0.84375 -1.35937,0 -2.28125,0.85938 -0.90625,0.85937 -1.15625,2.57812 l -2.34375,-0.42187 q 0.42188,-2.34375 1.9375,-3.64063 1.53125,-1.29687 3.79688,-1.29687 1.5625,0 2.875,0.67187 1.3125,0.67188 2,1.82813 0.70312,1.15625 0.70312,2.45312 0,1.23438 -0.67187,2.25 -0.65625,1.01563 -1.95313,1.625 1.6875,0.39063 2.625,1.625 0.9375,1.21875 0.9375,3.0625 0,2.5 -1.82812,4.25 -1.8125,1.73438 -4.59375,1.73438 -2.51563,0 -4.17188,-1.5 -1.65625,-1.5 -1.89062,-3.875 z"
     fill-rule="nonzero"
     id="path3021-7" />
  <path
     fill="#000000"
     fill-opacity="0"
     d="m 147.42014,225.88253 v 34.01575"
     fill-rule="evenodd"
     id="path3083-8" />
  <path
     stroke="#000000"
     stroke-width="1"
     stroke-linejoin="round"
     stroke-linecap="butt"
     d="m 147.42014,225.88253 v 28.01575"
     fill-rule="evenodd"
     id="path3085-6" />
  <path
     fill="#000000"
     stroke="#000000"
     stroke-width="1"
     stroke-linecap="butt"
     d="m 145.76841,253.89828 1.65173,4.53809 1.65174,-4.53809 z"
     fill-rule="evenodd"
     id="path3087-5" />
  <path
     stroke="#000000"
     stroke-width="1.06846"
     stroke-linejoin="round"
     stroke-linecap="butt"
     d="m 40.150949,260.79266 v 46.51697 M -0.26180175,266.60729 H 323.04027"
     fill-rule="evenodd"
     id="path3011-6" />
</svg>
