<?xml version="1.0" encoding="UTF-8" standalone="no"?>
<svg
   xmlns:dc="http://purl.org/dc/elements/1.1/"
   xmlns:cc="http://creativecommons.org/ns#"
   xmlns:rdf="http://www.w3.org/1999/02/22-rdf-syntax-ns#"
   xmlns:svg="http://www.w3.org/2000/svg"
   xmlns="http://www.w3.org/2000/svg"
   xmlns:sodipodi="http://sodipodi.sourceforge.net/DTD/sodipodi-0.dtd"
   xmlns:inkscape="http://www.inkscape.org/namespaces/inkscape"
   version="1.1"
   viewBox="0 0 691.81757 464.10532"
   fill="none"
   stroke="none"
   stroke-linecap="square"
   stroke-miterlimit="10"
   id="svg3326"
   sodipodi:docname="Flowchart-string-concat.svg"
   width="691.81757"
   height="464.10532"
   inkscape:version="1.0.2-2 (e86c870879, 2021-01-15)">
  <metadata
     id="metadata3332">
    <rdf:RDF>
      <cc:Work
         rdf:about="">
        <dc:format>image/svg+xml</dc:format>
        <dc:type
           rdf:resource="http://purl.org/dc/dcmitype/StillImage" />
        <dc:title />
      </cc:Work>
    </rdf:RDF>
  </metadata>
  <defs
     id="defs3330" />
  <sodipodi:namedview
     pagecolor="#ffffff"
     bordercolor="#666666"
     borderopacity="1"
     objecttolerance="10"
     gridtolerance="10"
     guidetolerance="10"
     inkscape:pageopacity="0"
     inkscape:pageshadow="2"
     inkscape:window-width="1920"
     inkscape:window-height="1017"
     id="namedview3328"
     showgrid="false"
     fit-margin-top="0"
     fit-margin-left="0"
     fit-margin-right="0"
     fit-margin-bottom="0"
     inkscape:zoom="1.573941"
     inkscape:cx="323.11965"
     inkscape:cy="252.2585"
     inkscape:window-x="-8"
     inkscape:window-y="-8"
     inkscape:window-maximized="1"
     inkscape:current-layer="svg3326"
     inkscape:document-rotation="0" />
  <clipPath
     id="p.0">
    <path
       d="M 0,0 H 960 V 720 H 0 Z"
       clip-rule="nonzero"
       id="path3223" />
  </clipPath>
  <g
     clip-path="url(#p.0)"
     id="g3324"
     transform="translate(-16.656168,-11.0958)">
    <path
       fill="#000000"
       fill-opacity="0"
       d="M 0,0 H 960 V 720 H 0 Z"
       fill-rule="evenodd"
       id="path3226" />
    <path
       fill="#cfe2f3"
       d="m 127.83452,11.5958 h 82.58986 v 0 c 10.81949,0 19.59042,12.763481 19.59042,28.508032 0,15.744553 -8.77093,28.50803 -19.59042,28.50803 h -82.58986 v 0 c -10.81949,0 -19.59042,-12.763477 -19.59042,-28.50803 0,-15.744551 8.77093,-28.508032 19.59042,-28.508032 z"
       fill-rule="evenodd"
       id="path3228" />
    <path
       stroke="#000000"
       stroke-width="1"
       stroke-linejoin="round"
       stroke-linecap="butt"
       d="m 127.83452,11.5958 h 82.58986 v 0 c 10.81949,0 19.59042,12.763481 19.59042,28.508032 0,15.744553 -8.77093,28.50803 -19.59042,28.50803 h -82.58986 v 0 c -10.81949,0 -19.59042,-12.763477 -19.59042,-28.50803 0,-15.744551 8.77093,-28.508032 19.59042,-28.508032 z"
       fill-rule="evenodd"
       id="path3230" />
    <path
       fill="#000000"
       d="M 131.18805,49.70383 V 30.625705 h 6.5625 q 2.23437,0 3.40625,0.265625 1.64062,0.375 2.79687,1.375 1.5,1.265625 2.25,3.25 0.75,1.984375 0.75,4.546875 0,2.171875 -0.51562,3.859375 -0.5,1.671875 -1.29688,2.78125 -0.78125,1.09375 -1.73437,1.71875 -0.9375,0.625 -2.28125,0.953125 -1.32813,0.328125 -3.0625,0.328125 z m 2.51562,-2.25 h 4.07813 q 1.89062,0 2.95312,-0.34375 1.07813,-0.359375 1.71875,-1 0.89063,-0.890625 1.39063,-2.40625 0.51562,-1.515625 0.51562,-3.6875 0,-2.984375 -0.98437,-4.59375 -0.98438,-1.609375 -2.39063,-2.15625 -1.01562,-0.390625 -3.26562,-0.390625 h -4.01563 z m 25.89092,-2.203125 2.42187,0.296875 q -0.57812,2.125 -2.125,3.296875 -1.54687,1.171875 -3.95312,1.171875 -3.03125,0 -4.8125,-1.859375 -1.78125,-1.875 -1.78125,-5.25 0,-3.484375 1.79687,-5.40625 1.79688,-1.9375 4.67188,-1.9375 2.76562,0 4.51562,1.890625 1.76563,1.890625 1.76563,5.3125 0,0.203125 -0.0156,0.625 h -10.3125 q 0.14063,2.28125 1.29688,3.5 1.15625,1.203125 2.89062,1.203125 1.28125,0 2.1875,-0.671875 0.92188,-0.6875 1.45313,-2.171875 z m -7.6875,-3.78125 h 7.71875 q -0.15625,-1.75 -0.89063,-2.625 -1.125,-1.34375 -2.90625,-1.34375 -1.60937,0 -2.71875,1.078125 -1.09375,1.078125 -1.20312,2.890625 z m 2.51562,-7.3125 1.73438,-3.640625 h 3.0625 l -2.85938,3.640625 z m 10.52807,20.84375 v -19.125 h 2.14062 v 1.796875 q 0.75,-1.046875 1.70313,-1.578125 0.95312,-0.53125 2.3125,-0.53125 1.76562,0 3.10937,0.921875 1.35938,0.90625 2.04688,2.5625 0.6875,1.65625 0.6875,3.640625 0,2.125 -0.76563,3.828125 -0.75,1.6875 -2.20312,2.59375 -1.45313,0.90625 -3.04688,0.90625 -1.17187,0 -2.10937,-0.484375 -0.92188,-0.5 -1.53125,-1.265625 v 6.734375 z m 2.125,-12.125 q 0,2.65625 1.07812,3.9375 1.09375,1.28125 2.625,1.28125 1.5625,0 2.67188,-1.3125 1.10937,-1.328125 1.10937,-4.109375 0,-2.640625 -1.09375,-3.953125 -1.07812,-1.3125 -2.59375,-1.3125 -1.48437,0 -2.64062,1.40625 -1.15625,1.390625 -1.15625,4.0625 z m 21.73118,5.125 q -1.3125,1.109375 -2.51562,1.5625 -1.20313,0.453125 -2.57813,0.453125 -2.28125,0 -3.5,-1.109375 -1.21875,-1.109375 -1.21875,-2.84375 0,-1.015625 0.45313,-1.859375 0.46875,-0.84375 1.21875,-1.34375 0.75,-0.515625 1.6875,-0.765625 0.6875,-0.1875 2.07812,-0.359375 2.82813,-0.328125 4.17188,-0.796875 0.0156,-0.484375 0.0156,-0.625 0,-1.421875 -0.65625,-2.015625 -0.90625,-0.796875 -2.67187,-0.796875 -1.65625,0 -2.45313,0.59375 -0.78125,0.578125 -1.15625,2.046875 l -2.29687,-0.3125 q 0.3125,-1.46875 1.03125,-2.375 0.71875,-0.90625 2.0625,-1.390625 1.35937,-0.5 3.14062,-0.5 1.78125,0 2.875,0.421875 1.10938,0.421875 1.625,1.046875 0.53125,0.625 0.73438,1.59375 0.125,0.59375 0.125,2.15625 v 3.125 q 0,3.265625 0.14062,4.140625 0.15625,0.859375 0.59375,1.65625 h -2.4375 q -0.375,-0.734375 -0.46875,-1.703125 z m -0.20312,-5.234375 q -1.26563,0.515625 -3.82813,0.890625 -1.4375,0.203125 -2.04687,0.46875 -0.59375,0.25 -0.92188,0.75 -0.3125,0.5 -0.3125,1.125 0,0.9375 0.70313,1.5625 0.70312,0.625 2.07812,0.625 1.34375,0 2.39063,-0.59375 1.0625,-0.59375 1.5625,-1.625 0.375,-0.796875 0.375,-2.34375 z m 5.98118,6.9375 V 35.875705 h 2.10938 v 2.09375 q 0.79687,-1.46875 1.48437,-1.9375 0.6875,-0.46875 1.5,-0.46875 1.1875,0 2.40625,0.765625 l -0.79687,2.171875 q -0.85938,-0.515625 -1.71875,-0.515625 -0.76563,0 -1.39063,0.46875 -0.60937,0.453125 -0.85937,1.28125 -0.39063,1.25 -0.39063,2.734375 v 7.234375 z m 14.01737,-2.09375 0.32812,2.0625 q -0.98437,0.21875 -1.76562,0.21875 -1.26563,0 -1.96875,-0.40625 -0.70313,-0.40625 -1,-1.0625 -0.28125,-0.65625 -0.28125,-2.765625 V 37.70383 h -1.71875 v -1.828125 h 1.71875 V 32.45383 l 2.32812,-1.40625 v 4.828125 h 2.35938 v 1.828125 h -2.35938 v 8.078125 q 0,1 0.125,1.296875 0.125,0.28125 0.40625,0.453125 0.28125,0.171875 0.79688,0.171875 0.39062,0 1.03125,-0.09375 z"
       fill-rule="nonzero"
       id="path3232" />
    <path
       fill="#cfe2f3"
       d="m 145.53609,319.25461 h 89.14583 v 0 c 11.67835,0 21.14551,12.76349 21.14551,28.50806 0,15.74453 -9.46716,28.50802 -21.14551,28.50802 h -89.14583 v 0 c -11.67834,0 -21.14551,-12.76349 -21.14551,-28.50802 0,-15.74457 9.46717,-28.50806 21.14551,-28.50806 z"
       fill-rule="evenodd"
       id="path3234" />
    <path
       stroke="#000000"
       stroke-width="1"
       stroke-linejoin="round"
       stroke-linecap="butt"
       d="m 145.53609,319.25461 h 89.14583 v 0 c 11.67835,0 21.14551,12.76349 21.14551,28.50806 0,15.74453 -9.46716,28.50802 -21.14551,28.50802 h -89.14583 v 0 c -11.67834,0 -21.14551,-12.76349 -21.14551,-28.50802 0,-15.74457 9.46717,-28.50806 21.14551,-28.50806 z"
       fill-rule="evenodd"
       id="path3236" />
    <path
       fill="#000000"
       d="m 173.78161,357.36264 v -19.07812 h 12.875 v 2.25 h -10.34375 v 5.90625 h 8.95312 v 2.25 h -8.95312 v 8.67187 z m 15.86083,-16.39062 v -2.6875 h 2.34375 v 2.6875 z m 0,16.39062 v -13.82812 h 2.34375 v 13.82812 z m 5.90654,0 v -13.82812 h 2.10937 v 1.96875 q 1.53125,-2.28125 4.40625,-2.28125 1.25,0 2.29688,0.45312 1.04687,0.45313 1.5625,1.1875 0.53125,0.71875 0.73437,1.71875 0.125,0.65625 0.125,2.28125 v 8.5 h -2.34375 v -8.40625 q 0,-1.4375 -0.28125,-2.14062 -0.26562,-0.71875 -0.96875,-1.14063 -0.6875,-0.42187 -1.625,-0.42187 -1.48437,0 -2.57812,0.95312 -1.09375,0.95313 -1.09375,3.60938 v 7.54687 z"
       fill-rule="nonzero"
       id="path3238" />
    <path
       fill="#000000"
       fill-opacity="0"
       d="M 169.12946,68.61186 V 95.792967"
       fill-rule="evenodd"
       id="path3240" />
    <path
       stroke="#000000"
       stroke-width="1"
       stroke-linejoin="round"
       stroke-linecap="butt"
       d="M 169.12946,68.61186 V 89.792967"
       fill-rule="evenodd"
       id="path3242" />
    <path
       fill="#000000"
       stroke="#000000"
       stroke-width="1"
       stroke-linecap="butt"
       d="m 167.47772,89.79297 1.65173,4.538101 1.65174,-4.538101 z"
       fill-rule="evenodd"
       id="path3244" />
    <path
       fill="#000000"
       fill-opacity="0"
       d="m 169.12993,187.84908 v 27.18111"
       fill-rule="evenodd"
       id="path3246" />
    <path
       stroke="#000000"
       stroke-width="1"
       stroke-linejoin="round"
       stroke-linecap="butt"
       d="m 169.12993,187.84908 v 21.18111"
       fill-rule="evenodd"
       id="path3248" />
    <path
       fill="#000000"
       stroke="#000000"
       stroke-width="1"
       stroke-linecap="butt"
       d="m 167.4782,209.03018 1.65173,4.5381 1.65172,-4.5381 z"
       fill-rule="evenodd"
       id="path3250" />
    <path
       fill="#cfe2f3"
       d="m 65.71916,95.79265 h 248.37532 v 92.05774 H 65.71916 Z"
       fill-rule="evenodd"
       id="path3252" />
    <path
       fill="#000000"
       fill-opacity="0"
       d="m 96.766075,95.79265 v 92.05774 M 65.719162,107.29987 H 314.09448"
       fill-rule="evenodd"
       id="path3254" />
    <path
       fill="#000000"
       fill-opacity="0"
       d="m 65.71916,95.79265 h 248.37532 v 92.05774 H 65.71916 Z"
       fill-rule="evenodd"
       id="path3256" />
    <path
       stroke="#000000"
       stroke-width="1"
       stroke-linejoin="round"
       stroke-linecap="butt"
       d="m 96.766075,95.79265 v 92.05774 M 65.719162,107.29987 H 314.09448"
       fill-rule="evenodd"
       id="path3258" />
    <path
       stroke="#000000"
       stroke-width="1"
       stroke-linejoin="round"
       stroke-linecap="butt"
       d="m 65.71916,95.79265 h 248.37532 v 92.05774 H 65.71916 Z"
       fill-rule="evenodd"
       id="path3260" />
    <path
       fill="#000000"
       fill-opacity="0"
       d="m 375.9475,105.82153 h 298.62994 v 71.99999 H 375.9475 Z"
       fill-rule="evenodd"
       id="path3270" />
    <path
       stroke="#000000"
       stroke-width="1"
       stroke-linejoin="round"
       stroke-linecap="butt"
       stroke-dasharray="1, 3"
       d="m 375.9475,105.82153 h 298.62994 v 71.99999 H 375.9475 Z"
       fill-rule="evenodd"
       id="path3272" />
    <path
       fill="#000000"
       fill-opacity="0"
       d="m 375.9475,214.54855 h 298.62994 v 72 H 375.9475 Z"
       fill-rule="evenodd"
       id="path3276" />
    <path
       fill="#000000"
       fill-opacity="0"
       d="M 375.9475,250.54855 H 314.08922"
       fill-rule="evenodd"
       id="path3282" />
    <path
       fill="#000000"
       fill-opacity="0"
       d="M 375.9475,141.82152 H 314.08922"
       fill-rule="evenodd"
       id="path3288" />
    <path
       stroke="#000000"
       stroke-width="1"
       stroke-linejoin="round"
       stroke-linecap="butt"
       d="M 375.9475,141.82152 H 320.08922"
       fill-rule="evenodd"
       id="path3290" />
    <path
       fill="#000000"
       stroke="#000000"
       stroke-width="1"
       stroke-linecap="butt"
       d="m 320.08923,140.16978 -4.53809,1.65173 4.53809,1.65174 z"
       fill-rule="evenodd"
       id="path3292" />
    <path
       fill="#cfe2f3"
       d="M 18.807908,214.81628 H 361.41161 v 72 H 18.807908 Z"
       fill-rule="evenodd"
       id="path3294" />
    <path
       stroke="#000000"
       stroke-width="1"
       stroke-linejoin="round"
       stroke-linecap="butt"
       d="M 18.807908,214.81628 H 361.41161 v 72 H 18.807908 Z"
       fill-rule="evenodd"
       id="path3296" />
    <path
       fill="#000000"
       d="m 64.37381,258.32254 0.328125,2.0625 q -0.984375,0.21875 -1.765625,0.21875 -1.265625,0 -1.96875,-0.40625 -0.703125,-0.40625 -1,-1.0625 -0.28125,-0.65625 -0.28125,-2.76563 v -7.95312 h -1.71875 v -1.82813 h 1.71875 v -3.42187 l 2.328125,-1.40625 v 4.82812 h 2.359375 v 1.82813 h -2.359375 v 8.07812 q 0,1 0.125,1.29688 0.125,0.28125 0.40625,0.45312 0.28125,0.17188 0.796875,0.17188 0.390625,0 1.03125,-0.0937 z m 11.74971,-2.35938 2.421875,0.29688 q -0.578125,2.125 -2.125,3.29687 -1.546875,1.17188 -3.953125,1.17188 -3.03125,0 -4.8125,-1.85938 -1.78125,-1.875 -1.78125,-5.25 0,-3.48437 1.796875,-5.40625 1.796875,-1.9375 4.671875,-1.9375 2.765625,0 4.515625,1.89063 1.765625,1.89062 1.765625,5.3125 0,0.20312 -0.01563,0.625 h -10.3125 q 0.140625,2.28125 1.296875,3.5 1.15625,1.20312 2.890625,1.20312 1.28125,0 2.1875,-0.67187 0.921875,-0.6875 1.453125,-2.17188 z m -7.6875,-3.78125 h 7.71875 q -0.15625,-1.75 -0.890625,-2.625 -1.125,-1.34375 -2.90625,-1.34375 -1.609375,0 -2.71875,1.07813 -1.09375,1.07812 -1.203125,2.89062 z m 11.481186,8.23438 5.0625,-7.1875 -4.671875,-6.64063 h 2.921875 l 2.125,3.25 q 0.59375,0.92188 0.96875,1.54688 0.5625,-0.85938 1.046875,-1.53125 l 2.328125,-3.26563 h 2.796875 l -4.78125,6.51563 5.15625,7.3125 h -2.890625 l -2.828125,-4.29688 -0.75,-1.15625 -3.640625,5.45313 z m 20.015625,-2.09375 0.328129,2.0625 q -0.984379,0.21875 -1.765629,0.21875 -1.265625,0 -1.96875,-0.40625 -0.703125,-0.40625 -1,-1.0625 -0.28125,-0.65625 -0.28125,-2.76563 v -7.95312 h -1.71875 v -1.82813 h 1.71875 v -3.42187 l 2.328125,-1.40625 v 4.82812 h 2.359375 v 1.82813 h -2.359375 v 8.07812 q 0,1 0.125,1.29688 0.125,0.28125 0.40625,0.45312 0.28125,0.17188 0.796875,0.17188 0.390625,0 1.03125,-0.0937 z m 22.015049,-9.125 h -12.59375 v -2.1875 h 12.59375 z m 0,5.79687 h -12.59375 v -2.1875 h 12.59375 z m 15.76967,3.32813 0.32813,2.0625 q -0.98438,0.21875 -1.76563,0.21875 -1.26562,0 -1.96875,-0.40625 -0.70312,-0.40625 -1,-1.0625 -0.28125,-0.65625 -0.28125,-2.76563 v -7.95312 h -1.71875 v -1.82813 h 1.71875 v -3.42187 l 2.32813,-1.40625 v 4.82812 h 2.35937 v 1.82813 h -2.35937 v 8.07812 q 0,1 0.125,1.29688 0.125,0.28125 0.40625,0.45312 0.28125,0.17188 0.79687,0.17188 0.39063,0 1.03125,-0.0937 z m 11.74971,-2.35938 2.42188,0.29688 q -0.57813,2.125 -2.125,3.29687 -1.54688,1.17188 -3.95313,1.17188 -3.03125,0 -4.8125,-1.85938 -1.78125,-1.875 -1.78125,-5.25 0,-3.48437 1.79688,-5.40625 1.79687,-1.9375 4.67187,-1.9375 2.76563,0 4.51563,1.89063 1.76562,1.89062 1.76562,5.3125 0,0.20312 -0.0156,0.625 h -10.3125 q 0.14062,2.28125 1.29687,3.5 1.15625,1.20312 2.89063,1.20312 1.28125,0 2.1875,-0.67187 0.92187,-0.6875 1.45312,-2.17188 z m -7.6875,-3.78125 h 7.71875 q -0.15625,-1.75 -0.89062,-2.625 -1.125,-1.34375 -2.90625,-1.34375 -1.60938,0 -2.71875,1.07813 -1.09375,1.07812 -1.20313,2.89062 z m 11.48119,8.23438 5.0625,-7.1875 -4.67188,-6.64063 h 2.92188 l 2.125,3.25 q 0.59375,0.92188 0.96875,1.54688 0.5625,-0.85938 1.04687,-1.53125 l 2.32813,-3.26563 h 2.79687 l -4.78125,6.51563 5.15625,7.3125 h -2.89062 l -2.82813,-4.29688 -0.75,-1.15625 -3.64062,5.45313 z m 20.01562,-2.09375 0.32813,2.0625 q -0.98438,0.21875 -1.76563,0.21875 -1.26562,0 -1.96875,-0.40625 -0.70312,-0.40625 -1,-1.0625 -0.28125,-0.65625 -0.28125,-2.76563 v -7.95312 h -1.71875 v -1.82813 h 1.71875 v -3.42187 l 2.32813,-1.40625 v 4.82812 h 2.35937 v 1.82813 h -2.35937 v 8.07812 q 0,1 0.125,1.29688 0.125,0.28125 0.40625,0.45312 0.28125,0.17188 0.79687,0.17188 0.39063,0 1.03125,-0.0937 z m 14.6088,-0.98438 v -5.23437 h -5.1875 v -2.1875 h 5.1875 v -5.20313 h 2.21875 v 5.20313 h 5.1875 v 2.1875 h -5.1875 v 5.23437 z m 19.89467,-12.79687 v 2.71875 h -2.51563 v -2.15625 q 0,-1.73438 0.42188,-2.51563 0.54687,-1.04687 1.73437,-1.57812 l 0.5625,0.90625 q -0.71875,0.29687 -1.0625,0.89062 -0.32812,0.59375 -0.35937,1.73438 z m 4.03125,0 v 2.71875 h -2.51563 v -2.15625 q 0,-1.73438 0.42188,-2.51563 0.54687,-1.04687 1.73437,-1.57812 l 0.5625,0.90625 q -0.70312,0.29687 -1.04687,0.89062 -0.34375,0.59375 -0.375,1.73438 z m 2.95486,15.875 v -19.07813 h 2.34375 v 19.07813 z m 15.43779,-4.45313 2.42188,0.29688 q -0.57813,2.125 -2.125,3.29687 -1.54688,1.17188 -3.95313,1.17188 -3.03125,0 -4.8125,-1.85938 -1.78125,-1.875 -1.78125,-5.25 0,-3.48437 1.79688,-5.40625 1.79687,-1.9375 4.67187,-1.9375 2.76563,0 4.51563,1.89063 1.76562,1.89062 1.76562,5.3125 0,0.20312 -0.0156,0.625 h -10.3125 q 0.14062,2.28125 1.29687,3.5 1.15625,1.20312 2.89063,1.20312 1.28125,0 2.1875,-0.67187 0.92187,-0.6875 1.45312,-2.17188 z m -7.6875,-3.78125 h 7.71875 q -0.15625,-1.75 -0.89062,-2.625 -1.125,-1.34375 -2.90625,-1.34375 -1.60938,0 -2.71875,1.07813 -1.09375,1.07812 -1.20313,2.89062 z m 20.44965,8.23438 v -13.82813 h 2.10937 v 1.9375 q 0.64063,-1.01562 1.71875,-1.625 1.09375,-0.625 2.46875,-0.625 1.53125,0 2.51563,0.64063 0.98437,0.64062 1.39062,1.78125 1.64063,-2.42188 4.26563,-2.42188 2.06248,0 3.15623,1.14063 1.10938,1.14062 1.10938,3.51562 v 9.48438 h -2.32813 v -8.70313 q 0,-1.40625 -0.23437,-2.01562 -0.21875,-0.625 -0.82813,-1 -0.59375,-0.39063 -1.39061,-0.39063 -1.46875,0 -2.4375,0.96875 -0.95312,0.96875 -0.95312,3.10938 v 8.03125 h -2.34375 v -8.98438 q 0,-1.5625 -0.57813,-2.34375 -0.5625,-0.78125 -1.875,-0.78125 -0.98437,0 -1.82812,0.53125 -0.82813,0.51563 -1.21875,1.51563 -0.375,1 -0.375,2.89062 v 7.17188 z m 21.34547,-6.90625 q 0,-3.84375 2.125,-5.6875 1.78125,-1.54688 4.34375,-1.54688 2.85938,0 4.65625,1.875 1.8125,1.85938 1.8125,5.15625 0,2.67188 -0.79687,4.20313 -0.79688,1.53125 -2.32813,2.375 -1.53125,0.84375 -3.34375,0.84375 -2.89062,0 -4.6875,-1.85938 -1.78125,-1.85937 -1.78125,-5.35937 z m 2.40625,0 q 0,2.65625 1.15625,3.98437 1.15625,1.3125 2.90625,1.3125 1.75,0 2.90625,-1.32812 1.15625,-1.32813 1.15625,-4.04688 0,-2.5625 -1.17187,-3.89062 -1.15625,-1.32813 -2.89063,-1.32813 -1.75,0 -2.90625,1.32813 -1.15625,1.3125 -1.15625,3.96875 z m 13.27808,6.90625 v -13.82813 h 2.10937 v 1.96875 q 1.53125,-2.28125 4.40625,-2.28125 1.25,0 2.29688,0.45313 1.04687,0.45312 1.5625,1.1875 0.53125,0.71875 0.73437,1.71875 0.125,0.65625 0.125,2.28125 v 8.5 h -2.34375 v -8.40625 q 0,-1.4375 -0.28125,-2.14063 -0.26562,-0.71875 -0.96875,-1.14062 -0.6875,-0.42188 -1.625,-0.42188 -1.48437,0 -2.57812,0.95313 -1.09375,0.95312 -1.09375,3.60937 v 7.54688 z m 23.79367,0 v -1.75 q -1.3125,2.0625 -3.85938,2.0625 -1.65625,0 -3.04687,-0.90625 -1.375,-0.92188 -2.14063,-2.54688 -0.76562,-1.64062 -0.76562,-3.75 0,-2.07812 0.6875,-3.76562 0.70312,-1.6875 2.07812,-2.57813 1.375,-0.90625 3.07813,-0.90625 1.25,0 2.21875,0.53125 0.98437,0.53125 1.59375,1.375 v -6.84375 h 2.34375 v 19.07813 z m -7.40625,-6.89063 q 0,2.64063 1.125,3.96875 1.125,1.3125 2.64062,1.3125 1.53125,0 2.60938,-1.25 1.07812,-1.26562 1.07812,-3.84375 0,-2.84375 -1.09375,-4.17187 -1.09375,-1.32813 -2.70312,-1.32813 -1.54688,0 -2.60938,1.28125 -1.04687,1.28125 -1.04687,4.03125 z m 22.73117,2.4375 2.42187,0.29688 q -0.57812,2.125 -2.125,3.29687 -1.54687,1.17188 -3.95312,1.17188 -3.03125,0 -4.8125,-1.85938 -1.78125,-1.875 -1.78125,-5.25 0,-3.48437 1.79687,-5.40625 1.79688,-1.9375 4.67188,-1.9375 2.76562,0 4.51562,1.89063 1.76563,1.89062 1.76563,5.3125 0,0.20312 -0.0156,0.625 h -10.3125 q 0.14063,2.28125 1.29688,3.5 1.15625,1.20312 2.89062,1.20312 1.28125,0 2.1875,-0.67187 0.92188,-0.6875 1.45313,-2.17188 z m -7.6875,-3.78125 h 7.71875 q -0.15625,-1.75 -0.89063,-2.625 -1.125,-1.34375 -2.90625,-1.34375 -1.60937,0 -2.71875,1.07813 -1.09375,1.07812 -1.20312,2.89062 z"
       fill-rule="nonzero"
       id="path3298" />
    <path
       fill="#000000"
       fill-opacity="0"
       d="m 188.45801,286.54855 v 26.70868"
       fill-rule="evenodd"
       id="path3300" />
    <path
       fill="#000000"
       fill-opacity="0"
       d="m 188.45801,385.2467 v 32.44095"
       fill-rule="evenodd"
       id="path3306" />
    <path
       stroke="#000000"
       stroke-width="1"
       stroke-linejoin="round"
       stroke-linecap="butt"
       d="m 190.10975,286.81628 v 26.44095"
       fill-rule="evenodd"
       id="path3308" />
    <path
       fill="#000000"
       stroke="#000000"
       stroke-width="1"
       stroke-linecap="butt"
       d="m 188.45801,313.25723 1.65173,4.53812 1.65174,-4.53812 z"
       fill-rule="evenodd"
       id="path3310" />
    <path
       fill="#000000"
       fill-opacity="0"
       d="m 409.34384,313.2467 h 298.6299 v 72 h -298.6299 z"
       fill-rule="evenodd"
       id="path3312" />
    <path
       stroke="#000000"
       stroke-width="1"
       stroke-linejoin="round"
       stroke-linecap="butt"
       stroke-dasharray="1, 3"
       d="m 410.99558,214.81628 h 298.6299 v 72 h -298.6299 z"
       fill-rule="evenodd"
       id="path3314" />
    <path
       fill="#000000"
       d="m 435.66746,253.72878 2.53125,0.64062 q -0.79688,3.10938 -2.85938,4.75 -2.0625,1.625 -5.04687,1.625 -3.09375,0 -5.03125,-1.25 -1.92188,-1.26562 -2.9375,-3.64062 -1,-2.39063 -1,-5.125 0,-2.98438 1.14062,-5.20313 1.14063,-2.21875 3.23438,-3.35937 2.10937,-1.15625 4.625,-1.15625 2.875,0 4.82812,1.46875 1.95313,1.45312 2.71875,4.09375 l -2.48437,0.57812 q -0.67188,-2.07812 -1.9375,-3.03125 -1.25,-0.95312 -3.17188,-0.95312 -2.20312,0 -3.6875,1.0625 -1.46875,1.04687 -2.0625,2.82812 -0.59375,1.78125 -0.59375,3.65625 0,2.4375 0.70313,4.26563 0.70312,1.8125 2.20312,2.71875 1.5,0.89062 3.25,0.89062 2.10938,0 3.57813,-1.21875 1.48437,-1.23437 2,-3.64062 z m 4.46902,-0.21875 q 0,-3.84375 2.125,-5.6875 1.78125,-1.54688 4.34375,-1.54688 2.85938,0 4.65625,1.875 1.8125,1.85938 1.8125,5.15625 0,2.67188 -0.79687,4.20313 -0.79688,1.53125 -2.32813,2.375 -1.53125,0.84375 -3.34375,0.84375 -2.89062,0 -4.6875,-1.85938 -1.78125,-1.85937 -1.78125,-5.35937 z m 2.40625,0 q 0,2.65625 1.15625,3.98437 1.15625,1.3125 2.90625,1.3125 1.75,0 2.90625,-1.32812 1.15625,-1.32813 1.15625,-4.04688 0,-2.5625 -1.17187,-3.89062 -1.15625,-1.32813 -2.89063,-1.32813 -1.75,0 -2.90625,1.32813 -1.15625,1.3125 -1.15625,3.96875 z m 13.27808,6.90625 v -13.82813 h 2.10938 v 1.96875 q 1.53125,-2.28125 4.40625,-2.28125 1.25,0 2.29687,0.45313 1.04688,0.45312 1.5625,1.1875 0.53125,0.71875 0.73438,1.71875 0.125,0.65625 0.125,2.28125 v 8.5 h -2.34375 v -8.40625 q 0,-1.4375 -0.28125,-2.14063 -0.26563,-0.71875 -0.96875,-1.14062 -0.6875,-0.42188 -1.625,-0.42188 -1.48438,0 -2.57813,0.95313 -1.09375,0.95312 -1.09375,3.60937 v 7.54688 z m 23.85617,-5.0625 2.29688,0.29687 q -0.375,2.39063 -1.9375,3.73438 -1.54688,1.34375 -3.8125,1.34375 -2.84375,0 -4.5625,-1.84375 -1.71875,-1.85938 -1.71875,-5.32813 0,-2.23437 0.73437,-3.90625 0.75,-1.6875 2.26563,-2.53125 1.51562,-0.84375 3.29687,-0.84375 2.25,0 3.67188,1.14063 1.4375,1.14062 1.84375,3.23437 l -2.28125,0.35938 q -0.32813,-1.39063 -1.15625,-2.09375 -0.8125,-0.70313 -1.98438,-0.70313 -1.78125,0 -2.89062,1.26563 -1.09375,1.26562 -1.09375,4.01562 0,2.78125 1.0625,4.04688 1.0625,1.26562 2.78125,1.26562 1.39062,0 2.3125,-0.84375 0.92187,-0.85937 1.17187,-2.60937 z m 13.32813,3.35937 q -1.3125,1.10938 -2.51563,1.5625 -1.20312,0.45313 -2.57812,0.45313 -2.28125,0 -3.5,-1.10938 -1.21875,-1.10937 -1.21875,-2.84375 0,-1.01562 0.45312,-1.85937 0.46875,-0.84375 1.21875,-1.34375 0.75,-0.51563 1.6875,-0.76563 0.6875,-0.1875 2.07813,-0.35937 2.82812,-0.32813 4.17187,-0.79688 0.0156,-0.48437 0.0156,-0.625 0,-1.42187 -0.65625,-2.01562 -0.90625,-0.79688 -2.67188,-0.79688 -1.65625,0 -2.45312,0.59375 -0.78125,0.57813 -1.15625,2.04688 l -2.29688,-0.3125 q 0.3125,-1.46875 1.03125,-2.375 0.71875,-0.90625 2.0625,-1.39063 1.35938,-0.5 3.14063,-0.5 1.78125,0 2.875,0.42188 1.10937,0.42187 1.625,1.04687 0.53125,0.625 0.73437,1.59375 0.125,0.59375 0.125,2.15625 v 3.125 q 0,3.26563 0.14063,4.14063 0.15625,0.85937 0.59375,1.65625 h -2.4375 q -0.375,-0.73438 -0.46875,-1.70313 z m -0.20313,-5.23437 q -1.26562,0.51562 -3.82812,0.89062 -1.4375,0.20313 -2.04688,0.46875 -0.59375,0.25 -0.92187,0.75 -0.3125,0.5 -0.3125,1.125 0,0.9375 0.70312,1.5625 0.70313,0.625 2.07813,0.625 1.34375,0 2.39062,-0.59375 1.0625,-0.59375 1.5625,-1.625 0.375,-0.79687 0.375,-2.34375 z m 11.12183,4.84375 0.32812,2.0625 q -0.98437,0.21875 -1.76562,0.21875 -1.26563,0 -1.96875,-0.40625 -0.70313,-0.40625 -1,-1.0625 -0.28125,-0.65625 -0.28125,-2.76563 v -7.95312 h -1.71875 v -1.82813 h 1.71875 v -3.42187 l 2.32812,-1.40625 v 4.82812 h 2.35938 v 1.82813 h -2.35938 v 8.07812 q 0,1 0.125,1.29688 0.125,0.28125 0.40625,0.45312 0.28125,0.17188 0.79688,0.17188 0.39062,0 1.03125,-0.0937 z m 11.74972,-2.35938 2.42188,0.29688 q -0.57813,2.125 -2.125,3.29687 -1.54688,1.17188 -3.95316,1.17188 -3.03125,0 -4.8125,-1.85938 -1.78125,-1.875 -1.78125,-5.25 0,-3.48437 1.79688,-5.40625 1.79687,-1.9375 4.67187,-1.9375 2.76566,0 4.51566,1.89063 1.76562,1.89062 1.76562,5.3125 0,0.20312 -0.0156,0.625 H 507.8454 q 0.14062,2.28125 1.29687,3.5 1.15625,1.20312 2.89063,1.20312 1.28125,0 2.18753,-0.67187 0.92187,-0.6875 1.45312,-2.17188 z M 507.986,252.1819 h 7.71878 q -0.15625,-1.75 -0.89062,-2.625 -1.125,-1.34375 -2.90628,-1.34375 -1.60938,0 -2.71875,1.07813 -1.09375,1.07812 -1.20313,2.89062 z m 2.51563,-7.3125 1.73437,-3.64062 h 3.06253 l -2.8594,3.64062 z m 10.52804,15.54688 v -13.82813 h 2.10938 v 1.96875 q 1.53125,-2.28125 4.40625,-2.28125 1.25,0 2.29687,0.45313 1.04688,0.45312 1.5625,1.1875 0.53125,0.71875 0.73438,1.71875 0.125,0.65625 0.125,2.28125 v 8.5 h -2.34375 v -8.40625 q 0,-1.4375 -0.28125,-2.14063 -0.26563,-0.71875 -0.96875,-1.14062 -0.6875,-0.42188 -1.625,-0.42188 -1.48438,0 -2.57813,0.95313 -1.09375,0.95312 -1.09375,3.60937 v 7.54688 z m 23.8562,-1.70313 q -1.3125,1.10938 -2.51562,1.5625 -1.20313,0.45313 -2.57813,0.45313 -2.28125,0 -3.5,-1.10938 -1.21875,-1.10937 -1.21875,-2.84375 0,-1.01562 0.45313,-1.85937 0.46875,-0.84375 1.21875,-1.34375 0.75,-0.51563 1.6875,-0.76563 0.6875,-0.1875 2.07812,-0.35937 2.82813,-0.32813 4.17188,-0.79688 0.0156,-0.48437 0.0156,-0.625 0,-1.42187 -0.65625,-2.01562 -0.90625,-0.79688 -2.67187,-0.79688 -1.65625,0 -2.45313,0.59375 -0.78125,0.57813 -1.15625,2.04688 l -2.29687,-0.3125 q 0.3125,-1.46875 1.03125,-2.375 0.71875,-0.90625 2.0625,-1.39063 1.35937,-0.5 3.14062,-0.5 1.78125,0 2.875,0.42188 1.10938,0.42187 1.625,1.04687 0.53125,0.625 0.73438,1.59375 0.125,0.59375 0.125,2.15625 v 3.125 q 0,3.26563 0.14062,4.14063 0.15625,0.85937 0.59375,1.65625 h -2.4375 q -0.375,-0.73438 -0.46875,-1.70313 z m -0.20312,-5.23437 q -1.26563,0.51562 -3.82813,0.89062 -1.4375,0.20313 -2.04687,0.46875 -0.59375,0.25 -0.92188,0.75 -0.3125,0.5 -0.3125,1.125 0,0.9375 0.70313,1.5625 0.70312,0.625 2.07812,0.625 1.34375,0 2.39063,-0.59375 1.0625,-0.59375 1.5625,-1.625 0.375,-0.79687 0.375,-2.34375 z m 11.12182,4.84375 0.32813,2.0625 q -0.98438,0.21875 -1.76563,0.21875 -1.26562,0 -1.96875,-0.40625 -0.70312,-0.40625 -1,-1.0625 -0.28125,-0.65625 -0.28125,-2.76563 v -7.95312 h -1.71875 v -1.82813 h 1.71875 v -3.42187 l 2.32813,-1.40625 v 4.82812 h 2.35937 v 1.82813 h -2.35937 v 8.07812 q 0,1 0.125,1.29688 0.125,0.28125 0.40625,0.45312 0.28125,0.17188 0.79687,0.17188 0.39063,0 1.03125,-0.0937 z m 2.29657,-14.29688 v -2.6875 h 2.34375 v 2.6875 z m 0,16.39063 v -13.82813 h 2.34375 v 13.82813 z m 5.04718,-6.90625 q 0,-3.84375 2.125,-5.6875 1.78125,-1.54688 4.34375,-1.54688 2.85938,0 4.65625,1.875 1.8125,1.85938 1.8125,5.15625 0,2.67188 -0.79687,4.20313 -0.79688,1.53125 -2.32813,2.375 -1.53125,0.84375 -3.34375,0.84375 -2.89062,0 -4.6875,-1.85938 -1.78125,-1.85937 -1.78125,-5.35937 z m 2.40625,0 q 0,2.65625 1.15625,3.98437 1.15625,1.3125 2.90625,1.3125 1.75,0 2.90625,-1.32812 1.15625,-1.32813 1.15625,-4.04688 0,-2.5625 -1.17187,-3.89062 -1.15625,-1.32813 -2.89063,-1.32813 -1.75,0 -2.90625,1.32813 -1.15625,1.3125 -1.15625,3.96875 z m 13.27808,6.90625 v -13.82813 h 2.10938 v 1.96875 q 1.53125,-2.28125 4.40625,-2.28125 1.25,0 2.29687,0.45313 1.04688,0.45312 1.5625,1.1875 0.53125,0.71875 0.73438,1.71875 0.125,0.65625 0.125,2.28125 v 8.5 h -2.34375 v -8.40625 q 0,-1.4375 -0.28125,-2.14063 -0.26563,-0.71875 -0.96875,-1.14062 -0.6875,-0.42188 -1.625,-0.42188 -1.48438,0 -2.57813,0.95313 -1.09375,0.95312 -1.09375,3.60937 v 7.54688 z"
       fill-rule="nonzero"
       id="path3316" />
    <path
       fill="#000000"
       fill-opacity="0"
       d="m 409.34384,349.2467 h -49.5748"
       fill-rule="evenodd"
       id="path3318" />
    <path
       stroke="#000000"
       stroke-width="1"
       stroke-linejoin="round"
       stroke-linecap="butt"
       d="m 410.99558,250.81628 h -43.5748"
       fill-rule="evenodd"
       id="path3320" />
    <path
       fill="#000000"
       stroke="#000000"
       stroke-width="1"
       stroke-linecap="butt"
       d="m 367.42078,249.16458 -4.53812,1.6517 4.53812,1.65174 z"
       fill-rule="evenodd"
       id="path3322" />
  </g>
  <text
     xml:space="preserve"
     style="font-size:26.6667px;line-height:1.25;font-family:Calibri;-inkscape-font-specification:Calibri;fill:#000000;fill-opacity:1;stroke-width:0.999999"
     x="85.543182"
     y="146.51482"
     id="text12516"><tspan
       sodipodi:role="line"
       id="tspan12514"
       x="85.543182"
       y="146.51482"
       style="font-style:normal;font-variant:normal;font-weight:normal;font-stretch:normal;font-size:26.6667px;font-family:Arial;-inkscape-font-specification:Arial;fill:#000000;fill-opacity:1;stroke-width:0.999999">text = &quot;Bonjour&quot;</tspan></text>
  <text
     xml:space="preserve"
     style="font-size:26.6667px;line-height:1.25;font-family:Calibri;-inkscape-font-specification:Calibri;fill:#000000;fill-opacity:1;stroke-width:0.999999"
     x="370.09567"
     y="138.5264"
     id="text12516-2"><tspan
       sodipodi:role="line"
       id="tspan12514-6"
       x="370.09567"
       y="138.5264"
       style="font-style:normal;font-variant:normal;font-weight:normal;font-stretch:normal;font-size:26.6667px;font-family:Arial;-inkscape-font-specification:Arial;fill:#000000;fill-opacity:1;stroke-width:0.999999">Déclaration et definition</tspan></text>
</svg>
