<?xml version="1.0" encoding="UTF-8" standalone="no"?>
<svg
   xmlns:dc="http://purl.org/dc/elements/1.1/"
   xmlns:cc="http://creativecommons.org/ns#"
   xmlns:rdf="http://www.w3.org/1999/02/22-rdf-syntax-ns#"
   xmlns:svg="http://www.w3.org/2000/svg"
   xmlns="http://www.w3.org/2000/svg"
   xmlns:sodipodi="http://sodipodi.sourceforge.net/DTD/sodipodi-0.dtd"
   xmlns:inkscape="http://www.inkscape.org/namespaces/inkscape"
   version="1.1"
   viewBox="0 0 620.97241 368.36514"
   fill="none"
   stroke="none"
   stroke-linecap="square"
   stroke-miterlimit="10"
   id="svg5500"
   sodipodi:docname="flowchart-comment.svg"
   width="620.97241"
   height="368.36514"
   inkscape:version="1.0.2-2 (e86c870879, 2021-01-15)">
  <metadata
     id="metadata5506">
    <rdf:RDF>
      <cc:Work
         rdf:about="">
        <dc:format>image/svg+xml</dc:format>
        <dc:type
           rdf:resource="http://purl.org/dc/dcmitype/StillImage" />
        <dc:title></dc:title>
      </cc:Work>
    </rdf:RDF>
  </metadata>
  <defs
     id="defs5504" />
  <sodipodi:namedview
     pagecolor="#ffffff"
     bordercolor="#666666"
     borderopacity="1"
     objecttolerance="10"
     gridtolerance="10"
     guidetolerance="10"
     inkscape:pageopacity="0"
     inkscape:pageshadow="2"
     inkscape:window-width="1920"
     inkscape:window-height="1017"
     id="namedview5502"
     showgrid="false"
     fit-margin-top="0"
     fit-margin-left="0"
     fit-margin-right="0"
     fit-margin-bottom="0"
     inkscape:zoom="1.1425371"
     inkscape:cx="439.42777"
     inkscape:cy="245.80654"
     inkscape:window-x="-8"
     inkscape:window-y="-8"
     inkscape:window-maximized="1"
     inkscape:current-layer="svg5500" />
  <clipPath
     id="p.0">
    <path
       d="M 0,0 H 960 V 720 H 0 Z"
       clip-rule="nonzero"
       id="path5433" />
  </clipPath>
  <g
     clip-path="url(#p.0)"
     id="g5498"
     transform="translate(-40.572227,-9.1640415)">
    <path
       fill="#000000"
       fill-opacity="0"
       d="M 0,0 H 960 V 720 H 0 Z"
       fill-rule="evenodd"
       id="path5436" />
    <path
       fill="#cfe2f3"
       d="m 130.73216,9.6640415 h 82.58986 v 0 c 10.81949,0 19.59042,12.7634815 19.59042,28.5080315 0,15.744553 -8.77093,28.508034 -19.59042,28.508034 h -82.58986 v 0 c -10.8195,0 -19.59043,-12.763481 -19.59043,-28.508034 0,-15.744551 8.77093,-28.5080315 19.59043,-28.5080315 z"
       fill-rule="evenodd"
       id="path5438" />
    <path
       stroke="#000000"
       stroke-width="1"
       stroke-linejoin="round"
       stroke-linecap="butt"
       d="m 130.73216,9.6640415 h 82.58986 v 0 c 10.81949,0 19.59042,12.7634815 19.59042,28.5080315 0,15.744553 -8.77093,28.508034 -19.59042,28.508034 h -82.58986 v 0 c -10.8195,0 -19.59043,-12.763481 -19.59043,-28.508034 0,-15.744551 8.77093,-28.5080315 19.59043,-28.5080315 z"
       fill-rule="evenodd"
       id="path5440" />
    <path
       fill="#000000"
       d="M 134.0857,47.77207 V 28.693945 h 6.5625 q 2.23437,0 3.40625,0.265625 1.64062,0.375 2.79687,1.375 1.5,1.265625 2.25,3.25 0.75,1.984375 0.75,4.546875 0,2.171875 -0.51562,3.859375 -0.5,1.671875 -1.29688,2.78125 -0.78125,1.09375 -1.73437,1.71875 -0.9375,0.625 -2.28125,0.953125 -1.32813,0.328125 -3.0625,0.328125 z m 2.51562,-2.25 h 4.07813 q 1.89062,0 2.95312,-0.34375 1.07813,-0.359375 1.71875,-1 0.89063,-0.890625 1.39063,-2.40625 0.51562,-1.515625 0.51562,-3.6875 0,-2.984375 -0.98437,-4.59375 -0.98438,-1.609375 -2.39063,-2.15625 -1.01562,-0.390625 -3.26562,-0.390625 h -4.01563 z m 25.89092,-2.203125 2.42187,0.296875 q -0.57812,2.125 -2.125,3.296875 -1.54687,1.171875 -3.95312,1.171875 -3.03125,0 -4.8125,-1.859375 -1.78125,-1.875 -1.78125,-5.25 0,-3.484375 1.79687,-5.40625 1.79688,-1.9375 4.67188,-1.9375 2.76562,0 4.51562,1.890625 1.76563,1.890625 1.76563,5.3125 0,0.203125 -0.0156,0.625 h -10.3125 q 0.14063,2.28125 1.29688,3.5 1.15625,1.203125 2.89062,1.203125 1.28125,0 2.1875,-0.671875 0.92188,-0.6875 1.45313,-2.171875 z m -7.6875,-3.78125 h 7.71875 q -0.15625,-1.75 -0.89063,-2.625 -1.125,-1.34375 -2.90625,-1.34375 -1.60937,0 -2.71875,1.078125 -1.09375,1.078125 -1.20312,2.890625 z m 2.51562,-7.3125 1.73438,-3.640625 h 3.0625 l -2.85938,3.640625 z m 10.52807,20.84375 v -19.125 h 2.14062 v 1.796875 q 0.75,-1.046875 1.70313,-1.578125 0.95312,-0.53125 2.3125,-0.53125 1.76562,0 3.10937,0.921875 1.35938,0.90625 2.04688,2.5625 0.6875,1.65625 0.6875,3.640625 0,2.125 -0.76563,3.828125 -0.75,1.6875 -2.20312,2.59375 -1.45313,0.90625 -3.04688,0.90625 -1.17187,0 -2.10937,-0.484375 -0.92188,-0.5 -1.53125,-1.265625 v 6.734375 z m 2.125,-12.125 q 0,2.65625 1.07812,3.9375 1.09375,1.28125 2.625,1.28125 1.5625,0 2.67188,-1.3125 1.10937,-1.328125 1.10937,-4.109375 0,-2.640625 -1.09375,-3.953125 -1.07812,-1.3125 -2.59375,-1.3125 -1.48437,0 -2.64062,1.40625 -1.15625,1.390625 -1.15625,4.0625 z m 21.73118,5.125 q -1.3125,1.109375 -2.51562,1.5625 -1.20313,0.453125 -2.57813,0.453125 -2.28125,0 -3.5,-1.109375 -1.21875,-1.109375 -1.21875,-2.84375 0,-1.015625 0.45313,-1.859375 0.46875,-0.84375 1.21875,-1.34375 0.75,-0.515625 1.6875,-0.765625 0.6875,-0.1875 2.07812,-0.359375 2.82813,-0.328125 4.17188,-0.796875 0.0156,-0.484375 0.0156,-0.625 0,-1.421875 -0.65625,-2.015625 -0.90625,-0.796875 -2.67187,-0.796875 -1.65625,0 -2.45313,0.59375 -0.78125,0.578125 -1.15625,2.046875 l -2.29687,-0.3125 q 0.3125,-1.46875 1.03125,-2.375 0.71875,-0.90625 2.0625,-1.390625 1.35937,-0.5 3.14062,-0.5 1.78125,0 2.875,0.421875 1.10938,0.421875 1.625,1.046875 0.53125,0.625 0.73438,1.59375 0.125,0.59375 0.125,2.15625 v 3.125 q 0,3.265625 0.14062,4.140625 0.15625,0.859375 0.59375,1.65625 h -2.4375 q -0.375,-0.734375 -0.46875,-1.703125 z m -0.20312,-5.234375 q -1.26563,0.515625 -3.82813,0.890625 -1.4375,0.203125 -2.04687,0.46875 -0.59375,0.25 -0.92188,0.75 -0.3125,0.5 -0.3125,1.125 0,0.9375 0.70313,1.5625 0.70312,0.625 2.07812,0.625 1.34375,0 2.39063,-0.59375 1.0625,-0.59375 1.5625,-1.625 0.375,-0.796875 0.375,-2.34375 z m 5.98118,6.9375 V 33.943945 h 2.10938 v 2.09375 q 0.79687,-1.46875 1.48437,-1.9375 0.6875,-0.46875 1.5,-0.46875 1.1875,0 2.40625,0.765625 l -0.79687,2.171875 q -0.85938,-0.515625 -1.71875,-0.515625 -0.76563,0 -1.39063,0.46875 -0.60937,0.453125 -0.85937,1.28125 -0.39063,1.25 -0.39063,2.734375 v 7.234375 z m 14.01737,-2.09375 0.32812,2.0625 q -0.98437,0.21875 -1.76562,0.21875 -1.26563,0 -1.96875,-0.40625 -0.70313,-0.40625 -1,-1.0625 -0.28125,-0.65625 -0.28125,-2.765625 V 35.77207 h -1.71875 v -1.828125 h 1.71875 V 30.52207 l 2.32812,-1.40625 v 4.828125 h 2.35938 v 1.828125 h -2.35938 v 8.078125 q 0,1 0.125,1.296875 0.125,0.28125 0.40625,0.453125 0.28125,0.171875 0.79688,0.171875 0.39062,0 1.03125,-0.09375 z"
       fill-rule="nonzero"
       id="path5442" />
    <path
       fill="#cfe2f3"
       d="m 127.45654,320.01312 h 89.14581 v 0 c 11.67835,0 21.14553,12.76349 21.14553,28.50803 0,15.74456 -9.46718,28.50802 -21.14553,28.50802 h -89.14582 v 0 c -11.67834,0 -21.14551,-12.76346 -21.14551,-28.50802 0,-15.74454 9.46717,-28.50803 21.14552,-28.50803 z"
       fill-rule="evenodd"
       id="path5444" />
    <path
       stroke="#000000"
       stroke-width="1"
       stroke-linejoin="round"
       stroke-linecap="butt"
       d="m 127.45654,320.01312 h 89.14581 v 0 c 11.67835,0 21.14553,12.76349 21.14553,28.50803 0,15.74456 -9.46718,28.50802 -21.14553,28.50802 h -89.14582 v 0 c -11.67834,0 -21.14551,-12.76346 -21.14551,-28.50802 0,-15.74454 9.46717,-28.50803 21.14552,-28.50803 z"
       fill-rule="evenodd"
       id="path5446" />
    <path
       fill="#000000"
       d="m 155.70204,358.12115 v -19.07813 h 12.875 v 2.25 h -10.34375 v 5.90625 h 8.95312 v 2.25 h -8.95312 v 8.67188 z m 15.86083,-16.39063 v -2.6875 h 2.34375 v 2.6875 z m 0,16.39063 v -13.82813 h 2.34375 v 13.82813 z m 5.90655,0 v -13.82813 h 2.10938 v 1.96875 q 1.53125,-2.28125 4.40625,-2.28125 1.25,0 2.29687,0.45313 1.04688,0.45312 1.5625,1.1875 0.53125,0.71875 0.73438,1.71875 0.125,0.65625 0.125,2.28125 v 8.5 h -2.34375 v -8.40625 q 0,-1.4375 -0.28125,-2.14063 -0.26563,-0.71875 -0.96875,-1.14062 -0.6875,-0.42188 -1.625,-0.42188 -1.48438,0 -2.57813,0.95313 -1.09375,0.95312 -1.09375,3.60937 v 7.54688 z"
       fill-rule="nonzero"
       id="path5448" />
    <path
       fill="#000000"
       fill-opacity="0"
       d="M 172.02708,66.68011 V 93.861209"
       fill-rule="evenodd"
       id="path5450" />
    <path
       stroke="#000000"
       stroke-width="1"
       stroke-linejoin="round"
       stroke-linecap="butt"
       d="M 172.02708,66.6801 V 87.861214"
       fill-rule="evenodd"
       id="path5452" />
    <path
       fill="#000000"
       stroke="#000000"
       stroke-width="1"
       stroke-linecap="butt"
       d="m 170.37535,87.86121 1.65173,4.538094 1.65174,-4.538094 z"
       fill-rule="evenodd"
       id="path5454" />
    <path
       fill="#000000"
       fill-opacity="0"
       d="m 172.02756,185.91733 v 27.18109"
       fill-rule="evenodd"
       id="path5456" />
    <path
       stroke="#000000"
       stroke-width="1"
       stroke-linejoin="round"
       stroke-linecap="butt"
       d="m 172.02756,185.91733 v 21.18109"
       fill-rule="evenodd"
       id="path5458" />
    <path
       fill="#000000"
       stroke="#000000"
       stroke-width="1"
       stroke-linecap="butt"
       d="m 170.37582,207.09842 1.65173,4.5381 1.65174,-4.5381 z"
       fill-rule="evenodd"
       id="path5460" />
    <path
       fill="#cfe2f3"
       d="M 41.07349,185.91733 93.455116,93.85958 H 302.98164 l -52.38163,92.05775 z"
       fill-rule="evenodd"
       id="path5462" />
    <path
       stroke="#000000"
       stroke-width="1"
       stroke-linejoin="round"
       stroke-linecap="butt"
       d="M 41.07349,185.91733 93.455116,93.85958 H 302.98164 l -52.38163,92.05775 z"
       fill-rule="evenodd"
       id="path5464" />
    <path
       fill="#000000"
       d="m 104.45512,119.20845 v -18.125 h 13.10937 v 2.14063 h -10.70312 v 5.54687 h 10.03125 v 2.125 h -10.03125 v 6.17188 h 11.125 v 2.14062 z m 16.56554,0 v -13.14062 h 2 v 1.875 q 1.45312,-2.17188 4.1875,-2.17188 1.1875,0 2.17188,0.4375 1,0.42188 1.48437,1.125 0.5,0.6875 0.70313,1.64063 0.125,0.60937 0.125,2.15625 v 8.07812 h -2.23438 v -7.98437 q 0,-1.35938 -0.26562,-2.03125 -0.25,-0.6875 -0.90625,-1.07813 -0.65626,-0.40625 -1.54688,-0.40625 -1.42188,0 -2.46875,0.90625 -1.03125,0.89063 -1.03125,3.42188 v 7.17187 z m 18.94568,-1.98437 0.3125,1.95312 q -0.9375,0.20313 -1.67187,0.20313 -1.21875,0 -1.89063,-0.375 -0.65625,-0.39063 -0.9375,-1.01563 -0.26562,-0.625 -0.26562,-2.625 v -7.5625 h -1.64063 v -1.73437 h 1.64063 v -3.25 l 2.21875,-1.32813 v 4.57813 h 2.23437 v 1.73437 h -2.23437 v 7.6875 q 0,0.95313 0.10937,1.23438 0.125,0.26562 0.39063,0.42187 0.26562,0.15625 0.75,0.15625 0.375,0 0.98437,-0.0781 z m 2.14635,1.98437 v -13.14062 h 2 v 2 q 0.78125,-1.40625 1.42187,-1.84375 0.65625,-0.45313 1.4375,-0.45313 1.125,0 2.28125,0.71875 l -0.76562,2.07813 q -0.8125,-0.48438 -1.64063,-0.48438 -0.71875,0 -1.3125,0.4375 -0.57812,0.4375 -0.82812,1.21875 -0.35938,1.1875 -0.35938,2.59375 v 6.875 z m 17.45009,-4.23437 2.29687,0.29687 q -0.53125,2.01563 -2.01562,3.125 -1.46875,1.10938 -3.75,1.10938 -2.89063,0 -4.57813,-1.76563 -1.6875,-1.78125 -1.6875,-4.98437 0,-3.3125 1.70313,-5.14063 1.71875,-1.84375 4.4375,-1.84375 2.64062,0 4.29687,1.79688 1.67188,1.79687 1.67188,5.04687 0,0.20313 -0.0156,0.59375 h -9.78125 q 0.10938,2.17188 1.20313,3.32813 1.10937,1.14062 2.76562,1.14062 1.21875,0 2.07813,-0.64062 0.875,-0.64063 1.375,-2.0625 z m -7.3125,-3.59375 h 7.34375 q -0.15625,-1.65625 -0.84375,-2.48438 -1.0625,-1.28125 -2.75,-1.28125 -1.54688,0 -2.59375,1.03125 -1.03125,1.01563 -1.15625,2.73438 z m 11.24255,7.82812 v -1.8125 l 8.35938,-9.59375 q -1.42188,0.0781 -2.51563,0.0781 h -5.35937 v -1.8125 h 10.73437 v 1.48437 l -7.10937,8.32813 -1.375,1.51562 q 1.5,-0.10937 2.8125,-0.10937 h 6.07812 v 1.92187 z m 20.82604,0 v -18.125 h 2.21875 v 18.125 z m 14.23648,-1.625 q -1.23438,1.0625 -2.375,1.5 -1.14063,0.42188 -2.45313,0.42188 -2.17187,0 -3.32812,-1.04688 -1.15625,-1.0625 -1.15625,-2.71875 0,-0.95312 0.4375,-1.75 0.4375,-0.79687 1.14062,-1.28125 0.71875,-0.48437 1.60938,-0.73437 0.65625,-0.17188 1.96875,-0.32813 2.70312,-0.32812 3.96875,-0.76562 0.0156,-0.46875 0.0156,-0.59375 0,-1.35938 -0.625,-1.90625 -0.85937,-0.76563 -2.53125,-0.76563 -1.57812,0 -2.32812,0.5625 -0.75,0.54688 -1.10938,1.9375 l -2.17187,-0.29687 q 0.29687,-1.39063 0.96875,-2.25 0.6875,-0.85938 1.96875,-1.32813 1.29687,-0.46875 2.98437,-0.46875 1.6875,0 2.73438,0.40625 1.04687,0.39063 1.54687,1 0.5,0.59375 0.6875,1.5 0.125,0.57813 0.125,2.0625 v 2.96875 q 0,3.09375 0.14063,3.92188 0.14062,0.82812 0.5625,1.57812 h -2.32813 q -0.34375,-0.6875 -0.45312,-1.625 z m -0.1875,-4.96875 q -1.20313,0.5 -3.625,0.84375 -1.375,0.20313 -1.95313,0.45313 -0.5625,0.23437 -0.875,0.71875 -0.29687,0.46875 -0.29687,1.04687 0,0.89063 0.67187,1.48438 0.67188,0.59375 1.96875,0.59375 1.28125,0 2.28125,-0.5625 1,-0.5625 1.48438,-1.53125 0.34375,-0.75 0.34375,-2.23438 z"
       fill-rule="nonzero"
       id="path5466" />
    <path
       fill="#000000"
       d="m 107.76762,149.20845 -4.98438,-13.14063 h 2.34375 l 2.8125,7.875 q 0.46875,1.26563 0.84375,2.64063 0.29688,-1.03125 0.82813,-2.5 l 2.92187,-8.01563 h 2.29688 l -4.98438,13.14063 z m 17.58594,-1.625 q -1.23438,1.0625 -2.375,1.5 -1.14063,0.42187 -2.45313,0.42187 -2.17187,0 -3.32812,-1.04687 -1.15625,-1.0625 -1.15625,-2.71875 0,-0.95313 0.4375,-1.75 0.4375,-0.79688 1.14062,-1.28125 0.71875,-0.48438 1.60938,-0.73438 0.65625,-0.17187 1.96875,-0.32812 2.70312,-0.32813 3.96875,-0.76563 0.0156,-0.46875 0.0156,-0.59375 0,-1.35937 -0.625,-1.90625 -0.85937,-0.76562 -2.53125,-0.76562 -1.57812,0 -2.32812,0.5625 -0.75,0.54687 -1.10938,1.9375 l -2.17187,-0.29688 q 0.29687,-1.39062 0.96875,-2.25 0.6875,-0.85937 1.96875,-1.32812 1.29687,-0.46875 2.98437,-0.46875 1.6875,0 2.73438,0.40625 1.04687,0.39062 1.54687,1 0.5,0.59375 0.6875,1.5 0.125,0.57812 0.125,2.0625 v 2.96875 q 0,3.09375 0.14063,3.92187 0.14062,0.82813 0.56251,1.57813 h -2.32814 q -0.34375,-0.6875 -0.45312,-1.625 z m -0.1875,-4.96875 q -1.20313,0.5 -3.625,0.84375 -1.375,0.20312 -1.95313,0.45312 -0.5625,0.23438 -0.875,0.71875 -0.29687,0.46875 -0.29687,1.04688 0,0.89062 0.67187,1.48437 0.67188,0.59375 1.96875,0.59375 1.28125,0 2.28125,-0.5625 1,-0.5625 1.48438,-1.53125 0.34375,-0.75 0.34375,-2.23437 z m 5.66443,6.59375 v -18.125 h 2.21875 v 18.125 z m 14.65836,-4.23438 2.29688,0.29688 q -0.53125,2.01562 -2.01563,3.125 -1.46875,1.10937 -3.75,1.10937 -2.89062,0 -4.57812,-1.76562 -1.6875,-1.78125 -1.6875,-4.98438 0,-3.3125 1.70312,-5.14062 1.71875,-1.84375 4.4375,-1.84375 2.64063,0 4.29688,1.79687 1.67187,1.79688 1.67187,5.04688 0,0.20312 -0.0156,0.59375 H 138.067 q 0.10937,2.17187 1.20312,3.32812 1.10938,1.14063 2.76563,1.14063 1.21875,0 2.07812,-0.64063 0.875,-0.64062 1.375,-2.0625 z m -7.3125,-3.59375 h 7.34375 q -0.15625,-1.65625 -0.84375,-2.48437 -1.0625,-1.28125 -2.75,-1.28125 -1.54687,0 -2.59375,1.03125 -1.03125,1.01562 -1.15625,2.73437 z m 21.0238,7.82813 v -1.92188 q -1.53125,2.21875 -4.17187,2.21875 -1.15625,0 -2.17188,-0.4375 -1,-0.45312 -1.5,-1.125 -0.48437,-0.67187 -0.6875,-1.65625 -0.125,-0.65625 -0.125,-2.07812 v -8.14063 h 2.21875 v 7.29688 q 0,1.73437 0.14063,2.34375 0.20312,0.875 0.875,1.375 0.6875,0.5 1.6875,0.5 1.01562,0 1.89062,-0.5 0.875,-0.51563 1.23438,-1.40625 0.375,-0.89063 0.375,-2.5625 v -7.04688 h 2.21875 v 13.14063 z m 5.44568,0 v -13.14063 h 2 v 2 q 0.78125,-1.40625 1.42188,-1.84375 0.65625,-0.45312 1.4375,-0.45312 1.125,0 2.28125,0.71875 l -0.76563,2.07812 q -0.8125,-0.48437 -1.64062,-0.48437 -0.71875,0 -1.3125,0.4375 -0.57813,0.4375 -0.82813,1.21875 -0.35937,1.1875 -0.35937,2.59375 v 6.875 z m 24.01831,0 v -1.65625 q -1.25,1.95312 -3.67187,1.95312 -1.5625,0 -2.89063,-0.85937 -1.3125,-0.875 -2.04687,-2.42188 -0.71875,-1.54687 -0.71875,-3.5625 0,-1.96875 0.65625,-3.5625 0.65625,-1.60937 1.96875,-2.46875 1.3125,-0.85937 2.9375,-0.85937 1.1875,0 2.10937,0.51562 0.9375,0.5 1.51563,1.29688 v -6.5 h 2.20312 v 18.125 z m -7.03125,-6.54688 q 0,2.51563 1.0625,3.76563 1.0625,1.25 2.51563,1.25 1.45312,0 2.46875,-1.1875 1.03125,-1.20313 1.03125,-3.65625 0,-2.6875 -1.04688,-3.95313 -1.03125,-1.26562 -2.5625,-1.26562 -1.48437,0 -2.48437,1.21875 -0.98438,1.20312 -0.98438,3.82812 z m 21.58631,2.3125 2.29687,0.29688 q -0.53125,2.01562 -2.01562,3.125 -1.46875,1.10937 -3.75,1.10937 -2.89063,0 -4.57813,-1.76562 -1.6875,-1.78125 -1.6875,-4.98438 0,-3.3125 1.70313,-5.14062 1.71875,-1.84375 4.4375,-1.84375 2.64062,0 4.29687,1.79687 1.67188,1.79688 1.67188,5.04688 0,0.20312 -0.0156,0.59375 h -9.78125 q 0.10938,2.17187 1.20313,3.32812 1.10937,1.14063 2.76562,1.14063 1.21875,0 2.07813,-0.64063 0.875,-0.64062 1.375,-2.0625 z m -7.3125,-3.59375 h 7.34375 q -0.15625,-1.65625 -0.84375,-2.48437 -1.0625,-1.28125 -2.75,-1.28125 -1.54688,0 -2.59375,1.03125 -1.03125,1.01562 -1.15625,2.73437 z"
       fill-rule="nonzero"
       id="path5468" />
    <path
       fill="#000000"
       d="m 104.12699,179.20845 v -13.14063 h 2 v 1.875 q 1.45313,-2.17187 4.1875,-2.17187 1.1875,0 2.17188,0.4375 1,0.42187 1.48437,1.125 0.5,0.6875 0.70313,1.64062 0.125,0.60938 0.125,2.15625 v 8.07813 h -2.23438 v -7.98438 q 0,-1.35937 -0.26562,-2.03125 -0.25,-0.6875 -0.90625,-1.07812 -0.65625,-0.40625 -1.54688,-0.40625 -1.42187,0 -2.46875,0.90625 -1.03125,0.89062 -1.03125,3.42187 v 7.17188 z m 13.25818,-6.5625 q 0,-3.65625 2.03125,-5.40625 1.6875,-1.46875 4.125,-1.46875 2.70312,0 4.42187,1.78125 1.71876,1.78125 1.71876,4.90625 0,2.53125 -0.76562,3.98437 -0.75,1.45313 -2.20314,2.26563 -1.45312,0.79687 -3.17187,0.79687 -2.76563,0 -4.46875,-1.76562 -1.6875,-1.76563 -1.6875,-5.09375 z m 2.28125,0 q 0,2.51562 1.09375,3.78125 1.10937,1.25 2.78125,1.25 1.65625,0 2.75,-1.26563 1.10937,-1.26562 1.10937,-3.84375 0,-2.4375 -1.10937,-3.6875 -1.10938,-1.26562 -2.75,-1.26562 -1.67188,0 -2.78125,1.25 -1.09375,1.25 -1.09375,3.78125 z m 12.63319,6.5625 v -13.14063 h 1.98437 v 1.84375 q 0.625,-0.95312 1.64063,-1.54687 1.03125,-0.59375 2.34375,-0.59375 1.46875,0 2.39062,0.60937 0.9375,0.60938 1.32813,1.70313 1.54687,-2.3125 4.04687,-2.3125 1.95313,0 3,1.09375 1.0625,1.07812 1.0625,3.32812 v 9.01563 h -2.21875 v -8.28125 q 0,-1.32813 -0.21875,-1.90625 -0.21875,-0.59375 -0.78125,-0.95313 -0.5625,-0.35937 -1.32812,-0.35937 -1.39063,0 -2.3125,0.92187 -0.90625,0.92188 -0.90625,2.95313 v 7.625 h -2.23438 v -8.53125 q 0,-1.48438 -0.54687,-2.21875 -0.53125,-0.75 -1.78125,-0.75 -0.9375,0 -1.73438,0.5 -0.79687,0.48437 -1.15625,1.4375 -0.35937,0.95312 -0.35937,2.75 v 6.8125 z m 23.1454,0 h -2.0625 v -18.125 h 2.23437 v 6.46875 q 1.40625,-1.78125 3.59375,-1.78125 1.20313,0 2.28125,0.5 1.09375,0.48437 1.78125,1.375 0.70313,0.875 1.09375,2.125 0.40625,1.25 0.40625,2.67187 0,3.375 -1.67187,5.21875 -1.67188,1.84375 -4,1.84375 -2.32813,0 -3.65625,-1.9375 z m -0.0156,-6.67188 q 0,2.375 0.64063,3.42188 1.04687,1.71875 2.84375,1.71875 1.45312,0 2.51562,-1.26563 1.0625,-1.26562 1.0625,-3.78125 0,-2.57812 -1.01562,-3.79687 -1.01563,-1.21875 -2.46875,-1.21875 -1.45313,0 -2.51563,1.26562 -1.0625,1.26563 -1.0625,3.65625 z m 12.02381,6.67188 v -13.14063 h 2 v 2 q 0.78125,-1.40625 1.42187,-1.84375 0.65625,-0.45312 1.4375,-0.45312 1.125,0 2.28125,0.71875 l -0.76562,2.07812 q -0.8125,-0.48437 -1.64063,-0.48437 -0.71875,0 -1.3125,0.4375 -0.57812,0.4375 -0.82812,1.21875 -0.35938,1.1875 -0.35938,2.59375 v 6.875 z m 17.45008,-4.23438 2.29688,0.29688 q -0.53125,2.01562 -2.01563,3.125 -1.46875,1.10937 -3.75,1.10937 -2.89062,0 -4.57812,-1.76562 -1.6875,-1.78125 -1.6875,-4.98438 0,-3.3125 1.70312,-5.14062 1.71875,-1.84375 4.4375,-1.84375 2.64063,0 4.29688,1.79687 1.67187,1.79688 1.67187,5.04688 0,0.20312 -0.0156,0.59375 h -9.78125 q 0.10937,2.17187 1.20312,3.32812 1.10938,1.14063 2.76563,1.14063 1.21875,0 2.07812,-0.64063 0.875,-0.64062 1.375,-2.0625 z m -7.3125,-3.59375 h 7.34375 q -0.15625,-1.65625 -0.84375,-2.48437 -1.0625,-1.28125 -2.75,-1.28125 -1.54687,0 -2.59375,1.03125 -1.03125,1.01562 -1.15625,2.73437 z m 16.3505,7.82813 6.95312,-18.125 h 2.59375 l 7.42188,18.125 h -2.73438 l -2.125,-5.48438 h -7.57812 l -1.98438,5.48438 z m 5.21875,-7.4375 h 6.15625 l -1.89063,-5.03125 q -0.875,-2.28125 -1.29687,-3.75 -0.34375,1.73437 -0.96875,3.45312 z"
       fill-rule="nonzero"
       id="path5470" />
    <path
       fill="#cfe2f3"
       d="M 41.072178,284.6168 93.453804,213.09974 H 302.98032 L 250.5987,284.6168 Z"
       fill-rule="evenodd"
       id="path5472" />
    <path
       stroke="#000000"
       stroke-width="1"
       stroke-linejoin="round"
       stroke-linecap="butt"
       d="M 41.072178,284.6168 93.453804,213.09974 H 302.98032 L 250.5987,284.6168 Z"
       fill-rule="evenodd"
       id="path5474" />
    <path
       fill="#000000"
       d="m 102.42255,258.17825 6.95313,-18.12499 h 2.59375 l 7.42187,18.12499 h -2.73437 l -2.125,-5.48436 h -7.57813 l -1.98437,5.48436 z m 5.21875,-7.43748 h 6.15625 l -1.89062,-5.03125 q -0.875,-2.28125 -1.29688,-3.75 -0.34375,1.73437 -0.96875,3.45312 z m 13.90929,7.43748 v -11.40624 h -1.96875 v -1.73437 h 1.96875 v -1.39063 q 0,-1.32812 0.23438,-1.96875 0.32812,-0.85937 1.125,-1.39062 0.8125,-0.54688 2.28125,-0.54688 0.9375,0 2.07812,0.21875 l -0.34375,1.9375 q -0.6875,-0.125 -1.3125,-0.125 -1.01562,0 -1.4375,0.4375 -0.40625,0.4375 -0.40625,1.625 v 1.20313 h 2.54688 v 1.73437 h -2.54688 v 11.40624 z m 6.57929,0 v -11.40624 h -1.96875 v -1.73437 h 1.96875 v -1.39063 q 0,-1.32812 0.23438,-1.96875 0.32812,-0.85937 1.125,-1.39062 0.8125,-0.54688 2.28125,-0.54688 0.9375,0 2.07812,0.21875 l -0.34375,1.9375 q -0.6875,-0.125 -1.3125,-0.125 -1.01562,0 -1.4375,0.4375 -0.40625,0.4375 -0.40625,1.625 v 1.20313 h 2.54688 v 1.73437 h -2.54688 v 11.40624 z m 6.52135,-15.57811 v -2.54688 h 2.21875 v 2.54688 z m 0,15.57811 v -13.14061 h 2.21875 v 13.14061 z m 14.17398,-4.81248 2.1875,0.28125 q -0.34375,2.26562 -1.82812,3.54685 -1.48438,1.28125 -3.625,1.28125 -2.70313,0 -4.34375,-1.76562 -1.64063,-1.76561 -1.64063,-5.04686 0,-2.125 0.70313,-3.71875 0.71875,-1.59375 2.15625,-2.39062 1.4375,-0.8125 3.125,-0.8125 2.14062,0 3.5,1.09375 1.35937,1.07812 1.75,3.0625 l -2.17188,0.34375 q -0.29687,-1.32813 -1.09375,-1.98438 -0.78125,-0.67187 -1.89062,-0.67187 -1.6875,0 -2.73438,1.20312 -1.04687,1.20313 -1.04687,3.8125 0,2.64063 1.01562,3.84375 1.01563,1.20311 2.64063,1.20311 1.3125,0 2.1875,-0.79686 0.875,-0.8125 1.10937,-2.48437 z m 4.10156,4.81248 v -18.12499 h 2.21875 v 6.5 q 1.5625,-1.8125 3.9375,-1.8125 1.45313,0 2.53125,0.57813 1.07813,0.57812 1.54688,1.59375 0.46875,1.01562 0.46875,2.9375 v 8.32811 h -2.23438 v -8.32811 q 0,-1.67188 -0.73437,-2.42188 -0.71875,-0.76562 -2.03125,-0.76562 -1,0 -1.875,0.51562 -0.85938,0.51563 -1.23438,1.39063 -0.375,0.875 -0.375,2.42187 v 7.18749 z m 23.07068,-4.23436 2.29688,0.29688 q -0.53125,2.0156 -2.01563,3.12498 -1.46875,1.10937 -3.75,1.10937 -2.89062,0 -4.57812,-1.76562 -1.6875,-1.78123 -1.6875,-4.98436 0,-3.3125 1.70312,-5.14062 1.71875,-1.84375 4.4375,-1.84375 2.64063,0 4.29688,1.79687 1.67187,1.79688 1.67187,5.04688 0,0.20312 -0.0156,0.59375 h -9.78125 q 0.10937,2.17187 1.20312,3.32812 1.10938,1.14061 2.76563,1.14061 1.21875,0 2.07812,-0.64063 0.875,-0.6406 1.375,-2.06248 z m -7.3125,-3.59375 h 7.34375 q -0.15625,-1.65625 -0.84375,-2.48437 -1.0625,-1.28125 -2.75,-1.28125 -1.54687,0 -2.59375,1.03125 -1.03125,1.01562 -1.15625,2.73437 z m 12.38318,7.82811 v -13.14061 h 2 v 2 q 0.78125,-1.40625 1.42188,-1.84375 0.65625,-0.45313 1.4375,-0.45313 1.125,0 2.28125,0.71875 l -0.76563,2.07813 q -0.8125,-0.48438 -1.64062,-0.48438 -0.71875,0 -1.3125,0.4375 -0.57813,0.4375 -0.82813,1.21875 -0.35937,1.1875 -0.35937,2.59375 v 6.87499 z m 12.40178,0 6.95313,-18.12499 h 2.59375 l 7.42187,18.12499 h -2.73437 l -2.125,-5.48436 h -7.57813 l -1.98437,5.48436 z m 5.21875,-7.43748 h 6.15625 l -1.89062,-5.03125 q -0.875,-2.28125 -1.29688,-3.75 -0.34375,1.73437 -0.96875,3.45312 z"
       fill-rule="nonzero"
       id="path5476" />
    <path
       fill="#000000"
       fill-opacity="0"
       d="m 172.02625,284.6168 v 35.40158"
       fill-rule="evenodd"
       id="path5478" />
    <path
       stroke="#000000"
       stroke-width="1"
       stroke-linejoin="round"
       stroke-linecap="butt"
       d="m 172.02625,284.6168 v 29.40158"
       fill-rule="evenodd"
       id="path5480" />
    <path
       fill="#000000"
       stroke="#000000"
       stroke-width="1"
       stroke-linecap="butt"
       d="m 170.37451,314.01837 1.65173,4.53809 1.65174,-4.53809 z"
       fill-rule="evenodd"
       id="path5482" />
    <path
       fill="#000000"
       fill-opacity="0"
       d="m 355.6483,204.82677 h 305.39633 v 88.063 H 355.6483 Z"
       fill-rule="evenodd"
       id="path5484" />
    <path
       stroke="#000000"
       stroke-width="1"
       stroke-linejoin="round"
       stroke-linecap="butt"
       stroke-dasharray="1, 3"
       d="m 355.6483,204.82677 h 305.39633 v 88.063 H 355.6483 Z"
       fill-rule="evenodd"
       id="path5486" />
    <path
       fill="#000000"
       d="m 364.61703,242.45827 7.3125,-19.07813 h 2.73437 l 7.79688,19.07813 h -2.875 l -2.21875,-5.78125 h -7.98438 l -2.09375,5.78125 z m 5.5,-7.82813 h 6.46875 l -2,-5.29687 q -0.90625,-2.40625 -1.34375,-3.95313 -0.375,1.84375 -1.03125,3.64063 z m 14.62326,7.82813 v -12 h -2.0625 v -1.82813 h 2.0625 v -1.46875 q 0,-1.39062 0.25,-2.0625 0.34375,-0.92187 1.1875,-1.48437 0.85938,-0.5625 2.39063,-0.5625 0.98437,0 2.1875,0.23437 l -0.34375,2.04688 q -0.73438,-0.14063 -1.39063,-0.14063 -1.0625,0 -1.51562,0.46875 -0.4375,0.45313 -0.4375,1.70313 v 1.26562 h 2.70312 v 1.82813 h -2.70312 v 12 z m 6.92419,0 v -12 h -2.0625 v -1.82813 h 2.0625 v -1.46875 q 0,-1.39062 0.25,-2.0625 0.34375,-0.92187 1.1875,-1.48437 0.85938,-0.5625 2.39063,-0.5625 0.98437,0 2.1875,0.23437 l -0.34375,2.04688 q -0.73438,-0.14063 -1.39063,-0.14063 -1.0625,0 -1.51562,0.46875 -0.4375,0.45313 -0.4375,1.70313 v 1.26562 h 2.70312 v 1.82813 h -2.70312 v 12 z m 6.85911,-16.39063 v -2.6875 h 2.34375 v 2.6875 z m 0,16.39063 v -13.82813 h 2.34375 v 13.82813 z m 14.93777,-5.0625 2.29688,0.29687 q -0.375,2.39063 -1.9375,3.73438 -1.54688,1.34375 -3.8125,1.34375 -2.84375,0 -4.5625,-1.84375 -1.71875,-1.85938 -1.71875,-5.32813 0,-2.23437 0.73437,-3.90625 0.75,-1.6875 2.26563,-2.53125 1.51562,-0.84375 3.29687,-0.84375 2.25,0 3.67188,1.14063 1.4375,1.14062 1.84375,3.23437 l -2.28125,0.35938 q -0.32813,-1.39063 -1.15625,-2.09375 -0.8125,-0.70313 -1.98438,-0.70313 -1.78125,0 -2.89062,1.26563 -1.09375,1.26562 -1.09375,4.01562 0,2.78125 1.0625,4.04688 1.0625,1.26562 2.78125,1.26562 1.39062,0 2.3125,-0.84375 0.92187,-0.85937 1.17187,-2.60937 z m 4.29688,5.0625 v -19.07813 h 2.34375 v 6.84375 q 1.64062,-1.90625 4.14062,-1.90625 1.54688,0 2.67188,0.60938 1.14062,0.60937 1.625,1.67187 0.48437,1.0625 0.48437,3.09375 v 8.76563 h -2.34375 v -8.76563 q 0,-1.75 -0.76562,-2.54687 -0.75,-0.8125 -2.15625,-0.8125 -1.03125,0 -1.95313,0.54687 -0.92187,0.54688 -1.3125,1.46875 -0.39062,0.92188 -0.39062,2.54688 v 7.5625 z m 24.2937,-4.45313 2.42187,0.29688 q -0.57812,2.125 -2.125,3.29687 -1.54687,1.17188 -3.95312,1.17188 -3.03125,0 -4.8125,-1.85938 -1.78125,-1.875 -1.78125,-5.25 0,-3.48437 1.79687,-5.40625 1.79688,-1.9375 4.67188,-1.9375 2.76562,0 4.51562,1.89063 1.76563,1.89062 1.76563,5.3125 0,0.20312 -0.0156,0.625 h -10.3125 q 0.14063,2.28125 1.29688,3.5 1.15625,1.20312 2.89062,1.20312 1.28125,0 2.1875,-0.67187 0.92188,-0.6875 1.45313,-2.17188 z m -7.6875,-3.78125 h 7.71875 q -0.15625,-1.75 -0.89063,-2.625 -1.125,-1.34375 -2.90625,-1.34375 -1.60937,0 -2.71875,1.07813 -1.09375,1.07812 -1.20312,2.89062 z m 20.40277,8.23438 v -19.07813 h 2.34375 v 19.07813 z m 15.00027,-1.70313 q -1.3125,1.10938 -2.51562,1.5625 -1.20313,0.45313 -2.57813,0.45313 -2.28125,0 -3.5,-1.10938 -1.21875,-1.10937 -1.21875,-2.84375 0,-1.01562 0.45313,-1.85937 0.46875,-0.84375 1.21875,-1.34375 0.75,-0.51563 1.6875,-0.76563 0.6875,-0.1875 2.07812,-0.35937 2.82813,-0.32813 4.17188,-0.79688 0.0156,-0.48437 0.0156,-0.625 0,-1.42187 -0.65625,-2.01562 -0.90625,-0.79688 -2.67187,-0.79688 -1.65625,0 -2.45313,0.59375 -0.78125,0.57813 -1.15625,2.04688 l -2.29687,-0.3125 q 0.3125,-1.46875 1.03125,-2.375 0.71875,-0.90625 2.0625,-1.39063 1.35937,-0.5 3.14062,-0.5 1.78125,0 2.875,0.42188 1.10938,0.42187 1.625,1.04687 0.53125,0.625 0.73438,1.59375 0.125,0.59375 0.125,2.15625 v 3.125 q 0,3.26563 0.14062,4.14063 0.15625,0.85937 0.59375,1.65625 h -2.4375 q -0.375,-0.73438 -0.46875,-1.70313 z m -0.20312,-5.23437 q -1.26563,0.51562 -3.82813,0.89062 -1.4375,0.20313 -2.04687,0.46875 -0.59375,0.25 -0.92188,0.75 -0.3125,0.5 -0.3125,1.125 0,0.9375 0.70313,1.5625 0.70312,0.625 2.07812,0.625 1.34375,0 2.39063,-0.59375 1.0625,-0.59375 1.5625,-1.625 0.375,-0.79687 0.375,-2.34375 z m 17.24652,6.9375 -5.25,-13.82813 h 2.46875 l 2.96875,8.28125 q 0.48437,1.34375 0.89062,2.78125 0.29688,-1.09375 0.85938,-2.625 l 3.07812,-8.4375 h 2.40625 l -5.23437,13.82813 z m 18.51562,-1.70313 q -1.3125,1.10938 -2.51562,1.5625 -1.20313,0.45313 -2.57813,0.45313 -2.28125,0 -3.5,-1.10938 -1.21875,-1.10937 -1.21875,-2.84375 0,-1.01562 0.45313,-1.85937 0.46875,-0.84375 1.21875,-1.34375 0.75,-0.51563 1.6875,-0.76563 0.6875,-0.1875 2.07812,-0.35937 2.82813,-0.32813 4.17188,-0.79688 0.0156,-0.48437 0.0156,-0.625 0,-1.42187 -0.65625,-2.01562 -0.90625,-0.79688 -2.67187,-0.79688 -1.65625,0 -2.45313,0.59375 -0.78125,0.57813 -1.15625,2.04688 l -2.29687,-0.3125 q 0.3125,-1.46875 1.03125,-2.375 0.71875,-0.90625 2.0625,-1.39063 1.35937,-0.5 3.14062,-0.5 1.78125,0 2.875,0.42188 1.10938,0.42187 1.625,1.04687 0.53125,0.625 0.73438,1.59375 0.125,0.59375 0.125,2.15625 v 3.125 q 0,3.26563 0.14062,4.14063 0.15625,0.85937 0.59375,1.65625 h -2.4375 q -0.375,-0.73438 -0.46875,-1.70313 z m -0.20312,-5.23437 q -1.26563,0.51562 -3.82813,0.89062 -1.4375,0.20313 -2.04687,0.46875 -0.59375,0.25 -0.92188,0.75 -0.3125,0.5 -0.3125,1.125 0,0.9375 0.70313,1.5625 0.70312,0.625 2.07812,0.625 1.34375,0 2.39063,-0.59375 1.0625,-0.59375 1.5625,-1.625 0.375,-0.79687 0.375,-2.34375 z m 5.94995,6.9375 v -19.07813 h 2.34372 v 19.07813 z m 15.43777,-4.45313 2.42188,0.29688 q -0.57813,2.125 -2.125,3.29687 -1.54688,1.17188 -3.95313,1.17188 -3.03125,0 -4.8125,-1.85938 -1.78125,-1.875 -1.78125,-5.25 0,-3.48437 1.79688,-5.40625 1.79687,-1.9375 4.67187,-1.9375 2.76563,0 4.51563,1.89063 1.76562,1.89062 1.76562,5.3125 0,0.20312 -0.0156,0.625 H 518.683 q 0.14062,2.28125 1.29687,3.5 1.15625,1.20312 2.89063,1.20312 1.28125,0 2.1875,-0.67187 0.92187,-0.6875 1.45312,-2.17188 z m -7.6875,-3.78125 h 7.71875 q -0.15625,-1.75 -0.89062,-2.625 -1.125,-1.34375 -2.90625,-1.34375 -1.60938,0 -2.71875,1.07813 -1.09375,1.07812 -1.20313,2.89062 z m 22.10621,8.23438 v -2.03125 q -1.60938,2.34375 -4.375,2.34375 -1.23438,0 -2.29688,-0.46875 -1.0625,-0.46875 -1.57812,-1.17188 -0.5,-0.71875 -0.71875,-1.75 -0.14063,-0.6875 -0.14063,-2.1875 v -8.5625 h 2.34375 v 7.67188 q 0,1.82812 0.14063,2.46875 0.21875,0.92187 0.9375,1.45312 0.71875,0.53125 1.76562,0.53125 1.0625,0 1.98438,-0.53125 0.92187,-0.54687 1.29687,-1.46875 0.39063,-0.9375 0.39063,-2.71875 v -7.40625 h 2.34375 v 13.82813 z m 5.74682,0 v -13.82813 h 2.10938 v 2.09375 q 0.79687,-1.46875 1.48437,-1.9375 0.6875,-0.46875 1.5,-0.46875 1.1875,0 2.40625,0.76563 l -0.79687,2.17187 q -0.85938,-0.51562 -1.71875,-0.51562 -0.76563,0 -1.39063,0.46875 -0.60937,0.45312 -0.85937,1.28125 -0.39063,1.25 -0.39063,2.73437 v 7.23438 z m 25.26703,0 v -1.75 q -1.3125,2.0625 -3.85937,2.0625 -1.65625,0 -3.04688,-0.90625 -1.375,-0.92188 -2.14062,-2.54688 -0.76563,-1.64062 -0.76563,-3.75 0,-2.07812 0.6875,-3.76562 0.70313,-1.6875 2.07813,-2.57813 1.375,-0.90625 3.07812,-0.90625 1.25,0 2.21875,0.53125 0.98438,0.53125 1.59375,1.375 v -6.84375 h 2.34375 v 19.07813 z m -7.40625,-6.89063 q 0,2.64063 1.125,3.96875 1.125,1.3125 2.64063,1.3125 1.53125,0 2.60937,-1.25 1.07813,-1.26562 1.07813,-3.84375 0,-2.84375 -1.09375,-4.17187 -1.09375,-1.32813 -2.70313,-1.32813 -1.54687,0 -2.60937,1.28125 -1.04688,1.28125 -1.04688,4.03125 z m 22.7312,2.4375 2.42188,0.29688 q -0.57813,2.125 -2.125,3.29687 -1.54688,1.17188 -3.95313,1.17188 -3.03125,0 -4.8125,-1.85938 -1.78125,-1.875 -1.78125,-5.25 0,-3.48437 1.79688,-5.40625 1.79687,-1.9375 4.67187,-1.9375 2.76563,0 4.51563,1.89063 1.76562,1.89062 1.76562,5.3125 0,0.20312 -0.0156,0.625 h -10.3125 q 0.14062,2.28125 1.29687,3.5 1.15625,1.20312 2.89063,1.20312 1.28125,0 2.1875,-0.67187 0.92187,-0.6875 1.45312,-2.17188 z m -7.6875,-3.78125 h 7.71875 q -0.15625,-1.75 -0.89062,-2.625 -1.125,-1.34375 -2.90625,-1.34375 -1.60938,0 -2.71875,1.07813 -1.09375,1.07812 -1.20313,2.89062 z m 20.40277,8.23438 v -19.07813 h 2.34375 v 19.07813 z m 15.00031,-1.70313 q -1.3125,1.10938 -2.51563,1.5625 -1.20312,0.45313 -2.57812,0.45313 -2.28125,0 -3.5,-1.10938 -1.21875,-1.10937 -1.21875,-2.84375 0,-1.01562 0.45312,-1.85937 0.46875,-0.84375 1.21875,-1.34375 0.75,-0.51563 1.6875,-0.76563 0.6875,-0.1875 2.07813,-0.35937 2.82812,-0.32813 4.17187,-0.79688 0.0156,-0.48437 0.0156,-0.625 0,-1.42187 -0.65625,-2.01562 -0.90625,-0.79688 -2.67188,-0.79688 -1.65625,0 -2.45312,0.59375 -0.78125,0.57813 -1.15625,2.04688 l -2.29688,-0.3125 q 0.3125,-1.46875 1.03125,-2.375 0.71875,-0.90625 2.0625,-1.39063 1.35938,-0.5 3.14063,-0.5 1.78125,0 2.875,0.42188 1.10937,0.42187 1.625,1.04687 0.53125,0.625 0.73437,1.59375 0.125,0.59375 0.125,2.15625 v 3.125 q 0,3.26563 0.14063,4.14063 0.15625,0.85937 0.59375,1.65625 h -2.4375 q -0.375,-0.73438 -0.46875,-1.70313 z m -0.20313,-5.23437 q -1.26562,0.51562 -3.82812,0.89062 -1.4375,0.20313 -2.04688,0.46875 -0.59375,0.25 -0.92187,0.75 -0.3125,0.5 -0.3125,1.125 0,0.9375 0.70312,1.5625 0.70313,0.625 2.07813,0.625 1.34375,0 2.39062,-0.59375 1.0625,-0.59375 1.5625,-1.625 0.375,-0.79687 0.375,-2.34375 z"
       fill-rule="nonzero"
       id="path5488" />
    <path
       fill="#000000"
       d="m 370.24203,274.45825 -5.25,-13.82812 h 2.46875 l 2.96875,8.28125 q 0.48437,1.34375 0.89062,2.78125 0.29688,-1.09375 0.85938,-2.625 l 3.07812,-8.4375 h 2.40625 l -5.23437,13.82812 z m 18.51562,-1.70312 q -1.3125,1.10937 -2.51562,1.5625 -1.20313,0.45312 -2.57813,0.45312 -2.28125,0 -3.5,-1.10937 -1.21875,-1.10938 -1.21875,-2.84375 0,-1.01563 0.45313,-1.85938 0.46875,-0.84375 1.21875,-1.34375 0.75,-0.51562 1.6875,-0.76562 0.6875,-0.1875 2.07812,-0.35938 2.82813,-0.32812 4.17188,-0.79687 0.0156,-0.48438 0.0156,-0.625 0,-1.42188 -0.65625,-2.01563 -0.90625,-0.79687 -2.67187,-0.79687 -1.65625,0 -2.45313,0.59375 -0.78125,0.57812 -1.15625,2.04687 l -2.29687,-0.3125 q 0.3125,-1.46875 1.03125,-2.375 0.71875,-0.90625 2.0625,-1.39062 1.35937,-0.5 3.14062,-0.5 1.78125,0 2.875,0.42187 1.10938,0.42188 1.625,1.04688 0.53125,0.625 0.73438,1.59375 0.125,0.59375 0.125,2.15625 v 3.125 q 0,3.26562 0.14062,4.14062 0.15625,0.85938 0.59375,1.65625 h -2.4375 q -0.375,-0.73437 -0.46875,-1.70312 z m -0.20312,-5.23438 q -1.26563,0.51563 -3.82813,0.89063 -1.4375,0.20312 -2.04687,0.46875 -0.59375,0.25 -0.92188,0.75 -0.3125,0.5 -0.3125,1.125 0,0.9375 0.70313,1.5625 0.70312,0.625 2.07812,0.625 1.34375,0 2.39063,-0.59375 1.0625,-0.59375 1.5625,-1.625 0.375,-0.79688 0.375,-2.34375 z m 5.9812,6.9375 v -13.82812 h 2.10938 v 2.09375 q 0.79687,-1.46875 1.48437,-1.9375 0.6875,-0.46875 1.5,-0.46875 1.1875,0 2.40625,0.76562 l -0.79687,2.17188 q -0.85938,-0.51563 -1.71875,-0.51563 -0.76563,0 -1.39063,0.46875 -0.60937,0.45313 -0.85937,1.28125 -0.39063,1.25 -0.39063,2.73438 v 7.23437 z m 8.90799,-16.39062 v -2.68749 h 2.34375 v 2.68749 z m 0,16.39062 v -13.82812 h 2.34375 v 13.82812 z m 14.93778,-1.70312 q -1.3125,1.10937 -2.51563,1.5625 -1.20312,0.45312 -2.57812,0.45312 -2.28125,0 -3.5,-1.10937 -1.21875,-1.10938 -1.21875,-2.84375 0,-1.01563 0.45312,-1.85938 0.46875,-0.84375 1.21875,-1.34375 0.75,-0.51562 1.6875,-0.76562 0.6875,-0.1875 2.07813,-0.35938 2.82812,-0.32812 4.17187,-0.79687 0.0156,-0.48438 0.0156,-0.625 0,-1.42188 -0.65625,-2.01563 -0.90625,-0.79687 -2.67188,-0.79687 -1.65625,0 -2.45312,0.59375 -0.78125,0.57812 -1.15625,2.04687 l -2.29688,-0.3125 q 0.3125,-1.46875 1.03125,-2.375 0.71875,-0.90625 2.0625,-1.39062 1.35938,-0.5 3.14063,-0.5 1.78125,0 2.875,0.42187 1.10937,0.42188 1.625,1.04688 0.53125,0.625 0.73437,1.59375 0.125,0.59375 0.125,2.15625 v 3.125 q 0,3.26562 0.14063,4.14062 0.15625,0.85938 0.59375,1.65625 h -2.4375 q -0.375,-0.73437 -0.46875,-1.70312 z m -0.20313,-5.23438 q -1.26562,0.51563 -3.82812,0.89063 -1.4375,0.20312 -2.04688,0.46875 -0.59375,0.25 -0.92187,0.75 -0.3125,0.5 -0.3125,1.125 0,0.9375 0.70312,1.5625 0.70313,0.625 2.07813,0.625 1.34375,0 2.39062,-0.59375 1.0625,-0.59375 1.5625,-1.625 0.375,-0.79688 0.375,-2.34375 z m 8.1687,6.9375 h -2.17187 v -19.07811 h 2.34375 v 6.79686 q 1.48437,-1.85938 3.78125,-1.85938 1.28125,0 2.40625,0.51563 1.14062,0.51562 1.875,1.45312 0.75,0.92188 1.15625,2.25 0.42187,1.3125 0.42187,2.79688 0,3.5625 -1.76562,5.5 -1.75,1.9375 -4.21875,1.9375 -2.4375,0 -3.82813,-2.04688 z m -0.0312,-7.01562 q 0,2.48437 0.67188,3.59375 1.10937,1.8125 3,1.8125 1.53125,0 2.65625,-1.32813 1.125,-1.34375 1.125,-3.98437 0,-2.70313 -1.07813,-3.98438 -1.07812,-1.29687 -2.59375,-1.29687 -1.54687,0 -2.67187,1.32812 -1.10938,1.32813 -1.10938,3.85938 z m 12.63742,7.01562 v -19.07811 h 2.34375 v 19.07811 z m 15.43781,-4.45312 2.42187,0.29687 q -0.57812,2.125 -2.125,3.29688 -1.54687,1.17187 -3.95312,1.17187 -3.03125,0 -4.8125,-1.85937 -1.78125,-1.875 -1.78125,-5.25 0,-3.48438 1.79687,-5.40625 1.79688,-1.9375 4.67188,-1.9375 2.76562,0 4.51562,1.89062 1.76563,1.89063 1.76563,5.3125 0,0.20313 -0.0156,0.625 H 446.563 q 0.14063,2.28125 1.29688,3.5 1.15625,1.20313 2.89062,1.20313 1.28125,0 2.1875,-0.67188 0.92188,-0.6875 1.45313,-2.17187 z m -7.6875,-3.78125 h 7.71875 q -0.15625,-1.75 -0.89063,-2.625 -1.125,-1.34375 -2.90625,-1.34375 -1.60937,0 -2.71875,1.07812 -1.09375,1.07813 -1.20312,2.89063 z m 17.19702,8.23437 7.3125,-19.07811 h 2.73437 l 7.79688,19.07811 h -2.875 l -2.21875,-5.78125 h -7.98438 l -2.09375,5.78125 z m 5.5,-7.82812 h 6.46875 l -2,-5.29688 q -0.90625,-2.40625 -1.34375,-3.95312 -0.375,1.84375 -1.03125,3.64062 z"
       fill-rule="nonzero"
       id="path5490" />
    <path
       fill="#000000"
       fill-opacity="0"
       d="M 355.6483,248.85826 H 276.78218"
       fill-rule="evenodd"
       id="path5492" />
    <path
       stroke="#000000"
       stroke-width="1"
       stroke-linejoin="round"
       stroke-linecap="butt"
       d="M 355.6483,248.85826 H 282.78218"
       fill-rule="evenodd"
       id="path5494" />
    <path
       fill="#000000"
       stroke="#000000"
       stroke-width="1"
       stroke-linecap="butt"
       d="m 282.78217,247.20653 -4.53812,1.65173 4.53812,1.65174 z"
       fill-rule="evenodd"
       id="path5496" />
  </g>
</svg>
