<?xml version="1.0" encoding="UTF-8" standalone="no"?>
<svg
   xmlns:dc="http://purl.org/dc/elements/1.1/"
   xmlns:cc="http://creativecommons.org/ns#"
   xmlns:rdf="http://www.w3.org/1999/02/22-rdf-syntax-ns#"
   xmlns:svg="http://www.w3.org/2000/svg"
   xmlns="http://www.w3.org/2000/svg"
   xmlns:sodipodi="http://sodipodi.sourceforge.net/DTD/sodipodi-0.dtd"
   xmlns:inkscape="http://www.inkscape.org/namespaces/inkscape"
   version="1.1"
   viewBox="0 0 614.68109 369.79168"
   fill="none"
   stroke="none"
   stroke-linecap="square"
   stroke-miterlimit="10"
   id="svg4117"
   sodipodi:docname="Flowchart-bool.svg"
   width="614.68109"
   height="369.79169"
   inkscape:version="1.0.2-2 (e86c870879, 2021-01-15)">
  <metadata
     id="metadata4123">
    <rdf:RDF>
      <cc:Work
         rdf:about="">
        <dc:format>image/svg+xml</dc:format>
        <dc:type
           rdf:resource="http://purl.org/dc/dcmitype/StillImage" />
        <dc:title></dc:title>
      </cc:Work>
    </rdf:RDF>
  </metadata>
  <defs
     id="defs4121" />
  <sodipodi:namedview
     pagecolor="#ffffff"
     bordercolor="#666666"
     borderopacity="1"
     objecttolerance="10"
     gridtolerance="10"
     guidetolerance="10"
     inkscape:pageopacity="0"
     inkscape:pageshadow="2"
     inkscape:window-width="1920"
     inkscape:window-height="1017"
     id="namedview4119"
     showgrid="false"
     fit-margin-top="0"
     fit-margin-left="0"
     fit-margin-right="0"
     fit-margin-bottom="0"
     inkscape:zoom="1.1129443"
     inkscape:cx="193.62197"
     inkscape:cy="280.89829"
     inkscape:window-x="-8"
     inkscape:window-y="-8"
     inkscape:window-maximized="1"
     inkscape:current-layer="svg4117"
     inkscape:document-rotation="0" />
  <clipPath
     id="p.0">
    <path
       d="M 0,0 H 960 V 720 H 0 Z"
       clip-rule="nonzero"
       id="path4010" />
  </clipPath>
  <path
     fill="#000000"
     fill-opacity="0"
     d="M -13.030184,-7.2296586 H 946.96981 V 712.77034 H -13.030184 Z"
     fill-rule="evenodd"
     id="path4013" />
  <path
     fill="#cfe2f3"
     d="m 62.615362,0.5 h 82.589848 v 0 c 10.8195,0 19.59042,12.763481 19.59042,28.508032 0,15.744553 -8.77092,28.50803 -19.59042,28.50803 H 62.615362 v 0 c -10.819496,0 -19.590427,-12.763477 -19.590427,-28.50803 C 43.024935,13.263481 51.795866,0.5 62.615362,0.5 Z"
     fill-rule="evenodd"
     id="path4015" />
  <path
     stroke="#000000"
     stroke-width="1"
     stroke-linejoin="round"
     stroke-linecap="butt"
     d="m 62.615362,0.5 h 82.589848 v 0 c 10.8195,0 19.59042,12.763481 19.59042,28.508032 0,15.744553 -8.77092,28.50803 -19.59042,28.50803 H 62.615362 v 0 c -10.819496,0 -19.590427,-12.763477 -19.590427,-28.50803 C 43.024935,13.263481 51.795866,0.5 62.615362,0.5 Z"
     fill-rule="evenodd"
     id="path4017" />
  <path
     fill="#000000"
     d="M 65.968896,38.608031 V 19.529908 h 6.5625 q 2.234375,0 3.40625,0.265625 1.640625,0.375 2.796875,1.375 1.5,1.265625 2.25,3.25 0.75,1.984373 0.75,4.546873 0,2.171875 -0.515625,3.859375 -0.5,1.671875 -1.296875,2.78125 -0.78125,1.09375 -1.734375,1.71875 -0.9375,0.625 -2.28125,0.953125 -1.328125,0.328125 -3.0625,0.328125 z m 2.515625,-2.25 h 4.078125 q 1.890625,0 2.953125,-0.34375 1.078125,-0.359375 1.71875,-1 0.890625,-0.890625 1.390625,-2.40625 0.515625,-1.515625 0.515625,-3.6875 0,-2.984375 -0.984375,-4.593748 -0.984375,-1.609375 -2.390625,-2.15625 -1.015625,-0.390625 -3.265625,-0.390625 h -4.015625 z m 25.890915,-2.203125 2.42188,0.296875 q -0.57813,2.125 -2.125,3.296875 -1.54688,1.171875 -3.95313,1.171875 -3.03125,0 -4.8125,-1.859375 -1.78125,-1.875 -1.78125,-5.25 0,-3.484375 1.796875,-5.40625 1.796875,-1.937498 4.671875,-1.937498 2.76563,0 4.51563,1.890623 1.76562,1.890625 1.76562,5.3125 0,0.203125 -0.0156,0.625 H 86.547311 q 0.140625,2.28125 1.296875,3.5 1.15625,1.203125 2.89063,1.203125 1.28125,0 2.1875,-0.671875 0.92187,-0.6875 1.45312,-2.171875 z m -7.6875,-3.78125 h 7.71875 q -0.15625,-1.75 -0.89062,-2.625 -1.125,-1.34375 -2.90625,-1.34375 -1.60938,0 -2.71875,1.078125 -1.093755,1.078125 -1.20313,2.890625 z m 2.51563,-7.312498 1.73437,-3.640625 h 3.0625 l -2.85937,3.640625 z m 10.528065,20.843748 v -19.125 h 2.140609 v 1.796875 q 0.75,-1.046875 1.70314,-1.578125 0.95311,-0.531248 2.3125,-0.531248 1.76561,0 3.10936,0.921873 1.35939,0.90625 2.04689,2.5625 0.6875,1.65625 0.6875,3.640625 0,2.125 -0.76564,3.828125 -0.75,1.6875 -2.20311,2.59375 -1.45314,0.90625 -3.04689,0.90625 -1.17186,0 -2.10936,-0.484375 -0.92189,-0.5 -1.53125,-1.265625 v 6.734375 z m 2.124999,-12.125 q 0,2.65625 1.07811,3.9375 1.09375,1.28125 2.625,1.28125 1.5625,0 2.67189,-1.3125 1.10936,-1.328125 1.10936,-4.109375 0,-2.640625 -1.09375,-3.953125 -1.07811,-1.3125 -2.59375,-1.3125 -1.48436,0 -2.64061,1.40625 -1.15625,1.390625 -1.15625,4.0625 z m 21.73116,5.125 q -1.3125,1.109375 -2.51562,1.5625 -1.20313,0.453125 -2.57813,0.453125 -2.28125,0 -3.5,-1.109375 -1.21873,-1.109375 -1.21873,-2.84375 0,-1.015625 0.45312,-1.859375 0.46875,-0.84375 1.21875,-1.34375 0.75,-0.515625 1.6875,-0.765625 0.6875,-0.1875 2.07812,-0.359375 2.82813,-0.328125 4.17188,-0.796875 0.0156,-0.484375 0.0156,-0.625 0,-1.421875 -0.65625,-2.015625 -0.90625,-0.796875 -2.67187,-0.796875 -1.65625,0 -2.45313,0.59375 -0.78125,0.578125 -1.15625,2.046875 l -2.29686,-0.3125 q 0.3125,-1.46875 1.03124,-2.375 0.71875,-0.90625 2.0625,-1.390625 1.35937,-0.499998 3.14062,-0.499998 1.78125,0 2.875,0.421873 1.10938,0.421875 1.625,1.046875 0.53125,0.625 0.73438,1.59375 0.125,0.59375 0.125,2.15625 v 3.125 q 0,3.265625 0.14062,4.140625 0.15625,0.859375 0.59375,1.65625 h -2.4375 q -0.375,-0.734375 -0.46875,-1.703125 z m -0.20312,-5.234375 q -1.26563,0.515625 -3.82813,0.890625 -1.4375,0.203125 -2.04687,0.46875 -0.59375,0.25 -0.92188,0.75 -0.3125,0.5 -0.3125,1.125 0,0.9375 0.70313,1.5625 0.70312,0.625 2.07812,0.625 1.34375,0 2.39063,-0.59375 1.0625,-0.59375 1.5625,-1.625 0.375,-0.796875 0.375,-2.34375 z m 5.98118,6.9375 V 24.779906 h 2.10938 v 2.09375 q 0.79687,-1.46875 1.48437,-1.9375 0.6875,-0.468748 1.5,-0.468748 1.1875,0 2.40625,0.765623 l -0.79687,2.171875 q -0.85938,-0.515625 -1.71875,-0.515625 -0.76563,0 -1.39063,0.46875 -0.60937,0.453125 -0.85937,1.28125 -0.39063,1.25 -0.39063,2.734375 v 7.234375 z m 14.01737,-2.09375 0.32812,2.0625 q -0.98437,0.21875 -1.76562,0.21875 -1.26563,0 -1.96875,-0.40625 -0.70313,-0.40625 -1,-1.0625 -0.28125,-0.65625 -0.28125,-2.765625 v -7.953125 h -1.71875 v -1.828125 h 1.71875 v -3.421873 l 2.32812,-1.40625 v 4.828123 h 2.35938 v 1.828125 h -2.35938 v 8.078125 q 0,1 0.125,1.296875 0.125,0.28125 0.40625,0.453125 0.28125,0.171875 0.79688,0.171875 0.39062,0 1.03125,-0.09375 z"
     fill-rule="nonzero"
     id="path4019" />
  <path
     fill="#cfe2f3"
     d="m 64.162566,312.27561 h 89.145824 v 0 c 11.67834,0 21.14551,12.76349 21.14551,28.50803 0,15.74456 -9.46717,28.50805 -21.14551,28.50805 H 64.162566 v 0 c -11.678341,0 -21.145508,-12.76349 -21.145508,-28.50805 0,-15.74454 9.467167,-28.50803 21.145508,-28.50803 z"
     fill-rule="evenodd"
     id="path4021" />
  <path
     stroke="#000000"
     stroke-width="1"
     stroke-linejoin="round"
     stroke-linecap="butt"
     d="m 64.162566,312.27561 h 89.145824 v 0 c 11.67834,0 21.14551,12.76349 21.14551,28.50803 0,15.74456 -9.46717,28.50805 -21.14551,28.50805 H 64.162566 v 0 c -11.678341,0 -21.145508,-12.76349 -21.145508,-28.50805 0,-15.74454 9.467167,-28.50803 21.145508,-28.50803 z"
     fill-rule="evenodd"
     id="path4023" />
  <path
     fill="#000000"
     d="m 92.408076,350.38364 v -19.07813 h 12.875004 v 2.25 H 94.939326 v 5.90625 h 8.953124 v 2.25 h -8.953124 v 8.67188 z m 15.860834,-16.39063 v -2.6875 h 2.34375 v 2.6875 z m 0,16.39063 v -13.82813 h 2.34375 v 13.82813 z m 5.90654,0 v -13.82813 h 2.10936 v 1.96875 q 1.53125,-2.28125 4.40625,-2.28125 1.25,0 2.29688,0.45313 1.04687,0.45312 1.5625,1.1875 0.53125,0.71875 0.73437,1.71875 0.125,0.65625 0.125,2.28125 v 8.5 h -2.34375 v -8.40625 q 0,-1.4375 -0.28125,-2.14063 -0.26562,-0.71875 -0.96875,-1.14062 -0.6875,-0.42188 -1.625,-0.42188 -1.48437,0 -2.57812,0.95313 -1.09375,0.95312 -1.09375,3.60937 v 7.54688 z"
     fill-rule="nonzero"
     id="path4025" />
  <path
     fill="#000000"
     fill-opacity="0"
     d="M 103.91029,57.516061 V 84.697168"
     fill-rule="evenodd"
     id="path4027" />
  <path
     stroke="#000000"
     stroke-width="1"
     stroke-linejoin="round"
     stroke-linecap="butt"
     d="M 103.91029,57.516061 V 78.697168"
     fill-rule="evenodd"
     id="path4029" />
  <path
     fill="#000000"
     stroke="#000000"
     stroke-width="1"
     stroke-linecap="butt"
     d="m 102.25855,78.697171 1.65174,4.538101 1.65174,-4.538101 z"
     fill-rule="evenodd"
     id="path4031" />
  <path
     fill="#000000"
     fill-opacity="0"
     d="m 103.91076,176.75328 v 27.18111"
     fill-rule="evenodd"
     id="path4033" />
  <path
     stroke="#000000"
     stroke-width="1"
     stroke-linejoin="round"
     stroke-linecap="butt"
     d="m 103.91076,176.75328 v 21.18111"
     fill-rule="evenodd"
     id="path4035" />
  <path
     fill="#000000"
     stroke="#000000"
     stroke-width="1"
     stroke-linecap="butt"
     d="m 102.25904,197.93439 1.65172,4.53809 1.65173,-4.53809 z"
     fill-rule="evenodd"
     id="path4037" />
  <path
     fill="#000000"
     fill-opacity="0"
     d="m 108.73547,276.87403 v 35.40158"
     fill-rule="evenodd"
     id="path4039" />
  <path
     stroke="#000000"
     stroke-width="1"
     stroke-linejoin="round"
     stroke-linecap="butt"
     d="m 108.73547,276.87403 v 29.40158"
     fill-rule="evenodd"
     id="path4041" />
  <path
     fill="#000000"
     stroke="#000000"
     stroke-width="1"
     stroke-linecap="butt"
     d="m 107.08375,306.27561 1.65172,4.53812 1.65175,-4.53812 z"
     fill-rule="evenodd"
     id="path4043" />
  <path
     fill="#cfe2f3"
     d="M 0.5,84.696847 H 248.87534 V 176.7546 H 0.5 Z"
     fill-rule="evenodd"
     id="path4045" />
  <path
     fill="#000000"
     fill-opacity="0"
     d="M 31.546916,84.696847 V 176.7546 M 0.500001,96.204071 H 248.87534"
     fill-rule="evenodd"
     id="path4047" />
  <path
     fill="#000000"
     fill-opacity="0"
     d="M 0.5,84.696847 H 248.87534 V 176.7546 H 0.5 Z"
     fill-rule="evenodd"
     id="path4049" />
  <path
     stroke="#000000"
     stroke-width="1"
     stroke-linejoin="round"
     stroke-linecap="butt"
     d="M 31.546916,84.696847 V 176.7546 M 0.500001,96.204071 H 248.87534"
     fill-rule="evenodd"
     id="path4051" />
  <path
     stroke="#000000"
     stroke-width="1"
     stroke-linejoin="round"
     stroke-linecap="butt"
     d="M 0.5,84.696847 H 248.87534 V 176.7546 H 0.5 Z"
     fill-rule="evenodd"
     id="path4053" />
  <path
     fill="#000000"
     fill-opacity="0"
     d="M 310.72835,94.725721 H 609.35823 V 166.72572 H 310.72835 Z"
     fill-rule="evenodd"
     id="path4063" />
  <path
     stroke="#000000"
     stroke-width="1"
     stroke-linejoin="round"
     stroke-linecap="butt"
     stroke-dasharray="1, 3"
     d="M 310.72835,94.725721 H 609.35823 V 166.72572 H 310.72835 Z"
     fill-rule="evenodd"
     id="path4065" />
  <path
     fill="#000000"
     fill-opacity="0"
     d="m 310.72835,203.45276 h 298.62988 v 71.99999 H 310.72835 Z"
     fill-rule="evenodd"
     id="path4071" />
  <path
     fill="#000000"
     fill-opacity="0"
     d="M 310.72835,239.45276 H 248.87007"
     fill-rule="evenodd"
     id="path4077" />
  <path
     fill="#000000"
     fill-opacity="0"
     d="M 310.72835,130.72572 H 248.87007"
     fill-rule="evenodd"
     id="path4083" />
  <path
     stroke="#000000"
     stroke-width="1"
     stroke-linejoin="round"
     stroke-linecap="butt"
     d="M 310.72835,130.72572 H 254.87007"
     fill-rule="evenodd"
     id="path4085" />
  <path
     fill="#000000"
     stroke="#000000"
     stroke-width="1"
     stroke-linecap="butt"
     d="m 254.87008,129.07399 -4.53812,1.65173 4.53812,1.65174 z"
     fill-rule="evenodd"
     id="path4087" />
  <path
     fill="#cfe2f3"
     d="M 3.874011,203.07089 H 255.14698 v 72 H 3.874011 Z"
     fill-rule="evenodd"
     id="path4089" />
  <path
     stroke="#000000"
     stroke-width="1"
     stroke-linejoin="round"
     stroke-linecap="butt"
     d="M 3.874011,203.07089 H 255.14698 v 72 H 3.874011 Z"
     fill-rule="evenodd"
     id="path4091" />
  <path
     fill="#000000"
     d="m 64.162566,248.67091 h -2.171875 v -19.07813 h 2.34375 v 6.79688 q 1.484375,-1.85938 3.78125,-1.85938 1.28125,0 2.40625,0.51563 1.140625,0.51562 1.875,1.45312 0.75,0.92188 1.15625,2.25 0.421875,1.3125 0.421875,2.79688 0,3.5625 -1.765625,5.5 -1.75,1.9375 -4.21875,1.9375 -2.4375,0 -3.828125,-2.04688 z m -0.03125,-7.01563 q 0,2.48438 0.671875,3.59375 1.109375,1.8125 3,1.8125 1.53125,0 2.65625,-1.32812 1.125,-1.34375 1.125,-3.98438 0,-2.70312 -1.078125,-3.98437 -1.078125,-1.29688 -2.59375,-1.29688 -1.546875,0 -2.671875,1.32813 -1.109375,1.32812 -1.109375,3.85937 z m 11.824936,0.10938 q 0,-3.84375 2.125,-5.6875 1.78125,-1.54688 4.34375,-1.54688 2.859375,0 4.65625,1.875 1.8125,1.85938 1.8125,5.15625 0,2.67188 -0.796875,4.20313 -0.796875,1.53125 -2.328125,2.375 -1.53125,0.84375 -3.34375,0.84375 -2.890625,0 -4.6875,-1.85938 -1.78125,-1.85937 -1.78125,-5.35937 z m 2.40625,0 q 0,2.65625 1.15625,3.98437 1.15625,1.3125 2.90625,1.3125 1.75,0 2.90625,-1.32812 1.15625,-1.32813 1.15625,-4.04688 0,-2.5625 -1.171875,-3.89062 -1.15625,-1.32813 -2.890625,-1.32813 -1.75,0 -2.90625,1.32813 -1.15625,1.3125 -1.15625,3.96875 z m 11.715561,6.90625 5.062503,-7.1875 -4.671878,-6.64063 h 2.921878 l 2.125,3.25 q 0.59375,0.92188 0.96875,1.54688 0.5625,-0.85938 1.046865,-1.53125 l 2.32813,-3.26563 h 2.796869 l -4.781249,6.51563 5.156249,7.3125 h -2.89062 l -2.828129,-4.29688 -0.749995,-1.15625 -3.64062,5.45313 z m 34.624707,-11.21875 h -12.59375 v -2.1875 h 12.59375 z m 0,5.79687 h -12.59375 v -2.1875 h 12.59375 z m 11.08215,5.42188 v -19.07813 h 12.875 v 2.25 h -10.34375 v 5.90625 h 8.95313 v 2.25 h -8.95313 v 8.67188 z m 24.87646,-1.70313 q -1.3125,1.10938 -2.51562,1.5625 -1.20313,0.45313 -2.57813,0.45313 -2.28125,0 -3.5,-1.10938 -1.21875,-1.10937 -1.21875,-2.84375 0,-1.01562 0.45313,-1.85937 0.46875,-0.84375 1.21875,-1.34375 0.75,-0.51563 1.6875,-0.76563 0.6875,-0.1875 2.07812,-0.35937 2.82813,-0.32813 4.17188,-0.79688 0.0156,-0.48437 0.0156,-0.625 0,-1.42187 -0.65625,-2.01562 -0.90625,-0.79688 -2.67187,-0.79688 -1.65625,0 -2.45313,0.59375 -0.78125,0.57813 -1.15625,2.04688 l -2.29687,-0.3125 q 0.3125,-1.46875 1.03125,-2.375 0.71875,-0.90625 2.0625,-1.39063 1.35937,-0.5 3.14062,-0.5 1.78125,0 2.875,0.42188 1.10938,0.42187 1.625,1.04687 0.53125,0.625 0.73438,1.59375 0.125,0.59375 0.125,2.15625 v 3.125 q 0,3.26563 0.14062,4.14063 0.15625,0.85937 0.59375,1.65625 h -2.4375 q -0.375,-0.73438 -0.46875,-1.70313 z m -0.20312,-5.23437 q -1.26563,0.51562 -3.82813,0.89062 -1.4375,0.20313 -2.04687,0.46875 -0.59375,0.25 -0.92188,0.75 -0.3125,0.5 -0.3125,1.125 0,0.9375 0.70313,1.5625 0.70312,0.625 2.07812,0.625 1.34375,0 2.39063,-0.59375 1.0625,-0.59375 1.5625,-1.625 0.375,-0.79687 0.375,-2.34375 z m 5.94992,6.9375 v -19.07813 h 2.34375 v 19.07813 z m 5.03156,-4.125 2.32813,-0.35938 q 0.1875,1.39063 1.07812,2.14063 0.89063,0.73437 2.5,0.73437 1.60938,0 2.39063,-0.65625 0.78125,-0.65625 0.78125,-1.54687 0,-0.79688 -0.6875,-1.25 -0.48438,-0.3125 -2.39063,-0.79688 -2.57812,-0.65625 -3.57812,-1.125 -1,-0.46875 -1.51563,-1.3125 -0.51562,-0.84375 -0.51562,-1.85937 0,-0.92188 0.42187,-1.70313 0.4375,-0.79687 1.15625,-1.3125 0.54688,-0.40625 1.48438,-0.6875 0.95312,-0.28125 2.03125,-0.28125 1.625,0 2.85937,0.46875 1.23438,0.46875 1.8125,1.28125 0.59375,0.79688 0.8125,2.14063 l -2.29687,0.3125 q -0.15625,-1.07813 -0.90625,-1.67188 -0.75,-0.59375 -2.10938,-0.59375 -1.60937,0 -2.3125,0.53125 -0.6875,0.53125 -0.6875,1.25 0,0.45313 0.29688,0.8125 0.28125,0.375 0.89062,0.625 0.35938,0.14063 2.07813,0.60938 2.48437,0.65625 3.46875,1.07812 0.98437,0.42188 1.53125,1.23438 0.5625,0.79687 0.5625,2 0,1.17187 -0.6875,2.21875 -0.67188,1.03125 -1.96875,1.59375 -1.28125,0.5625 -2.90625,0.5625 -2.70313,0 -4.125,-1.10938 -1.40625,-1.125 -1.79688,-3.32812 z m 23.73437,-0.32813 2.42188,0.29688 q -0.57813,2.125 -2.125,3.29687 -1.54688,1.17188 -3.95313,1.17188 -3.03125,0 -4.8125,-1.85938 -1.78125,-1.875 -1.78125,-5.25 0,-3.48437 1.79688,-5.40625 1.79687,-1.9375 4.67187,-1.9375 2.76563,0 4.51563,1.89063 1.76562,1.89062 1.76562,5.3125 0,0.20312 -0.0156,0.625 h -10.3125 q 0.14062,2.28125 1.29687,3.5 1.15625,1.20312 2.89063,1.20312 1.28125,0 2.1875,-0.67187 0.92187,-0.6875 1.45312,-2.17188 z m -7.6875,-3.78125 h 7.71875 q -0.15625,-1.75 -0.89062,-2.625 -1.125,-1.34375 -2.90625,-1.34375 -1.60938,0 -2.71875,1.07813 -1.09375,1.07812 -1.20313,2.89062 z"
     fill-rule="nonzero"
     id="path4093" />
  <path
     fill="#000000"
     fill-opacity="0"
     d="m 102.93438,177.82416 0.97638,26.11023"
     fill-rule="evenodd"
     id="path4095" />
  <path
     fill="#000000"
     fill-opacity="0"
     d="m 315.55118,203.07089 h 298.62988 v 72 H 315.55118 Z"
     fill-rule="evenodd"
     id="path4101" />
  <path
     stroke="#000000"
     stroke-width="1"
     stroke-linejoin="round"
     stroke-linecap="butt"
     stroke-dasharray="1, 3"
     d="m 315.55118,203.07089 h 298.62988 v 72 H 315.55118 Z"
     fill-rule="evenodd"
     id="path4103" />
  <path
     fill="#000000"
     d="m 326.64495,232.67091 v -19.07813 h 8.46875 q 2.54687,0 3.875,0.51563 1.32812,0.51562 2.10937,1.8125 0.79688,1.29687 0.79688,2.875 0,2.03125 -1.3125,3.42187 -1.3125,1.39063 -4.0625,1.76563 1.01562,0.48437 1.53125,0.95312 1.10937,1.01563 2.09375,2.54688 l 3.3125,5.1875 h -3.17188 l -2.51562,-3.96875 q -1.10938,-1.71875 -1.82813,-2.625 -0.71875,-0.92188 -1.28125,-1.28125 -0.5625,-0.35938 -1.15625,-0.5 -0.42187,-0.0937 -1.40625,-0.0937 h -2.92187 v 8.46875 z m 2.53125,-10.65625 h 5.42187 q 1.73438,0 2.70313,-0.35938 0.98437,-0.35937 1.48437,-1.14062 0.51563,-0.79688 0.51563,-1.71875 0,-1.35938 -0.98438,-2.21875 -0.98437,-0.875 -3.10937,-0.875 h -6.03125 z m 25.84402,6.20312 2.42187,0.29688 q -0.57812,2.125 -2.125,3.29687 -1.54687,1.17188 -3.95312,1.17188 -3.03125,0 -4.8125,-1.85938 -1.78125,-1.875 -1.78125,-5.25 0,-3.48437 1.79687,-5.40625 1.79688,-1.9375 4.67188,-1.9375 2.76562,0 4.51562,1.89063 1.76563,1.89062 1.76563,5.3125 0,0.20312 -0.0156,0.625 h -10.3125 q 0.14062,2.28125 1.29687,3.5 1.15625,1.20312 2.89063,1.20312 1.28125,0 2.1875,-0.67187 0.92187,-0.6875 1.45312,-2.17188 z m -7.6875,-3.78125 h 7.71875 q -0.15625,-1.75 -0.89063,-2.625 -1.125,-1.34375 -2.90625,-1.34375 -1.60937,0 -2.71875,1.07813 -1.09375,1.07812 -1.20312,2.89062 z m 22.01245,8.23438 v -1.75 q -1.3125,2.0625 -3.85938,2.0625 -1.65625,0 -3.04687,-0.90625 -1.375,-0.92188 -2.14063,-2.54688 -0.76562,-1.64062 -0.76562,-3.75 0,-2.07812 0.6875,-3.76562 0.70312,-1.6875 2.07812,-2.57813 1.375,-0.90625 3.07813,-0.90625 1.25,0 2.21875,0.53125 0.98437,0.53125 1.59375,1.375 v -6.84375 h 2.34375 v 19.07813 z m -7.40625,-6.89063 q 0,2.64063 1.125,3.96875 1.125,1.3125 2.64062,1.3125 1.53125,0 2.60938,-1.25 1.07812,-1.26562 1.07812,-3.84375 0,-2.84375 -1.09375,-4.17187 -1.09375,-1.32813 -2.70312,-1.32813 -1.54688,0 -2.60938,1.28125 -1.04687,1.28125 -1.04687,4.03125 z m 22.73118,2.4375 2.42187,0.29688 q -0.57812,2.125 -2.125,3.29687 -1.54687,1.17188 -3.95312,1.17188 -3.03125,0 -4.8125,-1.85938 -1.78125,-1.875 -1.78125,-5.25 0,-3.48437 1.79687,-5.40625 1.79688,-1.9375 4.67188,-1.9375 2.76562,0 4.51562,1.89063 1.76563,1.89062 1.76563,5.3125 0,0.20312 -0.0156,0.625 H 376.842 q 0.14063,2.28125 1.29688,3.5 1.15625,1.20312 2.89062,1.20312 1.28125,0 2.1875,-0.67187 0.92188,-0.6875 1.45313,-2.17188 z m -7.6875,-3.78125 h 7.71875 q -0.15625,-1.75 -0.89063,-2.625 -1.125,-1.34375 -2.90625,-1.34375 -1.60937,0 -2.71875,1.07813 -1.09375,1.07812 -1.20312,2.89062 z m 2.51562,-7.3125 1.73438,-3.64062 h 3.0625 l -2.85938,3.64062 z m 11.09058,15.54688 v -12 h -2.0625 v -1.82813 h 2.0625 v -1.46875 q 0,-1.39062 0.25,-2.0625 0.34375,-0.92187 1.1875,-1.48437 0.85937,-0.5625 2.39062,-0.5625 0.98438,0 2.1875,0.23437 l -0.34375,2.04688 q -0.73437,-0.14063 -1.39062,-0.14063 -1.0625,0 -1.51563,0.46875 -0.4375,0.45313 -0.4375,1.70313 v 1.26562 h 2.70313 v 1.82813 h -2.70313 v 12 z m 6.85906,-16.39063 v -2.6875 h 2.34375 v 2.6875 z m 0,16.39063 v -13.82813 h 2.34375 v 13.82813 z m 5.90655,0 v -13.82813 h 2.10938 v 1.96875 q 1.53125,-2.28125 4.40625,-2.28125 1.25,0 2.29687,0.45313 1.04688,0.45312 1.5625,1.1875 0.53125,0.71875 0.73438,1.71875 0.125,0.65625 0.125,2.28125 v 8.5 h -2.34375 v -8.40625 q 0,-1.4375 -0.28125,-2.14063 -0.26563,-0.71875 -0.96875,-1.14062 -0.6875,-0.42188 -1.625,-0.42188 -1.48438,0 -2.57813,0.95313 -1.09375,0.95312 -1.09375,3.60937 v 7.54688 z m 14.84055,-16.39063 v -2.6875 h 2.34375 v 2.6875 z m 0,16.39063 v -13.82813 h 2.34375 v 13.82813 z m 11.03155,-2.09375 0.32813,2.0625 q -0.98438,0.21875 -1.76563,0.21875 -1.26562,0 -1.96875,-0.40625 -0.70312,-0.40625 -1,-1.0625 -0.28125,-0.65625 -0.28125,-2.76563 v -7.95312 h -1.71875 v -1.82813 h 1.71875 v -3.42187 l 2.32813,-1.40625 v 4.82812 h 2.35937 v 1.82813 h -2.35937 v 8.07812 q 0,1 0.125,1.29688 0.125,0.28125 0.40625,0.45312 0.28125,0.17188 0.79687,0.17188 0.39063,0 1.03125,-0.0937 z m 2.29657,-14.29688 v -2.6875 h 2.34375 v 2.6875 z m 0,16.39063 v -13.82813 h 2.34375 v 13.82813 z m 5.04718,-6.90625 q 0,-3.84375 2.125,-5.6875 1.78125,-1.54688 4.34375,-1.54688 2.85938,0 4.65625,1.875 1.8125,1.85938 1.8125,5.15625 0,2.67188 -0.79687,4.20313 -0.79688,1.53125 -2.32813,2.375 -1.53125,0.84375 -3.34375,0.84375 -2.89062,0 -4.6875,-1.85938 -1.78125,-1.85937 -1.78125,-5.35937 z m 2.40625,0 q 0,2.65625 1.15625,3.98437 1.15625,1.3125 2.90625,1.3125 1.75,0 2.90625,-1.32812 1.15625,-1.32813 1.15625,-4.04688 0,-2.5625 -1.17187,-3.89062 -1.15625,-1.32813 -2.89063,-1.32813 -1.75,0 -2.90625,1.32813 -1.15625,1.3125 -1.15625,3.96875 z m 13.27805,6.90625 v -13.82813 h 2.10937 v 1.96875 q 1.53125,-2.28125 4.40625,-2.28125 1.25,0 2.29688,0.45313 1.04687,0.45312 1.5625,1.1875 0.53125,0.71875 0.73437,1.71875 0.125,0.65625 0.125,2.28125 v 8.5 h -2.34375 v -8.40625 q 0,-1.4375 -0.28125,-2.14063 -0.26562,-0.71875 -0.96875,-1.14062 -0.6875,-0.42188 -1.625,-0.42188 -1.48437,0 -2.57812,0.95313 -1.09375,0.95312 -1.09375,3.60937 v 7.54688 z m 31.19964,0 v -1.75 q -1.3125,2.0625 -3.85937,2.0625 -1.65625,0 -3.04688,-0.90625 -1.375,-0.92188 -2.14062,-2.54688 -0.76563,-1.64062 -0.76563,-3.75 0,-2.07812 0.6875,-3.76562 0.70313,-1.6875 2.07813,-2.57813 1.375,-0.90625 3.07812,-0.90625 1.25,0 2.21875,0.53125 0.98438,0.53125 1.59375,1.375 v -6.84375 h 2.34375 v 19.07813 z m -7.40625,-6.89063 q 0,2.64063 1.125,3.96875 1.125,1.3125 2.64063,1.3125 1.53125,0 2.60937,-1.25 1.07813,-1.26562 1.07813,-3.84375 0,-2.84375 -1.09375,-4.17187 -1.09375,-1.32813 -2.70313,-1.32813 -1.54687,0 -2.60937,1.28125 -1.04688,1.28125 -1.04688,4.03125 z m 22.73121,2.4375 2.42187,0.29688 q -0.57812,2.125 -2.125,3.29687 -1.54687,1.17188 -3.95312,1.17188 -3.03125,0 -4.8125,-1.85938 -1.78125,-1.875 -1.78125,-5.25 0,-3.48437 1.79687,-5.40625 1.79688,-1.9375 4.67188,-1.9375 2.76562,0 4.51562,1.89063 1.76563,1.89062 1.76563,5.3125 0,0.20312 -0.0156,0.625 h -10.3125 q 0.14063,2.28125 1.29688,3.5 1.15625,1.20312 2.89062,1.20312 1.28125,0 2.1875,-0.67187 0.92188,-0.6875 1.45313,-2.17188 z m -7.6875,-3.78125 h 7.71875 q -0.15625,-1.75 -0.89063,-2.625 -1.125,-1.34375 -2.90625,-1.34375 -1.60937,0 -2.71875,1.07813 -1.09375,1.07812 -1.20312,2.89062 z m 20.40277,8.23438 v -19.07813 h 2.34375 v 19.07813 z m 15.0003,-1.70313 q -1.3125,1.10938 -2.51562,1.5625 -1.20313,0.45313 -2.57813,0.45313 -2.28125,0 -3.5,-1.10938 -1.21875,-1.10937 -1.21875,-2.84375 0,-1.01562 0.45313,-1.85937 0.46875,-0.84375 1.21875,-1.34375 0.75,-0.51563 1.6875,-0.76563 0.6875,-0.1875 2.07812,-0.35937 2.82813,-0.32813 4.17188,-0.79688 0.0156,-0.48437 0.0156,-0.625 0,-1.42187 -0.65625,-2.01562 -0.90625,-0.79688 -2.67187,-0.79688 -1.65625,0 -2.45313,0.59375 -0.78125,0.57813 -1.15625,2.04688 l -2.29687,-0.3125 q 0.3125,-1.46875 1.03125,-2.375 0.71875,-0.90625 2.0625,-1.39063 1.35937,-0.5 3.14062,-0.5 1.78125,0 2.875,0.42188 1.10938,0.42187 1.625,1.04687 0.53125,0.625 0.73438,1.59375 0.125,0.59375 0.125,2.15625 v 3.125 q 0,3.26563 0.14062,4.14063 0.15625,0.85937 0.59375,1.65625 h -2.4375 q -0.375,-0.73438 -0.46875,-1.70313 z m -0.20312,-5.23437 q -1.26563,0.51562 -3.82813,0.89062 -1.4375,0.20313 -2.04687,0.46875 -0.59375,0.25 -0.92188,0.75 -0.3125,0.5 -0.3125,1.125 0,0.9375 0.70313,1.5625 0.70312,0.625 2.07812,0.625 1.34375,0 2.39063,-0.59375 1.0625,-0.59375 1.5625,-1.625 0.375,-0.79687 0.375,-2.34375 z"
     fill-rule="nonzero"
     id="path4105" />
  <path
     fill="#000000"
     d="m 330.14495,264.67091 -5.25,-13.82813 h 2.46875 l 2.96875,8.28125 q 0.48437,1.34375 0.89062,2.78125 0.29688,-1.09375 0.85938,-2.625 l 3.07812,-8.4375 h 2.40625 l -5.23437,13.82813 z m 18.51562,-1.70313 q -1.3125,1.10938 -2.51562,1.5625 -1.20313,0.45313 -2.57813,0.45313 -2.28125,0 -3.5,-1.10938 -1.21875,-1.10937 -1.21875,-2.84375 0,-1.01562 0.45313,-1.85937 0.46875,-0.84375 1.21875,-1.34375 0.75,-0.51563 1.6875,-0.76563 0.6875,-0.1875 2.07812,-0.35937 2.82813,-0.32813 4.17188,-0.79688 0.0156,-0.48437 0.0156,-0.625 0,-1.42187 -0.65625,-2.01562 -0.90625,-0.79688 -2.67188,-0.79688 -1.65625,0 -2.45312,0.59375 -0.78125,0.57813 -1.15625,2.04688 l -2.29688,-0.3125 q 0.3125,-1.46875 1.03125,-2.375 0.71875,-0.90625 2.0625,-1.39063 1.35938,-0.5 3.14063,-0.5 1.78125,0 2.875,0.42188 1.10937,0.42187 1.625,1.04687 0.53125,0.625 0.73437,1.59375 0.125,0.59375 0.125,2.15625 v 3.125 q 0,3.26563 0.14063,4.14063 0.15625,0.85937 0.59375,1.65625 h -2.4375 q -0.375,-0.73438 -0.46875,-1.70313 z m -0.20312,-5.23437 q -1.26563,0.51562 -3.82813,0.89062 -1.4375,0.20313 -2.04687,0.46875 -0.59375,0.25 -0.92188,0.75 -0.3125,0.5 -0.3125,1.125 0,0.9375 0.70313,1.5625 0.70312,0.625 2.07812,0.625 1.34375,0 2.39063,-0.59375 1.0625,-0.59375 1.5625,-1.625 0.375,-0.79687 0.375,-2.34375 z m 5.98117,6.9375 v -13.82813 h 2.10938 v 2.09375 q 0.79687,-1.46875 1.48437,-1.9375 0.6875,-0.46875 1.5,-0.46875 1.1875,0 2.40625,0.76563 l -0.79687,2.17187 q -0.85938,-0.51562 -1.71875,-0.51562 -0.76563,0 -1.39063,0.46875 -0.60937,0.45312 -0.85937,1.28125 -0.39063,1.25 -0.39063,2.73437 v 7.23438 z m 8.90799,-16.39063 v -2.6875 h 2.34375 v 2.6875 z m 0,16.39063 v -13.82813 h 2.34375 v 13.82813 z m 14.93781,-1.70313 q -1.3125,1.10938 -2.51563,1.5625 -1.20312,0.45313 -2.57812,0.45313 -2.28125,0 -3.5,-1.10938 -1.21875,-1.10937 -1.21875,-2.84375 0,-1.01562 0.45312,-1.85937 0.46875,-0.84375 1.21875,-1.34375 0.75,-0.51563 1.6875,-0.76563 0.6875,-0.1875 2.07813,-0.35937 2.82812,-0.32813 4.17187,-0.79688 0.0156,-0.48437 0.0156,-0.625 0,-1.42187 -0.65625,-2.01562 -0.90625,-0.79688 -2.67188,-0.79688 -1.65625,0 -2.45312,0.59375 -0.78125,0.57813 -1.15625,2.04688 l -2.29688,-0.3125 q 0.3125,-1.46875 1.03125,-2.375 0.71875,-0.90625 2.0625,-1.39063 1.35938,-0.5 3.14063,-0.5 1.78125,0 2.875,0.42188 1.10937,0.42187 1.625,1.04687 0.53125,0.625 0.73437,1.59375 0.125,0.59375 0.125,2.15625 v 3.125 q 0,3.26563 0.14063,4.14063 0.15625,0.85937 0.59375,1.65625 h -2.4375 q -0.375,-0.73438 -0.46875,-1.70313 z m -0.20313,-5.23437 q -1.26562,0.51562 -3.82812,0.89062 -1.4375,0.20313 -2.04688,0.46875 -0.59375,0.25 -0.92187,0.75 -0.3125,0.5 -0.3125,1.125 0,0.9375 0.70312,1.5625 0.70313,0.625 2.07813,0.625 1.34375,0 2.39062,-0.59375 1.0625,-0.59375 1.5625,-1.625 0.375,-0.79687 0.375,-2.34375 z m 8.16867,6.9375 h -2.17187 v -19.07813 h 2.34375 v 6.79688 q 1.48437,-1.85938 3.78125,-1.85938 1.28125,0 2.40625,0.51563 1.14062,0.51562 1.875,1.45312 0.75,0.92188 1.15625,2.25 0.42187,1.3125 0.42187,2.79688 0,3.5625 -1.76562,5.5 -1.75,1.9375 -4.21875,1.9375 -2.4375,0 -3.82813,-2.04688 z m -0.0312,-7.01563 q 0,2.48438 0.67188,3.59375 1.10937,1.8125 3,1.8125 1.53125,0 2.65625,-1.32812 1.125,-1.34375 1.125,-3.98438 0,-2.70312 -1.07813,-3.98437 -1.07812,-1.29688 -2.59375,-1.29688 -1.54687,0 -2.67187,1.32813 -1.10938,1.32812 -1.10938,3.85937 z m 12.63745,7.01563 v -19.07813 h 2.34375 v 19.07813 z m 15.43778,-4.45313 2.42187,0.29688 q -0.57812,2.125 -2.125,3.29687 -1.54687,1.17188 -3.95312,1.17188 -3.03125,0 -4.8125,-1.85938 -1.78125,-1.875 -1.78125,-5.25 0,-3.48437 1.79687,-5.40625 1.79688,-1.9375 4.67188,-1.9375 2.76562,0 4.51562,1.89063 1.76563,1.89062 1.76563,5.3125 0,0.20312 -0.0156,0.625 h -10.3125 q 0.14063,2.28125 1.29688,3.5 1.15625,1.20312 2.89062,1.20312 1.28125,0 2.1875,-0.67187 0.92188,-0.6875 1.45313,-2.17188 z m -7.6875,-3.78125 h 7.71875 q -0.15625,-1.75 -0.89063,-2.625 -1.125,-1.34375 -2.90625,-1.34375 -1.60937,0 -2.71875,1.07813 -1.09375,1.07812 -1.20312,2.89062 z"
     fill-rule="nonzero"
     id="path4107" />
  <path
     fill="#000000"
     fill-opacity="0"
     d="M 315.55118,239.07089 H 255.14173"
     fill-rule="evenodd"
     id="path4109" />
  <path
     stroke="#000000"
     stroke-width="1"
     stroke-linejoin="round"
     stroke-linecap="butt"
     d="M 315.55118,239.07089 H 261.14173"
     fill-rule="evenodd"
     id="path4111" />
  <path
     fill="#000000"
     stroke="#000000"
     stroke-width="1"
     stroke-linecap="butt"
     d="m 261.14175,237.41916 -4.53812,1.65173 4.53812,1.65174 z"
     fill-rule="evenodd"
     id="path4113" />
  <text
     xml:space="preserve"
     style="font-size:42.6667px;line-height:1.25;font-family:Calibri;-inkscape-font-specification:Calibri;fill:#000000;fill-opacity:1;stroke-width:0.999999"
     x="54.946659"
     y="142.99612"
     id="text12516-6"><tspan
       sodipodi:role="line"
       id="tspan12514-1"
       x="54.946659"
       y="142.99612"
       style="font-style:normal;font-variant:normal;font-weight:normal;font-stretch:normal;font-size:26.6667px;font-family:Arial;-inkscape-font-specification:Arial;fill:#000000;fill-opacity:1;stroke-width:0.999999">box = True</tspan></text>
  <text
     xml:space="preserve"
     style="font-size:26.6667px;line-height:1.25;font-family:Calibri;-inkscape-font-specification:Calibri;fill:#000000;fill-opacity:1;stroke-width:0.999999"
     x="321.45297"
     y="138.5264"
     id="text12516-2"><tspan
       sodipodi:role="line"
       id="tspan12514-6"
       x="321.45297"
       y="138.5264"
       style="font-style:normal;font-variant:normal;font-weight:normal;font-stretch:normal;font-size:26.6667px;font-family:Arial;-inkscape-font-specification:Arial;fill:#000000;fill-opacity:1;stroke-width:0.999999">Déclaration et definition</tspan></text>
</svg>
