<?xml version="1.0" encoding="UTF-8" standalone="no"?>
<svg
   xmlns:dc="http://purl.org/dc/elements/1.1/"
   xmlns:cc="http://creativecommons.org/ns#"
   xmlns:rdf="http://www.w3.org/1999/02/22-rdf-syntax-ns#"
   xmlns:svg="http://www.w3.org/2000/svg"
   xmlns="http://www.w3.org/2000/svg"
   xmlns:sodipodi="http://sodipodi.sourceforge.net/DTD/sodipodi-0.dtd"
   xmlns:inkscape="http://www.inkscape.org/namespaces/inkscape"
   version="1.1"
   viewBox="0 0 681.08123 362.75677"
   fill="none"
   stroke="none"
   stroke-linecap="square"
   stroke-miterlimit="10"
   id="svg1446"
   sodipodi:docname="Flowchart-arrays-read.svg"
   width="681.08124"
   height="362.75677"
   inkscape:version="1.0.2-2 (e86c870879, 2021-01-15)">
  <metadata
     id="metadata1452">
    <rdf:RDF>
      <cc:Work
         rdf:about="">
        <dc:format>image/svg+xml</dc:format>
        <dc:type
           rdf:resource="http://purl.org/dc/dcmitype/StillImage" />
        <dc:title></dc:title>
      </cc:Work>
    </rdf:RDF>
  </metadata>
  <defs
     id="defs1450" />
  <sodipodi:namedview
     pagecolor="#ffffff"
     bordercolor="#666666"
     borderopacity="1"
     objecttolerance="10"
     gridtolerance="10"
     guidetolerance="10"
     inkscape:pageopacity="0"
     inkscape:pageshadow="2"
     inkscape:window-width="1920"
     inkscape:window-height="1017"
     id="namedview1448"
     showgrid="false"
     fit-margin-top="0"
     fit-margin-left="0"
     fit-margin-right="0"
     fit-margin-bottom="0"
     inkscape:zoom="1.1129444"
     inkscape:cx="389.29986"
     inkscape:cy="50.794606"
     inkscape:window-x="-8"
     inkscape:window-y="-8"
     inkscape:window-maximized="1"
     inkscape:current-layer="g1444"
     inkscape:document-rotation="0" />
  <clipPath
     id="p.0">
    <path
       d="M 0,0 H 960 V 720 H 0 Z"
       clip-rule="nonzero"
       id="path1363" />
  </clipPath>
  <g
     clip-path="url(#p.0)"
     id="g1444"
     transform="translate(-15.25605,-93.408906)">
    <path
       fill="#000000"
       fill-opacity="0"
       d="M 0,0 H 960 V 720 H 0 Z"
       fill-rule="evenodd"
       id="path1366" />
    <path
       fill="#cfe2f3"
       d="m 145.33318,398.6496 h 89.14583 v 0 c 11.67835,0 21.14551,12.76349 21.14551,28.50803 0,15.74456 -9.46716,28.50805 -21.14551,28.50805 h -89.14583 v 0 c -11.67834,0 -21.14551,-12.76349 -21.14551,-28.50805 0,-15.74454 9.46717,-28.50803 21.14551,-28.50803 z"
       fill-rule="evenodd"
       id="path1374" />
    <path
       stroke="#000000"
       stroke-width="1"
       stroke-linejoin="round"
       stroke-linecap="butt"
       d="m 145.33318,398.6496 h 89.14583 v 0 c 11.67835,0 21.14551,12.76349 21.14551,28.50803 0,15.74456 -9.46716,28.50805 -21.14551,28.50805 h -89.14583 v 0 c -11.67834,0 -21.14551,-12.76349 -21.14551,-28.50805 0,-15.74454 9.46717,-28.50803 21.14551,-28.50803 z"
       fill-rule="evenodd"
       id="path1376" />
    <path
       fill="#000000"
       d="M 173.57869,436.75763 V 417.6795 h 12.875 v 2.25 h -10.34375 v 5.90625 h 8.95312 v 2.25 h -8.95312 v 8.67188 z M 189.43951,420.367 v -2.6875 h 2.34375 v 2.6875 z m 0,16.39063 V 422.9295 h 2.34375 v 13.82813 z m 5.90654,0 V 422.9295 h 2.10938 v 1.96875 q 1.53125,-2.28125 4.40625,-2.28125 1.25,0 2.29687,0.45313 1.04688,0.45312 1.5625,1.1875 0.53125,0.71875 0.73438,1.71875 0.125,0.65625 0.125,2.28125 v 8.5 h -2.34375 v -8.40625 q 0,-1.4375 -0.28125,-2.14063 -0.26563,-0.71875 -0.96875,-1.14062 -0.6875,-0.42188 -1.625,-0.42188 -1.48438,0 -2.57813,0.95313 -1.09375,0.95312 -1.09375,3.60937 v 7.54688 z"
       fill-rule="nonzero"
       id="path1378" />
    <path
       fill="#000000"
       fill-opacity="0"
       d="m 189.90683,150.45407 v 29.51181"
       fill-rule="evenodd"
       id="path1404" />
    <path
       fill="#000000"
       fill-opacity="0"
       d="m 189.90945,234.4042 v 29.51181"
       fill-rule="evenodd"
       id="path1410" />
    <path
       stroke="#000000"
       stroke-width="1"
       stroke-linejoin="round"
       stroke-linecap="butt"
       d="m 189.90945,234.4042 v 23.51181"
       fill-rule="evenodd"
       id="path1412" />
    <path
       fill="#000000"
       stroke="#000000"
       stroke-width="1"
       stroke-linecap="butt"
       d="m 188.25772,257.91602 1.65173,4.53809 1.65174,-4.53809 z"
       fill-rule="evenodd"
       id="path1414" />
    <path
       fill="#000000"
       fill-opacity="0"
       d="m 189.90608,358.08267 v 40.56692"
       fill-rule="evenodd"
       id="path1416" />
    <path
       stroke="#000000"
       stroke-width="1"
       stroke-linejoin="round"
       stroke-linecap="butt"
       d="m 189.90608,358.08267 v 34.56692"
       fill-rule="evenodd"
       id="path1418" />
    <path
       fill="#000000"
       stroke="#000000"
       stroke-width="1"
       stroke-linecap="butt"
       d="m 188.25435,392.6496 1.65173,4.53812 1.65174,-4.53812 z"
       fill-rule="evenodd"
       id="path1420" />
    <path
       fill="#cfe2f3"
       d="M 59.918636,367.0656 111.91338,265.98949 h 207.979 L 267.89763,367.0656 Z"
       fill-rule="evenodd"
       id="path1422" />
    <path
       stroke="#000000"
       stroke-width="1"
       stroke-linejoin="round"
       stroke-linecap="butt"
       d="M 59.918636,367.0656 111.91338,265.98949 h 207.979 L 267.89763,367.0656 Z"
       fill-rule="evenodd"
       id="path1424" />
    <path
       fill="#000000"
       d="m 120.88213,310.12756 7.31251,-19.07812 h 2.73437 l 7.79688,19.07812 h -2.875 l -2.21875,-5.78125 h -7.98439 l -2.09375,5.78125 z m 5.5,-7.82812 h 6.46876 l -2,-5.29688 q -0.90625,-2.40625 -1.34375,-3.95312 -0.375,1.84375 -1.03125,3.64062 z m 14.62327,7.82812 v -12 h -2.0625 v -1.82812 h 2.0625 v -1.46875 q 0,-1.39063 0.25,-2.0625 0.34375,-0.92188 1.1875,-1.48438 0.85937,-0.5625 2.39062,-0.5625 0.98438,0 2.1875,0.23438 l -0.34375,2.04687 q -0.73437,-0.14062 -1.39062,-0.14062 -1.0625,0 -1.51563,0.46875 -0.4375,0.45312 -0.4375,1.70312 v 1.26563 h 2.70313 v 1.82812 h -2.70313 v 12 z m 6.92419,0 v -12 h -2.0625 v -1.82812 h 2.0625 v -1.46875 q 0,-1.39063 0.25,-2.0625 0.34375,-0.92188 1.1875,-1.48438 0.85938,-0.5625 2.39063,-0.5625 0.98437,0 2.1875,0.23438 l -0.34375,2.04687 q -0.73438,-0.14062 -1.39063,-0.14062 -1.0625,0 -1.51562,0.46875 -0.4375,0.45312 -0.4375,1.70312 v 1.26563 h 2.70312 v 1.82812 h -2.70312 v 12 z m 6.85909,-16.39062 v -2.6875 h 2.34375 v 2.6875 z m 0,16.39062 v -13.82812 h 2.34375 v 13.82812 z m 14.93779,-5.0625 2.29687,0.29688 q -0.375,2.39062 -1.9375,3.73437 -1.54687,1.34375 -3.8125,1.34375 -2.84375,0 -4.5625,-1.84375 -1.71875,-1.85937 -1.71875,-5.32812 0,-2.23438 0.73438,-3.90625 0.75,-1.6875 2.26562,-2.53125 1.51563,-0.84375 3.29688,-0.84375 2.25,0 3.67187,1.14062 1.4375,1.14063 1.84375,3.23438 l -2.28125,0.35937 q -0.32812,-1.39062 -1.15625,-2.09375 -0.8125,-0.70312 -1.98437,-0.70312 -1.78125,0 -2.89063,1.26562 -1.09375,1.26563 -1.09375,4.01563 0,2.78125 1.0625,4.04687 1.0625,1.26563 2.78125,1.26563 1.39063,0 2.3125,-0.84375 0.92188,-0.85938 1.17188,-2.60938 z m 4.29687,5.0625 v -19.07812 h 2.34375 v 6.84375 q 1.64063,-1.90625 4.14063,-1.90625 1.54687,0 2.67187,0.60937 1.14063,0.60938 1.625,1.67188 0.48438,1.0625 0.48438,3.09375 v 8.76562 h -2.34375 v -8.76562 q 0,-1.75 -0.76563,-2.54688 -0.75,-0.8125 -2.15625,-0.8125 -1.03125,0 -1.95312,0.54688 -0.92188,0.54687 -1.3125,1.46875 -0.39063,0.92187 -0.39063,2.54687 v 7.5625 z m 24.29369,-4.45312 2.42187,0.29687 q -0.57812,2.125 -2.125,3.29688 -1.54687,1.17187 -3.95312,1.17187 -3.03125,0 -4.8125,-1.85937 -1.78125,-1.875 -1.78125,-5.25 0,-3.48438 1.79687,-5.40625 1.79688,-1.9375 4.67188,-1.9375 2.76562,0 4.51562,1.89062 1.76563,1.89063 1.76563,5.3125 0,0.20313 -0.0156,0.625 h -10.3125 q 0.14063,2.28125 1.29688,3.5 1.15625,1.20313 2.89062,1.20313 1.28125,0 2.1875,-0.67188 0.92188,-0.6875 1.45313,-2.17187 z m -7.6875,-3.78125 h 7.71875 q -0.15625,-1.75 -0.89063,-2.625 -1.125,-1.34375 -2.90625,-1.34375 -1.60937,0 -2.71875,1.07812 -1.09375,1.07813 -1.20312,2.89063 z m 13.02806,8.23437 v -13.82812 h 2.10937 v 2.09375 q 0.79688,-1.46875 1.48438,-1.9375 0.6875,-0.46875 1.5,-0.46875 1.1875,0 2.40625,0.76562 l -0.79688,2.17188 q -0.85937,-0.51563 -1.71875,-0.51563 -0.76562,0 -1.39062,0.46875 -0.60938,0.45313 -0.85938,1.28125 -0.39062,1.25 -0.39062,2.73438 v 7.23437 z m 9.54861,-11.15625 v -2.67187 h 2.67188 v 2.67187 z m 0,11.15625 v -2.67187 h 2.67188 v 2.67187 z"
       fill-rule="nonzero"
       id="path1426" />
    <path
       fill="#000000"
       d="m 124.83526,342.12756 h -2.17187 v -19.07812 h 2.34375 v 6.79687 q 1.48437,-1.85937 3.78125,-1.85937 1.28125,0 2.40625,0.51562 1.14063,0.51563 1.875,1.45313 0.75,0.92187 1.15625,2.25 0.42188,1.3125 0.42188,2.79687 0,3.5625 -1.76563,5.5 -1.75,1.9375 -4.21875,1.9375 -2.4375,0 -3.82813,-2.04687 z m -0.0312,-7.01562 q 0,2.48437 0.67188,3.59375 1.10937,1.8125 3,1.8125 1.53125,0 2.65625,-1.32813 1.125,-1.34375 1.125,-3.98437 0,-2.70313 -1.07812,-3.98438 -1.07813,-1.29687 -2.59375,-1.29687 -1.54688,0 -2.67188,1.32812 -1.10938,1.32813 -1.10938,3.85938 z m 11.82494,0.10937 q 0,-3.84375 2.125,-5.6875 1.78125,-1.54687 4.34375,-1.54687 2.85938,0 4.65625,1.875 1.8125,1.85937 1.8125,5.15625 0,2.67187 -0.79687,4.20312 -0.79688,1.53125 -2.32813,2.375 -1.53125,0.84375 -3.34375,0.84375 -2.89062,0 -4.6875,-1.85937 -1.78125,-1.85938 -1.78125,-5.35938 z m 2.40625,0 q 0,2.65625 1.15625,3.98438 1.15625,1.3125 2.90625,1.3125 1.75,0 2.90625,-1.32813 1.15625,-1.32812 1.15625,-4.04687 0,-2.5625 -1.17187,-3.89063 -1.15625,-1.32812 -2.89063,-1.32812 -1.75,0 -2.90625,1.32812 -1.15625,1.3125 -1.15625,3.96875 z m 11.71556,6.90625 5.0625,-7.1875 -4.67187,-6.64062 h 2.92187 l 2.125,3.25 q 0.59375,0.92187 0.96875,1.54687 0.5625,-0.85937 1.04688,-1.53125 l 2.32812,-3.26562 h 2.79688 l -4.78125,6.51562 5.15625,7.3125 h -2.89063 l -2.82812,-4.29687 -0.75,-1.15625 -3.64063,5.45312 z m 24.35938,-4.45312 2.42187,0.29687 q -0.57812,2.125 -2.125,3.29688 -1.54687,1.17187 -3.95312,1.17187 -3.03125,0 -4.8125,-1.85937 -1.78125,-1.875 -1.78125,-5.25 0,-3.48438 1.79687,-5.40625 1.79688,-1.9375 4.67188,-1.9375 2.76562,0 4.51562,1.89062 1.76563,1.89063 1.76563,5.3125 0,0.20313 -0.0156,0.625 h -10.3125 q 0.14063,2.28125 1.29688,3.5 1.15625,1.20313 2.89062,1.20313 1.28125,0 2.1875,-0.67188 0.92188,-0.6875 1.45313,-2.17187 z m -7.6875,-3.78125 h 7.71875 q -0.15625,-1.75 -0.89063,-2.625 -1.125,-1.34375 -2.90625,-1.34375 -1.60937,0 -2.71875,1.07812 -1.09375,1.07813 -1.20312,2.89063 z m 12.10619,4.10937 2.32812,-0.35937 q 0.1875,1.39062 1.07813,2.14062 0.89062,0.73438 2.5,0.73438 1.60937,0 2.39062,-0.65625 0.78125,-0.65625 0.78125,-1.54688 0,-0.79687 -0.6875,-1.25 -0.48437,-0.3125 -2.39062,-0.79687 -2.57813,-0.65625 -3.57813,-1.125 -1,-0.46875 -1.51562,-1.3125 -0.51563,-0.84375 -0.51563,-1.85938 0,-0.92187 0.42188,-1.70312 0.4375,-0.79688 1.15625,-1.3125 0.54687,-0.40625 1.48437,-0.6875 0.95313,-0.28125 2.03125,-0.28125 1.625,0 2.85938,0.46875 1.23437,0.46875 1.8125,1.28125 0.59375,0.79687 0.8125,2.14062 l -2.29688,0.3125 q -0.15625,-1.07812 -0.90625,-1.67187 -0.75,-0.59375 -2.10937,-0.59375 -1.60938,0 -2.3125,0.53125 -0.6875,0.53125 -0.6875,1.25 0,0.45312 0.29687,0.8125 0.28125,0.375 0.89063,0.625 0.35937,0.14062 2.07812,0.60937 2.48438,0.65625 3.46875,1.07813 0.98438,0.42187 1.53125,1.23437 0.5625,0.79688 0.5625,2 0,1.17188 -0.6875,2.21875 -0.67187,1.03125 -1.96875,1.59375 -1.28125,0.5625 -2.90625,0.5625 -2.70312,0 -4.125,-1.10937 -1.40625,-1.125 -1.79687,-3.32813 z m 14.32812,9.42188 v -24.375 h 5.15625 v 1.9375 h -2.8125 v 20.5 h 2.8125 v 1.9375 z m 6.70284,-14.70313 q 0,-3.39062 0.6875,-5.45312 0.70312,-2.0625 2.07812,-3.17188 1.375,-1.125 3.45313,-1.125 1.53125,0 2.6875,0.625 1.17187,0.60938 1.92187,1.78125 0.75,1.15625 1.17188,2.82813 0.4375,1.67187 0.4375,4.51562 0,3.35938 -0.6875,5.42188 -0.6875,2.0625 -2.0625,3.1875 -1.375,1.125 -3.46875,1.125 -2.76563,0 -4.32813,-1.98438 -1.89062,-2.375 -1.89062,-7.75 z m 2.40625,0 q 0,4.6875 1.09375,6.25 1.10937,1.5625 2.71875,1.5625 1.60937,0 2.70312,-1.5625 1.10938,-1.5625 1.10938,-6.25 0,-4.71875 -1.10938,-6.26562 -1.09375,-1.54688 -2.73437,-1.54688 -1.60938,0 -2.57813,1.35938 -1.20312,1.75 -1.20312,6.45312 z m 16.98118,14.70313 h -5.17187 v -1.9375 h 2.82812 v -20.5 h -2.82812 v -1.9375 h 5.17187 z"
       fill-rule="nonzero"
       id="path1428" />
    <path
       fill="#000000"
       fill-opacity="0"
       d="m 402.03674,275.937 h 293.80054 v 81.18109 H 402.03674 Z"
       fill-rule="evenodd"
       id="path1430" />
    <path
       stroke="#000000"
       stroke-width="1"
       stroke-linejoin="round"
       stroke-linecap="butt"
       stroke-dasharray="1, 3"
       d="m 402.03674,275.937 h 293.80054 v 81.18109 H 402.03674 Z"
       fill-rule="evenodd"
       id="path1432" />
    <path
       fill="#000000"
       d="m 411.0055,310.84756 6.95312,-18.125 h 2.59375 l 7.42188,18.125 h -2.73438 l -2.125,-5.48438 h -7.57812 l -1.98438,5.48438 z m 5.21875,-7.4375 h 6.15625 l -1.89063,-5.03125 q -0.875,-2.28125 -1.29687,-3.75 -0.34375,1.73437 -0.96875,3.45312 z m 13.9093,7.4375 v -11.40625 h -1.96875 v -1.73438 h 1.96875 v -1.39062 q 0,-1.32813 0.23438,-1.96875 0.32812,-0.85938 1.125,-1.39063 0.8125,-0.54687 2.28125,-0.54687 0.9375,0 2.07812,0.21875 l -0.34375,1.9375 q -0.6875,-0.125 -1.3125,-0.125 -1.01562,0 -1.4375,0.4375 -0.40625,0.4375 -0.40625,1.625 v 1.20312 h 2.54688 v 1.73438 h -2.54688 v 11.40625 z m 6.57929,0 v -11.40625 h -1.96875 v -1.73438 h 1.96875 v -1.39062 q 0,-1.32813 0.23437,-1.96875 0.32813,-0.85938 1.125,-1.39063 0.8125,-0.54687 2.28125,-0.54687 0.9375,0 2.07813,0.21875 l -0.34375,1.9375 q -0.6875,-0.125 -1.3125,-0.125 -1.01563,0 -1.4375,0.4375 -0.40625,0.4375 -0.40625,1.625 v 1.20312 h 2.54687 v 1.73438 h -2.54687 v 11.40625 z m 6.52133,-15.57813 v -2.54687 h 2.21875 v 2.54687 z m 0,15.57813 v -13.14063 h 2.21875 v 13.14063 z m 14.17398,-4.8125 2.1875,0.28125 q -0.34375,2.26562 -1.82813,3.54687 -1.48437,1.28125 -3.625,1.28125 -2.70312,0 -4.34375,-1.76562 -1.64062,-1.76563 -1.64062,-5.04688 0,-2.125 0.70312,-3.71875 0.71875,-1.59375 2.15625,-2.39062 1.4375,-0.8125 3.125,-0.8125 2.14063,0 3.5,1.09375 1.35938,1.07812 1.75,3.0625 l -2.17187,0.34375 q -0.29688,-1.32813 -1.09375,-1.98438 -0.78125,-0.67187 -1.89063,-0.67187 -1.6875,0 -2.73437,1.20312 -1.04688,1.20313 -1.04688,3.8125 0,2.64063 1.01563,3.84375 1.01562,1.20313 2.64062,1.20313 1.3125,0 2.1875,-0.79688 0.875,-0.8125 1.10938,-2.48437 z m 4.10156,4.8125 v -18.125 h 2.21875 v 6.5 q 1.5625,-1.8125 3.9375,-1.8125 1.45313,0 2.53125,0.57812 1.07813,0.57813 1.54688,1.59375 0.46875,1.01563 0.46875,2.9375 v 8.32813 h -2.23438 v -8.32813 q 0,-1.67187 -0.73437,-2.42187 -0.71875,-0.76563 -2.03125,-0.76563 -1,0 -1.875,0.51563 -0.85938,0.51562 -1.23438,1.39062 -0.375,0.875 -0.375,2.42188 v 7.1875 z m 23.07068,-4.23438 2.29688,0.29688 q -0.53125,2.01562 -2.01563,3.125 -1.46875,1.10937 -3.75,1.10937 -2.89062,0 -4.57812,-1.76562 -1.6875,-1.78125 -1.6875,-4.98438 0,-3.3125 1.70312,-5.14062 1.71875,-1.84375 4.4375,-1.84375 2.64063,0 4.29688,1.79687 1.67187,1.79688 1.67187,5.04688 0,0.20312 -0.0156,0.59375 h -9.78125 q 0.10937,2.17187 1.20312,3.32812 1.10938,1.14063 2.76563,1.14063 1.21875,0 2.07812,-0.64063 0.875,-0.64062 1.375,-2.0625 z m -7.3125,-3.59375 h 7.34375 q -0.15625,-1.65625 -0.84375,-2.48437 -1.0625,-1.28125 -2.75,-1.28125 -1.54687,0 -2.59375,1.03125 -1.03125,1.01562 -1.15625,2.73437 z m 19.56079,-3.89062 -0.625,-3.4375 v -2.96875 h 2.54688 v 2.96875 l -0.5625,3.4375 z m 4.09375,0 -0.60937,-3.4375 v -2.96875 h 2.53125 v 2.96875 l -0.59375,3.4375 z m 9.64725,9.73437 0.3125,1.95313 q -0.9375,0.20312 -1.67188,0.20312 -1.21875,0 -1.89062,-0.375 -0.65625,-0.39062 -0.9375,-1.01562 -0.26563,-0.625 -0.26563,-2.625 v -7.5625 h -1.64062 v -1.73438 h 1.64062 v -3.25 l 2.21875,-1.32812 v 4.57812 h 2.23438 v 1.73438 h -2.23438 v 7.6875 q 0,0.95312 0.10938,1.23437 0.125,0.26563 0.39062,0.42188 0.26563,0.15625 0.75,0.15625 0.375,0 0.98438,-0.0781 z m 11.16196,-2.25 2.29687,0.29688 q -0.53125,2.01562 -2.01562,3.125 -1.46875,1.10937 -3.75,1.10937 -2.89063,0 -4.57813,-1.76562 -1.6875,-1.78125 -1.6875,-4.98438 0,-3.3125 1.70313,-5.14062 1.71875,-1.84375 4.4375,-1.84375 2.64062,0 4.29687,1.79687 1.67188,1.79688 1.67188,5.04688 0,0.20312 -0.0156,0.59375 h -9.78125 q 0.10938,2.17187 1.20313,3.32812 1.10937,1.14063 2.76562,1.14063 1.21875,0 2.07813,-0.64063 0.875,-0.64062 1.375,-2.0625 z m -7.3125,-3.59375 h 7.34375 q -0.15625,-1.65625 -0.84375,-2.48437 -1.0625,-1.28125 -2.75,-1.28125 -1.54688,0 -2.59375,1.03125 -1.03125,1.01562 -1.15625,2.73437 z m 10.93005,7.82813 4.79688,-6.82813 -4.4375,-6.3125 h 2.78125 l 2.01562,3.09375 q 0.5625,0.875 0.92188,1.46875 0.53125,-0.82812 1,-1.45312 l 2.20312,-3.10938 h 2.65625 l -4.53125,6.1875 4.89063,6.95313 h -2.73438 l -2.70312,-4.07813 -0.71875,-1.10937 -3.45313,5.1875 z m 19.00781,-1.98438 0.3125,1.95313 q -0.9375,0.20312 -1.67187,0.20312 -1.21875,0 -1.89063,-0.375 -0.65625,-0.39062 -0.9375,-1.01562 -0.26562,-0.625 -0.26562,-2.625 v -7.5625 h -1.64063 v -1.73438 h 1.64063 v -3.25 l 2.21875,-1.32812 v 4.57812 h 2.23437 v 1.73438 h -2.23437 v 7.6875 q 0,0.95312 0.10937,1.23437 0.125,0.26563 0.39063,0.42188 0.26562,0.15625 0.75,0.15625 0.375,0 0.98437,-0.0781 z m 2.28699,-9.73437 -0.625,-3.4375 v -2.96875 h 2.54687 v 2.96875 l -0.5625,3.4375 z m 4.09375,0 -0.60938,-3.4375 v -2.96875 h 2.53125 v 2.96875 l -0.59375,3.4375 z m 16.07483,17.04687 q -1.84375,-2.32812 -3.125,-5.4375 -1.26563,-3.125 -1.26563,-6.45312 0,-2.95313 0.95313,-5.64063 1.10937,-3.125 3.4375,-6.23437 h 1.59375 q -1.5,2.57812 -1.96875,3.67187 -0.76563,1.70313 -1.1875,3.5625 -0.53125,2.3125 -0.53125,4.65625 0,5.9375 3.6875,11.875 z m 4.18445,-0.29687 v -18.17188 h 2.03125 v 1.71875 q 0.71875,-1 1.60937,-1.5 0.90625,-0.51562 2.1875,-0.51562 1.6875,0 2.96875,0.875 1.29688,0.85937 1.95313,2.4375 0.65625,1.57812 0.65625,3.45312 0,2.01563 -0.73438,3.64063 -0.71875,1.60937 -2.09375,2.46875 -1.375,0.85937 -2.90625,0.85937 -1.10937,0 -2,-0.46875 -0.875,-0.46875 -1.45312,-1.1875 v 6.39063 z m 2.01562,-11.53125 q 0,2.54687 1.01563,3.76562 1.03125,1.20313 2.5,1.20313 1.48437,0 2.53125,-1.25 1.0625,-1.26563 1.0625,-3.89063 0,-2.51562 -1.03125,-3.76562 -1.03125,-1.25 -2.46875,-1.25 -1.42188,0 -2.51563,1.32812 -1.09375,1.32813 -1.09375,3.85938 z m 12.03943,6.5 v -13.14063 h 2 v 2 q 0.78125,-1.40625 1.42188,-1.84375 0.65625,-0.45312 1.4375,-0.45312 1.125,0 2.28125,0.71875 l -0.76563,2.07812 q -0.8125,-0.48437 -1.64062,-0.48437 -0.71875,0 -1.3125,0.4375 -0.57813,0.4375 -0.82813,1.21875 -0.35937,1.1875 -0.35937,2.59375 v 6.875 z m 17.45014,-4.23438 2.29687,0.29688 q -0.53125,2.01562 -2.01562,3.125 -1.46875,1.10937 -3.75,1.10937 -2.89063,0 -4.57813,-1.76562 -1.6875,-1.78125 -1.6875,-4.98438 0,-3.3125 1.70313,-5.14062 1.71875,-1.84375 4.4375,-1.84375 2.64062,0 4.29687,1.79687 1.67188,1.79688 1.67188,5.04688 0,0.20312 -0.0156,0.59375 h -9.78125 q 0.10938,2.17187 1.20313,3.32812 1.10937,1.14063 2.76562,1.14063 1.21875,0 2.07813,-0.64063 0.875,-0.64062 1.375,-2.0625 z m -7.3125,-3.59375 h 7.34375 q -0.15625,-1.65625 -0.84375,-2.48437 -1.0625,-1.28125 -2.75,-1.28125 -1.54688,0 -2.59375,1.03125 -1.03125,1.01562 -1.15625,2.73437 z m 12.41442,7.82813 v -13.14063 h 1.98438 v 1.84375 q 0.625,-0.95312 1.64062,-1.54687 1.03125,-0.59375 2.34375,-0.59375 1.46875,0 2.39063,0.60937 0.9375,0.60938 1.32812,1.70313 1.54688,-2.3125 4.04688,-2.3125 1.95312,0 3,1.09375 1.0625,1.07812 1.0625,3.32812 v 9.01563 h -2.21875 v -8.28125 q 0,-1.32813 -0.21875,-1.90625 -0.21875,-0.59375 -0.78125,-0.95313 -0.5625,-0.35937 -1.32813,-0.35937 -1.39062,0 -2.3125,0.92187 -0.90625,0.92188 -0.90625,2.95313 v 7.625 h -2.23437 v -8.53125 q 0,-1.48438 -0.54688,-2.21875 -0.53125,-0.75 -1.78125,-0.75 -0.9375,0 -1.73437,0.5 -0.79688,0.48437 -1.15625,1.4375 -0.35938,0.95312 -0.35938,2.75 v 6.8125 z m 21.11414,-15.57813 v -2.54687 h 2.21875 v 2.54687 z m 0,15.57813 v -13.14063 h 2.21875 v 13.14063 z m 14.59583,-4.23438 2.29687,0.29688 q -0.53125,2.01562 -2.01562,3.125 -1.46875,1.10937 -3.75,1.10937 -2.89063,0 -4.57813,-1.76562 -1.6875,-1.78125 -1.6875,-4.98438 0,-3.3125 1.70313,-5.14062 1.71875,-1.84375 4.4375,-1.84375 2.64062,0 4.29687,1.79687 1.67188,1.79688 1.67188,5.04688 0,0.20312 -0.0156,0.59375 h -9.78125 q 0.10938,2.17187 1.20313,3.32812 1.10937,1.14063 2.76562,1.14063 1.21875,0 2.07813,-0.64063 0.875,-0.64062 1.375,-2.0625 z m -7.3125,-3.59375 h 7.34375 q -0.15625,-1.65625 -0.84375,-2.48437 -1.0625,-1.28125 -2.75,-1.28125 -1.54688,0 -2.59375,1.03125 -1.03125,1.01562 -1.15625,2.73437 z m 12.38317,7.82813 v -13.14063 h 2 v 2 q 0.78125,-1.40625 1.42188,-1.84375 0.65625,-0.45312 1.4375,-0.45312 1.125,0 2.28125,0.71875 l -0.76563,2.07812 q -0.8125,-0.48437 -1.64062,-0.48437 -0.71875,0 -1.3125,0.4375 -0.57813,0.4375 -0.82813,1.21875 -0.35937,1.1875 -0.35937,2.59375 v 6.875 z"
       fill-rule="nonzero"
       id="path1434" />
    <path
       fill="#000000"
       d="m 421.693,336.6132 2.29687,0.29687 q -0.53125,2.01563 -2.01562,3.125 -1.46875,1.10938 -3.75,1.10938 -2.89063,0 -4.57813,-1.76563 -1.6875,-1.78125 -1.6875,-4.98437 0,-3.3125 1.70313,-5.14063 1.71875,-1.84375 4.4375,-1.84375 2.64062,0 4.29687,1.79688 1.67188,1.79687 1.67188,5.04687 0,0.20313 -0.0156,0.59375 h -9.78125 q 0.10938,2.17188 1.20313,3.32813 1.10937,1.14062 2.76562,1.14062 1.21875,0 2.07813,-0.64062 0.875,-0.64063 1.375,-2.0625 z m -7.3125,-3.59375 h 7.34375 q -0.15625,-1.65625 -0.84375,-2.48438 -1.0625,-1.28125 -2.75,-1.28125 -1.54688,0 -2.59375,1.03125 -1.03125,1.01563 -1.15625,2.73438 z m 2.40625,-6.9375 1.64062,-3.46875 h 2.92188 l -2.71875,3.46875 z m 9.9613,14.76562 v -18.125 h 2.21875 v 18.125 z m 14.65836,-4.23437 2.29687,0.29687 q -0.53125,2.01563 -2.01562,3.125 -1.46875,1.10938 -3.75,1.10938 -2.89063,0 -4.57813,-1.76563 -1.6875,-1.78125 -1.6875,-4.98437 0,-3.3125 1.70313,-5.14063 1.71875,-1.84375 4.4375,-1.84375 2.64062,0 4.29687,1.79688 1.67188,1.79687 1.67188,5.04687 0,0.20313 -0.0156,0.59375 h -9.78125 q 0.10938,2.17188 1.20313,3.32813 1.10937,1.14062 2.76562,1.14062 1.21875,0 2.07813,-0.64062 0.875,-0.64063 1.375,-2.0625 z m -7.3125,-3.59375 h 7.34375 q -0.15625,-1.65625 -0.84375,-2.48438 -1.0625,-1.28125 -2.75,-1.28125 -1.54688,0 -2.59375,1.03125 -1.03125,1.01563 -1.15625,2.73438 z m 2.40625,-6.9375 1.64062,-3.46875 h 2.92188 l -2.71875,3.46875 z m 10.00818,14.76562 v -13.14062 h 1.98437 v 1.84375 q 0.625,-0.95313 1.64063,-1.54688 1.03125,-0.59375 2.34375,-0.59375 1.46875,0 2.39062,0.60938 0.9375,0.60937 1.32813,1.70312 1.54687,-2.3125 4.04687,-2.3125 1.95313,0 3,1.09375 1.0625,1.07813 1.0625,3.32813 v 9.01562 h -2.21875 v -8.28125 q 0,-1.32812 -0.21875,-1.90625 -0.21875,-0.59375 -0.78125,-0.95312 -0.5625,-0.35938 -1.32812,-0.35938 -1.39063,0 -2.3125,0.92188 -0.90625,0.92187 -0.90625,2.95312 v 7.625 h -2.23438 v -8.53125 q 0,-1.48437 -0.54687,-2.21875 -0.53125,-0.75 -1.78125,-0.75 -0.9375,0 -1.73438,0.5 -0.79687,0.48438 -1.15625,1.4375 -0.35937,0.95313 -0.35937,2.75 v 6.8125 z m 30.08291,-4.23437 2.29688,0.29687 q -0.53125,2.01563 -2.01563,3.125 -1.46875,1.10938 -3.75,1.10938 -2.89062,0 -4.57812,-1.76563 -1.6875,-1.78125 -1.6875,-4.98437 0,-3.3125 1.70312,-5.14063 1.71875,-1.84375 4.4375,-1.84375 2.64063,0 4.29688,1.79688 1.67187,1.79687 1.67187,5.04687 0,0.20313 -0.0156,0.59375 h -9.78125 q 0.10937,2.17188 1.20312,3.32813 1.10938,1.14062 2.76563,1.14062 1.21875,0 2.07812,-0.64062 0.875,-0.64063 1.375,-2.0625 z m -7.3125,-3.59375 h 7.34375 q -0.15625,-1.65625 -0.84375,-2.48438 -1.0625,-1.28125 -2.75,-1.28125 -1.54687,0 -2.59375,1.03125 -1.03125,1.01563 -1.15625,2.73438 z m 12.41443,7.82812 v -13.14062 h 2 v 1.875 q 1.45313,-2.17188 4.1875,-2.17188 1.1875,0 2.17188,0.4375 1,0.42188 1.48437,1.125 0.5,0.6875 0.70313,1.64063 0.125,0.60937 0.125,2.15625 v 8.07812 h -2.23438 v -7.98437 q 0,-1.35938 -0.26562,-2.03125 -0.25,-0.6875 -0.90625,-1.07813 -0.65625,-0.40625 -1.54688,-0.40625 -1.42187,0 -2.46875,0.90625 -1.03125,0.89063 -1.03125,3.42188 v 7.17187 z m 18.94568,-1.98437 0.3125,1.95312 q -0.9375,0.20313 -1.67187,0.20313 -1.21875,0 -1.89063,-0.375 -0.65625,-0.39063 -0.9375,-1.01563 -0.26562,-0.625 -0.26562,-2.625 v -7.5625 h -1.64063 v -1.73437 h 1.64063 v -3.25 l 2.21875,-1.32813 v 4.57813 h 2.23437 v 1.73437 h -2.23437 v 7.6875 q 0,0.95313 0.10937,1.23438 0.125,0.26562 0.39063,0.42187 0.26562,0.15625 0.75,0.15625 0.375,0 0.98437,-0.0781 z m 17.73017,1.98437 v -1.65625 q -1.25,1.95313 -3.67188,1.95313 -1.5625,0 -2.89059,-0.85938 -1.3125,-0.875 -2.04688,-2.42187 -0.71875,-1.54688 -0.71875,-3.5625 0,-1.96875 0.65625,-3.5625 0.65625,-1.60938 1.96875,-2.46875 1.31247,-0.85938 2.93747,-0.85938 1.1875,0 2.10938,0.51563 0.9375,0.5 1.51562,1.29687 v -6.5 h 2.20313 v 18.125 z m -7.03122,-6.54687 q 0,2.51562 1.06247,3.76562 1.0625,1.25 2.51562,1.25 1.45313,0 2.46875,-1.1875 1.03125,-1.20312 1.03125,-3.65625 0,-2.6875 -1.04687,-3.95312 -1.03125,-1.26563 -2.5625,-1.26563 -1.48438,0 -2.48438,1.21875 -0.98434,1.20313 -0.98434,3.82813 z m 21.21127,6.54687 v -1.92187 q -1.53125,2.21875 -4.17187,2.21875 -1.15625,0 -2.17188,-0.4375 -1,-0.45313 -1.5,-1.125 -0.48437,-0.67188 -0.6875,-1.65625 -0.125,-0.65625 -0.125,-2.07813 v -8.14062 h 2.21875 v 7.29687 q 0,1.73438 0.14063,2.34375 0.20312,0.875 0.875,1.375 0.6875,0.5 1.6875,0.5 1.01562,0 1.89062,-0.5 0.875,-0.51562 1.23438,-1.40625 0.375,-0.89062 0.375,-2.5625 v -7.04687 h 2.21875 v 13.14062 z m 17.37329,-1.98437 0.3125,1.95312 q -0.9375,0.20313 -1.67187,0.20313 -1.21875,0 -1.89063,-0.375 -0.65625,-0.39063 -0.9375,-1.01563 -0.26562,-0.625 -0.26562,-2.625 v -7.5625 h -1.64063 v -1.73437 h 1.64063 v -3.25 l 2.21875,-1.32813 v 4.57813 h 2.23437 v 1.73437 H 547.688 v 7.6875 q 0,0.95313 0.10937,1.23438 0.125,0.26562 0.39063,0.42187 0.26562,0.15625 0.75,0.15625 0.375,0 0.98437,-0.0781 z m 10.74011,0.35937 q -1.23437,1.0625 -2.375,1.5 -1.14062,0.42188 -2.45312,0.42188 -2.17188,0 -3.32813,-1.04688 -1.15625,-1.0625 -1.15625,-2.71875 0,-0.95312 0.4375,-1.75 0.4375,-0.79687 1.14063,-1.28125 0.71875,-0.48437 1.60937,-0.73437 0.65625,-0.17188 1.96875,-0.32813 2.70313,-0.32812 3.96875,-0.76562 0.0156,-0.46875 0.0156,-0.59375 0,-1.35938 -0.625,-1.90625 -0.85938,-0.76563 -2.53125,-0.76563 -1.57813,0 -2.32813,0.5625 -0.75,0.54688 -1.10937,1.9375 l -2.17188,-0.29687 q 0.29688,-1.39063 0.96875,-2.25 0.6875,-0.85938 1.96875,-1.32813 1.29688,-0.46875 2.98438,-0.46875 1.6875,0 2.73437,0.40625 1.04688,0.39063 1.54688,1 0.5,0.59375 0.6875,1.5 0.125,0.57813 0.125,2.0625 v 2.96875 q 0,3.09375 0.14062,3.92188 0.14063,0.82812 0.5625,1.57812 h -2.32812 q -0.34375,-0.6875 -0.45313,-1.625 z m -0.1875,-4.96875 q -1.20312,0.5 -3.625,0.84375 -1.375,0.20313 -1.95312,0.45313 -0.5625,0.23437 -0.875,0.71875 -0.29688,0.46875 -0.29688,1.04687 0,0.89063 0.67188,1.48438 0.67187,0.59375 1.96875,0.59375 1.28125,0 2.28125,-0.5625 1,-0.5625 1.48437,-1.53125 0.34375,-0.75 0.34375,-2.23438 z m 7.75818,6.59375 h -2.0625 v -18.125 h 2.23438 v 6.46875 q 1.40625,-1.78125 3.59375,-1.78125 1.20312,0 2.28125,0.5 1.09375,0.48438 1.78125,1.375 0.70312,0.875 1.09375,2.125 0.40625,1.25 0.40625,2.67188 0,3.375 -1.67188,5.21875 -1.67187,1.84375 -4,1.84375 -2.32812,0 -3.65625,-1.9375 z m -0.0156,-6.67187 q 0,2.375 0.64062,3.42187 1.04688,1.71875 2.84375,1.71875 1.45313,0 2.51563,-1.26562 1.0625,-1.26563 1.0625,-3.78125 0,-2.57813 -1.01563,-3.79688 -1.01562,-1.21875 -2.46875,-1.21875 -1.45312,0 -2.51562,1.26563 -1.0625,1.26562 -1.0625,3.65625 z m 12.00818,6.67187 v -18.125 h 2.21875 v 18.125 z m 14.65832,-4.23437 2.29688,0.29687 q -0.53125,2.01563 -2.01563,3.125 -1.46875,1.10938 -3.75,1.10938 -2.89062,0 -4.57812,-1.76563 -1.6875,-1.78125 -1.6875,-4.98437 0,-3.3125 1.70312,-5.14063 1.71875,-1.84375 4.4375,-1.84375 2.64063,0 4.29688,1.79688 1.67187,1.79687 1.67187,5.04687 0,0.20313 -0.0156,0.59375 h -9.78125 q 0.10937,2.17188 1.20312,3.32813 1.10938,1.14062 2.76563,1.14062 1.21875,0 2.07812,-0.64062 0.875,-0.64063 1.375,-2.0625 z m -7.3125,-3.59375 h 7.34375 q -0.15625,-1.65625 -0.84375,-2.48438 -1.0625,-1.28125 -2.75,-1.28125 -1.54687,0 -2.59375,1.03125 -1.03125,1.01563 -1.15625,2.73438 z m 20.97693,6.20312 q -1.23437,1.0625 -2.375,1.5 -1.14062,0.42188 -2.45312,0.42188 -2.17188,0 -3.32813,-1.04688 -1.15625,-1.0625 -1.15625,-2.71875 0,-0.95312 0.4375,-1.75 0.4375,-0.79687 1.14063,-1.28125 0.71875,-0.48437 1.60937,-0.73437 0.65625,-0.17188 1.96875,-0.32813 2.70313,-0.32812 3.96875,-0.76562 0.0156,-0.46875 0.0156,-0.59375 0,-1.35938 -0.625,-1.90625 -0.85938,-0.76563 -2.53125,-0.76563 -1.57813,0 -2.32813,0.5625 -0.75,0.54688 -1.10937,1.9375 l -2.17188,-0.29687 q 0.29688,-1.39063 0.96875,-2.25 0.6875,-0.85938 1.96875,-1.32813 1.29688,-0.46875 2.98438,-0.46875 1.6875,0 2.73437,0.40625 1.04688,0.39063 1.54688,1 0.5,0.59375 0.6875,1.5 0.125,0.57813 0.125,2.0625 v 2.96875 q 0,3.09375 0.14062,3.92188 0.14063,0.82812 0.5625,1.57812 h -2.32812 q -0.34375,-0.6875 -0.45313,-1.625 z m -0.1875,-4.96875 q -1.20312,0.5 -3.625,0.84375 -1.375,0.20313 -1.95312,0.45313 -0.5625,0.23437 -0.875,0.71875 -0.29688,0.46875 -0.29688,1.04687 0,0.89063 0.67188,1.48438 0.67187,0.59375 1.96875,0.59375 1.28125,0 2.28125,-0.5625 1,-0.5625 1.48437,-1.53125 0.34375,-0.75 0.34375,-2.23438 z m 14.32068,6.59375 v -1.92187 q -1.53125,2.21875 -4.17188,2.21875 -1.15625,0 -2.17187,-0.4375 -1,-0.45313 -1.5,-1.125 -0.48438,-0.67188 -0.6875,-1.65625 -0.125,-0.65625 -0.125,-2.07813 v -8.14062 h 2.21875 v 7.29687 q 0,1.73438 0.14062,2.34375 0.20313,0.875 0.875,1.375 0.6875,0.5 1.6875,0.5 1.01563,0 1.89063,-0.5 0.875,-0.51562 1.23437,-1.40625 0.375,-0.89062 0.375,-2.5625 v -7.04687 h 2.21875 v 13.14062 z m 6.93005,5.32813 h -1.59375 q 3.70313,-5.9375 3.70313,-11.875 0,-2.32813 -0.53125,-4.625 -0.42188,-1.84375 -1.17188,-3.5625 -0.48437,-1.10938 -2,-3.70313 h 1.59375 q 2.32813,3.10938 3.4375,6.23438 0.95313,2.6875 0.95313,5.64062 0,3.32813 -1.28125,6.45313 -1.28125,3.10937 -3.10938,5.4375 z"
       fill-rule="nonzero"
       id="path1436" />
    <path
       fill="#000000"
       fill-opacity="0"
       d="M 402.03674,316.52756 H 293.87927"
       fill-rule="evenodd"
       id="path1438" />
    <path
       stroke="#000000"
       stroke-width="1"
       stroke-linejoin="round"
       stroke-linecap="butt"
       d="M 402.03674,316.52756 H 299.87927"
       fill-rule="evenodd"
       id="path1440" />
    <path
       fill="#000000"
       stroke="#000000"
       stroke-width="1"
       stroke-linecap="butt"
       d="m 299.87927,314.87582 -4.53812,1.65173 4.53812,1.65174 z"
       fill-rule="evenodd"
       id="path1442" />
    <path
       fill="#cfe2f3"
       d="m 149.48941,93.908906 h 82.58986 v 0 c 10.81949,0 19.59042,12.763484 19.59042,28.508034 0,15.74455 -8.77093,28.50803 -19.59042,28.50803 h -82.58986 v 0 c -10.81949,0 -19.59042,-12.76348 -19.59042,-28.50803 0,-15.74455 8.77093,-28.508034 19.59042,-28.508034 z"
       fill-rule="evenodd"
       id="path2135" />
    <path
       stroke="#000000"
       stroke-width="1"
       stroke-linejoin="round"
       stroke-linecap="butt"
       d="m 149.48941,93.908906 h 82.58986 v 0 c 10.81949,0 19.59042,12.763484 19.59042,28.508034 0,15.74455 -8.77093,28.50803 -19.59042,28.50803 h -82.58986 v 0 c -10.81949,0 -19.59042,-12.76348 -19.59042,-28.50803 0,-15.74455 8.77093,-28.508034 19.59042,-28.508034 z"
       fill-rule="evenodd"
       id="path2137" />
    <path
       fill="#000000"
       d="m 152.84294,132.01694 v -19.07813 h 6.5625 q 2.23437,0 3.40625,0.26563 1.64062,0.375 2.79687,1.375 1.5,1.26562 2.25,3.25 0.75,1.98437 0.75,4.54687 0,2.17188 -0.51562,3.85938 -0.5,1.67187 -1.29688,2.78125 -0.78125,1.09375 -1.73437,1.71875 -0.9375,0.625 -2.28125,0.95312 -1.32813,0.32813 -3.0625,0.32813 z m 2.51562,-2.25 h 4.07813 q 1.89062,0 2.95312,-0.34375 1.07813,-0.35938 1.71875,-1 0.89063,-0.89063 1.39063,-2.40625 0.51562,-1.51563 0.51562,-3.6875 0,-2.98438 -0.98437,-4.59375 -0.98438,-1.60938 -2.39063,-2.15625 -1.01562,-0.39063 -3.26562,-0.39063 h -4.01563 z m 25.89092,-2.20313 2.42187,0.29688 q -0.57812,2.125 -2.125,3.29687 -1.54687,1.17188 -3.95312,1.17188 -3.03125,0 -4.8125,-1.85938 -1.78125,-1.875 -1.78125,-5.25 0,-3.48437 1.79687,-5.40625 1.79688,-1.9375 4.67188,-1.9375 2.76562,0 4.51562,1.89063 1.76563,1.89062 1.76563,5.3125 0,0.20312 -0.0156,0.625 h -10.3125 q 0.14063,2.28125 1.29688,3.5 1.15625,1.20312 2.89062,1.20312 1.28125,0 2.1875,-0.67187 0.92188,-0.6875 1.45313,-2.17188 z m -7.6875,-3.78125 h 7.71875 q -0.15625,-1.75 -0.89063,-2.625 -1.125,-1.34375 -2.90625,-1.34375 -1.60937,0 -2.71875,1.07813 -1.09375,1.07812 -1.20312,2.89062 z m 2.51562,-7.3125 1.73438,-3.64062 h 3.0625 l -2.85938,3.64062 z m 10.52807,20.84375 v -19.125 h 2.14062 v 1.79688 q 0.75,-1.04688 1.70313,-1.57813 0.95312,-0.53125 2.3125,-0.53125 1.76562,0 3.10937,0.92188 1.35938,0.90625 2.04688,2.5625 0.6875,1.65625 0.6875,3.64062 0,2.125 -0.76563,3.82813 -0.75,1.6875 -2.20312,2.59375 -1.45313,0.90625 -3.04688,0.90625 -1.17187,0 -2.10937,-0.48438 -0.92188,-0.5 -1.53125,-1.26562 v 6.73437 z m 2.125,-12.125 q 0,2.65625 1.07812,3.9375 1.09375,1.28125 2.625,1.28125 1.5625,0 2.67188,-1.3125 1.10937,-1.32812 1.10937,-4.10937 0,-2.64063 -1.09375,-3.95313 -1.07812,-1.3125 -2.59375,-1.3125 -1.48437,0 -2.64062,1.40625 -1.15625,1.39063 -1.15625,4.0625 z m 21.73118,5.125 q -1.3125,1.10938 -2.51562,1.5625 -1.20313,0.45313 -2.57813,0.45313 -2.28125,0 -3.5,-1.10938 -1.21875,-1.10937 -1.21875,-2.84375 0,-1.01562 0.45313,-1.85937 0.46875,-0.84375 1.21875,-1.34375 0.75,-0.51563 1.6875,-0.76563 0.6875,-0.1875 2.07812,-0.35937 2.82813,-0.32813 4.17188,-0.79688 0.0156,-0.48437 0.0156,-0.625 0,-1.42187 -0.65625,-2.01562 -0.90625,-0.79688 -2.67187,-0.79688 -1.65625,0 -2.45313,0.59375 -0.78125,0.57813 -1.15625,2.04688 l -2.29687,-0.3125 q 0.3125,-1.46875 1.03125,-2.375 0.71875,-0.90625 2.0625,-1.39063 1.35937,-0.5 3.14062,-0.5 1.78125,0 2.875,0.42188 1.10938,0.42187 1.625,1.04687 0.53125,0.625 0.73438,1.59375 0.125,0.59375 0.125,2.15625 v 3.125 q 0,3.26563 0.14062,4.14063 0.15625,0.85937 0.59375,1.65625 h -2.4375 q -0.375,-0.73438 -0.46875,-1.70313 z m -0.20312,-5.23437 q -1.26563,0.51562 -3.82813,0.89062 -1.4375,0.20313 -2.04687,0.46875 -0.59375,0.25 -0.92188,0.75 -0.3125,0.5 -0.3125,1.125 0,0.9375 0.70313,1.5625 0.70312,0.625 2.07812,0.625 1.34375,0 2.39063,-0.59375 1.0625,-0.59375 1.5625,-1.625 0.375,-0.79687 0.375,-2.34375 z m 5.98118,6.9375 v -13.82813 h 2.10938 v 2.09375 q 0.79687,-1.46875 1.48437,-1.9375 0.6875,-0.46875 1.5,-0.46875 1.1875,0 2.40625,0.76563 l -0.79687,2.17187 q -0.85938,-0.51562 -1.71875,-0.51562 -0.76563,0 -1.39063,0.46875 -0.60937,0.45312 -0.85937,1.28125 -0.39063,1.25 -0.39063,2.73437 v 7.23438 z m 14.01737,-2.09375 0.32812,2.0625 q -0.98437,0.21875 -1.76562,0.21875 -1.26563,0 -1.96875,-0.40625 -0.70313,-0.40625 -1,-1.0625 -0.28125,-0.65625 -0.28125,-2.76563 v -7.95312 h -1.71875 v -1.82813 h 1.71875 v -3.42187 l 2.32812,-1.40625 v 4.82812 h 2.35938 v 1.82813 h -2.35938 v 8.07812 q 0,1 0.125,1.29688 0.125,0.28125 0.40625,0.45312 0.28125,0.17188 0.79688,0.17188 0.39062,0 1.03125,-0.0937 z"
       fill-rule="nonzero"
       id="path2139" />
    <path
       fill="#cfe2f3"
       d="m 15.84802,178.47793 h 348.15327 v 54.4252 H 15.84802 Z"
       fill-rule="evenodd"
       id="path2147"
       style="stroke-width:1.18394" />
    <path
       fill="#000000"
       fill-opacity="0"
       d="m 46.89494,178.47793 v 54.4252 M 15.84802,185.28108 h 248.37533"
       fill-rule="evenodd"
       id="path2149" />
    <path
       fill="#000000"
       fill-opacity="0"
       d="m 15.84802,178.47793 h 248.37533 v 54.4252 H 15.84802 Z"
       fill-rule="evenodd"
       id="path2151" />
    <path
       stroke="#000000"
       stroke-width="1.18303"
       stroke-linejoin="round"
       stroke-linecap="butt"
       d="m 59.29989,178.47793 v 54.4252 M 15.84802,185.28108 h 347.61499"
       fill-rule="evenodd"
       id="path2153" />
    <path
       stroke="#000000"
       stroke-width="1.18394"
       stroke-linejoin="round"
       stroke-linecap="butt"
       d="m 15.84802,178.47793 h 348.15327 v 54.4252 H 15.84802 Z"
       fill-rule="evenodd"
       id="path2155" />
    <path
       fill="#000000"
       fill-opacity="0"
       d="M 190.78435,150.92497 V 177.8541"
       fill-rule="evenodd"
       id="path2165" />
    <path
       stroke="#000000"
       stroke-width="1"
       stroke-linejoin="round"
       stroke-linecap="butt"
       d="M 190.78435,150.92497 V 171.8541"
       fill-rule="evenodd"
       id="path2167" />
    <path
       fill="#000000"
       stroke="#000000"
       stroke-width="1"
       stroke-linecap="butt"
       d="m 189.13261,171.85411 1.65173,4.53809 1.65174,-4.53809 z"
       fill-rule="evenodd"
       id="path2169" />
    <text
       xml:space="preserve"
       style="font-size:26.6667px;line-height:1.25;font-family:Arial;-inkscape-font-specification:Arial;fill:#000000;fill-opacity:1"
       x="70.232231"
       y="217.79161"
       id="text1999"><tspan
         sodipodi:role="line"
         id="tspan1997"
         x="70.232231"
         y="217.79161">boxes = [&quot;text&quot;, true, 39]</tspan></text>
    <path
       stroke="#000000"
       stroke-width="1"
       stroke-linejoin="round"
       stroke-linecap="butt"
       d="m 189.90945,234.4042 v 23.51181"
       fill-rule="evenodd"
       id="path2203-8" />
    <path
       fill="#000000"
       stroke="#000000"
       stroke-width="1"
       stroke-linecap="butt"
       d="m 188.25772,257.91601 1.65173,4.53809 1.65174,-4.53809 z"
       fill-rule="evenodd"
       id="path2205-4" />
  </g>
</svg>
