<?xml version="1.0" encoding="UTF-8" standalone="no"?>
<svg
   xmlns:dc="http://purl.org/dc/elements/1.1/"
   xmlns:cc="http://creativecommons.org/ns#"
   xmlns:rdf="http://www.w3.org/1999/02/22-rdf-syntax-ns#"
   xmlns:svg="http://www.w3.org/2000/svg"
   xmlns="http://www.w3.org/2000/svg"
   xmlns:sodipodi="http://sodipodi.sourceforge.net/DTD/sodipodi-0.dtd"
   xmlns:inkscape="http://www.inkscape.org/namespaces/inkscape"
   version="1.1"
   viewBox="0 0 347.52231 321.53577"
   fill="none"
   stroke="none"
   stroke-linecap="square"
   stroke-miterlimit="10"
   id="svg9682"
   sodipodi:docname="Flowchart-arrays-create.svg"
   width="347.52231"
   height="321.53577"
   inkscape:version="1.0.2-2 (e86c870879, 2021-01-15)">
  <metadata
     id="metadata9688">
    <rdf:RDF>
      <cc:Work
         rdf:about="">
        <dc:format>image/svg+xml</dc:format>
        <dc:type
           rdf:resource="http://purl.org/dc/dcmitype/StillImage" />
        <dc:title></dc:title>
      </cc:Work>
    </rdf:RDF>
  </metadata>
  <defs
     id="defs9686" />
  <sodipodi:namedview
     pagecolor="#ffffff"
     bordercolor="#666666"
     borderopacity="1"
     objecttolerance="10"
     gridtolerance="10"
     guidetolerance="10"
     inkscape:pageopacity="0"
     inkscape:pageshadow="2"
     inkscape:window-width="1920"
     inkscape:window-height="1017"
     id="namedview9684"
     showgrid="false"
     fit-margin-top="0"
     fit-margin-left="0"
     fit-margin-right="0"
     fit-margin-bottom="0"
     inkscape:zoom="1.1425371"
     inkscape:cx="463.85171"
     inkscape:cy="312.91145"
     inkscape:window-x="-8"
     inkscape:window-y="-8"
     inkscape:window-maximized="1"
     inkscape:current-layer="svg9682" />
  <clipPath
     id="p.0">
    <path
       d="M 0,0 H 960 V 720 H 0 Z"
       clip-rule="nonzero"
       id="path9627" />
  </clipPath>
  <g
     clip-path="url(#p.0)"
     id="g9680"
     transform="translate(-16.148294,-12.07874)">
    <path
       fill="#000000"
       fill-opacity="0"
       d="M 0,0 H 960 V 720 H 0 Z"
       fill-rule="evenodd"
       id="path9630" />
    <path
       fill="#cfe2f3"
       d="m 148.61142,12.07874 h 82.58986 v 0 c 10.81949,0 19.59042,12.76348 19.59042,28.508034 0,15.744549 -8.77093,28.50803 -19.59042,28.50803 h -82.58986 v 0 c -10.81949,0 -19.59042,-12.763481 -19.59042,-28.50803 0,-15.744553 8.77093,-28.508034 19.59042,-28.508034 z"
       fill-rule="evenodd"
       id="path9632" />
    <path
       stroke="#000000"
       stroke-width="1"
       stroke-linejoin="round"
       stroke-linecap="butt"
       d="m 148.61142,12.07874 h 82.58986 v 0 c 10.81949,0 19.59042,12.76348 19.59042,28.508034 0,15.744549 -8.77093,28.50803 -19.59042,28.50803 h -82.58986 v 0 c -10.81949,0 -19.59042,-12.763481 -19.59042,-28.50803 0,-15.744553 8.77093,-28.508034 19.59042,-28.508034 z"
       fill-rule="evenodd"
       id="path9634" />
    <path
       fill="#000000"
       d="M 151.96495,50.18677 V 31.108645 h 6.5625 q 2.23437,0 3.40625,0.265625 1.64062,0.375 2.79687,1.375 1.5,1.265625 2.25,3.25 0.75,1.984375 0.75,4.546875 0,2.171875 -0.51562,3.859375 -0.5,1.671875 -1.29688,2.78125 -0.78125,1.09375 -1.73437,1.71875 -0.9375,0.625 -2.28125,0.953125 -1.32813,0.328125 -3.0625,0.328125 z m 2.51562,-2.25 h 4.07813 q 1.89062,0 2.95312,-0.34375 1.07813,-0.359375 1.71875,-1 0.89063,-0.890625 1.39063,-2.40625 0.51562,-1.515625 0.51562,-3.6875 0,-2.984375 -0.98437,-4.59375 -0.98438,-1.609375 -2.39063,-2.15625 -1.01562,-0.390625 -3.26562,-0.390625 h -4.01563 z m 25.89092,-2.203125 2.42187,0.296875 q -0.57812,2.125 -2.125,3.296875 -1.54687,1.171875 -3.95312,1.171875 -3.03125,0 -4.8125,-1.859375 -1.78125,-1.875 -1.78125,-5.25 0,-3.484375 1.79687,-5.40625 1.79688,-1.9375 4.67188,-1.9375 2.76562,0 4.51562,1.890625 1.76563,1.890625 1.76563,5.3125 0,0.203125 -0.0156,0.625 h -10.3125 q 0.14063,2.28125 1.29688,3.5 1.15625,1.203125 2.89062,1.203125 1.28125,0 2.1875,-0.671875 0.92188,-0.6875 1.45313,-2.171875 z m -7.6875,-3.78125 h 7.71875 q -0.15625,-1.75 -0.89063,-2.625 -1.125,-1.34375 -2.90625,-1.34375 -1.60937,0 -2.71875,1.078125 -1.09375,1.078125 -1.20312,2.890625 z m 2.51562,-7.3125 1.73438,-3.640625 h 3.0625 l -2.85938,3.640625 z m 10.52807,20.84375 v -19.125 h 2.14062 v 1.796875 q 0.75,-1.046875 1.70313,-1.578125 0.95312,-0.53125 2.3125,-0.53125 1.76562,0 3.10937,0.921875 1.35938,0.90625 2.04688,2.5625 0.6875,1.65625 0.6875,3.640625 0,2.125 -0.76563,3.828125 -0.75,1.6875 -2.20312,2.59375 -1.45313,0.90625 -3.04688,0.90625 -1.17187,0 -2.10937,-0.484375 -0.92188,-0.5 -1.53125,-1.265625 v 6.734375 z m 2.125,-12.125 q 0,2.65625 1.07812,3.9375 1.09375,1.28125 2.625,1.28125 1.5625,0 2.67188,-1.3125 1.10937,-1.328125 1.10937,-4.109375 0,-2.640625 -1.09375,-3.953125 -1.07812,-1.3125 -2.59375,-1.3125 -1.48437,0 -2.64062,1.40625 -1.15625,1.390625 -1.15625,4.0625 z m 21.73118,5.125 q -1.3125,1.109375 -2.51562,1.5625 -1.20313,0.453125 -2.57813,0.453125 -2.28125,0 -3.5,-1.109375 -1.21875,-1.109375 -1.21875,-2.84375 0,-1.015625 0.45313,-1.859375 0.46875,-0.84375 1.21875,-1.34375 0.75,-0.515625 1.6875,-0.765625 0.6875,-0.1875 2.07812,-0.359375 2.82813,-0.328125 4.17188,-0.796875 0.0156,-0.484375 0.0156,-0.625 0,-1.421875 -0.65625,-2.015625 -0.90625,-0.796875 -2.67187,-0.796875 -1.65625,0 -2.45313,0.59375 -0.78125,0.578125 -1.15625,2.046875 l -2.29687,-0.3125 q 0.3125,-1.46875 1.03125,-2.375 0.71875,-0.90625 2.0625,-1.390625 1.35937,-0.5 3.14062,-0.5 1.78125,0 2.875,0.421875 1.10938,0.421875 1.625,1.046875 0.53125,0.625 0.73438,1.59375 0.125,0.59375 0.125,2.15625 v 3.125 q 0,3.265625 0.14062,4.140625 0.15625,0.859375 0.59375,1.65625 h -2.4375 q -0.375,-0.734375 -0.46875,-1.703125 z m -0.20312,-5.234375 q -1.26563,0.515625 -3.82813,0.890625 -1.4375,0.203125 -2.04687,0.46875 -0.59375,0.25 -0.92188,0.75 -0.3125,0.5 -0.3125,1.125 0,0.9375 0.70313,1.5625 0.70312,0.625 2.07812,0.625 1.34375,0 2.39063,-0.59375 1.0625,-0.59375 1.5625,-1.625 0.375,-0.796875 0.375,-2.34375 z m 5.98118,6.9375 V 36.358645 h 2.10938 v 2.09375 q 0.79687,-1.46875 1.48437,-1.9375 0.6875,-0.46875 1.5,-0.46875 1.1875,0 2.40625,0.765625 l -0.79687,2.171875 q -0.85938,-0.515625 -1.71875,-0.515625 -0.76563,0 -1.39063,0.46875 -0.60937,0.453125 -0.85937,1.28125 -0.39063,1.25 -0.39063,2.734375 v 7.234375 z m 14.01737,-2.09375 0.32812,2.0625 q -0.98437,0.21875 -1.76562,0.21875 -1.26563,0 -1.96875,-0.40625 -0.70313,-0.40625 -1,-1.0625 -0.28125,-0.65625 -0.28125,-2.765625 V 38.18677 h -1.71875 v -1.828125 h 1.71875 V 32.93677 l 2.32812,-1.40625 v 4.828125 h 2.35938 v 1.828125 h -2.35938 v 8.078125 q 0,1 0.125,1.296875 0.125,0.28125 0.40625,0.453125 0.28125,0.171875 0.79688,0.171875 0.39062,0 1.03125,-0.09375 z"
       fill-rule="nonzero"
       id="path9636" />
    <path
       fill="#cfe2f3"
       d="m 145.33186,276.09842 h 89.14583 v 0 c 11.67834,0 21.14551,12.76349 21.14551,28.50803 0,15.74456 -9.46717,28.50805 -21.14551,28.50805 h -89.14583 v 0 c -11.67835,0 -21.14551,-12.76349 -21.14551,-28.50805 0,-15.74454 9.46717,-28.50803 21.14551,-28.50803 z"
       fill-rule="evenodd"
       id="path9638" />
    <path
       stroke="#000000"
       stroke-width="1"
       stroke-linejoin="round"
       stroke-linecap="butt"
       d="m 145.33186,276.09842 h 89.14583 v 0 c 11.67834,0 21.14551,12.76349 21.14551,28.50803 0,15.74456 -9.46717,28.50805 -21.14551,28.50805 h -89.14583 v 0 c -11.67835,0 -21.14551,-12.76349 -21.14551,-28.50805 0,-15.74454 9.46717,-28.50803 21.14551,-28.50803 z"
       fill-rule="evenodd"
       id="path9640" />
    <path
       fill="#000000"
       d="m 173.57738,314.20645 v -19.07812 h 12.875 v 2.25 h -10.34375 v 5.90625 h 8.95312 v 2.25 h -8.95312 v 8.67187 z m 15.86082,-16.39062 v -2.6875 h 2.34375 v 2.6875 z m 0,16.39062 v -13.82812 h 2.34375 v 13.82812 z m 5.90655,0 v -13.82812 h 2.10937 v 1.96875 q 1.53125,-2.28125 4.40625,-2.28125 1.25,0 2.29688,0.45312 1.04687,0.45313 1.5625,1.1875 0.53125,0.71875 0.73437,1.71875 0.125,0.65625 0.125,2.28125 v 8.5 h -2.34375 v -8.40625 q 0,-1.4375 -0.28125,-2.14062 -0.26562,-0.71875 -0.96875,-1.14063 -0.6875,-0.42187 -1.625,-0.42187 -1.48437,0 -2.57812,0.95312 -1.09375,0.95313 -1.09375,3.60938 v 7.54687 z"
       fill-rule="nonzero"
       id="path9642" />
    <path
       fill="#cfe2f3"
       d="m 65.71916,96.02887 h 248.37532 v 54.4252 H 65.71916 Z"
       fill-rule="evenodd"
       id="path9644" />
    <path
       fill="#000000"
       fill-opacity="0"
       d="m 96.766075,96.02887 v 54.4252 M 65.719162,102.83202 H 314.09448"
       fill-rule="evenodd"
       id="path9646" />
    <path
       fill="#000000"
       fill-opacity="0"
       d="m 65.71916,96.02887 h 248.37532 v 54.4252 H 65.71916 Z"
       fill-rule="evenodd"
       id="path9648" />
    <path
       stroke="#000000"
       stroke-width="1"
       stroke-linejoin="round"
       stroke-linecap="butt"
       d="m 96.766075,96.02887 v 54.4252 M 65.719162,102.83202 H 314.09448"
       fill-rule="evenodd"
       id="path9650" />
    <path
       stroke="#000000"
       stroke-width="1"
       stroke-linejoin="round"
       stroke-linecap="butt"
       d="m 65.71916,96.02887 h 248.37532 v 54.4252 H 65.71916 Z"
       fill-rule="evenodd"
       id="path9652" />
    <path
       fill="#000000"
       d="m 105.73483,135.96304 6.95312,-18.125 h 2.59375 l 7.42188,18.125 h -2.73438 l -2.125,-5.48438 h -7.57812 l -1.98438,5.48438 z m 5.21875,-7.4375 h 6.15625 l -1.89063,-5.03125 q -0.875,-2.28125 -1.29687,-3.75 -0.34375,1.73438 -0.96875,3.45313 z m 13.34678,7.4375 v -13.14062 h 2 v 2 q 0.78125,-1.40625 1.42188,-1.84375 0.65625,-0.45313 1.4375,-0.45313 1.125,0 2.28125,0.71875 l -0.76562,2.07813 q -0.8125,-0.48438 -1.64063,-0.48438 -0.71875,0 -1.3125,0.4375 -0.57813,0.4375 -0.82813,1.21875 -0.35937,1.1875 -0.35937,2.59375 v 6.875 z m 8.43447,0 v -13.14062 h 2 v 2 q 0.78125,-1.40625 1.42188,-1.84375 0.65625,-0.45313 1.4375,-0.45313 1.125,0 2.28125,0.71875 l -0.76563,2.07813 q -0.8125,-0.48438 -1.64062,-0.48438 -0.71875,0 -1.3125,0.4375 -0.57813,0.4375 -0.82813,1.21875 -0.35937,1.1875 -0.35937,2.59375 v 6.875 z m 17.02822,-1.625 q -1.23438,1.0625 -2.375,1.5 -1.14063,0.42187 -2.45313,0.42187 -2.17187,0 -3.32812,-1.04687 -1.15625,-1.0625 -1.15625,-2.71875 0,-0.95313 0.4375,-1.75 0.4375,-0.79688 1.14062,-1.28125 0.71875,-0.48438 1.60938,-0.73438 0.65625,-0.17187 1.96875,-0.32812 2.70312,-0.32813 3.96875,-0.76562 0.0156,-0.46875 0.0156,-0.59375 0,-1.35938 -0.625,-1.90625 -0.85937,-0.76563 -2.53125,-0.76563 -1.57812,0 -2.32812,0.5625 -0.75,0.54688 -1.10938,1.9375 l -2.17187,-0.29687 q 0.29687,-1.39063 0.96875,-2.25 0.6875,-0.85938 1.96875,-1.32813 1.29687,-0.46875 2.98437,-0.46875 1.6875,0 2.73438,0.40625 1.04687,0.39063 1.54687,1 0.5,0.59375 0.6875,1.5 0.125,0.57813 0.125,2.0625 v 2.96875 q 0,3.09375 0.14063,3.92187 0.14062,0.82813 0.5625,1.57813 h -2.32813 q -0.34375,-0.6875 -0.45312,-1.625 z m -0.1875,-4.96875 q -1.20313,0.5 -3.625,0.84375 -1.375,0.20312 -1.95313,0.45312 -0.5625,0.23438 -0.875,0.71875 -0.29687,0.46875 -0.29687,1.04688 0,0.89062 0.67187,1.48437 0.67188,0.59375 1.96875,0.59375 1.28125,0 2.28125,-0.5625 1,-0.5625 1.48438,-1.53125 0.34375,-0.75 0.34375,-2.23437 z m 5.61755,11.65625 -0.25,-2.09375 q 0.71875,0.20312 1.26563,0.20312 0.75,0 1.1875,-0.25 0.45312,-0.25 0.73437,-0.70312 0.20313,-0.32813 0.67188,-1.65625 0.0625,-0.17188 0.20312,-0.53125 l -4.98437,-13.17187 h 2.40625 l 2.73437,7.60937 q 0.53125,1.45312 0.95313,3.04687 0.375,-1.53125 0.90625,-3 l 2.8125,-7.65624 h 2.21875 l -5,13.35937 q -0.79688,2.17187 -1.23438,2.98437 -0.59375,1.09375 -1.375,1.60938 -0.76562,0.51562 -1.82812,0.51562 -0.64063,0 -1.42188,-0.26562 z m 21.84166,-5.0625 h -2.0625 v -18.125 h 2.23438 v 6.46875 q 1.40625,-1.78125 3.59375,-1.78125 1.20312,0 2.28125,0.5 1.09375,0.48438 1.78125,1.375 0.70312,0.875 1.09375,2.125 0.40625,1.25 0.40625,2.67187 0,3.375 -1.67188,5.21875 -1.67187,1.84375 -4,1.84375 -2.32812,0 -3.65625,-1.9375 z m -0.0156,-6.67188 q 0,2.375 0.64062,3.42188 1.04688,1.71875 2.84375,1.71875 1.45313,0 2.51563,-1.26563 1.0625,-1.26562 1.0625,-3.78125 0,-2.57812 -1.01563,-3.79687 -1.01562,-1.21875 -2.46875,-1.21875 -1.45312,0 -2.51562,1.26563 -1.0625,1.26562 -1.0625,3.65624 z m 11.22692,0.10938 q 0,-3.65625 2.03125,-5.40625 1.6875,-1.46875 4.125,-1.46875 2.70313,0 4.42188,1.78125 1.71875,1.78125 1.71875,4.90625 0,2.53125 -0.76563,3.98437 -0.75,1.45313 -2.20312,2.26563 -1.45313,0.79687 -3.17188,0.79687 -2.76562,0 -4.46875,-1.76562 -1.6875,-1.76563 -1.6875,-5.09375 z m 2.28125,0 q 0,2.51562 1.09375,3.78125 1.10938,1.25 2.78125,1.25 1.65625,0 2.75,-1.26563 1.10938,-1.26562 1.10938,-3.84375 0,-2.43749 -1.10938,-3.68749 -1.10937,-1.26563 -2.75,-1.26563 -1.67187,0 -2.78125,1.25 -1.09375,1.25 -1.09375,3.78125 z m 11.14881,6.5625 4.79687,-6.82813 -4.4375,-6.31249 h 2.78125 l 2.01563,3.09375 q 0.5625,0.875 0.92187,1.46875 0.53125,-0.82813 1,-1.45313 l 2.20313,-3.10937 h 2.65625 l -4.53125,6.18749 4.89062,6.95313 h -2.73437 l -2.70313,-4.07813 -0.71875,-1.10937 -3.45312,5.1875 z m 23.13281,-4.23438 2.29688,0.29688 q -0.53125,2.01562 -2.01563,3.125 -1.46875,1.10937 -3.75,1.10937 -2.89062,0 -4.57812,-1.76562 -1.6875,-1.78125 -1.6875,-4.98438 0,-3.31249 1.70312,-5.14062 1.71875,-1.84375 4.4375,-1.84375 2.64063,0 4.29688,1.79688 1.67187,1.79687 1.67187,5.04687 0,0.20312 -0.0156,0.59375 h -9.78125 q 0.10937,2.17187 1.20312,3.32812 1.10938,1.14063 2.76563,1.14063 1.21875,0 2.07812,-0.64063 0.875,-0.64062 1.375,-2.0625 z m -7.3125,-3.59375 h 7.34375 q -0.15625,-1.65624 -0.84375,-2.48437 -1.0625,-1.28125 -2.75,-1.28125 -1.54687,0 -2.59375,1.03125 -1.03125,1.01563 -1.15625,2.73437 z m 11.5238,3.90625 2.20313,-0.34375 q 0.1875,1.32813 1.03125,2.03125 0.84375,0.70313 2.35937,0.70313 1.54688,0 2.28125,-0.625 0.75,-0.625 0.75,-1.46875 0,-0.75 -0.65625,-1.1875 -0.46875,-0.29688 -2.28125,-0.75 -2.45312,-0.625 -3.40625,-1.07813 -0.9375,-0.45312 -1.42187,-1.25 -0.48438,-0.79687 -0.48438,-1.74999 0,-0.89063 0.39063,-1.625 0.40625,-0.75 1.09375,-1.25 0.53125,-0.39063 1.42187,-0.65625 0.89063,-0.26563 1.92188,-0.26563 1.54687,0 2.71875,0.45313 1.17187,0.4375 1.71875,1.20312 0.5625,0.76563 0.76562,2.03125 l -2.17187,0.29688 q -0.14063,-1.01563 -0.85938,-1.57813 -0.71875,-0.5625 -2.01562,-0.5625 -1.53125,0 -2.1875,0.5 -0.65625,0.5 -0.65625,1.1875 0,0.4375 0.28125,0.78125 0.26562,0.35938 0.84375,0.59375 0.34375,0.125 1.96875,0.5625 2.35937,0.64062 3.29687,1.04687 0.9375,0.39063 1.46875,1.15625 0.53125,0.76563 0.53125,1.90625 0,1.10938 -0.65625,2.09375 -0.64062,0.98438 -1.875,1.53125 -1.21875,0.53125 -2.76562,0.53125 -2.5625,0 -3.90625,-1.0625 -1.32813,-1.0625 -1.70313,-3.15625 z"
       fill-rule="nonzero"
       id="path9654" />
    <path
       fill="#cfe2f3"
       d="M 16.648294,179.979 H 363.17059 v 54.4252 H 16.648294 Z"
       fill-rule="evenodd"
       id="path9656" />
    <path
       stroke="#000000"
       stroke-width="1"
       stroke-linejoin="round"
       stroke-linecap="butt"
       d="M 16.648294,179.979 H 363.17059 v 54.4252 H 16.648294 Z"
       fill-rule="evenodd"
       id="path9658" />
    <path
       fill="#000000"
       d="m 60.114037,216.7916 h -2.171875 v -19.07813 h 2.34375 v 6.79688 q 1.484375,-1.85938 3.78125,-1.85938 1.28125,0 2.40625,0.51563 1.140625,0.51562 1.875,1.45312 0.75,0.92188 1.15625,2.25 0.421875,1.3125 0.421875,2.79688 0,3.5625 -1.765625,5.5 -1.75,1.9375 -4.21875,1.9375 -2.4375,0 -3.828125,-2.04688 z m -0.03125,-7.01563 q 0,2.48438 0.671875,3.59375 1.109375,1.8125 3,1.8125 1.53125,0 2.65625,-1.32812 1.125,-1.34375 1.125,-3.98438 0,-2.70312 -1.078125,-3.98437 -1.078125,-1.29688 -2.59375,-1.29688 -1.546875,0 -2.671875,1.32813 -1.109375,1.32812 -1.109375,3.85937 z m 11.824936,0.10938 q 0,-3.84375 2.125,-5.6875 1.78125,-1.54688 4.34375,-1.54688 2.859375,0 4.65625,1.875 1.8125,1.85938 1.8125,5.15625 0,2.67188 -0.796875,4.20313 -0.796875,1.53125 -2.328125,2.375 -1.53125,0.84375 -3.34375,0.84375 -2.890625,0 -4.6875,-1.85938 -1.78125,-1.85937 -1.78125,-5.35937 z m 2.40625,0 q 0,2.65625 1.15625,3.98437 1.15625,1.3125 2.90625,1.3125 1.75,0 2.90625,-1.32812 1.15625,-1.32813 1.15625,-4.04688 0,-2.5625 -1.171875,-3.89062 -1.15625,-1.32813 -2.890625,-1.32813 -1.75,0 -2.90625,1.32813 -1.15625,1.3125 -1.15625,3.96875 z m 11.715561,6.90625 5.0625,-7.1875 -4.671875,-6.64063 h 2.921875 l 2.125,3.25 q 0.59375,0.92188 0.96875,1.54688 0.5625,-0.85938 1.046875,-1.53125 l 2.328125,-3.26563 h 2.796875 l -4.78125,6.51563 5.15625,7.3125 h -2.890625 l -2.828125,-4.29688 -0.75,-1.15625 -3.640625,5.45313 z m 24.359376,-4.45313 2.42187,0.29688 q -0.57812,2.125 -2.125,3.29687 -1.54687,1.17188 -3.95312,1.17188 -3.03125,0 -4.8125,-1.85938 -1.78125,-1.875 -1.78125,-5.25 0,-3.48437 1.79687,-5.40625 1.79688,-1.9375 4.67188,-1.9375 2.76562,0 4.51562,1.89063 1.76563,1.89062 1.76563,5.3125 0,0.20312 -0.0156,0.625 h -10.3125 q 0.14063,2.28125 1.29688,3.5 1.15625,1.20312 2.89062,1.20312 1.28125,0 2.1875,-0.67187 0.92188,-0.6875 1.45313,-2.17188 z m -7.6875,-3.78125 h 7.71875 q -0.15625,-1.75 -0.89063,-2.625 -1.125,-1.34375 -2.90625,-1.34375 -1.60937,0 -2.71875,1.07813 -1.09375,1.07812 -1.20312,2.89062 z m 12.10618,4.10938 2.32813,-0.35938 q 0.1875,1.39063 1.07812,2.14063 0.89063,0.73437 2.5,0.73437 1.60938,0 2.39063,-0.65625 0.78125,-0.65625 0.78125,-1.54687 0,-0.79688 -0.6875,-1.25 -0.48438,-0.3125 -2.39063,-0.79688 -2.57812,-0.65625 -3.57812,-1.125 -1,-0.46875 -1.51563,-1.3125 -0.51562,-0.84375 -0.51562,-1.85937 0,-0.92188 0.42187,-1.70313 0.4375,-0.79687 1.15625,-1.3125 0.54688,-0.40625 1.48438,-0.6875 0.95312,-0.28125 2.03125,-0.28125 1.625,0 2.85937,0.46875 1.23438,0.46875 1.8125,1.28125 0.59375,0.79688 0.8125,2.14063 l -2.29687,0.3125 q -0.15625,-1.07813 -0.90625,-1.67188 -0.75,-0.59375 -2.10938,-0.59375 -1.60937,0 -2.3125,0.53125 -0.6875,0.53125 -0.6875,1.25 0,0.45313 0.29688,0.8125 0.28125,0.375 0.89062,0.625 0.35938,0.14063 2.07813,0.60938 2.48437,0.65625 3.46875,1.07812 0.98437,0.42188 1.53125,1.23438 0.5625,0.79687 0.5625,2 0,1.17187 -0.6875,2.21875 -0.67188,1.03125 -1.96875,1.59375 -1.28125,0.5625 -2.90625,0.5625 -2.70313,0 -4.125,-1.10938 -1.40625,-1.125 -1.79688,-3.32812 z m 33.99972,-7.09375 h -12.59375 v -2.1875 h 12.59375 z m 0,5.79687 h -12.59375 v -2.1875 h 12.59375 z m 10.70717,10.71875 v -24.375 h 5.15625 v 1.9375 h -2.8125 v 20.5 h 2.8125 v 1.9375 z m 9.18721,-21.17187 v 2.71875 h -2.51562 v -2.15625 q 0,-1.73438 0.42187,-2.51563 0.54688,-1.04687 1.73438,-1.57812 l 0.5625,0.90625 q -0.71875,0.29687 -1.0625,0.89062 -0.32813,0.59375 -0.35938,1.73438 z m 4.03125,0 v 2.71875 h -2.51562 v -2.15625 q 0,-1.73438 0.42187,-2.51563 0.54688,-1.04687 1.73438,-1.57812 l 0.5625,0.90625 q -0.70313,0.29687 -1.04688,0.89062 -0.34375,0.59375 -0.375,1.73438 z m 8.12674,13.78125 0.32813,2.0625 q -0.98438,0.21875 -1.76563,0.21875 -1.26562,0 -1.96875,-0.40625 -0.70312,-0.40625 -1,-1.0625 -0.28125,-0.65625 -0.28125,-2.76563 v -7.95312 h -1.71875 v -1.82813 h 1.71875 v -3.42187 l 2.32813,-1.40625 v 4.82812 h 2.35937 v 1.82813 h -2.35937 v 8.07812 q 0,1 0.125,1.29688 0.125,0.28125 0.40625,0.45312 0.28125,0.17188 0.79687,0.17188 0.39063,0 1.03125,-0.0937 z m 11.74971,-2.35938 2.42188,0.29688 q -0.57813,2.125 -2.125,3.29687 -1.54688,1.17188 -3.95313,1.17188 -3.03125,0 -4.8125,-1.85938 -1.78125,-1.875 -1.78125,-5.25 0,-3.48437 1.79688,-5.40625 1.79687,-1.9375 4.67187,-1.9375 2.76563,0 4.51563,1.89063 1.76562,1.89062 1.76562,5.3125 0,0.20312 -0.0156,0.625 h -10.3125 q 0.14062,2.28125 1.29687,3.5 1.15625,1.20312 2.89063,1.20312 1.28125,0 2.1875,-0.67187 0.92187,-0.6875 1.45312,-2.17188 z m -7.6875,-3.78125 h 7.71875 q -0.15625,-1.75 -0.89062,-2.625 -1.125,-1.34375 -2.90625,-1.34375 -1.60938,0 -2.71875,1.07813 -1.09375,1.07812 -1.20313,2.89062 z m 11.48119,8.23438 5.0625,-7.1875 -4.67188,-6.64063 h 2.92188 l 2.125,3.25 q 0.59375,0.92188 0.96875,1.54688 0.5625,-0.85938 1.04687,-1.53125 l 2.32813,-3.26563 h 2.79687 l -4.78125,6.51563 5.15625,7.3125 h -2.89062 l -2.82813,-4.29688 -0.75,-1.15625 -3.64062,5.45313 z m 20.01562,-2.09375 0.32813,2.0625 q -0.98438,0.21875 -1.76563,0.21875 -1.26562,0 -1.96875,-0.40625 -0.70312,-0.40625 -1,-1.0625 -0.28125,-0.65625 -0.28125,-2.76563 v -7.95312 h -1.71875 v -1.82813 h 1.71875 v -3.42187 l 2.32813,-1.40625 v 4.82812 h 2.35937 v 1.82813 h -2.35937 v 8.07812 q 0,1 0.125,1.29688 0.125,0.28125 0.40625,0.45312 0.28125,0.17188 0.79687,0.17188 0.39063,0 1.03125,-0.0937 z m 1.65596,-14.46875 v -2.71875 h 2.51563 v 2.15625 q 0,1.73437 -0.40625,2.51562 -0.54688,1.04688 -1.73438,1.57813 l -0.57812,-0.92188 q 0.70312,-0.28125 1.04687,-0.89062 0.34375,-0.625 0.39063,-1.71875 z m 4.04688,0 v -2.71875 h 2.5 v 2.15625 q 0,1.73437 -0.39063,2.51562 -0.5625,1.04688 -1.75,1.57813 l -0.57812,-0.92188 q 0.70312,-0.28125 1.04687,-0.89062 0.35938,-0.625 0.39063,-1.71875 z m 6.07986,16.5625 v -2.67188 h 2.65625 v 2.67188 q 0,1.46875 -0.51562,2.375 -0.51563,0.90625 -1.65625,1.40625 l -0.64063,-1.01563 q 0.73438,-0.3125 1.07813,-0.95312 0.35937,-0.625 0.40625,-1.8125 z m 11.90596,-2.09375 0.32813,2.0625 q -0.98438,0.21875 -1.76563,0.21875 -1.26562,0 -1.96875,-0.40625 -0.70312,-0.40625 -1,-1.0625 -0.28125,-0.65625 -0.28125,-2.76563 v -7.95312 h -1.71875 v -1.82813 h 1.71875 v -3.42187 l 2.32813,-1.40625 v 4.82812 h 2.35937 v 1.82813 h -2.35937 v 8.07812 q 0,1 0.125,1.29688 0.125,0.28125 0.40625,0.45312 0.28125,0.17188 0.79687,0.17188 0.39063,0 1.03125,-0.0937 z m 2.26534,2.09375 v -13.82813 h 2.10937 v 2.09375 q 0.79688,-1.46875 1.48438,-1.9375 0.6875,-0.46875 1.5,-0.46875 1.1875,0 2.40625,0.76563 l -0.79688,2.17187 q -0.85937,-0.51562 -1.71875,-0.51562 -0.76562,0 -1.39062,0.46875 -0.60938,0.45312 -0.85938,1.28125 -0.39062,1.25 -0.39062,2.73437 v 7.23438 z m 17.95485,0 v -2.03125 q -1.60938,2.34375 -4.37499,2.34375 -1.23437,0 -2.29687,-0.46875 -1.0625,-0.46875 -1.57813,-1.17188 -0.5,-0.71875 -0.71875,-1.75 -0.14062,-0.6875 -0.14062,-2.1875 v -8.5625 h 2.34375 v 7.67188 q 0,1.82812 0.14062,2.46875 0.21875,0.92187 0.9375,1.45312 0.71875,0.53125 1.76561,0.53125 1.0625,0 1.98438,-0.53125 0.92187,-0.54687 1.29687,-1.46875 0.39063,-0.9375 0.39063,-2.71875 v -7.40625 h 2.34375 v 13.82813 z m 15.2312,-4.45313 2.42187,0.29688 q -0.57812,2.125 -2.125,3.29687 -1.54687,1.17188 -3.95312,1.17188 -3.03125,0 -4.8125,-1.85938 -1.78125,-1.875 -1.78125,-5.25 0,-3.48437 1.79687,-5.40625 1.79688,-1.9375 4.67188,-1.9375 2.76562,0 4.51562,1.89063 1.76563,1.89062 1.76563,5.3125 0,0.20312 -0.0156,0.625 h -10.3125 q 0.14063,2.28125 1.29688,3.5 1.15625,1.20312 2.89062,1.20312 1.28125,0 2.1875,-0.67187 0.92188,-0.6875 1.45313,-2.17188 z m -7.6875,-3.78125 H 275.59 q -0.15625,-1.75 -0.89063,-2.625 -1.125,-1.34375 -2.90625,-1.34375 -1.60937,0 -2.71875,1.07813 -1.09375,1.07812 -1.20312,2.89062 z m 13.66867,8.23438 v -2.67188 h 2.65625 v 2.67188 q 0,1.46875 -0.51563,2.375 -0.51562,0.90625 -1.65625,1.40625 l -0.64062,-1.01563 q 0.73437,-0.3125 1.07812,-0.95312 0.35938,-0.625 0.40625,-1.8125 z m 6.15597,-5.03125 2.34375,-0.3125 q 0.39063,1.98437 1.35938,2.875 0.98437,0.875 2.375,0.875 1.64062,0 2.78125,-1.14063 1.14062,-1.15625 1.14062,-2.84375 0,-1.625 -1.0625,-2.67187 -1.04687,-1.04688 -2.67187,-1.04688 -0.65625,0 -1.65625,0.26563 l 0.26562,-2.0625 q 0.23438,0.0312 0.375,0.0312 1.5,0 2.6875,-0.78125 1.20313,-0.78125 1.20313,-2.40625 0,-1.29688 -0.875,-2.14063 -0.85938,-0.84375 -2.25,-0.84375 -1.35938,0 -2.28125,0.85938 -0.90625,0.85937 -1.15625,2.57812 l -2.34375,-0.42187 q 0.42187,-2.34375 1.9375,-3.64063 1.53125,-1.29687 3.79687,-1.29687 1.5625,0 2.875,0.67187 1.3125,0.67188 2,1.82813 0.70313,1.15625 0.70313,2.45312 0,1.23438 -0.67188,2.25 -0.65625,1.01563 -1.95312,1.625 1.6875,0.39063 2.625,1.625 0.9375,1.21875 0.9375,3.0625 0,2.5 -1.82813,4.25 -1.8125,1.73438 -4.59375,1.73438 -2.51562,0 -4.17187,-1.5 -1.65625,-1.5 -1.89063,-3.875 z m 15.15305,0.625 2.25,-0.21875 q 0.29688,1.59375 1.09375,2.3125 0.8125,0.71875 2.07813,0.71875 1.07812,0 1.89062,-0.5 0.8125,-0.5 1.32813,-1.32813 0.53125,-0.82812 0.875,-2.21875 0.35937,-1.40625 0.35937,-2.875 0,-0.15625 -0.0156,-0.46875 -0.70313,1.125 -1.92188,1.82813 -1.21875,0.6875 -2.64062,0.6875 -2.35938,0 -4,-1.71875 -1.64063,-1.71875 -1.64063,-4.53125 0,-2.90625 1.70313,-4.67188 1.71875,-1.76562 4.29687,-1.76562 1.85938,0 3.39063,1 1.54687,1 2.34375,2.85937 0.8125,1.85938 0.8125,5.35938 0,3.65625 -0.79688,5.82812 -0.79687,2.17188 -2.375,3.3125 -1.5625,1.125 -3.67187,1.125 -2.23438,0 -3.65625,-1.23437 -1.40625,-1.25 -1.70313,-3.5 z m 9.59375,-8.42188 q 0,-2.01562 -1.07812,-3.20312 -1.0625,-1.1875 -2.57813,-1.1875 -1.5625,0 -2.71875,1.28125 -1.15625,1.26562 -1.15625,3.29687 0,1.82813 1.09375,2.96875 1.10938,1.14063 2.71875,1.14063 1.625,0 2.67188,-1.14063 1.04687,-1.14062 1.04687,-3.15625 z m 9.44992,18.125 h -5.17187 v -1.9375 h 2.82812 v -20.5 h -2.82812 v -1.9375 h 5.17187 z"
       fill-rule="nonzero"
       id="path9660" />
    <path
       fill="#000000"
       fill-opacity="0"
       d="M 189.90636,69.0948 V 96.02393"
       fill-rule="evenodd"
       id="path9662" />
    <path
       stroke="#000000"
       stroke-width="1"
       stroke-linejoin="round"
       stroke-linecap="butt"
       d="M 189.90636,69.0948 V 90.023938"
       fill-rule="evenodd"
       id="path9664" />
    <path
       fill="#000000"
       stroke="#000000"
       stroke-width="1"
       stroke-linecap="butt"
       d="m 188.25462,90.02394 1.65173,4.538094 1.65174,-4.538094 z"
       fill-rule="evenodd"
       id="path9666" />
    <path
       fill="#000000"
       fill-opacity="0"
       d="m 189.90683,150.45407 v 29.51181"
       fill-rule="evenodd"
       id="path9668" />
    <path
       stroke="#000000"
       stroke-width="1"
       stroke-linejoin="round"
       stroke-linecap="butt"
       d="m 189.90683,150.45407 v 23.51181"
       fill-rule="evenodd"
       id="path9670" />
    <path
       fill="#000000"
       stroke="#000000"
       stroke-width="1"
       stroke-linecap="butt"
       d="m 188.2551,173.96588 1.65173,4.5381 1.65174,-4.5381 z"
       fill-rule="evenodd"
       id="path9672" />
    <path
       fill="#000000"
       fill-opacity="0"
       d="m 189.90477,235.5315 v 40.56693"
       fill-rule="evenodd"
       id="path9674" />
    <path
       stroke="#000000"
       stroke-width="1"
       stroke-linejoin="round"
       stroke-linecap="butt"
       d="m 189.90477,235.5315 v 34.56693"
       fill-rule="evenodd"
       id="path9676" />
    <path
       fill="#000000"
       stroke="#000000"
       stroke-width="1"
       stroke-linecap="butt"
       d="m 188.25304,270.09842 1.65173,4.53812 1.65174,-4.53812 z"
       fill-rule="evenodd"
       id="path9678" />
  </g>
</svg>
