<?xml version="1.0" encoding="UTF-8" standalone="no"?>
<svg
   xmlns:dc="http://purl.org/dc/elements/1.1/"
   xmlns:cc="http://creativecommons.org/ns#"
   xmlns:rdf="http://www.w3.org/1999/02/22-rdf-syntax-ns#"
   xmlns:svg="http://www.w3.org/2000/svg"
   xmlns="http://www.w3.org/2000/svg"
   xmlns:sodipodi="http://sodipodi.sourceforge.net/DTD/sodipodi-0.dtd"
   xmlns:inkscape="http://www.inkscape.org/namespaces/inkscape"
   version="1.1"
   viewBox="0 0 614.52228 316.01218"
   fill="none"
   stroke="none"
   stroke-linecap="square"
   stroke-miterlimit="10"
   id="svg4162"
   sodipodi:docname="flowchart-not.svg"
   width="614.52228"
   height="316.01218"
   inkscape:version="1.0.2-2 (e86c870879, 2021-01-15)">
  <metadata
     id="metadata4168">
    <rdf:RDF>
      <cc:Work
         rdf:about="">
        <dc:format>image/svg+xml</dc:format>
        <dc:type
           rdf:resource="http://purl.org/dc/dcmitype/StillImage" />
        <dc:title></dc:title>
      </cc:Work>
    </rdf:RDF>
  </metadata>
  <defs
     id="defs4166" />
  <sodipodi:namedview
     pagecolor="#ffffff"
     bordercolor="#666666"
     borderopacity="1"
     objecttolerance="10"
     gridtolerance="10"
     guidetolerance="10"
     inkscape:pageopacity="0"
     inkscape:pageshadow="2"
     inkscape:window-width="1920"
     inkscape:window-height="1017"
     id="namedview4164"
     showgrid="false"
     fit-margin-top="0"
     fit-margin-left="0"
     fit-margin-right="0"
     fit-margin-bottom="0"
     inkscape:zoom="1.0841181"
     inkscape:cx="180.61444"
     inkscape:cy="235.81194"
     inkscape:window-x="-8"
     inkscape:window-y="-8"
     inkscape:window-maximized="1"
     inkscape:current-layer="svg4162"
     inkscape:document-rotation="0" />
  <clipPath
     id="p.0">
    <path
       d="M 0,0 H 960 V 720 H 0 Z"
       clip-rule="nonzero"
       id="path4037" />
  </clipPath>
  <path
     fill="#000000"
     fill-opacity="0"
     d="M -67.149605,-8.5118001 H 892.85039 V 711.4882 H -67.149605 Z"
     fill-rule="evenodd"
     id="path4040" />
  <path
     fill="#cfe2f3"
     d="m 85.106521,0.5 h 82.589859 v 0 c 10.81949,0 19.59042,12.763482 19.59042,28.508031 0,15.744553 -8.77093,28.508034 -19.59042,28.508034 H 85.106521 v 0 c -10.8195,0 -19.59043,-12.763481 -19.59043,-28.508034 C 65.516091,13.26348 74.287021,0.5 85.106521,0.5 Z"
     fill-rule="evenodd"
     id="path4042" />
  <path
     stroke="#000000"
     stroke-width="1"
     stroke-linejoin="round"
     stroke-linecap="butt"
     d="m 85.106521,0.5 h 82.589859 v 0 c 10.81949,0 19.59042,12.763482 19.59042,28.508031 0,15.744553 -8.77093,28.508034 -19.59042,28.508034 H 85.106521 v 0 c -10.8195,0 -19.59043,-12.763481 -19.59043,-28.508034 C 65.516091,13.26348 74.287021,0.5 85.106521,0.5 Z"
     fill-rule="evenodd"
     id="path4044" />
  <path
     fill="#000000"
     d="M 88.460061,38.608029 V 19.529903 h 6.5625 q 2.23437,0 3.40625,0.265625 1.640619,0.375 2.796869,1.375 1.5,1.265625 2.25,3.25 0.75,1.984375 0.75,4.546875 0,2.171875 -0.51562,3.859376 -0.5,1.671875 -1.29688,2.78125 -0.78125,1.09375 -1.73437,1.71875 -0.937499,0.625 -2.281249,0.953125 -1.32813,0.328125 -3.0625,0.328125 z m 2.51562,-2.25 h 4.07813 q 1.89062,0 2.95312,-0.34375 1.07813,-0.359375 1.71875,-1 0.890629,-0.890625 1.390629,-2.40625 0.51562,-1.515626 0.51562,-3.687501 0,-2.984375 -0.98437,-4.59375 -0.984379,-1.609375 -2.390629,-2.15625 -1.01562,-0.390625 -3.26562,-0.390625 h -4.01563 z m 25.890919,-2.203125 2.42187,0.296875 q -0.57812,2.125 -2.125,3.296875 -1.54687,1.171875 -3.95312,1.171875 -3.03125,0 -4.8125,-1.859375 -1.78125,-1.875 -1.78125,-5.250001 0,-3.484375 1.79687,-5.40625 1.79688,-1.9375 4.67188,-1.9375 2.76562,0 4.51562,1.890625 1.76563,1.890625 1.76563,5.3125 0,0.203125 -0.0156,0.625001 h -10.3125 q 0.14063,2.28125 1.29688,3.5 1.15625,1.203125 2.89062,1.203125 1.28125,0 2.1875,-0.671875 0.92188,-0.6875 1.45313,-2.171875 z m -7.6875,-3.781251 h 7.71875 q -0.15625,-1.75 -0.89063,-2.625 -1.125,-1.34375 -2.90625,-1.34375 -1.60937,0 -2.71875,1.078125 -1.09375,1.078125 -1.20312,2.890625 z m 2.51562,-7.3125 1.73438,-3.640625 h 3.0625 l -2.85938,3.640625 z m 10.52807,20.843751 V 24.779903 h 2.14062 v 1.796875 q 0.75,-1.046875 1.70313,-1.578125 0.95312,-0.53125 2.3125,-0.53125 1.76562,0 3.10937,0.921875 1.35938,0.90625 2.04688,2.5625 0.6875,1.65625 0.6875,3.640625 0,2.125001 -0.76563,3.828126 -0.75,1.6875 -2.20312,2.59375 -1.45313,0.90625 -3.04688,0.90625 -1.17187,0 -2.10937,-0.484375 -0.92188,-0.5 -1.53125,-1.265625 v 6.734375 z m 2.125,-12.125001 q 0,2.656251 1.07812,3.937501 1.09375,1.28125 2.625,1.28125 1.5625,0 2.67188,-1.3125 1.10937,-1.328125 1.10937,-4.109376 0,-2.640625 -1.09375,-3.953125 -1.07812,-1.3125 -2.59375,-1.3125 -1.48437,0 -2.64062,1.40625 -1.15625,1.390625 -1.15625,4.0625 z m 21.73118,5.125001 q -1.3125,1.109375 -2.51562,1.5625 -1.20313,0.453125 -2.57813,0.453125 -2.28125,0 -3.5,-1.109375 -1.21875,-1.109375 -1.21875,-2.84375 0,-1.015625 0.45313,-1.859375 0.46875,-0.84375 1.21875,-1.343751 0.75,-0.515625 1.6875,-0.765625 0.6875,-0.1875 2.07812,-0.359375 2.82813,-0.328125 4.17188,-0.796875 0.0156,-0.484375 0.0156,-0.625 0,-1.421875 -0.65625,-2.015625 -0.90625,-0.796875 -2.67187,-0.796875 -1.65625,0 -2.45313,0.59375 -0.78125,0.578125 -1.15625,2.046875 l -2.29687,-0.3125 q 0.3125,-1.46875 1.03125,-2.375 0.71875,-0.90625 2.0625,-1.390625 1.35937,-0.5 3.14062,-0.5 1.78125,0 2.875,0.421875 1.10938,0.421875 1.625,1.046875 0.53125,0.625 0.73438,1.59375 0.125,0.59375 0.125,2.15625 v 3.125001 q 0,3.265625 0.14062,4.140625 0.15625,0.859375 0.59375,1.65625 h -2.4375 q -0.375,-0.734375 -0.46875,-1.703125 z m -0.20312,-5.234376 q -1.26563,0.515626 -3.82813,0.890626 -1.4375,0.203125 -2.04687,0.46875 -0.59375,0.25 -0.92188,0.75 -0.3125,0.5 -0.3125,1.125 0,0.9375 0.70313,1.5625 0.70312,0.625 2.07812,0.625 1.34375,0 2.39063,-0.59375 1.0625,-0.59375 1.5625,-1.625 0.375,-0.796875 0.375,-2.34375 z m 5.98118,6.937501 V 24.779903 h 2.10938 v 2.09375 q 0.79687,-1.46875 1.48437,-1.9375 0.6875,-0.46875 1.5,-0.46875 1.1875,0 2.40625,0.765625 l -0.79687,2.171875 q -0.85938,-0.515625 -1.71875,-0.515625 -0.76563,0 -1.39063,0.46875 -0.60937,0.453125 -0.85937,1.28125 -0.39063,1.25 -0.39063,2.734375 v 7.234376 z m 14.01737,-2.09375 0.32812,2.0625 q -0.98437,0.21875 -1.76562,0.21875 -1.26563,0 -1.96875,-0.40625 -0.70313,-0.40625 -1,-1.0625 -0.28125,-0.65625 -0.28125,-2.765625 v -7.953126 h -1.71875 v -1.828125 h 1.71875 v -3.421875 l 2.32812,-1.40625 v 4.828125 h 2.35938 v 1.828125 h -2.35938 v 8.078126 q 0,1 0.125,1.296875 0.125,0.28125 0.40625,0.453125 0.28125,0.171875 0.79688,0.171875 0.39062,0 1.03125,-0.09375 z"
     fill-rule="nonzero"
     id="path4046" />
  <path
     fill="#cfe2f3"
     d="m 81.779651,258.49612 h 89.145829 v 0 c 11.67834,0 21.14551,12.76346 21.14551,28.50803 0,15.74453 -9.46717,28.50802 -21.14551,28.50802 H 81.779651 v 0 c -11.67835,0 -21.145517,-12.76349 -21.145517,-28.50802 0,-15.74457 9.467177,-28.50803 21.145517,-28.50803 z"
     fill-rule="evenodd"
     id="path4048" />
  <path
     stroke="#000000"
     stroke-width="1"
     stroke-linejoin="round"
     stroke-linecap="butt"
     d="m 81.779651,258.49612 h 89.145829 v 0 c 11.67834,0 21.14551,12.76346 21.14551,28.50803 0,15.74453 -9.46717,28.50802 -21.14551,28.50802 H 81.779651 v 0 c -11.67835,0 -21.145517,-12.76349 -21.145517,-28.50802 0,-15.74457 9.467177,-28.50803 21.145517,-28.50803 z"
     fill-rule="evenodd"
     id="path4050" />
  <path
     fill="#000000"
     d="m 110.02516,296.60412 v -19.07813 h 12.875 v 2.25 h -10.34375 v 5.90625 h 8.95312 v 2.25 h -8.95312 v 8.67188 z m 15.86082,-16.39063 v -2.6875 h 2.34375 v 2.6875 z m 0,16.39063 v -13.82813 h 2.34375 v 13.82813 z m 5.90654,0 v -13.82813 h 2.10938 v 1.96875 q 1.53125,-2.28125 4.40625,-2.28125 1.25,0 2.29687,0.45313 1.04688,0.45312 1.5625,1.1875 0.53125,0.71875 0.73438,1.71875 0.125,0.65625 0.125,2.28125 v 8.5 h -2.34375 v -8.40625 q 0,-1.4375 -0.28125,-2.14063 -0.26563,-0.71875 -0.96875,-1.14062 -0.6875,-0.42188 -1.625,-0.42188 -1.48438,0 -2.57813,0.95313 -1.09375,0.95312 -1.09375,3.60937 v 7.54688 z"
     fill-rule="nonzero"
     id="path4052" />
  <path
     fill="#000000"
     fill-opacity="0"
     d="M 126.40144,57.516069 V 84.697168"
     fill-rule="evenodd"
     id="path4054" />
  <path
     stroke="#000000"
     stroke-width="1"
     stroke-linejoin="round"
     stroke-linecap="butt"
     d="M 126.40144,57.516058 V 78.697173"
     fill-rule="evenodd"
     id="path4056" />
  <path
     fill="#000000"
     stroke="#000000"
     stroke-width="1"
     stroke-linecap="butt"
     d="m 124.74971,78.697169 1.65173,4.538094 1.65174,-4.538094 z"
     fill-rule="evenodd"
     id="path4058" />
  <path
     fill="#cfe2f3"
     d="M 1.467195,85.34909 H 249.84253 v 53.03937 H 1.467195 Z"
     fill-rule="evenodd"
     id="path4066" />
  <path
     fill="#000000"
     fill-opacity="0"
     d="m 32.514105,85.34909 v 53.03937 M 1.467192,91.979009 H 249.84253"
     fill-rule="evenodd"
     id="path4068" />
  <path
     fill="#000000"
     fill-opacity="0"
     d="M 1.467195,85.34909 H 249.84253 v 53.03937 H 1.467195 Z"
     fill-rule="evenodd"
     id="path4070" />
  <path
     stroke="#000000"
     stroke-width="1"
     stroke-linejoin="round"
     stroke-linecap="butt"
     d="m 32.514105,85.34909 v 53.03937 M 1.467192,91.979009 H 249.84253"
     fill-rule="evenodd"
     id="path4072" />
  <path
     stroke="#000000"
     stroke-width="1"
     stroke-linejoin="round"
     stroke-linecap="butt"
     d="M 1.467195,85.34909 H 249.84253 v 53.03937 H 1.467195 Z"
     fill-rule="evenodd"
     id="path4074" />
  <path
     fill="#000000"
     fill-opacity="0"
     d="M 307.82939,75.868779 H 606.45933 V 147.86879 H 307.82939 Z"
     fill-rule="evenodd"
     id="path4084" />
  <path
     stroke="#000000"
     stroke-width="1"
     stroke-linejoin="round"
     stroke-linecap="butt"
     stroke-dasharray="1, 3"
     d="M 307.82939,75.868779 H 606.45933 V 147.86879 H 307.82939 Z"
     fill-rule="evenodd"
     id="path4086" />
  <path
     fill="#000000"
     d="M 318.89189,105.46878 V 86.390651 h 6.5625 q 2.23437,0 3.40625,0.265625 1.64062,0.375 2.79687,1.375 1.5,1.265625 2.25,3.25 0.75,1.984374 0.75,4.546874 0,2.17188 -0.51562,3.85938 -0.5,1.67187 -1.29688,2.78125 -0.78125,1.09375 -1.73437,1.71875 -0.9375,0.625 -2.28125,0.95312 -1.32813,0.32813 -3.0625,0.32813 z m 2.51562,-2.25 h 4.07813 q 1.89062,0 2.95312,-0.34375 1.07813,-0.35938 1.71875,-1 0.89063,-0.89063 1.39063,-2.40625 0.51562,-1.51563 0.51562,-3.6875 0,-2.98438 -0.98437,-4.593754 -0.98438,-1.609375 -2.39063,-2.15625 -1.01562,-0.390625 -3.26562,-0.390625 h -4.01563 z m 25.8909,-2.20313 2.42188,0.29688 q -0.57813,2.125 -2.125,3.29687 -1.54688,1.17188 -3.95313,1.17188 -3.03125,0 -4.8125,-1.85938 -1.78125,-1.875 -1.78125,-5.25 0,-3.48437 1.79688,-5.40625 1.79687,-1.937499 4.67187,-1.937499 2.76563,0 4.51563,1.890629 1.76562,1.89062 1.76562,5.3125 0,0.20312 -0.0156,0.625 h -10.3125 q 0.14062,2.28125 1.29687,3.5 1.15625,1.20312 2.89063,1.20312 1.28125,0 2.1875,-0.67187 0.92187,-0.6875 1.45312,-2.17188 z m -7.6875,-3.78125 h 7.71875 q -0.15625,-1.75 -0.89062,-2.625 -1.125,-1.34375 -2.90625,-1.34375 -1.60938,0 -2.71875,1.07813 -1.09375,1.07812 -1.20313,2.89062 z m 2.51563,-7.312499 1.73437,-3.640625 h 3.0625 l -2.85937,3.640625 z m 19.55933,10.484379 2.29687,0.29687 q -0.375,2.39063 -1.9375,3.73438 -1.54687,1.34375 -3.8125,1.34375 -2.84375,0 -4.5625,-1.84375 -1.71875,-1.85938 -1.71875,-5.32813 0,-2.23437 0.73438,-3.90625 0.75,-1.6875 2.26562,-2.53125 1.51563,-0.843749 3.29688,-0.843749 2.25,0 3.67187,1.140629 1.4375,1.14062 1.84375,3.23437 l -2.28125,0.35938 q -0.32812,-1.39063 -1.15625,-2.09375 -0.8125,-0.70313 -1.98437,-0.70313 -1.78125,0 -2.89063,1.26563 -1.09375,1.26562 -1.09375,4.01562 0,2.78125 1.0625,4.04688 1.0625,1.26562 2.78125,1.26562 1.39063,0 2.3125,-0.84375 0.92188,-0.85937 1.17188,-2.60937 z m 4.25,5.0625 V 86.390651 h 2.34375 v 19.078129 z m 15.00027,-1.70313 q -1.3125,1.10938 -2.51562,1.5625 -1.20313,0.45313 -2.57813,0.45313 -2.28125,0 -3.5,-1.10938 -1.21875,-1.10937 -1.21875,-2.84375 0,-1.01562 0.45313,-1.85937 0.46875,-0.84375 1.21875,-1.34375 0.75,-0.51563 1.6875,-0.76563 0.6875,-0.1875 2.07812,-0.35937 2.82813,-0.32813 4.17188,-0.79688 0.0156,-0.48437 0.0156,-0.625 0,-1.42187 -0.65625,-2.01562 -0.90625,-0.79688 -2.67187,-0.79688 -1.65625,0 -2.45313,0.59375 -0.78125,0.57813 -1.15625,2.04688 l -2.29687,-0.3125 q 0.3125,-1.46875 1.03125,-2.375 0.71875,-0.90625 2.0625,-1.39063 1.35937,-0.499999 3.14062,-0.499999 1.78125,0 2.875,0.421879 1.10938,0.42187 1.625,1.04687 0.53125,0.625 0.73438,1.59375 0.125,0.59375 0.125,2.15625 v 3.125 q 0,3.26563 0.14062,4.14063 0.15625,0.85937 0.59375,1.65625 h -2.4375 q -0.375,-0.73438 -0.46875,-1.70313 z m -0.20312,-5.23437 q -1.26563,0.51562 -3.82813,0.89062 -1.4375,0.20313 -2.04687,0.46875 -0.59375,0.25 -0.92188,0.75 -0.3125,0.5 -0.3125,1.125 0,0.9375 0.70313,1.5625 0.70312,0.625 2.07812,0.625 1.34375,0 2.39063,-0.59375 1.0625,-0.59375 1.5625,-1.625 0.375,-0.79687 0.375,-2.34375 z m 5.9812,6.9375 V 91.64065 h 2.10937 v 2.09375 q 0.79688,-1.46875 1.48438,-1.9375 0.6875,-0.468749 1.5,-0.468749 1.1875,0 2.40625,0.765629 l -0.79688,2.17187 q -0.85937,-0.51562 -1.71875,-0.51562 -0.76562,0 -1.39062,0.46875 -0.60938,0.45312 -0.85938,1.28125 -0.39062,1.25 -0.39062,2.73437 v 7.23438 z m 17.92361,-1.70313 q -1.3125,1.10938 -2.51562,1.5625 -1.20313,0.45313 -2.57813,0.45313 -2.28125,0 -3.5,-1.10938 -1.21875,-1.10937 -1.21875,-2.84375 0,-1.01562 0.45313,-1.85937 0.46875,-0.84375 1.21875,-1.34375 0.75,-0.51563 1.6875,-0.76563 0.6875,-0.1875 2.07812,-0.35937 2.82813,-0.32813 4.17188,-0.79688 0.0156,-0.48437 0.0156,-0.625 0,-1.42187 -0.65625,-2.01562 -0.90625,-0.79688 -2.67187,-0.79688 -1.65625,0 -2.45313,0.59375 -0.78125,0.57813 -1.15625,2.04688 l -2.29687,-0.3125 q 0.3125,-1.46875 1.03125,-2.375 0.71875,-0.90625 2.0625,-1.39063 1.35937,-0.499999 3.14062,-0.499999 1.78125,0 2.875,0.421879 1.10938,0.42187 1.625,1.04687 0.53125,0.625 0.73438,1.59375 0.125,0.59375 0.125,2.15625 v 3.125 q 0,3.26563 0.14062,4.14063 0.15625,0.85937 0.59375,1.65625 h -2.4375 q -0.375,-0.73438 -0.46875,-1.70313 z m -0.20312,-5.23437 q -1.26563,0.51562 -3.82813,0.89062 -1.4375,0.20313 -2.04687,0.46875 -0.59375,0.25 -0.92188,0.75 -0.3125,0.5 -0.3125,1.125 0,0.9375 0.70313,1.5625 0.70312,0.625 2.07812,0.625 1.34375,0 2.39063,-0.59375 1.0625,-0.59375 1.5625,-1.625 0.375,-0.79687 0.375,-2.34375 z m 11.12179,4.84375 0.32813,2.0625 q -0.98438,0.21875 -1.76563,0.21875 -1.26562,0 -1.96875,-0.40625 -0.70312,-0.40625 -1,-1.0625 -0.28125,-0.65625 -0.28125,-2.76563 v -7.95312 h -1.71875 v -1.82813 h 1.71875 v -3.421874 l 2.32813,-1.40625 v 4.828124 h 2.35937 v 1.82813 h -2.35937 v 8.07812 q 0,1 0.125,1.29688 0.125,0.28125 0.40625,0.45312 0.28125,0.17188 0.79687,0.17188 0.39063,0 1.03125,-0.0937 z m 2.2966,-14.296879 v -2.6875 h 2.34375 v 2.6875 z m 0,16.390629 V 91.64065 h 2.34375 v 13.82813 z m 5.04715,-6.90625 q 0,-3.84375 2.125,-5.6875 1.78125,-1.546879 4.34375,-1.546879 2.85938,0 4.65625,1.874999 1.8125,1.85938 1.8125,5.15625 0,2.67188 -0.79687,4.20313 -0.79688,1.53125 -2.32813,2.375 -1.53125,0.84375 -3.34375,0.84375 -2.89062,0 -4.6875,-1.85938 -1.78125,-1.85937 -1.78125,-5.35937 z m 2.40625,0 q 0,2.65625 1.15625,3.98437 1.15625,1.3125 2.90625,1.3125 1.75,0 2.90625,-1.32812 1.15625,-1.32813 1.15625,-4.04688 0,-2.5625 -1.17187,-3.89062 -1.15625,-1.32813 -2.89063,-1.32813 -1.75,0 -2.90625,1.32813 -1.15625,1.3125 -1.15625,3.96875 z m 13.27808,6.90625 V 91.64065 h 2.10937 v 1.96875 q 1.53125,-2.281249 4.40625,-2.281249 1.25,0 2.29688,0.453129 1.04687,0.45312 1.5625,1.1875 0.53125,0.71875 0.73437,1.71875 0.125,0.65625 0.125,2.28125 v 8.5 h -2.34375 v -8.40625 q 0,-1.4375 -0.28125,-2.14063 -0.26562,-0.71875 -0.96875,-1.14062 -0.6875,-0.42188 -1.625,-0.42188 -1.48437,0 -2.57812,0.95313 -1.09375,0.95312 -1.09375,3.60937 v 7.54688 z m 31.19964,0 v -1.75 q -1.3125,2.0625 -3.85937,2.0625 -1.65625,0 -3.04688,-0.90625 -1.375,-0.92188 -2.14062,-2.54688 -0.76563,-1.64062 -0.76563,-3.75 0,-2.07812 0.6875,-3.76562 0.70313,-1.6875 2.07813,-2.57813 1.375,-0.906249 3.07812,-0.906249 1.25,0 2.21875,0.531249 0.98438,0.53125 1.59375,1.375 v -6.843749 h 2.34375 v 19.078129 z m -7.40625,-6.89063 q 0,2.64063 1.125,3.96875 1.125,1.3125 2.64063,1.3125 1.53125,0 2.60937,-1.25 1.07813,-1.26562 1.07813,-3.84375 0,-2.84375 -1.09375,-4.17187 -1.09375,-1.32813 -2.70313,-1.32813 -1.54687,0 -2.60937,1.28125 -1.04688,1.28125 -1.04688,4.03125 z m 13.27808,-5.4375 -0.59375,-3.562499 v -3.1875 h 2.67188 v 3.1875 l -0.625,3.562499 z m 14.13599,12.32813 v -2.03125 q -1.60938,2.34375 -4.375,2.34375 -1.23438,0 -2.29688,-0.46875 -1.0625,-0.46875 -1.57812,-1.17188 -0.5,-0.71875 -0.71875,-1.75 -0.14063,-0.6875 -0.14063,-2.1875 v -8.5625 h 2.34375 v 7.67188 q 0,1.82812 0.14063,2.46875 0.21875,0.92187 0.9375,1.45312 0.71875,0.53125 1.76562,0.53125 1.0625,0 1.98438,-0.53125 0.92187,-0.54687 1.29687,-1.46875 0.39063,-0.9375 0.39063,-2.71875 v -7.40625 h 2.34375 v 13.82813 z m 5.76245,0 V 91.64065 h 2.10937 v 1.96875 q 1.53125,-2.281249 4.40625,-2.281249 1.25,0 2.29688,0.453129 1.04687,0.45312 1.5625,1.1875 0.53125,0.71875 0.73437,1.71875 0.125,0.65625 0.125,2.28125 v 8.5 h -2.34375 v -8.40625 q 0,-1.4375 -0.28125,-2.14063 -0.26562,-0.71875 -0.96875,-1.14062 -0.6875,-0.42188 -1.625,-0.42188 -1.48437,0 -2.57812,0.95313 -1.09375,0.95312 -1.09375,3.60937 v 7.54688 z"
     fill-rule="nonzero"
     id="path4088" />
  <path
     fill="#000000"
     d="m 320.75127,137.46878 h -2.17188 v -19.07812 h 2.34375 v 6.79687 q 1.48438,-1.85938 3.78125,-1.85938 1.28125,0 2.40625,0.51563 1.14063,0.51562 1.875,1.45312 0.75,0.92188 1.15625,2.25 0.42188,1.3125 0.42188,2.79688 0,3.5625 -1.76563,5.5 -1.75,1.9375 -4.21875,1.9375 -2.4375,0 -3.82812,-2.04688 z m -0.0312,-7.01563 q 0,2.48438 0.67187,3.59375 1.10938,1.8125 3,1.8125 1.53125,0 2.65625,-1.32812 1.125,-1.34375 1.125,-3.98438 0,-2.70312 -1.07812,-3.98437 -1.07813,-1.29688 -2.59375,-1.29688 -1.54688,0 -2.67188,1.32813 -1.10937,1.32812 -1.10937,3.85937 z m 11.82492,0.10938 q 0,-3.84375 2.125,-5.6875 1.78125,-1.54688 4.34375,-1.54688 2.85938,0 4.65625,1.875 1.8125,1.85938 1.8125,5.15625 0,2.67188 -0.79687,4.20313 -0.79688,1.53125 -2.32813,2.375 -1.53125,0.84375 -3.34375,0.84375 -2.89062,0 -4.6875,-1.85938 -1.78125,-1.85937 -1.78125,-5.35937 z m 2.40625,0 q 0,2.65625 1.15625,3.98437 1.15625,1.3125 2.90625,1.3125 1.75,0 2.90625,-1.32812 1.15625,-1.32813 1.15625,-4.04688 0,-2.5625 -1.17187,-3.89062 -1.15625,-1.32813 -2.89063,-1.32813 -1.75,0 -2.90625,1.32813 -1.15625,1.3125 -1.15625,3.96875 z m 12.4187,0 q 0,-3.84375 2.125,-5.6875 1.78125,-1.54688 4.34375,-1.54688 2.85938,0 4.65625,1.875 1.8125,1.85938 1.8125,5.15625 0,2.67188 -0.79687,4.20313 -0.79688,1.53125 -2.32813,2.375 -1.53125,0.84375 -3.34375,0.84375 -2.89062,0 -4.6875,-1.85938 -1.78125,-1.85937 -1.78125,-5.35937 z m 2.40625,0 q 0,2.65625 1.15625,3.98437 1.15625,1.3125 2.90625,1.3125 1.75,0 2.90625,-1.32812 1.15625,-1.32813 1.15625,-4.04688 0,-2.5625 -1.17187,-3.89062 -1.15625,-1.32813 -2.89063,-1.32813 -1.75,0 -2.90625,1.32813 -1.15625,1.3125 -1.15625,3.96875 z m 13.23117,6.90625 v -19.07812 h 2.34375 v 19.07812 z m 15.43781,-4.45313 2.42187,0.29688 q -0.57812,2.125 -2.125,3.29687 -1.54687,1.17188 -3.95312,1.17188 -3.03125,0 -4.8125,-1.85938 -1.78125,-1.875 -1.78125,-5.25 0,-3.48437 1.79687,-5.40625 1.79688,-1.9375 4.67188,-1.9375 2.76562,0 4.51562,1.89063 1.76563,1.89062 1.76563,5.3125 0,0.20312 -0.0156,0.625 h -10.3125 q 0.14063,2.28125 1.29688,3.5 1.15625,1.20312 2.89062,1.20312 1.28125,0 2.1875,-0.67187 0.92188,-0.6875 1.45313,-2.17188 z m -7.6875,-3.78125 h 7.71875 q -0.15625,-1.75 -0.89063,-2.625 -1.125,-1.34375 -2.90625,-1.34375 -1.60937,0 -2.71875,1.07813 -1.09375,1.07812 -1.20312,2.89062 z m 2.51562,-7.3125 1.73438,-3.64062 h 3.0625 l -2.85938,3.64062 z m 19.9968,11.09375 2.42187,0.29688 q -0.57812,2.125 -2.125,3.29687 -1.54687,1.17188 -3.95312,1.17188 -3.03125,0 -4.8125,-1.85938 -1.78125,-1.875 -1.78125,-5.25 0,-3.48437 1.79687,-5.40625 1.79688,-1.9375 4.67188,-1.9375 2.76562,0 4.51562,1.89063 1.76563,1.89062 1.76563,5.3125 0,0.20312 -0.0156,0.625 h -10.3125 q 0.14063,2.28125 1.29688,3.5 1.15625,1.20312 2.89062,1.20312 1.28125,0 2.1875,-0.67187 0.92188,-0.6875 1.45313,-2.17188 z m -7.6875,-3.78125 h 7.71875 q -0.15625,-1.75 -0.89063,-2.625 -1.125,-1.34375 -2.90625,-1.34375 -1.60937,0 -2.71875,1.07813 -1.09375,1.07812 -1.20312,2.89062 z m 13.0437,8.23438 v -13.82813 h 2.10938 v 1.96875 q 1.53125,-2.28125 4.40625,-2.28125 1.25,0 2.29687,0.45313 1.04688,0.45312 1.5625,1.1875 0.53125,0.71875 0.73438,1.71875 0.125,0.65625 0.125,2.28125 v 8.5 h -2.34375 v -8.40625 q 0,-1.4375 -0.28125,-2.14063 -0.26563,-0.71875 -0.96875,-1.14062 -0.6875,-0.42188 -1.625,-0.42188 -1.48438,0 -2.57813,0.95313 -1.09375,0.95312 -1.09375,3.60937 v 7.54688 z"
     fill-rule="nonzero"
     id="path4090" />
  <path
     fill="#000000"
     fill-opacity="0"
     d="m 307.82939,172.3911 h 101.15485 v 46.02887 H 307.82939 Z"
     fill-rule="evenodd"
     id="path4092" />
  <path
     fill="#000000"
     fill-opacity="0"
     d="M 307.82939,195.40553 H 251.29396"
     fill-rule="evenodd"
     id="path4098" />
  <path
     fill="#000000"
     fill-opacity="0"
     d="M 307.82939,111.86878 H 249.84514"
     fill-rule="evenodd"
     id="path4104" />
  <path
     stroke="#000000"
     stroke-width="1"
     stroke-linejoin="round"
     stroke-linecap="butt"
     d="M 307.82939,111.86878 H 255.84514"
     fill-rule="evenodd"
     id="path4106" />
  <path
     fill="#000000"
     stroke="#000000"
     stroke-width="1"
     stroke-linecap="butt"
     d="m 255.84514,110.21704 -4.53809,1.65173 4.53809,1.65174 z"
     fill-rule="evenodd"
     id="path4108" />
  <path
     fill="#cfe2f3"
     d="m 0.5,171.36745 h 248.37533 v 53.03937 H 0.5 Z"
     fill-rule="evenodd"
     id="path4110" />
  <path
     fill="#000000"
     fill-opacity="0"
     d="m 31.546921,171.36745 v 53.03937 M 0.500001,177.99739 H 248.87534"
     fill-rule="evenodd"
     id="path4112" />
  <path
     fill="#000000"
     fill-opacity="0"
     d="m 0.5,171.36745 h 248.37533 v 53.03937 H 0.5 Z"
     fill-rule="evenodd"
     id="path4114" />
  <path
     stroke="#000000"
     stroke-width="1"
     stroke-linejoin="round"
     stroke-linecap="butt"
     d="m 31.546921,171.36745 v 53.03937 M 0.500001,177.99739 H 248.87534"
     fill-rule="evenodd"
     id="path4116" />
  <path
     stroke="#000000"
     stroke-width="1"
     stroke-linejoin="round"
     stroke-linecap="butt"
     d="m 0.5,171.36745 h 248.37533 v 53.03937 H 0.5 Z"
     fill-rule="evenodd"
     id="path4118" />
  <path
     fill="#000000"
     fill-opacity="0"
     d="m 296.59708,169.2288 h 317.4252 v 57.01575 h -317.4252 z"
     fill-rule="evenodd"
     id="path4128" />
  <path
     stroke="#000000"
     stroke-width="1"
     stroke-linejoin="round"
     stroke-linecap="butt"
     stroke-dasharray="1, 3"
     d="m 296.59708,169.2288 h 317.4252 v 57.01575 h -317.4252 z"
     fill-rule="evenodd"
     id="path4130" />
  <path
     fill="#000000"
     fill-opacity="0"
     d="M 296.59708,197.73667 H 249.1955"
     fill-rule="evenodd"
     id="path4136" />
  <path
     stroke="#000000"
     stroke-width="1"
     stroke-linejoin="round"
     stroke-linecap="butt"
     d="M 296.59708,197.73667 H 255.1955"
     fill-rule="evenodd"
     id="path4138" />
  <path
     fill="#000000"
     stroke="#000000"
     stroke-width="1"
     stroke-linecap="butt"
     d="m 255.1955,196.08494 -4.53809,1.65173 4.53809,1.65174 z"
     fill-rule="evenodd"
     id="path4140" />
  <path
     fill="#000000"
     fill-opacity="0"
     d="m 124.68766,218.40684 v 34.2677"
     fill-rule="evenodd"
     id="path4142" />
  <path
     fill="#000000"
     fill-opacity="0"
     d="m 124.68766,305.7139 v 34.26773"
     fill-rule="evenodd"
     id="path4148" />
  <path
     stroke="#000000"
     stroke-width="1"
     stroke-linejoin="round"
     stroke-linecap="butt"
     d="m 124.68766,224.40681 v 28.26773"
     fill-rule="evenodd"
     id="path4150" />
  <path
     fill="#000000"
     stroke="#000000"
     stroke-width="1"
     stroke-linecap="butt"
     d="m 123.05606,252.67454 1.65173,4.53809 1.65174,-4.53809 z"
     fill-rule="evenodd"
     id="path4152" />
  <path
     fill="#000000"
     fill-opacity="0"
     d="m 125.65485,138.38847 v 34.01575"
     fill-rule="evenodd"
     id="path4154" />
  <path
     stroke="#000000"
     stroke-width="1"
     stroke-linejoin="round"
     stroke-linecap="butt"
     d="m 125.65485,138.38847 v 28.01575"
     fill-rule="evenodd"
     id="path4156" />
  <path
     fill="#000000"
     stroke="#000000"
     stroke-width="1"
     stroke-linecap="butt"
     d="m 124.00312,166.40422 1.65173,4.53809 1.65174,-4.53809 z"
     fill-rule="evenodd"
     id="path4158" />
  <text
     xml:space="preserve"
     style="font-size:26.6667px;line-height:1.25;font-family:Alegreya;-inkscape-font-specification:Alegreya;white-space:pre;inline-size:0;fill:#000000;fill-opacity:1"
     x="317.03857"
     y="605.48645"
     id="text1913-7"
     transform="translate(-2.985799,-398.55083)"><tspan
       id="tspan1911-4"
       x="317.03857"
       y="605.48645"
       style="font-style:normal;font-variant:normal;font-weight:normal;font-stretch:normal;font-family:Arial;-inkscape-font-specification:Arial">not False = True</tspan></text>
  <path
     fill="#000000"
     d="m 48.300481,125.3752 h -2.17188 v -19.07813 h 2.34375 v 6.79688 q 1.48438,-1.85938 3.78125,-1.85938 1.28125,0 2.40625,0.51563 1.14063,0.51562 1.875,1.45312 0.75,0.92188 1.15626,2.25 0.42188,1.3125 0.42188,2.79688 0,3.5625 -1.76564,5.5 -1.75,1.9375 -4.21875,1.9375 -2.4375,0 -3.82812,-2.04688 z m -0.0312,-7.01563 q 0,2.48438 0.67187,3.59375 1.10938,1.8125 3,1.8125 1.53125,0 2.65625,-1.32812 1.125,-1.34375 1.125,-3.98438 0,-2.70312 -1.07812,-3.98437 -1.07813,-1.29688 -2.59375,-1.29688 -1.54688,0 -2.67188,1.32813 -1.10937,1.32812 -1.10937,3.85937 z m 11.82494,0.10938 q 0,-3.84375 2.125,-5.6875 1.78125,-1.54688 4.34375,-1.54688 2.85937,0 4.65625,1.875 1.8125,1.85938 1.8125,5.15625 0,2.67188 -0.79688,4.20313 -0.79687,1.53125 -2.32812,2.375 -1.53125,0.84375 -3.34375,0.84375 -2.89062,0 -4.6875,-1.85938 -1.78125,-1.85937 -1.78125,-5.35937 z m 2.40625,0 q 0,2.65625 1.15625,3.98437 1.15625,1.3125 2.90625,1.3125 1.75,0 2.90625,-1.32812 1.15625,-1.32813 1.15625,-4.04688 0,-2.5625 -1.17188,-3.89062 -1.15625,-1.32813 -2.89062,-1.32813 -1.75,0 -2.90625,1.32813 -1.15625,1.3125 -1.15625,3.96875 z m 12.41869,0 q 0,-3.84375 2.125,-5.6875 1.78125,-1.54688 4.34375,-1.54688 2.85937,0 4.65625,1.875 1.8125,1.85938 1.8125,5.15625 0,2.67188 -0.79688,4.20313 -0.79687,1.53125 -2.32812,2.375 -1.53125,0.84375 -3.34375,0.84375 -2.89063,0 -4.6875,-1.85938 -1.78125,-1.85937 -1.78125,-5.35937 z m 2.40625,0 q 0,2.65625 1.15625,3.98437 1.15625,1.3125 2.90625,1.3125 1.75,0 2.90625,-1.32812 1.15625,-1.32813 1.15625,-4.04688 0,-2.5625 -1.17188,-3.89062 -1.15625,-1.32813 -2.89062,-1.32813 -1.75,0 -2.90625,1.32813 -1.15625,1.3125 -1.15625,3.96875 z m 13.23119,6.90625 v -19.07813 h 2.34375 v 19.07813 z m 14.156529,0 h -2.34375 v -14.92188 q -0.85938,0.79688 -2.23438,1.60938 -1.359369,0.79687 -2.453119,1.20312 v -2.26562 q 1.96875,-0.92188 3.437499,-2.23438 1.46875,-1.3125 2.07812,-2.54687 h 1.51563 z m 26.37153,-11.21875 h -12.59375 v -2.1875 h 12.59375 z m 0,5.79687 h -12.59375 v -2.1875 h 12.59375 z m 18.83216,5.42188 h -2.34375 v -14.92188 q -0.85938,0.79688 -2.23438,1.60938 -1.35937,0.79687 -2.45312,1.20312 v -2.26562 q 1.96875,-0.92188 3.4375,-2.23438 1.46875,-1.3125 2.07812,-2.54687 h 1.51563 z m 26.38714,-8.34375 -12.64062,5.40625 v -2.32813 l 10.01562,-4.15625 -10.01562,-4.10937 v -2.32813 l 12.64062,5.32813 z m 22.3009,6.09375 v 2.25 h -12.60937 q -0.0312,-0.84375 0.26562,-1.625 0.48438,-1.29688 1.54688,-2.54688 1.0625,-1.25 3.0625,-2.875 3.10937,-2.5625 4.20312,-4.04687 1.09375,-1.5 1.09375,-2.8125 0,-1.40625 -1,-2.35938 -0.98437,-0.95312 -2.59375,-0.95312 -1.6875,0 -2.70312,1.01562 -1.01563,1.01563 -1.03125,2.8125 l -2.40625,-0.25 q 0.25,-2.6875 1.85937,-4.09375 1.60938,-1.42187 4.32813,-1.42187 2.75,0 4.34375,1.53125 1.60937,1.51562 1.60937,3.76562 0,1.14063 -0.46875,2.25 -0.46875,1.10938 -1.5625,2.32813 -1.07812,1.21875 -3.60937,3.35937 -2.09375,1.76563 -2.70313,2.40625 -0.59375,0.625 -0.98437,1.26563 z"
     fill-rule="nonzero"
     id="path4082-4" />
  <text
     xml:space="preserve"
     style="font-size:26.6667px;line-height:1.25;font-family:Alegreya;-inkscape-font-specification:Alegreya;white-space:pre;inline-size:0;fill:#000000;fill-opacity:1"
     x="317.03857"
     y="605.48645"
     id="text1913-5"
     transform="translate(-280.07174,-395.37955)"><tspan
       id="tspan1911-49"
       x="317.03857"
       y="605.48645"
       style="font-style:normal;font-variant:normal;font-weight:normal;font-stretch:normal;font-family:Arial;-inkscape-font-specification:Arial">result = not bool1</tspan></text>
</svg>
