<?xml version="1.0" encoding="UTF-8" standalone="no"?>
<svg
   xmlns:dc="http://purl.org/dc/elements/1.1/"
   xmlns:cc="http://creativecommons.org/ns#"
   xmlns:rdf="http://www.w3.org/1999/02/22-rdf-syntax-ns#"
   xmlns:svg="http://www.w3.org/2000/svg"
   xmlns="http://www.w3.org/2000/svg"
   xmlns:sodipodi="http://sodipodi.sourceforge.net/DTD/sodipodi-0.dtd"
   xmlns:inkscape="http://www.inkscape.org/namespaces/inkscape"
   version="1.1"
   viewBox="0 0 651.90155 636.86774"
   fill="none"
   stroke="none"
   stroke-linecap="square"
   stroke-miterlimit="10"
   id="svg3091"
   sodipodi:docname="flowchart-OR.svg"
   width="651.90155"
   height="636.86774"
   inkscape:version="1.0.2-2 (e86c870879, 2021-01-15)">
  <metadata
     id="metadata3097">
    <rdf:RDF>
      <cc:Work
         rdf:about="">
        <dc:format>image/svg+xml</dc:format>
        <dc:type
           rdf:resource="http://purl.org/dc/dcmitype/StillImage" />
        <dc:title></dc:title>
      </cc:Work>
    </rdf:RDF>
  </metadata>
  <defs
     id="defs3095" />
  <sodipodi:namedview
     pagecolor="#ffffff"
     bordercolor="#666666"
     borderopacity="1"
     objecttolerance="10"
     gridtolerance="10"
     guidetolerance="10"
     inkscape:pageopacity="0"
     inkscape:pageshadow="2"
     inkscape:window-width="1920"
     inkscape:window-height="1017"
     id="namedview3093"
     showgrid="false"
     fit-margin-top="0"
     fit-margin-left="0"
     fit-margin-right="0"
     fit-margin-bottom="0"
     inkscape:zoom="1.1425371"
     inkscape:cx="449.09186"
     inkscape:cy="350.83596"
     inkscape:window-x="-8"
     inkscape:window-y="-8"
     inkscape:window-maximized="1"
     inkscape:current-layer="svg3091" />
  <clipPath
     id="p.0">
    <path
       d="M 0,0 H 960 V 720 H 0 Z"
       clip-rule="nonzero"
       id="path2926" />
  </clipPath>
  <g
     clip-path="url(#p.0)"
     id="g3089"
     transform="translate(-30.90814,-9.1640415)">
    <path
       fill="#000000"
       fill-opacity="0"
       d="M 0,0 H 960 V 720 H 0 Z"
       fill-rule="evenodd"
       id="path2929" />
    <path
       fill="#cfe2f3"
       d="m 130.73216,9.6640415 h 82.58986 v 0 c 10.81949,0 19.59042,12.7634815 19.59042,28.5080315 0,15.744553 -8.77093,28.508034 -19.59042,28.508034 h -82.58986 v 0 c -10.8195,0 -19.59043,-12.763481 -19.59043,-28.508034 0,-15.744551 8.77093,-28.5080315 19.59043,-28.5080315 z"
       fill-rule="evenodd"
       id="path2931" />
    <path
       stroke="#000000"
       stroke-width="1"
       stroke-linejoin="round"
       stroke-linecap="butt"
       d="m 130.73216,9.6640415 h 82.58986 v 0 c 10.81949,0 19.59042,12.7634815 19.59042,28.5080315 0,15.744553 -8.77093,28.508034 -19.59042,28.508034 h -82.58986 v 0 c -10.8195,0 -19.59043,-12.763481 -19.59043,-28.508034 0,-15.744551 8.77093,-28.5080315 19.59043,-28.5080315 z"
       fill-rule="evenodd"
       id="path2933" />
    <path
       fill="#000000"
       d="M 134.0857,47.77207 V 28.693945 h 6.5625 q 2.23437,0 3.40625,0.265625 1.64062,0.375 2.79687,1.375 1.5,1.265625 2.25,3.25 0.75,1.984375 0.75,4.546875 0,2.171875 -0.51562,3.859375 -0.5,1.671875 -1.29688,2.78125 -0.78125,1.09375 -1.73437,1.71875 -0.9375,0.625 -2.28125,0.953125 -1.32813,0.328125 -3.0625,0.328125 z m 2.51562,-2.25 h 4.07813 q 1.89062,0 2.95312,-0.34375 1.07813,-0.359375 1.71875,-1 0.89063,-0.890625 1.39063,-2.40625 0.51562,-1.515625 0.51562,-3.6875 0,-2.984375 -0.98437,-4.59375 -0.98438,-1.609375 -2.39063,-2.15625 -1.01562,-0.390625 -3.26562,-0.390625 h -4.01563 z m 25.89092,-2.203125 2.42187,0.296875 q -0.57812,2.125 -2.125,3.296875 -1.54687,1.171875 -3.95312,1.171875 -3.03125,0 -4.8125,-1.859375 -1.78125,-1.875 -1.78125,-5.25 0,-3.484375 1.79687,-5.40625 1.79688,-1.9375 4.67188,-1.9375 2.76562,0 4.51562,1.890625 1.76563,1.890625 1.76563,5.3125 0,0.203125 -0.0156,0.625 h -10.3125 q 0.14063,2.28125 1.29688,3.5 1.15625,1.203125 2.89062,1.203125 1.28125,0 2.1875,-0.671875 0.92188,-0.6875 1.45313,-2.171875 z m -7.6875,-3.78125 h 7.71875 q -0.15625,-1.75 -0.89063,-2.625 -1.125,-1.34375 -2.90625,-1.34375 -1.60937,0 -2.71875,1.078125 -1.09375,1.078125 -1.20312,2.890625 z m 2.51562,-7.3125 1.73438,-3.640625 h 3.0625 l -2.85938,3.640625 z m 10.52807,20.84375 v -19.125 h 2.14062 v 1.796875 q 0.75,-1.046875 1.70313,-1.578125 0.95312,-0.53125 2.3125,-0.53125 1.76562,0 3.10937,0.921875 1.35938,0.90625 2.04688,2.5625 0.6875,1.65625 0.6875,3.640625 0,2.125 -0.76563,3.828125 -0.75,1.6875 -2.20312,2.59375 -1.45313,0.90625 -3.04688,0.90625 -1.17187,0 -2.10937,-0.484375 -0.92188,-0.5 -1.53125,-1.265625 v 6.734375 z m 2.125,-12.125 q 0,2.65625 1.07812,3.9375 1.09375,1.28125 2.625,1.28125 1.5625,0 2.67188,-1.3125 1.10937,-1.328125 1.10937,-4.109375 0,-2.640625 -1.09375,-3.953125 -1.07812,-1.3125 -2.59375,-1.3125 -1.48437,0 -2.64062,1.40625 -1.15625,1.390625 -1.15625,4.0625 z m 21.73118,5.125 q -1.3125,1.109375 -2.51562,1.5625 -1.20313,0.453125 -2.57813,0.453125 -2.28125,0 -3.5,-1.109375 -1.21875,-1.109375 -1.21875,-2.84375 0,-1.015625 0.45313,-1.859375 0.46875,-0.84375 1.21875,-1.34375 0.75,-0.515625 1.6875,-0.765625 0.6875,-0.1875 2.07812,-0.359375 2.82813,-0.328125 4.17188,-0.796875 0.0156,-0.484375 0.0156,-0.625 0,-1.421875 -0.65625,-2.015625 -0.90625,-0.796875 -2.67187,-0.796875 -1.65625,0 -2.45313,0.59375 -0.78125,0.578125 -1.15625,2.046875 l -2.29687,-0.3125 q 0.3125,-1.46875 1.03125,-2.375 0.71875,-0.90625 2.0625,-1.390625 1.35937,-0.5 3.14062,-0.5 1.78125,0 2.875,0.421875 1.10938,0.421875 1.625,1.046875 0.53125,0.625 0.73438,1.59375 0.125,0.59375 0.125,2.15625 v 3.125 q 0,3.265625 0.14062,4.140625 0.15625,0.859375 0.59375,1.65625 h -2.4375 q -0.375,-0.734375 -0.46875,-1.703125 z m -0.20312,-5.234375 q -1.26563,0.515625 -3.82813,0.890625 -1.4375,0.203125 -2.04687,0.46875 -0.59375,0.25 -0.92188,0.75 -0.3125,0.5 -0.3125,1.125 0,0.9375 0.70313,1.5625 0.70312,0.625 2.07812,0.625 1.34375,0 2.39063,-0.59375 1.0625,-0.59375 1.5625,-1.625 0.375,-0.796875 0.375,-2.34375 z m 5.98118,6.9375 V 33.943945 h 2.10938 v 2.09375 q 0.79687,-1.46875 1.48437,-1.9375 0.6875,-0.46875 1.5,-0.46875 1.1875,0 2.40625,0.765625 l -0.79687,2.171875 q -0.85938,-0.515625 -1.71875,-0.515625 -0.76563,0 -1.39063,0.46875 -0.60937,0.453125 -0.85937,1.28125 -0.39063,1.25 -0.39063,2.734375 v 7.234375 z m 14.01737,-2.09375 0.32812,2.0625 q -0.98437,0.21875 -1.76562,0.21875 -1.26563,0 -1.96875,-0.40625 -0.70313,-0.40625 -1,-1.0625 -0.28125,-0.65625 -0.28125,-2.765625 V 35.77207 h -1.71875 v -1.828125 h 1.71875 V 30.52207 l 2.32812,-1.40625 v 4.828125 h 2.35938 v 1.828125 h -2.35938 v 8.078125 q 0,1 0.125,1.296875 0.125,0.28125 0.40625,0.453125 0.28125,0.171875 0.79688,0.171875 0.39062,0 1.03125,-0.09375 z"
       fill-rule="nonzero"
       id="path2935" />
    <path
       fill="#cfe2f3"
       d="m 132.28725,589.01575 h 89.14583 v 0 c 11.67835,0 21.14551,12.76349 21.14551,28.50806 0,15.7445 -9.46716,28.50799 -21.14551,28.50799 h -89.14583 v 0 c -11.67834,0 -21.14551,-12.76349 -21.14551,-28.50799 0,-15.74457 9.46717,-28.50806 21.14551,-28.50806 z"
       fill-rule="evenodd"
       id="path2937" />
    <path
       stroke="#000000"
       stroke-width="1"
       stroke-linejoin="round"
       stroke-linecap="butt"
       d="m 132.28725,589.01575 h 89.14583 v 0 c 11.67835,0 21.14551,12.76349 21.14551,28.50806 0,15.7445 -9.46716,28.50799 -21.14551,28.50799 h -89.14583 v 0 c -11.67834,0 -21.14551,-12.76349 -21.14551,-28.50799 0,-15.74457 9.46717,-28.50806 21.14551,-28.50806 z"
       fill-rule="evenodd"
       id="path2939" />
    <path
       fill="#000000"
       d="m 160.53276,627.1238 v -19.07813 h 12.875 v 2.25 h -10.34375 v 5.90625 h 8.95312 v 2.25 h -8.95312 v 8.67188 z m 15.86082,-16.39063 v -2.6875 h 2.34375 v 2.6875 z m 0,16.39063 v -13.82813 h 2.34375 v 13.82813 z m 5.90654,0 v -13.82813 h 2.10938 v 1.96875 q 1.53125,-2.28125 4.40625,-2.28125 1.25,0 2.29687,0.45313 1.04688,0.45312 1.5625,1.1875 0.53125,0.71875 0.73438,1.71875 0.125,0.65625 0.125,2.28125 v 8.5 h -2.34375 v -8.40625 q 0,-1.4375 -0.28125,-2.14063 -0.26563,-0.71875 -0.96875,-1.14062 -0.6875,-0.42188 -1.625,-0.42188 -1.48438,0 -2.57813,0.95313 -1.09375,0.95312 -1.09375,3.60937 v 7.54688 z"
       fill-rule="nonzero"
       id="path2941" />
    <path
       fill="#000000"
       fill-opacity="0"
       d="M 172.02708,66.68011 V 93.861209"
       fill-rule="evenodd"
       id="path2943" />
    <path
       stroke="#000000"
       stroke-width="1"
       stroke-linejoin="round"
       stroke-linecap="butt"
       d="M 172.02708,66.6801 V 87.861214"
       fill-rule="evenodd"
       id="path2945" />
    <path
       fill="#000000"
       stroke="#000000"
       stroke-width="1"
       stroke-linecap="butt"
       d="m 170.37535,87.86121 1.65173,4.538094 1.65174,-4.538094 z"
       fill-rule="evenodd"
       id="path2947" />
    <path
       fill="#000000"
       fill-opacity="0"
       d="m 176.86015,553.6142 v 35.40155"
       fill-rule="evenodd"
       id="path2949" />
    <path
       stroke="#000000"
       stroke-width="1"
       stroke-linejoin="round"
       stroke-linecap="butt"
       d="m 176.86015,553.6142 v 29.40155"
       fill-rule="evenodd"
       id="path2951" />
    <path
       fill="#000000"
       stroke="#000000"
       stroke-width="1"
       stroke-linecap="butt"
       d="m 175.20842,583.01575 1.65173,4.53809 1.65174,-4.53809 z"
       fill-rule="evenodd"
       id="path2953" />
    <path
       fill="#cfe2f3"
       d="m 68.6168,93.86089 h 248.37534 v 53.03937 H 68.6168 Z"
       fill-rule="evenodd"
       id="path2955" />
    <path
       fill="#000000"
       fill-opacity="0"
       d="m 99.66371,93.86089 v 53.03937 M 68.616797,100.49081 H 316.99214"
       fill-rule="evenodd"
       id="path2957" />
    <path
       fill="#000000"
       fill-opacity="0"
       d="m 68.6168,93.86089 h 248.37534 v 53.03937 H 68.6168 Z"
       fill-rule="evenodd"
       id="path2959" />
    <path
       stroke="#000000"
       stroke-width="1"
       stroke-linejoin="round"
       stroke-linecap="butt"
       d="m 99.66371,93.86089 v 53.03937 M 68.616797,100.49081 H 316.99214"
       fill-rule="evenodd"
       id="path2961" />
    <path
       stroke="#000000"
       stroke-width="1"
       stroke-linejoin="round"
       stroke-linecap="butt"
       d="m 68.6168,93.86089 h 248.37534 v 53.03937 H 68.6168 Z"
       fill-rule="evenodd"
       id="path2963" />
    <path
       fill="#000000"
       d="m 110.52309,133.01553 v -18.125 h 6.79687 q 2.07813,0 3.32813,0.54688 1.26562,0.54687 1.96875,1.70312 0.71875,1.14063 0.71875,2.375 0,1.17188 -0.64063,2.20313 -0.625,1.01562 -1.90625,1.65625 1.65625,0.46875 2.53125,1.64062 0.89063,1.15625 0.89063,2.75 0,1.26562 -0.54688,2.35937 -0.53125,1.09375 -1.32812,1.6875 -0.78125,0.59375 -1.98438,0.90625 -1.1875,0.29688 -2.92187,0.29688 z m 2.39062,-10.51562 h 3.92188 q 1.59375,0 2.29687,-0.20313 0.90625,-0.28125 1.375,-0.90625 0.46875,-0.625 0.46875,-1.57812 0,-0.90625 -0.4375,-1.59375 -0.4375,-0.6875 -1.25,-0.9375 -0.79687,-0.25 -2.75,-0.25 h -3.625 z m 0,8.37499 h 4.51563 q 1.17187,0 1.64062,-0.0781 0.82813,-0.15625 1.375,-0.5 0.5625,-0.34375 0.92188,-1 0.35937,-0.67188 0.35937,-1.53125 0,-1.01562 -0.53125,-1.76562 -0.51562,-0.75 -1.4375,-1.04688 -0.92187,-0.3125 -2.64062,-0.3125 h -4.20313 z m 13.48742,-4.42187 q 0,-3.65625 2.03125,-5.40625 1.6875,-1.46875 4.125,-1.46875 2.70312,0 4.42187,1.78125 1.71875,1.78125 1.71875,4.90625 0,2.53125 -0.76562,3.98437 -0.75,1.45313 -2.20313,2.26563 -1.45312,0.79687 -3.17187,0.79687 -2.76563,0 -4.46875,-1.76562 -1.6875,-1.76563 -1.6875,-5.09375 z m 2.28125,0 q 0,2.51562 1.09375,3.78125 1.10937,1.25 2.78125,1.25 1.65625,0 2.75,-1.26563 1.10937,-1.26562 1.10937,-3.84374 0,-2.4375 -1.10937,-3.6875 -1.10938,-1.26563 -2.75,-1.26563 -1.67188,0 -2.78125,1.25 -1.09375,1.25 -1.09375,3.78125 z m 11.80505,0 q 0,-3.65625 2.03125,-5.40625 1.6875,-1.46875 4.125,-1.46875 2.70313,0 4.42188,1.78125 1.71875,1.78125 1.71875,4.90625 0,2.53125 -0.76563,3.98437 -0.75,1.45313 -2.20312,2.26563 -1.45313,0.79687 -3.17188,0.79687 -2.76562,0 -4.46875,-1.76562 -1.6875,-1.76563 -1.6875,-5.09375 z m 2.28125,0 q 0,2.51562 1.09375,3.78125 1.10938,1.25 2.78125,1.25 1.65625,0 2.75,-1.26563 1.10938,-1.26562 1.10938,-3.84374 0,-2.4375 -1.10938,-3.6875 -1.10937,-1.26563 -2.75,-1.26563 -1.67187,0 -2.78125,1.25 -1.09375,1.25 -1.09375,3.78125 z m 12.5863,6.5625 v -18.125 h 2.21875 v 18.125 z m 14.65836,-4.23438 2.29688,0.29688 q -0.53125,2.01562 -2.01563,3.125 -1.46875,1.10937 -3.75,1.10937 -2.89062,0 -4.57812,-1.76562 -1.6875,-1.78125 -1.6875,-4.98437 0,-3.3125 1.70312,-5.14063 1.71875,-1.84375 4.4375,-1.84375 2.64063,0 4.29688,1.79688 1.67187,1.79687 1.67187,5.04687 0,0.20313 -0.0156,0.59375 h -9.78125 q 0.10937,2.17187 1.20312,3.32812 1.10938,1.14063 2.76563,1.14063 1.21875,0 2.07812,-0.64063 0.875,-0.64062 1.375,-2.0625 z m -7.3125,-3.59374 h 7.34375 q -0.15625,-1.65625 -0.84375,-2.48438 -1.0625,-1.28125 -2.75,-1.28125 -1.54687,0 -2.59375,1.03125 -1.03125,1.01563 -1.15625,2.73438 z m 20.97693,6.20312 q -1.23438,1.0625 -2.375,1.5 -1.14063,0.42187 -2.45313,0.42187 -2.17187,0 -3.32812,-1.04687 -1.15625,-1.0625 -1.15625,-2.71875 0,-0.95313 0.4375,-1.75 0.4375,-0.79687 1.14062,-1.28125 0.71875,-0.48437 1.60938,-0.73437 0.65625,-0.17188 1.96875,-0.32813 2.70312,-0.32812 3.96875,-0.76562 0.0156,-0.46875 0.0156,-0.59375 0,-1.35938 -0.625,-1.90625 -0.85937,-0.76563 -2.53125,-0.76563 -1.57812,0 -2.32812,0.5625 -0.75,0.54688 -1.10938,1.9375 l -2.17187,-0.29687 q 0.29687,-1.39063 0.96875,-2.25 0.6875,-0.85938 1.96875,-1.32813 1.29687,-0.46875 2.98437,-0.46875 1.6875,0 2.73438,0.40625 1.04687,0.39063 1.54687,1 0.5,0.59375 0.6875,1.5 0.125,0.57813 0.125,2.0625 v 2.96875 q 0,3.09375 0.14063,3.92187 0.14062,0.82813 0.5625,1.57813 h -2.32813 q -0.34375,-0.6875 -0.45312,-1.625 z m -0.1875,-4.96875 q -1.20313,0.5 -3.625,0.84375 -1.375,0.20313 -1.95313,0.45313 -0.5625,0.23437 -0.875,0.71874 -0.29687,0.46875 -0.29687,1.04688 0,0.89062 0.67187,1.48437 0.67188,0.59375 1.96875,0.59375 1.28125,0 2.28125,-0.5625 1,-0.5625 1.48438,-1.53125 0.34375,-0.75 0.34375,-2.23437 z m 5.7113,6.59375 v -13.14062 h 2 v 1.875 q 1.45313,-2.17188 4.1875,-2.17188 1.1875,0 2.17188,0.4375 1,0.42188 1.48437,1.125 0.5,0.6875 0.70313,1.64063 0.125,0.60937 0.125,2.15625 v 8.07812 h -2.23438 v -7.98437 q 0,-1.35938 -0.26562,-2.03125 -0.25,-0.6875 -0.90625,-1.07813 -0.65625,-0.40625 -1.54688,-0.40625 -1.42187,0 -2.46875,0.90625 -1.03125,0.89063 -1.03125,3.42188 v 7.17187 z m 23.17015,0 h -2.0625 v -18.125 h 2.23438 v 6.46875 q 1.40625,-1.78125 3.59375,-1.78125 1.20312,0 2.28125,0.5 1.09375,0.48438 1.78125,1.375 0.70312,0.875 1.09375,2.125 0.40625,1.25 0.40625,2.67188 0,3.37499 -1.67188,5.21874 -1.67187,1.84375 -4,1.84375 -2.32812,0 -3.65625,-1.9375 z m -0.0156,-6.67187 q 0,2.37499 0.64062,3.42187 1.04688,1.71875 2.84375,1.71875 1.45313,0 2.51563,-1.26563 1.0625,-1.26562 1.0625,-3.78124 0,-2.57813 -1.01563,-3.79688 -1.01562,-1.21875 -2.46875,-1.21875 -1.45312,0 -2.51562,1.26563 -1.0625,1.26562 -1.0625,3.65625 z m 11.22693,0.10937 q 0,-3.65625 2.03125,-5.40625 1.6875,-1.46875 4.125,-1.46875 2.70312,0 4.42187,1.78125 1.71875,1.78125 1.71875,4.90625 0,2.53125 -0.76562,3.98437 -0.75,1.45313 -2.20313,2.26563 -1.45312,0.79687 -3.17187,0.79687 -2.76563,0 -4.46875,-1.76562 -1.6875,-1.76563 -1.6875,-5.09375 z m 2.28125,0 q 0,2.51562 1.09375,3.78125 1.10937,1.25 2.78125,1.25 1.65625,0 2.75,-1.26563 1.10937,-1.26562 1.10937,-3.84374 0,-2.4375 -1.10937,-3.6875 -1.10938,-1.26563 -2.75,-1.26563 -1.67188,0 -2.78125,1.25 -1.09375,1.25 -1.09375,3.78125 z m 11.80505,0 q 0,-3.65625 2.03125,-5.40625 1.6875,-1.46875 4.125,-1.46875 2.70313,0 4.42188,1.78125 1.71875,1.78125 1.71875,4.90625 0,2.53125 -0.76563,3.98437 -0.75,1.45313 -2.20312,2.26563 -1.45313,0.79687 -3.17188,0.79687 -2.76562,0 -4.46875,-1.76562 -1.6875,-1.76563 -1.6875,-5.09375 z m 2.28125,0 q 0,2.51562 1.09375,3.78125 1.10938,1.25 2.78125,1.25 1.65625,0 2.75,-1.26563 1.10938,-1.26562 1.10938,-3.84374 0,-2.4375 -1.10938,-3.6875 -1.10937,-1.26563 -2.75,-1.26563 -1.67187,0 -2.78125,1.25 -1.09375,1.25 -1.09375,3.78125 z m 12.58631,6.5625 v -18.125 h 2.21875 v 18.125 z m 13.43962,0 h -2.23438 v -14.1875 q -0.79687,0.76563 -2.10937,1.53125 -1.29688,0.76563 -2.32813,1.15625 v -2.15625 q 1.85938,-0.875 3.25,-2.125 1.40625,-1.25 1.98438,-2.42187 h 1.4375 z"
       fill-rule="nonzero"
       id="path2965" />
    <path
       fill="#cfe2f3"
       d="m 67.16798,180.90158 h 251.27298 v 46.02887 H 67.16798 Z"
       fill-rule="evenodd"
       id="path2967" />
    <path
       stroke="#000000"
       stroke-width="1"
       stroke-linejoin="round"
       stroke-linecap="butt"
       d="m 67.16798,180.90158 h 251.27298 v 46.02887 H 67.16798 Z"
       fill-rule="evenodd"
       id="path2969" />
    <path
       fill="#000000"
       d="m 118.91169,213.516 h -2.17188 v -19.07813 h 2.34375 v 6.79688 q 1.48438,-1.85938 3.78125,-1.85938 1.28125,0 2.40625,0.51563 1.14063,0.51562 1.875,1.45312 0.75,0.92188 1.15626,2.25 0.42188,1.3125 0.42188,2.79688 0,3.5625 -1.76564,5.5 -1.75,1.9375 -4.21875,1.9375 -2.4375,0 -3.82812,-2.04688 z m -0.0312,-7.01563 q 0,2.48438 0.67187,3.59375 1.10938,1.8125 3,1.8125 1.53125,0 2.65625,-1.32812 1.125,-1.34375 1.125,-3.98438 0,-2.70312 -1.07812,-3.98437 -1.07813,-1.29688 -2.59375,-1.29688 -1.54688,0 -2.67188,1.32813 -1.10937,1.32812 -1.10937,3.85937 z m 11.82494,0.10938 q 0,-3.84375 2.125,-5.6875 1.78125,-1.54688 4.34375,-1.54688 2.85938,0 4.65625,1.875 1.8125,1.85938 1.8125,5.15625 0,2.67188 -0.79687,4.20313 -0.79688,1.53125 -2.32813,2.375 -1.53125,0.84375 -3.34375,0.84375 -2.89062,0 -4.6875,-1.85938 -1.78125,-1.85937 -1.78125,-5.35937 z m 2.40625,0 q 0,2.65625 1.15625,3.98437 1.15625,1.3125 2.90625,1.3125 1.75,0 2.90625,-1.32812 1.15625,-1.32813 1.15625,-4.04688 0,-2.5625 -1.17187,-3.89062 -1.15625,-1.32813 -2.89063,-1.32813 -1.75,0 -2.90625,1.32813 -1.15625,1.3125 -1.15625,3.96875 z m 12.41869,0 q 0,-3.84375 2.125,-5.6875 1.78125,-1.54688 4.34375,-1.54688 2.85937,0 4.65625,1.875 1.8125,1.85938 1.8125,5.15625 0,2.67188 -0.79688,4.20313 -0.79687,1.53125 -2.32812,2.375 -1.53125,0.84375 -3.34375,0.84375 -2.89063,0 -4.6875,-1.85938 -1.78125,-1.85937 -1.78125,-5.35937 z m 2.40625,0 q 0,2.65625 1.15625,3.98437 1.15625,1.3125 2.90625,1.3125 1.75,0 2.90625,-1.32812 1.15625,-1.32813 1.15625,-4.04688 0,-2.5625 -1.17188,-3.89062 -1.15625,-1.32813 -2.89062,-1.32813 -1.75,0 -2.90625,1.32813 -1.15625,1.3125 -1.15625,3.96875 z m 13.23119,6.90625 v -19.07813 h 2.34375 V 213.516 Z m 14.15654,0 h -2.34375 v -14.92188 q -0.85938,0.79688 -2.23438,1.60938 -1.35937,0.79687 -2.45312,1.20312 V 199.141 q 1.96875,-0.92188 3.4375,-2.23438 1.46875,-1.3125 2.07812,-2.54687 h 1.51563 z m 26.37152,-11.21875 h -12.59375 v -2.1875 h 12.59375 z m 0,5.79687 h -12.59375 v -2.1875 h 12.59375 z m 18.83217,5.42188 h -2.34375 v -14.92188 q -0.85938,0.79688 -2.23438,1.60938 -1.35937,0.79687 -2.45312,1.20312 V 199.141 q 1.96875,-0.92188 3.4375,-2.23438 1.46875,-1.3125 2.07812,-2.54687 h 1.51563 z m 26.38714,-8.34375 -12.64062,5.40625 v -2.32813 l 10.01562,-4.15625 -10.01562,-4.10937 v -2.32813 l 12.64062,5.32813 z m 22.3009,6.09375 v 2.25 h -12.60937 q -0.0312,-0.84375 0.26562,-1.625 0.48438,-1.29688 1.54688,-2.54688 1.0625,-1.25 3.0625,-2.875 3.10937,-2.5625 4.20312,-4.04687 1.09375,-1.5 1.09375,-2.8125 0,-1.40625 -1,-2.35938 -0.98437,-0.95312 -2.59375,-0.95312 -1.6875,0 -2.70312,1.01562 -1.01563,1.01563 -1.03125,2.8125 l -2.40625,-0.25 q 0.25,-2.6875 1.85937,-4.09375 1.60938,-1.42187 4.32813,-1.42187 2.75,0 4.34375,1.53125 1.60937,1.51562 1.60937,3.76562 0,1.14063 -0.46875,2.25 -0.46875,1.10938 -1.5625,2.32813 -1.07812,1.21875 -3.60937,3.35937 -2.09375,1.76563 -2.70313,2.40625 -0.59375,0.625 -0.98437,1.26563 z"
       fill-rule="nonzero"
       id="path2971" />
    <path
       fill="#000000"
       fill-opacity="0"
       d="m 374.979,84.38058 h 298.62994 v 72.00001 H 374.979 Z"
       fill-rule="evenodd"
       id="path2973" />
    <path
       stroke="#000000"
       stroke-width="1"
       stroke-linejoin="round"
       stroke-linecap="butt"
       stroke-dasharray="1, 3"
       d="m 374.979,84.38058 h 298.62994 v 72.00001 H 374.979 Z"
       fill-rule="evenodd"
       id="path2975" />
    <path
       fill="#000000"
       d="M 386.0415,113.98058 V 94.902451 h 6.5625 q 2.23437,0 3.40625,0.265625 1.64062,0.375 2.79687,1.375 1.5,1.265625 2.25,3.25 0.75,1.984374 0.75,4.546874 0,2.17188 -0.51562,3.85938 -0.5,1.67187 -1.29688,2.78125 -0.78125,1.09375 -1.73437,1.71875 -0.9375,0.625 -2.28125,0.95312 -1.32813,0.32813 -3.0625,0.32813 z m 2.51562,-2.25 h 4.07813 q 1.89062,0 2.95312,-0.34375 1.07813,-0.35938 1.71875,-1 0.89063,-0.89063 1.39063,-2.40625 0.51562,-1.51563 0.51562,-3.6875 0,-2.98438 -0.98437,-4.593754 -0.98438,-1.609375 -2.39063,-2.15625 -1.01562,-0.390625 -3.26562,-0.390625 h -4.01563 z m 25.8909,-2.20313 2.42188,0.29688 q -0.57813,2.125 -2.125,3.29687 -1.54688,1.17188 -3.95313,1.17188 -3.03125,0 -4.8125,-1.85938 -1.78125,-1.875 -1.78125,-5.25 0,-3.48437 1.79688,-5.40625 1.79687,-1.937499 4.67187,-1.937499 2.76563,0 4.51563,1.890629 1.76562,1.89062 1.76562,5.3125 0,0.20312 -0.0156,0.625 h -10.3125 q 0.14062,2.28125 1.29687,3.5 1.15625,1.20312 2.89063,1.20312 1.28125,0 2.1875,-0.67187 0.92187,-0.6875 1.45312,-2.17188 z m -7.6875,-3.78125 h 7.71875 q -0.15625,-1.75 -0.89062,-2.625 -1.125,-1.34375 -2.90625,-1.34375 -1.60938,0 -2.71875,1.07813 -1.09375,1.07812 -1.20313,2.89062 z m 2.51563,-7.312499 1.73437,-3.640625 h 3.0625 l -2.85937,3.640625 z m 19.55933,10.484379 2.29687,0.29687 q -0.375,2.39063 -1.9375,3.73438 -1.54687,1.34375 -3.8125,1.34375 -2.84375,0 -4.5625,-1.84375 -1.71875,-1.85938 -1.71875,-5.32813 0,-2.23437 0.73438,-3.90625 0.75,-1.6875 2.26562,-2.53125 1.51563,-0.843749 3.29688,-0.843749 2.25,0 3.67187,1.140629 1.4375,1.14062 1.84375,3.23437 l -2.28125,0.35938 q -0.32812,-1.39063 -1.15625,-2.09375 -0.8125,-0.70313 -1.98437,-0.70313 -1.78125,0 -2.89063,1.26563 -1.09375,1.26562 -1.09375,4.01562 0,2.78125 1.0625,4.04688 1.0625,1.26562 2.78125,1.26562 1.39063,0 2.3125,-0.84375 0.92188,-0.85937 1.17188,-2.60937 z m 4.25,5.0625 V 94.902451 h 2.34375 v 19.078129 z m 15.00027,-1.70313 q -1.3125,1.10938 -2.51562,1.5625 -1.20313,0.45313 -2.57813,0.45313 -2.28125,0 -3.5,-1.10938 -1.21875,-1.10937 -1.21875,-2.84375 0,-1.01562 0.45313,-1.85937 0.46875,-0.84375 1.21875,-1.34375 0.75,-0.51563 1.6875,-0.76563 0.6875,-0.1875 2.07812,-0.35937 2.82813,-0.32813 4.17188,-0.79688 0.0156,-0.48437 0.0156,-0.625 0,-1.42187 -0.65625,-2.01562 -0.90625,-0.79688 -2.67187,-0.79688 -1.65625,0 -2.45313,0.59375 -0.78125,0.57813 -1.15625,2.04688 l -2.29687,-0.3125 q 0.3125,-1.46875 1.03125,-2.375 0.71875,-0.90625 2.0625,-1.39063 1.35937,-0.499999 3.14062,-0.499999 1.78125,0 2.875,0.421879 1.10938,0.42187 1.625,1.04687 0.53125,0.625 0.73438,1.59375 0.125,0.59375 0.125,2.15625 v 3.125 q 0,3.26563 0.14062,4.14063 0.15625,0.85937 0.59375,1.65625 h -2.4375 q -0.375,-0.73438 -0.46875,-1.70313 z m -0.20312,-5.23437 q -1.26563,0.51562 -3.82813,0.89062 -1.4375,0.20313 -2.04687,0.46875 -0.59375,0.25 -0.92188,0.75 -0.3125,0.5 -0.3125,1.125 0,0.9375 0.70313,1.5625 0.70312,0.625 2.07812,0.625 1.34375,0 2.39063,-0.59375 1.0625,-0.59375 1.5625,-1.625 0.375,-0.79687 0.375,-2.34375 z m 5.9812,6.9375 v -13.82813 h 2.10937 v 2.09375 q 0.79688,-1.46875 1.48438,-1.9375 0.6875,-0.468749 1.5,-0.468749 1.1875,0 2.40625,0.765629 l -0.79688,2.17187 q -0.85937,-0.51562 -1.71875,-0.51562 -0.76562,0 -1.39062,0.46875 -0.60938,0.45312 -0.85938,1.28125 -0.39062,1.25 -0.39062,2.73437 v 7.23438 z m 17.92361,-1.70313 q -1.3125,1.10938 -2.51562,1.5625 -1.20313,0.45313 -2.57813,0.45313 -2.28125,0 -3.5,-1.10938 -1.21875,-1.10937 -1.21875,-2.84375 0,-1.01562 0.45313,-1.85937 0.46875,-0.84375 1.21875,-1.34375 0.75,-0.51563 1.6875,-0.76563 0.6875,-0.1875 2.07812,-0.35937 2.82813,-0.32813 4.17188,-0.79688 0.0156,-0.48437 0.0156,-0.625 0,-1.42187 -0.65625,-2.01562 -0.90625,-0.79688 -2.67187,-0.79688 -1.65625,0 -2.45313,0.59375 -0.78125,0.57813 -1.15625,2.04688 l -2.29687,-0.3125 q 0.3125,-1.46875 1.03125,-2.375 0.71875,-0.90625 2.0625,-1.39063 1.35937,-0.499999 3.14062,-0.499999 1.78125,0 2.875,0.421879 1.10938,0.42187 1.625,1.04687 0.53125,0.625 0.73438,1.59375 0.125,0.59375 0.125,2.15625 v 3.125 q 0,3.26563 0.14062,4.14063 0.15625,0.85937 0.59375,1.65625 h -2.4375 q -0.375,-0.73438 -0.46875,-1.70313 z m -0.20312,-5.23437 q -1.26563,0.51562 -3.82813,0.89062 -1.4375,0.20313 -2.04687,0.46875 -0.59375,0.25 -0.92188,0.75 -0.3125,0.5 -0.3125,1.125 0,0.9375 0.70313,1.5625 0.70312,0.625 2.07812,0.625 1.34375,0 2.39063,-0.59375 1.0625,-0.59375 1.5625,-1.625 0.375,-0.79687 0.375,-2.34375 z m 11.12179,4.84375 0.32813,2.0625 q -0.98438,0.21875 -1.76563,0.21875 -1.26562,0 -1.96875,-0.40625 -0.70312,-0.40625 -1,-1.0625 -0.28125,-0.65625 -0.28125,-2.76563 v -7.95312 h -1.71875 v -1.82813 h 1.71875 v -3.421874 l 2.32813,-1.40625 v 4.828124 h 2.35937 v 1.82813 h -2.35937 v 8.07812 q 0,1 0.125,1.29688 0.125,0.28125 0.40625,0.45312 0.28125,0.17188 0.79687,0.17188 0.39063,0 1.03125,-0.0937 z m 2.2966,-14.296879 v -2.6875 h 2.34375 v 2.6875 z m 0,16.390629 v -13.82813 h 2.34375 v 13.82813 z m 5.04715,-6.90625 q 0,-3.84375 2.125,-5.6875 1.78125,-1.546879 4.34375,-1.546879 2.85938,0 4.65625,1.874999 1.8125,1.85938 1.8125,5.15625 0,2.67188 -0.79687,4.20313 -0.79688,1.53125 -2.32813,2.375 -1.53125,0.84375 -3.34375,0.84375 -2.89062,0 -4.6875,-1.85938 -1.78125,-1.85937 -1.78125,-5.35937 z m 2.40625,0 q 0,2.65625 1.15625,3.98437 1.15625,1.3125 2.90625,1.3125 1.75,0 2.90625,-1.32812 1.15625,-1.32813 1.15625,-4.04688 0,-2.5625 -1.17187,-3.89062 -1.15625,-1.32813 -2.89063,-1.32813 -1.75,0 -2.90625,1.32813 -1.15625,1.3125 -1.15625,3.96875 z m 13.27808,6.90625 v -13.82813 h 2.10937 v 1.96875 q 1.53125,-2.281249 4.40625,-2.281249 1.25,0 2.29688,0.453129 1.04687,0.45312 1.5625,1.1875 0.53125,0.71875 0.73437,1.71875 0.125,0.65625 0.125,2.28125 v 8.5 h -2.34375 v -8.40625 q 0,-1.4375 -0.28125,-2.14063 -0.26562,-0.71875 -0.96875,-1.14062 -0.6875,-0.42188 -1.625,-0.42188 -1.48437,0 -2.57812,0.95313 -1.09375,0.95312 -1.09375,3.60937 v 7.54688 z m 31.19964,0 v -1.75 q -1.3125,2.0625 -3.85937,2.0625 -1.65625,0 -3.04688,-0.90625 -1.375,-0.92188 -2.14062,-2.54688 -0.76563,-1.64062 -0.76563,-3.75 0,-2.07812 0.6875,-3.76562 0.70313,-1.6875 2.07813,-2.57813 1.375,-0.906249 3.07812,-0.906249 1.25,0 2.21875,0.531249 0.98438,0.53125 1.59375,1.375 v -6.843749 h 2.34375 v 19.078129 z m -7.40625,-6.89063 q 0,2.64063 1.125,3.96875 1.125,1.3125 2.64063,1.3125 1.53125,0 2.60937,-1.25 1.07813,-1.26562 1.07813,-3.84375 0,-2.84375 -1.09375,-4.17187 -1.09375,-1.32813 -2.70313,-1.32813 -1.54687,0 -2.60937,1.28125 -1.04688,1.28125 -1.04688,4.03125 z m 13.27808,-5.4375 -0.59375,-3.562499 v -3.1875 h 2.67188 v 3.1875 l -0.625,3.562499 z m 14.13599,12.32813 v -2.03125 q -1.60938,2.34375 -4.375,2.34375 -1.23438,0 -2.29688,-0.46875 -1.0625,-0.46875 -1.57812,-1.17188 -0.5,-0.71875 -0.71875,-1.75 -0.14063,-0.6875 -0.14063,-2.1875 v -8.5625 h 2.34375 v 7.67188 q 0,1.82812 0.14063,2.46875 0.21875,0.92187 0.9375,1.45312 0.71875,0.53125 1.76562,0.53125 1.0625,0 1.98438,-0.53125 0.92187,-0.54687 1.29687,-1.46875 0.39063,-0.9375 0.39063,-2.71875 v -7.40625 h 2.34375 v 13.82813 z m 5.76245,0 v -13.82813 h 2.10937 v 1.96875 q 1.53125,-2.281249 4.40625,-2.281249 1.25,0 2.29688,0.453129 1.04687,0.45312 1.5625,1.1875 0.53125,0.71875 0.73437,1.71875 0.125,0.65625 0.125,2.28125 v 8.5 h -2.34375 v -8.40625 q 0,-1.4375 -0.28125,-2.14063 -0.26562,-0.71875 -0.96875,-1.14062 -0.6875,-0.42188 -1.625,-0.42188 -1.48437,0 -2.57812,0.95313 -1.09375,0.95312 -1.09375,3.60937 v 7.54688 z"
       fill-rule="nonzero"
       id="path2977" />
    <path
       fill="#000000"
       d="M 387.90088,145.98058 H 385.729 v -19.07812 h 2.34375 v 6.79687 q 1.48438,-1.85938 3.78125,-1.85938 1.28125,0 2.40625,0.51563 1.14063,0.51562 1.875,1.45312 0.75,0.92188 1.15625,2.25 0.42188,1.3125 0.42188,2.79688 0,3.5625 -1.76563,5.5 -1.75,1.9375 -4.21875,1.9375 -2.4375,0 -3.82812,-2.04688 z m -0.0312,-7.01563 q 0,2.48438 0.67187,3.59375 1.10938,1.8125 3,1.8125 1.53125,0 2.65625,-1.32812 1.125,-1.34375 1.125,-3.98438 0,-2.70312 -1.07812,-3.98437 -1.07813,-1.29688 -2.59375,-1.29688 -1.54688,0 -2.67188,1.32813 -1.10937,1.32812 -1.10937,3.85937 z m 11.82492,0.10938 q 0,-3.84375 2.125,-5.6875 1.78125,-1.54688 4.34375,-1.54688 2.85938,0 4.65625,1.875 1.8125,1.85938 1.8125,5.15625 0,2.67188 -0.79687,4.20313 -0.79688,1.53125 -2.32813,2.375 -1.53125,0.84375 -3.34375,0.84375 -2.89062,0 -4.6875,-1.85938 -1.78125,-1.85937 -1.78125,-5.35937 z m 2.40625,0 q 0,2.65625 1.15625,3.98437 1.15625,1.3125 2.90625,1.3125 1.75,0 2.90625,-1.32812 1.15625,-1.32813 1.15625,-4.04688 0,-2.5625 -1.17187,-3.89062 -1.15625,-1.32813 -2.89063,-1.32813 -1.75,0 -2.90625,1.32813 -1.15625,1.3125 -1.15625,3.96875 z m 12.4187,0 q 0,-3.84375 2.125,-5.6875 1.78125,-1.54688 4.34375,-1.54688 2.85938,0 4.65625,1.875 1.8125,1.85938 1.8125,5.15625 0,2.67188 -0.79687,4.20313 -0.79688,1.53125 -2.32813,2.375 -1.53125,0.84375 -3.34375,0.84375 -2.89062,0 -4.6875,-1.85938 -1.78125,-1.85937 -1.78125,-5.35937 z m 2.40625,0 q 0,2.65625 1.15625,3.98437 1.15625,1.3125 2.90625,1.3125 1.75,0 2.90625,-1.32812 1.15625,-1.32813 1.15625,-4.04688 0,-2.5625 -1.17187,-3.89062 -1.15625,-1.32813 -2.89063,-1.32813 -1.75,0 -2.90625,1.32813 -1.15625,1.3125 -1.15625,3.96875 z m 13.23117,6.90625 v -19.07812 h 2.34375 v 19.07812 z m 15.43781,-4.45313 2.42187,0.29688 q -0.57812,2.125 -2.125,3.29687 -1.54687,1.17188 -3.95312,1.17188 -3.03125,0 -4.8125,-1.85938 -1.78125,-1.875 -1.78125,-5.25 0,-3.48437 1.79687,-5.40625 1.79688,-1.9375 4.67188,-1.9375 2.76562,0 4.51562,1.89063 1.76563,1.89062 1.76563,5.3125 0,0.20312 -0.0156,0.625 h -10.3125 q 0.14063,2.28125 1.29688,3.5 1.15625,1.20312 2.89062,1.20312 1.28125,0 2.1875,-0.67187 0.92188,-0.6875 1.45313,-2.17188 z m -7.6875,-3.78125 h 7.71875 q -0.15625,-1.75 -0.89063,-2.625 -1.125,-1.34375 -2.90625,-1.34375 -1.60937,0 -2.71875,1.07813 -1.09375,1.07812 -1.20312,2.89062 z m 2.51562,-7.3125 1.73438,-3.64062 h 3.0625 l -2.85938,3.64062 z m 19.9968,11.09375 2.42187,0.29688 q -0.57812,2.125 -2.125,3.29687 -1.54687,1.17188 -3.95312,1.17188 -3.03125,0 -4.8125,-1.85938 -1.78125,-1.875 -1.78125,-5.25 0,-3.48437 1.79687,-5.40625 1.79688,-1.9375 4.67188,-1.9375 2.76562,0 4.51562,1.89063 1.76563,1.89062 1.76563,5.3125 0,0.20312 -0.0156,0.625 h -10.3125 q 0.14063,2.28125 1.29688,3.5 1.15625,1.20312 2.89062,1.20312 1.28125,0 2.1875,-0.67187 0.92188,-0.6875 1.45313,-2.17188 z m -7.6875,-3.78125 h 7.71875 q -0.15625,-1.75 -0.89063,-2.625 -1.125,-1.34375 -2.90625,-1.34375 -1.60937,0 -2.71875,1.07813 -1.09375,1.07812 -1.20312,2.89062 z m 13.0437,8.23438 v -13.82813 h 2.10938 v 1.96875 q 1.53125,-2.28125 4.40625,-2.28125 1.25,0 2.29687,0.45313 1.04688,0.45312 1.5625,1.1875 0.53125,0.71875 0.73438,1.71875 0.125,0.65625 0.125,2.28125 v 8.5 h -2.34375 v -8.40625 q 0,-1.4375 -0.28125,-2.14063 -0.26563,-0.71875 -0.96875,-1.14062 -0.6875,-0.42188 -1.625,-0.42188 -1.48438,0 -2.57813,0.95313 -1.09375,0.95312 -1.09375,3.60937 v 7.54688 z"
       fill-rule="nonzero"
       id="path2979" />
    <path
       fill="#000000"
       fill-opacity="0"
       d="m 374.979,180.9029 h 101.15485 v 46.02887 H 374.979 Z"
       fill-rule="evenodd"
       id="path2981" />
    <path
       stroke="#000000"
       stroke-width="1"
       stroke-linejoin="round"
       stroke-linecap="butt"
       stroke-dasharray="1, 3"
       d="m 374.979,180.9029 h 101.15485 v 46.02887 H 374.979 Z"
       fill-rule="evenodd"
       id="path2983" />
    <path
       fill="#000000"
       d="m 386.1665,213.51732 v -19.07813 h 12.875 v 2.25 h -10.34375 v 5.90625 h 8.95312 v 2.25 h -8.95312 v 8.67188 z m 24.87643,-1.70313 q -1.3125,1.10938 -2.51562,1.5625 -1.20313,0.45313 -2.57813,0.45313 -2.28125,0 -3.5,-1.10938 -1.21875,-1.10937 -1.21875,-2.84375 0,-1.01562 0.45313,-1.85937 0.46875,-0.84375 1.21875,-1.34375 0.75,-0.51563 1.6875,-0.76563 0.6875,-0.1875 2.07812,-0.35937 2.82813,-0.32813 4.17188,-0.79688 0.0156,-0.48437 0.0156,-0.625 0,-1.42187 -0.65625,-2.01562 -0.90625,-0.79688 -2.67187,-0.79688 -1.65625,0 -2.45313,0.59375 -0.78125,0.57813 -1.15625,2.04688 l -2.29687,-0.3125 q 0.3125,-1.46875 1.03125,-2.375 0.71875,-0.90625 2.0625,-1.39063 1.35937,-0.5 3.14062,-0.5 1.78125,0 2.875,0.42188 1.10938,0.42187 1.625,1.04687 0.53125,0.625 0.73438,1.59375 0.125,0.59375 0.125,2.15625 v 3.125 q 0,3.26563 0.14062,4.14063 0.15625,0.85937 0.59375,1.65625 h -2.4375 q -0.375,-0.73438 -0.46875,-1.70313 z m -0.20312,-5.23437 q -1.26563,0.51562 -3.82813,0.89062 -1.4375,0.20313 -2.04687,0.46875 -0.59375,0.25 -0.92188,0.75 -0.3125,0.5 -0.3125,1.125 0,0.9375 0.70313,1.5625 0.70312,0.625 2.07812,0.625 1.34375,0 2.39063,-0.59375 1.0625,-0.59375 1.5625,-1.625 0.375,-0.79687 0.375,-2.34375 z m 5.94995,6.9375 v -19.07813 h 2.34375 v 19.07813 z m 5.03152,-4.125 2.32813,-0.35938 q 0.1875,1.39063 1.07812,2.14063 0.89063,0.73437 2.5,0.73437 1.60938,0 2.39063,-0.65625 0.78125,-0.65625 0.78125,-1.54687 0,-0.79688 -0.6875,-1.25 -0.48438,-0.3125 -2.39063,-0.79688 -2.57812,-0.65625 -3.57812,-1.125 -1,-0.46875 -1.51563,-1.3125 -0.51562,-0.84375 -0.51562,-1.85937 0,-0.92188 0.42187,-1.70313 0.4375,-0.79687 1.15625,-1.3125 0.54688,-0.40625 1.48438,-0.6875 0.95312,-0.28125 2.03125,-0.28125 1.625,0 2.85937,0.46875 1.23438,0.46875 1.8125,1.28125 0.59375,0.79688 0.8125,2.14063 l -2.29687,0.3125 q -0.15625,-1.07813 -0.90625,-1.67188 -0.75,-0.59375 -2.10938,-0.59375 -1.60937,0 -2.3125,0.53125 -0.6875,0.53125 -0.6875,1.25 0,0.45313 0.29688,0.8125 0.28125,0.375 0.89062,0.625 0.35938,0.14063 2.07813,0.60938 2.48437,0.65625 3.46875,1.07812 0.98437,0.42188 1.53125,1.23438 0.5625,0.79687 0.5625,2 0,1.17187 -0.6875,2.21875 -0.67188,1.03125 -1.96875,1.59375 -1.28125,0.5625 -2.90625,0.5625 -2.70313,0 -4.125,-1.10938 -1.40625,-1.125 -1.79688,-3.32812 z m 23.73438,-0.32813 2.42187,0.29688 q -0.57812,2.125 -2.125,3.29687 -1.54687,1.17188 -3.95312,1.17188 -3.03125,0 -4.8125,-1.85938 -1.78125,-1.875 -1.78125,-5.25 0,-3.48437 1.79687,-5.40625 1.79688,-1.9375 4.67188,-1.9375 2.76562,0 4.51562,1.89063 1.76563,1.89062 1.76563,5.3125 0,0.20312 -0.0156,0.625 h -10.3125 q 0.14063,2.28125 1.29688,3.5 1.15625,1.20312 2.89062,1.20312 1.28125,0 2.1875,-0.67187 0.92188,-0.6875 1.45313,-2.17188 z m -7.6875,-3.78125 h 7.71875 q -0.15625,-1.75 -0.89063,-2.625 -1.125,-1.34375 -2.90625,-1.34375 -1.60937,0 -2.71875,1.07813 -1.09375,1.07812 -1.20312,2.89062 z"
       fill-rule="nonzero"
       id="path2985" />
    <path
       fill="#000000"
       fill-opacity="0"
       d="M 374.979,203.91733 H 318.44357"
       fill-rule="evenodd"
       id="path2987" />
    <path
       stroke="#000000"
       stroke-width="1"
       stroke-linejoin="round"
       stroke-linecap="butt"
       d="M 374.979,203.91733 H 324.44357"
       fill-rule="evenodd"
       id="path2989" />
    <path
       fill="#000000"
       stroke="#000000"
       stroke-width="1"
       stroke-linecap="butt"
       d="m 324.44357,202.2656 -4.53809,1.65173 4.53809,1.65174 z"
       fill-rule="evenodd"
       id="path2991" />
    <path
       fill="#000000"
       fill-opacity="0"
       d="M 374.979,120.38058 H 316.99475"
       fill-rule="evenodd"
       id="path2993" />
    <path
       stroke="#000000"
       stroke-width="1"
       stroke-linejoin="round"
       stroke-linecap="butt"
       d="M 374.979,120.38058 H 322.99475"
       fill-rule="evenodd"
       id="path2995" />
    <path
       fill="#000000"
       stroke="#000000"
       stroke-width="1"
       stroke-linecap="butt"
       d="m 322.99475,118.72884 -4.53809,1.65173 4.53809,1.65174 z"
       fill-rule="evenodd"
       id="path2997" />
    <path
       fill="#000000"
       fill-opacity="0"
       d="m 192.80446,226.93045 v 26.92912"
       fill-rule="evenodd"
       id="path2999" />
    <path
       stroke="#000000"
       stroke-width="1"
       stroke-linejoin="round"
       stroke-linecap="butt"
       d="m 192.80446,226.93045 v 20.92912"
       fill-rule="evenodd"
       id="path3001" />
    <path
       fill="#000000"
       stroke="#000000"
       stroke-width="1"
       stroke-linecap="butt"
       d="m 191.15273,247.85957 1.65173,4.5381 1.65174,-4.5381 z"
       fill-rule="evenodd"
       id="path3003" />
    <path
       fill="#cfe2f3"
       d="m 68.6168,253.86089 h 248.37534 v 53.03938 H 68.6168 Z"
       fill-rule="evenodd"
       id="path3005" />
    <path
       fill="#000000"
       fill-opacity="0"
       d="m 99.66371,253.86089 v 53.03938 M 68.616797,260.49082 H 316.99214"
       fill-rule="evenodd"
       id="path3007" />
    <path
       fill="#000000"
       fill-opacity="0"
       d="m 68.6168,253.86089 h 248.37534 v 53.03938 H 68.6168 Z"
       fill-rule="evenodd"
       id="path3009" />
    <path
       stroke="#000000"
       stroke-width="1"
       stroke-linejoin="round"
       stroke-linecap="butt"
       d="m 99.66371,253.86089 v 53.03938 M 68.616797,260.49082 H 316.99214"
       fill-rule="evenodd"
       id="path3011" />
    <path
       stroke="#000000"
       stroke-width="1"
       stroke-linejoin="round"
       stroke-linecap="butt"
       d="m 68.6168,253.86089 h 248.37534 v 53.03938 H 68.6168 Z"
       fill-rule="evenodd"
       id="path3013" />
    <path
       fill="#000000"
       d="m 110.52309,293.01553 v -18.125 h 6.79687 q 2.07813,0 3.32813,0.54687 1.26562,0.54688 1.96875,1.70313 0.71875,1.14062 0.71875,2.375 0,1.17187 -0.64063,2.20312 -0.625,1.01563 -1.90625,1.65625 1.65625,0.46875 2.53125,1.64063 0.89063,1.15625 0.89063,2.75 0,1.26562 -0.54688,2.35937 -0.53125,1.09375 -1.32812,1.6875 -0.78125,0.59375 -1.98438,0.90625 -1.1875,0.29688 -2.92187,0.29688 z m 2.39062,-10.51563 h 3.92188 q 1.59375,0 2.29687,-0.20312 0.90625,-0.28125 1.375,-0.90625 0.46875,-0.625 0.46875,-1.57813 0,-0.90625 -0.4375,-1.59375 -0.4375,-0.6875 -1.25,-0.9375 -0.79687,-0.25 -2.75,-0.25 h -3.625 z m 0,8.375 h 4.51563 q 1.17187,0 1.64062,-0.0781 0.82813,-0.15625 1.375,-0.5 0.5625,-0.34375 0.92188,-1 0.35937,-0.67188 0.35937,-1.53125 0,-1.01563 -0.53125,-1.76563 -0.51562,-0.75 -1.4375,-1.04687 -0.92187,-0.3125 -2.64062,-0.3125 h -4.20313 z m 13.48742,-4.42187 q 0,-3.65625 2.03125,-5.40625 1.6875,-1.46875 4.125,-1.46875 2.70312,0 4.42187,1.78125 1.71875,1.78125 1.71875,4.90625 0,2.53125 -0.76562,3.98437 -0.75,1.45313 -2.20313,2.26563 -1.45312,0.79687 -3.17187,0.79687 -2.76563,0 -4.46875,-1.76562 -1.6875,-1.76563 -1.6875,-5.09375 z m 2.28125,0 q 0,2.51562 1.09375,3.78125 1.10937,1.25 2.78125,1.25 1.65625,0 2.75,-1.26563 1.10937,-1.26562 1.10937,-3.84375 0,-2.4375 -1.10937,-3.6875 -1.10938,-1.26562 -2.75,-1.26562 -1.67188,0 -2.78125,1.25 -1.09375,1.25 -1.09375,3.78125 z m 11.80505,0 q 0,-3.65625 2.03125,-5.40625 1.6875,-1.46875 4.125,-1.46875 2.70313,0 4.42188,1.78125 1.71875,1.78125 1.71875,4.90625 0,2.53125 -0.76563,3.98437 -0.75,1.45313 -2.20312,2.26563 -1.45313,0.79687 -3.17188,0.79687 -2.76562,0 -4.46875,-1.76562 -1.6875,-1.76563 -1.6875,-5.09375 z m 2.28125,0 q 0,2.51562 1.09375,3.78125 1.10938,1.25 2.78125,1.25 1.65625,0 2.75,-1.26563 1.10938,-1.26562 1.10938,-3.84375 0,-2.4375 -1.10938,-3.6875 -1.10937,-1.26562 -2.75,-1.26562 -1.67187,0 -2.78125,1.25 -1.09375,1.25 -1.09375,3.78125 z m 12.5863,6.5625 v -18.125 h 2.21875 v 18.125 z m 14.65836,-4.23438 2.29688,0.29688 q -0.53125,2.01562 -2.01563,3.125 -1.46875,1.10937 -3.75,1.10937 -2.89062,0 -4.57812,-1.76562 -1.6875,-1.78125 -1.6875,-4.98438 0,-3.3125 1.70312,-5.14062 1.71875,-1.84375 4.4375,-1.84375 2.64063,0 4.29688,1.79687 1.67187,1.79688 1.67187,5.04688 0,0.20312 -0.0156,0.59375 h -9.78125 q 0.10937,2.17187 1.20312,3.32812 1.10938,1.14063 2.76563,1.14063 1.21875,0 2.07812,-0.64063 0.875,-0.64062 1.375,-2.0625 z m -7.3125,-3.59375 h 7.34375 q -0.15625,-1.65625 -0.84375,-2.48437 -1.0625,-1.28125 -2.75,-1.28125 -1.54687,0 -2.59375,1.03125 -1.03125,1.01562 -1.15625,2.73437 z m 20.97693,6.20313 q -1.23438,1.0625 -2.375,1.5 -1.14063,0.42187 -2.45313,0.42187 -2.17187,0 -3.32812,-1.04687 -1.15625,-1.0625 -1.15625,-2.71875 0,-0.95313 0.4375,-1.75 0.4375,-0.79688 1.14062,-1.28125 0.71875,-0.48438 1.60938,-0.73438 0.65625,-0.17187 1.96875,-0.32812 2.70312,-0.32813 3.96875,-0.76563 0.0156,-0.46875 0.0156,-0.59375 0,-1.35937 -0.625,-1.90625 -0.85937,-0.76562 -2.53125,-0.76562 -1.57812,0 -2.32812,0.5625 -0.75,0.54687 -1.10938,1.9375 l -2.17187,-0.29688 q 0.29687,-1.39062 0.96875,-2.25 0.6875,-0.85937 1.96875,-1.32812 1.29687,-0.46875 2.98437,-0.46875 1.6875,0 2.73438,0.40625 1.04687,0.39062 1.54687,1 0.5,0.59375 0.6875,1.5 0.125,0.57812 0.125,2.0625 v 2.96875 q 0,3.09375 0.14063,3.92187 0.14062,0.82813 0.5625,1.57813 h -2.32813 q -0.34375,-0.6875 -0.45312,-1.625 z m -0.1875,-4.96875 q -1.20313,0.5 -3.625,0.84375 -1.375,0.20312 -1.95313,0.45312 -0.5625,0.23438 -0.875,0.71875 -0.29687,0.46875 -0.29687,1.04688 0,0.89062 0.67187,1.48437 0.67188,0.59375 1.96875,0.59375 1.28125,0 2.28125,-0.5625 1,-0.5625 1.48438,-1.53125 0.34375,-0.75 0.34375,-2.23437 z m 5.7113,6.59375 V 279.8749 h 2 v 1.875 q 1.45313,-2.17187 4.1875,-2.17187 1.1875,0 2.17188,0.4375 1,0.42187 1.48437,1.125 0.5,0.6875 0.70313,1.64062 0.125,0.60938 0.125,2.15625 v 8.07813 h -2.23438 v -7.98438 q 0,-1.35937 -0.26562,-2.03125 -0.25,-0.6875 -0.90625,-1.07812 -0.65625,-0.40625 -1.54688,-0.40625 -1.42187,0 -2.46875,0.90625 -1.03125,0.89062 -1.03125,3.42187 v 7.17188 z m 23.17015,0 h -2.0625 v -18.125 h 2.23438 v 6.46875 q 1.40625,-1.78125 3.59375,-1.78125 1.20312,0 2.28125,0.5 1.09375,0.48437 1.78125,1.375 0.70312,0.875 1.09375,2.125 0.40625,1.25 0.40625,2.67187 0,3.375 -1.67188,5.21875 -1.67187,1.84375 -4,1.84375 -2.32812,0 -3.65625,-1.9375 z m -0.0156,-6.67188 q 0,2.375 0.64062,3.42188 1.04688,1.71875 2.84375,1.71875 1.45313,0 2.51563,-1.26563 1.0625,-1.26562 1.0625,-3.78125 0,-2.57812 -1.01563,-3.79687 -1.01562,-1.21875 -2.46875,-1.21875 -1.45312,0 -2.51562,1.26562 -1.0625,1.26563 -1.0625,3.65625 z m 11.22693,0.10938 q 0,-3.65625 2.03125,-5.40625 1.6875,-1.46875 4.125,-1.46875 2.70312,0 4.42187,1.78125 1.71875,1.78125 1.71875,4.90625 0,2.53125 -0.76562,3.98437 -0.75,1.45313 -2.20313,2.26563 -1.45312,0.79687 -3.17187,0.79687 -2.76563,0 -4.46875,-1.76562 -1.6875,-1.76563 -1.6875,-5.09375 z m 2.28125,0 q 0,2.51562 1.09375,3.78125 1.10937,1.25 2.78125,1.25 1.65625,0 2.75,-1.26563 1.10937,-1.26562 1.10937,-3.84375 0,-2.4375 -1.10937,-3.6875 -1.10938,-1.26562 -2.75,-1.26562 -1.67188,0 -2.78125,1.25 -1.09375,1.25 -1.09375,3.78125 z m 11.80505,0 q 0,-3.65625 2.03125,-5.40625 1.6875,-1.46875 4.125,-1.46875 2.70313,0 4.42188,1.78125 1.71875,1.78125 1.71875,4.90625 0,2.53125 -0.76563,3.98437 -0.75,1.45313 -2.20312,2.26563 -1.45313,0.79687 -3.17188,0.79687 -2.76562,0 -4.46875,-1.76562 -1.6875,-1.76563 -1.6875,-5.09375 z m 2.28125,0 q 0,2.51562 1.09375,3.78125 1.10938,1.25 2.78125,1.25 1.65625,0 2.75,-1.26563 1.10938,-1.26562 1.10938,-3.84375 0,-2.4375 -1.10938,-3.6875 -1.10937,-1.26562 -2.75,-1.26562 -1.67187,0 -2.78125,1.25 -1.09375,1.25 -1.09375,3.78125 z m 12.58631,6.5625 v -18.125 h 2.21875 v 18.125 z m 16.75212,-2.14063 v 2.14063 h -11.98438 q -0.0312,-0.79688 0.26563,-1.54688 0.45312,-1.21875 1.45312,-2.40625 1.01563,-1.1875 2.92188,-2.75 2.95312,-2.42187 3.98437,-3.82812 1.04688,-1.42188 1.04688,-2.6875 0,-1.32813 -0.95313,-2.23438 -0.9375,-0.90625 -2.45312,-0.90625 -1.60938,0 -2.57813,0.96875 -0.96875,0.95313 -0.98437,2.67188 l -2.28125,-0.23438 q 0.23437,-2.5625 1.76562,-3.90625 1.53125,-1.34375 4.125,-1.34375 2.60938,0 4.125,1.45313 1.51563,1.4375 1.51563,3.57812 0,1.09375 -0.45313,2.14063 -0.4375,1.04687 -1.46875,2.21875 -1.03125,1.15625 -3.42187,3.1875 -2,1.6875 -2.57813,2.28125 -0.5625,0.59375 -0.9375,1.20312 z"
       fill-rule="nonzero"
       id="path3015" />
    <path
       fill="#cfe2f3"
       d="M 67.166664,341.15353 H 318.43964 V 387.1824 H 67.166664 Z"
       fill-rule="evenodd"
       id="path3017" />
    <path
       stroke="#000000"
       stroke-width="1"
       stroke-linejoin="round"
       stroke-linecap="butt"
       d="M 67.166664,341.15353 H 318.43964 V 387.1824 H 67.166664 Z"
       fill-rule="evenodd"
       id="path3019" />
    <path
       fill="#000000"
       d="m 118.53292,373.76797 h -2.17187 v -19.07813 h 2.34375 v 6.79688 q 1.48437,-1.85938 3.78125,-1.85938 1.28125,0 2.40625,0.51563 1.14062,0.51562 1.875,1.45312 0.75,0.92188 1.15625,2.25 0.42188,1.3125 0.42188,2.79688 0,3.5625 -1.76563,5.5 -1.75,1.9375 -4.21875,1.9375 -2.4375,0 -3.82813,-2.04688 z m -0.0312,-7.01563 q 0,2.48438 0.67188,3.59375 1.10937,1.8125 3,1.8125 1.53125,0 2.65625,-1.32812 1.125,-1.34375 1.125,-3.98438 0,-2.70312 -1.07813,-3.98437 -1.07812,-1.29688 -2.59375,-1.29688 -1.54687,0 -2.67187,1.32813 -1.10938,1.32812 -1.10938,3.85937 z m 11.82494,0.10938 q 0,-3.84375 2.125,-5.6875 1.78125,-1.54688 4.34375,-1.54688 2.85938,0 4.65625,1.875 1.8125,1.85938 1.8125,5.15625 0,2.67188 -0.79687,4.20313 -0.79688,1.53125 -2.32813,2.375 -1.53125,0.84375 -3.34375,0.84375 -2.89062,0 -4.6875,-1.85938 -1.78125,-1.85937 -1.78125,-5.35937 z m 2.40625,0 q 0,2.65625 1.15625,3.98437 1.15625,1.3125 2.90625,1.3125 1.75,0 2.90625,-1.32812 1.15625,-1.32813 1.15625,-4.04688 0,-2.5625 -1.17187,-3.89062 -1.15625,-1.32813 -2.89063,-1.32813 -1.75,0 -2.90625,1.32813 -1.15625,1.3125 -1.15625,3.96875 z m 12.41869,0 q 0,-3.84375 2.125,-5.6875 1.78125,-1.54688 4.34375,-1.54688 2.85938,0 4.65625,1.875 1.8125,1.85938 1.8125,5.15625 0,2.67188 -0.79687,4.20313 -0.79688,1.53125 -2.32813,2.375 -1.53125,0.84375 -3.34375,0.84375 -2.89062,0 -4.6875,-1.85938 -1.78125,-1.85937 -1.78125,-5.35937 z m 2.40625,0 q 0,2.65625 1.15625,3.98437 1.15625,1.3125 2.90625,1.3125 1.75,0 2.90625,-1.32812 1.15625,-1.32813 1.15625,-4.04688 0,-2.5625 -1.17187,-3.89062 -1.15625,-1.32813 -2.89063,-1.32813 -1.75,0 -2.90625,1.32813 -1.15625,1.3125 -1.15625,3.96875 z m 13.23119,6.90625 v -19.07813 h 2.34375 v 19.07813 z m 17.64091,-2.25 v 2.25 h -12.60937 q -0.0312,-0.84375 0.26562,-1.625 0.48438,-1.29688 1.54688,-2.54688 1.0625,-1.25 3.0625,-2.875 3.10937,-2.5625 4.20312,-4.04687 1.09375,-1.5 1.09375,-2.8125 0,-1.40625 -1,-2.35938 -0.98437,-0.95312 -2.59375,-0.95312 -1.6875,0 -2.70312,1.01562 -1.01563,1.01563 -1.03125,2.8125 l -2.40625,-0.25 q 0.25,-2.6875 1.85937,-4.09375 1.60938,-1.42187 4.32813,-1.42187 2.75,0 4.34375,1.53125 1.60937,1.51562 1.60937,3.76562 0,1.14063 -0.46875,2.25 -0.46875,1.10938 -1.5625,2.32813 -1.07812,1.21875 -3.60937,3.35937 -2.09375,1.76563 -2.70313,2.40625 -0.59375,0.625 -0.98437,1.26563 z m 22.88715,-8.96875 h -12.5938 v -2.1875 h 12.59375 z m 0,5.79687 h -12.5938 v -2.1875 h 12.59375 z m 10.01967,0.39063 2.34375,-0.3125 q 0.39062,1.98437 1.35937,2.875 0.98438,0.875 2.375,0.875 1.64063,0 2.78125,-1.14063 1.14063,-1.15625 1.14063,-2.84375 0,-1.625 -1.0625,-2.67187 -1.04688,-1.04688 -2.67188,-1.04688 -0.65625,0 -1.65625,0.26563 l 0.26563,-2.0625 q 0.23437,0.0312 0.375,0.0312 1.5,0 2.6875,-0.78125 1.20312,-0.78125 1.20312,-2.40625 0,-1.29688 -0.875,-2.14063 -0.85937,-0.84375 -2.25,-0.84375 -1.35937,0 -2.28125,0.85938 -0.90625,0.85937 -1.15625,2.57812 l -2.34375,-0.42187 q 0.42188,-2.34375 1.9375,-3.64063 1.53125,-1.29687 3.79688,-1.29687 1.5625,0 2.875,0.67187 1.3125,0.67188 2,1.82813 0.70312,1.15625 0.70312,2.45312 0,1.23438 -0.67187,2.25 -0.65625,1.01563 -1.95313,1.625 1.6875,0.39063 2.625,1.625 0.9375,1.21875 0.9375,3.0625 0,2.5 -1.82812,4.25 -1.8125,1.73438 -4.59375,1.73438 -2.51563,0 -4.17188,-1.5 -1.65625,-1.5 -1.89062,-3.875 z m 27.77806,-6.1875 h -12.59375 v -2.1875 h 12.59375 z m 0,5.79687 h -12.59375 v -2.1875 h 12.59375 z m 15.56683,-5.79687 h -12.59375 v -2.1875 h 12.59375 z m 0,5.79687 h -12.59375 v -2.1875 h 12.59375 z m 2.61371,0.39063 2.34375,-0.3125 q 0.39062,1.98437 1.35937,2.875 0.98438,0.875 2.375,0.875 1.64063,0 2.78125,-1.14063 1.14063,-1.15625 1.14063,-2.84375 0,-1.625 -1.0625,-2.67187 -1.04688,-1.04688 -2.67188,-1.04688 -0.65625,0 -1.65625,0.26563 l 0.26563,-2.0625 q 0.23437,0.0312 0.375,0.0312 1.5,0 2.6875,-0.78125 1.20312,-0.78125 1.20312,-2.40625 0,-1.29688 -0.875,-2.14063 -0.85937,-0.84375 -2.25,-0.84375 -1.35937,0 -2.28125,0.85938 -0.90625,0.85937 -1.15625,2.57812 l -2.34375,-0.42187 q 0.42188,-2.34375 1.9375,-3.64063 1.53125,-1.29687 3.79688,-1.29687 1.5625,0 2.875,0.67187 1.3125,0.67188 2,1.82813 0.70312,1.15625 0.70312,2.45312 0,1.23438 -0.67187,2.25 -0.65625,1.01563 -1.95313,1.625 1.6875,0.39063 2.625,1.625 0.9375,1.21875 0.9375,3.0625 0,2.5 -1.82812,4.25 -1.8125,1.73438 -4.59375,1.73438 -2.51563,0 -4.17188,-1.5 -1.65625,-1.5 -1.89062,-3.875 z"
       fill-rule="nonzero"
       id="path3021" />
    <path
       fill="#cfe2f3"
       d="m 68.61811,421.43832 h 248.37534 v 53.03937 H 68.61811 Z"
       fill-rule="evenodd"
       id="path3023" />
    <path
       fill="#000000"
       fill-opacity="0"
       d="m 99.66502,421.43832 v 53.03937 M 68.618107,428.06823 H 316.99345"
       fill-rule="evenodd"
       id="path3025" />
    <path
       fill="#000000"
       fill-opacity="0"
       d="m 68.61811,421.43832 h 248.37534 v 53.03937 H 68.61811 Z"
       fill-rule="evenodd"
       id="path3027" />
    <path
       stroke="#000000"
       stroke-width="1"
       stroke-linejoin="round"
       stroke-linecap="butt"
       d="m 99.66502,421.43832 v 53.03937 M 68.618107,428.06823 H 316.99345"
       fill-rule="evenodd"
       id="path3029" />
    <path
       stroke="#000000"
       stroke-width="1"
       stroke-linejoin="round"
       stroke-linecap="butt"
       d="m 68.61811,421.43832 h 248.37534 v 53.03937 H 68.61811 Z"
       fill-rule="evenodd"
       id="path3031" />
    <path
       fill="#000000"
       d="m 110.5244,460.59296 v -18.125 h 6.79688 q 2.07812,0 3.32812,0.54687 1.26563,0.54688 1.96875,1.70313 0.71875,1.14062 0.71875,2.375 0,1.17187 -0.64062,2.20312 -0.625,1.01563 -1.90625,1.65625 1.65625,0.46875 2.53125,1.64063 0.89062,1.15625 0.89062,2.75 0,1.26562 -0.54687,2.35937 -0.53125,1.09375 -1.32813,1.6875 -0.78125,0.59375 -1.98437,0.90625 -1.1875,0.29688 -2.92188,0.29688 z m 2.39063,-10.51563 h 3.92187 q 1.59375,0 2.29688,-0.20312 0.90625,-0.28125 1.375,-0.90625 0.46875,-0.625 0.46875,-1.57813 0,-0.90625 -0.4375,-1.59375 -0.4375,-0.6875 -1.25,-0.9375 -0.79688,-0.25 -2.75,-0.25 h -3.625 z m 0,8.375 h 4.51562 q 1.17188,0 1.64063,-0.0781 0.82812,-0.15625 1.375,-0.5 0.5625,-0.34375 0.92187,-1 0.35938,-0.67188 0.35938,-1.53125 0,-1.01563 -0.53125,-1.76563 -0.51563,-0.75 -1.4375,-1.04687 -0.92188,-0.3125 -2.64063,-0.3125 h -4.20312 z m 13.48741,-4.42187 q 0,-3.65625 2.03125,-5.40625 1.6875,-1.46875 4.125,-1.46875 2.70312,0 4.42187,1.78125 1.71875,1.78125 1.71875,4.90625 0,2.53125 -0.76562,3.98437 -0.75,1.45313 -2.20313,2.26563 -1.45312,0.79687 -3.17187,0.79687 -2.76563,0 -4.46875,-1.76562 -1.6875,-1.76563 -1.6875,-5.09375 z m 2.28125,0 q 0,2.51562 1.09375,3.78125 1.10937,1.25 2.78125,1.25 1.65625,0 2.75,-1.26563 1.10937,-1.26562 1.10937,-3.84375 0,-2.4375 -1.10937,-3.6875 -1.10938,-1.26562 -2.75,-1.26562 -1.67188,0 -2.78125,1.25 -1.09375,1.25 -1.09375,3.78125 z m 11.80505,0 q 0,-3.65625 2.03125,-5.40625 1.6875,-1.46875 4.125,-1.46875 2.70313,0 4.42188,1.78125 1.71875,1.78125 1.71875,4.90625 0,2.53125 -0.76563,3.98437 -0.75,1.45313 -2.20312,2.26563 -1.45313,0.79687 -3.17188,0.79687 -2.76562,0 -4.46875,-1.76562 -1.6875,-1.76563 -1.6875,-5.09375 z m 2.28125,0 q 0,2.51562 1.09375,3.78125 1.10938,1.25 2.78125,1.25 1.65625,0 2.75,-1.26563 1.10938,-1.26562 1.10938,-3.84375 0,-2.4375 -1.10938,-3.6875 -1.10937,-1.26562 -2.75,-1.26562 -1.67187,0 -2.78125,1.25 -1.09375,1.25 -1.09375,3.78125 z m 12.5863,6.5625 v -18.125 h 2.21875 v 18.125 z m 14.65836,-4.23438 2.29688,0.29688 q -0.53125,2.01562 -2.01563,3.125 -1.46875,1.10937 -3.75,1.10937 -2.89062,0 -4.57812,-1.76562 -1.6875,-1.78125 -1.6875,-4.98438 0,-3.3125 1.70312,-5.14062 1.71875,-1.84375 4.4375,-1.84375 2.64063,0 4.29688,1.79687 1.67187,1.79688 1.67187,5.04688 0,0.20312 -0.0156,0.59375 h -9.78125 q 0.10937,2.17187 1.20312,3.32812 1.10938,1.14063 2.76563,1.14063 1.21875,0 2.07812,-0.64063 0.875,-0.64062 1.375,-2.0625 z m -7.3125,-3.59375 h 7.34375 q -0.15625,-1.65625 -0.84375,-2.48437 -1.0625,-1.28125 -2.75,-1.28125 -1.54687,0 -2.59375,1.03125 -1.03125,1.01562 -1.15625,2.73437 z m 20.97693,6.20313 q -1.23438,1.0625 -2.375,1.5 -1.14063,0.42187 -2.45313,0.42187 -2.17187,0 -3.32812,-1.04687 -1.15625,-1.0625 -1.15625,-2.71875 0,-0.95313 0.4375,-1.75 0.4375,-0.79688 1.14062,-1.28125 0.71875,-0.48438 1.60938,-0.73438 0.65625,-0.17187 1.96875,-0.32812 2.70312,-0.32813 3.96875,-0.76563 0.0156,-0.46875 0.0156,-0.59375 0,-1.35937 -0.625,-1.90625 -0.85937,-0.76562 -2.53125,-0.76562 -1.57812,0 -2.32812,0.5625 -0.75,0.54687 -1.10938,1.9375 l -2.17187,-0.29688 q 0.29687,-1.39062 0.96875,-2.25 0.6875,-0.85937 1.96875,-1.32812 1.29687,-0.46875 2.98437,-0.46875 1.6875,0 2.73438,0.40625 1.04687,0.39062 1.54687,1 0.5,0.59375 0.6875,1.5 0.125,0.57812 0.125,2.0625 v 2.96875 q 0,3.09375 0.14063,3.92187 0.14062,0.82813 0.5625,1.57813 h -2.32813 q -0.34375,-0.6875 -0.45312,-1.625 z m -0.1875,-4.96875 q -1.20313,0.5 -3.625,0.84375 -1.375,0.20312 -1.95313,0.45312 -0.5625,0.23438 -0.875,0.71875 -0.29687,0.46875 -0.29687,1.04688 0,0.89062 0.67187,1.48437 0.67188,0.59375 1.96875,0.59375 1.28125,0 2.28125,-0.5625 1,-0.5625 1.48438,-1.53125 0.34375,-0.75 0.34375,-2.23437 z m 5.7113,6.59375 v -13.14063 h 2 v 1.875 q 1.45313,-2.17187 4.1875,-2.17187 1.1875,0 2.17188,0.4375 1,0.42187 1.48437,1.125 0.5,0.6875 0.70313,1.64062 0.125,0.60938 0.125,2.15625 v 8.07813 h -2.23438 v -7.98438 q 0,-1.35937 -0.26562,-2.03125 -0.25,-0.6875 -0.90625,-1.07812 -0.65625,-0.40625 -1.54688,-0.40625 -1.42187,0 -2.46875,0.90625 -1.03125,0.89062 -1.03125,3.42187 v 7.17188 z m 21.09203,0 v -13.14063 h 2 v 2 q 0.78125,-1.40625 1.42187,-1.84375 0.65625,-0.45312 1.4375,-0.45312 1.125,0 2.28125,0.71875 l -0.76562,2.07812 q -0.8125,-0.48437 -1.64063,-0.48437 -0.71875,0 -1.3125,0.4375 -0.57812,0.4375 -0.82812,1.21875 -0.35938,1.1875 -0.35938,2.59375 v 6.875 z m 17.45009,-4.23438 2.29687,0.29688 q -0.53125,2.01562 -2.01562,3.125 -1.46875,1.10937 -3.75,1.10937 -2.89063,0 -4.57813,-1.76562 -1.6875,-1.78125 -1.6875,-4.98438 0,-3.3125 1.70313,-5.14062 1.71875,-1.84375 4.4375,-1.84375 2.64062,0 4.29687,1.79687 1.67188,1.79688 1.67188,5.04688 0,0.20312 -0.0156,0.59375 h -9.78125 q 0.10938,2.17187 1.20313,3.32812 1.10937,1.14063 2.76562,1.14063 1.21875,0 2.07813,-0.64063 0.875,-0.64062 1.375,-2.0625 z m -7.3125,-3.59375 h 7.34375 q -0.15625,-1.65625 -0.84375,-2.48437 -1.0625,-1.28125 -2.75,-1.28125 -1.54688,0 -2.59375,1.03125 -1.03125,1.01562 -1.15625,2.73437 z m 11.5238,3.90625 2.20313,-0.34375 q 0.1875,1.32813 1.03125,2.03125 0.84375,0.70313 2.35937,0.70313 1.54688,0 2.28125,-0.625 0.75,-0.625 0.75,-1.46875 0,-0.75 -0.65625,-1.1875 -0.46875,-0.29688 -2.28125,-0.75 -2.45312,-0.625 -3.40625,-1.07813 -0.9375,-0.45312 -1.42187,-1.25 -0.48438,-0.79687 -0.48438,-1.75 0,-0.89062 0.39063,-1.625 0.40625,-0.75 1.09375,-1.25 0.53125,-0.39062 1.42187,-0.65625 0.89063,-0.26562 1.92188,-0.26562 1.54687,0 2.71875,0.45312 1.17187,0.4375 1.71875,1.20313 0.5625,0.76562 0.76562,2.03125 l -2.17187,0.29687 q -0.14063,-1.01562 -0.85938,-1.57812 -0.71875,-0.5625 -2.01562,-0.5625 -1.53125,0 -2.1875,0.5 -0.65625,0.5 -0.65625,1.1875 0,0.4375 0.28125,0.78125 0.26562,0.35937 0.84375,0.59375 0.34375,0.125 1.96875,0.5625 2.35937,0.64062 3.29687,1.04687 0.9375,0.39063 1.46875,1.15625 0.53125,0.76563 0.53125,1.90625 0,1.10938 -0.65625,2.09375 -0.64062,0.98438 -1.875,1.53125 -1.21875,0.53125 -2.76562,0.53125 -2.5625,0 -3.90625,-1.0625 -1.32813,-1.0625 -1.70313,-3.15625 z m 22.16406,3.92188 v -1.92188 q -1.53125,2.21875 -4.17187,2.21875 -1.15625,0 -2.17188,-0.4375 -1,-0.45312 -1.5,-1.125 -0.48437,-0.67187 -0.6875,-1.65625 -0.125,-0.65625 -0.125,-2.07812 v -8.14063 h 2.21875 v 7.29688 q 0,1.73437 0.14063,2.34375 0.20312,0.875 0.875,1.375 0.6875,0.5 1.6875,0.5 1.01562,0 1.89062,-0.5 0.875,-0.51563 1.23438,-1.40625 0.375,-0.89063 0.375,-2.5625 v -7.04688 h 2.21875 v 13.14063 z m 5.43006,0 v -18.125 h 2.21875 v 18.125 z m 10.53335,-1.98438 0.3125,1.95313 q -0.9375,0.20312 -1.67187,0.20312 -1.21875,0 -1.89063,-0.375 -0.65625,-0.39062 -0.9375,-1.01562 -0.26562,-0.625 -0.26562,-2.625 v -7.5625 h -1.64063 v -1.73438 h 1.64063 v -3.25 l 2.21875,-1.32812 v 4.57812 h 2.23437 v 1.73438 h -2.23437 v 7.6875 q 0,0.95312 0.10937,1.23437 0.125,0.26563 0.39063,0.42188 0.26562,0.15625 0.75,0.15625 0.375,0 0.98437,-0.0781 z"
       fill-rule="nonzero"
       id="path3033" />
    <path
       fill="#000000"
       fill-opacity="0"
       d="m 374.979,341.15485 h 101.15485 v 46.02887 H 374.979 Z"
       fill-rule="evenodd"
       id="path3035" />
    <path
       stroke="#000000"
       stroke-width="1"
       stroke-linejoin="round"
       stroke-linecap="butt"
       stroke-dasharray="1, 3"
       d="m 374.979,341.15485 h 101.15485 v 46.02887 H 374.979 Z"
       fill-rule="evenodd"
       id="path3037" />
    <path
       fill="#000000"
       d="M 390.88525,373.7693 V 356.94117 H 384.604 v -2.25 h 15.125 v 2.25 h -6.3125 v 16.82813 z m 10.12125,0 v -13.82813 h 2.10937 v 2.09375 q 0.79688,-1.46875 1.48438,-1.9375 0.6875,-0.46875 1.5,-0.46875 1.1875,0 2.40625,0.76563 l -0.79688,2.17187 q -0.85937,-0.51562 -1.71875,-0.51562 -0.76562,0 -1.39062,0.46875 -0.60938,0.45312 -0.85938,1.28125 -0.39062,1.25 -0.39062,2.73437 v 7.23438 z m 17.95486,0 v -2.03125 q -1.60937,2.34375 -4.375,2.34375 -1.23437,0 -2.29687,-0.46875 -1.0625,-0.46875 -1.57813,-1.17188 -0.5,-0.71875 -0.71875,-1.75 -0.14062,-0.6875 -0.14062,-2.1875 v -8.5625 h 2.34375 v 7.67188 q 0,1.82812 0.14062,2.46875 0.21875,0.92187 0.9375,1.45312 0.71875,0.53125 1.76563,0.53125 1.0625,0 1.98437,-0.53125 0.92188,-0.54687 1.29688,-1.46875 0.39062,-0.9375 0.39062,-2.71875 v -7.40625 h 2.34375 v 13.82813 z m 15.23117,-4.45313 2.42188,0.29688 q -0.57813,2.125 -2.125,3.29687 -1.54688,1.17188 -3.95313,1.17188 -3.03125,0 -4.8125,-1.85938 -1.78125,-1.875 -1.78125,-5.25 0,-3.48437 1.79688,-5.40625 1.79687,-1.9375 4.67187,-1.9375 2.76563,0 4.51563,1.89063 1.76562,1.89062 1.76562,5.3125 0,0.20312 -0.0156,0.625 h -10.3125 q 0.14062,2.28125 1.29687,3.5 1.15625,1.20312 2.89063,1.20312 1.28125,0 2.1875,-0.67187 0.92187,-0.6875 1.45312,-2.17188 z m -7.6875,-3.78125 h 7.71875 q -0.15625,-1.75 -0.89062,-2.625 -1.125,-1.34375 -2.90625,-1.34375 -1.60938,0 -2.71875,1.07813 -1.09375,1.07812 -1.20313,2.89062 z"
       fill-rule="nonzero"
       id="path3039" />
    <path
       fill="#cfe2f3"
       d="m 31.40814,508.73096 h 322.79 v 46.02887 h -322.79 z"
       fill-rule="evenodd"
       id="path3041" />
    <path
       stroke="#000000"
       stroke-width="1"
       stroke-linejoin="round"
       stroke-linecap="butt"
       d="m 31.40814,508.73096 h 322.79 v 46.02887 h -322.79 z"
       fill-rule="evenodd"
       id="path3043" />
    <path
       fill="#000000"
       d="m 67.20448,541.3454 v -13.82812 h 2.109375 v 2.09375 q 0.796875,-1.46875 1.484375,-1.9375 0.6875,-0.46875 1.5,-0.46875 1.1875,0 2.40625,0.76562 l -0.796875,2.17188 q -0.859375,-0.51563 -1.71875,-0.51563 -0.765625,0 -1.390625,0.46875 -0.609375,0.45313 -0.859375,1.28125 -0.390625,1.25 -0.390625,2.73438 v 7.23437 z m 18.361115,-4.45312 2.421875,0.29687 q -0.578125,2.125 -2.125,3.29688 -1.546875,1.17187 -3.953125,1.17187 -3.03125,0 -4.8125,-1.85937 -1.78125,-1.875 -1.78125,-5.25 0,-3.48438 1.796875,-5.40625 1.796875,-1.9375 4.671875,-1.9375 2.765625,0 4.515625,1.89062 1.765625,1.89063 1.765625,5.3125 0,0.20313 -0.01563,0.625 h -10.3125 q 0.140625,2.28125 1.296875,3.5 1.15625,1.20313 2.890625,1.20313 1.28125,0 2.1875,-0.67188 0.921875,-0.6875 1.453125,-2.17187 z m -7.6875,-3.78125 h 7.71875 q -0.15625,-1.75 -0.890625,-2.625 -1.125,-1.34375 -2.90625,-1.34375 -1.609375,0 -2.71875,1.07812 -1.09375,1.07813 -1.203125,2.89063 z m 12.106186,4.10937 2.328125,-0.35937 q 0.1875,1.39062 1.078125,2.14062 0.890625,0.73438 2.5,0.73438 1.609375,0 2.390625,-0.65625 0.78125,-0.65625 0.78125,-1.54688 0,-0.79687 -0.6875,-1.25 -0.484375,-0.3125 -2.390625,-0.79687 -2.578125,-0.65625 -3.578125,-1.125 -1,-0.46875 -1.515625,-1.3125 -0.515625,-0.84375 -0.515625,-1.85938 0,-0.92187 0.421875,-1.70312 0.4375,-0.79688 1.15625,-1.3125 0.546875,-0.40625 1.484375,-0.6875 0.953125,-0.28125 2.03125,-0.28125 1.625,0 2.859375,0.46875 1.234375,0.46875 1.812499,1.28125 0.59375,0.79687 0.8125,2.14062 l -2.296874,0.3125 q -0.15625,-1.07812 -0.90625,-1.67187 -0.75,-0.59375 -2.109375,-0.59375 -1.609375,0 -2.3125,0.53125 -0.6875,0.53125 -0.6875,1.25 0,0.45312 0.296875,0.8125 0.28125,0.375 0.890625,0.625 0.359375,0.14062 2.078125,0.60937 2.484375,0.65625 3.46875,1.07813 0.984374,0.42187 1.531254,1.23437 0.5625,0.79688 0.5625,2 0,1.17188 -0.6875,2.21875 -0.67188,1.03125 -1.968754,1.59375 -1.28125,0.5625 -2.90625,0.5625 -2.703125,0 -4.125,-1.10937 -1.40625,-1.125 -1.796875,-3.32813 z m 23.328129,4.125 v -2.03125 q -1.60938,2.34375 -4.375,2.34375 -1.23438,0 -2.29688,-0.46875 -1.0625,-0.46875 -1.57812,-1.17187 -0.5,-0.71875 -0.71875,-1.75 -0.14063,-0.6875 -0.14063,-2.1875 v -8.5625 h 2.34375 v 7.67187 q 0,1.82813 0.14063,2.46875 0.21875,0.92188 0.9375,1.45313 0.71875,0.53125 1.76562,0.53125 1.0625,0 1.98438,-0.53125 0.92187,-0.54688 1.29687,-1.46875 0.39063,-0.9375 0.39063,-2.71875 v -7.40625 h 2.34375 v 13.82812 z m 5.71556,0 v -19.07812 h 2.34375 v 19.07812 z m 11.09404,-2.09375 0.32812,2.0625 q -0.98437,0.21875 -1.76562,0.21875 -1.26563,0 -1.96875,-0.40625 -0.70313,-0.40625 -1,-1.0625 -0.28125,-0.65625 -0.28125,-2.76562 v -7.95313 h -1.71875 v -1.82812 h 1.71875 v -3.42188 l 2.32812,-1.40625 v 4.82813 h 2.35938 v 1.82812 h -2.35938 v 8.07813 q 0,1 0.125,1.29687 0.125,0.28125 0.40625,0.45313 0.28125,0.17187 0.79688,0.17187 0.39062,0 1.03125,-0.0937 z m 22.01504,-9.125 H 139.5433 v -2.1875 h 12.59375 z m 0,5.79688 H 139.5433 v -2.1875 h 12.59375 z m 12.81655,5.42187 h -2.17188 v -19.07812 h 2.34375 v 6.79687 q 1.48438,-1.85937 3.78125,-1.85937 1.28125,0 2.40625,0.51562 1.14063,0.51563 1.875,1.45313 0.75,0.92187 1.15625,2.25 0.42188,1.3125 0.42188,2.79687 0,3.5625 -1.76563,5.5 -1.75,1.9375 -4.21875,1.9375 -2.4375,0 -3.82812,-2.04687 z m -0.0312,-7.01562 q 0,2.48437 0.67187,3.59375 1.10938,1.8125 3,1.8125 1.53125,0 2.65625,-1.32813 1.125,-1.34375 1.125,-3.98437 0,-2.70313 -1.07812,-3.98438 -1.07813,-1.29687 -2.59375,-1.29687 -1.54688,0 -2.67188,1.32812 -1.10937,1.32813 -1.10937,3.85938 z m 11.82493,0.10937 q 0,-3.84375 2.125,-5.6875 1.78125,-1.54687 4.34375,-1.54687 2.85938,0 4.65625,1.875 1.8125,1.85937 1.8125,5.15625 0,2.67187 -0.79687,4.20312 -0.79688,1.53125 -2.32813,2.375 -1.53125,0.84375 -3.34375,0.84375 -2.89062,0 -4.6875,-1.85937 -1.78125,-1.85938 -1.78125,-5.35938 z m 2.40625,0 q 0,2.65625 1.15625,3.98438 1.15625,1.3125 2.90625,1.3125 1.75,0 2.90625,-1.32813 1.15625,-1.32812 1.15625,-4.04687 0,-2.5625 -1.17187,-3.89063 -1.15625,-1.32812 -2.89063,-1.32812 -1.75,0 -2.90625,1.32812 -1.15625,1.3125 -1.15625,3.96875 z m 12.41869,0 q 0,-3.84375 2.125,-5.6875 1.78125,-1.54687 4.34375,-1.54687 2.85937,0 4.65625,1.875 1.8125,1.85937 1.8125,5.15625 0,2.67187 -0.79688,4.20312 -0.79687,1.53125 -2.32812,2.375 -1.53125,0.84375 -3.34375,0.84375 -2.89063,0 -4.6875,-1.85937 -1.78125,-1.85938 -1.78125,-5.35938 z m 2.40625,0 q 0,2.65625 1.15625,3.98438 1.15625,1.3125 2.90625,1.3125 1.75,0 2.90625,-1.32813 1.15625,-1.32812 1.15625,-4.04687 0,-2.5625 -1.17188,-3.89063 -1.15625,-1.32812 -2.89062,-1.32812 -1.75,0 -2.90625,1.32812 -1.15625,1.3125 -1.15625,3.96875 z m 13.23118,6.90625 v -19.07812 h 2.34375 v 19.07812 z m 14.15654,0 h -2.34375 v -14.92187 q -0.85937,0.79687 -2.23437,1.60937 -1.35938,0.79688 -2.45313,1.20313 v -2.26563 q 1.96875,-0.92187 3.4375,-2.23437 1.46875,-1.3125 2.07813,-2.54688 h 1.51562 z m 14.74652,5.60938 v -25.01563 h 2.03125 v 25.01563 z m 6.92438,0 v -25.01563 h 2.03125 v 25.01563 z m 15.79909,-5.60938 h -2.17187 v -19.07812 h 2.34375 v 6.79687 q 1.48437,-1.85937 3.78125,-1.85937 1.28125,0 2.40625,0.51562 1.14062,0.51563 1.875,1.45313 0.75,0.92187 1.15625,2.25 0.42187,1.3125 0.42187,2.79687 0,3.5625 -1.76562,5.5 -1.75,1.9375 -4.21875,1.9375 -2.4375,0 -3.82813,-2.04687 z m -0.0312,-7.01562 q 0,2.48437 0.67188,3.59375 1.10937,1.8125 3,1.8125 1.53125,0 2.65625,-1.32813 1.125,-1.34375 1.125,-3.98437 0,-2.70313 -1.07813,-3.98438 -1.07812,-1.29687 -2.59375,-1.29687 -1.54687,0 -2.67187,1.32812 -1.10938,1.32813 -1.10938,3.85938 z m 11.82492,0.10937 q 0,-3.84375 2.125,-5.6875 1.78125,-1.54687 4.34375,-1.54687 2.85938,0 4.65625,1.875 1.8125,1.85937 1.8125,5.15625 0,2.67187 -0.79687,4.20312 -0.79688,1.53125 -2.32813,2.375 -1.53125,0.84375 -3.34375,0.84375 -2.89062,0 -4.6875,-1.85937 -1.78125,-1.85938 -1.78125,-5.35938 z m 2.40625,0 q 0,2.65625 1.15625,3.98438 1.15625,1.3125 2.90625,1.3125 1.75,0 2.90625,-1.32813 1.15625,-1.32812 1.15625,-4.04687 0,-2.5625 -1.17187,-3.89063 -1.15625,-1.32812 -2.89063,-1.32812 -1.75,0 -2.90625,1.32812 -1.15625,1.3125 -1.15625,3.96875 z m 12.4187,0 q 0,-3.84375 2.125,-5.6875 1.78125,-1.54687 4.34375,-1.54687 2.85938,0 4.65625,1.875 1.8125,1.85937 1.8125,5.15625 0,2.67187 -0.79687,4.20312 -0.79688,1.53125 -2.32813,2.375 -1.53125,0.84375 -3.34375,0.84375 -2.89062,0 -4.6875,-1.85937 -1.78125,-1.85938 -1.78125,-5.35938 z m 2.40625,0 q 0,2.65625 1.15625,3.98438 1.15625,1.3125 2.90625,1.3125 1.75,0 2.90625,-1.32813 1.15625,-1.32812 1.15625,-4.04687 0,-2.5625 -1.17187,-3.89063 -1.15625,-1.32812 -2.89063,-1.32812 -1.75,0 -2.90625,1.32812 -1.15625,1.3125 -1.15625,3.96875 z m 13.23117,6.90625 v -19.07812 h 2.34375 v 19.07812 z m 17.64093,-2.25 v 2.25 h -12.60937 q -0.0312,-0.84375 0.26562,-1.625 0.48438,-1.29687 1.54688,-2.54687 1.0625,-1.25 3.0625,-2.875 3.10937,-2.5625 4.20312,-4.04688 1.09375,-1.5 1.09375,-2.8125 0,-1.40625 -1,-2.35937 -0.98437,-0.95313 -2.59375,-0.95313 -1.6875,0 -2.70312,1.01563 -1.01563,1.01562 -1.03125,2.8125 l -2.40625,-0.25 q 0.25,-2.6875 1.85937,-4.09375 1.60938,-1.42188 4.32813,-1.42188 2.75,0 4.34375,1.53125 1.60937,1.51563 1.60937,3.76563 0,1.14062 -0.46875,2.25 -0.46875,1.10937 -1.5625,2.32812 -1.07812,1.21875 -3.60937,3.35938 -2.09375,1.76562 -2.70313,2.40625 -0.59375,0.625 -0.98437,1.26562 z"
       fill-rule="nonzero"
       id="path3045" />
    <path
       fill="#000000"
       fill-opacity="0"
       d="m 401.61154,508.73227 h 280.69815 v 46.0289 H 401.61154 Z"
       fill-rule="evenodd"
       id="path3047" />
    <path
       stroke="#000000"
       stroke-width="1"
       stroke-linejoin="round"
       stroke-linecap="butt"
       stroke-dasharray="1, 3"
       d="m 401.61154,508.73227 h 280.69815 v 46.0289 H 401.61154 Z"
       fill-rule="evenodd"
       id="path3049" />
    <path
       fill="#000000"
       d="m 412.79904,541.34674 v -19.07813 h 12.875 v 2.25 h -10.34375 v 5.90625 h 8.95312 v 2.25 h -8.95312 v 8.67188 z m 24.87646,-1.70313 q -1.3125,1.10938 -2.51562,1.5625 -1.20313,0.45313 -2.57813,0.45313 -2.28125,0 -3.5,-1.10938 -1.21875,-1.10937 -1.21875,-2.84375 0,-1.01562 0.45313,-1.85937 0.46875,-0.84375 1.21875,-1.34375 0.75,-0.51563 1.6875,-0.76563 0.6875,-0.1875 2.07812,-0.35937 2.82813,-0.32813 4.17188,-0.79688 0.0156,-0.48437 0.0156,-0.625 0,-1.42187 -0.65625,-2.01562 -0.90625,-0.79688 -2.67187,-0.79688 -1.65625,0 -2.45313,0.59375 -0.78125,0.57813 -1.15625,2.04688 l -2.29687,-0.3125 q 0.3125,-1.46875 1.03125,-2.375 0.71875,-0.90625 2.0625,-1.39063 1.35937,-0.5 3.14062,-0.5 1.78125,0 2.875,0.42188 1.10938,0.42187 1.625,1.04687 0.53125,0.625 0.73438,1.59375 0.125,0.59375 0.125,2.15625 v 3.125 q 0,3.26563 0.14062,4.14063 0.15625,0.85937 0.59375,1.65625 h -2.4375 q -0.375,-0.73438 -0.46875,-1.70313 z m -0.20312,-5.23437 q -1.26563,0.51562 -3.82813,0.89062 -1.4375,0.20313 -2.04687,0.46875 -0.59375,0.25 -0.92188,0.75 -0.3125,0.5 -0.3125,1.125 0,0.9375 0.70313,1.5625 0.70312,0.625 2.07812,0.625 1.34375,0 2.39063,-0.59375 1.0625,-0.59375 1.5625,-1.625 0.375,-0.79687 0.375,-2.34375 z m 5.94992,6.9375 v -19.07813 h 2.34375 v 19.07813 z m 5.03156,-4.125 2.32812,-0.35938 q 0.1875,1.39063 1.07813,2.14063 0.89062,0.73437 2.5,0.73437 1.60937,0 2.39062,-0.65625 0.78125,-0.65625 0.78125,-1.54687 0,-0.79688 -0.6875,-1.25 -0.48437,-0.3125 -2.39062,-0.79688 -2.57813,-0.65625 -3.57813,-1.125 -1,-0.46875 -1.51562,-1.3125 -0.51563,-0.84375 -0.51563,-1.85937 0,-0.92188 0.42188,-1.70313 0.4375,-0.79687 1.15625,-1.3125 0.54687,-0.40625 1.48437,-0.6875 0.95313,-0.28125 2.03125,-0.28125 1.625,0 2.85938,0.46875 1.23437,0.46875 1.8125,1.28125 0.59375,0.79688 0.8125,2.14063 l -2.29688,0.3125 q -0.15625,-1.07813 -0.90625,-1.67188 -0.75,-0.59375 -2.10937,-0.59375 -1.60938,0 -2.3125,0.53125 -0.6875,0.53125 -0.6875,1.25 0,0.45313 0.29687,0.8125 0.28125,0.375 0.89063,0.625 0.35937,0.14063 2.07812,0.60938 2.48438,0.65625 3.46875,1.07812 0.98438,0.42188 1.53125,1.23438 0.5625,0.79687 0.5625,2 0,1.17187 -0.6875,2.21875 -0.67187,1.03125 -1.96875,1.59375 -1.28125,0.5625 -2.90625,0.5625 -2.70312,0 -4.125,-1.10938 -1.40625,-1.125 -1.79687,-3.32812 z m 23.73437,-0.32813 2.42188,0.29688 q -0.57813,2.125 -2.125,3.29687 -1.54688,1.17188 -3.95313,1.17188 -3.03125,0 -4.8125,-1.85938 -1.78125,-1.875 -1.78125,-5.25 0,-3.48437 1.79688,-5.40625 1.79687,-1.9375 4.67187,-1.9375 2.76563,0 4.51563,1.89063 1.76562,1.89062 1.76562,5.3125 0,0.20312 -0.0156,0.625 h -10.3125 q 0.14062,2.28125 1.29687,3.5 1.15625,1.20312 2.89063,1.20312 1.28125,0 2.1875,-0.67187 0.92187,-0.6875 1.45312,-2.17188 z m -7.6875,-3.78125 h 7.71875 q -0.15625,-1.75 -0.89062,-2.625 -1.125,-1.34375 -2.90625,-1.34375 -1.60938,0 -2.71875,1.07813 -1.09375,1.07812 -1.20313,2.89062 z m 21.15277,13.84375 v -25.01562 h 2.03125 v 25.01562 z m 6.92438,0 v -25.01562 h 2.03125 v 25.01562 z m 18.3017,-5.60937 v -16.82813 h -6.28125 v -2.25 h 15.125 v 2.25 h -6.3125 v 16.82813 z m 10.12121,0 v -13.82813 h 2.10938 v 2.09375 q 0.79687,-1.46875 1.48437,-1.9375 0.6875,-0.46875 1.5,-0.46875 1.1875,0 2.40625,0.76563 l -0.79687,2.17187 q -0.85938,-0.51562 -1.71875,-0.51562 -0.76563,0 -1.39063,0.46875 -0.60937,0.45312 -0.85937,1.28125 -0.39063,1.25 -0.39063,2.73437 v 7.23438 z m 17.9549,0 v -2.03125 q -1.60938,2.34375 -4.375,2.34375 -1.23438,0 -2.29688,-0.46875 -1.0625,-0.46875 -1.57812,-1.17188 -0.5,-0.71875 -0.71875,-1.75 -0.14063,-0.6875 -0.14063,-2.1875 v -8.5625 h 2.34375 v 7.67188 q 0,1.82812 0.14063,2.46875 0.21875,0.92187 0.9375,1.45312 0.71875,0.53125 1.76562,0.53125 1.0625,0 1.98438,-0.53125 0.92187,-0.54687 1.29687,-1.46875 0.39063,-0.9375 0.39063,-2.71875 v -7.40625 h 2.34375 v 13.82813 z m 15.2312,-4.45313 2.42187,0.29688 q -0.57812,2.125 -2.125,3.29687 -1.54687,1.17188 -3.95312,1.17188 -3.03125,0 -4.8125,-1.85938 -1.78125,-1.875 -1.78125,-5.25 0,-3.48437 1.79687,-5.40625 1.79688,-1.9375 4.67188,-1.9375 2.76562,0 4.51562,1.89063 1.76563,1.89062 1.76563,5.3125 0,0.20312 -0.0156,0.625 h -10.3125 q 0.14063,2.28125 1.29688,3.5 1.15625,1.20312 2.89062,1.20312 1.28125,0 2.1875,-0.67187 0.92188,-0.6875 1.45313,-2.17188 z m -7.6875,-3.78125 h 7.71875 q -0.15625,-1.75 -0.89063,-2.625 -1.125,-1.34375 -2.90625,-1.34375 -1.60937,0 -2.71875,1.07813 -1.09375,1.07812 -1.20312,2.89062 z m 32.77777,-2.98437 h -12.59375 v -2.1875 h 12.59375 z m 0,5.79687 h -12.59375 v -2.1875 h 12.59375 z m 15.31915,5.42188 v -16.82813 h -6.28125 v -2.25 h 15.125 v 2.25 h -6.3125 v 16.82813 z m 10.12122,0 v -13.82813 h 2.10937 v 2.09375 q 0.79688,-1.46875 1.48438,-1.9375 0.6875,-0.46875 1.5,-0.46875 1.1875,0 2.40625,0.76563 l -0.79688,2.17187 q -0.85937,-0.51562 -1.71875,-0.51562 -0.76562,0 -1.39062,0.46875 -0.60938,0.45312 -0.85938,1.28125 -0.39062,1.25 -0.39062,2.73437 v 7.23438 z m 17.95489,0 v -2.03125 q -1.60937,2.34375 -4.375,2.34375 -1.23437,0 -2.29687,-0.46875 -1.0625,-0.46875 -1.57813,-1.17188 -0.5,-0.71875 -0.71875,-1.75 -0.14062,-0.6875 -0.14062,-2.1875 v -8.5625 h 2.34375 v 7.67188 q 0,1.82812 0.14062,2.46875 0.21875,0.92187 0.9375,1.45312 0.71875,0.53125 1.76563,0.53125 1.0625,0 1.98437,-0.53125 0.92188,-0.54687 1.29688,-1.46875 0.39062,-0.9375 0.39062,-2.71875 v -7.40625 h 2.34375 v 13.82813 z m 15.23114,-4.45313 2.42188,0.29688 q -0.57813,2.125 -2.125,3.29687 -1.54688,1.17188 -3.95313,1.17188 -3.03125,0 -4.8125,-1.85938 -1.78125,-1.875 -1.78125,-5.25 0,-3.48437 1.79688,-5.40625 1.79687,-1.9375 4.67187,-1.9375 2.76563,0 4.51563,1.89063 1.76562,1.89062 1.76562,5.3125 0,0.20312 -0.0156,0.625 h -10.3125 q 0.14062,2.28125 1.29687,3.5 1.15625,1.20312 2.89063,1.20312 1.28125,0 2.1875,-0.67187 0.92187,-0.6875 1.45312,-2.17188 z m -7.6875,-3.78125 h 7.71875 q -0.15625,-1.75 -0.89062,-2.625 -1.125,-1.34375 -2.90625,-1.34375 -1.60938,0 -2.71875,1.07813 -1.09375,1.07812 -1.20313,2.89062 z"
       fill-rule="nonzero"
       id="path3051" />
    <path
       fill="#000000"
       fill-opacity="0"
       d="M 374.979,364.16928 H 318.44357"
       fill-rule="evenodd"
       id="path3053" />
    <path
       stroke="#000000"
       stroke-width="1"
       stroke-linejoin="round"
       stroke-linecap="butt"
       d="M 374.979,364.16928 H 324.44357"
       fill-rule="evenodd"
       id="path3055" />
    <path
       fill="#000000"
       stroke="#000000"
       stroke-width="1"
       stroke-linecap="butt"
       d="m 324.44357,362.51755 -4.53809,1.65173 4.53809,1.65174 z"
       fill-rule="evenodd"
       id="path3057" />
    <path
       fill="#000000"
       fill-opacity="0"
       d="M 401.61154,531.7467 H 354.20996"
       fill-rule="evenodd"
       id="path3059" />
    <path
       stroke="#000000"
       stroke-width="1"
       stroke-linejoin="round"
       stroke-linecap="butt"
       d="M 401.61154,531.7467 H 360.20996"
       fill-rule="evenodd"
       id="path3061" />
    <path
       fill="#000000"
       stroke="#000000"
       stroke-width="1"
       stroke-linecap="butt"
       d="m 360.20996,530.095 -4.53809,1.65173 4.53809,1.65174 z"
       fill-rule="evenodd"
       id="path3063" />
    <path
       fill="#000000"
       fill-opacity="0"
       d="m 192.80446,306.90027 v 34.2677"
       fill-rule="evenodd"
       id="path3065" />
    <path
       stroke="#000000"
       stroke-width="1"
       stroke-linejoin="round"
       stroke-linecap="butt"
       d="m 192.80446,306.90027 v 28.2677"
       fill-rule="evenodd"
       id="path3067" />
    <path
       fill="#000000"
       stroke="#000000"
       stroke-width="1"
       stroke-linecap="butt"
       d="m 191.15273,335.16797 1.65173,4.53812 1.65174,-4.53812 z"
       fill-rule="evenodd"
       id="path3069" />
    <path
       fill="#000000"
       fill-opacity="0"
       d="m 192.80315,387.1824 v 34.26773"
       fill-rule="evenodd"
       id="path3071" />
    <path
       stroke="#000000"
       stroke-width="1"
       stroke-linejoin="round"
       stroke-linecap="butt"
       d="m 192.80315,387.1824 v 28.26773"
       fill-rule="evenodd"
       id="path3073" />
    <path
       fill="#000000"
       stroke="#000000"
       stroke-width="1"
       stroke-linecap="butt"
       d="m 191.15141,415.45013 1.65173,4.53809 1.65174,-4.53809 z"
       fill-rule="evenodd"
       id="path3075" />
    <path
       fill="#000000"
       fill-opacity="0"
       d="m 192.80577,474.4777 v 34.2677"
       fill-rule="evenodd"
       id="path3077" />
    <path
       stroke="#000000"
       stroke-width="1"
       stroke-linejoin="round"
       stroke-linecap="butt"
       d="m 192.80577,474.4777 v 28.2677"
       fill-rule="evenodd"
       id="path3079" />
    <path
       fill="#000000"
       stroke="#000000"
       stroke-width="1"
       stroke-linecap="butt"
       d="m 191.15404,502.7454 1.65173,4.53812 1.65174,-4.53812 z"
       fill-rule="evenodd"
       id="path3081" />
    <path
       fill="#000000"
       fill-opacity="0"
       d="m 192.80446,146.90027 v 34.01575"
       fill-rule="evenodd"
       id="path3083" />
    <path
       stroke="#000000"
       stroke-width="1"
       stroke-linejoin="round"
       stroke-linecap="butt"
       d="m 192.80446,146.90027 v 28.01575"
       fill-rule="evenodd"
       id="path3085" />
    <path
       fill="#000000"
       stroke="#000000"
       stroke-width="1"
       stroke-linecap="butt"
       d="m 191.15273,174.91602 1.65173,4.53809 1.65174,-4.53809 z"
       fill-rule="evenodd"
       id="path3087" />
  </g>
</svg>
