<?xml version="1.0" encoding="UTF-8" standalone="no"?>
<svg
   xmlns:dc="http://purl.org/dc/elements/1.1/"
   xmlns:cc="http://creativecommons.org/ns#"
   xmlns:rdf="http://www.w3.org/1999/02/22-rdf-syntax-ns#"
   xmlns:svg="http://www.w3.org/2000/svg"
   xmlns="http://www.w3.org/2000/svg"
   xmlns:sodipodi="http://sodipodi.sourceforge.net/DTD/sodipodi-0.dtd"
   xmlns:inkscape="http://www.inkscape.org/namespaces/inkscape"
   version="1.1"
   viewBox="0 0 609.85822 261.58524"
   fill="none"
   stroke="none"
   stroke-linecap="square"
   stroke-miterlimit="10"
   id="svg1343"
   sodipodi:docname="Flowchart variable.svg"
   width="609.85822"
   height="261.58524"
   inkscape:version="1.0.2-2 (e86c870879, 2021-01-15)">
  <metadata
     id="metadata1349">
    <rdf:RDF>
      <cc:Work
         rdf:about="">
        <dc:format>image/svg+xml</dc:format>
        <dc:type
           rdf:resource="http://purl.org/dc/dcmitype/StillImage" />
        <dc:title></dc:title>
      </cc:Work>
    </rdf:RDF>
  </metadata>
  <defs
     id="defs1347" />
  <sodipodi:namedview
     pagecolor="#ffffff"
     bordercolor="#666666"
     borderopacity="1"
     objecttolerance="10"
     gridtolerance="10"
     guidetolerance="10"
     inkscape:pageopacity="0"
     inkscape:pageshadow="2"
     inkscape:window-width="1920"
     inkscape:window-height="1017"
     id="namedview1345"
     showgrid="false"
     fit-margin-top="0"
     fit-margin-left="0"
     fit-margin-right="0"
     fit-margin-bottom="0"
     inkscape:zoom="0.80789571"
     inkscape:cx="390.16914"
     inkscape:cy="286.14726"
     inkscape:window-x="-8"
     inkscape:window-y="-8"
     inkscape:window-maximized="1"
     inkscape:current-layer="svg1343" />
  <clipPath
     id="p.0">
    <path
       d="M 0,0 H 960 V 720 H 0 Z"
       clip-rule="nonzero"
       id="path1262" />
  </clipPath>
  <g
     clip-path="url(#p.0)"
     id="g1341"
     transform="translate(-68.1168,-9.1640415)">
    <path
       fill="#000000"
       fill-opacity="0"
       d="M 0,0 H 960 V 720 H 0 Z"
       fill-rule="evenodd"
       id="path1265" />
    <path
       fill="#cfe2f3"
       d="m 130.73216,9.6640415 h 82.58986 v 0 c 10.81949,0 19.59042,12.7634815 19.59042,28.5080315 0,15.744553 -8.77093,28.508034 -19.59042,28.508034 h -82.58986 v 0 c -10.8195,0 -19.59043,-12.763481 -19.59043,-28.508034 0,-15.744551 8.77093,-28.5080315 19.59043,-28.5080315 z"
       fill-rule="evenodd"
       id="path1267" />
    <path
       stroke="#000000"
       stroke-width="1"
       stroke-linejoin="round"
       stroke-linecap="butt"
       d="m 130.73216,9.6640415 h 82.58986 v 0 c 10.81949,0 19.59042,12.7634815 19.59042,28.5080315 0,15.744553 -8.77093,28.508034 -19.59042,28.508034 h -82.58986 v 0 c -10.8195,0 -19.59043,-12.763481 -19.59043,-28.508034 0,-15.744551 8.77093,-28.5080315 19.59043,-28.5080315 z"
       fill-rule="evenodd"
       id="path1269" />
    <path
       fill="#000000"
       d="M 134.0857,47.77207 V 28.693945 h 6.5625 q 2.23437,0 3.40625,0.265625 1.64062,0.375 2.79687,1.375 1.5,1.265625 2.25,3.25 0.75,1.984375 0.75,4.546875 0,2.171875 -0.51562,3.859375 -0.5,1.671875 -1.29688,2.78125 -0.78125,1.09375 -1.73437,1.71875 -0.9375,0.625 -2.28125,0.953125 -1.32813,0.328125 -3.0625,0.328125 z m 2.51562,-2.25 h 4.07813 q 1.89062,0 2.95312,-0.34375 1.07813,-0.359375 1.71875,-1 0.89063,-0.890625 1.39063,-2.40625 0.51562,-1.515625 0.51562,-3.6875 0,-2.984375 -0.98437,-4.59375 -0.98438,-1.609375 -2.39063,-2.15625 -1.01562,-0.390625 -3.26562,-0.390625 h -4.01563 z m 25.89092,-2.203125 2.42187,0.296875 q -0.57812,2.125 -2.125,3.296875 -1.54687,1.171875 -3.95312,1.171875 -3.03125,0 -4.8125,-1.859375 -1.78125,-1.875 -1.78125,-5.25 0,-3.484375 1.79687,-5.40625 1.79688,-1.9375 4.67188,-1.9375 2.76562,0 4.51562,1.890625 1.76563,1.890625 1.76563,5.3125 0,0.203125 -0.0156,0.625 h -10.3125 q 0.14063,2.28125 1.29688,3.5 1.15625,1.203125 2.89062,1.203125 1.28125,0 2.1875,-0.671875 0.92188,-0.6875 1.45313,-2.171875 z m -7.6875,-3.78125 h 7.71875 q -0.15625,-1.75 -0.89063,-2.625 -1.125,-1.34375 -2.90625,-1.34375 -1.60937,0 -2.71875,1.078125 -1.09375,1.078125 -1.20312,2.890625 z m 2.51562,-7.3125 1.73438,-3.640625 h 3.0625 l -2.85938,3.640625 z m 10.52807,20.84375 v -19.125 h 2.14062 v 1.796875 q 0.75,-1.046875 1.70313,-1.578125 0.95312,-0.53125 2.3125,-0.53125 1.76562,0 3.10937,0.921875 1.35938,0.90625 2.04688,2.5625 0.6875,1.65625 0.6875,3.640625 0,2.125 -0.76563,3.828125 -0.75,1.6875 -2.20312,2.59375 -1.45313,0.90625 -3.04688,0.90625 -1.17187,0 -2.10937,-0.484375 -0.92188,-0.5 -1.53125,-1.265625 v 6.734375 z m 2.125,-12.125 q 0,2.65625 1.07812,3.9375 1.09375,1.28125 2.625,1.28125 1.5625,0 2.67188,-1.3125 1.10937,-1.328125 1.10937,-4.109375 0,-2.640625 -1.09375,-3.953125 -1.07812,-1.3125 -2.59375,-1.3125 -1.48437,0 -2.64062,1.40625 -1.15625,1.390625 -1.15625,4.0625 z m 21.73118,5.125 q -1.3125,1.109375 -2.51562,1.5625 -1.20313,0.453125 -2.57813,0.453125 -2.28125,0 -3.5,-1.109375 -1.21875,-1.109375 -1.21875,-2.84375 0,-1.015625 0.45313,-1.859375 0.46875,-0.84375 1.21875,-1.34375 0.75,-0.515625 1.6875,-0.765625 0.6875,-0.1875 2.07812,-0.359375 2.82813,-0.328125 4.17188,-0.796875 0.0156,-0.484375 0.0156,-0.625 0,-1.421875 -0.65625,-2.015625 -0.90625,-0.796875 -2.67187,-0.796875 -1.65625,0 -2.45313,0.59375 -0.78125,0.578125 -1.15625,2.046875 l -2.29687,-0.3125 q 0.3125,-1.46875 1.03125,-2.375 0.71875,-0.90625 2.0625,-1.390625 1.35937,-0.5 3.14062,-0.5 1.78125,0 2.875,0.421875 1.10938,0.421875 1.625,1.046875 0.53125,0.625 0.73438,1.59375 0.125,0.59375 0.125,2.15625 v 3.125 q 0,3.265625 0.14062,4.140625 0.15625,0.859375 0.59375,1.65625 h -2.4375 q -0.375,-0.734375 -0.46875,-1.703125 z m -0.20312,-5.234375 q -1.26563,0.515625 -3.82813,0.890625 -1.4375,0.203125 -2.04687,0.46875 -0.59375,0.25 -0.92188,0.75 -0.3125,0.5 -0.3125,1.125 0,0.9375 0.70313,1.5625 0.70312,0.625 2.07812,0.625 1.34375,0 2.39063,-0.59375 1.0625,-0.59375 1.5625,-1.625 0.375,-0.796875 0.375,-2.34375 z m 5.98118,6.9375 V 33.943945 h 2.10938 v 2.09375 q 0.79687,-1.46875 1.48437,-1.9375 0.6875,-0.46875 1.5,-0.46875 1.1875,0 2.40625,0.765625 l -0.79687,2.171875 q -0.85938,-0.515625 -1.71875,-0.515625 -0.76563,0 -1.39063,0.46875 -0.60937,0.453125 -0.85937,1.28125 -0.39063,1.25 -0.39063,2.734375 v 7.234375 z m 14.01737,-2.09375 0.32812,2.0625 q -0.98437,0.21875 -1.76562,0.21875 -1.26563,0 -1.96875,-0.40625 -0.70313,-0.40625 -1,-1.0625 -0.28125,-0.65625 -0.28125,-2.765625 V 35.77207 h -1.71875 v -1.828125 h 1.71875 V 30.52207 l 2.32812,-1.40625 v 4.828125 h 2.35938 v 1.828125 h -2.35938 v 8.078125 q 0,1 0.125,1.296875 0.125,0.28125 0.40625,0.453125 0.28125,0.171875 0.79688,0.171875 0.39062,0 1.03125,-0.09375 z"
       fill-rule="nonzero"
       id="path1271" />
    <path
       fill="#cfe2f3"
       d="m 124.8308,213.23321 h 89.14582 v 0 c 11.67834,0 21.14552,12.76349 21.14552,28.50803 0,15.74456 -9.46718,28.50802 -21.14552,28.50802 H 124.8308 v 0 c -11.67834,0 -21.14552,-12.76346 -21.14552,-28.50802 0,-15.74454 9.46718,-28.50803 21.14552,-28.50803 z"
       fill-rule="evenodd"
       id="path1273" />
    <path
       stroke="#000000"
       stroke-width="1"
       stroke-linejoin="round"
       stroke-linecap="butt"
       d="m 124.8308,213.23321 h 89.14582 v 0 c 11.67834,0 21.14552,12.76349 21.14552,28.50803 0,15.74457 -9.46718,28.50803 -21.14552,28.50803 H 124.8308 v 0 c -11.67835,0 -21.14552,-12.76346 -21.14552,-28.50803 0,-15.74454 9.46718,-28.50803 21.14552,-28.50803 z"
       fill-rule="evenodd"
       id="path1275" />
    <path
       fill="#000000"
       d="m 153.07631,251.34124 v -19.07813 h 12.875 v 2.25 h -10.34375 v 5.90625 h 8.95312 v 2.25 h -8.95312 v 8.67188 z m 15.86082,-16.39063 v -2.6875 h 2.34375 v 2.6875 z m 0,16.39063 v -13.82813 h 2.34375 v 13.82813 z m 5.90656,0 v -13.82813 h 2.10937 v 1.96875 q 1.53125,-2.28125 4.40625,-2.28125 1.25,0 2.29688,0.45313 1.04687,0.45312 1.5625,1.1875 0.53125,0.71875 0.73437,1.71875 0.125,0.65625 0.125,2.28125 v 8.5 h -2.34375 v -8.40625 q 0,-1.4375 -0.28125,-2.14063 -0.26562,-0.71875 -0.96875,-1.14062 -0.6875,-0.42188 -1.625,-0.42188 -1.48437,0 -2.57812,0.95313 -1.09375,0.95312 -1.09375,3.60937 v 7.54688 z"
       fill-rule="nonzero"
       id="path1277" />
    <path
       fill="#000000"
       fill-opacity="0"
       d="M 172.02708,66.68011 V 93.861209"
       fill-rule="evenodd"
       id="path1279" />
    <path
       stroke="#000000"
       stroke-width="1"
       stroke-linejoin="round"
       stroke-linecap="butt"
       d="M 172.02708,66.6801 V 87.861214"
       fill-rule="evenodd"
       id="path1281" />
    <path
       fill="#000000"
       stroke="#000000"
       stroke-width="1"
       stroke-linecap="butt"
       d="m 170.37535,87.86121 1.65173,4.538094 1.65174,-4.538094 z"
       fill-rule="evenodd"
       id="path1283" />
    <path
       fill="#000000"
       fill-opacity="0"
       d="m 172.02756,185.91733 v 27.18109"
       fill-rule="evenodd"
       id="path1285" />
    <path
       stroke="#000000"
       stroke-width="1"
       stroke-linejoin="round"
       stroke-linecap="butt"
       d="m 172.02756,185.91733 v 21.18109"
       fill-rule="evenodd"
       id="path1287" />
    <path
       fill="#000000"
       stroke="#000000"
       stroke-width="1"
       stroke-linecap="butt"
       d="m 170.37582,207.09842 1.65173,4.5381 1.65174,-4.5381 z"
       fill-rule="evenodd"
       id="path1289" />
    <path
       fill="#000000"
       fill-opacity="0"
       d="m 172.02945,284.61154 v 35.40158"
       fill-rule="evenodd"
       id="path1291" />
    <path
       fill="#cfe2f3"
       d="m 68.6168,93.86089 h 248.37534 v 92.05775 H 68.6168 Z"
       fill-rule="evenodd"
       id="path1297" />
    <path
       fill="#000000"
       fill-opacity="0"
       d="m 99.66371,93.86089 v 92.05775 M 68.616797,105.36811 H 316.99214"
       fill-rule="evenodd"
       id="path1299" />
    <path
       fill="#000000"
       fill-opacity="0"
       d="m 68.6168,93.86089 h 248.37534 v 92.05775 H 68.6168 Z"
       fill-rule="evenodd"
       id="path1301" />
    <path
       stroke="#000000"
       stroke-width="1"
       stroke-linejoin="round"
       stroke-linecap="butt"
       d="m 99.66371,93.86089 v 92.05775 M 68.616797,105.36811 H 316.99214"
       fill-rule="evenodd"
       id="path1303" />
    <path
       stroke="#000000"
       stroke-width="1"
       stroke-linejoin="round"
       stroke-linecap="butt"
       d="m 68.6168,93.86089 h 248.37534 v 92.05775 H 68.6168 Z"
       fill-rule="evenodd"
       id="path1305" />
    <path
       fill="#000000"
       fill-opacity="0"
       d="m 378.84515,103.88976 h 298.62988 v 72.00001 H 378.84515 Z"
       fill-rule="evenodd"
       id="path1315" />
    <path
       stroke="#000000"
       stroke-width="1"
       stroke-linejoin="round"
       stroke-linecap="butt"
       stroke-dasharray="1, 3"
       d="m 378.84515,103.88976 h 298.62988 v 72.00001 H 378.84515 Z"
       fill-rule="evenodd"
       id="path1317" />
    <path
       fill="#000000"
       fill-opacity="0"
       d="m 378.84515,212.61679 h 298.62988 v 72 H 378.84515 Z"
       fill-rule="evenodd"
       id="path1323" />
    <path
       fill="#000000"
       fill-opacity="0"
       d="M 378.84515,248.61679 H 316.98687"
       fill-rule="evenodd"
       id="path1329" />
    <path
       fill="#000000"
       fill-opacity="0"
       d="M 378.84515,139.88977 H 316.98687"
       fill-rule="evenodd"
       id="path1335" />
    <path
       stroke="#000000"
       stroke-width="1"
       stroke-linejoin="round"
       stroke-linecap="butt"
       d="M 378.84515,139.88977 H 322.98687"
       fill-rule="evenodd"
       id="path1337" />
    <path
       fill="#000000"
       stroke="#000000"
       stroke-width="1"
       stroke-linecap="butt"
       d="m 322.98688,138.23804 -4.53809,1.65173 4.53809,1.65172 z"
       fill-rule="evenodd"
       id="path1339" />
  </g>
  <text
     xml:space="preserve"
     style="font-style:normal;font-variant:normal;font-weight:normal;font-stretch:normal;font-size:26.6667px;line-height:1.25;font-family:Arial;-inkscape-font-specification:Arial;fill:#000000;fill-opacity:1"
     x="370.67746"
     y="55.200706"
     id="text1914"><tspan
       sodipodi:role="line"
       id="tspan1912"
       x="370.67746"
       y="55.200706" /></text>
  <text
     xml:space="preserve"
     style="font-size:26.6667px;line-height:1.25;font-family:Alegreya;-inkscape-font-specification:Alegreya;fill:#000000;fill-opacity:1"
     x="321.66687"
     y="123.66398"
     id="text1918"><tspan
       sodipodi:role="line"
       id="tspan1916"
       x="321.66687"
       y="123.66398"
       style="font-style:normal;font-variant:normal;font-weight:normal;font-stretch:normal;font-family:Arial;-inkscape-font-specification:Arial">Déclaration et définition</tspan><tspan
       sodipodi:role="line"
       x="321.66687"
       y="157.77721"
       style="font-style:normal;font-variant:normal;font-weight:normal;font-stretch:normal;font-family:Arial;-inkscape-font-specification:Arial"
       id="tspan1920">de la variabe</tspan></text>
  <path
     fill="#000000"
     d="M 65.18682,142.03973 H 63.01494 V 122.9616 h 2.34375 v 6.79688 q 1.48438,-1.85938 3.78125,-1.85938 1.28125,0 2.40625,0.51563 1.14063,0.51562 1.875,1.45312 0.75,0.92188 1.15625,2.25 0.42188,1.3125 0.42188,2.79688 0,3.5625 -1.76563,5.5 -1.75,1.9375 -4.21875,1.9375 -2.4375,0 -3.82812,-2.04688 z m -0.0312,-7.01563 q 0,2.48438 0.67187,3.59375 1.10938,1.8125 3,1.8125 1.53125,0 2.65625,-1.32812 1.125,-1.34375 1.125,-3.98438 0,-2.70312 -1.07812,-3.98437 -1.07813,-1.29688 -2.59375,-1.29688 -1.54688,0 -2.67188,1.32813 -1.10937,1.32812 -1.10937,3.85937 z m 11.82494,0.10938 q 0,-3.84375 2.125,-5.6875 1.78125,-1.54688 4.34375,-1.54688 2.85937,0 4.65625,1.875 1.8125,1.85938 1.8125,5.15625 0,2.67188 -0.79688,4.20313 -0.79687,1.53125 -2.32812,2.375 -1.53125,0.84375 -3.34375,0.84375 -2.89063,0 -4.6875,-1.85938 -1.78125,-1.85937 -1.78125,-5.35937 z m 2.40625,0 q 0,2.65625 1.15625,3.98437 1.15625,1.3125 2.90625,1.3125 1.75,0 2.90625,-1.32812 1.15625,-1.32813 1.15625,-4.04688 0,-2.5625 -1.17188,-3.89062 -1.15625,-1.32813 -2.89062,-1.32813 -1.75,0 -2.90625,1.32813 -1.15625,1.3125 -1.15625,3.96875 z m 11.71556,6.90625 5.0625,-7.1875 -4.67188,-6.64063 h 2.92188 l 2.125,3.25 q 0.59375,0.92188 0.96875,1.54688 0.5625,-0.85938 1.04687,-1.53125 l 2.32813,-3.26563 h 2.79687 l -4.78125,6.51563 5.15625,7.3125 h -2.89062 l -2.82813,-4.29688 -0.75,-1.15625 -3.64062,5.45313 z m 34.62471,-11.21875 h -12.59375 v -2.1875 h 12.59375 z m 0,5.79687 h -12.59375 v -2.1875 h 12.59375 z m 22.31656,3.17188 v 2.25 h -12.60938 q -0.0312,-0.84375 0.26563,-1.625 0.48437,-1.29688 1.54687,-2.54688 1.0625,-1.25 3.0625,-2.875 3.10938,-2.5625 4.20313,-4.04687 1.09375,-1.5 1.09375,-2.8125 0,-1.40625 -1,-2.35938 -0.98438,-0.95312 -2.59375,-0.95312 -1.6875,0 -2.70313,1.01562 -1.01562,1.01563 -1.03125,2.8125 l -2.40625,-0.25 q 0.25,-2.6875 1.85938,-4.09375 1.60937,-1.42187 4.32812,-1.42187 2.75,0 4.34375,1.53125 1.60938,1.51562 1.60938,3.76562 0,1.14063 -0.46875,2.25 -0.46875,1.10938 -1.5625,2.32813 -1.07813,1.21875 -3.60938,3.35937 -2.09375,1.76563 -2.70312,2.40625 -0.59375,0.625 -0.98438,1.26563 z m 6.12179,-8.09375 q -1.46875,-0.53125 -2.17187,-1.51563 -0.70313,-1 -0.70313,-2.375 0,-2.09375 1.5,-3.5 1.5,-1.42187 3.98438,-1.42187 2.5,0 4.01562,1.45312 1.53125,1.45313 1.53125,3.53125 0,1.32813 -0.70312,2.3125 -0.6875,0.98438 -2.10938,1.51563 1.75,0.5625 2.67188,1.84375 0.92187,1.28125 0.92187,3.04687 0,2.45313 -1.73437,4.125 -1.73438,1.65625 -4.5625,1.65625 -2.8125,0 -4.54688,-1.67187 -1.73437,-1.67188 -1.73437,-4.17188 0,-1.85937 0.9375,-3.10937 0.95312,-1.26563 2.70312,-1.71875 z m -0.46875,-3.96875 q 0,1.34375 0.85938,2.20312 0.875,0.85938 2.26562,0.85938 1.35938,0 2.21875,-0.84375 0.875,-0.85938 0.875,-2.09375 0,-1.28125 -0.89062,-2.15625 -0.89063,-0.89063 -2.21875,-0.89063 -1.34375,0 -2.23438,0.85938 -0.875,0.85937 -0.875,2.0625 z m -0.76562,8.8125 q 0,1 0.46875,1.9375 0.48437,0.9375 1.42187,1.45312 0.9375,0.51563 2.01563,0.51563 1.6875,0 2.78125,-1.07813 1.09375,-1.09375 1.09375,-2.75 0,-1.70312 -1.14063,-2.79687 -1.125,-1.10938 -2.8125,-1.10938 -1.65625,0 -2.75,1.09375 -1.07812,1.09375 -1.07812,2.73438 z"
     fill-rule="nonzero"
     id="path1313-1" />
</svg>
