<?xml version="1.0" encoding="UTF-8" standalone="no"?>
<svg
   xmlns:dc="http://purl.org/dc/elements/1.1/"
   xmlns:cc="http://creativecommons.org/ns#"
   xmlns:rdf="http://www.w3.org/1999/02/22-rdf-syntax-ns#"
   xmlns:svg="http://www.w3.org/2000/svg"
   xmlns="http://www.w3.org/2000/svg"
   xmlns:sodipodi="http://sodipodi.sourceforge.net/DTD/sodipodi-0.dtd"
   xmlns:inkscape="http://www.inkscape.org/namespaces/inkscape"
   version="1.1"
   viewBox="0 0 207.4698 496.90448"
   fill="none"
   stroke="none"
   stroke-linecap="square"
   stroke-miterlimit="10"
   id="svg5922"
   sodipodi:docname="numberchange.svg"
   width="207.4698"
   height="496.90448"
   inkscape:version="1.0.2-2 (e86c870879, 2021-01-15)">
  <metadata
     id="metadata5928">
    <rdf:RDF>
      <cc:Work
         rdf:about="">
        <dc:format>image/svg+xml</dc:format>
        <dc:type
           rdf:resource="http://purl.org/dc/dcmitype/StillImage" />
        <dc:title></dc:title>
      </cc:Work>
    </rdf:RDF>
  </metadata>
  <defs
     id="defs5926">
    <rect
       x="408.82547"
       y="182.39906"
       width="216.54272"
       height="55.708084"
       id="rect19311" />
  </defs>
  <sodipodi:namedview
     pagecolor="#ffffff"
     bordercolor="#666666"
     borderopacity="1"
     objecttolerance="10"
     gridtolerance="10"
     guidetolerance="10"
     inkscape:pageopacity="0"
     inkscape:pageshadow="2"
     inkscape:window-width="1920"
     inkscape:window-height="1017"
     id="namedview5924"
     showgrid="false"
     fit-margin-top="0"
     fit-margin-left="0"
     fit-margin-right="0"
     fit-margin-bottom="0"
     inkscape:zoom="1.1129444"
     inkscape:cx="314.54674"
     inkscape:cy="310.18245"
     inkscape:window-x="-8"
     inkscape:window-y="-8"
     inkscape:window-maximized="1"
     inkscape:current-layer="svg5922"
     inkscape:document-rotation="0" />
  <clipPath
     id="p.0">
    <path
       d="M 0,0 H 960 V 720 H 0 Z"
       clip-rule="nonzero"
       id="path5723" />
  </clipPath>
  <path
     fill="#000000"
     fill-opacity="0"
     d="M -11.107611,-8.198163 H 948.89239 V 711.80184 H -11.107611 Z"
     fill-rule="evenodd"
     id="path5726" />
  <path
     fill="#cfe2f3"
     d="m 38.926386,0.5 h 82.589864 v 0 c 10.81949,0 19.59042,8.869838 19.59042,19.811337 0,10.9415 -8.77093,19.811338 -19.59042,19.811338 H 38.926386 v 0 c -10.819496,0 -19.590427,-8.869839 -19.590427,-19.811338 C 19.335959,9.369837 28.10689,0.5 38.926386,0.5 Z"
     fill-rule="evenodd"
     id="path5728" />
  <path
     stroke="#000000"
     stroke-width="1"
     stroke-linejoin="round"
     stroke-linecap="butt"
     d="m 38.926386,0.5 h 82.589864 v 0 c 10.81949,0 19.59042,8.869838 19.59042,19.811337 0,10.9415 -8.77093,19.811338 -19.59042,19.811338 H 38.926386 v 0 c -10.819496,0 -19.590427,-8.869839 -19.590427,-19.811338 C 19.335959,9.369837 28.10689,0.5 38.926386,0.5 Z"
     fill-rule="evenodd"
     id="path5730" />
  <path
     fill="#000000"
     d="m 51.753542,27.511337 v -14.3125 h 4.921875 q 1.671875,0 2.5625,0.203125 1.21875,0.28125 2.09375,1.015625 1.125,0.96875 1.6875,2.453125 0.5625,1.484375 0.5625,3.40625 0,1.625 -0.375,2.890625 -0.375,1.25 -0.984375,2.078125 -0.59375,0.828125 -1.296875,1.3125 -0.703125,0.46875 -1.703125,0.71875 -1,0.234375 -2.3125,0.234375 z m 1.890625,-1.6875 h 3.0625 q 1.40625,0 2.203125,-0.265625 0.8125,-0.265625 1.296875,-0.75 0.671875,-0.671875 1.046875,-1.796875 0.375,-1.140625 0.375,-2.765625 0,-2.25 -0.734375,-3.453125 -0.734375,-1.203125 -1.796875,-1.609375 -0.75,-0.296875 -2.4375,-0.296875 h -3.015625 z m 19.427734,-1.65625 1.8125,0.234375 q -0.421875,1.578125 -1.59375,2.46875 -1.15625,0.875 -2.96875,0.875 -2.265625,0 -3.609375,-1.390625 -1.328125,-1.40625 -1.328125,-3.9375 0,-2.625 1.34375,-4.0625 1.34375,-1.453125 3.5,-1.453125 2.078125,0 3.390625,1.421875 1.328125,1.40625 1.328125,3.984375 0,0.15625 -0.01563,0.46875 h -7.734375 q 0.09375,1.703125 0.96875,2.609375 0.875,0.90625 2.171875,0.90625 0.96875,0 1.640625,-0.5 0.6875,-0.515625 1.09375,-1.625 z m -5.78125,-2.84375 h 5.796875 q -0.109375,-1.296875 -0.65625,-1.953125 -0.84375,-1.015625 -2.1875,-1.015625 -1.203125,0 -2.03125,0.8125 -0.828125,0.796875 -0.921875,2.15625 z m 1.90625,-5.46875 1.296875,-2.734375 h 2.296875 l -2.140625,2.734375 z m 7.888672,15.625 v -14.34375 h 1.609375 v 1.34375 q 0.5625,-0.78125 1.265625,-1.171875 0.71875,-0.40625 1.734375,-0.40625 1.328125,0 2.34375,0.6875 1.015625,0.6875 1.53125,1.9375 0.53125,1.234375 0.53125,2.71875 0,1.59375 -0.578125,2.875 -0.5625,1.265625 -1.65625,1.953125 -1.09375,0.671875 -2.296875,0.671875 -0.875,0 -1.578125,-0.375 -0.6875,-0.375 -1.140625,-0.9375 v 5.046875 z m 1.59375,-9.09375 q 0,2 0.8125,2.953125 0.8125,0.953125 1.96875,0.953125 1.171875,0 2,-0.984375 0.84375,-0.984375 0.84375,-3.078125 0,-1.96875 -0.828125,-2.953125 -0.8125,-1 -1.9375,-1 -1.125,0 -2,1.0625 -0.859375,1.046875 -0.859375,3.046875 z m 16.310546,3.84375 q -0.98437,0.828125 -1.89062,1.171875 -0.90625,0.34375 -1.9375,0.34375 -1.70313,0 -2.625004,-0.828125 -0.921875,-0.84375 -0.921875,-2.140625 0,-0.765625 0.34375,-1.390625 0.359375,-0.625 0.921875,-1 0.562504,-0.390625 1.265624,-0.59375 0.51563,-0.125 1.5625,-0.265625 2.125,-0.25 3.125,-0.59375 0.0156,-0.359375 0.0156,-0.46875 0,-1.0625 -0.5,-1.515625 -0.67188,-0.59375 -2,-0.59375 -1.25,0 -1.84375,0.4375 -0.57813,0.4375 -0.85938,1.546875 L 87.92737,20.105087 q 0.234375,-1.109375 0.765625,-1.78125 0.531254,-0.6875 1.546874,-1.046875 1.01563,-0.375 2.35938,-0.375 1.32812,0 2.15625,0.3125 0.82812,0.3125 1.21875,0.796875 0.39062,0.46875 0.54687,1.1875 0.0937,0.453125 0.0937,1.625 v 2.34375 q 0,2.453125 0.10938,3.109375 0.10937,0.640625 0.45312,1.234375 h -1.84375 q -0.26562,-0.546875 -0.34375,-1.28125 z m -0.15625,-3.921875 q -0.95312,0.390625 -2.875,0.65625 -1.07812,0.15625 -1.53125,0.359375 -0.4375,0.1875 -0.6875,0.5625 -0.25,0.375 -0.25,0.84375 0,0.703125 0.53125,1.171875 0.53125,0.46875 1.5625,0.46875 1.01563,0 1.79688,-0.4375 0.79687,-0.453125 1.17187,-1.21875 0.28125,-0.609375 0.28125,-1.765625 z m 4.48242,5.203125 v -10.375 h 1.578131 v 1.578125 q 0.60937,-1.109375 1.125,-1.453125 0.51562,-0.359375 1.125,-0.359375 0.89062,0 1.8125,0.5625 l -0.60938,1.640625 q -0.64062,-0.390625 -1.28125,-0.390625 -0.57812,0 -1.04687,0.359375 -0.45313,0.34375 -0.65625,0.953125 -0.28125,0.9375 -0.28125,2.046875 v 5.4375 z m 10.519531,-1.578125 0.25,1.5625 q -0.73437,0.15625 -1.32812,0.15625 -0.95313,0 -1.48438,-0.296875 -0.51562,-0.3125 -0.73437,-0.796875 -0.21875,-0.5 -0.21875,-2.078125 v -5.96875 h -1.28125 v -1.375 h 1.28125 v -2.5625 l 1.75,-1.0625 v 3.625 h 1.76562 v 1.375 h -1.76562 v 6.0625 q 0,0.75 0.0937,0.96875 0.0937,0.203125 0.29687,0.34375 0.21875,0.125 0.60938,0.125 0.28125,0 0.76562,-0.07813 z"
     fill-rule="nonzero"
     id="path5732" />
  <path
     fill="#cfe2f3"
     d="m 35.648132,439.38843 h 89.145838 v 0 c 11.67834,0 21.1455,12.76349 21.1455,28.50806 0,15.74456 -9.46716,28.50799 -21.1455,28.50799 H 35.648132 v 0 c -11.678345,0 -21.145514,-12.76342 -21.145514,-28.50799 0,-15.74457 9.467169,-28.50806 21.145514,-28.50806 z"
     fill-rule="evenodd"
     id="path5734" />
  <path
     stroke="#000000"
     stroke-width="1"
     stroke-linejoin="round"
     stroke-linecap="butt"
     d="m 35.648132,439.38843 h 89.145838 v 0 c 11.67834,0 21.1455,12.76349 21.1455,28.50806 0,15.74456 -9.46716,28.50799 -21.1455,28.50799 H 35.648132 v 0 c -11.678345,0 -21.145514,-12.76342 -21.145514,-28.50799 0,-15.74457 9.467169,-28.50806 21.145514,-28.50806 z"
     fill-rule="evenodd"
     id="path5736" />
  <path
     fill="#000000"
     d="m 63.893646,477.49648 v -19.07812 h 12.875 v 2.25 h -10.34375 v 5.90625 h 8.953125 v 2.25 h -8.953125 v 8.67187 z m 15.860825,-16.39062 v -2.6875 h 2.34375 v 2.6875 z m 0,16.39062 v -13.82812 h 2.34375 v 13.82812 z m 5.906548,0 v -13.82812 h 2.109375 v 1.96875 q 1.531255,-2.28125 4.406255,-2.28125 1.25,0 2.29687,0.45312 1.04687,0.45313 1.56249,1.1875 0.53125,0.71875 0.73438,1.71875 0.125,0.65625 0.125,2.28125 v 8.5 h -2.34374 v -8.40625 q 0,-1.4375 -0.28125,-2.14062 -0.26563,-0.71875 -0.96875,-1.14063 -0.6875,-0.42187 -1.625,-0.42187 -1.48438,0 -2.57813,0.95312 -1.09375,0.95313 -1.09375,3.60938 v 7.54687 z"
     fill-rule="nonzero"
     id="path5738" />
  <path
     fill="#cfe2f3"
     d="M 3.871392,59.981627 H 156.57218 V 116.99738 H 3.871392 Z"
     fill-rule="evenodd"
     id="path5740" />
  <path
     fill="#000000"
     fill-opacity="0"
     d="M 22.958989,59.981627 V 116.99738 M 3.871392,67.108596 H 156.57218"
     fill-rule="evenodd"
     id="path5742" />
  <path
     fill="#000000"
     fill-opacity="0"
     d="M 3.871392,59.981627 H 156.57218 V 116.99738 H 3.871392 Z"
     fill-rule="evenodd"
     id="path5744" />
  <path
     stroke="#000000"
     stroke-width="1"
     stroke-linejoin="round"
     stroke-linecap="butt"
     d="M 22.958989,59.981627 V 116.99738 M 3.871392,67.108596 H 156.57218"
     fill-rule="evenodd"
     id="path5746" />
  <path
     stroke="#000000"
     stroke-width="1"
     stroke-linejoin="round"
     stroke-linecap="butt"
     d="M 3.871392,59.981627 H 156.57218 V 116.99738 H 3.871392 Z"
     fill-rule="evenodd"
     id="path5748" />
  <path
     fill="#000000"
     fill-opacity="0"
     d="m 207.46981,68.679217 h 298.6299 v 39.622053 h -298.6299 z"
     fill-rule="evenodd"
     id="path5758" />
  <path
     fill="#000000"
     fill-opacity="0"
     d="m 207.46981,140.30053 h 298.6299 v 39.62204 h -298.6299 z"
     fill-rule="evenodd"
     id="path5764" />
  <path
     fill="#000000"
     fill-opacity="0"
     d="m 207.46981,160.11155 h -61.5433"
     fill-rule="evenodd"
     id="path5770" />
  <path
     fill="#000000"
     fill-opacity="0"
     d="M 207.46981,88.490237 H 156.57218"
     fill-rule="evenodd"
     id="path5776" />
  <path
     fill="#cfe2f3"
     d="M 9.803458,140.65122 H 152.83758 v 57.01573 H 9.803458 Z"
     fill-rule="evenodd"
     id="path5782" />
  <path
     fill="#000000"
     fill-opacity="0"
     d="m 26.585302,204.94489 v 57.01573 M 8.706037,212.07186 H 151.74016"
     fill-rule="evenodd"
     id="path5784" />
  <path
     fill="#000000"
     fill-opacity="0"
     d="M 8.706037,204.94489 H 151.74016 v 57.01573 H 8.706037 Z"
     fill-rule="evenodd"
     id="path5786" />
  <path
     stroke="#000000"
     stroke-width="1"
     stroke-linejoin="round"
     stroke-linecap="butt"
     d="m 27.682723,140.65122 v 57.01573 M 9.803458,147.77819 H 152.83758"
     fill-rule="evenodd"
     id="path5788" />
  <path
     stroke="#000000"
     stroke-width="1"
     stroke-linejoin="round"
     stroke-linecap="butt"
     d="M 9.803457,140.65122 H 152.83758 v 57.01573 H 9.803457 Z"
     fill-rule="evenodd"
     id="path5790" />
  <path
     fill="#cfe2f3"
     d="M 6.353479,224.70375 H 166.79443 V 281.7195 H 6.353479 Z"
     fill-rule="evenodd"
     id="path5800" />
  <path
     fill="#000000"
     fill-opacity="0"
     d="m 20.055119,350.50262 v 57.01575 M 0,357.6296 h 160.44095"
     fill-rule="evenodd"
     id="path5802" />
  <path
     fill="#000000"
     fill-opacity="0"
     d="m 1e-6,350.50262 H 160.44095 v 57.01575 H 10e-7 Z"
     fill-rule="evenodd"
     id="path5804" />
  <path
     stroke="#000000"
     stroke-width="1"
     stroke-linejoin="round"
     stroke-linecap="butt"
     d="M 26.408597,224.70375 V 281.7195 M 6.353478,231.83073 H 166.79443"
     fill-rule="evenodd"
     id="path5806" />
  <path
     stroke="#000000"
     stroke-width="1"
     stroke-linejoin="round"
     stroke-linecap="butt"
     d="M 6.353481,224.70375 H 166.79443 V 281.7195 H 6.353481 Z"
     fill-rule="evenodd"
     id="path5808" />
  <path
     fill="#cfe2f3"
     d="M 19.335953,306.61681 H 141.10761 v 37.13516 H 19.335953 Z"
     fill-rule="evenodd"
     id="path5818" />
  <path
     stroke="#000000"
     stroke-width="1"
     stroke-linejoin="round"
     stroke-linecap="butt"
     d="M 19.335953,306.61681 H 141.10761 v 37.13516 H 19.335953 Z"
     fill-rule="evenodd"
     id="path5820" />
  <path
     fill="#cfe2f3"
     d="M 19.335953,368.48953 H 141.10761 v 37.13519 H 19.335953 Z"
     fill-rule="evenodd"
     id="path5824" />
  <path
     stroke="#000000"
     stroke-width="1"
     stroke-linejoin="round"
     stroke-linecap="butt"
     d="M 19.335953,368.48953 H 141.10761 v 37.13519 H 19.335953 Z"
     fill-rule="evenodd"
     id="path5826" />
  <path
     fill="#000000"
     fill-opacity="0"
     d="m 207.46981,207.50861 h 298.6299 v 39.62205 h -298.6299 z"
     fill-rule="evenodd"
     id="path5830" />
  <path
     fill="#000000"
     fill-opacity="0"
     d="m 207.46981,286.80578 h 298.6299 v 39.62204 h -298.6299 z"
     fill-rule="evenodd"
     id="path5836" />
  <path
     fill="#000000"
     fill-opacity="0"
     d="m 207.46981,306.61681 h -66.3622"
     fill-rule="evenodd"
     id="path5842" />
  <path
     fill="#000000"
     fill-opacity="0"
     d="M 207.46981,227.31963 H 156.57218"
     fill-rule="evenodd"
     id="path5848" />
  <path
     fill="#000000"
     fill-opacity="0"
     d="m 207.46981,359.9732 h 298.6299 v 39.62204 h -298.6299 z"
     fill-rule="evenodd"
     id="path5854" />
  <path
     fill="#000000"
     fill-opacity="0"
     d="m 207.46981,379.7842 -47.02362,-0.78738"
     fill-rule="evenodd"
     id="path5860" />
  <path
     fill="#000000"
     fill-opacity="0"
     d="M 80.221315,40.122677 V 59.996693"
     fill-rule="evenodd"
     id="path5866" />
  <path
     stroke="#000000"
     stroke-width="1"
     stroke-linejoin="round"
     stroke-linecap="butt"
     d="M 80.221315,40.122677 V 53.996693"
     fill-rule="evenodd"
     id="path5868" />
  <path
     fill="#000000"
     stroke="#000000"
     stroke-width="1"
     stroke-linecap="butt"
     d="m 78.569579,53.996692 1.651733,4.538101 1.651734,-4.538101 z"
     fill-rule="evenodd"
     id="path5870" />
  <path
     fill="#000000"
     fill-opacity="0"
     d="m 80.221789,116.99738 v 23.30708"
     fill-rule="evenodd"
     id="path5872" />
  <path
     stroke="#000000"
     stroke-width="1"
     stroke-linejoin="round"
     stroke-linecap="butt"
     d="m 80.221789,116.99738 v 17.30708"
     fill-rule="evenodd"
     id="path5874" />
  <path
     fill="#000000"
     stroke="#000000"
     stroke-width="1"
     stroke-linecap="butt"
     d="m 78.570055,134.30446 1.651733,4.5381 1.651734,-4.5381 z"
     fill-rule="evenodd"
     id="path5876" />
  <path
     fill="#000000"
     fill-opacity="0"
     d="m 80.221789,179.92257 v 25.00789"
     fill-rule="evenodd"
     id="path5878" />
  <path
     fill="#000000"
     fill-opacity="0"
     d="m 80.223099,261.96062 v 26.07873"
     fill-rule="evenodd"
     id="path5884" />
  <path
     stroke="#000000"
     stroke-width="1"
     stroke-linejoin="round"
     stroke-linecap="butt"
     d="m 80.672358,198.16588 v 20.07873"
     fill-rule="evenodd"
     id="path5886" />
  <path
     fill="#000000"
     stroke="#000000"
     stroke-width="1"
     stroke-linecap="butt"
     d="m 79.020628,218.24462 1.651733,4.53812 1.651734,-4.53812 z"
     fill-rule="evenodd"
     id="path5888" />
  <path
     fill="#000000"
     fill-opacity="0"
     d="m 80.220479,325.18504 v 25.32281"
     fill-rule="evenodd"
     id="path5890" />
  <path
     fill="#000000"
     fill-opacity="0"
     d="m 80.220479,407.51836 v 24.94488"
     fill-rule="evenodd"
     id="path5896" />
  <path
     fill="#000000"
     fill-opacity="0"
     d="m 80.221786,281.8793 v 24.7244"
     fill-rule="evenodd"
     id="path5902" />
  <path
     stroke="#000000"
     stroke-width="1"
     stroke-linejoin="round"
     stroke-linecap="butt"
     d="m 80.221786,281.8793 v 18.7244"
     fill-rule="evenodd"
     id="path5904" />
  <path
     fill="#000000"
     stroke="#000000"
     stroke-width="1"
     stroke-linecap="butt"
     d="m 78.570046,300.60369 1.651733,4.53809 1.651726,-4.53809 z"
     fill-rule="evenodd"
     id="path5906" />
  <path
     fill="#000000"
     fill-opacity="0"
     d="m 80.221786,343.75198 v 24.72443"
     fill-rule="evenodd"
     id="path5908" />
  <path
     stroke="#000000"
     stroke-width="1"
     stroke-linejoin="round"
     stroke-linecap="butt"
     d="m 80.221786,343.75198 v 18.72443"
     fill-rule="evenodd"
     id="path5910" />
  <path
     fill="#000000"
     stroke="#000000"
     stroke-width="1"
     stroke-linecap="butt"
     d="m 78.570046,362.47643 1.651733,4.53809 1.651726,-4.53809 z"
     fill-rule="evenodd"
     id="path5912" />
  <path
     fill="#000000"
     fill-opacity="0"
     d="m 80.221786,405.62473 v 33.76373"
     fill-rule="evenodd"
     id="path5914" />
  <path
     stroke="#000000"
     stroke-width="1"
     stroke-linejoin="round"
     stroke-linecap="butt"
     d="m 80.221786,405.62473 v 27.76373"
     fill-rule="evenodd"
     id="path5916" />
  <path
     fill="#000000"
     stroke="#000000"
     stroke-width="1"
     stroke-linecap="butt"
     d="m 78.570046,433.38843 1.651733,4.53809 1.651726,-4.53809 z"
     fill-rule="evenodd"
     id="path5918" />
  <text
     xml:space="preserve"
     style="font-size:24px;line-height:1.25;font-family:Alegreya;-inkscape-font-specification:Alegreya;fill:#000000;fill-opacity:1"
     x="49.808292"
     y="99.917763"
     id="text1918"><tspan
       sodipodi:role="line"
       x="49.808292"
       y="99.917763"
       style="font-style:normal;font-variant:normal;font-weight:normal;font-stretch:normal;font-size:24px;font-family:Arial;-inkscape-font-specification:Arial"
       id="tspan1920">a = 25</tspan></text>
  <text
     xml:space="preserve"
     id="text19309"
     style="font-size:26.6667px;line-height:1.25;font-family:Calibri;-inkscape-font-specification:Calibri;white-space:pre;shape-inside:url(#rect19311);"
     transform="translate(10e-7,0.5)" />
  <text
     xml:space="preserve"
     style="font-size:24px;line-height:1.25;font-family:Alegreya;-inkscape-font-specification:Alegreya;fill:#000000;fill-opacity:1"
     x="50.656094"
     y="181.64804"
     id="text1918-6"><tspan
       sodipodi:role="line"
       x="50.656094"
       y="181.64804"
       style="font-style:normal;font-variant:normal;font-weight:normal;font-stretch:normal;font-size:24px;font-family:Arial;-inkscape-font-specification:Arial"
       id="tspan1920-5">b = 39</tspan></text>
  <text
     xml:space="preserve"
     style="font-size:24px;line-height:1.25;font-family:Alegreya;-inkscape-font-specification:Alegreya;fill:#000000;fill-opacity:1"
     x="50.546185"
     y="265.01782"
     id="text1918-6-2"><tspan
       sodipodi:role="line"
       x="50.546185"
       y="265.01782"
       style="font-style:normal;font-variant:normal;font-weight:normal;font-stretch:normal;font-size:24px;font-family:Arial;-inkscape-font-specification:Arial"
       id="tspan1920-5-1">c = b</tspan></text>
  <text
     xml:space="preserve"
     style="font-size:24px;line-height:1.25;font-family:Alegreya;-inkscape-font-specification:Alegreya;fill:#000000;fill-opacity:1"
     x="53.092308"
     y="331.84125"
     id="text1918-6-2-1"><tspan
       sodipodi:role="line"
       x="53.092308"
       y="331.84125"
       style="font-style:normal;font-variant:normal;font-weight:normal;font-stretch:normal;font-size:24px;font-family:Arial;-inkscape-font-specification:Arial"
       id="tspan1920-5-1-7">b = a</tspan></text>
  <text
     xml:space="preserve"
     style="font-size:24px;line-height:1.25;font-family:Alegreya;-inkscape-font-specification:Alegreya;fill:#000000;fill-opacity:1"
     x="54.025696"
     y="395.37607"
     id="text1918-6-2-1-2"><tspan
       sodipodi:role="line"
       x="54.025696"
       y="395.37607"
       style="font-style:normal;font-variant:normal;font-weight:normal;font-stretch:normal;font-size:24px;font-family:Arial;-inkscape-font-specification:Arial"
       id="tspan1920-5-1-7-8">a = c</tspan></text>
</svg>
